<?xml version="1.0" encoding="UTF-8" standalone="no"?>
<!DOCTYPE svg PUBLIC "-//W3C//DTD SVG 1.1//EN"
 "http://www.w3.org/Graphics/SVG/1.1/DTD/svg11.dtd">
<!-- Generated by graphviz version 9.0.0 (20230911.1827)
 -->
<!-- Title: spdk_nvmf_discovery_log_page Pages: 1 -->
<svg width="154pt" height="206pt"
 viewBox="0.00 0.00 153.75 206.00" xmlns="http://www.w3.org/2000/svg" xmlns:xlink="http://www.w3.org/1999/xlink">
<g id="graph0" class="graph" transform="scale(1 1) rotate(0) translate(4 202)">
<title>spdk_nvmf_discovery_log_page</title>
<!-- Node1 -->
<g id="Node000001" class="node">
<title>Node1</title>
<g id="a_Node000001"><a xlink:title=" ">
<polygon fill="#999999" stroke="#666666" points="134.12,-33.5 11.62,-33.5 11.62,0 134.12,0 134.12,-33.5"/>
<text text-anchor="start" x="19.62" y="-20" font-family="Helvetica,sans-Serif" font-size="10.00">spdk_nvmf_discovery</text>
<text text-anchor="middle" x="72.88" y="-7.25" font-family="Helvetica,sans-Serif" font-size="10.00">_log_page</text>
</a>
</g>
</g>
<!-- Node2 -->
<g id="Node000002" class="node">
<title>Node2</title>
<g id="a_Node000002"><a xlink:href="structspdk__nvmf__discovery__log__page__entry.html" target="_top" xlink:title="Discovery Log Page entry.">
<polygon fill="white" stroke="#666666" points="134.12,-115.75 11.62,-115.75 11.62,-82.25 134.12,-82.25 134.12,-115.75"/>
<text text-anchor="start" x="19.62" y="-102.25" font-family="Helvetica,sans-Serif" font-size="10.00">spdk_nvmf_discovery</text>
<text text-anchor="middle" x="72.88" y="-89.5" font-family="Helvetica,sans-Serif" font-size="10.00">_log_page_entry</text>
</a>
</g>
</g>
<!-- Node2&#45;&gt;Node1 -->
<g id="edge1_Node000001_Node000002" class="edge">
<title>Node2&#45;&gt;Node1</title>
<g id="a_edge1_Node000001_Node000002"><a xlink:title=" ">
<path fill="none" stroke="#9a32cd" stroke-dasharray="5,2" d="M72.88,-70.38C72.88,-58.24 72.88,-44.4 72.88,-33.97"/>
<polygon fill="#9a32cd" stroke="#9a32cd" points="69.38,-70.25 72.88,-80.25 76.38,-70.25 69.38,-70.25"/>
</a>
</g>
<text text-anchor="middle" x="91.25" y="-54.75" font-family="Helvetica,sans-Serif" font-size="10.00" fill="grey"> entries</text>
</g>
<!-- Node3 -->
<g id="Node000003" class="node">
<title>Node3</title>
<g id="a_Node000003"><a xlink:href="unionspdk__nvmf__transport__specific__address__subtype.html" target="_top" xlink:title="Transport&#45;specific address subtype.">
<polygon fill="#fff0f0" stroke="red" points="145.75,-198 0,-198 0,-164.5 145.75,-164.5 145.75,-198"/>
<text text-anchor="start" x="8" y="-184.5" font-family="Helvetica,sans-Serif" font-size="10.00">spdk_nvmf_transport</text>
<text text-anchor="middle" x="72.88" y="-171.75" font-family="Helvetica,sans-Serif" font-size="10.00">_specific_address_subtype</text>
</a>
</g>
</g>
<!-- Node3&#45;&gt;Node2 -->
<g id="edge2_Node000002_Node000003" class="edge">
<title>Node3&#45;&gt;Node2</title>
<g id="a_edge2_Node000002_Node000003"><a xlink:title=" ">
<path fill="none" stroke="#9a32cd" stroke-dasharray="5,2" d="M72.88,-152.63C72.88,-140.49 72.88,-126.65 72.88,-116.22"/>
<polygon fill="#9a32cd" stroke="#9a32cd" points="69.38,-152.5 72.88,-162.5 76.38,-152.5 69.38,-152.5"/>
</a>
</g>
<text text-anchor="middle" x="84.5" y="-137" font-family="Helvetica,sans-Serif" font-size="10.00" fill="grey"> tsas</text>
</g>
</g>
</svg>
