<?xml version="1.0" encoding="UTF-8" standalone="no"?>
<!DOCTYPE svg PUBLIC "-//W3C//DTD SVG 1.1//EN"
 "http://www.w3.org/Graphics/SVG/1.1/DTD/svg11.dtd">
<!-- Generated by graphviz version 9.0.0 (20230911.1827)
 -->
<!-- Title: spdk_nvme_kv_ns_data Pages: 1 -->
<svg width="505pt" height="224pt"
 viewBox="0.00 0.00 505.25 223.75" xmlns="http://www.w3.org/2000/svg" xmlns:xlink="http://www.w3.org/1999/xlink">
<g id="graph0" class="graph" transform="scale(1 1) rotate(0) translate(4 219.75)">
<title>spdk_nvme_kv_ns_data</title>
<!-- Node1 -->
<g id="Node000001" class="node">
<title>Node1</title>
<g id="a_Node000001"><a xlink:title=" ">
<polygon fill="#999999" stroke="#666666" points="497.25,-117.75 364.25,-117.75 364.25,-97 497.25,-97 497.25,-117.75"/>
<text text-anchor="middle" x="430.75" y="-104.25" font-family="Helvetica,sans-Serif" font-size="10.00">spdk_nvme_kv_ns_data</text>
</a>
</g>
</g>
<!-- Node2 -->
<g id="Node000002" class="node">
<title>Node2</title>
<g id="a_Node000002"><a xlink:href="structspdk__nvme__nmic.html" target="_top" xlink:title=" ">
<polygon fill="white" stroke="#bfbfbf" points="279.88,-215.75 178.38,-215.75 178.38,-195 279.88,-195 279.88,-215.75"/>
<text text-anchor="middle" x="229.12" y="-202.25" font-family="Helvetica,sans-Serif" font-size="10.00">spdk_nvme_nmic</text>
</a>
</g>
</g>
<!-- Node2&#45;&gt;Node1 -->
<g id="edge1_Node000001_Node000002" class="edge">
<title>Node2&#45;&gt;Node1</title>
<g id="a_edge1_Node000001_Node000002"><a xlink:title=" ">
<path fill="none" stroke="#9a32cd" stroke-dasharray="5,2" d="M277.17,-190.98C282.53,-189.17 287.9,-187.28 293,-185.38 317.15,-176.35 323.57,-174.62 346.25,-162.38 371.45,-148.77 398.86,-129.85 415.15,-118.12"/>
<polygon fill="#9a32cd" stroke="#9a32cd" points="276.09,-187.65 267.68,-194.09 278.28,-194.3 276.09,-187.65"/>
</a>
</g>
<text text-anchor="middle" x="328.62" y="-180.62" font-family="Helvetica,sans-Serif" font-size="10.00" fill="grey"> nmic</text>
</g>
<!-- Node3 -->
<g id="Node000003" class="node">
<title>Node3</title>
<g id="a_Node000003"><a xlink:href="structspdk__nvme__rescap.html" target="_top" xlink:title=" ">
<polygon fill="white" stroke="#bfbfbf" points="284,-176.75 174.25,-176.75 174.25,-156 284,-156 284,-176.75"/>
<text text-anchor="middle" x="229.12" y="-163.25" font-family="Helvetica,sans-Serif" font-size="10.00">spdk_nvme_rescap</text>
</a>
</g>
</g>
<!-- Node3&#45;&gt;Node1 -->
<g id="edge2_Node000001_Node000003" class="edge">
<title>Node3&#45;&gt;Node1</title>
<g id="a_edge2_Node000001_Node000003"><a xlink:title=" ">
<path fill="none" stroke="#9a32cd" stroke-dasharray="5,2" d="M284.22,-152.69C303.83,-147.53 326.11,-141.43 346.25,-135.38 363.82,-130.09 383.27,-123.61 398.97,-118.21"/>
<polygon fill="#9a32cd" stroke="#9a32cd" points="283.58,-149.24 274.79,-155.15 285.35,-156.01 283.58,-149.24"/>
</a>
</g>
<text text-anchor="middle" x="328.62" y="-148.62" font-family="Helvetica,sans-Serif" font-size="10.00" fill="grey"> rescap</text>
</g>
<!-- Node4 -->
<g id="Node000004" class="node">
<title>Node4</title>
<g id="a_Node000004"><a xlink:href="structspdk__nvme__fpi.html" target="_top" xlink:title=" ">
<polygon fill="white" stroke="#bfbfbf" points="274.25,-137.75 184,-137.75 184,-117 274.25,-117 274.25,-137.75"/>
<text text-anchor="middle" x="229.12" y="-124.25" font-family="Helvetica,sans-Serif" font-size="10.00">spdk_nvme_fpi</text>
</a>
</g>
</g>
<!-- Node4&#45;&gt;Node1 -->
<g id="edge3_Node000001_Node000004" class="edge">
<title>Node4&#45;&gt;Node1</title>
<g id="a_edge3_Node000001_Node000004"><a xlink:title=" ">
<path fill="none" stroke="#9a32cd" stroke-dasharray="5,2" d="M285.61,-121.82C309.9,-119.38 338.59,-116.51 363.96,-113.97"/>
<polygon fill="#9a32cd" stroke="#9a32cd" points="285.54,-118.31 275.93,-122.79 286.23,-125.27 285.54,-118.31"/>
</a>
</g>
<text text-anchor="middle" x="328.62" y="-121.62" font-family="Helvetica,sans-Serif" font-size="10.00" fill="grey"> fpi</text>
</g>
<!-- Node5 -->
<g id="Node000005" class="node">
<title>Node5</title>
<g id="a_Node000005"><a xlink:href="structspdk__nvme__kv__kvfc.html" target="_top" xlink:title="KV format capabilities.">
<polygon fill="white" stroke="#666666" points="287,-98.75 171.25,-98.75 171.25,-78 287,-78 287,-98.75"/>
<text text-anchor="middle" x="229.12" y="-85.25" font-family="Helvetica,sans-Serif" font-size="10.00">spdk_nvme_kv_kvfc</text>
</a>
</g>
</g>
<!-- Node5&#45;&gt;Node1 -->
<g id="edge4_Node000001_Node000005" class="edge">
<title>Node5&#45;&gt;Node1</title>
<g id="a_edge4_Node000001_Node000005"><a xlink:title=" ">
<path fill="none" stroke="#9a32cd" stroke-dasharray="5,2" d="M298.49,-89.3C314.21,-89.95 330.83,-90.99 346.25,-92.62 355.47,-93.6 365.21,-94.99 374.66,-96.53"/>
<polygon fill="#9a32cd" stroke="#9a32cd" points="298.87,-85.81 288.75,-88.95 298.61,-92.81 298.87,-85.81"/>
</a>
</g>
<text text-anchor="middle" x="328.62" y="-95.62" font-family="Helvetica,sans-Serif" font-size="10.00" fill="grey"> kvfc</text>
</g>
<!-- Node6 -->
<g id="Node000006" class="node">
<title>Node6</title>
<g id="a_Node000006"><a xlink:href="structspdk__nvme__nsattr.html" target="_top" xlink:title=" ">
<polygon fill="white" stroke="#bfbfbf" points="282.12,-59.75 176.12,-59.75 176.12,-39 282.12,-39 282.12,-59.75"/>
<text text-anchor="middle" x="229.12" y="-46.25" font-family="Helvetica,sans-Serif" font-size="10.00">spdk_nvme_nsattr</text>
</a>
</g>
</g>
<!-- Node6&#45;&gt;Node1 -->
<g id="edge5_Node000001_Node000006" class="edge">
<title>Node6&#45;&gt;Node1</title>
<g id="a_edge5_Node000001_Node000006"><a xlink:title=" ">
<path fill="none" stroke="#9a32cd" stroke-dasharray="5,2" d="M293.53,-59.73C310.8,-63.18 329.39,-67.48 346.25,-72.62 367.43,-79.08 390.61,-88.97 407.16,-96.55"/>
<polygon fill="#9a32cd" stroke="#9a32cd" points="294.37,-56.32 283.89,-57.87 293.05,-63.2 294.37,-56.32"/>
</a>
</g>
<text text-anchor="middle" x="328.62" y="-75.62" font-family="Helvetica,sans-Serif" font-size="10.00" fill="grey"> nsattr</text>
</g>
<!-- Node7 -->
<g id="Node000007" class="node">
<title>Node7</title>
<g id="a_Node000007"><a xlink:href="structspdk__nvme__kv__format.html" target="_top" xlink:title="KV Format data structure (16 bytes, per KV spec Figure 42)">
<polygon fill="white" stroke="#666666" points="293,-20.75 165.25,-20.75 165.25,0 293,0 293,-20.75"/>
<text text-anchor="middle" x="229.12" y="-7.25" font-family="Helvetica,sans-Serif" font-size="10.00">spdk_nvme_kv_format</text>
</a>
</g>
</g>
<!-- Node7&#45;&gt;Node1 -->
<g id="edge6_Node000001_Node000007" class="edge">
<title>Node7&#45;&gt;Node1</title>
<g id="a_edge6_Node000001_Node000007"><a xlink:title=" ">
<path fill="none" stroke="#9a32cd" stroke-dasharray="5,2" d="M287.95,-24.39C307.04,-30.06 328.03,-37.47 346.25,-46.62 373.8,-60.47 402.02,-83.14 417.58,-96.52"/>
<polygon fill="#9a32cd" stroke="#9a32cd" points="289,-21.05 278.43,-21.66 287.08,-27.78 289,-21.05"/>
</a>
</g>
<text text-anchor="middle" x="328.62" y="-49.62" font-family="Helvetica,sans-Serif" font-size="10.00" fill="grey"> kvf</text>
</g>
<!-- Node8 -->
<g id="Node000008" class="node">
<title>Node8</title>
<g id="a_Node000008"><a xlink:href="structspdk__nvme__kv__afo.html" target="_top" xlink:title="KV additional format options.">
<polygon fill="white" stroke="#666666" points="110.5,-20.75 0,-20.75 0,0 110.5,0 110.5,-20.75"/>
<text text-anchor="middle" x="55.25" y="-7.25" font-family="Helvetica,sans-Serif" font-size="10.00">spdk_nvme_kv_afo</text>
</a>
</g>
</g>
<!-- Node8&#45;&gt;Node7 -->
<g id="edge7_Node000007_Node000008" class="edge">
<title>Node8&#45;&gt;Node7</title>
<g id="a_edge7_Node000007_Node000008"><a xlink:title=" ">
<path fill="none" stroke="#9a32cd" stroke-dasharray="5,2" d="M121.75,-10.38C135.87,-10.38 150.77,-10.38 164.8,-10.38"/>
<polygon fill="#9a32cd" stroke="#9a32cd" points="122.15,-6.88 112.15,-10.38 122.15,-13.88 122.15,-6.88"/>
</a>
</g>
<text text-anchor="middle" x="137.88" y="-13.62" font-family="Helvetica,sans-Serif" font-size="10.00" fill="grey"> afo</text>
</g>
</g>
</svg>
