<?xml version="1.0" encoding="UTF-8" standalone="no"?>
<!DOCTYPE svg PUBLIC "-//W3C//DTD SVG 1.1//EN"
 "http://www.w3.org/Graphics/SVG/1.1/DTD/svg11.dtd">
<!-- Generated by graphviz version 9.0.0 (20230911.1827)
 -->
<!-- Title: spdk_nvmf_fc_ersp_iu Pages: 1 -->
<svg width="133pt" height="168pt"
 viewBox="0.00 0.00 132.75 167.75" xmlns="http://www.w3.org/2000/svg" xmlns:xlink="http://www.w3.org/1999/xlink">
<g id="graph0" class="graph" transform="scale(1 1) rotate(0) translate(4 163.75)">
<title>spdk_nvmf_fc_ersp_iu</title>
<!-- Node1 -->
<g id="Node000001" class="node">
<title>Node1</title>
<g id="a_Node000001"><a xlink:title=" ">
<polygon fill="#999999" stroke="#666666" points="124.75,-20.75 0,-20.75 0,0 124.75,0 124.75,-20.75"/>
<text text-anchor="middle" x="62.38" y="-7.25" font-family="Helvetica,sans-Serif" font-size="10.00">spdk_nvmf_fc_ersp_iu</text>
</a>
</g>
</g>
<!-- Node2 -->
<g id="Node000002" class="node">
<title>Node2</title>
<g id="a_Node000002"><a xlink:href="structspdk__nvme__cpl.html" target="_top" xlink:title="Completion queue entry.">
<polygon fill="white" stroke="#666666" points="108.25,-90.25 16.5,-90.25 16.5,-69.5 108.25,-69.5 108.25,-90.25"/>
<text text-anchor="middle" x="62.38" y="-76.75" font-family="Helvetica,sans-Serif" font-size="10.00">spdk_nvme_cpl</text>
</a>
</g>
</g>
<!-- Node2&#45;&gt;Node1 -->
<g id="edge1_Node000001_Node000002" class="edge">
<title>Node2&#45;&gt;Node1</title>
<g id="a_edge1_Node000001_Node000002"><a xlink:title=" ">
<path fill="none" stroke="#9a32cd" stroke-dasharray="5,2" d="M62.38,-58.07C62.38,-45.72 62.38,-30.65 62.38,-21.03"/>
<polygon fill="#9a32cd" stroke="#9a32cd" points="58.88,-57.69 62.38,-67.69 65.88,-57.69 58.88,-57.69"/>
</a>
</g>
<text text-anchor="middle" x="71.38" y="-42" font-family="Helvetica,sans-Serif" font-size="10.00" fill="grey"> rsp</text>
</g>
<!-- Node3 -->
<g id="Node000003" class="node">
<title>Node3</title>
<g id="a_Node000003"><a xlink:href="structspdk__nvme__status.html" target="_top" xlink:title=" ">
<polygon fill="white" stroke="#bfbfbf" points="116.12,-159.75 8.62,-159.75 8.62,-139 116.12,-139 116.12,-159.75"/>
<text text-anchor="middle" x="62.38" y="-146.25" font-family="Helvetica,sans-Serif" font-size="10.00">spdk_nvme_status</text>
</a>
</g>
</g>
<!-- Node3&#45;&gt;Node2 -->
<g id="edge2_Node000002_Node000003" class="edge">
<title>Node3&#45;&gt;Node2</title>
<g id="a_edge2_Node000002_Node000003"><a xlink:title=" ">
<path fill="none" stroke="#9a32cd" stroke-dasharray="5,2" d="M62.38,-127.57C62.38,-115.22 62.38,-100.15 62.38,-90.53"/>
<polygon fill="#9a32cd" stroke="#9a32cd" points="58.88,-127.19 62.38,-137.19 65.88,-127.19 58.88,-127.19"/>
</a>
</g>
<text text-anchor="middle" x="78.88" y="-111.5" font-family="Helvetica,sans-Serif" font-size="10.00" fill="grey"> status</text>
</g>
</g>
</svg>
