<?xml version="1.0" encoding="UTF-8" standalone="no"?>
<!DOCTYPE svg PUBLIC "-//W3C//DTD SVG 1.1//EN"
 "http://www.w3.org/Graphics/SVG/1.1/DTD/svg11.dtd">
<!-- Generated by graphviz version 9.0.0 (20230911.1827)
 -->
<!-- Title: spdk_accel_task Pages: 1 -->
<svg width="570pt" height="193pt"
 viewBox="0.00 0.00 570.25 193.25" xmlns="http://www.w3.org/2000/svg" xmlns:xlink="http://www.w3.org/1999/xlink">
<g id="graph0" class="graph" transform="scale(1 1) rotate(0) translate(4 189.25)">
<title>spdk_accel_task</title>
<!-- Node1 -->
<g id="Node000001" class="node">
<title>Node1</title>
<g id="a_Node000001"><a xlink:title=" ">
<polygon fill="#999999" stroke="#666666" points="353.12,-20.75 256.88,-20.75 256.88,0 353.12,0 353.12,-20.75"/>
<text text-anchor="middle" x="305" y="-7.25" font-family="Helvetica,sans-Serif" font-size="10.00">spdk_accel_task</text>
</a>
</g>
</g>
<!-- Node2 -->
<g id="Node000002" class="node">
<title>Node2</title>
<g id="a_Node000002"><a xlink:href="structspdk__accel__crypto__key.html" target="_top" xlink:title=" ">
<polygon fill="white" stroke="#bfbfbf" points="198.25,-90.25 69.75,-90.25 69.75,-69.5 198.25,-69.5 198.25,-90.25"/>
<text text-anchor="middle" x="134" y="-76.75" font-family="Helvetica,sans-Serif" font-size="10.00">spdk_accel_crypto_key</text>
</a>
</g>
</g>
<!-- Node2&#45;&gt;Node1 -->
<g id="edge1_Node000001_Node000002" class="edge">
<title>Node2&#45;&gt;Node1</title>
<g id="a_edge1_Node000001_Node000002"><a xlink:title=" ">
<path fill="none" stroke="#9a32cd" stroke-dasharray="5,2" d="M161.83,-63.85C177.41,-55.78 197.36,-46.03 215.75,-38.75 232.78,-32.01 252.16,-25.89 268.51,-21.15"/>
<polygon fill="#9a32cd" stroke="#9a32cd" points="160.38,-60.66 153.15,-68.41 163.63,-66.85 160.38,-60.66"/>
</a>
</g>
<text text-anchor="middle" x="244.12" y="-42" font-family="Helvetica,sans-Serif" font-size="10.00" fill="grey"> crypto_key</text>
</g>
<!-- Node3 -->
<g id="Node000003" class="node">
<title>Node3</title>
<g id="a_Node000003"><a xlink:href="structspdk__accel__module__if.html" target="_top" xlink:title=" ">
<polygon fill="white" stroke="#bfbfbf" points="124,-178.88 0,-178.88 0,-158.12 124,-158.12 124,-178.88"/>
<text text-anchor="middle" x="62" y="-165.38" font-family="Helvetica,sans-Serif" font-size="10.00">spdk_accel_module_if</text>
</a>
</g>
</g>
<!-- Node3&#45;&gt;Node2 -->
<g id="edge2_Node000002_Node000003" class="edge">
<title>Node3&#45;&gt;Node2</title>
<g id="a_edge2_Node000002_Node000003"><a xlink:title=" ">
<path fill="none" stroke="#9a32cd" stroke-dasharray="5,2" d="M77,-149.45C91.9,-131.52 114.18,-104.72 125.98,-90.52"/>
<polygon fill="#9a32cd" stroke="#9a32cd" points="74.65,-146.81 70.95,-156.73 80.03,-151.28 74.65,-146.81"/>
</a>
</g>
<text text-anchor="middle" x="136.88" y="-117.88" font-family="Helvetica,sans-Serif" font-size="10.00" fill="grey"> module_if</text>
</g>
<!-- Node4 -->
<g id="Node000004" class="node">
<title>Node4</title>
<g id="a_Node000004"><a xlink:href="structspdk__accel__crypto__key__create__param.html" target="_top" xlink:title=" ">
<polygon fill="white" stroke="#bfbfbf" points="270.25,-185.25 141.75,-185.25 141.75,-151.75 270.25,-151.75 270.25,-185.25"/>
<text text-anchor="start" x="149.75" y="-171.75" font-family="Helvetica,sans-Serif" font-size="10.00">spdk_accel_crypto_key</text>
<text text-anchor="middle" x="206" y="-159" font-family="Helvetica,sans-Serif" font-size="10.00">_create_param</text>
</a>
</g>
</g>
<!-- Node4&#45;&gt;Node2 -->
<g id="edge3_Node000002_Node000004" class="edge">
<title>Node4&#45;&gt;Node2</title>
<g id="a_edge3_Node000002_Node000004"><a xlink:title=" ">
<path fill="none" stroke="#9a32cd" stroke-dasharray="5,2" d="M191.35,-141.7C184.61,-130.85 176.09,-118.4 167,-108.25 161.24,-101.82 153.92,-95.59 147.65,-90.71"/>
<polygon fill="#9a32cd" stroke="#9a32cd" points="188.3,-143.43 196.45,-150.2 194.3,-139.83 188.3,-143.43"/>
</a>
</g>
<text text-anchor="middle" x="203.25" y="-117.88" font-family="Helvetica,sans-Serif" font-size="10.00" fill="grey"> param</text>
</g>
<!-- Node5 -->
<g id="Node000005" class="node">
<title>Node5</title>
<g id="a_Node000005"><a xlink:href="structspdk__dif__ctx.html" target="_top" xlink:title="DIF context information.">
<polygon fill="white" stroke="#666666" points="293.75,-90.25 216.25,-90.25 216.25,-69.5 293.75,-69.5 293.75,-90.25"/>
<text text-anchor="middle" x="255" y="-76.75" font-family="Helvetica,sans-Serif" font-size="10.00">spdk_dif_ctx</text>
</a>
</g>
</g>
<!-- Node5&#45;&gt;Node1 -->
<g id="edge4_Node000001_Node000005" class="edge">
<title>Node5&#45;&gt;Node1</title>
<g id="a_edge4_Node000001_Node000005"><a xlink:title=" ">
<path fill="none" stroke="#9a32cd" stroke-dasharray="5,2" d="M269,-59.97C278.39,-47.3 290.35,-31.15 297.85,-21.03"/>
<polygon fill="#9a32cd" stroke="#9a32cd" points="266.2,-57.87 263.06,-67.99 271.83,-62.04 266.2,-57.87"/>
</a>
</g>
<text text-anchor="middle" x="294" y="-42" font-family="Helvetica,sans-Serif" font-size="10.00" fill="grey"> ctx</text>
</g>
<!-- Node6 -->
<g id="Node000006" class="node">
<title>Node6</title>
<g id="a_Node000006"><a xlink:href="structspdk__dif__error.html" target="_top" xlink:title="DIF error information.">
<polygon fill="white" stroke="#666666" points="397.88,-90.25 312.12,-90.25 312.12,-69.5 397.88,-69.5 397.88,-90.25"/>
<text text-anchor="middle" x="355" y="-76.75" font-family="Helvetica,sans-Serif" font-size="10.00">spdk_dif_error</text>
</a>
</g>
</g>
<!-- Node6&#45;&gt;Node1 -->
<g id="edge5_Node000001_Node000006" class="edge">
<title>Node6&#45;&gt;Node1</title>
<g id="a_edge5_Node000001_Node000006"><a xlink:title=" ">
<path fill="none" stroke="#9a32cd" stroke-dasharray="5,2" d="M341,-59.97C331.61,-47.3 319.65,-31.15 312.15,-21.03"/>
<polygon fill="#9a32cd" stroke="#9a32cd" points="338.17,-62.04 346.94,-67.99 343.8,-57.87 338.17,-62.04"/>
</a>
</g>
<text text-anchor="middle" x="343.25" y="-42" font-family="Helvetica,sans-Serif" font-size="10.00" fill="grey"> err</text>
</g>
<!-- Node7 -->
<g id="Node000007" class="node">
<title>Node7</title>
<g id="a_Node000007"><a xlink:href="structspdk__accel__task__aux__data.html" target="_top" xlink:title=" ">
<polygon fill="white" stroke="#bfbfbf" points="562.25,-90.25 415.75,-90.25 415.75,-69.5 562.25,-69.5 562.25,-90.25"/>
<text text-anchor="middle" x="489" y="-76.75" font-family="Helvetica,sans-Serif" font-size="10.00">spdk_accel_task_aux_data</text>
</a>
</g>
</g>
<!-- Node7&#45;&gt;Node1 -->
<g id="edge6_Node000001_Node000007" class="edge">
<title>Node7&#45;&gt;Node1</title>
<g id="a_edge6_Node000001_Node000007"><a xlink:title=" ">
<path fill="none" stroke="#9a32cd" stroke-dasharray="5,2" d="M451.8,-65.23C416.21,-52.17 363.42,-32.8 331.79,-21.2"/>
<polygon fill="#9a32cd" stroke="#9a32cd" points="450.23,-68.38 460.82,-68.54 452.64,-61.81 450.23,-68.38"/>
</a>
</g>
<text text-anchor="middle" x="424.5" y="-42" font-family="Helvetica,sans-Serif" font-size="10.00" fill="grey"> aux</text>
</g>
<!-- Node8 -->
<g id="Node000008" class="node">
<title>Node8</title>
<g id="a_Node000008"><a xlink:href="structspdk__accel__bounce__buffer.html" target="_top" xlink:title="Describes user&#39;s buffers in remote memory domains in case a module doesn&#39;t support memory domains and...">
<polygon fill="white" stroke="#666666" points="561.12,-178.88 416.88,-178.88 416.88,-158.12 561.12,-158.12 561.12,-178.88"/>
<text text-anchor="middle" x="489" y="-165.38" font-family="Helvetica,sans-Serif" font-size="10.00">spdk_accel_bounce_buffer</text>
</a>
</g>
</g>
<!-- Node8&#45;&gt;Node7 -->
<g id="edge7_Node000007_Node000008" class="edge">
<title>Node8&#45;&gt;Node7</title>
<g id="a_edge7_Node000007_Node000008"><a xlink:title=" ">
<path fill="none" stroke="#9a32cd" stroke-dasharray="5,2" d="M489,-146.41C489,-128.61 489,-103.94 489,-90.52"/>
<polygon fill="#9a32cd" stroke="#9a32cd" points="485.5,-146.39 489,-156.39 492.5,-146.39 485.5,-146.39"/>
</a>
</g>
<text text-anchor="middle" x="493.5" y="-124.25" font-family="Helvetica,sans-Serif" font-size="10.00" fill="grey"> d</text>
<text text-anchor="middle" x="493.5" y="-111.5" font-family="Helvetica,sans-Serif" font-size="10.00" fill="grey">s</text>
</g>
</g>
</svg>
