<?xml version="1.0" encoding="UTF-8" standalone="no"?>
<!DOCTYPE svg PUBLIC "-//W3C//DTD SVG 1.1//EN"
 "http://www.w3.org/Graphics/SVG/1.1/DTD/svg11.dtd">
<!-- Generated by graphviz version 9.0.0 (20230911.1827)
 -->
<!-- Title: spdk_fsdev_io::__fsdev_io_internal_fields Pages: 1 -->
<svg width="305pt" height="248pt"
 viewBox="0.00 0.00 304.75 248.12" xmlns="http://www.w3.org/2000/svg" xmlns:xlink="http://www.w3.org/1999/xlink">
<g id="graph0" class="graph" transform="scale(1 1) rotate(0) translate(4 244.12)">
<title>spdk_fsdev_io::__fsdev_io_internal_fields</title>
<!-- Node1 -->
<g id="Node000001" class="node">
<title>Node1</title>
<g id="a_Node000001"><a xlink:title="Fields that are used internally by the fsdev subsystem.">
<polygon fill="#999999" stroke="#666666" points="131.88,-240.12 2.62,-240.12 2.62,-206.62 131.88,-206.62 131.88,-240.12"/>
<text text-anchor="start" x="10.62" y="-226.62" font-family="Helvetica,sans-Serif" font-size="10.00">spdk_fsdev_io::__fsdev</text>
<text text-anchor="middle" x="67.25" y="-213.88" font-family="Helvetica,sans-Serif" font-size="10.00">_io_internal_fields</text>
</a>
</g>
</g>
<!-- Node2 -->
<g id="Node000002" class="node">
<title>Node2</title>
<g id="a_Node000002"><a xlink:href="structspdk__fsdev__io.html" target="_top" xlink:title=" ">
<polygon fill="white" stroke="#bfbfbf" points="296.75,-137.75 211,-137.75 211,-117 296.75,-117 296.75,-137.75"/>
<text text-anchor="middle" x="253.88" y="-124.25" font-family="Helvetica,sans-Serif" font-size="10.00">spdk_fsdev_io</text>
</a>
</g>
</g>
<!-- Node1&#45;&gt;Node2 -->
<g id="edge7_Node000002_Node000001" class="edge">
<title>Node1&#45;&gt;Node2</title>
<g id="a_edge7_Node000002_Node000001"><a xlink:title=" ">
<path fill="none" stroke="#9a32cd" stroke-dasharray="5,2" d="M143.41,-219.73C160.55,-216.51 178.09,-211.15 193,-202.38 219.42,-186.83 238.79,-154.88 247.6,-138.15"/>
<polygon fill="#9a32cd" stroke="#9a32cd" points="143.03,-216.24 133.73,-221.31 144.16,-223.15 143.03,-216.24"/>
</a>
</g>
<text text-anchor="middle" x="172.75" y="-219.62" font-family="Helvetica,sans-Serif" font-size="10.00" fill="grey"> internal</text>
</g>
<!-- Node2&#45;&gt;Node1 -->
<g id="edge1_Node000001_Node000002" class="edge">
<title>Node2&#45;&gt;Node1</title>
<g id="a_edge1_Node000001_Node000002"><a xlink:title=" ">
<path fill="none" stroke="#9a32cd" stroke-dasharray="5,2" d="M227.78,-144.33C217.23,-151.18 204.71,-158.97 193,-165.38 165.55,-180.39 133.52,-195.22 108.8,-206.13"/>
<polygon fill="#9a32cd" stroke="#9a32cd" points="229.52,-147.37 235.94,-138.95 225.67,-141.53 229.52,-147.37"/>
</a>
</g>
<text text-anchor="middle" x="172.75" y="-188.62" font-family="Helvetica,sans-Serif" font-size="10.00" fill="grey"> cb_fn</text>
</g>
<!-- Node3 -->
<g id="Node000003" class="node">
<title>Node3</title>
<g id="a_Node000003"><a xlink:href="structspdk__fsdev.html" target="_top" xlink:title=" ">
<polygon fill="white" stroke="orangered" points="103,-176.75 31.5,-176.75 31.5,-156 103,-156 103,-176.75"/>
<text text-anchor="middle" x="67.25" y="-163.25" font-family="Helvetica,sans-Serif" font-size="10.00">spdk_fsdev</text>
</a>
</g>
</g>
<!-- Node3&#45;&gt;Node2 -->
<g id="edge2_Node000002_Node000003" class="edge">
<title>Node3&#45;&gt;Node2</title>
<g id="a_edge2_Node000002_Node000003"><a xlink:title=" ">
<path fill="none" stroke="#9a32cd" stroke-dasharray="5,2" d="M114.35,-157.5C137.92,-152.87 167.03,-147.01 193,-141.38 198.74,-140.13 204.77,-138.77 210.72,-137.41"/>
<polygon fill="#9a32cd" stroke="#9a32cd" points="113.89,-154.02 104.75,-159.38 115.24,-160.89 113.89,-154.02"/>
</a>
</g>
<text text-anchor="middle" x="172.75" y="-151.62" font-family="Helvetica,sans-Serif" font-size="10.00" fill="grey"> fsdev</text>
</g>
<!-- Node9 -->
<g id="Node000009" class="node">
<title>Node9</title>
<g id="a_Node000009"><a xlink:href="structspdk__fsdev__mount__opts.html" target="_top" xlink:title="fsdev mount options">
<polygon fill="white" stroke="#666666" points="134.5,-137.75 0,-137.75 0,-117 134.5,-117 134.5,-137.75"/>
<text text-anchor="middle" x="67.25" y="-124.25" font-family="Helvetica,sans-Serif" font-size="10.00">spdk_fsdev_mount_opts</text>
</a>
</g>
</g>
<!-- Node9&#45;&gt;Node2 -->
<g id="edge3_Node000002_Node000009" class="edge">
<title>Node9&#45;&gt;Node2</title>
<g id="a_edge3_Node000002_Node000009"><a xlink:title=" ">
<path fill="none" stroke="#9a32cd" stroke-dasharray="5,2" d="M146.33,-127.38C168.43,-127.38 191.64,-127.38 210.74,-127.38"/>
<polygon fill="#9a32cd" stroke="#9a32cd" points="146.42,-123.88 136.42,-127.38 146.42,-130.88 146.42,-123.88"/>
</a>
</g>
<text text-anchor="middle" x="172.75" y="-130.62" font-family="Helvetica,sans-Serif" font-size="10.00" fill="grey"> opts</text>
</g>
<!-- Node10 -->
<g id="Node000010" class="node">
<title>Node10</title>
<g id="a_Node000010"><a xlink:href="structspdk__fsdev__io__opts.html" target="_top" xlink:title="Structure with optional fsdev IO parameters The content of this structure must be valid until the IO ...">
<polygon fill="white" stroke="#666666" points="123.25,-98.75 11.25,-98.75 11.25,-78 123.25,-78 123.25,-98.75"/>
<text text-anchor="middle" x="67.25" y="-85.25" font-family="Helvetica,sans-Serif" font-size="10.00">spdk_fsdev_io_opts</text>
</a>
</g>
</g>
<!-- Node10&#45;&gt;Node2 -->
<g id="edge4_Node000002_Node000010" class="edge">
<title>Node10&#45;&gt;Node2</title>
<g id="a_edge4_Node000002_Node000010"><a xlink:title=" ">
<path fill="none" stroke="#9a32cd" stroke-dasharray="5,2" d="M134.67,-99C153.59,-102.36 174.17,-106.32 193,-110.62 200.58,-112.36 208.63,-114.44 216.29,-116.54"/>
<polygon fill="#9a32cd" stroke="#9a32cd" points="135.39,-95.57 124.93,-97.3 134.18,-102.47 135.39,-95.57"/>
</a>
</g>
<text text-anchor="middle" x="172.75" y="-113.62" font-family="Helvetica,sans-Serif" font-size="10.00" fill="grey"> opts</text>
</g>
<!-- Node11 -->
<g id="Node000011" class="node">
<title>Node11</title>
<g id="a_Node000011"><a xlink:href="structspdk__fsdev__file__attr.html" target="_top" xlink:title=" ">
<polygon fill="white" stroke="#bfbfbf" points="124.38,-59.75 10.12,-59.75 10.12,-39 124.38,-39 124.38,-59.75"/>
<text text-anchor="middle" x="67.25" y="-46.25" font-family="Helvetica,sans-Serif" font-size="10.00">spdk_fsdev_file_attr</text>
</a>
</g>
</g>
<!-- Node11&#45;&gt;Node2 -->
<g id="edge5_Node000002_Node000011" class="edge">
<title>Node11&#45;&gt;Node2</title>
<g id="a_edge5_Node000002_Node000011"><a xlink:title=" ">
<path fill="none" stroke="#9a32cd" stroke-dasharray="5,2" d="M130.52,-63.18C150.95,-68.83 173.43,-76.27 193,-85.62 210.61,-94.04 228.7,-107.44 240.32,-116.78"/>
<polygon fill="#9a32cd" stroke="#9a32cd" points="131.43,-59.8 120.87,-60.62 129.63,-66.57 131.43,-59.8"/>
</a>
</g>
<text text-anchor="middle" x="172.75" y="-88.62" font-family="Helvetica,sans-Serif" font-size="10.00" fill="grey"> attr</text>
</g>
<!-- Node12 -->
<g id="Node000012" class="node">
<title>Node12</title>
<g id="a_Node000012"><a xlink:href="structspdk__fsdev__file__statfs.html" target="_top" xlink:title=" ">
<polygon fill="white" stroke="#bfbfbf" points="129.62,-20.75 4.88,-20.75 4.88,0 129.62,0 129.62,-20.75"/>
<text text-anchor="middle" x="67.25" y="-7.25" font-family="Helvetica,sans-Serif" font-size="10.00">spdk_fsdev_file_statfs</text>
</a>
</g>
</g>
<!-- Node12&#45;&gt;Node2 -->
<g id="edge6_Node000002_Node000012" class="edge">
<title>Node12&#45;&gt;Node2</title>
<g id="a_edge6_Node000002_Node000012"><a xlink:title=" ">
<path fill="none" stroke="#9a32cd" stroke-dasharray="5,2" d="M133.69,-24.41C153.96,-30.81 175.53,-39.9 193,-52.62 217.46,-70.44 237.4,-100.71 246.89,-116.71"/>
<polygon fill="#9a32cd" stroke="#9a32cd" points="134.95,-21.14 124.37,-21.65 132.96,-27.85 134.95,-21.14"/>
</a>
</g>
<text text-anchor="middle" x="172.75" y="-55.62" font-family="Helvetica,sans-Serif" font-size="10.00" fill="grey"> statfs</text>
</g>
</g>
</svg>
