<?xml version="1.0" encoding="UTF-8" standalone="no"?>
<!DOCTYPE svg PUBLIC "-//W3C//DTD SVG 1.1//EN"
 "http://www.w3.org/Graphics/SVG/1.1/DTD/svg11.dtd">
<!-- Generated by graphviz version 9.0.0 (20230911.1827)
 -->
<!-- Title: spdk_nvmf_transport Pages: 1 -->
<svg width="231pt" height="332pt"
 viewBox="0.00 0.00 231.39 332.25" xmlns="http://www.w3.org/2000/svg" xmlns:xlink="http://www.w3.org/1999/xlink">

<svg id="main" version="1.1" xmlns="http://www.w3.org/2000/svg" xmlns:xlink="http://www.w3.org/1999/xlink" xml:space="preserve" onload="init(evt)">
<style type="text/css"><![CDATA[
.node, .edge {opacity: 0.7;}
.node.selected, .edge.selected {opacity: 1;}
.edge:hover path { stroke: red; }
.edge:hover polygon { stroke: red; fill: red; }
]]></style>
<script type="application/ecmascript" xlink:href="svg.min.js"/>
<svg id="graph" class="graph">
<g id="graph0" class="graph" transform="scale(1 1) rotate(0) translate(4 328.25)">
<title>spdk_nvmf_transport</title>
<!-- Node1 -->
<g id="Node000001" class="node">
<title>Node1</title>
<g id="a_Node000001"><a xlink:title=" ">
<polygon fill="#999999" stroke="#666666" points="167.89,-185.25 48.39,-185.25 48.39,-164.5 167.89,-164.5 167.89,-185.25"/>
<text text-anchor="middle" x="108.14" y="-171.75" font-family="Helvetica,sans-Serif" font-size="10.00">spdk_nvmf_transport</text>
</a>
</g>
</g>
<!-- Node2 -->
<g id="Node000002" class="node">
<title>Node2</title>
<g id="a_Node000002"><a xlink:href="structspdk__nvmf__transport__ops.html" target="_top" xlink:title=" ">
<polygon fill="white" stroke="#bfbfbf" points="142.14,-20.75 0.14,-20.75 0.14,0 142.14,0 142.14,-20.75"/>
<text text-anchor="middle" x="71.14" y="-7.25" font-family="Helvetica,sans-Serif" font-size="10.00">spdk_nvmf_transport_ops</text>
</a>
</g>
</g>
<!-- Node1&#45;&gt;Node2 -->
<g id="edge2_Node000002_Node000001" class="edge">
<title>Node1&#45;&gt;Node2</title>
<g id="a_edge2_Node000002_Node000001"><a xlink:title=" ">
<path fill="none" stroke="#9a32cd" stroke-dasharray="5,2" d="M62.1,-159.93C40.88,-150.94 17.72,-136.88 5.39,-115.75 -15.32,-80.23 32.02,-39.28 56.99,-21.02"/>
<polygon fill="#9a32cd" stroke="#9a32cd" points="60.63,-163.11 71.21,-163.51 63.19,-156.6 60.63,-163.11"/>
</a>
</g>
<text text-anchor="middle" x="23.02" y="-95.88" font-family="Helvetica,sans-Serif" font-size="10.00" fill="grey"> create</text>
</g>
<!-- Node3 -->
<g id="Node000003" class="node">
<title>Node3</title>
<g id="a_Node000003"><a xlink:href="structspdk__nvmf__transport__poll__group.html" target="_top" xlink:title=" ">
<polygon fill="white" stroke="orangered" points="167.89,-115.75 48.39,-115.75 48.39,-82.25 167.89,-82.25 167.89,-115.75"/>
<text text-anchor="start" x="56.39" y="-102.25" font-family="Helvetica,sans-Serif" font-size="10.00">spdk_nvmf_transport</text>
<text text-anchor="middle" x="108.14" y="-89.5" font-family="Helvetica,sans-Serif" font-size="10.00">_poll_group</text>
</a>
</g>
</g>
<!-- Node1&#45;&gt;Node3 -->
<g id="edge4_Node000003_Node000001" class="edge">
<title>Node1&#45;&gt;Node3</title>
<g id="a_edge4_Node000003_Node000001"><a xlink:title=" ">
<path fill="none" stroke="#9a32cd" stroke-dasharray="5,2" d="M108.14,-152.88C108.14,-141.22 108.14,-126.94 108.14,-116.16"/>
<polygon fill="#9a32cd" stroke="#9a32cd" points="104.64,-152.7 108.14,-162.7 111.64,-152.7 104.64,-152.7"/>
</a>
</g>
<text text-anchor="middle" x="131.77" y="-137" font-family="Helvetica,sans-Serif" font-size="10.00" fill="grey"> transport</text>
</g>
<!-- Node2&#45;&gt;Node1 -->
<g id="edge1_Node000001_Node000002" class="edge">
<title>Node2&#45;&gt;Node1</title>
<g id="a_edge1_Node000001_Node000002"><a xlink:title=" ">
<path fill="none" stroke="#9a32cd" stroke-dasharray="5,2" d="M153.34,-22.58C170.29,-26.59 184.68,-31.88 190.14,-38.75 221.18,-77.74 195.03,-111.92 159.14,-146.5 151.62,-153.75 141.79,-159.63 132.77,-164.05"/>
<polygon fill="#9a32cd" stroke="#9a32cd" points="154.49,-19.25 143.98,-20.56 153.02,-26.09 154.49,-19.25"/>
</a>
</g>
<text text-anchor="middle" x="213.27" y="-95.88" font-family="Helvetica,sans-Serif" font-size="10.00" fill="grey"> ops</text>
</g>
<!-- Node3&#45;&gt;Node2 -->
<g id="edge3_Node000002_Node000003" class="edge">
<title>Node3&#45;&gt;Node2</title>
<g id="a_edge3_Node000002_Node000003"><a xlink:title=" ">
<path fill="none" stroke="#9a32cd" stroke-dasharray="5,2" d="M78.18,-73.75C75.89,-70.78 73.89,-67.6 72.39,-64.25 66.19,-50.33 67.51,-32.23 69.2,-21.22"/>
<polygon fill="#9a32cd" stroke="#9a32cd" points="75.38,-75.87 84.71,-80.87 80.53,-71.14 75.38,-75.87"/>
</a>
</g>
<text text-anchor="middle" x="132.02" y="-54.75" font-family="Helvetica,sans-Serif" font-size="10.00" fill="grey"> get_optimal_poll_group</text>
<text text-anchor="middle" x="132.02" y="-42" font-family="Helvetica,sans-Serif" font-size="10.00" fill="grey">poll_group_create</text>
</g>
<!-- Node10 -->
<g id="Node000010" class="node">
<title>Node10</title>
<g id="a_Node000010"><a xlink:href="structspdk__nvmf__transport__opts.html" target="_top" xlink:title=" ">
<polygon fill="white" stroke="#bfbfbf" points="181.02,-254.75 35.27,-254.75 35.27,-234 181.02,-234 181.02,-254.75"/>
<text text-anchor="middle" x="108.14" y="-241.25" font-family="Helvetica,sans-Serif" font-size="10.00">spdk_nvmf_transport_opts</text>
</a>
</g>
</g>
<!-- Node10&#45;&gt;Node1 -->
<g id="edge5_Node000001_Node000010" class="edge">
<title>Node10&#45;&gt;Node1</title>
<g id="a_edge5_Node000001_Node000010"><a xlink:title=" ">
<path fill="none" stroke="#9a32cd" stroke-dasharray="5,2" d="M108.14,-222.57C108.14,-210.22 108.14,-195.15 108.14,-185.53"/>
<polygon fill="#9a32cd" stroke="#9a32cd" points="104.64,-222.19 108.14,-232.19 111.64,-222.19 104.64,-222.19"/>
</a>
</g>
<text text-anchor="middle" x="120.14" y="-206.5" font-family="Helvetica,sans-Serif" font-size="10.00" fill="grey"> opts</text>
</g>
<!-- Node11 -->
<g id="Node000011" class="node">
<title>Node11</title>
<g id="a_Node000011"><a xlink:href="structspdk__json__val.html" target="_top" xlink:title=" ">
<polygon fill="white" stroke="#bfbfbf" points="150.64,-324.25 65.64,-324.25 65.64,-303.5 150.64,-303.5 150.64,-324.25"/>
<text text-anchor="middle" x="108.14" y="-310.75" font-family="Helvetica,sans-Serif" font-size="10.00">spdk_json_val</text>
</a>
</g>
</g>
<!-- Node11&#45;&gt;Node10 -->
<g id="edge6_Node000010_Node000011" class="edge">
<title>Node11&#45;&gt;Node10</title>
<g id="a_edge6_Node000010_Node000011"><a xlink:title=" ">
<path fill="none" stroke="#9a32cd" stroke-dasharray="5,2" d="M108.14,-292.07C108.14,-279.72 108.14,-264.65 108.14,-255.03"/>
<polygon fill="#9a32cd" stroke="#9a32cd" points="104.64,-291.69 108.14,-301.69 111.64,-291.69 104.64,-291.69"/>
</a>
</g>
<text text-anchor="middle" x="152.77" y="-276" font-family="Helvetica,sans-Serif" font-size="10.00" fill="grey"> transport_specific</text>
</g>
</g>
</svg>
</svg>

<style type='text/css'>
<![CDATA[
[data-mouse-over-selected='false'] { opacity: 0.7; }
[data-mouse-over-selected='true']  { opacity: 1.0; }
]]>
</style>
<script type="application/ecmascript"><![CDATA[
document.addEventListener('DOMContentLoaded', (event) => {
  highlightEdges();
  highlightAdjacentNodes();
});
]]></script>
</svg>
