<?xml version="1.0" encoding="UTF-8" standalone="no"?>
<!DOCTYPE svg PUBLIC "-//W3C//DTD SVG 1.1//EN"
 "http://www.w3.org/Graphics/SVG/1.1/DTD/svg11.dtd">
<!-- Generated by graphviz version 9.0.0 (20230911.1827)
 -->
<!-- Title: spdk_nvmf_fc_ls_disconnect_acc Pages: 1 -->
<svg width="260pt" height="237pt"
 viewBox="0.00 0.00 259.75 237.25" xmlns="http://www.w3.org/2000/svg" xmlns:xlink="http://www.w3.org/1999/xlink">
<g id="graph0" class="graph" transform="scale(1 1) rotate(0) translate(4 233.25)">
<title>spdk_nvmf_fc_ls_disconnect_acc</title>
<!-- Node1 -->
<g id="Node000001" class="node">
<title>Node1</title>
<g id="a_Node000001"><a xlink:title=" ">
<polygon fill="#999999" stroke="#666666" points="177.25,-20.75 0,-20.75 0,0 177.25,0 177.25,-20.75"/>
<text text-anchor="middle" x="88.62" y="-7.25" font-family="Helvetica,sans-Serif" font-size="10.00">spdk_nvmf_fc_ls_disconnect_acc</text>
</a>
</g>
</g>
<!-- Node2 -->
<g id="Node000002" class="node">
<title>Node2</title>
<g id="a_Node000002"><a xlink:href="structspdk__nvmf__fc__ls__acc__hdr.html" target="_top" xlink:title=" ">
<polygon fill="white" stroke="#bfbfbf" points="158.88,-90.25 18.38,-90.25 18.38,-69.5 158.88,-69.5 158.88,-90.25"/>
<text text-anchor="middle" x="88.62" y="-76.75" font-family="Helvetica,sans-Serif" font-size="10.00">spdk_nvmf_fc_ls_acc_hdr</text>
</a>
</g>
</g>
<!-- Node2&#45;&gt;Node1 -->
<g id="edge1_Node000001_Node000002" class="edge">
<title>Node2&#45;&gt;Node1</title>
<g id="a_edge1_Node000001_Node000002"><a xlink:title=" ">
<path fill="none" stroke="#9a32cd" stroke-dasharray="5,2" d="M88.62,-58.07C88.62,-45.72 88.62,-30.65 88.62,-21.03"/>
<polygon fill="#9a32cd" stroke="#9a32cd" points="85.13,-57.69 88.63,-67.69 92.13,-57.69 85.13,-57.69"/>
</a>
</g>
<text text-anchor="middle" x="98" y="-42" font-family="Helvetica,sans-Serif" font-size="10.00" fill="grey"> hdr</text>
</g>
<!-- Node3 -->
<g id="Node000003" class="node">
<title>Node3</title>
<g id="a_Node000003"><a xlink:href="structspdk__nvmf__fc__ls__rqst__w0.html" target="_top" xlink:title=" ">
<polygon fill="white" stroke="#bfbfbf" points="159.25,-229.25 18,-229.25 18,-208.5 159.25,-208.5 159.25,-229.25"/>
<text text-anchor="middle" x="88.62" y="-215.75" font-family="Helvetica,sans-Serif" font-size="10.00">spdk_nvmf_fc_ls_rqst_w0</text>
</a>
</g>
</g>
<!-- Node3&#45;&gt;Node2 -->
<g id="edge2_Node000002_Node000003" class="edge">
<title>Node3&#45;&gt;Node2</title>
<g id="a_edge2_Node000002_Node000003"><a xlink:title=" ">
<path fill="none" stroke="#9a32cd" stroke-dasharray="5,2" d="M85.38,-196.97C83.83,-185.93 82.14,-172.14 81.38,-159.75 79.82,-134.77 84.14,-105.44 86.77,-90.57"/>
<polygon fill="#9a32cd" stroke="#9a32cd" points="81.87,-197.16 86.8,-206.54 88.8,-196.13 81.87,-197.16"/>
</a>
</g>
<text text-anchor="middle" x="90.25" y="-146.25" font-family="Helvetica,sans-Serif" font-size="10.00" fill="grey"> w0</text>
</g>
<!-- Node4 -->
<g id="Node000004" class="node">
<title>Node4</title>
<g id="a_Node000004"><a xlink:href="structspdk__nvmf__fc__lsdesc__rqst.html" target="_top" xlink:title=" ">
<polygon fill="white" stroke="#bfbfbf" points="251.75,-159.75 107.5,-159.75 107.5,-139 251.75,-139 251.75,-159.75"/>
<text text-anchor="middle" x="179.62" y="-146.25" font-family="Helvetica,sans-Serif" font-size="10.00">spdk_nvmf_fc_lsdesc_rqst</text>
</a>
</g>
</g>
<!-- Node3&#45;&gt;Node4 -->
<g id="edge4_Node000004_Node000003" class="edge">
<title>Node3&#45;&gt;Node4</title>
<g id="a_edge4_Node000004_Node000003"><a xlink:title=" ">
<path fill="none" stroke="#9a32cd" stroke-dasharray="5,2" d="M110.57,-201.59C127.96,-188.7 151.69,-171.1 166.32,-160.25"/>
<polygon fill="#9a32cd" stroke="#9a32cd" points="108.83,-198.53 102.88,-207.3 113,-204.16 108.83,-198.53"/>
</a>
</g>
<text text-anchor="middle" x="150.25" y="-181" font-family="Helvetica,sans-Serif" font-size="10.00" fill="grey"> w0</text>
</g>
<!-- Node4&#45;&gt;Node2 -->
<g id="edge3_Node000002_Node000004" class="edge">
<title>Node4&#45;&gt;Node2</title>
<g id="a_edge3_Node000002_Node000004"><a xlink:title=" ">
<path fill="none" stroke="#9a32cd" stroke-dasharray="5,2" d="M157.68,-132.09C140.29,-119.2 116.56,-101.6 101.93,-90.75"/>
<polygon fill="#9a32cd" stroke="#9a32cd" points="155.25,-134.66 165.37,-137.8 159.42,-129.03 155.25,-134.66"/>
</a>
</g>
<text text-anchor="middle" x="152.5" y="-111.5" font-family="Helvetica,sans-Serif" font-size="10.00" fill="grey"> rqst</text>
</g>
</g>
</svg>
