<?xml version="1.0" encoding="UTF-8" standalone="no"?>
<!DOCTYPE svg PUBLIC "-//W3C//DTD SVG 1.1//EN"
 "http://www.w3.org/Graphics/SVG/1.1/DTD/svg11.dtd">
<!-- Generated by graphviz version 9.0.0 (20230911.1827)
 -->
<!-- Title: spdk_nvme_tcp_rsp Pages: 1 -->
<svg width="266pt" height="181pt"
 viewBox="0.00 0.00 266.00 180.50" xmlns="http://www.w3.org/2000/svg" xmlns:xlink="http://www.w3.org/1999/xlink">
<g id="graph0" class="graph" transform="scale(1 1) rotate(0) translate(4 176.5)">
<title>spdk_nvme_tcp_rsp</title>
<!-- Node1 -->
<g id="Node000001" class="node">
<title>Node1</title>
<g id="a_Node000001"><a xlink:title="CapsuleResp.">
<polygon fill="#999999" stroke="#666666" points="160.62,-20.75 47.88,-20.75 47.88,0 160.62,0 160.62,-20.75"/>
<text text-anchor="middle" x="104.25" y="-7.25" font-family="Helvetica,sans-Serif" font-size="10.00">spdk_nvme_tcp_rsp</text>
</a>
</g>
</g>
<!-- Node2 -->
<g id="Node000002" class="node">
<title>Node2</title>
<g id="a_Node000002"><a xlink:href="structspdk__nvme__tcp__common__pdu__hdr.html" target="_top" xlink:title="Common NVMe/TCP PDU header.">
<polygon fill="white" stroke="#666666" points="140.5,-103 0,-103 0,-69.5 140.5,-69.5 140.5,-103"/>
<text text-anchor="start" x="8" y="-89.5" font-family="Helvetica,sans-Serif" font-size="10.00">spdk_nvme_tcp_common</text>
<text text-anchor="middle" x="70.25" y="-76.75" font-family="Helvetica,sans-Serif" font-size="10.00">_pdu_hdr</text>
</a>
</g>
</g>
<!-- Node2&#45;&gt;Node1 -->
<g id="edge1_Node000001_Node000002" class="edge">
<title>Node2&#45;&gt;Node1</title>
<g id="a_edge1_Node000001_Node000002"><a xlink:title=" ">
<path fill="none" stroke="#9a32cd" stroke-dasharray="5,2" d="M82.27,-59.14C88.39,-45.83 95.47,-30.46 99.9,-20.83"/>
<polygon fill="#9a32cd" stroke="#9a32cd" points="79.26,-57.3 78.26,-67.85 85.62,-60.22 79.26,-57.3"/>
</a>
</g>
<text text-anchor="middle" x="115.12" y="-42" font-family="Helvetica,sans-Serif" font-size="10.00" fill="grey"> common</text>
</g>
<!-- Node3 -->
<g id="Node000003" class="node">
<title>Node3</title>
<g id="a_Node000003"><a xlink:href="structspdk__nvme__cpl.html" target="_top" xlink:title="Completion queue entry.">
<polygon fill="white" stroke="#666666" points="250.12,-96.62 158.38,-96.62 158.38,-75.88 250.12,-75.88 250.12,-96.62"/>
<text text-anchor="middle" x="204.25" y="-83.12" font-family="Helvetica,sans-Serif" font-size="10.00">spdk_nvme_cpl</text>
</a>
</g>
</g>
<!-- Node3&#45;&gt;Node1 -->
<g id="edge2_Node000001_Node000003" class="edge">
<title>Node3&#45;&gt;Node1</title>
<g id="a_edge2_Node000001_Node000003"><a xlink:title=" ">
<path fill="none" stroke="#9a32cd" stroke-dasharray="5,2" d="M182.36,-68.67C170.52,-59.75 155.63,-48.59 142.25,-38.75 134.26,-32.87 125.25,-26.38 118.02,-21.19"/>
<polygon fill="#9a32cd" stroke="#9a32cd" points="180.18,-71.41 190.27,-74.65 184.4,-65.83 180.18,-71.41"/>
</a>
</g>
<text text-anchor="middle" x="173.88" y="-42" font-family="Helvetica,sans-Serif" font-size="10.00" fill="grey"> rccqe</text>
</g>
<!-- Node4 -->
<g id="Node000004" class="node">
<title>Node4</title>
<g id="a_Node000004"><a xlink:href="structspdk__nvme__status.html" target="_top" xlink:title=" ">
<polygon fill="white" stroke="#bfbfbf" points="258,-172.5 150.5,-172.5 150.5,-151.75 258,-151.75 258,-172.5"/>
<text text-anchor="middle" x="204.25" y="-159" font-family="Helvetica,sans-Serif" font-size="10.00">spdk_nvme_status</text>
</a>
</g>
</g>
<!-- Node4&#45;&gt;Node3 -->
<g id="edge3_Node000003_Node000004" class="edge">
<title>Node4&#45;&gt;Node3</title>
<g id="a_edge3_Node000003_Node000004"><a xlink:title=" ">
<path fill="none" stroke="#9a32cd" stroke-dasharray="5,2" d="M204.25,-140.2C204.25,-125.88 204.25,-107.58 204.25,-96.68"/>
<polygon fill="#9a32cd" stroke="#9a32cd" points="200.75,-139.95 204.25,-149.95 207.75,-139.95 200.75,-139.95"/>
</a>
</g>
<text text-anchor="middle" x="220.75" y="-124.25" font-family="Helvetica,sans-Serif" font-size="10.00" fill="grey"> status</text>
</g>
</g>
</svg>
