<?xml version="1.0" encoding="UTF-8" standalone="no"?>
<!DOCTYPE svg PUBLIC "-//W3C//DTD SVG 1.1//EN"
 "http://www.w3.org/Graphics/SVG/1.1/DTD/svg11.dtd">
<!-- Generated by graphviz version 9.0.0 (20230911.1827)
 -->
<!-- Title: spdk_nvmf_qpair Pages: 1 -->
<svg width="788pt" height="406pt"
 viewBox="0.00 0.00 788.25 405.75" xmlns="http://www.w3.org/2000/svg" xmlns:xlink="http://www.w3.org/1999/xlink">
<g id="graph0" class="graph" transform="scale(1 1) rotate(0) translate(4 401.75)">
<title>spdk_nvmf_qpair</title>
<!-- Node1 -->
<g id="Node000001" class="node">
<title>Node1</title>
<g id="a_Node000001"><a xlink:title=" ">
<polygon fill="#999999" stroke="#666666" points="536.25,-54.75 436.25,-54.75 436.25,-34 536.25,-34 536.25,-54.75"/>
<text text-anchor="middle" x="486.25" y="-41.25" font-family="Helvetica,sans-Serif" font-size="10.00">spdk_nvmf_qpair</text>
</a>
</g>
</g>
<!-- Node15 -->
<g id="Node000015" class="node">
<title>Node15</title>
<g id="a_Node000015"><a xlink:href="structspdk__nvmf__request.html" target="_top" xlink:title=" ">
<polygon fill="white" stroke="#bfbfbf" points="780.25,-241.75 668.25,-241.75 668.25,-221 780.25,-221 780.25,-241.75"/>
<text text-anchor="middle" x="724.25" y="-228.25" font-family="Helvetica,sans-Serif" font-size="10.00">spdk_nvmf_request</text>
</a>
</g>
</g>
<!-- Node1&#45;&gt;Node15 -->
<g id="edge7_Node000015_Node000001" class="edge">
<title>Node1&#45;&gt;Node15</title>
<g id="a_edge7_Node000015_Node000001"><a xlink:title=" ">
<path fill="none" stroke="#9a32cd" stroke-dasharray="5,2" d="M548.1,-34.01C581.2,-31.71 621.19,-34.75 650.25,-55.62 706.87,-96.3 719.75,-189.32 722.52,-220.76"/>
<polygon fill="#9a32cd" stroke="#9a32cd" points="547.87,-30.51 538.22,-34.88 548.49,-37.48 547.87,-30.51"/>
</a>
</g>
<text text-anchor="middle" x="612.75" y="-58.62" font-family="Helvetica,sans-Serif" font-size="10.00" fill="grey"> qpair</text>
</g>
<!-- Node2 -->
<g id="Node000002" class="node">
<title>Node2</title>
<g id="a_Node000002"><a xlink:href="structspdk__nvmf__transport.html" target="_top" xlink:title=" ">
<polygon fill="white" stroke="#bfbfbf" points="328.62,-92.75 209.12,-92.75 209.12,-72 328.62,-72 328.62,-92.75"/>
<text text-anchor="middle" x="268.88" y="-79.25" font-family="Helvetica,sans-Serif" font-size="10.00">spdk_nvmf_transport</text>
</a>
</g>
</g>
<!-- Node2&#45;&gt;Node1 -->
<g id="edge1_Node000001_Node000002" class="edge">
<title>Node2&#45;&gt;Node1</title>
<g id="a_edge1_Node000001_Node000002"><a xlink:title=" ">
<path fill="none" stroke="#9a32cd" stroke-dasharray="5,2" d="M318.51,-68.73C328.85,-66.13 339.74,-63.6 350,-61.62 378.24,-56.19 410.14,-52.03 435.87,-49.16"/>
<polygon fill="#9a32cd" stroke="#9a32cd" points="317.83,-65.29 309.02,-71.19 319.58,-72.07 317.83,-65.29"/>
</a>
</g>
<text text-anchor="middle" x="373.62" y="-64.62" font-family="Helvetica,sans-Serif" font-size="10.00" fill="grey"> transport</text>
</g>
<!-- Node3 -->
<g id="Node000003" class="node">
<title>Node3</title>
<g id="a_Node000003"><a xlink:href="structspdk__nvmf__transport__ops.html" target="_top" xlink:title=" ">
<polygon fill="white" stroke="orangered" points="557.25,-93.75 415.25,-93.75 415.25,-73 557.25,-73 557.25,-93.75"/>
<text text-anchor="middle" x="486.25" y="-80.25" font-family="Helvetica,sans-Serif" font-size="10.00">spdk_nvmf_transport_ops</text>
</a>
</g>
</g>
<!-- Node2&#45;&gt;Node3 -->
<g id="edge3_Node000003_Node000002" class="edge">
<title>Node2&#45;&gt;Node3</title>
<g id="a_edge3_Node000003_Node000002"><a xlink:title=" ">
<path fill="none" stroke="#9a32cd" stroke-dasharray="5,2" d="M340.23,-79.82C343.54,-79.75 346.8,-79.68 350,-79.62 371,-79.26 376.25,-79.18 397.25,-79.62 403.06,-79.75 409.08,-79.92 415.13,-80.12"/>
<polygon fill="#9a32cd" stroke="#9a32cd" points="340.36,-76.32 330.45,-80.08 340.54,-83.32 340.36,-76.32"/>
</a>
</g>
<text text-anchor="middle" x="373.62" y="-82.62" font-family="Helvetica,sans-Serif" font-size="10.00" fill="grey"> create</text>
</g>
<!-- Node3&#45;&gt;Node2 -->
<g id="edge2_Node000002_Node000003" class="edge">
<title>Node3&#45;&gt;Node2</title>
<g id="a_edge2_Node000002_Node000003"><a xlink:title=" ">
<path fill="none" stroke="#9a32cd" stroke-dasharray="5,2" d="M410.58,-95.44C390.88,-97.28 369.65,-98.08 350,-96.38 341.7,-95.66 332.97,-94.52 324.45,-93.21"/>
<polygon fill="#9a32cd" stroke="#9a32cd" points="410.88,-98.93 420.46,-94.4 410.15,-91.96 410.88,-98.93"/>
</a>
</g>
<text text-anchor="middle" x="373.62" y="-99.62" font-family="Helvetica,sans-Serif" font-size="10.00" fill="grey"> ops</text>
</g>
<!-- Node11 -->
<g id="Node000011" class="node">
<title>Node11</title>
<g id="a_Node000011"><a xlink:href="structspdk__nvmf__transport__opts.html" target="_top" xlink:title=" ">
<polygon fill="white" stroke="orangered" points="145.75,-92.75 0,-92.75 0,-72 145.75,-72 145.75,-92.75"/>
<text text-anchor="middle" x="72.88" y="-79.25" font-family="Helvetica,sans-Serif" font-size="10.00">spdk_nvmf_transport_opts</text>
</a>
</g>
</g>
<!-- Node11&#45;&gt;Node2 -->
<g id="edge4_Node000002_Node000011" class="edge">
<title>Node11&#45;&gt;Node2</title>
<g id="a_edge4_Node000002_Node000011"><a xlink:title=" ">
<path fill="none" stroke="#9a32cd" stroke-dasharray="5,2" d="M157.4,-82.38C174.73,-82.38 192.65,-82.38 208.88,-82.38"/>
<polygon fill="#9a32cd" stroke="#9a32cd" points="157.63,-78.88 147.63,-82.38 157.63,-85.88 157.63,-78.88"/>
</a>
</g>
<text text-anchor="middle" x="175.75" y="-85.62" font-family="Helvetica,sans-Serif" font-size="10.00" fill="grey"> opts</text>
</g>
<!-- Node9 -->
<g id="Node000009" class="node">
<title>Node9</title>
<g id="a_Node000009"><a xlink:href="structspdk__nvmf__poll__group.html" target="_top" xlink:title=" ">
<polygon fill="white" stroke="orangered" points="332,-20.75 205.75,-20.75 205.75,0 332,0 332,-20.75"/>
<text text-anchor="middle" x="268.88" y="-7.25" font-family="Helvetica,sans-Serif" font-size="10.00">spdk_nvmf_poll_group</text>
</a>
</g>
</g>
<!-- Node9&#45;&gt;Node1 -->
<g id="edge5_Node000001_Node000009" class="edge">
<title>Node9&#45;&gt;Node1</title>
<g id="a_edge5_Node000001_Node000009"><a xlink:title=" ">
<path fill="none" stroke="#9a32cd" stroke-dasharray="5,2" d="M343.88,-6.78C361.48,-7.12 380.13,-8.45 397.25,-11.62 420.33,-15.9 445.29,-25.73 462.71,-33.51"/>
<polygon fill="#9a32cd" stroke="#9a32cd" points="344.02,-3.28 334,-6.71 343.97,-10.28 344.02,-3.28"/>
</a>
</g>
<text text-anchor="middle" x="373.62" y="-15.62" font-family="Helvetica,sans-Serif" font-size="10.00" fill="grey"> group</text>
</g>
<!-- Node15&#45;&gt;Node1 -->
<g id="edge6_Node000001_Node000015" class="edge">
<title>Node15&#45;&gt;Node1</title>
<g id="a_edge6_Node000001_Node000015"><a xlink:title=" ">
<path fill="none" stroke="#9a32cd" stroke-dasharray="5,2" d="M712.45,-210.48C699.78,-187.37 677.07,-149.97 650.25,-123.88 615.08,-89.66 601.98,-84.55 557.25,-64.38 549.42,-60.84 540.8,-57.77 532.38,-55.17"/>
<polygon fill="#9a32cd" stroke="#9a32cd" points="709.32,-212.06 717.12,-219.23 715.49,-208.76 709.32,-212.06"/>
</a>
</g>
<text text-anchor="middle" x="612.75" y="-139.38" font-family="Helvetica,sans-Serif" font-size="10.00" fill="grey"> connect_req</text>
<text text-anchor="middle" x="612.75" y="-126.62" font-family="Helvetica,sans-Serif" font-size="10.00" fill="grey">first_fused_req</text>
</g>
<!-- Node15&#45;&gt;Node15 -->
<g id="edge13_Node000015_Node000015" class="edge">
<title>Node15&#45;&gt;Node15</title>
<g id="a_edge13_Node000015_Node000015"><a xlink:title=" ">
<path fill="none" stroke="#9a32cd" stroke-dasharray="5,2" d="M704.86,-253.56C707.61,-257.23 714.07,-259.75 724.25,-259.75 743.41,-259.75 749.4,-250.81 742.22,-242.15"/>
<polygon fill="#9a32cd" stroke="#9a32cd" points="708.33,-254.01 706.1,-243.65 701.39,-253.14 708.33,-254.01"/>
</a>
</g>
<text text-anchor="middle" x="724.25" y="-288.5" font-family="Helvetica,sans-Serif" font-size="10.00" fill="grey"> cmd_cb_fn</text>
<text text-anchor="middle" x="724.25" y="-275.75" font-family="Helvetica,sans-Serif" font-size="10.00" fill="grey">first_fused_req</text>
<text text-anchor="middle" x="724.25" y="-263" font-family="Helvetica,sans-Serif" font-size="10.00" fill="grey">req_to_abort</text>
</g>
<!-- Node16 -->
<g id="Node000016" class="node">
<title>Node16</title>
<g id="a_Node000016"><a xlink:href="unionnvmf__h2c__msg.html" target="_top" xlink:title=" ">
<polygon fill="white" stroke="orangered" points="531.38,-397.75 441.12,-397.75 441.12,-377 531.38,-377 531.38,-397.75"/>
<text text-anchor="middle" x="486.25" y="-384.25" font-family="Helvetica,sans-Serif" font-size="10.00">nvmf_h2c_msg</text>
</a>
</g>
</g>
<!-- Node16&#45;&gt;Node15 -->
<g id="edge8_Node000015_Node000016" class="edge">
<title>Node16&#45;&gt;Node15</title>
<g id="a_edge8_Node000015_Node000016"><a xlink:title=" ">
<path fill="none" stroke="#9a32cd" stroke-dasharray="5,2" d="M542.67,-387.64C576.49,-385.26 619.06,-377.46 650.25,-355.38 691.22,-326.35 712.86,-266.46 720.26,-242.07"/>
<polygon fill="#9a32cd" stroke="#9a32cd" points="542.87,-384.12 533.08,-388.17 543.25,-391.11 542.87,-384.12"/>
</a>
</g>
<text text-anchor="middle" x="612.75" y="-386.62" font-family="Helvetica,sans-Serif" font-size="10.00" fill="grey"> cmd</text>
</g>
<!-- Node49 -->
<g id="Node000049" class="node">
<title>Node49</title>
<g id="a_Node000049"><a xlink:href="unionnvmf__c2h__msg.html" target="_top" xlink:title=" ">
<polygon fill="white" stroke="orangered" points="531.38,-358.75 441.12,-358.75 441.12,-338 531.38,-338 531.38,-358.75"/>
<text text-anchor="middle" x="486.25" y="-345.25" font-family="Helvetica,sans-Serif" font-size="10.00">nvmf_c2h_msg</text>
</a>
</g>
</g>
<!-- Node49&#45;&gt;Node15 -->
<g id="edge9_Node000015_Node000049" class="edge">
<title>Node49&#45;&gt;Node15</title>
<g id="a_edge9_Node000015_Node000049"><a xlink:title=" ">
<path fill="none" stroke="#9a32cd" stroke-dasharray="5,2" d="M543.09,-345.06C576.11,-341.06 617.7,-332.34 650.25,-313.38 681.05,-295.43 705.8,-259.95 716.91,-242.13"/>
<polygon fill="#9a32cd" stroke="#9a32cd" points="542.87,-341.57 533.31,-346.13 543.62,-348.53 542.87,-341.57"/>
</a>
</g>
<text text-anchor="middle" x="612.75" y="-341.62" font-family="Helvetica,sans-Serif" font-size="10.00" fill="grey"> rsp</text>
</g>
<!-- Node54 -->
<g id="Node000054" class="node">
<title>Node54</title>
<g id="a_Node000054"><a xlink:href="structspdk__nvmf__stripped__data.html" target="_top" xlink:title=" ">
<polygon fill="white" stroke="#bfbfbf" points="557.25,-319.75 415.25,-319.75 415.25,-299 557.25,-299 557.25,-319.75"/>
<text text-anchor="middle" x="486.25" y="-306.25" font-family="Helvetica,sans-Serif" font-size="10.00">spdk_nvmf_stripped_data</text>
</a>
</g>
</g>
<!-- Node54&#45;&gt;Node15 -->
<g id="edge10_Node000015_Node000054" class="edge">
<title>Node54&#45;&gt;Node15</title>
<g id="a_edge10_Node000015_Node000054"><a xlink:title=" ">
<path fill="none" stroke="#9a32cd" stroke-dasharray="5,2" d="M568.62,-298.72C595.22,-293.71 624.52,-286.54 650.25,-276.38 672.27,-267.68 695.1,-252.43 709.23,-242.12"/>
<polygon fill="#9a32cd" stroke="#9a32cd" points="568.12,-295.25 558.9,-300.46 569.36,-302.14 568.12,-295.25"/>
</a>
</g>
<text text-anchor="middle" x="612.75" y="-299.62" font-family="Helvetica,sans-Serif" font-size="10.00" fill="grey"> stripped_data</text>
</g>
<!-- Node55 -->
<g id="Node000055" class="node">
<title>Node55</title>
<g id="a_Node000055"><a xlink:href="structspdk__nvmf__dif__info.html" target="_top" xlink:title=" ">
<polygon fill="white" stroke="orangered" points="542.25,-280.75 430.25,-280.75 430.25,-260 542.25,-260 542.25,-280.75"/>
<text text-anchor="middle" x="486.25" y="-267.25" font-family="Helvetica,sans-Serif" font-size="10.00">spdk_nvmf_dif_info</text>
</a>
</g>
</g>
<!-- Node55&#45;&gt;Node15 -->
<g id="edge11_Node000015_Node000055" class="edge">
<title>Node55&#45;&gt;Node15</title>
<g id="a_edge11_Node000015_Node000055"><a xlink:title=" ">
<path fill="none" stroke="#9a32cd" stroke-dasharray="5,2" d="M553.61,-262.86C583.28,-259.13 618.62,-254.18 650.25,-248.38 659.85,-246.61 670.09,-244.43 679.77,-242.21"/>
<polygon fill="#9a32cd" stroke="#9a32cd" points="553.53,-259.35 544.04,-264.05 554.39,-266.29 553.53,-259.35"/>
</a>
</g>
<text text-anchor="middle" x="612.75" y="-262.62" font-family="Helvetica,sans-Serif" font-size="10.00" fill="grey"> dif</text>
</g>
<!-- Node57 -->
<g id="Node000057" class="node">
<title>Node57</title>
<g id="a_Node000057"><a xlink:href="structspdk__bdev__io__wait__entry.html" target="_top" xlink:title="Structure to register a callback when an spdk_bdev_io becomes available.">
<polygon fill="#fff0f0" stroke="red" points="556.12,-241.75 416.38,-241.75 416.38,-221 556.12,-221 556.12,-241.75"/>
<text text-anchor="middle" x="486.25" y="-228.25" font-family="Helvetica,sans-Serif" font-size="10.00">spdk_bdev_io_wait_entry</text>
</a>
</g>
</g>
<!-- Node57&#45;&gt;Node15 -->
<g id="edge12_Node000015_Node000057" class="edge">
<title>Node57&#45;&gt;Node15</title>
<g id="a_edge12_Node000015_Node000057"><a xlink:title=" ">
<path fill="none" stroke="#9a32cd" stroke-dasharray="5,2" d="M567.91,-231.38C600.85,-231.38 638.12,-231.38 667.89,-231.38"/>
<polygon fill="#9a32cd" stroke="#9a32cd" points="567.98,-227.88 557.98,-231.38 567.98,-234.88 567.98,-227.88"/>
</a>
</g>
<text text-anchor="middle" x="612.75" y="-234.62" font-family="Helvetica,sans-Serif" font-size="10.00" fill="grey"> bdev_io_wait</text>
</g>
<!-- Node68 -->
<g id="Node000068" class="node">
<title>Node68</title>
<g id="a_Node000068"><a xlink:href="structspdk__bdev__io.html" target="_top" xlink:title=" ">
<polygon fill="white" stroke="orangered" points="527.62,-202.75 444.88,-202.75 444.88,-182 527.62,-182 527.62,-202.75"/>
<text text-anchor="middle" x="486.25" y="-189.25" font-family="Helvetica,sans-Serif" font-size="10.00">spdk_bdev_io</text>
</a>
</g>
</g>
<!-- Node68&#45;&gt;Node15 -->
<g id="edge14_Node000015_Node000068" class="edge">
<title>Node68&#45;&gt;Node15</title>
<g id="a_edge14_Node000015_Node000068"><a xlink:title=" ">
<path fill="none" stroke="#9a32cd" stroke-dasharray="5,2" d="M539.29,-198.27C571.39,-202.2 613.34,-207.89 650.25,-214.62 659.59,-216.33 669.54,-218.42 678.99,-220.55"/>
<polygon fill="#9a32cd" stroke="#9a32cd" points="539.79,-194.8 529.44,-197.08 538.95,-201.75 539.79,-194.8"/>
</a>
</g>
<text text-anchor="middle" x="612.75" y="-217.62" font-family="Helvetica,sans-Serif" font-size="10.00" fill="grey"> zcopy_bdev_io</text>
</g>
<!-- Node78 -->
<g id="Node000078" class="node">
<title>Node78</title>
<g id="a_Node000078"><a xlink:href="structspdk__iobuf__entry.html" target="_top" xlink:title="iobuf queue entry">
<polygon fill="white" stroke="#666666" points="536.25,-132.75 436.25,-132.75 436.25,-112 536.25,-112 536.25,-132.75"/>
<text text-anchor="middle" x="486.25" y="-119.25" font-family="Helvetica,sans-Serif" font-size="10.00">spdk_iobuf_entry</text>
</a>
</g>
</g>
<!-- Node78&#45;&gt;Node15 -->
<g id="edge15_Node000015_Node000078" class="edge">
<title>Node78&#45;&gt;Node15</title>
<g id="a_edge15_Node000015_Node000078"><a xlink:title=" ">
<path fill="none" stroke="#9a32cd" stroke-dasharray="5,2" d="M530.28,-137.01C563.67,-148.92 610.76,-166.92 650.25,-186.62 670.74,-196.84 692.99,-210.96 707.47,-220.59"/>
<polygon fill="#9a32cd" stroke="#9a32cd" points="531.54,-133.74 520.94,-133.72 529.21,-140.34 531.54,-133.74"/>
</a>
</g>
<text text-anchor="middle" x="612.75" y="-189.62" font-family="Helvetica,sans-Serif" font-size="10.00" fill="grey"> entry</text>
</g>
<!-- Node78&#45;&gt;Node78 -->
<g id="edge16_Node000078_Node000078" class="edge">
<title>Node78&#45;&gt;Node78</title>
<g id="a_edge16_Node000078_Node000078"><a xlink:title=" ">
<path fill="none" stroke="#9a32cd" stroke-dasharray="5,2" d="M466.67,-144.56C469.44,-148.23 475.97,-150.75 486.25,-150.75 505.61,-150.75 511.66,-141.81 504.4,-133.15"/>
<polygon fill="#9a32cd" stroke="#9a32cd" points="470.14,-145.01 467.91,-134.65 463.19,-144.13 470.14,-145.01"/>
</a>
</g>
<text text-anchor="middle" x="486.25" y="-154" font-family="Helvetica,sans-Serif" font-size="10.00" fill="grey"> cb_fn</text>
</g>
</g>
</svg>
