<?xml version="1.0" encoding="UTF-8" standalone="no"?>
<!DOCTYPE svg PUBLIC "-//W3C//DTD SVG 1.1//EN"
 "http://www.w3.org/Graphics/SVG/1.1/DTD/svg11.dtd">
<!-- Generated by graphviz version 9.0.0 (20230911.1827)
 -->
<!-- Title: spdk_bs_opts Pages: 1 -->
<svg width="227pt" height="168pt"
 viewBox="0.00 0.00 227.38 167.75" xmlns="http://www.w3.org/2000/svg" xmlns:xlink="http://www.w3.org/1999/xlink">
<g id="graph0" class="graph" transform="scale(1 1) rotate(0) translate(4 163.75)">
<title>spdk_bs_opts</title>
<!-- Node1 -->
<g id="Node000001" class="node">
<title>Node1</title>
<g id="a_Node000001"><a xlink:title=" ">
<polygon fill="#999999" stroke="#666666" points="111.38,-20.75 29.38,-20.75 29.38,0 111.38,0 111.38,-20.75"/>
<text text-anchor="middle" x="70.38" y="-7.25" font-family="Helvetica,sans-Serif" font-size="10.00">spdk_bs_opts</text>
</a>
</g>
</g>
<!-- Node2 -->
<g id="Node000002" class="node">
<title>Node2</title>
<g id="a_Node000002"><a xlink:href="structspdk__bs__type.html" target="_top" xlink:title=" ">
<polygon fill="white" stroke="#bfbfbf" points="82.75,-90.25 0,-90.25 0,-69.5 82.75,-69.5 82.75,-90.25"/>
<text text-anchor="middle" x="41.38" y="-76.75" font-family="Helvetica,sans-Serif" font-size="10.00">spdk_bs_type</text>
</a>
</g>
</g>
<!-- Node2&#45;&gt;Node1 -->
<g id="edge1_Node000001_Node000002" class="edge">
<title>Node2&#45;&gt;Node1</title>
<g id="a_edge1_Node000001_Node000002"><a xlink:title=" ">
<path fill="none" stroke="#9a32cd" stroke-dasharray="5,2" d="M49.99,-58.83C55.35,-46.35 62.01,-30.85 66.23,-21.03"/>
<polygon fill="#9a32cd" stroke="#9a32cd" points="46.86,-57.24 46.13,-67.81 53.29,-60.01 46.86,-57.24"/>
</a>
</g>
<text text-anchor="middle" x="77.38" y="-42" font-family="Helvetica,sans-Serif" font-size="10.00" fill="grey"> bstype</text>
</g>
<!-- Node3 -->
<g id="Node000003" class="node">
<title>Node3</title>
<g id="a_Node000003"><a xlink:href="structspdk__bs__dev.html" target="_top" xlink:title=" ">
<polygon fill="white" stroke="#bfbfbf" points="179.88,-90.25 100.88,-90.25 100.88,-69.5 179.88,-69.5 179.88,-90.25"/>
<text text-anchor="middle" x="140.38" y="-76.75" font-family="Helvetica,sans-Serif" font-size="10.00">spdk_bs_dev</text>
</a>
</g>
</g>
<!-- Node3&#45;&gt;Node1 -->
<g id="edge2_Node000001_Node000003" class="edge">
<title>Node3&#45;&gt;Node1</title>
<g id="a_edge2_Node000001_Node000003"><a xlink:title=" ">
<path fill="none" stroke="#9a32cd" stroke-dasharray="5,2" d="M122.32,-61.46C108.97,-48.59 91.29,-31.55 80.39,-21.03"/>
<polygon fill="#9a32cd" stroke="#9a32cd" points="119.63,-63.73 129.26,-68.15 124.49,-58.69 119.63,-63.73"/>
</a>
</g>
<text text-anchor="middle" x="165.38" y="-42" font-family="Helvetica,sans-Serif" font-size="10.00" fill="grey"> esnap_bs_dev_create</text>
</g>
<!-- Node4 -->
<g id="Node000004" class="node">
<title>Node4</title>
<g id="a_Node000004"><a xlink:href="structspdk__bdev.html" target="_top" xlink:title=" ">
<polygon fill="white" stroke="orangered" points="174.62,-159.75 106.12,-159.75 106.12,-139 174.62,-139 174.62,-159.75"/>
<text text-anchor="middle" x="140.38" y="-146.25" font-family="Helvetica,sans-Serif" font-size="10.00">spdk_bdev</text>
</a>
</g>
</g>
<!-- Node4&#45;&gt;Node3 -->
<g id="edge3_Node000003_Node000004" class="edge">
<title>Node4&#45;&gt;Node3</title>
<g id="a_edge3_Node000003_Node000004"><a xlink:title=" ">
<path fill="none" stroke="#9a32cd" stroke-dasharray="5,2" d="M140.38,-127.57C140.38,-115.22 140.38,-100.15 140.38,-90.53"/>
<polygon fill="#9a32cd" stroke="#9a32cd" points="136.88,-127.19 140.38,-137.19 143.88,-127.19 136.88,-127.19"/>
</a>
</g>
<text text-anchor="middle" x="178.62" y="-111.5" font-family="Helvetica,sans-Serif" font-size="10.00" fill="grey"> get_base_bdev</text>
</g>
</g>
</svg>
