<?xml version="1.0" encoding="UTF-8" standalone="no"?>
<!DOCTYPE svg PUBLIC "-//W3C//DTD SVG 1.1//EN"
 "http://www.w3.org/Graphics/SVG/1.1/DTD/svg11.dtd">
<!-- Generated by graphviz version 9.0.0 (20230911.1827)
 -->
<!-- Title: spdk_nvme_cmd Pages: 1 -->
<svg width="680pt" height="985pt"
 viewBox="0.00 0.00 680.00 985.05" xmlns="http://www.w3.org/2000/svg" xmlns:xlink="http://www.w3.org/1999/xlink">
<g id="graph0" class="graph" transform="scale(1 1) rotate(0) translate(4 981.05)">
<title>spdk_nvme_cmd</title>
<!-- Node1 -->
<g id="Node000001" class="node">
<title>Node1</title>
<g id="a_Node000001"><a xlink:title=" ">
<polygon fill="#999999" stroke="#666666" points="672,-499.67 573.5,-499.67 573.5,-478.92 672,-478.92 672,-499.67"/>
<text text-anchor="middle" x="622.75" y="-486.17" font-family="Helvetica,sans-Serif" font-size="10.00">spdk_nvme_cmd</text>
</a>
</g>
</g>
<!-- Node2 -->
<g id="Node000002" class="node">
<title>Node2</title>
<g id="a_Node000002"><a xlink:href="structspdk__nvme__sgl__descriptor.html" target="_top" xlink:title=" ">
<polygon fill="white" stroke="#bfbfbf" points="479.75,-577.67 334,-577.67 334,-556.92 479.75,-556.92 479.75,-577.67"/>
<text text-anchor="middle" x="406.88" y="-564.17" font-family="Helvetica,sans-Serif" font-size="10.00">spdk_nvme_sgl_descriptor</text>
</a>
</g>
</g>
<!-- Node2&#45;&gt;Node1 -->
<g id="edge1_Node000001_Node000002" class="edge">
<title>Node2&#45;&gt;Node1</title>
<g id="a_edge1_Node000001_Node000002"><a xlink:title=" ">
<path fill="none" stroke="#9a32cd" stroke-dasharray="5,2" d="M485.92,-554.04C508.86,-548.75 533.65,-541.65 555.5,-532.3 575.17,-523.88 595.47,-509.76 608.32,-500"/>
<polygon fill="#9a32cd" stroke="#9a32cd" points="485.32,-550.58 476.31,-556.16 486.83,-557.42 485.32,-550.58"/>
</a>
</g>
<text text-anchor="middle" x="526.62" y="-553.55" font-family="Helvetica,sans-Serif" font-size="10.00" fill="grey"> sgl1</text>
</g>
<!-- Node3 -->
<g id="Node000003" class="node">
<title>Node3</title>
<g id="a_Node000003"><a xlink:href="unionspdk__nvme__cmd__cdw10.html" target="_top" xlink:title=" ">
<polygon fill="white" stroke="#bfbfbf" points="474.5,-538.67 339.25,-538.67 339.25,-517.92 474.5,-517.92 474.5,-538.67"/>
<text text-anchor="middle" x="406.88" y="-525.17" font-family="Helvetica,sans-Serif" font-size="10.00">spdk_nvme_cmd_cdw10</text>
</a>
</g>
</g>
<!-- Node3&#45;&gt;Node1 -->
<g id="edge2_Node000001_Node000003" class="edge">
<title>Node3&#45;&gt;Node1</title>
<g id="a_edge2_Node000001_Node000003"><a xlink:title=" ">
<path fill="none" stroke="#9a32cd" stroke-dasharray="5,2" d="M485.87,-518.21C508.42,-514.88 533.01,-510.85 555.5,-506.3 564.23,-504.53 573.53,-502.34 582.32,-500.13"/>
<polygon fill="#9a32cd" stroke="#9a32cd" points="485.53,-514.72 476.13,-519.62 486.53,-521.65 485.53,-514.72"/>
</a>
</g>
<text text-anchor="middle" x="526.62" y="-518.55" font-family="Helvetica,sans-Serif" font-size="10.00" fill="grey"> cdw10_bits</text>
</g>
<!-- Node4 -->
<g id="Node000004" class="node">
<title>Node4</title>
<g id="a_Node000004"><a xlink:href="unionspdk__nvme__cmd__cdw11.html" target="_top" xlink:title=" ">
<polygon fill="white" stroke="#bfbfbf" points="474.5,-499.67 339.25,-499.67 339.25,-478.92 474.5,-478.92 474.5,-499.67"/>
<text text-anchor="middle" x="406.88" y="-486.17" font-family="Helvetica,sans-Serif" font-size="10.00">spdk_nvme_cmd_cdw11</text>
</a>
</g>
</g>
<!-- Node4&#45;&gt;Node1 -->
<g id="edge3_Node000001_Node000004" class="edge">
<title>Node4&#45;&gt;Node1</title>
<g id="a_edge3_Node000001_Node000004"><a xlink:title=" ">
<path fill="none" stroke="#9a32cd" stroke-dasharray="5,2" d="M486.36,-489.3C515.45,-489.3 547.57,-489.3 573.22,-489.3"/>
<polygon fill="#9a32cd" stroke="#9a32cd" points="486.47,-485.8 476.47,-489.3 486.47,-492.8 486.47,-485.8"/>
</a>
</g>
<text text-anchor="middle" x="526.62" y="-492.55" font-family="Helvetica,sans-Serif" font-size="10.00" fill="grey"> cdw11_bits</text>
</g>
<!-- Node5 -->
<g id="Node000005" class="node">
<title>Node5</title>
<g id="a_Node000005"><a xlink:href="unionspdk__nvme__feat__arbitration.html" target="_top" xlink:title="Data used by Set Features/Get Features SPDK_NVME_FEAT_ARBITRATION.">
<polygon fill="white" stroke="#666666" points="158.12,-960.67 4.88,-960.67 4.88,-939.92 158.12,-939.92 158.12,-960.67"/>
<text text-anchor="middle" x="81.5" y="-947.17" font-family="Helvetica,sans-Serif" font-size="10.00">spdk_nvme_feat_arbitration</text>
</a>
</g>
</g>
<!-- Node5&#45;&gt;Node4 -->
<g id="edge4_Node000004_Node000005" class="edge">
<title>Node5&#45;&gt;Node4</title>
<g id="a_edge4_Node000004_Node000005"><a xlink:title=" ">
<path fill="none" stroke="#9a32cd" stroke-dasharray="5,2" d="M149.36,-962.47C202.61,-967.93 274.83,-965.08 316,-920.3 346.94,-886.65 305.56,-545.08 334,-509.3 336.9,-505.65 340.41,-502.63 344.29,-500.13"/>
<polygon fill="#9a32cd" stroke="#9a32cd" points="149.8,-959 139.47,-961.32 149,-965.95 149.8,-959"/>
</a>
</g>
<text text-anchor="middle" x="248.5" y="-967.55" font-family="Helvetica,sans-Serif" font-size="10.00" fill="grey"> feat_arbitration</text>
</g>
<!-- Node6 -->
<g id="Node000006" class="node">
<title>Node6</title>
<g id="a_Node000006"><a xlink:href="unionspdk__nvme__feat__power__management.html" target="_top" xlink:title="Data used by Set Features/Get Features SPDK_NVME_FEAT_POWER_MANAGEMENT.">
<polygon fill="white" stroke="#666666" points="147.62,-922.05 15.38,-922.05 15.38,-888.55 147.62,-888.55 147.62,-922.05"/>
<text text-anchor="start" x="23.38" y="-908.55" font-family="Helvetica,sans-Serif" font-size="10.00">spdk_nvme_feat_power</text>
<text text-anchor="middle" x="81.5" y="-895.8" font-family="Helvetica,sans-Serif" font-size="10.00">_management</text>
</a>
</g>
</g>
<!-- Node6&#45;&gt;Node4 -->
<g id="edge5_Node000004_Node000006" class="edge">
<title>Node6&#45;&gt;Node4</title>
<g id="a_edge5_Node000004_Node000006"><a xlink:title=" ">
<path fill="none" stroke="#9a32cd" stroke-dasharray="5,2" d="M159.27,-904.65C219.09,-902.37 295.35,-894.91 316,-872.3 343.23,-842.47 308.78,-540.84 334,-509.3 336.91,-505.66 340.43,-502.64 344.32,-500.15"/>
<polygon fill="#9a32cd" stroke="#9a32cd" points="159.32,-901.15 149.44,-904.98 159.55,-908.15 159.32,-901.15"/>
</a>
</g>
<text text-anchor="middle" x="248.5" y="-906.55" font-family="Helvetica,sans-Serif" font-size="10.00" fill="grey"> feat_power_management</text>
</g>
<!-- Node7 -->
<g id="Node000007" class="node">
<title>Node7</title>
<g id="a_Node000007"><a xlink:href="unionspdk__nvme__feat__lba__range__type.html" target="_top" xlink:title="Data used by Set Features/Get Features SPDK_NVME_FEAT_LBA_RANGE_TYPE.">
<polygon fill="white" stroke="#666666" points="140.12,-870.05 22.88,-870.05 22.88,-836.55 140.12,-836.55 140.12,-870.05"/>
<text text-anchor="start" x="30.88" y="-856.55" font-family="Helvetica,sans-Serif" font-size="10.00">spdk_nvme_feat_lba</text>
<text text-anchor="middle" x="81.5" y="-843.8" font-family="Helvetica,sans-Serif" font-size="10.00">_range_type</text>
</a>
</g>
</g>
<!-- Node7&#45;&gt;Node4 -->
<g id="edge6_Node000004_Node000007" class="edge">
<title>Node7&#45;&gt;Node4</title>
<g id="a_edge6_Node000004_Node000007"><a xlink:title=" ">
<path fill="none" stroke="#9a32cd" stroke-dasharray="5,2" d="M151.82,-856.01C212.41,-856.74 294.05,-853.19 316,-830.3 365.44,-778.72 289.2,-564.95 334,-509.3 337,-505.56 340.64,-502.49 344.67,-499.97"/>
<polygon fill="#9a32cd" stroke="#9a32cd" points="151.96,-852.52 141.9,-855.85 151.84,-859.51 151.96,-852.52"/>
</a>
</g>
<text text-anchor="middle" x="248.5" y="-858.55" font-family="Helvetica,sans-Serif" font-size="10.00" fill="grey"> feat_lba_range_type</text>
</g>
<!-- Node8 -->
<g id="Node000008" class="node">
<title>Node8</title>
<g id="a_Node000008"><a xlink:href="unionspdk__nvme__feat__temperature__threshold.html" target="_top" xlink:title="Data used by Set Features/Get Features SPDK_NVME_FEAT_TEMPERATURE_THRESHOLD.">
<polygon fill="white" stroke="#666666" points="163,-818.05 0,-818.05 0,-784.55 163,-784.55 163,-818.05"/>
<text text-anchor="start" x="8" y="-804.55" font-family="Helvetica,sans-Serif" font-size="10.00">spdk_nvme_feat_temperature</text>
<text text-anchor="middle" x="81.5" y="-791.8" font-family="Helvetica,sans-Serif" font-size="10.00">_threshold</text>
</a>
</g>
</g>
<!-- Node8&#45;&gt;Node4 -->
<g id="edge7_Node000004_Node000008" class="edge">
<title>Node8&#45;&gt;Node4</title>
<g id="a_edge7_Node000004_Node000008"><a xlink:title=" ">
<path fill="none" stroke="#9a32cd" stroke-dasharray="5,2" d="M174.59,-813.61C223.57,-814.65 280.79,-806.1 316,-768.3 355.32,-726.08 297.53,-554 334,-509.3 337.03,-505.58 340.69,-502.53 344.72,-500.01"/>
<polygon fill="#9a32cd" stroke="#9a32cd" points="174.94,-810.12 164.82,-813.25 174.68,-817.12 174.94,-810.12"/>
</a>
</g>
<text text-anchor="middle" x="248.5" y="-816.55" font-family="Helvetica,sans-Serif" font-size="10.00" fill="grey"> feat_temp_threshold</text>
</g>
<!-- Node9 -->
<g id="Node000009" class="node">
<title>Node9</title>
<g id="a_Node000009"><a xlink:href="unionspdk__nvme__feat__error__recovery.html" target="_top" xlink:title="Data used by Set Features/Get Features SPDK_NVME_FEAT_ERROR_RECOVERY.">
<polygon fill="white" stroke="#666666" points="144.25,-766.05 18.75,-766.05 18.75,-732.55 144.25,-732.55 144.25,-766.05"/>
<text text-anchor="start" x="26.75" y="-752.55" font-family="Helvetica,sans-Serif" font-size="10.00">spdk_nvme_feat_error</text>
<text text-anchor="middle" x="81.5" y="-739.8" font-family="Helvetica,sans-Serif" font-size="10.00">_recovery</text>
</a>
</g>
</g>
<!-- Node9&#45;&gt;Node4 -->
<g id="edge8_Node000004_Node000009" class="edge">
<title>Node9&#45;&gt;Node4</title>
<g id="a_edge8_Node000004_Node000009"><a xlink:title=" ">
<path fill="none" stroke="#9a32cd" stroke-dasharray="5,2" d="M156.08,-752.25C216.05,-752.93 294.25,-749.3 316,-727.3 350.17,-692.73 303.02,-546.76 334,-509.3 337.05,-505.6 340.73,-502.56 344.77,-500.06"/>
<polygon fill="#9a32cd" stroke="#9a32cd" points="156.3,-748.75 146.24,-752.09 156.19,-755.75 156.3,-748.75"/>
</a>
</g>
<text text-anchor="middle" x="248.5" y="-754.55" font-family="Helvetica,sans-Serif" font-size="10.00" fill="grey"> feat_error_recovery</text>
</g>
<!-- Node10 -->
<g id="Node000010" class="node">
<title>Node10</title>
<g id="a_Node000010"><a xlink:href="unionspdk__nvme__feat__volatile__write__cache.html" target="_top" xlink:title="Data used by Set Features/Get Features SPDK_NVME_FEAT_VOLATILE_WRITE_CACHE.">
<polygon fill="white" stroke="#666666" points="151,-714.05 12,-714.05 12,-680.55 151,-680.55 151,-714.05"/>
<text text-anchor="start" x="20" y="-700.55" font-family="Helvetica,sans-Serif" font-size="10.00">spdk_nvme_feat_volatile</text>
<text text-anchor="middle" x="81.5" y="-687.8" font-family="Helvetica,sans-Serif" font-size="10.00">_write_cache</text>
</a>
</g>
</g>
<!-- Node10&#45;&gt;Node4 -->
<g id="edge9_Node000004_Node000010" class="edge">
<title>Node10&#45;&gt;Node4</title>
<g id="a_edge9_Node000004_Node000010"><a xlink:title=" ">
<path fill="none" stroke="#9a32cd" stroke-dasharray="5,2" d="M162.41,-699.79C221.33,-699.79 294.78,-695.29 316,-674.3 342.22,-648.35 310.13,-537.41 334,-509.3 337.1,-505.64 340.81,-502.63 344.88,-500.14"/>
<polygon fill="#9a32cd" stroke="#9a32cd" points="162.74,-696.29 152.73,-699.75 162.71,-703.29 162.74,-696.29"/>
</a>
</g>
<text text-anchor="start" x="201.25" y="-715.3" font-family="Helvetica,sans-Serif" font-size="10.00" fill="grey"> feat_volatile_write</text>
<text text-anchor="middle" x="248.5" y="-702.55" font-family="Helvetica,sans-Serif" font-size="10.00" fill="grey">_cache</text>
</g>
<!-- Node11 -->
<g id="Node000011" class="node">
<title>Node11</title>
<g id="a_Node000011"><a xlink:href="unionspdk__nvme__feat__number__of__queues.html" target="_top" xlink:title="Data used by Set Features/Get Features SPDK_NVME_FEAT_NUMBER_OF_QUEUES.">
<polygon fill="white" stroke="#666666" points="151.38,-662.05 11.62,-662.05 11.62,-628.55 151.38,-628.55 151.38,-662.05"/>
<text text-anchor="start" x="19.62" y="-648.55" font-family="Helvetica,sans-Serif" font-size="10.00">spdk_nvme_feat_number</text>
<text text-anchor="middle" x="81.5" y="-635.8" font-family="Helvetica,sans-Serif" font-size="10.00">_of_queues</text>
</a>
</g>
</g>
<!-- Node11&#45;&gt;Node4 -->
<g id="edge10_Node000004_Node000011" class="edge">
<title>Node11&#45;&gt;Node4</title>
<g id="a_edge10_Node000004_Node000011"><a xlink:title=" ">
<path fill="none" stroke="#9a32cd" stroke-dasharray="5,2" d="M162.97,-657.14C213.41,-659.77 276.19,-653.53 316,-615.3 350.47,-582.2 302,-544.78 334,-509.3 337.3,-505.64 341.2,-502.63 345.45,-500.15"/>
<polygon fill="#9a32cd" stroke="#9a32cd" points="163.47,-653.66 153.26,-656.5 163.01,-660.65 163.47,-653.66"/>
</a>
</g>
<text text-anchor="middle" x="248.5" y="-660.55" font-family="Helvetica,sans-Serif" font-size="10.00" fill="grey"> feat_num_of_queues</text>
</g>
<!-- Node12 -->
<g id="Node000012" class="node">
<title>Node12</title>
<g id="a_Node000012"><a xlink:href="unionspdk__nvme__feat__interrupt__coalescing.html" target="_top" xlink:title="Data used by Set Features/Get Features SPDK_NVME_FEAT_INTERRUPT_COALESCING.">
<polygon fill="white" stroke="#666666" points="153.62,-610.05 9.38,-610.05 9.38,-576.55 153.62,-576.55 153.62,-610.05"/>
<text text-anchor="start" x="17.38" y="-596.55" font-family="Helvetica,sans-Serif" font-size="10.00">spdk_nvme_feat_interrupt</text>
<text text-anchor="middle" x="81.5" y="-583.8" font-family="Helvetica,sans-Serif" font-size="10.00">_coalescing</text>
</a>
</g>
</g>
<!-- Node12&#45;&gt;Node4 -->
<g id="edge11_Node000004_Node000012" class="edge">
<title>Node12&#45;&gt;Node4</title>
<g id="a_edge11_Node000004_Node000012"><a xlink:title=" ">
<path fill="none" stroke="#9a32cd" stroke-dasharray="5,2" d="M165.53,-599.66C214.28,-599.02 274.3,-590.09 316,-556.3 333.38,-542.21 317.45,-524.35 334,-509.3 338.12,-505.55 342.88,-502.5 347.96,-500.01"/>
<polygon fill="#9a32cd" stroke="#9a32cd" points="165.55,-596.16 155.55,-599.66 165.55,-603.16 165.55,-596.16"/>
</a>
</g>
<text text-anchor="middle" x="248.5" y="-601.55" font-family="Helvetica,sans-Serif" font-size="10.00" fill="grey"> feat_interrupt_coalescing</text>
</g>
<!-- Node13 -->
<g id="Node000013" class="node">
<title>Node13</title>
<g id="a_Node000013"><a xlink:href="unionspdk__nvme__feat__interrupt__vector__configuration.html" target="_top" xlink:title="Data used by Set Features/Get Features SPDK_NVME_FEAT_INTERRUPT_VECTOR_CONFIGURATION.">
<polygon fill="white" stroke="#666666" points="153.62,-558.05 9.38,-558.05 9.38,-524.55 153.62,-524.55 153.62,-558.05"/>
<text text-anchor="start" x="17.38" y="-544.55" font-family="Helvetica,sans-Serif" font-size="10.00">spdk_nvme_feat_interrupt</text>
<text text-anchor="middle" x="81.5" y="-531.8" font-family="Helvetica,sans-Serif" font-size="10.00">_vector_configuration</text>
</a>
</g>
</g>
<!-- Node13&#45;&gt;Node4 -->
<g id="edge12_Node000004_Node000013" class="edge">
<title>Node13&#45;&gt;Node4</title>
<g id="a_edge12_Node000004_Node000013"><a xlink:title=" ">
<path fill="none" stroke="#9a32cd" stroke-dasharray="5,2" d="M165.01,-529.71C209.75,-523.23 265.98,-514.77 316,-506.3 327.12,-504.41 338.98,-502.27 350.32,-500.15"/>
<polygon fill="#9a32cd" stroke="#9a32cd" points="164.79,-526.21 155.39,-531.1 165.79,-533.14 164.79,-526.21"/>
</a>
</g>
<text text-anchor="start" x="195.62" y="-542.3" font-family="Helvetica,sans-Serif" font-size="10.00" fill="grey"> feat_interrupt_vector</text>
<text text-anchor="middle" x="248.5" y="-529.55" font-family="Helvetica,sans-Serif" font-size="10.00" fill="grey">_configuration</text>
</g>
<!-- Node14 -->
<g id="Node000014" class="node">
<title>Node14</title>
<g id="a_Node000014"><a xlink:href="unionspdk__nvme__feat__write__atomicity.html" target="_top" xlink:title="Data used by Set Features/Get Features SPDK_NVME_FEAT_WRITE_ATOMICITY.">
<polygon fill="white" stroke="#666666" points="145,-506.05 18,-506.05 18,-472.55 145,-472.55 145,-506.05"/>
<text text-anchor="start" x="26" y="-492.55" font-family="Helvetica,sans-Serif" font-size="10.00">spdk_nvme_feat_write</text>
<text text-anchor="middle" x="81.5" y="-479.8" font-family="Helvetica,sans-Serif" font-size="10.00">_atomicity</text>
</a>
</g>
</g>
<!-- Node14&#45;&gt;Node4 -->
<g id="edge13_Node000004_Node000014" class="edge">
<title>Node14&#45;&gt;Node4</title>
<g id="a_edge13_Node000004_Node000014"><a xlink:title=" ">
<path fill="none" stroke="#9a32cd" stroke-dasharray="5,2" d="M156.64,-489.3C211.55,-489.3 285.73,-489.3 338.86,-489.3"/>
<polygon fill="#9a32cd" stroke="#9a32cd" points="156.75,-485.8 146.75,-489.3 156.75,-492.8 156.75,-485.8"/>
</a>
</g>
<text text-anchor="middle" x="248.5" y="-492.55" font-family="Helvetica,sans-Serif" font-size="10.00" fill="grey"> feat_write_atomicity</text>
</g>
<!-- Node15 -->
<g id="Node000015" class="node">
<title>Node15</title>
<g id="a_Node000015"><a xlink:href="unionspdk__nvme__feat__async__event__configuration.html" target="_top" xlink:title="Data used by Set Features / Get Features SPDK_NVME_FEAT_ASYNC_EVENT_CONFIGURATION.">
<polygon fill="#fff0f0" stroke="red" points="146.88,-454.05 16.12,-454.05 16.12,-420.55 146.88,-420.55 146.88,-454.05"/>
<text text-anchor="start" x="24.12" y="-440.55" font-family="Helvetica,sans-Serif" font-size="10.00">spdk_nvme_feat_async</text>
<text text-anchor="middle" x="81.5" y="-427.8" font-family="Helvetica,sans-Serif" font-size="10.00">_event_configuration</text>
</a>
</g>
</g>
<!-- Node15&#45;&gt;Node4 -->
<g id="edge14_Node000004_Node000015" class="edge">
<title>Node15&#45;&gt;Node4</title>
<g id="a_edge14_Node000004_Node000015"><a xlink:title=" ">
<path fill="none" stroke="#9a32cd" stroke-dasharray="5,2" d="M158.58,-448.11C204.28,-454.77 263.54,-463.7 316,-472.55 326.8,-474.37 338.31,-476.42 349.35,-478.46"/>
<polygon fill="#9a32cd" stroke="#9a32cd" points="159.16,-444.65 148.76,-446.68 158.16,-451.58 159.16,-444.65"/>
</a>
</g>
<text text-anchor="middle" x="248.5" y="-475.55" font-family="Helvetica,sans-Serif" font-size="10.00" fill="grey"> feat_async_event_cfg</text>
</g>
<!-- Node17 -->
<g id="Node000017" class="node">
<title>Node17</title>
<g id="a_Node000017"><a xlink:href="unionspdk__nvme__feat__keep__alive__timer.html" target="_top" xlink:title="Data used by Set Features/Get Features SPDK_NVME_FEAT_KEEP_ALIVE_TIMER.">
<polygon fill="white" stroke="#666666" points="144.25,-402.05 18.75,-402.05 18.75,-368.55 144.25,-368.55 144.25,-402.05"/>
<text text-anchor="start" x="26.75" y="-388.55" font-family="Helvetica,sans-Serif" font-size="10.00">spdk_nvme_feat_keep</text>
<text text-anchor="middle" x="81.5" y="-375.8" font-family="Helvetica,sans-Serif" font-size="10.00">_alive_timer</text>
</a>
</g>
</g>
<!-- Node17&#45;&gt;Node4 -->
<g id="edge15_Node000004_Node000017" class="edge">
<title>Node17&#45;&gt;Node4</title>
<g id="a_edge15_Node000004_Node000017"><a xlink:title=" ">
<path fill="none" stroke="#9a32cd" stroke-dasharray="5,2" d="M155.93,-394.26C202.88,-401.56 264.41,-414.09 316,-434.55 344.7,-445.93 374.68,-466.14 391.74,-478.57"/>
<polygon fill="#9a32cd" stroke="#9a32cd" points="156.54,-390.81 146.13,-392.78 155.5,-397.73 156.54,-390.81"/>
</a>
</g>
<text text-anchor="middle" x="248.5" y="-437.55" font-family="Helvetica,sans-Serif" font-size="10.00" fill="grey"> feat_keep_alive_timer</text>
</g>
<!-- Node18 -->
<g id="Node000018" class="node">
<title>Node18</title>
<g id="a_Node000018"><a xlink:href="unionspdk__nvme__feat__host__identifier.html" target="_top" xlink:title="Data used by Set Features/Get Features SPDK_NVME_FEAT_HOST_IDENTIFIER.">
<polygon fill="white" stroke="#666666" points="143.12,-350.05 19.88,-350.05 19.88,-316.55 143.12,-316.55 143.12,-350.05"/>
<text text-anchor="start" x="27.88" y="-336.55" font-family="Helvetica,sans-Serif" font-size="10.00">spdk_nvme_feat_host</text>
<text text-anchor="middle" x="81.5" y="-323.8" font-family="Helvetica,sans-Serif" font-size="10.00">_identifier</text>
</a>
</g>
</g>
<!-- Node18&#45;&gt;Node4 -->
<g id="edge16_Node000004_Node000018" class="edge">
<title>Node18&#45;&gt;Node4</title>
<g id="a_edge16_Node000004_Node000018"><a xlink:title=" ">
<path fill="none" stroke="#9a32cd" stroke-dasharray="5,2" d="M154.91,-335.94C203.45,-340.55 267.18,-352.3 316,-381.55 357.17,-406.21 388.2,-456.72 400.31,-478.69"/>
<polygon fill="#9a32cd" stroke="#9a32cd" points="155.32,-332.46 145.05,-335.1 154.72,-339.44 155.32,-332.46"/>
</a>
</g>
<text text-anchor="middle" x="248.5" y="-384.55" font-family="Helvetica,sans-Serif" font-size="10.00" fill="grey"> feat_host_identifier</text>
</g>
<!-- Node19 -->
<g id="Node000019" class="node">
<title>Node19</title>
<g id="a_Node000019"><a xlink:href="unionspdk__nvme__feat__reservation__notification__mask.html" target="_top" xlink:title="Data used by Set Features/Get Features SPDK_NVME_FEAT_HOST_RESERVE_MASK.">
<polygon fill="white" stroke="#666666" points="160.38,-298.05 2.62,-298.05 2.62,-264.55 160.38,-264.55 160.38,-298.05"/>
<text text-anchor="start" x="10.62" y="-284.55" font-family="Helvetica,sans-Serif" font-size="10.00">spdk_nvme_feat_reservation</text>
<text text-anchor="middle" x="81.5" y="-271.8" font-family="Helvetica,sans-Serif" font-size="10.00">_notification_mask</text>
</a>
</g>
</g>
<!-- Node19&#45;&gt;Node4 -->
<g id="edge17_Node000004_Node000019" class="edge">
<title>Node19&#45;&gt;Node4</title>
<g id="a_edge17_Node000004_Node000019"><a xlink:title=" ">
<path fill="none" stroke="#9a32cd" stroke-dasharray="5,2" d="M172.22,-278.6C218.95,-281.41 274.77,-291.81 316,-321.55 372.01,-361.94 396.47,-448.19 403.56,-478.49"/>
<polygon fill="#9a32cd" stroke="#9a32cd" points="172.53,-275.11 162.37,-278.12 172.19,-282.1 172.53,-275.11"/>
</a>
</g>
<text text-anchor="middle" x="248.5" y="-324.55" font-family="Helvetica,sans-Serif" font-size="10.00" fill="grey"> feat_rsv_notification_mask</text>
</g>
<!-- Node20 -->
<g id="Node000020" class="node">
<title>Node20</title>
<g id="a_Node000020"><a xlink:href="unionspdk__nvme__feat__reservation__persistence.html" target="_top" xlink:title="Data used by Set Features/Get Features SPDK_NVME_FEAT_HOST_RESERVE_PERSIST.">
<polygon fill="white" stroke="#666666" points="160.38,-246.05 2.62,-246.05 2.62,-212.55 160.38,-212.55 160.38,-246.05"/>
<text text-anchor="start" x="10.62" y="-232.55" font-family="Helvetica,sans-Serif" font-size="10.00">spdk_nvme_feat_reservation</text>
<text text-anchor="middle" x="81.5" y="-219.8" font-family="Helvetica,sans-Serif" font-size="10.00">_persistence</text>
</a>
</g>
</g>
<!-- Node20&#45;&gt;Node4 -->
<g id="edge18_Node000004_Node000020" class="edge">
<title>Node20&#45;&gt;Node4</title>
<g id="a_edge18_Node000004_Node000020"><a xlink:title=" ">
<path fill="none" stroke="#9a32cd" stroke-dasharray="5,2" d="M172.36,-221.63C219.65,-222.27 275.97,-231 316,-262.55 352.5,-291.31 392.48,-437.45 403.14,-478.54"/>
<polygon fill="#9a32cd" stroke="#9a32cd" points="172.37,-218.13 162.37,-221.62 172.37,-225.13 172.37,-218.13"/>
</a>
</g>
<text text-anchor="middle" x="248.5" y="-265.55" font-family="Helvetica,sans-Serif" font-size="10.00" fill="grey"> feat_rsv_persistence</text>
</g>
<!-- Node21 -->
<g id="Node000021" class="node">
<title>Node21</title>
<g id="a_Node000021"><a xlink:href="unionspdk__nvme__feat__fdp__cdw11.html" target="_top" xlink:title="Data used by Set Features/Get Features SPDK_NVME_FEAT_FDP.">
<polygon fill="white" stroke="#666666" points="140.5,-194.05 22.5,-194.05 22.5,-160.55 140.5,-160.55 140.5,-194.05"/>
<text text-anchor="start" x="30.5" y="-180.55" font-family="Helvetica,sans-Serif" font-size="10.00">spdk_nvme_feat_fdp</text>
<text text-anchor="middle" x="81.5" y="-167.8" font-family="Helvetica,sans-Serif" font-size="10.00">_cdw11</text>
</a>
</g>
</g>
<!-- Node21&#45;&gt;Node4 -->
<g id="edge19_Node000004_Node000021" class="edge">
<title>Node21&#45;&gt;Node4</title>
<g id="a_edge19_Node000004_Node000021"><a xlink:title=" ">
<path fill="none" stroke="#9a32cd" stroke-dasharray="5,2" d="M152.18,-166.31C203.65,-162.33 272.11,-166.35 316,-205.55 341.81,-228.6 324.34,-248.07 334,-281.3 356.3,-357.97 390.09,-448.09 401.75,-478.59"/>
<polygon fill="#9a32cd" stroke="#9a32cd" points="151.96,-162.81 142.32,-167.2 152.59,-169.78 151.96,-162.81"/>
</a>
</g>
<text text-anchor="middle" x="248.5" y="-209.55" font-family="Helvetica,sans-Serif" font-size="10.00" fill="grey"> feat_fdp_cdw11</text>
</g>
<!-- Node22 -->
<g id="Node000022" class="node">
<title>Node22</title>
<g id="a_Node000022"><a xlink:href="unionspdk__nvme__feat__fdp__events__cdw11.html" target="_top" xlink:title="Data used by Set Features/Get Features SPDK_NVME_FEAT_FDP_EVENTS.">
<polygon fill="white" stroke="#666666" points="140.5,-142.05 22.5,-142.05 22.5,-108.55 140.5,-108.55 140.5,-142.05"/>
<text text-anchor="start" x="30.5" y="-128.55" font-family="Helvetica,sans-Serif" font-size="10.00">spdk_nvme_feat_fdp</text>
<text text-anchor="middle" x="81.5" y="-115.8" font-family="Helvetica,sans-Serif" font-size="10.00">_events_cdw11</text>
</a>
</g>
</g>
<!-- Node22&#45;&gt;Node4 -->
<g id="edge20_Node000004_Node000022" class="edge">
<title>Node22&#45;&gt;Node4</title>
<g id="a_edge20_Node000004_Node000022"><a xlink:title=" ">
<path fill="none" stroke="#9a32cd" stroke-dasharray="5,2" d="M152.04,-111.5C204.13,-105.51 273.46,-107.5 316,-148.55 337.42,-169.22 327.1,-252.34 334,-281.3 352.49,-358.98 388.7,-448.46 401.37,-478.69"/>
<polygon fill="#9a32cd" stroke="#9a32cd" points="151.85,-107.99 142.38,-112.74 152.74,-114.94 151.85,-107.99"/>
</a>
</g>
<text text-anchor="middle" x="248.5" y="-152.55" font-family="Helvetica,sans-Serif" font-size="10.00" fill="grey"> feat_fdp_events_cdw11</text>
</g>
<!-- Node23 -->
<g id="Node000023" class="node">
<title>Node23</title>
<g id="a_Node000023"><a xlink:href="unionspdk__nvme__cmd__cdw12.html" target="_top" xlink:title=" ">
<polygon fill="white" stroke="#bfbfbf" points="474.5,-272.67 339.25,-272.67 339.25,-251.92 474.5,-251.92 474.5,-272.67"/>
<text text-anchor="middle" x="406.88" y="-259.17" font-family="Helvetica,sans-Serif" font-size="10.00">spdk_nvme_cmd_cdw12</text>
</a>
</g>
</g>
<!-- Node23&#45;&gt;Node1 -->
<g id="edge21_Node000001_Node000023" class="edge">
<title>Node23&#45;&gt;Node1</title>
<g id="a_edge21_Node000001_Node000023"><a xlink:title=" ">
<path fill="none" stroke="#9a32cd" stroke-dasharray="5,2" d="M425.61,-281.12C468.75,-326.9 578.1,-442.96 611.74,-478.68"/>
<polygon fill="#9a32cd" stroke="#9a32cd" points="428.35,-278.92 418.94,-274.04 423.25,-283.72 428.35,-278.92"/>
</a>
</g>
<text text-anchor="middle" x="526.62" y="-418.55" font-family="Helvetica,sans-Serif" font-size="10.00" fill="grey"> cdw12_bits</text>
</g>
<!-- Node24 -->
<g id="Node000024" class="node">
<title>Node24</title>
<g id="a_Node000024"><a xlink:href="unionspdk__nvme__feat__fdp__cdw12.html" target="_top" xlink:title="Data used by Set Features/Get Features SPDK_NVME_FEAT_FDP.">
<polygon fill="white" stroke="#666666" points="140.5,-90.05 22.5,-90.05 22.5,-56.55 140.5,-56.55 140.5,-90.05"/>
<text text-anchor="start" x="30.5" y="-76.55" font-family="Helvetica,sans-Serif" font-size="10.00">spdk_nvme_feat_fdp</text>
<text text-anchor="middle" x="81.5" y="-63.8" font-family="Helvetica,sans-Serif" font-size="10.00">_cdw12</text>
</a>
</g>
</g>
<!-- Node24&#45;&gt;Node23 -->
<g id="edge22_Node000023_Node000024" class="edge">
<title>Node24&#45;&gt;Node23</title>
<g id="a_edge22_Node000023_Node000024"><a xlink:title=" ">
<path fill="none" stroke="#9a32cd" stroke-dasharray="5,2" d="M152,-57.25C204.06,-49.68 273.38,-49.77 316,-90.55 365.08,-137.5 289.79,-190.74 334,-242.3 337.2,-246.03 341.04,-249.1 345.25,-251.62"/>
<polygon fill="#9a32cd" stroke="#9a32cd" points="151.65,-53.76 142.33,-58.79 152.75,-60.67 151.65,-53.76"/>
</a>
</g>
<text text-anchor="middle" x="248.5" y="-94.55" font-family="Helvetica,sans-Serif" font-size="10.00" fill="grey"> feat_fdp_cdw12</text>
</g>
<!-- Node25 -->
<g id="Node000025" class="node">
<title>Node25</title>
<g id="a_Node000025"><a xlink:href="unionspdk__nvme__feat__fdp__events__cdw12.html" target="_top" xlink:title="Data used by Set Feature SPDK_NVME_FEAT_FDP_EVENTS.">
<polygon fill="white" stroke="#666666" points="140.5,-38.05 22.5,-38.05 22.5,-4.55 140.5,-4.55 140.5,-38.05"/>
<text text-anchor="start" x="30.5" y="-24.55" font-family="Helvetica,sans-Serif" font-size="10.00">spdk_nvme_feat_fdp</text>
<text text-anchor="middle" x="81.5" y="-11.8" font-family="Helvetica,sans-Serif" font-size="10.00">_events_cdw12</text>
</a>
</g>
</g>
<!-- Node25&#45;&gt;Node23 -->
<g id="edge23_Node000023_Node000025" class="edge">
<title>Node25&#45;&gt;Node23</title>
<g id="a_edge23_Node000023_Node000025"><a xlink:title=" ">
<path fill="none" stroke="#9a32cd" stroke-dasharray="5,2" d="M152.05,-4.58C204.31,3.47 273.86,3.83 316,-37.55 348.59,-69.55 304.8,-207.17 334,-242.3 337.06,-245.98 340.74,-249.02 344.8,-251.52"/>
<polygon fill="#9a32cd" stroke="#9a32cd" points="151.62,-1.11 142.34,-6.22 152.78,-8.01 151.62,-1.11"/>
</a>
</g>
<text text-anchor="middle" x="248.5" y="-41.55" font-family="Helvetica,sans-Serif" font-size="10.00" fill="grey"> feat_fdp_events_cdw12</text>
</g>
<!-- Node26 -->
<g id="Node000026" class="node">
<title>Node26</title>
<g id="a_Node000026"><a xlink:href="unionspdk__nvme__cmd__cdw13.html" target="_top" xlink:title=" ">
<polygon fill="white" stroke="#bfbfbf" points="474.5,-233.67 339.25,-233.67 339.25,-212.92 474.5,-212.92 474.5,-233.67"/>
<text text-anchor="middle" x="406.88" y="-220.17" font-family="Helvetica,sans-Serif" font-size="10.00">spdk_nvme_cmd_cdw13</text>
</a>
</g>
</g>
<!-- Node26&#45;&gt;Node1 -->
<g id="edge24_Node000001_Node000026" class="edge">
<title>Node26&#45;&gt;Node1</title>
<g id="a_edge24_Node000001_Node000026"><a xlink:title=" ">
<path fill="none" stroke="#9a32cd" stroke-dasharray="5,2" d="M472.24,-238.79C474.85,-240.17 477.36,-241.67 479.75,-243.3 568.48,-303.99 609.06,-439.7 619.16,-478.66"/>
<polygon fill="#9a32cd" stroke="#9a32cd" points="473.77,-235.64 463.22,-234.68 470.87,-242.01 473.77,-235.64"/>
</a>
</g>
<text text-anchor="middle" x="526.62" y="-324.55" font-family="Helvetica,sans-Serif" font-size="10.00" fill="grey"> cdw13_bits</text>
</g>
</g>
</svg>
