<?xml version="1.0" encoding="UTF-8" standalone="no"?>
<!DOCTYPE svg PUBLIC "-//W3C//DTD SVG 1.1//EN"
 "http://www.w3.org/Graphics/SVG/1.1/DTD/svg11.dtd">
<!-- Generated by graphviz version 9.0.0 (20230911.1827)
 -->
<!-- Title: spdk_nvme_ns_data Pages: 1 -->
<svg width="335pt" height="185pt"
 viewBox="0.00 0.00 334.75 184.75" xmlns="http://www.w3.org/2000/svg" xmlns:xlink="http://www.w3.org/1999/xlink">
<g id="graph0" class="graph" transform="scale(1 1) rotate(0) translate(4 180.75)">
<title>spdk_nvme_ns_data</title>
<!-- Node1 -->
<g id="Node000001" class="node">
<title>Node1</title>
<g id="a_Node000001"><a xlink:title="Both spdk_nvme_ns_data_head and spdk_nvme_ns_data must be in sync.">
<polygon fill="#999999" stroke="#666666" points="326.75,-98.75 211,-98.75 211,-78 326.75,-78 326.75,-98.75"/>
<text text-anchor="middle" x="268.88" y="-85.25" font-family="Helvetica,sans-Serif" font-size="10.00">spdk_nvme_ns_data</text>
</a>
</g>
</g>
<!-- Node2 -->
<g id="Node000002" class="node">
<title>Node2</title>
<g id="a_Node000002"><a xlink:href="structspdk__nvme__nmic.html" target="_top" xlink:title=" ">
<polygon fill="white" stroke="#bfbfbf" points="120.62,-176.75 19.12,-176.75 19.12,-156 120.62,-156 120.62,-176.75"/>
<text text-anchor="middle" x="69.88" y="-163.25" font-family="Helvetica,sans-Serif" font-size="10.00">spdk_nvme_nmic</text>
</a>
</g>
</g>
<!-- Node2&#45;&gt;Node1 -->
<g id="edge1_Node000001_Node000002" class="edge">
<title>Node2&#45;&gt;Node1</title>
<g id="a_edge1_Node000001_Node000002"><a xlink:title=" ">
<path fill="none" stroke="#9a32cd" stroke-dasharray="5,2" d="M120.18,-152.34C126.77,-150.38 133.43,-148.36 139.75,-146.38 163.58,-138.89 170.07,-138.29 193,-128.38 213.02,-119.71 234.92,-107.7 249.83,-99.1"/>
<polygon fill="#9a32cd" stroke="#9a32cd" points="119.28,-148.96 110.67,-155.13 121.25,-155.67 119.28,-148.96"/>
</a>
</g>
<text text-anchor="middle" x="175.38" y="-143.62" font-family="Helvetica,sans-Serif" font-size="10.00" fill="grey"> nmic</text>
</g>
<!-- Node3 -->
<g id="Node000003" class="node">
<title>Node3</title>
<g id="a_Node000003"><a xlink:href="structspdk__nvme__rescap.html" target="_top" xlink:title=" ">
<polygon fill="white" stroke="#bfbfbf" points="124.75,-137.75 15,-137.75 15,-117 124.75,-117 124.75,-137.75"/>
<text text-anchor="middle" x="69.88" y="-124.25" font-family="Helvetica,sans-Serif" font-size="10.00">spdk_nvme_rescap</text>
</a>
</g>
</g>
<!-- Node3&#45;&gt;Node1 -->
<g id="edge2_Node000001_Node000003" class="edge">
<title>Node3&#45;&gt;Node1</title>
<g id="a_edge2_Node000001_Node000003"><a xlink:title=" ">
<path fill="none" stroke="#9a32cd" stroke-dasharray="5,2" d="M136.29,-116.15C154.67,-112.85 174.64,-109.11 193,-105.38 202.27,-103.49 212.16,-101.34 221.61,-99.22"/>
<polygon fill="#9a32cd" stroke="#9a32cd" points="135.8,-112.68 126.57,-117.88 137.03,-119.57 135.8,-112.68"/>
</a>
</g>
<text text-anchor="middle" x="175.38" y="-114.62" font-family="Helvetica,sans-Serif" font-size="10.00" fill="grey"> rescap</text>
</g>
<!-- Node4 -->
<g id="Node000004" class="node">
<title>Node4</title>
<g id="a_Node000004"><a xlink:href="structspdk__nvme__fpi.html" target="_top" xlink:title=" ">
<polygon fill="white" stroke="#bfbfbf" points="115,-98.75 24.75,-98.75 24.75,-78 115,-78 115,-98.75"/>
<text text-anchor="middle" x="69.88" y="-85.25" font-family="Helvetica,sans-Serif" font-size="10.00">spdk_nvme_fpi</text>
</a>
</g>
</g>
<!-- Node4&#45;&gt;Node1 -->
<g id="edge3_Node000001_Node000004" class="edge">
<title>Node4&#45;&gt;Node1</title>
<g id="a_edge3_Node000001_Node000004"><a xlink:title=" ">
<path fill="none" stroke="#9a32cd" stroke-dasharray="5,2" d="M126.41,-88.38C152.74,-88.38 184.17,-88.38 210.71,-88.38"/>
<polygon fill="#9a32cd" stroke="#9a32cd" points="126.6,-84.88 116.6,-88.38 126.6,-91.88 126.6,-84.88"/>
</a>
</g>
<text text-anchor="middle" x="175.38" y="-91.62" font-family="Helvetica,sans-Serif" font-size="10.00" fill="grey"> fpi</text>
</g>
<!-- Node5 -->
<g id="Node000005" class="node">
<title>Node5</title>
<g id="a_Node000005"><a xlink:href="structspdk__nvme__nsattr.html" target="_top" xlink:title=" ">
<polygon fill="white" stroke="#bfbfbf" points="122.88,-59.75 16.88,-59.75 16.88,-39 122.88,-39 122.88,-59.75"/>
<text text-anchor="middle" x="69.88" y="-46.25" font-family="Helvetica,sans-Serif" font-size="10.00">spdk_nvme_nsattr</text>
</a>
</g>
</g>
<!-- Node5&#45;&gt;Node1 -->
<g id="edge4_Node000001_Node000005" class="edge">
<title>Node5&#45;&gt;Node1</title>
<g id="a_edge4_Node000001_Node000005"><a xlink:title=" ">
<path fill="none" stroke="#9a32cd" stroke-dasharray="5,2" d="M134.44,-60.46C153.32,-63.89 174.02,-67.77 193,-71.62 202.01,-73.45 211.6,-75.51 220.81,-77.54"/>
<polygon fill="#9a32cd" stroke="#9a32cd" points="135.21,-57.04 124.75,-58.71 133.97,-63.93 135.21,-57.04"/>
</a>
</g>
<text text-anchor="middle" x="175.38" y="-74.62" font-family="Helvetica,sans-Serif" font-size="10.00" fill="grey"> nsattr</text>
</g>
<!-- Node6 -->
<g id="Node000006" class="node">
<title>Node6</title>
<g id="a_Node000006"><a xlink:href="structspdk__nvme__ns__data__lbaf.html" target="_top" xlink:title=" ">
<polygon fill="white" stroke="#bfbfbf" points="139.75,-20.75 0,-20.75 0,0 139.75,0 139.75,-20.75"/>
<text text-anchor="middle" x="69.88" y="-7.25" font-family="Helvetica,sans-Serif" font-size="10.00">spdk_nvme_ns_data_lbaf</text>
</a>
</g>
</g>
<!-- Node6&#45;&gt;Node1 -->
<g id="edge5_Node000001_Node000006" class="edge">
<title>Node6&#45;&gt;Node1</title>
<g id="a_edge5_Node000001_Node000006"><a xlink:title=" ">
<path fill="none" stroke="#9a32cd" stroke-dasharray="5,2" d="M119.42,-24.27C126.26,-26.29 133.19,-28.36 139.75,-30.38 163.53,-37.68 170.14,-37.8 193,-47.62 213.26,-56.33 235.3,-68.71 250.19,-77.53"/>
<polygon fill="#9a32cd" stroke="#9a32cd" points="120.86,-21.04 110.28,-21.6 118.9,-27.76 120.86,-21.04"/>
</a>
</g>
<text text-anchor="middle" x="175.38" y="-50.62" font-family="Helvetica,sans-Serif" font-size="10.00" fill="grey"> lbaf</text>
</g>
</g>
</svg>
