<?xml version="1.0" encoding="UTF-8" standalone="no"?>
<!DOCTYPE svg PUBLIC "-//W3C//DTD SVG 1.1//EN"
 "http://www.w3.org/Graphics/SVG/1.1/DTD/svg11.dtd">
<!-- Generated by graphviz version 9.0.0 (20230911.1827)
 -->
<!-- Title: spdk_nvmf_ctrlr_feat Pages: 1 -->
<svg width="661pt" height="511pt"
 viewBox="0.00 0.00 661.25 510.50" xmlns="http://www.w3.org/2000/svg" xmlns:xlink="http://www.w3.org/1999/xlink">
<g id="graph0" class="graph" transform="scale(1 1) rotate(0) translate(4 506.5)">
<title>spdk_nvmf_ctrlr_feat</title>
<!-- Node1 -->
<g id="Node000001" class="node">
<title>Node1</title>
<g id="a_Node000001"><a xlink:title=" ">
<polygon fill="#999999" stroke="#666666" points="653.25,-261.12 533.75,-261.12 533.75,-240.38 653.25,-240.38 653.25,-261.12"/>
<text text-anchor="middle" x="593.5" y="-247.62" font-family="Helvetica,sans-Serif" font-size="10.00">spdk_nvmf_ctrlr_feat</text>
</a>
</g>
</g>
<!-- Node2 -->
<g id="Node000002" class="node">
<title>Node2</title>
<g id="a_Node000002"><a xlink:href="unionspdk__nvme__feat__arbitration.html" target="_top" xlink:title="Data used by Set Features/Get Features SPDK_NVME_FEAT_ARBITRATION.">
<polygon fill="white" stroke="#666666" points="347.75,-488.12 194.5,-488.12 194.5,-467.38 347.75,-467.38 347.75,-488.12"/>
<text text-anchor="middle" x="271.12" y="-474.62" font-family="Helvetica,sans-Serif" font-size="10.00">spdk_nvme_feat_arbitration</text>
</a>
</g>
</g>
<!-- Node2&#45;&gt;Node1 -->
<g id="edge1_Node000001_Node000002" class="edge">
<title>Node2&#45;&gt;Node1</title>
<g id="a_edge1_Node000001_Node000002"><a xlink:title=" ">
<path fill="none" stroke="#9a32cd" stroke-dasharray="5,2" d="M350.16,-489.5C402.17,-492.96 469.26,-488.46 515.75,-452.75 579.42,-403.85 590.27,-295.55 592.12,-261.33"/>
<polygon fill="#9a32cd" stroke="#9a32cd" points="350.73,-486.04 340.48,-488.74 350.18,-493.01 350.73,-486.04"/>
</a>
</g>
<text text-anchor="middle" x="440.75" y="-493" font-family="Helvetica,sans-Serif" font-size="10.00" fill="grey"> arbitration</text>
</g>
<!-- Node3 -->
<g id="Node000003" class="node">
<title>Node3</title>
<g id="a_Node000003"><a xlink:href="unionspdk__nvme__feat__power__management.html" target="_top" xlink:title="Data used by Set Features/Get Features SPDK_NVME_FEAT_POWER_MANAGEMENT.">
<polygon fill="white" stroke="#666666" points="337.25,-449.5 205,-449.5 205,-416 337.25,-416 337.25,-449.5"/>
<text text-anchor="start" x="213" y="-436" font-family="Helvetica,sans-Serif" font-size="10.00">spdk_nvme_feat_power</text>
<text text-anchor="middle" x="271.12" y="-423.25" font-family="Helvetica,sans-Serif" font-size="10.00">_management</text>
</a>
</g>
</g>
<!-- Node3&#45;&gt;Node1 -->
<g id="edge2_Node000001_Node000003" class="edge">
<title>Node3&#45;&gt;Node1</title>
<g id="a_edge2_Node000001_Node000003"><a xlink:title=" ">
<path fill="none" stroke="#9a32cd" stroke-dasharray="5,2" d="M348.92,-436.97C400.49,-436.02 467.55,-427.09 515.75,-392.75 562.54,-359.42 583.61,-288.41 590.15,-261.44"/>
<polygon fill="#9a32cd" stroke="#9a32cd" points="348.99,-433.47 339.01,-437.04 349.04,-440.46 348.99,-433.47"/>
</a>
</g>
<text text-anchor="middle" x="440.75" y="-439" font-family="Helvetica,sans-Serif" font-size="10.00" fill="grey"> power_management</text>
</g>
<!-- Node4 -->
<g id="Node000004" class="node">
<title>Node4</title>
<g id="a_Node000004"><a xlink:href="unionspdk__nvme__feat__error__recovery.html" target="_top" xlink:title="Data used by Set Features/Get Features SPDK_NVME_FEAT_ERROR_RECOVERY.">
<polygon fill="white" stroke="#666666" points="333.88,-397.5 208.38,-397.5 208.38,-364 333.88,-364 333.88,-397.5"/>
<text text-anchor="start" x="216.38" y="-384" font-family="Helvetica,sans-Serif" font-size="10.00">spdk_nvme_feat_error</text>
<text text-anchor="middle" x="271.12" y="-371.25" font-family="Helvetica,sans-Serif" font-size="10.00">_recovery</text>
</a>
</g>
</g>
<!-- Node4&#45;&gt;Node1 -->
<g id="edge3_Node000001_Node000004" class="edge">
<title>Node4&#45;&gt;Node1</title>
<g id="a_edge3_Node000001_Node000004"><a xlink:title=" ">
<path fill="none" stroke="#9a32cd" stroke-dasharray="5,2" d="M345.54,-378.96C396.17,-374.94 463.5,-363.88 515.75,-334.75 548.19,-316.67 574.37,-279.84 586,-261.55"/>
<polygon fill="#9a32cd" stroke="#9a32cd" points="345.59,-375.45 335.86,-379.65 346.09,-382.43 345.59,-375.45"/>
</a>
</g>
<text text-anchor="middle" x="440.75" y="-379" font-family="Helvetica,sans-Serif" font-size="10.00" fill="grey"> error_recovery</text>
</g>
<!-- Node5 -->
<g id="Node000005" class="node">
<title>Node5</title>
<g id="a_Node000005"><a xlink:href="unionspdk__nvme__feat__volatile__write__cache.html" target="_top" xlink:title="Data used by Set Features/Get Features SPDK_NVME_FEAT_VOLATILE_WRITE_CACHE.">
<polygon fill="white" stroke="#666666" points="340.62,-345.5 201.62,-345.5 201.62,-312 340.62,-312 340.62,-345.5"/>
<text text-anchor="start" x="209.62" y="-332" font-family="Helvetica,sans-Serif" font-size="10.00">spdk_nvme_feat_volatile</text>
<text text-anchor="middle" x="271.12" y="-319.25" font-family="Helvetica,sans-Serif" font-size="10.00">_write_cache</text>
</a>
</g>
</g>
<!-- Node5&#45;&gt;Node1 -->
<g id="edge4_Node000001_Node000005" class="edge">
<title>Node5&#45;&gt;Node1</title>
<g id="a_edge4_Node000001_Node000005"><a xlink:title=" ">
<path fill="none" stroke="#9a32cd" stroke-dasharray="5,2" d="M352.25,-319.81C400.37,-313.16 462.4,-302.33 515.75,-285.75 535.75,-279.54 557.35,-269.34 572.53,-261.56"/>
<polygon fill="#9a32cd" stroke="#9a32cd" points="351.9,-316.32 342.46,-321.12 352.84,-323.26 351.9,-316.32"/>
</a>
</g>
<text text-anchor="middle" x="440.75" y="-321" font-family="Helvetica,sans-Serif" font-size="10.00" fill="grey"> volatile_write_cache</text>
</g>
<!-- Node6 -->
<g id="Node000006" class="node">
<title>Node6</title>
<g id="a_Node000006"><a xlink:href="unionspdk__nvme__feat__number__of__queues.html" target="_top" xlink:title="Data used by Set Features/Get Features SPDK_NVME_FEAT_NUMBER_OF_QUEUES.">
<polygon fill="white" stroke="#666666" points="341,-293.5 201.25,-293.5 201.25,-260 341,-260 341,-293.5"/>
<text text-anchor="start" x="209.25" y="-280" font-family="Helvetica,sans-Serif" font-size="10.00">spdk_nvme_feat_number</text>
<text text-anchor="middle" x="271.12" y="-267.25" font-family="Helvetica,sans-Serif" font-size="10.00">_of_queues</text>
</a>
</g>
</g>
<!-- Node6&#45;&gt;Node1 -->
<g id="edge5_Node000001_Node000006" class="edge">
<title>Node6&#45;&gt;Node1</title>
<g id="a_edge5_Node000001_Node000006"><a xlink:title=" ">
<path fill="none" stroke="#9a32cd" stroke-dasharray="5,2" d="M352.6,-270.22C408.83,-265.66 482.63,-259.67 533.45,-255.54"/>
<polygon fill="#9a32cd" stroke="#9a32cd" points="352.44,-266.72 342.76,-271.02 353.01,-273.7 352.44,-266.72"/>
</a>
</g>
<text text-anchor="middle" x="440.75" y="-272" font-family="Helvetica,sans-Serif" font-size="10.00" fill="grey"> number_of_queues</text>
</g>
<!-- Node7 -->
<g id="Node000007" class="node">
<title>Node7</title>
<g id="a_Node000007"><a xlink:href="unionspdk__nvme__feat__interrupt__coalescing.html" target="_top" xlink:title="Data used by Set Features/Get Features SPDK_NVME_FEAT_INTERRUPT_COALESCING.">
<polygon fill="white" stroke="#666666" points="343.25,-241.5 199,-241.5 199,-208 343.25,-208 343.25,-241.5"/>
<text text-anchor="start" x="207" y="-228" font-family="Helvetica,sans-Serif" font-size="10.00">spdk_nvme_feat_interrupt</text>
<text text-anchor="middle" x="271.12" y="-215.25" font-family="Helvetica,sans-Serif" font-size="10.00">_coalescing</text>
</a>
</g>
</g>
<!-- Node7&#45;&gt;Node1 -->
<g id="edge6_Node000001_Node000007" class="edge">
<title>Node7&#45;&gt;Node1</title>
<g id="a_edge6_Node000001_Node000007"><a xlink:title=" ">
<path fill="none" stroke="#9a32cd" stroke-dasharray="5,2" d="M355.06,-228.36C402.24,-230.81 462.39,-234.6 515.75,-240 521.51,-240.58 527.49,-241.27 533.47,-242.02"/>
<polygon fill="#9a32cd" stroke="#9a32cd" points="355.34,-224.87 345.18,-227.86 354.99,-231.86 355.34,-224.87"/>
</a>
</g>
<text text-anchor="middle" x="440.75" y="-243" font-family="Helvetica,sans-Serif" font-size="10.00" fill="grey"> interrupt_coalescing</text>
</g>
<!-- Node8 -->
<g id="Node000008" class="node">
<title>Node8</title>
<g id="a_Node000008"><a xlink:href="unionspdk__nvme__feat__interrupt__vector__configuration.html" target="_top" xlink:title="Data used by Set Features/Get Features SPDK_NVME_FEAT_INTERRUPT_VECTOR_CONFIGURATION.">
<polygon fill="white" stroke="#666666" points="343.25,-189.5 199,-189.5 199,-156 343.25,-156 343.25,-189.5"/>
<text text-anchor="start" x="207" y="-176" font-family="Helvetica,sans-Serif" font-size="10.00">spdk_nvme_feat_interrupt</text>
<text text-anchor="middle" x="271.12" y="-163.25" font-family="Helvetica,sans-Serif" font-size="10.00">_vector_configuration</text>
</a>
</g>
</g>
<!-- Node8&#45;&gt;Node1 -->
<g id="edge7_Node000001_Node000008" class="edge">
<title>Node8&#45;&gt;Node1</title>
<g id="a_edge7_Node000001_Node000008"><a xlink:title=" ">
<path fill="none" stroke="#9a32cd" stroke-dasharray="5,2" d="M354.83,-179.69C402.69,-185.27 463.59,-195.08 515.75,-212 537.19,-218.95 560.04,-231.19 575.18,-240.05"/>
<polygon fill="#9a32cd" stroke="#9a32cd" points="355.41,-176.23 345.08,-178.59 354.63,-183.19 355.41,-176.23"/>
</a>
</g>
<text text-anchor="middle" x="440.75" y="-215" font-family="Helvetica,sans-Serif" font-size="10.00" fill="grey"> interrupt_vector_configuration</text>
</g>
<!-- Node9 -->
<g id="Node000009" class="node">
<title>Node9</title>
<g id="a_Node000009"><a xlink:href="unionspdk__nvme__feat__write__atomicity.html" target="_top" xlink:title="Data used by Set Features/Get Features SPDK_NVME_FEAT_WRITE_ATOMICITY.">
<polygon fill="white" stroke="#666666" points="334.62,-137.5 207.62,-137.5 207.62,-104 334.62,-104 334.62,-137.5"/>
<text text-anchor="start" x="215.62" y="-124" font-family="Helvetica,sans-Serif" font-size="10.00">spdk_nvme_feat_write</text>
<text text-anchor="middle" x="271.12" y="-111.25" font-family="Helvetica,sans-Serif" font-size="10.00">_atomicity</text>
</a>
</g>
</g>
<!-- Node9&#45;&gt;Node1 -->
<g id="edge8_Node000001_Node000009" class="edge">
<title>Node9&#45;&gt;Node1</title>
<g id="a_edge8_Node000001_Node000009"><a xlink:title=" ">
<path fill="none" stroke="#9a32cd" stroke-dasharray="5,2" d="M346.16,-121.33C396.78,-124.62 463.85,-134.89 515.75,-164 549.07,-182.69 575.21,-221.42 586.47,-240.15"/>
<polygon fill="#9a32cd" stroke="#9a32cd" points="346.66,-117.85 336.48,-120.78 346.27,-124.84 346.66,-117.85"/>
</a>
</g>
<text text-anchor="middle" x="440.75" y="-167" font-family="Helvetica,sans-Serif" font-size="10.00" fill="grey"> write_atomicity</text>
</g>
<!-- Node10 -->
<g id="Node000010" class="node">
<title>Node10</title>
<g id="a_Node000010"><a xlink:href="unionspdk__nvme__feat__async__event__configuration.html" target="_top" xlink:title="Data used by Set Features / Get Features SPDK_NVME_FEAT_ASYNC_EVENT_CONFIGURATION.">
<polygon fill="white" stroke="#666666" points="336.5,-85.5 205.75,-85.5 205.75,-52 336.5,-52 336.5,-85.5"/>
<text text-anchor="start" x="213.75" y="-72" font-family="Helvetica,sans-Serif" font-size="10.00">spdk_nvme_feat_async</text>
<text text-anchor="middle" x="271.12" y="-59.25" font-family="Helvetica,sans-Serif" font-size="10.00">_event_configuration</text>
</a>
</g>
</g>
<!-- Node10&#45;&gt;Node1 -->
<g id="edge9_Node000001_Node000010" class="edge">
<title>Node10&#45;&gt;Node1</title>
<g id="a_edge9_Node000001_Node000010"><a xlink:title=" ">
<path fill="none" stroke="#9a32cd" stroke-dasharray="5,2" d="M348.42,-63.4C400.06,-63.6 467.42,-71.68 515.75,-106 563.52,-139.93 584.11,-212.98 590.33,-240.22"/>
<polygon fill="#9a32cd" stroke="#9a32cd" points="348.47,-59.9 338.5,-63.48 348.53,-66.9 348.47,-59.9"/>
</a>
</g>
<text text-anchor="middle" x="440.75" y="-109" font-family="Helvetica,sans-Serif" font-size="10.00" fill="grey"> async_event_configuration</text>
</g>
<!-- Node11 -->
<g id="Node000011" class="node">
<title>Node11</title>
<g id="a_Node000011"><a xlink:href="unionspdk__nvme__critical__warning__state.html" target="_top" xlink:title=" ">
<polygon fill="white" stroke="#bfbfbf" points="110.5,-85.5 0,-85.5 0,-52 110.5,-52 110.5,-85.5"/>
<text text-anchor="start" x="8" y="-72" font-family="Helvetica,sans-Serif" font-size="10.00">spdk_nvme_critical</text>
<text text-anchor="middle" x="55.25" y="-59.25" font-family="Helvetica,sans-Serif" font-size="10.00">_warning_state</text>
</a>
</g>
</g>
<!-- Node11&#45;&gt;Node10 -->
<g id="edge10_Node000010_Node000011" class="edge">
<title>Node11&#45;&gt;Node10</title>
<g id="a_edge10_Node000010_Node000011"><a xlink:title=" ">
<path fill="none" stroke="#9a32cd" stroke-dasharray="5,2" d="M122.24,-68.75C148.7,-68.75 179.1,-68.75 205.43,-68.75"/>
<polygon fill="#9a32cd" stroke="#9a32cd" points="122.29,-65.25 112.29,-68.75 122.29,-72.25 122.29,-65.25"/>
</a>
</g>
<text text-anchor="middle" x="152.5" y="-72" font-family="Helvetica,sans-Serif" font-size="10.00" fill="grey"> crit_warn</text>
</g>
<!-- Node12 -->
<g id="Node000012" class="node">
<title>Node12</title>
<g id="a_Node000012"><a xlink:href="unionspdk__nvme__feat__keep__alive__timer.html" target="_top" xlink:title="Data used by Set Features/Get Features SPDK_NVME_FEAT_KEEP_ALIVE_TIMER.">
<polygon fill="white" stroke="#666666" points="333.88,-33.5 208.38,-33.5 208.38,0 333.88,0 333.88,-33.5"/>
<text text-anchor="start" x="216.38" y="-20" font-family="Helvetica,sans-Serif" font-size="10.00">spdk_nvme_feat_keep</text>
<text text-anchor="middle" x="271.12" y="-7.25" font-family="Helvetica,sans-Serif" font-size="10.00">_alive_timer</text>
</a>
</g>
</g>
<!-- Node12&#45;&gt;Node1 -->
<g id="edge11_Node000001_Node000012" class="edge">
<title>Node12&#45;&gt;Node1</title>
<g id="a_edge11_Node000001_Node000012"><a xlink:title=" ">
<path fill="none" stroke="#9a32cd" stroke-dasharray="5,2" d="M345.67,-7.51C398.39,-4.96 468.2,-10.46 515.75,-48 578.97,-97.91 590.13,-206.06 592.09,-240.2"/>
<polygon fill="#9a32cd" stroke="#9a32cd" points="345.64,-4 335.87,-8.09 346.06,-10.99 345.64,-4"/>
</a>
</g>
<text text-anchor="middle" x="440.75" y="-52" font-family="Helvetica,sans-Serif" font-size="10.00" fill="grey"> keep_alive_timer</text>
</g>
</g>
</svg>
