<?xml version="1.0" encoding="UTF-8" standalone="no"?>
<!DOCTYPE svg PUBLIC "-//W3C//DTD SVG 1.1//EN"
 "http://www.w3.org/Graphics/SVG/1.1/DTD/svg11.dtd">
<!-- Generated by graphviz version 9.0.0 (20230911.1827)
 -->
<!-- Title: spdk_bdev_io_internal_fields Pages: 1 -->
<!--zoomable 358 -->

<svg id="main" version="1.1" xmlns="http://www.w3.org/2000/svg" xmlns:xlink="http://www.w3.org/1999/xlink" xml:space="preserve" onload="init(evt)">
<style type="text/css"><![CDATA[
.node, .edge {opacity: 0.7;}
.node.selected, .edge.selected {opacity: 1;}
.edge:hover path { stroke: red; }
.edge:hover polygon { stroke: red; fill: red; }
]]></style>

<defs>
  <circle id="rim" cx="0" cy="0" r="7"/>
  <circle id="rim2" cx="0" cy="0" r="3.5"/>
  <g id="zoomPlus">
    <use xlink:href="#rim" fill="#404040"><set attributeName="fill" to="#808080" begin="zoomplus.mouseover" end="zoomplus.mouseout"/></use>
    <path d="M-4,0h8M0,-4v8" fill="none" stroke="white" stroke-width="1.5" pointer-events="none"/>
  </g>
  <g id="zoomMin">
    <use xlink:href="#rim" fill="#404040"><set attributeName="fill" to="#808080" begin="zoomminus.mouseover" end="zoomminus.mouseout"/></use>
    <path d="M-4,0h8" fill="none" stroke="white" stroke-width="1.5" pointer-events="none"/>
  </g>
  <g id="arrowUp" transform="translate(30 24)">
    <use xlink:href="#rim"/>
    <path pointer-events="none" fill="none" stroke="white" stroke-width="1.5" d="M0,-3.0v7 M-2.5,-0.5L0,-3.0L2.5,-0.5"/>
  </g>
  <g id="arrowRight" transform="rotate(90) translate(36 -43)">
    <use xlink:href="#rim"/>
    <path pointer-events="none" fill="none" stroke="white" stroke-width="1.5" d="M0,-3.0v7 M-2.5,-0.5L0,-3.0L2.5,-0.5"/>
  </g>
  <g id="arrowDown" transform="rotate(180) translate(-30 -48)">
    <use xlink:href="#rim"/>
    <path pointer-events="none" fill="none" stroke="white" stroke-width="1.5" d="M0,-3.0v7 M-2.5,-0.5L0,-3.0L2.5,-0.5"/>
  </g>
  <g id="arrowLeft" transform="rotate(270) translate(-36 17)">
    <use xlink:href="#rim"/>
    <path pointer-events="none" fill="none" stroke="white" stroke-width="1.5" d="M0,-3.0v7 M-2.5,-0.5L0,-3.0L2.5,-0.5"/>
  </g>
  <g id="resetDef">
    <use xlink:href="#rim2" fill="#404040"><set attributeName="fill" to="#808080" begin="reset.mouseover" end="reset.mouseout"/></use>
  </g>
</defs>
<script type="application/ecmascript">
var viewWidth = 949;
var viewHeight = 358;
var sectionId = 'dynsection-0';
</script>
<script type="application/ecmascript" xlink:href="svg.min.js"/>
<svg id="graph" class="graph">
<g id="viewport">
<title>spdk_bdev_io_internal_fields</title>
<!-- Node1 -->
<g id="Node000001" class="node">
<title>Node1</title>
<g id="a_Node000001"><a xlink:title="Fields that are used internally by the bdev subsystem.">
<polygon fill="#999999" stroke="#666666" points="512.25,-253.5 386.75,-253.5 386.75,-220 512.25,-220 512.25,-253.5"/>
<text text-anchor="start" x="394.75" y="-240" font-family="Helvetica,sans-Serif" font-size="10.00">spdk_bdev_io_internal</text>
<text text-anchor="middle" x="449.5" y="-227.25" font-family="Helvetica,sans-Serif" font-size="10.00">_fields</text>
</a>
</g>
</g>
<!-- Node2 -->
<g id="Node000002" class="node">
<title>Node2</title>
<g id="a_Node000002"><a xlink:href="structspdk__bdev__io.html" target="_top" xlink:title=" ">
<polygon fill="white" stroke="#bfbfbf" points="727.75,-167.12 645,-167.12 645,-146.38 727.75,-146.38 727.75,-167.12"/>
<text text-anchor="middle" x="686.38" y="-153.62" font-family="Helvetica,sans-Serif" font-size="10.00">spdk_bdev_io</text>
</a>
</g>
</g>
<!-- Node1&#45;&gt;Node2 -->
<g id="edge9_Node000002_Node000001" class="edge">
<title>Node1&#45;&gt;Node2</title>
<g id="a_edge9_Node000002_Node000001"><a xlink:title=" ">
<path fill="none" stroke="#9a32cd" stroke-dasharray="5,2" d="M520.37,-256C554.41,-261.5 594.83,-262.02 627,-244.75 658.02,-228.1 675.34,-186.93 682.07,-167.38"/>
<polygon fill="#9a32cd" stroke="#9a32cd" points="521.05,-252.56 510.58,-254.23 519.8,-259.45 521.05,-252.56"/>
</a>
</g>
<text text-anchor="middle" x="588" y="-262" font-family="Helvetica,sans-Serif" font-size="10.00" fill="grey"> internal</text>
</g>
<!-- Node2&#45;&gt;Node1 -->
<g id="edge1_Node000001_Node000002" class="edge">
<title>Node2&#45;&gt;Node1</title>
<g id="a_edge1_Node000001_Node000002"><a xlink:title=" ">
<path fill="none" stroke="#9a32cd" stroke-dasharray="5,2" d="M633.61,-169.96C601.98,-178.19 564.68,-188.23 549,-193.75 527.88,-201.18 504.91,-211.09 486.48,-219.53"/>
<polygon fill="#9a32cd" stroke="#9a32cd" points="634.25,-173.41 643.05,-167.51 632.49,-166.63 634.25,-173.41"/>
</a>
</g>
<text text-anchor="middle" x="588" y="-235.25" font-family="Helvetica,sans-Serif" font-size="10.00" fill="grey"> cb</text>
<text text-anchor="middle" x="588" y="-222.5" font-family="Helvetica,sans-Serif" font-size="10.00" fill="grey">get_aux_buf_cb</text>
<text text-anchor="middle" x="588" y="-209.75" font-family="Helvetica,sans-Serif" font-size="10.00" fill="grey">get_buf_cb</text>
<text text-anchor="middle" x="588" y="-197" font-family="Helvetica,sans-Serif" font-size="10.00" fill="grey">stored_user_cb</text>
</g>
<!-- Node21 -->
<g id="Node000021" class="node">
<title>Node21</title>
<g id="a_Node000021"><a xlink:href="structspdk__bdev__io__abort__params.html" target="_top" xlink:title=" ">
<polygon fill="white" stroke="#bfbfbf" points="941,-173.5 827.5,-173.5 827.5,-140 941,-140 941,-173.5"/>
<text text-anchor="start" x="835.5" y="-160" font-family="Helvetica,sans-Serif" font-size="10.00">spdk_bdev_io_abort</text>
<text text-anchor="middle" x="884.25" y="-147.25" font-family="Helvetica,sans-Serif" font-size="10.00">_params</text>
</a>
</g>
</g>
<!-- Node2&#45;&gt;Node21 -->
<g id="edge6_Node000021_Node000002" class="edge">
<title>Node2&#45;&gt;Node21</title>
<g id="a_edge6_Node000021_Node000002"><a xlink:title=" ">
<path fill="none" stroke="#9a32cd" stroke-dasharray="5,2" d="M739.16,-156.75C766.24,-156.75 799.43,-156.75 827.12,-156.75"/>
<polygon fill="#9a32cd" stroke="#9a32cd" points="739.47,-153.25 729.47,-156.75 739.47,-160.25 739.47,-153.25"/>
</a>
</g>
<text text-anchor="middle" x="777.62" y="-160" font-family="Helvetica,sans-Serif" font-size="10.00" fill="grey"> bio_to_abort</text>
</g>
<!-- Node3 -->
<g id="Node000003" class="node">
<title>Node3</title>
<g id="a_Node000003"><a xlink:href="structspdk__bdev.html" target="_top" xlink:title=" ">
<polygon fill="white" stroke="orangered" points="68.5,-286.12 0,-286.12 0,-265.38 68.5,-265.38 68.5,-286.12"/>
<text text-anchor="middle" x="34.25" y="-272.62" font-family="Helvetica,sans-Serif" font-size="10.00">spdk_bdev</text>
</a>
</g>
</g>
<!-- Node3&#45;&gt;Node2 -->
<g id="edge2_Node000002_Node000003" class="edge">
<title>Node3&#45;&gt;Node2</title>
<g id="a_edge2_Node000002_Node000003"><a xlink:title=" ">
<path fill="none" stroke="#9a32cd" stroke-dasharray="5,2" d="M77.94,-289.98C181.49,-321.7 450.44,-387 627,-275.75 666.13,-251.09 679.8,-191.8 683.87,-167.45"/>
<polygon fill="#9a32cd" stroke="#9a32cd" points="79.04,-286.66 68.45,-287.02 76.96,-293.34 79.04,-286.66"/>
</a>
</g>
<text text-anchor="middle" x="319.62" y="-340" font-family="Helvetica,sans-Serif" font-size="10.00" fill="grey"> bdev</text>
</g>
<!-- Node51 -->
<g id="Node000051" class="node">
<title>Node51</title>
<g id="a_Node000051"><a xlink:href="structspdk__bdev__io__wait__entry.html" target="_top" xlink:title="Structure to register a callback when an spdk_bdev_io becomes available.">
<polygon fill="white" stroke="#666666" points="271.25,-267.12 131.5,-267.12 131.5,-246.38 271.25,-246.38 271.25,-267.12"/>
<text text-anchor="middle" x="201.38" y="-253.62" font-family="Helvetica,sans-Serif" font-size="10.00">spdk_bdev_io_wait_entry</text>
</a>
</g>
</g>
<!-- Node3&#45;&gt;Node51 -->
<g id="edge13_Node000051_Node000003" class="edge">
<title>Node3&#45;&gt;Node51</title>
<g id="a_edge13_Node000051_Node000003"><a xlink:title=" ">
<path fill="none" stroke="#9a32cd" stroke-dasharray="5,2" d="M80.23,-268.81C82.35,-268.53 84.45,-268.26 86.5,-268 100.89,-266.2 116.33,-264.52 131.06,-263.02"/>
<polygon fill="#9a32cd" stroke="#9a32cd" points="79.76,-265.35 70.35,-270.2 80.74,-272.28 79.76,-265.35"/>
</a>
</g>
<text text-anchor="middle" x="100" y="-271" font-family="Helvetica,sans-Serif" font-size="10.00" fill="grey"> bdev</text>
</g>
<!-- Node15 -->
<g id="Node000015" class="node">
<title>Node15</title>
<g id="a_Node000015"><a xlink:href="structspdk__bdev__io__block__params.html" target="_top" xlink:title=" ">
<polygon fill="white" stroke="orangered" points="506.62,-189.5 392.38,-189.5 392.38,-156 506.62,-156 506.62,-189.5"/>
<text text-anchor="start" x="400.38" y="-176" font-family="Helvetica,sans-Serif" font-size="10.00">spdk_bdev_io_block</text>
<text text-anchor="middle" x="449.5" y="-163.25" font-family="Helvetica,sans-Serif" font-size="10.00">_params</text>
</a>
</g>
</g>
<!-- Node15&#45;&gt;Node2 -->
<g id="edge3_Node000002_Node000015" class="edge">
<title>Node15&#45;&gt;Node2</title>
<g id="a_edge3_Node000002_Node000015"><a xlink:title=" ">
<path fill="none" stroke="#9a32cd" stroke-dasharray="5,2" d="M518.5,-161.3C528.7,-159.96 539.11,-158.78 549,-158 581.1,-155.46 617.58,-155.27 644.73,-155.64"/>
<polygon fill="#9a32cd" stroke="#9a32cd" points="518.04,-157.83 508.62,-162.68 519.01,-164.77 518.04,-157.83"/>
</a>
</g>
<text text-anchor="middle" x="588" y="-161" font-family="Helvetica,sans-Serif" font-size="10.00" fill="grey"> bdev</text>
</g>
<!-- Node20 -->
<g id="Node000020" class="node">
<title>Node20</title>
<g id="a_Node000020"><a xlink:href="structspdk__bdev__io__reset__params.html" target="_top" xlink:title=" ">
<polygon fill="white" stroke="#bfbfbf" points="505.88,-137.5 393.12,-137.5 393.12,-104 505.88,-104 505.88,-137.5"/>
<text text-anchor="start" x="401.12" y="-124" font-family="Helvetica,sans-Serif" font-size="10.00">spdk_bdev_io_reset</text>
<text text-anchor="middle" x="449.5" y="-111.25" font-family="Helvetica,sans-Serif" font-size="10.00">_params</text>
</a>
</g>
</g>
<!-- Node20&#45;&gt;Node2 -->
<g id="edge4_Node000002_Node000020" class="edge">
<title>Node20&#45;&gt;Node2</title>
<g id="a_edge4_Node000002_Node000020"><a xlink:title=" ">
<path fill="none" stroke="#9a32cd" stroke-dasharray="5,2" d="M517.62,-123.93C550.79,-126.36 591.27,-130.6 627,-138 636.59,-139.98 646.83,-142.96 656.01,-145.97"/>
<polygon fill="#9a32cd" stroke="#9a32cd" points="517.93,-120.45 507.72,-123.25 517.45,-127.43 517.93,-120.45"/>
</a>
</g>
<text text-anchor="middle" x="588" y="-141" font-family="Helvetica,sans-Serif" font-size="10.00" fill="grey"> reset</text>
</g>
<!-- Node21&#45;&gt;Node2 -->
<g id="edge5_Node000002_Node000021" class="edge">
<title>Node21&#45;&gt;Node2</title>
<g id="a_edge5_Node000002_Node000021"><a xlink:title=" ">
<path fill="none" stroke="#9a32cd" stroke-dasharray="5,2" d="M815.76,-140.79C813.65,-140.5 811.56,-140.23 809.5,-140 781.34,-136.84 773.81,-136.05 745.75,-140 736.98,-141.23 727.68,-143.46 719.14,-145.9"/>
<polygon fill="#9a32cd" stroke="#9a32cd" points="815.17,-144.25 825.6,-142.4 816.3,-137.34 815.17,-144.25"/>
</a>
</g>
<text text-anchor="middle" x="777.62" y="-143" font-family="Helvetica,sans-Serif" font-size="10.00" fill="grey"> abort</text>
</g>
<!-- Node22 -->
<g id="Node000022" class="node">
<title>Node22</title>
<g id="a_Node000022"><a xlink:href="structspdk__bdev__io__nvme__passthru__params.html" target="_top" xlink:title=" ">
<polygon fill="white" stroke="orangered" points="531,-85.5 368,-85.5 368,-52 531,-52 531,-85.5"/>
<text text-anchor="start" x="376" y="-72" font-family="Helvetica,sans-Serif" font-size="10.00">spdk_bdev_io_nvme_passthru</text>
<text text-anchor="middle" x="449.5" y="-59.25" font-family="Helvetica,sans-Serif" font-size="10.00">_params</text>
</a>
</g>
</g>
<!-- Node22&#45;&gt;Node2 -->
<g id="edge7_Node000002_Node000022" class="edge">
<title>Node22&#45;&gt;Node2</title>
<g id="a_edge7_Node000002_Node000022"><a xlink:title=" ">
<path fill="none" stroke="#9a32cd" stroke-dasharray="5,2" d="M542.39,-81.36C570.47,-87.39 600.83,-96.2 627,-109 646.05,-118.32 664.37,-134.97 675.25,-145.93"/>
<polygon fill="#9a32cd" stroke="#9a32cd" points="543.32,-77.98 532.82,-79.41 541.92,-84.84 543.32,-77.98"/>
</a>
</g>
<text text-anchor="middle" x="588" y="-112" font-family="Helvetica,sans-Serif" font-size="10.00" fill="grey"> nvme_passthru</text>
</g>
<!-- Node49 -->
<g id="Node000049" class="node">
<title>Node49</title>
<g id="a_Node000049"><a xlink:href="structspdk__bdev__io__zone__mgmt__params.html" target="_top" xlink:title=" ">
<polygon fill="white" stroke="#bfbfbf" points="522.38,-33.5 376.62,-33.5 376.62,0 522.38,0 522.38,-33.5"/>
<text text-anchor="start" x="384.62" y="-20" font-family="Helvetica,sans-Serif" font-size="10.00">spdk_bdev_io_zone_mgmt</text>
<text text-anchor="middle" x="449.5" y="-7.25" font-family="Helvetica,sans-Serif" font-size="10.00">_params</text>
</a>
</g>
</g>
<!-- Node49&#45;&gt;Node2 -->
<g id="edge8_Node000002_Node000049" class="edge">
<title>Node49&#45;&gt;Node2</title>
<g id="a_edge8_Node000002_Node000049"><a xlink:title=" ">
<path fill="none" stroke="#9a32cd" stroke-dasharray="5,2" d="M533.73,-27.13C565.23,-34.19 599.98,-46.06 627,-66 655.64,-87.13 673.92,-126.88 681.45,-145.98"/>
<polygon fill="#9a32cd" stroke="#9a32cd" points="534.72,-23.76 524.22,-25.14 533.29,-30.61 534.72,-23.76"/>
</a>
</g>
<text text-anchor="middle" x="588" y="-69" font-family="Helvetica,sans-Serif" font-size="10.00" fill="grey"> zone_mgmt</text>
</g>
<!-- Node50 -->
<g id="Node000050" class="node">
<title>Node50</title>
<g id="a_Node000050"><a xlink:href="structspdk__iobuf__entry.html" target="_top" xlink:title="iobuf queue entry">
<polygon fill="white" stroke="#666666" points="251.38,-197.12 151.38,-197.12 151.38,-176.38 251.38,-176.38 251.38,-197.12"/>
<text text-anchor="middle" x="201.38" y="-183.62" font-family="Helvetica,sans-Serif" font-size="10.00">spdk_iobuf_entry</text>
</a>
</g>
</g>
<!-- Node50&#45;&gt;Node1 -->
<g id="edge10_Node000001_Node000050" class="edge">
<title>Node50&#45;&gt;Node1</title>
<g id="a_edge10_Node000001_Node000050"><a xlink:title=" ">
<path fill="none" stroke="#9a32cd" stroke-dasharray="5,2" d="M262.42,-198.95C300.13,-206.61 348.65,-216.47 386.69,-224.19"/>
<polygon fill="#9a32cd" stroke="#9a32cd" points="263.57,-195.61 253.07,-197.05 262.18,-202.47 263.57,-195.61"/>
</a>
</g>
<text text-anchor="middle" x="319.62" y="-219" font-family="Helvetica,sans-Serif" font-size="10.00" fill="grey"> iobuf</text>
</g>
<!-- Node50&#45;&gt;Node50 -->
<g id="edge11_Node000050_Node000050" class="edge">
<title>Node50&#45;&gt;Node50</title>
<g id="a_edge11_Node000050_Node000050"><a xlink:title=" ">
<path fill="none" stroke="#9a32cd" stroke-dasharray="5,2" d="M183.75,-208.94C186.24,-212.6 192.12,-215.12 201.38,-215.12 218.8,-215.12 224.24,-206.18 217.71,-197.52"/>
<polygon fill="#9a32cd" stroke="#9a32cd" points="187.22,-209.36 184.87,-199.03 180.27,-208.57 187.22,-209.36"/>
</a>
</g>
<text text-anchor="middle" x="201.38" y="-218.38" font-family="Helvetica,sans-Serif" font-size="10.00" fill="grey"> cb_fn</text>
</g>
<!-- Node51&#45;&gt;Node1 -->
<g id="edge12_Node000001_Node000051" class="edge">
<title>Node51&#45;&gt;Node1</title>
<g id="a_edge12_Node000001_Node000051"><a xlink:title=" ">
<path fill="none" stroke="#9a32cd" stroke-dasharray="5,2" d="M282.81,-250.21C316.51,-247.48 355.08,-244.34 386.52,-241.79"/>
<polygon fill="#9a32cd" stroke="#9a32cd" points="282.78,-246.7 273.1,-251 283.35,-253.68 282.78,-246.7"/>
</a>
</g>
<text text-anchor="middle" x="319.62" y="-252" font-family="Helvetica,sans-Serif" font-size="10.00" fill="grey"> waitq_entry</text>
</g>
</g>
</svg>

<g id="navigator" transform="translate(0 0)" fill="#404254">
  <rect fill="#f2f5e9" fill-opacity="0.5" stroke="#606060" stroke-width=".5" x="0" y="0" width="60" height="60"/>
  <use id="zoomplus" xlink:href="#zoomPlus" x="17" y="9" onmousedown="handleZoom(evt,'in')"/>
  <use id="zoomminus" xlink:href="#zoomMin" x="42" y="9" onmousedown="handleZoom(evt,'out')"/>
  <use id="reset" xlink:href="#resetDef" x="30" y="36" onmousedown="handleReset()"/>
   <use id="arrowup" xlink:href="#arrowUp" x="0" y="0" onmousedown="handlePan(0,-1)"/>
  <use id="arrowright" xlink:href="#arrowRight" x="0" y="0" onmousedown="handlePan(1,0)"/>
  <use id="arrowdown" xlink:href="#arrowDown" x="0" y="0" onmousedown="handlePan(0,1)"/>
  <use id="arrowleft" xlink:href="#arrowLeft" x="0" y="0" onmousedown="handlePan(-1,0)"/>
</g>
<svg viewBox="0 0 15 15" width="100%" height="30px" preserveAspectRatio="xMaxYMin meet">
 <g id="arrow_out" transform="scale(0.3 0.3)">
  <a xlink:href="structspdk__bdev__io__internal__fields__coll__graph_org.svg" target="_base">
   <rect id="button" ry="5" rx="5" y="6" x="6" height="38" width="38"
        fill="#f2f5e9" fill-opacity="0.5" stroke="#606060" stroke-width="1.0"/>
   <path id="arrow"
     d="M 11.500037,31.436501 C 11.940474,20.09759 22.043105,11.32322 32.158766,21.979434 L 37.068811,17.246167 C 37.068811,17.246167 37.088388,32 37.088388,32 L 22.160133,31.978069 C 22.160133,31.978069 26.997745,27.140456 26.997745,27.140456 C 18.528582,18.264221 13.291696,25.230495 11.500037,31.436501 z"
     style="fill:#404040;"/>
  </a>
 </g>
</svg>

<style type='text/css'>
<![CDATA[
[data-mouse-over-selected='false'] { opacity: 0.7; }
[data-mouse-over-selected='true']  { opacity: 1.0; }
]]>
</style>
<script type="application/ecmascript"><![CDATA[
document.addEventListener('DOMContentLoaded', (event) => {
  highlightEdges();
  highlightAdjacentNodes();
});
]]></script>
</svg>
