<?xml version="1.0" encoding="UTF-8" standalone="no"?>
<!DOCTYPE svg PUBLIC "-//W3C//DTD SVG 1.1//EN"
 "http://www.w3.org/Graphics/SVG/1.1/DTD/svg11.dtd">
<!-- Generated by graphviz version 9.0.0 (20230911.1827)
 -->
<!-- Title: spdk_nvme_ns_data Pages: 1 -->
<svg width="470pt" height="98pt"
 viewBox="0.00 0.00 469.75 98.25" xmlns="http://www.w3.org/2000/svg" xmlns:xlink="http://www.w3.org/1999/xlink">

<svg id="main" version="1.1" xmlns="http://www.w3.org/2000/svg" xmlns:xlink="http://www.w3.org/1999/xlink" xml:space="preserve" onload="init(evt)">
<style type="text/css"><![CDATA[
.node, .edge {opacity: 0.7;}
.node.selected, .edge.selected {opacity: 1;}
.edge:hover path { stroke: red; }
.edge:hover polygon { stroke: red; fill: red; }
]]></style>
<script type="application/ecmascript" xlink:href="svg.min.js"/>
<svg id="graph" class="graph">
<g id="graph0" class="graph" transform="scale(1 1) rotate(0) translate(4 94.25)">
<title>spdk_nvme_ns_data</title>
<!-- Node1 -->
<g id="Node000001" class="node">
<title>Node1</title>
<g id="a_Node000001"><a xlink:title=" ">
<polygon fill="#999999" stroke="#666666" points="291.62,-20.75 175.88,-20.75 175.88,0 291.62,0 291.62,-20.75"/>
<text text-anchor="middle" x="233.75" y="-7.25" font-family="Helvetica,sans-Serif" font-size="10.00">spdk_nvme_ns_data</text>
</a>
</g>
</g>
<!-- Node2 -->
<g id="Node000002" class="node">
<title>Node2</title>
<g id="a_Node000002"><a xlink:href="structspdk__nvme__nmic.html" target="_top" xlink:title=" ">
<polygon fill="white" stroke="#bfbfbf" points="101.5,-90.25 0,-90.25 0,-69.5 101.5,-69.5 101.5,-90.25"/>
<text text-anchor="middle" x="50.75" y="-76.75" font-family="Helvetica,sans-Serif" font-size="10.00">spdk_nvme_nmic</text>
</a>
</g>
</g>
<!-- Node2&#45;&gt;Node1 -->
<g id="edge1_Node000001_Node000002" class="edge">
<title>Node2&#45;&gt;Node1</title>
<g id="a_edge1_Node000001_Node000002"><a xlink:title=" ">
<path fill="none" stroke="#9a32cd" stroke-dasharray="5,2" d="M87.75,-65.23C123.14,-52.17 175.65,-32.8 207.11,-21.2"/>
<polygon fill="#9a32cd" stroke="#9a32cd" points="86.95,-61.79 78.78,-68.54 89.37,-68.36 86.95,-61.79"/>
</a>
</g>
<text text-anchor="middle" x="172.25" y="-42" font-family="Helvetica,sans-Serif" font-size="10.00" fill="grey"> nmic</text>
</g>
<!-- Node3 -->
<g id="Node000003" class="node">
<title>Node3</title>
<g id="a_Node000003"><a xlink:href="structspdk__nvme__rescap.html" target="_top" xlink:title=" ">
<polygon fill="white" stroke="#bfbfbf" points="229.62,-90.25 119.88,-90.25 119.88,-69.5 229.62,-69.5 229.62,-90.25"/>
<text text-anchor="middle" x="174.75" y="-76.75" font-family="Helvetica,sans-Serif" font-size="10.00">spdk_nvme_rescap</text>
</a>
</g>
</g>
<!-- Node3&#45;&gt;Node1 -->
<g id="edge2_Node000001_Node000003" class="edge">
<title>Node3&#45;&gt;Node1</title>
<g id="a_edge2_Node000001_Node000003"><a xlink:title=" ">
<path fill="none" stroke="#9a32cd" stroke-dasharray="5,2" d="M190.62,-60.72C201.79,-47.94 216.29,-31.35 225.31,-21.03"/>
<polygon fill="#9a32cd" stroke="#9a32cd" points="188.15,-58.23 184.2,-68.06 193.42,-62.84 188.15,-58.23"/>
</a>
</g>
<text text-anchor="middle" x="227.38" y="-42" font-family="Helvetica,sans-Serif" font-size="10.00" fill="grey"> rescap</text>
</g>
<!-- Node4 -->
<g id="Node000004" class="node">
<title>Node4</title>
<g id="a_Node000004"><a xlink:href="structspdk__nvme__fpi.html" target="_top" xlink:title=" ">
<polygon fill="white" stroke="#bfbfbf" points="337.88,-90.25 247.62,-90.25 247.62,-69.5 337.88,-69.5 337.88,-90.25"/>
<text text-anchor="middle" x="292.75" y="-76.75" font-family="Helvetica,sans-Serif" font-size="10.00">spdk_nvme_fpi</text>
</a>
</g>
</g>
<!-- Node4&#45;&gt;Node1 -->
<g id="edge3_Node000001_Node000004" class="edge">
<title>Node4&#45;&gt;Node1</title>
<g id="a_edge3_Node000001_Node000004"><a xlink:title=" ">
<path fill="none" stroke="#9a32cd" stroke-dasharray="5,2" d="M276.88,-60.72C265.71,-47.94 251.21,-31.35 242.19,-21.03"/>
<polygon fill="#9a32cd" stroke="#9a32cd" points="274.08,-62.84 283.3,-68.06 279.35,-58.23 274.08,-62.84"/>
</a>
</g>
<text text-anchor="middle" x="275.62" y="-42" font-family="Helvetica,sans-Serif" font-size="10.00" fill="grey"> fpi</text>
</g>
<!-- Node5 -->
<g id="Node000005" class="node">
<title>Node5</title>
<g id="a_Node000005"><a xlink:href="structspdk__nvme__nsattr.html" target="_top" xlink:title=" ">
<polygon fill="white" stroke="#bfbfbf" points="461.75,-90.25 355.75,-90.25 355.75,-69.5 461.75,-69.5 461.75,-90.25"/>
<text text-anchor="middle" x="408.75" y="-76.75" font-family="Helvetica,sans-Serif" font-size="10.00">spdk_nvme_nsattr</text>
</a>
</g>
</g>
<!-- Node5&#45;&gt;Node1 -->
<g id="edge4_Node000001_Node000005" class="edge">
<title>Node5&#45;&gt;Node1</title>
<g id="a_edge4_Node000001_Node000005"><a xlink:title=" ">
<path fill="none" stroke="#9a32cd" stroke-dasharray="5,2" d="M372.93,-65.06C339.09,-52.01 289.18,-32.75 259.23,-21.2"/>
<polygon fill="#9a32cd" stroke="#9a32cd" points="371.3,-68.18 381.89,-68.52 373.82,-61.65 371.3,-68.18"/>
</a>
</g>
<text text-anchor="middle" x="352.5" y="-42" font-family="Helvetica,sans-Serif" font-size="10.00" fill="grey"> nsattr</text>
</g>
</g>
</svg>
</svg>

<style type='text/css'>
<![CDATA[
[data-mouse-over-selected='false'] { opacity: 0.7; }
[data-mouse-over-selected='true']  { opacity: 1.0; }
]]>
</style>
<script type="application/ecmascript"><![CDATA[
document.addEventListener('DOMContentLoaded', (event) => {
  highlightEdges();
  highlightAdjacentNodes();
});
]]></script>
</svg>
