<?xml version="1.0" encoding="UTF-8" standalone="no"?>
<!DOCTYPE svg PUBLIC "-//W3C//DTD SVG 1.1//EN"
 "http://www.w3.org/Graphics/SVG/1.1/DTD/svg11.dtd">
<!-- Generated by graphviz version 9.0.0 (20230911.1827)
 -->
<!-- Title: spdk_lvs_opts Pages: 1 -->
<svg width="159pt" height="168pt"
 viewBox="0.00 0.00 158.50 167.75" xmlns="http://www.w3.org/2000/svg" xmlns:xlink="http://www.w3.org/1999/xlink">
<g id="graph0" class="graph" transform="scale(1 1) rotate(0) translate(4 163.75)">
<title>spdk_lvs_opts</title>
<!-- Node1 -->
<g id="Node000001" class="node">
<title>Node1</title>
<g id="a_Node000001"><a xlink:title="Parameters for lvolstore initialization.">
<polygon fill="#999999" stroke="#666666" points="85,-20.75 0,-20.75 0,0 85,0 85,-20.75"/>
<text text-anchor="middle" x="42.5" y="-7.25" font-family="Helvetica,sans-Serif" font-size="10.00">spdk_lvs_opts</text>
</a>
</g>
</g>
<!-- Node2 -->
<g id="Node000002" class="node">
<title>Node2</title>
<g id="a_Node000002"><a xlink:href="structspdk__bs__dev.html" target="_top" xlink:title=" ">
<polygon fill="white" stroke="#bfbfbf" points="82,-90.25 3,-90.25 3,-69.5 82,-69.5 82,-90.25"/>
<text text-anchor="middle" x="42.5" y="-76.75" font-family="Helvetica,sans-Serif" font-size="10.00">spdk_bs_dev</text>
</a>
</g>
</g>
<!-- Node2&#45;&gt;Node1 -->
<g id="edge1_Node000001_Node000002" class="edge">
<title>Node2&#45;&gt;Node1</title>
<g id="a_edge1_Node000001_Node000002"><a xlink:title=" ">
<path fill="none" stroke="#9a32cd" stroke-dasharray="5,2" d="M42.5,-58.07C42.5,-45.72 42.5,-30.65 42.5,-21.03"/>
<polygon fill="#9a32cd" stroke="#9a32cd" points="39,-57.69 42.5,-67.69 46,-57.69 39,-57.69"/>
</a>
</g>
<text text-anchor="middle" x="96.5" y="-42" font-family="Helvetica,sans-Serif" font-size="10.00" fill="grey"> esnap_bs_dev_create</text>
</g>
<!-- Node3 -->
<g id="Node000003" class="node">
<title>Node3</title>
<g id="a_Node000003"><a xlink:href="structspdk__bdev.html" target="_top" xlink:title=" ">
<polygon fill="white" stroke="orangered" points="76.75,-159.75 8.25,-159.75 8.25,-139 76.75,-139 76.75,-159.75"/>
<text text-anchor="middle" x="42.5" y="-146.25" font-family="Helvetica,sans-Serif" font-size="10.00">spdk_bdev</text>
</a>
</g>
</g>
<!-- Node3&#45;&gt;Node2 -->
<g id="edge2_Node000002_Node000003" class="edge">
<title>Node3&#45;&gt;Node2</title>
<g id="a_edge2_Node000002_Node000003"><a xlink:title=" ">
<path fill="none" stroke="#9a32cd" stroke-dasharray="5,2" d="M42.5,-127.57C42.5,-115.22 42.5,-100.15 42.5,-90.53"/>
<polygon fill="#9a32cd" stroke="#9a32cd" points="39,-127.19 42.5,-137.19 46,-127.19 39,-127.19"/>
</a>
</g>
<text text-anchor="middle" x="80.75" y="-111.5" font-family="Helvetica,sans-Serif" font-size="10.00" fill="grey"> get_base_bdev</text>
</g>
</g>
</svg>
