<?xml version="1.0" encoding="UTF-8" standalone="no"?>
<!DOCTYPE svg PUBLIC "-//W3C//DTD SVG 1.1//EN"
 "http://www.w3.org/Graphics/SVG/1.1/DTD/svg11.dtd">
<!-- Generated by graphviz version 9.0.0 (20230911.1827)
 -->
<!-- Title: spdk_nvme_kv_ns_data Pages: 1 -->
<!--zoomable 224 -->

<svg id="main" version="1.1" xmlns="http://www.w3.org/2000/svg" xmlns:xlink="http://www.w3.org/1999/xlink" xml:space="preserve" onload="init(evt)">
<style type="text/css"><![CDATA[
.node, .edge {opacity: 0.7;}
.node.selected, .edge.selected {opacity: 1;}
.edge:hover path { stroke: red; }
.edge:hover polygon { stroke: red; fill: red; }
]]></style>

<defs>
  <circle id="rim" cx="0" cy="0" r="7"/>
  <circle id="rim2" cx="0" cy="0" r="3.5"/>
  <g id="zoomPlus">
    <use xlink:href="#rim" fill="#404040"><set attributeName="fill" to="#808080" begin="zoomplus.mouseover" end="zoomplus.mouseout"/></use>
    <path d="M-4,0h8M0,-4v8" fill="none" stroke="white" stroke-width="1.5" pointer-events="none"/>
  </g>
  <g id="zoomMin">
    <use xlink:href="#rim" fill="#404040"><set attributeName="fill" to="#808080" begin="zoomminus.mouseover" end="zoomminus.mouseout"/></use>
    <path d="M-4,0h8" fill="none" stroke="white" stroke-width="1.5" pointer-events="none"/>
  </g>
  <g id="arrowUp" transform="translate(30 24)">
    <use xlink:href="#rim"/>
    <path pointer-events="none" fill="none" stroke="white" stroke-width="1.5" d="M0,-3.0v7 M-2.5,-0.5L0,-3.0L2.5,-0.5"/>
  </g>
  <g id="arrowRight" transform="rotate(90) translate(36 -43)">
    <use xlink:href="#rim"/>
    <path pointer-events="none" fill="none" stroke="white" stroke-width="1.5" d="M0,-3.0v7 M-2.5,-0.5L0,-3.0L2.5,-0.5"/>
  </g>
  <g id="arrowDown" transform="rotate(180) translate(-30 -48)">
    <use xlink:href="#rim"/>
    <path pointer-events="none" fill="none" stroke="white" stroke-width="1.5" d="M0,-3.0v7 M-2.5,-0.5L0,-3.0L2.5,-0.5"/>
  </g>
  <g id="arrowLeft" transform="rotate(270) translate(-36 17)">
    <use xlink:href="#rim"/>
    <path pointer-events="none" fill="none" stroke="white" stroke-width="1.5" d="M0,-3.0v7 M-2.5,-0.5L0,-3.0L2.5,-0.5"/>
  </g>
  <g id="resetDef">
    <use xlink:href="#rim2" fill="#404040"><set attributeName="fill" to="#808080" begin="reset.mouseover" end="reset.mouseout"/></use>
  </g>
</defs>
<script type="application/ecmascript">
var viewWidth = 505;
var viewHeight = 224;
var sectionId = 'dynsection-0';
</script>
<script type="application/ecmascript" xlink:href="svg.min.js"/>
<svg id="graph" class="graph">
<g id="viewport">
<title>spdk_nvme_kv_ns_data</title>
<!-- Node1 -->
<g id="Node000001" class="node">
<title>Node1</title>
<g id="a_Node000001"><a xlink:title=" ">
<polygon fill="#999999" stroke="#666666" points="497.25,-117.75 364.25,-117.75 364.25,-97 497.25,-97 497.25,-117.75"/>
<text text-anchor="middle" x="430.75" y="-104.25" font-family="Helvetica,sans-Serif" font-size="10.00">spdk_nvme_kv_ns_data</text>
</a>
</g>
</g>
<!-- Node2 -->
<g id="Node000002" class="node">
<title>Node2</title>
<g id="a_Node000002"><a xlink:href="structspdk__nvme__nmic.html" target="_top" xlink:title=" ">
<polygon fill="white" stroke="#bfbfbf" points="279.88,-215.75 178.38,-215.75 178.38,-195 279.88,-195 279.88,-215.75"/>
<text text-anchor="middle" x="229.12" y="-202.25" font-family="Helvetica,sans-Serif" font-size="10.00">spdk_nvme_nmic</text>
</a>
</g>
</g>
<!-- Node2&#45;&gt;Node1 -->
<g id="edge1_Node000001_Node000002" class="edge">
<title>Node2&#45;&gt;Node1</title>
<g id="a_edge1_Node000001_Node000002"><a xlink:title=" ">
<path fill="none" stroke="#9a32cd" stroke-dasharray="5,2" d="M277.17,-190.98C282.53,-189.17 287.9,-187.28 293,-185.38 317.15,-176.35 323.57,-174.62 346.25,-162.38 371.45,-148.77 398.86,-129.85 415.15,-118.12"/>
<polygon fill="#9a32cd" stroke="#9a32cd" points="276.09,-187.65 267.68,-194.09 278.28,-194.3 276.09,-187.65"/>
</a>
</g>
<text text-anchor="middle" x="328.62" y="-180.62" font-family="Helvetica,sans-Serif" font-size="10.00" fill="grey"> nmic</text>
</g>
<!-- Node3 -->
<g id="Node000003" class="node">
<title>Node3</title>
<g id="a_Node000003"><a xlink:href="structspdk__nvme__rescap.html" target="_top" xlink:title=" ">
<polygon fill="white" stroke="#bfbfbf" points="284,-176.75 174.25,-176.75 174.25,-156 284,-156 284,-176.75"/>
<text text-anchor="middle" x="229.12" y="-163.25" font-family="Helvetica,sans-Serif" font-size="10.00">spdk_nvme_rescap</text>
</a>
</g>
</g>
<!-- Node3&#45;&gt;Node1 -->
<g id="edge2_Node000001_Node000003" class="edge">
<title>Node3&#45;&gt;Node1</title>
<g id="a_edge2_Node000001_Node000003"><a xlink:title=" ">
<path fill="none" stroke="#9a32cd" stroke-dasharray="5,2" d="M284.22,-152.69C303.83,-147.53 326.11,-141.43 346.25,-135.38 363.82,-130.09 383.27,-123.61 398.97,-118.21"/>
<polygon fill="#9a32cd" stroke="#9a32cd" points="283.58,-149.24 274.79,-155.15 285.35,-156.01 283.58,-149.24"/>
</a>
</g>
<text text-anchor="middle" x="328.62" y="-148.62" font-family="Helvetica,sans-Serif" font-size="10.00" fill="grey"> rescap</text>
</g>
<!-- Node4 -->
<g id="Node000004" class="node">
<title>Node4</title>
<g id="a_Node000004"><a xlink:href="structspdk__nvme__fpi.html" target="_top" xlink:title=" ">
<polygon fill="white" stroke="#bfbfbf" points="274.25,-137.75 184,-137.75 184,-117 274.25,-117 274.25,-137.75"/>
<text text-anchor="middle" x="229.12" y="-124.25" font-family="Helvetica,sans-Serif" font-size="10.00">spdk_nvme_fpi</text>
</a>
</g>
</g>
<!-- Node4&#45;&gt;Node1 -->
<g id="edge3_Node000001_Node000004" class="edge">
<title>Node4&#45;&gt;Node1</title>
<g id="a_edge3_Node000001_Node000004"><a xlink:title=" ">
<path fill="none" stroke="#9a32cd" stroke-dasharray="5,2" d="M285.61,-121.82C309.9,-119.38 338.59,-116.51 363.96,-113.97"/>
<polygon fill="#9a32cd" stroke="#9a32cd" points="285.54,-118.31 275.93,-122.79 286.23,-125.27 285.54,-118.31"/>
</a>
</g>
<text text-anchor="middle" x="328.62" y="-121.62" font-family="Helvetica,sans-Serif" font-size="10.00" fill="grey"> fpi</text>
</g>
<!-- Node5 -->
<g id="Node000005" class="node">
<title>Node5</title>
<g id="a_Node000005"><a xlink:href="structspdk__nvme__kv__kvfc.html" target="_top" xlink:title="KV format capabilities.">
<polygon fill="white" stroke="#666666" points="287,-98.75 171.25,-98.75 171.25,-78 287,-78 287,-98.75"/>
<text text-anchor="middle" x="229.12" y="-85.25" font-family="Helvetica,sans-Serif" font-size="10.00">spdk_nvme_kv_kvfc</text>
</a>
</g>
</g>
<!-- Node5&#45;&gt;Node1 -->
<g id="edge4_Node000001_Node000005" class="edge">
<title>Node5&#45;&gt;Node1</title>
<g id="a_edge4_Node000001_Node000005"><a xlink:title=" ">
<path fill="none" stroke="#9a32cd" stroke-dasharray="5,2" d="M298.49,-89.3C314.21,-89.95 330.83,-90.99 346.25,-92.62 355.47,-93.6 365.21,-94.99 374.66,-96.53"/>
<polygon fill="#9a32cd" stroke="#9a32cd" points="298.87,-85.81 288.75,-88.95 298.61,-92.81 298.87,-85.81"/>
</a>
</g>
<text text-anchor="middle" x="328.62" y="-95.62" font-family="Helvetica,sans-Serif" font-size="10.00" fill="grey"> kvfc</text>
</g>
<!-- Node6 -->
<g id="Node000006" class="node">
<title>Node6</title>
<g id="a_Node000006"><a xlink:href="structspdk__nvme__nsattr.html" target="_top" xlink:title=" ">
<polygon fill="white" stroke="#bfbfbf" points="282.12,-59.75 176.12,-59.75 176.12,-39 282.12,-39 282.12,-59.75"/>
<text text-anchor="middle" x="229.12" y="-46.25" font-family="Helvetica,sans-Serif" font-size="10.00">spdk_nvme_nsattr</text>
</a>
</g>
</g>
<!-- Node6&#45;&gt;Node1 -->
<g id="edge5_Node000001_Node000006" class="edge">
<title>Node6&#45;&gt;Node1</title>
<g id="a_edge5_Node000001_Node000006"><a xlink:title=" ">
<path fill="none" stroke="#9a32cd" stroke-dasharray="5,2" d="M293.53,-59.73C310.8,-63.18 329.39,-67.48 346.25,-72.62 367.43,-79.08 390.61,-88.97 407.16,-96.55"/>
<polygon fill="#9a32cd" stroke="#9a32cd" points="294.37,-56.32 283.89,-57.87 293.05,-63.2 294.37,-56.32"/>
</a>
</g>
<text text-anchor="middle" x="328.62" y="-75.62" font-family="Helvetica,sans-Serif" font-size="10.00" fill="grey"> nsattr</text>
</g>
<!-- Node7 -->
<g id="Node000007" class="node">
<title>Node7</title>
<g id="a_Node000007"><a xlink:href="structspdk__nvme__kv__format.html" target="_top" xlink:title="KV Format data structure (16 bytes, per KV spec Figure 42)">
<polygon fill="white" stroke="#666666" points="293,-20.75 165.25,-20.75 165.25,0 293,0 293,-20.75"/>
<text text-anchor="middle" x="229.12" y="-7.25" font-family="Helvetica,sans-Serif" font-size="10.00">spdk_nvme_kv_format</text>
</a>
</g>
</g>
<!-- Node7&#45;&gt;Node1 -->
<g id="edge6_Node000001_Node000007" class="edge">
<title>Node7&#45;&gt;Node1</title>
<g id="a_edge6_Node000001_Node000007"><a xlink:title=" ">
<path fill="none" stroke="#9a32cd" stroke-dasharray="5,2" d="M287.95,-24.39C307.04,-30.06 328.03,-37.47 346.25,-46.62 373.8,-60.47 402.02,-83.14 417.58,-96.52"/>
<polygon fill="#9a32cd" stroke="#9a32cd" points="289,-21.05 278.43,-21.66 287.08,-27.78 289,-21.05"/>
</a>
</g>
<text text-anchor="middle" x="328.62" y="-49.62" font-family="Helvetica,sans-Serif" font-size="10.00" fill="grey"> kvf</text>
</g>
<!-- Node8 -->
<g id="Node000008" class="node">
<title>Node8</title>
<g id="a_Node000008"><a xlink:href="structspdk__nvme__kv__afo.html" target="_top" xlink:title="KV additional format options.">
<polygon fill="white" stroke="#666666" points="110.5,-20.75 0,-20.75 0,0 110.5,0 110.5,-20.75"/>
<text text-anchor="middle" x="55.25" y="-7.25" font-family="Helvetica,sans-Serif" font-size="10.00">spdk_nvme_kv_afo</text>
</a>
</g>
</g>
<!-- Node8&#45;&gt;Node7 -->
<g id="edge7_Node000007_Node000008" class="edge">
<title>Node8&#45;&gt;Node7</title>
<g id="a_edge7_Node000007_Node000008"><a xlink:title=" ">
<path fill="none" stroke="#9a32cd" stroke-dasharray="5,2" d="M121.75,-10.38C135.87,-10.38 150.77,-10.38 164.8,-10.38"/>
<polygon fill="#9a32cd" stroke="#9a32cd" points="122.15,-6.88 112.15,-10.38 122.15,-13.88 122.15,-6.88"/>
</a>
</g>
<text text-anchor="middle" x="137.88" y="-13.62" font-family="Helvetica,sans-Serif" font-size="10.00" fill="grey"> afo</text>
</g>
</g>
</svg>

<g id="navigator" transform="translate(0 0)" fill="#404254">
  <rect fill="#f2f5e9" fill-opacity="0.5" stroke="#606060" stroke-width=".5" x="0" y="0" width="60" height="60"/>
  <use id="zoomplus" xlink:href="#zoomPlus" x="17" y="9" onmousedown="handleZoom(evt,'in')"/>
  <use id="zoomminus" xlink:href="#zoomMin" x="42" y="9" onmousedown="handleZoom(evt,'out')"/>
  <use id="reset" xlink:href="#resetDef" x="30" y="36" onmousedown="handleReset()"/>
   <use id="arrowup" xlink:href="#arrowUp" x="0" y="0" onmousedown="handlePan(0,-1)"/>
  <use id="arrowright" xlink:href="#arrowRight" x="0" y="0" onmousedown="handlePan(1,0)"/>
  <use id="arrowdown" xlink:href="#arrowDown" x="0" y="0" onmousedown="handlePan(0,1)"/>
  <use id="arrowleft" xlink:href="#arrowLeft" x="0" y="0" onmousedown="handlePan(-1,0)"/>
</g>
<svg viewBox="0 0 15 15" width="100%" height="30px" preserveAspectRatio="xMaxYMin meet">
 <g id="arrow_out" transform="scale(0.3 0.3)">
  <a xlink:href="structspdk__nvme__kv__ns__data__coll__graph_org.svg" target="_base">
   <rect id="button" ry="5" rx="5" y="6" x="6" height="38" width="38"
        fill="#f2f5e9" fill-opacity="0.5" stroke="#606060" stroke-width="1.0"/>
   <path id="arrow"
     d="M 11.500037,31.436501 C 11.940474,20.09759 22.043105,11.32322 32.158766,21.979434 L 37.068811,17.246167 C 37.068811,17.246167 37.088388,32 37.088388,32 L 22.160133,31.978069 C 22.160133,31.978069 26.997745,27.140456 26.997745,27.140456 C 18.528582,18.264221 13.291696,25.230495 11.500037,31.436501 z"
     style="fill:#404040;"/>
  </a>
 </g>
</svg>

<style type='text/css'>
<![CDATA[
[data-mouse-over-selected='false'] { opacity: 0.7; }
[data-mouse-over-selected='true']  { opacity: 1.0; }
]]>
</style>
<script type="application/ecmascript"><![CDATA[
document.addEventListener('DOMContentLoaded', (event) => {
  highlightEdges();
  highlightAdjacentNodes();
});
]]></script>
</svg>
