<?xml version="1.0" encoding="UTF-8" standalone="no"?>
<!DOCTYPE svg PUBLIC "-//W3C//DTD SVG 1.1//EN"
 "http://www.w3.org/Graphics/SVG/1.1/DTD/svg11.dtd">
<!-- Generated by graphviz version 9.0.0 (20230911.1827)
 -->
<!-- Title: spdk_nvme_registers Pages: 1 -->
<svg width="373pt" height="653pt"
 viewBox="0.00 0.00 373.00 652.75" xmlns="http://www.w3.org/2000/svg" xmlns:xlink="http://www.w3.org/1999/xlink">
<g id="graph0" class="graph" transform="scale(1 1) rotate(0) translate(4 648.75)">
<title>spdk_nvme_registers</title>
<!-- Node1 -->
<g id="Node000001" class="node">
<title>Node1</title>
<g id="a_Node000001"><a xlink:title=" ">
<polygon fill="#999999" stroke="#666666" points="365,-332.75 244.75,-332.75 244.75,-312 365,-312 365,-332.75"/>
<text text-anchor="middle" x="304.88" y="-319.25" font-family="Helvetica,sans-Serif" font-size="10.00">spdk_nvme_registers</text>
</a>
</g>
</g>
<!-- Node2 -->
<g id="Node000002" class="node">
<title>Node2</title>
<g id="a_Node000002"><a xlink:href="unionspdk__nvme__cap__register.html" target="_top" xlink:title=" ">
<polygon fill="white" stroke="#bfbfbf" points="150.25,-644.75 12.75,-644.75 12.75,-624 150.25,-624 150.25,-644.75"/>
<text text-anchor="middle" x="81.5" y="-631.25" font-family="Helvetica,sans-Serif" font-size="10.00">spdk_nvme_cap_register</text>
</a>
</g>
</g>
<!-- Node2&#45;&gt;Node1 -->
<g id="edge1_Node000001_Node000002" class="edge">
<title>Node2&#45;&gt;Node1</title>
<g id="a_edge1_Node000001_Node000002"><a xlink:title=" ">
<path fill="none" stroke="#9a32cd" stroke-dasharray="5,2" d="M161.64,-631.52C185.16,-626.96 209.28,-618.08 226.75,-601.38 267.25,-562.65 295.71,-379.69 302.38,-333.16"/>
<polygon fill="#9a32cd" stroke="#9a32cd" points="161.33,-628.02 152.04,-633.12 162.48,-634.93 161.33,-628.02"/>
</a>
</g>
<text text-anchor="middle" x="203.88" y="-628.62" font-family="Helvetica,sans-Serif" font-size="10.00" fill="grey"> cap</text>
</g>
<!-- Node3 -->
<g id="Node000003" class="node">
<title>Node3</title>
<g id="a_Node000003"><a xlink:href="unionspdk__nvme__vs__register.html" target="_top" xlink:title=" ">
<polygon fill="white" stroke="#bfbfbf" points="147.25,-605.75 15.75,-605.75 15.75,-585 147.25,-585 147.25,-605.75"/>
<text text-anchor="middle" x="81.5" y="-592.25" font-family="Helvetica,sans-Serif" font-size="10.00">spdk_nvme_vs_register</text>
</a>
</g>
</g>
<!-- Node3&#45;&gt;Node1 -->
<g id="edge2_Node000001_Node000003" class="edge">
<title>Node3&#45;&gt;Node1</title>
<g id="a_edge2_Node000001_Node000003"><a xlink:title=" ">
<path fill="none" stroke="#9a32cd" stroke-dasharray="5,2" d="M158.72,-590.82C183.02,-585.87 208.34,-576.56 226.75,-559.38 295.23,-495.45 303.04,-370.14 303.82,-333"/>
<polygon fill="#9a32cd" stroke="#9a32cd" points="158.37,-587.33 149.14,-592.53 159.6,-594.22 158.37,-587.33"/>
</a>
</g>
<text text-anchor="middle" x="203.88" y="-587.62" font-family="Helvetica,sans-Serif" font-size="10.00" fill="grey"> vs</text>
</g>
<!-- Node4 -->
<g id="Node000004" class="node">
<title>Node4</title>
<g id="a_Node000004"><a xlink:href="unionspdk__nvme__cc__register.html" target="_top" xlink:title=" ">
<polygon fill="white" stroke="#bfbfbf" points="146.88,-566.75 16.12,-566.75 16.12,-546 146.88,-546 146.88,-566.75"/>
<text text-anchor="middle" x="81.5" y="-553.25" font-family="Helvetica,sans-Serif" font-size="10.00">spdk_nvme_cc_register</text>
</a>
</g>
</g>
<!-- Node4&#45;&gt;Node1 -->
<g id="edge3_Node000001_Node000004" class="edge">
<title>Node4&#45;&gt;Node1</title>
<g id="a_edge3_Node000001_Node000004"><a xlink:title=" ">
<path fill="none" stroke="#9a32cd" stroke-dasharray="5,2" d="M158.19,-549.27C182.57,-543.62 208.09,-533.7 226.75,-516.38 283.07,-464.1 299,-365.36 302.81,-332.97"/>
<polygon fill="#9a32cd" stroke="#9a32cd" points="157.66,-545.81 148.58,-551.27 159.08,-552.66 157.66,-545.81"/>
</a>
</g>
<text text-anchor="middle" x="203.88" y="-545.62" font-family="Helvetica,sans-Serif" font-size="10.00" fill="grey"> cc</text>
</g>
<!-- Node5 -->
<g id="Node000005" class="node">
<title>Node5</title>
<g id="a_Node000005"><a xlink:href="unionspdk__nvme__csts__register.html" target="_top" xlink:title=" ">
<polygon fill="white" stroke="#bfbfbf" points="151.38,-527.75 11.62,-527.75 11.62,-507 151.38,-507 151.38,-527.75"/>
<text text-anchor="middle" x="81.5" y="-514.25" font-family="Helvetica,sans-Serif" font-size="10.00">spdk_nvme_csts_register</text>
</a>
</g>
</g>
<!-- Node5&#45;&gt;Node1 -->
<g id="edge4_Node000001_Node000005" class="edge">
<title>Node5&#45;&gt;Node1</title>
<g id="a_edge4_Node000001_Node000005"><a xlink:title=" ">
<path fill="none" stroke="#9a32cd" stroke-dasharray="5,2" d="M162.82,-505.91C185.57,-499.42 208.97,-489.27 226.75,-473.38 271.75,-433.16 294.13,-360.52 301.27,-333.18"/>
<polygon fill="#9a32cd" stroke="#9a32cd" points="161.98,-502.51 153.19,-508.42 163.75,-509.28 161.98,-502.51"/>
</a>
</g>
<text text-anchor="middle" x="203.88" y="-502.62" font-family="Helvetica,sans-Serif" font-size="10.00" fill="grey"> csts</text>
</g>
<!-- Node6 -->
<g id="Node000006" class="node">
<title>Node6</title>
<g id="a_Node000006"><a xlink:href="unionspdk__nvme__aqa__register.html" target="_top" xlink:title=" ">
<polygon fill="white" stroke="#bfbfbf" points="150.62,-488.75 12.38,-488.75 12.38,-468 150.62,-468 150.62,-488.75"/>
<text text-anchor="middle" x="81.5" y="-475.25" font-family="Helvetica,sans-Serif" font-size="10.00">spdk_nvme_aqa_register</text>
</a>
</g>
</g>
<!-- Node6&#45;&gt;Node1 -->
<g id="edge5_Node000001_Node000006" class="edge">
<title>Node6&#45;&gt;Node1</title>
<g id="a_edge5_Node000001_Node000006"><a xlink:title=" ">
<path fill="none" stroke="#9a32cd" stroke-dasharray="5,2" d="M160.7,-464.58C183.7,-457.72 207.77,-447.52 226.75,-432.38 262.49,-403.87 288.71,-354.53 299.04,-332.97"/>
<polygon fill="#9a32cd" stroke="#9a32cd" points="160.02,-461.13 151.33,-467.18 161.9,-467.87 160.02,-461.13"/>
</a>
</g>
<text text-anchor="middle" x="203.88" y="-459.62" font-family="Helvetica,sans-Serif" font-size="10.00" fill="grey"> aqa</text>
</g>
<!-- Node7 -->
<g id="Node000007" class="node">
<title>Node7</title>
<g id="a_Node000007"><a xlink:href="unionspdk__nvme__cmbloc__register.html" target="_top" xlink:title=" ">
<polygon fill="white" stroke="#bfbfbf" points="159.25,-449.75 3.75,-449.75 3.75,-429 159.25,-429 159.25,-449.75"/>
<text text-anchor="middle" x="81.5" y="-436.25" font-family="Helvetica,sans-Serif" font-size="10.00">spdk_nvme_cmbloc_register</text>
</a>
</g>
</g>
<!-- Node7&#45;&gt;Node1 -->
<g id="edge6_Node000001_Node000007" class="edge">
<title>Node7&#45;&gt;Node1</title>
<g id="a_edge6_Node000001_Node000007"><a xlink:title=" ">
<path fill="none" stroke="#9a32cd" stroke-dasharray="5,2" d="M151.46,-425.68C176.42,-418.75 204.03,-408.69 226.75,-394.38 254.64,-376.79 281.44,-348.34 294.89,-333"/>
<polygon fill="#9a32cd" stroke="#9a32cd" points="150.82,-422.22 142.05,-428.16 152.61,-428.99 150.82,-422.22"/>
</a>
</g>
<text text-anchor="middle" x="203.88" y="-418.62" font-family="Helvetica,sans-Serif" font-size="10.00" fill="grey"> cmbloc</text>
</g>
<!-- Node8 -->
<g id="Node000008" class="node">
<title>Node8</title>
<g id="a_Node000008"><a xlink:href="unionspdk__nvme__cmbsz__register.html" target="_top" xlink:title=" ">
<polygon fill="white" stroke="#bfbfbf" points="157.38,-410.75 5.62,-410.75 5.62,-390 157.38,-390 157.38,-410.75"/>
<text text-anchor="middle" x="81.5" y="-397.25" font-family="Helvetica,sans-Serif" font-size="10.00">spdk_nvme_cmbsz_register</text>
</a>
</g>
</g>
<!-- Node8&#45;&gt;Node1 -->
<g id="edge7_Node000001_Node000008" class="edge">
<title>Node8&#45;&gt;Node1</title>
<g id="a_edge7_Node000001_Node000008"><a xlink:title=" ">
<path fill="none" stroke="#9a32cd" stroke-dasharray="5,2" d="M149.1,-386.92C173.91,-380.98 202.02,-373.1 226.75,-363.38 248.06,-355 271.06,-342.24 286.35,-333.18"/>
<polygon fill="#9a32cd" stroke="#9a32cd" points="148.38,-383.5 139.44,-389.18 149.97,-390.32 148.38,-383.5"/>
</a>
</g>
<text text-anchor="middle" x="203.88" y="-380.62" font-family="Helvetica,sans-Serif" font-size="10.00" fill="grey"> cmbsz</text>
</g>
<!-- Node9 -->
<g id="Node000009" class="node">
<title>Node9</title>
<g id="a_Node000009"><a xlink:href="unionspdk__nvme__bpinfo__register.html" target="_top" xlink:title="Boot partition information.">
<polygon fill="white" stroke="#666666" points="157,-371.75 6,-371.75 6,-351 157,-351 157,-371.75"/>
<text text-anchor="middle" x="81.5" y="-358.25" font-family="Helvetica,sans-Serif" font-size="10.00">spdk_nvme_bpinfo_register</text>
</a>
</g>
</g>
<!-- Node9&#45;&gt;Node1 -->
<g id="edge8_Node000001_Node000009" class="edge">
<title>Node9&#45;&gt;Node1</title>
<g id="a_edge8_Node000001_Node000009"><a xlink:title=" ">
<path fill="none" stroke="#9a32cd" stroke-dasharray="5,2" d="M168.35,-349.23C187.61,-346.24 207.91,-342.88 226.75,-339.38 236.59,-337.54 247.09,-335.37 257.07,-333.21"/>
<polygon fill="#9a32cd" stroke="#9a32cd" points="168.01,-345.74 158.65,-350.71 169.06,-352.66 168.01,-345.74"/>
</a>
</g>
<text text-anchor="middle" x="203.88" y="-349.62" font-family="Helvetica,sans-Serif" font-size="10.00" fill="grey"> bpinfo</text>
</g>
<!-- Node10 -->
<g id="Node000010" class="node">
<title>Node10</title>
<g id="a_Node000010"><a xlink:href="unionspdk__nvme__bprsel__register.html" target="_top" xlink:title="Boot partition read select.">
<polygon fill="white" stroke="#666666" points="156.62,-332.75 6.38,-332.75 6.38,-312 156.62,-312 156.62,-332.75"/>
<text text-anchor="middle" x="81.5" y="-319.25" font-family="Helvetica,sans-Serif" font-size="10.00">spdk_nvme_bprsel_register</text>
</a>
</g>
</g>
<!-- Node10&#45;&gt;Node1 -->
<g id="edge9_Node000001_Node000010" class="edge">
<title>Node10&#45;&gt;Node1</title>
<g id="a_edge9_Node000001_Node000010"><a xlink:title=" ">
<path fill="none" stroke="#9a32cd" stroke-dasharray="5,2" d="M168.02,-322.38C193.54,-322.38 220.95,-322.38 244.42,-322.38"/>
<polygon fill="#9a32cd" stroke="#9a32cd" points="168.34,-318.88 158.34,-322.38 168.34,-325.88 168.34,-318.88"/>
</a>
</g>
<text text-anchor="middle" x="203.88" y="-325.62" font-family="Helvetica,sans-Serif" font-size="10.00" fill="grey"> bprsel</text>
</g>
<!-- Node11 -->
<g id="Node000011" class="node">
<title>Node11</title>
<g id="a_Node000011"><a xlink:href="unionspdk__nvme__cmbmsc__register.html" target="_top" xlink:title=" ">
<polygon fill="white" stroke="#bfbfbf" points="162.25,-293.75 0.75,-293.75 0.75,-273 162.25,-273 162.25,-293.75"/>
<text text-anchor="middle" x="81.5" y="-280.25" font-family="Helvetica,sans-Serif" font-size="10.00">spdk_nvme_cmbmsc_register</text>
</a>
</g>
</g>
<!-- Node11&#45;&gt;Node1 -->
<g id="edge10_Node000001_Node000011" class="edge">
<title>Node11&#45;&gt;Node1</title>
<g id="a_edge10_Node000001_Node000011"><a xlink:title=" ">
<path fill="none" stroke="#9a32cd" stroke-dasharray="5,2" d="M169.88,-295.98C188.68,-298.93 208.4,-302.22 226.75,-305.62 236.32,-307.4 246.51,-309.48 256.24,-311.56"/>
<polygon fill="#9a32cd" stroke="#9a32cd" points="170.55,-292.54 160.13,-294.46 169.47,-299.46 170.55,-292.54"/>
</a>
</g>
<text text-anchor="middle" x="203.88" y="-308.62" font-family="Helvetica,sans-Serif" font-size="10.00" fill="grey"> cmbmsc</text>
</g>
<!-- Node12 -->
<g id="Node000012" class="node">
<title>Node12</title>
<g id="a_Node000012"><a xlink:href="unionspdk__nvme__cmbsts__register.html" target="_top" xlink:title=" ">
<polygon fill="white" stroke="#bfbfbf" points="159.25,-254.75 3.75,-254.75 3.75,-234 159.25,-234 159.25,-254.75"/>
<text text-anchor="middle" x="81.5" y="-241.25" font-family="Helvetica,sans-Serif" font-size="10.00">spdk_nvme_cmbsts_register</text>
</a>
</g>
</g>
<!-- Node12&#45;&gt;Node1 -->
<g id="edge11_Node000001_Node000012" class="edge">
<title>Node12&#45;&gt;Node1</title>
<g id="a_edge11_Node000001_Node000012"><a xlink:title=" ">
<path fill="none" stroke="#9a32cd" stroke-dasharray="5,2" d="M150.38,-257.7C174.87,-263.47 202.46,-271.12 226.75,-280.62 248.44,-289.11 271.76,-302.37 287,-311.66"/>
<polygon fill="#9a32cd" stroke="#9a32cd" points="151.37,-254.33 140.84,-255.51 149.8,-261.16 151.37,-254.33"/>
</a>
</g>
<text text-anchor="middle" x="203.88" y="-283.62" font-family="Helvetica,sans-Serif" font-size="10.00" fill="grey"> cmbsts</text>
</g>
<!-- Node13 -->
<g id="Node000013" class="node">
<title>Node13</title>
<g id="a_Node000013"><a xlink:href="unionspdk__nvme__pmrcap__register.html" target="_top" xlink:title=" ">
<polygon fill="white" stroke="#bfbfbf" points="160,-215.75 3,-215.75 3,-195 160,-195 160,-215.75"/>
<text text-anchor="middle" x="81.5" y="-202.25" font-family="Helvetica,sans-Serif" font-size="10.00">spdk_nvme_pmrcap_register</text>
</a>
</g>
</g>
<!-- Node13&#45;&gt;Node1 -->
<g id="edge12_Node000001_Node000013" class="edge">
<title>Node13&#45;&gt;Node1</title>
<g id="a_edge12_Node000001_Node000013"><a xlink:title=" ">
<path fill="none" stroke="#9a32cd" stroke-dasharray="5,2" d="M153.07,-219.11C177.6,-225.89 204.52,-235.69 226.75,-249.62 254.82,-267.22 281.55,-296.04 294.94,-311.6"/>
<polygon fill="#9a32cd" stroke="#9a32cd" points="154.02,-215.74 143.45,-216.6 152.24,-222.52 154.02,-215.74"/>
</a>
</g>
<text text-anchor="middle" x="203.88" y="-252.62" font-family="Helvetica,sans-Serif" font-size="10.00" fill="grey"> pmrcap</text>
</g>
<!-- Node14 -->
<g id="Node000014" class="node">
<title>Node14</title>
<g id="a_Node000014"><a xlink:href="unionspdk__nvme__pmrctl__register.html" target="_top" xlink:title=" ">
<polygon fill="white" stroke="#bfbfbf" points="157.38,-176.75 5.62,-176.75 5.62,-156 157.38,-156 157.38,-176.75"/>
<text text-anchor="middle" x="81.5" y="-163.25" font-family="Helvetica,sans-Serif" font-size="10.00">spdk_nvme_pmrctl_register</text>
</a>
</g>
</g>
<!-- Node14&#45;&gt;Node1 -->
<g id="edge13_Node000001_Node000014" class="edge">
<title>Node14&#45;&gt;Node1</title>
<g id="a_edge13_Node000001_Node000014"><a xlink:title=" ">
<path fill="none" stroke="#9a32cd" stroke-dasharray="5,2" d="M162.26,-180.23C184.78,-186.96 208.18,-196.92 226.75,-211.62 262.75,-240.14 288.83,-289.91 299.08,-311.67"/>
<polygon fill="#9a32cd" stroke="#9a32cd" points="163.34,-176.89 152.76,-177.58 161.46,-183.64 163.34,-176.89"/>
</a>
</g>
<text text-anchor="middle" x="203.88" y="-214.62" font-family="Helvetica,sans-Serif" font-size="10.00" fill="grey"> pmrctl</text>
</g>
<!-- Node15 -->
<g id="Node000015" class="node">
<title>Node15</title>
<g id="a_Node000015"><a xlink:href="unionspdk__nvme__pmrsts__register.html" target="_top" xlink:title=" ">
<polygon fill="white" stroke="#bfbfbf" points="158.5,-137.75 4.5,-137.75 4.5,-117 158.5,-117 158.5,-137.75"/>
<text text-anchor="middle" x="81.5" y="-124.25" font-family="Helvetica,sans-Serif" font-size="10.00">spdk_nvme_pmrsts_register</text>
</a>
</g>
</g>
<!-- Node15&#45;&gt;Node1 -->
<g id="edge14_Node000001_Node000015" class="edge">
<title>Node15&#45;&gt;Node1</title>
<g id="a_edge14_Node000001_Node000015"><a xlink:title=" ">
<path fill="none" stroke="#9a32cd" stroke-dasharray="5,2" d="M169.75,-140.5C190.24,-146.91 210.74,-156.44 226.75,-170.62 272.31,-211 294.49,-284.66 301.41,-311.89"/>
<polygon fill="#9a32cd" stroke="#9a32cd" points="170.75,-137.14 160.18,-137.75 168.82,-143.87 170.75,-137.14"/>
</a>
</g>
<text text-anchor="middle" x="203.88" y="-173.62" font-family="Helvetica,sans-Serif" font-size="10.00" fill="grey"> pmrsts</text>
</g>
<!-- Node16 -->
<g id="Node000016" class="node">
<title>Node16</title>
<g id="a_Node000016"><a xlink:href="unionspdk__nvme__pmrebs__register.html" target="_top" xlink:title=" ">
<polygon fill="white" stroke="#bfbfbf" points="160,-98.75 3,-98.75 3,-78 160,-78 160,-98.75"/>
<text text-anchor="middle" x="81.5" y="-85.25" font-family="Helvetica,sans-Serif" font-size="10.00">spdk_nvme_pmrebs_register</text>
</a>
</g>
</g>
<!-- Node16&#45;&gt;Node1 -->
<g id="edge15_Node000001_Node000016" class="edge">
<title>Node16&#45;&gt;Node1</title>
<g id="a_edge15_Node000001_Node000016"><a xlink:title=" ">
<path fill="none" stroke="#9a32cd" stroke-dasharray="5,2" d="M171.23,-98.48C191.39,-104.35 211.37,-113.48 226.75,-127.62 283.5,-179.81 299.15,-279.12 302.85,-311.72"/>
<polygon fill="#9a32cd" stroke="#9a32cd" points="172.39,-95.17 161.83,-96 170.61,-101.93 172.39,-95.17"/>
</a>
</g>
<text text-anchor="middle" x="203.88" y="-130.62" font-family="Helvetica,sans-Serif" font-size="10.00" fill="grey"> pmrebs</text>
</g>
<!-- Node17 -->
<g id="Node000017" class="node">
<title>Node17</title>
<g id="a_Node000017"><a xlink:href="unionspdk__nvme__pmrswtp__register.html" target="_top" xlink:title=" ">
<polygon fill="white" stroke="#bfbfbf" points="163,-59.75 0,-59.75 0,-39 163,-39 163,-59.75"/>
<text text-anchor="middle" x="81.5" y="-46.25" font-family="Helvetica,sans-Serif" font-size="10.00">spdk_nvme_pmrswtp_register</text>
</a>
</g>
</g>
<!-- Node17&#45;&gt;Node1 -->
<g id="edge16_Node000001_Node000017" class="edge">
<title>Node17&#45;&gt;Node1</title>
<g id="a_edge16_Node000001_Node000017"><a xlink:title=" ">
<path fill="none" stroke="#9a32cd" stroke-dasharray="5,2" d="M174.23,-57.2C193.43,-62.58 212.23,-71.14 226.75,-84.62 295.59,-148.55 303.16,-274.39 303.85,-311.71"/>
<polygon fill="#9a32cd" stroke="#9a32cd" points="175.25,-53.84 164.7,-54.82 173.55,-60.63 175.25,-53.84"/>
</a>
</g>
<text text-anchor="middle" x="203.88" y="-87.62" font-family="Helvetica,sans-Serif" font-size="10.00" fill="grey"> pmrswtp</text>
</g>
<!-- Node18 -->
<g id="Node000018" class="node">
<title>Node18</title>
<g id="a_Node000018"><a xlink:href="unionspdk__nvme__pmrmscl__register.html" target="_top" xlink:title=" ">
<polygon fill="white" stroke="#bfbfbf" points="163,-20.75 0,-20.75 0,0 163,0 163,-20.75"/>
<text text-anchor="middle" x="81.5" y="-7.25" font-family="Helvetica,sans-Serif" font-size="10.00">spdk_nvme_pmrmscl_register</text>
</a>
</g>
</g>
<!-- Node18&#45;&gt;Node1 -->
<g id="edge17_Node000001_Node000018" class="edge">
<title>Node18&#45;&gt;Node1</title>
<g id="a_edge17_Node000001_Node000018"><a xlink:title=" ">
<path fill="none" stroke="#9a32cd" stroke-dasharray="5,2" d="M174.26,-15.59C193.56,-20.6 212.39,-28.95 226.75,-42.62 267.43,-81.36 295.76,-264.89 302.39,-311.56"/>
<polygon fill="#9a32cd" stroke="#9a32cd" points="175.2,-12.22 164.67,-13.42 173.65,-19.04 175.2,-12.22"/>
</a>
</g>
<text text-anchor="middle" x="203.88" y="-46.62" font-family="Helvetica,sans-Serif" font-size="10.00" fill="grey"> pmrmscl</text>
</g>
</g>
</svg>
