<?xml version="1.0" encoding="UTF-8" standalone="no"?>
<!DOCTYPE svg PUBLIC "-//W3C//DTD SVG 1.1//EN"
 "http://www.w3.org/Graphics/SVG/1.1/DTD/svg11.dtd">
<!-- Generated by graphviz version 9.0.0 (20230911.1827)
 -->
<!-- Title: spdk_nvmf_fc_ls_rjt Pages: 1 -->
<svg width="396pt" height="168pt"
 viewBox="0.00 0.00 395.62 167.75" xmlns="http://www.w3.org/2000/svg" xmlns:xlink="http://www.w3.org/1999/xlink">

<svg id="main" version="1.1" xmlns="http://www.w3.org/2000/svg" xmlns:xlink="http://www.w3.org/1999/xlink" xml:space="preserve" onload="init(evt)">
<style type="text/css"><![CDATA[
.node, .edge {opacity: 0.7;}
.node.selected, .edge.selected {opacity: 1;}
.edge:hover path { stroke: red; }
.edge:hover polygon { stroke: red; fill: red; }
]]></style>
<script type="application/ecmascript" xlink:href="svg.min.js"/>
<svg id="graph" class="graph">
<g id="graph0" class="graph" transform="scale(1 1) rotate(0) translate(4 163.75)">
<title>spdk_nvmf_fc_ls_rjt</title>
<!-- Node1 -->
<g id="Node000001" class="node">
<title>Node1</title>
<g id="a_Node000001"><a xlink:title=" ">
<polygon fill="#999999" stroke="#666666" points="218.38,-20.75 104.88,-20.75 104.88,0 218.38,0 218.38,-20.75"/>
<text text-anchor="middle" x="161.62" y="-7.25" font-family="Helvetica,sans-Serif" font-size="10.00">spdk_nvmf_fc_ls_rjt</text>
</a>
</g>
</g>
<!-- Node2 -->
<g id="Node000002" class="node">
<title>Node2</title>
<g id="a_Node000002"><a xlink:href="structspdk__nvmf__fc__ls__rqst__w0.html" target="_top" xlink:title=" ">
<polygon fill="white" stroke="#bfbfbf" points="141.25,-159.75 0,-159.75 0,-139 141.25,-139 141.25,-159.75"/>
<text text-anchor="middle" x="70.62" y="-146.25" font-family="Helvetica,sans-Serif" font-size="10.00">spdk_nvmf_fc_ls_rqst_w0</text>
</a>
</g>
</g>
<!-- Node2&#45;&gt;Node1 -->
<g id="edge1_Node000001_Node000002" class="edge">
<title>Node2&#45;&gt;Node1</title>
<g id="a_edge1_Node000001_Node000002"><a xlink:title=" ">
<path fill="none" stroke="#9a32cd" stroke-dasharray="5,2" d="M62.64,-128.11C57.38,-111.31 53.18,-87.38 63.38,-69.5 77.32,-45.05 106.02,-29.84 128.82,-21.14"/>
<polygon fill="#9a32cd" stroke="#9a32cd" points="59.31,-129.21 65.95,-137.47 65.91,-126.87 59.31,-129.21"/>
</a>
</g>
<text text-anchor="middle" x="72.25" y="-76.75" font-family="Helvetica,sans-Serif" font-size="10.00" fill="grey"> w0</text>
</g>
<!-- Node3 -->
<g id="Node000003" class="node">
<title>Node3</title>
<g id="a_Node000003"><a xlink:href="structspdk__nvmf__fc__lsdesc__rqst.html" target="_top" xlink:title=" ">
<polygon fill="white" stroke="#bfbfbf" points="233.75,-90.25 89.5,-90.25 89.5,-69.5 233.75,-69.5 233.75,-90.25"/>
<text text-anchor="middle" x="161.62" y="-76.75" font-family="Helvetica,sans-Serif" font-size="10.00">spdk_nvmf_fc_lsdesc_rqst</text>
</a>
</g>
</g>
<!-- Node2&#45;&gt;Node3 -->
<g id="edge3_Node000003_Node000002" class="edge">
<title>Node2&#45;&gt;Node3</title>
<g id="a_edge3_Node000003_Node000002"><a xlink:title=" ">
<path fill="none" stroke="#9a32cd" stroke-dasharray="5,2" d="M92.57,-132.09C109.96,-119.2 133.69,-101.6 148.32,-90.75"/>
<polygon fill="#9a32cd" stroke="#9a32cd" points="90.83,-129.03 84.88,-137.8 95,-134.66 90.83,-129.03"/>
</a>
</g>
<text text-anchor="middle" x="133.25" y="-111.5" font-family="Helvetica,sans-Serif" font-size="10.00" fill="grey"> w0</text>
</g>
<!-- Node3&#45;&gt;Node1 -->
<g id="edge2_Node000001_Node000003" class="edge">
<title>Node3&#45;&gt;Node1</title>
<g id="a_edge2_Node000001_Node000003"><a xlink:title=" ">
<path fill="none" stroke="#9a32cd" stroke-dasharray="5,2" d="M161.62,-58.07C161.62,-45.72 161.62,-30.65 161.62,-21.03"/>
<polygon fill="#9a32cd" stroke="#9a32cd" points="158.13,-57.69 161.63,-67.69 165.13,-57.69 158.13,-57.69"/>
</a>
</g>
<text text-anchor="middle" x="172.5" y="-42" font-family="Helvetica,sans-Serif" font-size="10.00" fill="grey"> rqst</text>
</g>
<!-- Node4 -->
<g id="Node000004" class="node">
<title>Node4</title>
<g id="a_Node000004"><a xlink:href="structspdk__nvmf__fc__lsdesc__rjt.html" target="_top" xlink:title=" ">
<polygon fill="white" stroke="#bfbfbf" points="387.62,-90.25 251.62,-90.25 251.62,-69.5 387.62,-69.5 387.62,-90.25"/>
<text text-anchor="middle" x="319.62" y="-76.75" font-family="Helvetica,sans-Serif" font-size="10.00">spdk_nvmf_fc_lsdesc_rjt</text>
</a>
</g>
</g>
<!-- Node4&#45;&gt;Node1 -->
<g id="edge4_Node000001_Node000004" class="edge">
<title>Node4&#45;&gt;Node1</title>
<g id="a_edge4_Node000001_Node000004"><a xlink:title=" ">
<path fill="none" stroke="#9a32cd" stroke-dasharray="5,2" d="M286.08,-64.55C255.56,-51.51 211.32,-32.6 184.63,-21.2"/>
<polygon fill="#9a32cd" stroke="#9a32cd" points="284.69,-67.76 295.26,-68.47 287.44,-61.32 284.69,-67.76"/>
</a>
</g>
<text text-anchor="middle" x="261.38" y="-42" font-family="Helvetica,sans-Serif" font-size="10.00" fill="grey"> rjt</text>
</g>
</g>
</svg>
</svg>

<style type='text/css'>
<![CDATA[
[data-mouse-over-selected='false'] { opacity: 0.7; }
[data-mouse-over-selected='true']  { opacity: 1.0; }
]]>
</style>
<script type="application/ecmascript"><![CDATA[
document.addEventListener('DOMContentLoaded', (event) => {
  highlightEdges();
  highlightAdjacentNodes();
});
]]></script>
</svg>
