<?xml version="1.0" encoding="UTF-8" standalone="no"?>
<!DOCTYPE svg PUBLIC "-//W3C//DTD SVG 1.1//EN"
 "http://www.w3.org/Graphics/SVG/1.1/DTD/svg11.dtd">
<!-- Generated by graphviz version 9.0.0 (20230911.1827)
 -->
<!-- Title: spdk_nvmf_fc_ls_cr_assoc_acc Pages: 1 -->
<svg width="425pt" height="263pt"
 viewBox="0.00 0.00 424.75 262.75" xmlns="http://www.w3.org/2000/svg" xmlns:xlink="http://www.w3.org/1999/xlink">
<g id="graph0" class="graph" transform="scale(1 1) rotate(0) translate(4 258.75)">
<title>spdk_nvmf_fc_ls_cr_assoc_acc</title>
<!-- Node1 -->
<g id="Node000001" class="node">
<title>Node1</title>
<g id="a_Node000001"><a xlink:title=" ">
<polygon fill="#999999" stroke="#666666" points="274.62,-33.5 162.62,-33.5 162.62,0 274.62,0 274.62,-33.5"/>
<text text-anchor="start" x="170.62" y="-20" font-family="Helvetica,sans-Serif" font-size="10.00">spdk_nvmf_fc_ls_cr</text>
<text text-anchor="middle" x="218.62" y="-7.25" font-family="Helvetica,sans-Serif" font-size="10.00">_assoc_acc</text>
</a>
</g>
</g>
<!-- Node2 -->
<g id="Node000002" class="node">
<title>Node2</title>
<g id="a_Node000002"><a xlink:href="structspdk__nvmf__fc__ls__acc__hdr.html" target="_top" xlink:title=" ">
<polygon fill="white" stroke="#bfbfbf" points="140.88,-109.38 0.38,-109.38 0.38,-88.62 140.88,-88.62 140.88,-109.38"/>
<text text-anchor="middle" x="70.62" y="-95.88" font-family="Helvetica,sans-Serif" font-size="10.00">spdk_nvmf_fc_ls_acc_hdr</text>
</a>
</g>
</g>
<!-- Node2&#45;&gt;Node1 -->
<g id="edge1_Node000001_Node000002" class="edge">
<title>Node2&#45;&gt;Node1</title>
<g id="a_edge1_Node000001_Node000002"><a xlink:title=" ">
<path fill="none" stroke="#9a32cd" stroke-dasharray="5,2" d="M98.66,-82.8C124.42,-68.83 162.48,-48.19 188.8,-33.92"/>
<polygon fill="#9a32cd" stroke="#9a32cd" points="97.23,-79.59 90.1,-87.44 100.56,-85.75 97.23,-79.59"/>
</a>
</g>
<text text-anchor="middle" x="163" y="-54.75" font-family="Helvetica,sans-Serif" font-size="10.00" fill="grey"> hdr</text>
</g>
<!-- Node3 -->
<g id="Node000003" class="node">
<title>Node3</title>
<g id="a_Node000003"><a xlink:href="structspdk__nvmf__fc__ls__rqst__w0.html" target="_top" xlink:title=" ">
<polygon fill="white" stroke="#bfbfbf" points="141.25,-254.75 0,-254.75 0,-234 141.25,-234 141.25,-254.75"/>
<text text-anchor="middle" x="70.62" y="-241.25" font-family="Helvetica,sans-Serif" font-size="10.00">spdk_nvmf_fc_ls_rqst_w0</text>
</a>
</g>
</g>
<!-- Node3&#45;&gt;Node2 -->
<g id="edge2_Node000002_Node000003" class="edge">
<title>Node3&#45;&gt;Node2</title>
<g id="a_edge2_Node000002_Node000003"><a xlink:title=" ">
<path fill="none" stroke="#9a32cd" stroke-dasharray="5,2" d="M67.38,-222.47C65.83,-211.43 64.14,-197.64 63.38,-185.25 61.67,-157.82 66.22,-125.52 68.87,-109.71"/>
<polygon fill="#9a32cd" stroke="#9a32cd" points="63.87,-222.66 68.8,-232.04 70.8,-221.63 63.87,-222.66"/>
</a>
</g>
<text text-anchor="middle" x="72.25" y="-171.75" font-family="Helvetica,sans-Serif" font-size="10.00" fill="grey"> w0</text>
</g>
<!-- Node4 -->
<g id="Node000004" class="node">
<title>Node4</title>
<g id="a_Node000004"><a xlink:href="structspdk__nvmf__fc__lsdesc__rqst.html" target="_top" xlink:title=" ">
<polygon fill="white" stroke="#bfbfbf" points="233.75,-185.25 89.5,-185.25 89.5,-164.5 233.75,-164.5 233.75,-185.25"/>
<text text-anchor="middle" x="161.62" y="-171.75" font-family="Helvetica,sans-Serif" font-size="10.00">spdk_nvmf_fc_lsdesc_rqst</text>
</a>
</g>
</g>
<!-- Node3&#45;&gt;Node4 -->
<g id="edge4_Node000004_Node000003" class="edge">
<title>Node3&#45;&gt;Node4</title>
<g id="a_edge4_Node000004_Node000003"><a xlink:title=" ">
<path fill="none" stroke="#9a32cd" stroke-dasharray="5,2" d="M92.57,-227.09C109.96,-214.2 133.69,-196.6 148.32,-185.75"/>
<polygon fill="#9a32cd" stroke="#9a32cd" points="90.83,-224.03 84.88,-232.8 95,-229.66 90.83,-224.03"/>
</a>
</g>
<text text-anchor="middle" x="133.25" y="-206.5" font-family="Helvetica,sans-Serif" font-size="10.00" fill="grey"> w0</text>
</g>
<!-- Node4&#45;&gt;Node2 -->
<g id="edge3_Node000002_Node000004" class="edge">
<title>Node4&#45;&gt;Node2</title>
<g id="a_edge3_Node000002_Node000004"><a xlink:title=" ">
<path fill="none" stroke="#9a32cd" stroke-dasharray="5,2" d="M141.08,-157.19C123.02,-142.54 97.38,-121.72 82.52,-109.66"/>
<polygon fill="#9a32cd" stroke="#9a32cd" points="138.58,-159.68 148.55,-163.26 143,-154.24 138.58,-159.68"/>
</a>
</g>
<text text-anchor="middle" x="138.5" y="-137" font-family="Helvetica,sans-Serif" font-size="10.00" fill="grey"> rqst</text>
</g>
<!-- Node5 -->
<g id="Node000005" class="node">
<title>Node5</title>
<g id="a_Node000005"><a xlink:href="structspdk__nvmf__fc__lsdesc__assoc__id.html" target="_top" xlink:title=" ">
<polygon fill="white" stroke="#bfbfbf" points="278.75,-115.75 158.5,-115.75 158.5,-82.25 278.75,-82.25 278.75,-115.75"/>
<text text-anchor="start" x="166.5" y="-102.25" font-family="Helvetica,sans-Serif" font-size="10.00">spdk_nvmf_fc_lsdesc</text>
<text text-anchor="middle" x="218.62" y="-89.5" font-family="Helvetica,sans-Serif" font-size="10.00">_assoc_id</text>
</a>
</g>
</g>
<!-- Node5&#45;&gt;Node1 -->
<g id="edge5_Node000001_Node000005" class="edge">
<title>Node5&#45;&gt;Node1</title>
<g id="a_edge5_Node000001_Node000005"><a xlink:title=" ">
<path fill="none" stroke="#9a32cd" stroke-dasharray="5,2" d="M218.62,-70.38C218.62,-58.24 218.62,-44.4 218.62,-33.97"/>
<polygon fill="#9a32cd" stroke="#9a32cd" points="215.13,-70.25 218.63,-80.25 222.13,-70.25 215.13,-70.25"/>
</a>
</g>
<text text-anchor="middle" x="241.12" y="-54.75" font-family="Helvetica,sans-Serif" font-size="10.00" fill="grey"> assoc_id</text>
</g>
<!-- Node6 -->
<g id="Node000006" class="node">
<title>Node6</title>
<g id="a_Node000006"><a xlink:href="structspdk__nvmf__fc__lsdesc__conn__id.html" target="_top" xlink:title=" ">
<polygon fill="white" stroke="#bfbfbf" points="416.75,-115.75 296.5,-115.75 296.5,-82.25 416.75,-82.25 416.75,-115.75"/>
<text text-anchor="start" x="304.5" y="-102.25" font-family="Helvetica,sans-Serif" font-size="10.00">spdk_nvmf_fc_lsdesc</text>
<text text-anchor="middle" x="356.62" y="-89.5" font-family="Helvetica,sans-Serif" font-size="10.00">_conn_id</text>
</a>
</g>
</g>
<!-- Node6&#45;&gt;Node1 -->
<g id="edge6_Node000001_Node000006" class="edge">
<title>Node6&#45;&gt;Node1</title>
<g id="a_edge6_Node000001_Node000006"><a xlink:title=" ">
<path fill="none" stroke="#9a32cd" stroke-dasharray="5,2" d="M318.97,-76.1C296.08,-62.79 267.36,-46.09 246.51,-33.97"/>
<polygon fill="#9a32cd" stroke="#9a32cd" points="316.99,-79 327.39,-81 320.51,-72.95 316.99,-79"/>
</a>
</g>
<text text-anchor="middle" x="315.88" y="-54.75" font-family="Helvetica,sans-Serif" font-size="10.00" fill="grey"> conn_id</text>
</g>
</g>
</svg>
