<?xml version="1.0" encoding="UTF-8" standalone="no"?>
<!DOCTYPE svg PUBLIC "-//W3C//DTD SVG 1.1//EN"
 "http://www.w3.org/Graphics/SVG/1.1/DTD/svg11.dtd">
<!-- Generated by graphviz version 9.0.0 (20230911.1827)
 -->
<!-- Title: spdk_nvmf_transport_ops Pages: 1 -->
<svg width="547pt" height="185pt"
 viewBox="0.00 0.00 547.12 185.25" xmlns="http://www.w3.org/2000/svg" xmlns:xlink="http://www.w3.org/1999/xlink">
<g id="graph0" class="graph" transform="scale(1 1) rotate(0) translate(4 181.25)">
<title>spdk_nvmf_transport_ops</title>
<!-- Node1 -->
<g id="Node000001" class="node">
<title>Node1</title>
<g id="a_Node000001"><a xlink:title=" ">
<polygon fill="#999999" stroke="#666666" points="142,-177.25 0,-177.25 0,-156.5 142,-156.5 142,-177.25"/>
<text text-anchor="middle" x="71" y="-163.75" font-family="Helvetica,sans-Serif" font-size="10.00">spdk_nvmf_transport_ops</text>
</a>
</g>
</g>
<!-- Node2 -->
<g id="Node000002" class="node">
<title>Node2</title>
<g id="a_Node000002"><a xlink:href="structspdk__nvmf__transport.html" target="_top" xlink:title=" ">
<polygon fill="white" stroke="#bfbfbf" points="263.75,-105.38 144.25,-105.38 144.25,-84.62 263.75,-84.62 263.75,-105.38"/>
<text text-anchor="middle" x="204" y="-91.88" font-family="Helvetica,sans-Serif" font-size="10.00">spdk_nvmf_transport</text>
</a>
</g>
</g>
<!-- Node1&#45;&gt;Node2 -->
<g id="edge2_Node000002_Node000001" class="edge">
<title>Node1&#45;&gt;Node2</title>
<g id="a_edge2_Node000002_Node000001"><a xlink:title=" ">
<path fill="none" stroke="#9a32cd" stroke-dasharray="5,2" d="M120.94,-152.5C131.84,-148.69 143.07,-144.03 153,-138.5 169.11,-129.52 185,-115.17 194.66,-105.66"/>
<polygon fill="#9a32cd" stroke="#9a32cd" points="120.06,-149.11 111.66,-155.56 122.25,-155.76 120.06,-149.11"/>
</a>
</g>
<text text-anchor="middle" x="182.12" y="-129" font-family="Helvetica,sans-Serif" font-size="10.00" fill="grey"> ops</text>
</g>
<!-- Node2&#45;&gt;Node1 -->
<g id="edge1_Node000001_Node000002" class="edge">
<title>Node2&#45;&gt;Node1</title>
<g id="a_edge1_Node000001_Node000002"><a xlink:title=" ">
<path fill="none" stroke="#9a32cd" stroke-dasharray="5,2" d="M156.2,-109.45C143.78,-113.83 130.69,-119.27 119.25,-125.75 104.46,-134.13 89.78,-147.2 80.57,-156.13"/>
<polygon fill="#9a32cd" stroke="#9a32cd" points="157.08,-112.85 165.45,-106.35 154.86,-106.21 157.08,-112.85"/>
</a>
</g>
<text text-anchor="middle" x="136.88" y="-129" font-family="Helvetica,sans-Serif" font-size="10.00" fill="grey"> create</text>
</g>
<!-- Node7 -->
<g id="Node000007" class="node">
<title>Node7</title>
<g id="a_Node000007"><a xlink:href="structspdk__nvmf__transport__poll__group.html" target="_top" xlink:title=" ">
<polygon fill="white" stroke="#bfbfbf" points="362.75,-33.5 243.25,-33.5 243.25,0 362.75,0 362.75,-33.5"/>
<text text-anchor="start" x="251.25" y="-20" font-family="Helvetica,sans-Serif" font-size="10.00">spdk_nvmf_transport</text>
<text text-anchor="middle" x="303" y="-7.25" font-family="Helvetica,sans-Serif" font-size="10.00">_poll_group</text>
</a>
</g>
</g>
<!-- Node2&#45;&gt;Node7 -->
<g id="edge5_Node000007_Node000002" class="edge">
<title>Node2&#45;&gt;Node7</title>
<g id="a_edge5_Node000007_Node000002"><a xlink:title=" ">
<path fill="none" stroke="#9a32cd" stroke-dasharray="5,2" d="M225.55,-77.4C242.27,-64.52 265.32,-46.77 281.92,-33.99"/>
<polygon fill="#9a32cd" stroke="#9a32cd" points="223.52,-74.54 217.74,-83.42 227.8,-80.09 223.52,-74.54"/>
</a>
</g>
<text text-anchor="middle" x="279.62" y="-54.75" font-family="Helvetica,sans-Serif" font-size="10.00" fill="grey"> transport</text>
</g>
<!-- Node3 -->
<g id="Node000003" class="node">
<title>Node3</title>
<g id="a_Node000003"><a xlink:href="structspdk__nvmf__transport__opts.html" target="_top" xlink:title=" ">
<polygon fill="white" stroke="orangered" points="305.88,-177.25 160.12,-177.25 160.12,-156.5 305.88,-156.5 305.88,-177.25"/>
<text text-anchor="middle" x="233" y="-163.75" font-family="Helvetica,sans-Serif" font-size="10.00">spdk_nvmf_transport_opts</text>
</a>
</g>
</g>
<!-- Node3&#45;&gt;Node2 -->
<g id="edge3_Node000002_Node000003" class="edge">
<title>Node3&#45;&gt;Node2</title>
<g id="a_edge3_Node000002_Node000003"><a xlink:title=" ">
<path fill="none" stroke="#9a32cd" stroke-dasharray="5,2" d="M224.63,-145.71C219.16,-132.54 212.27,-115.92 208,-105.63"/>
<polygon fill="#9a32cd" stroke="#9a32cd" points="221.32,-146.87 228.39,-154.76 227.79,-144.18 221.32,-146.87"/>
</a>
</g>
<text text-anchor="middle" x="234" y="-129" font-family="Helvetica,sans-Serif" font-size="10.00" fill="grey"> opts</text>
</g>
<!-- Node7&#45;&gt;Node1 -->
<g id="edge4_Node000001_Node000007" class="edge">
<title>Node7&#45;&gt;Node1</title>
<g id="a_edge4_Node000001_Node000007"><a xlink:title=" ">
<path fill="none" stroke="#9a32cd" stroke-dasharray="5,2" d="M231.63,-23.84C155.9,-31.95 43.6,-49.28 17.25,-82.25 -2.79,-107.32 34.66,-140.11 56.65,-156.16"/>
<polygon fill="#9a32cd" stroke="#9a32cd" points="231.89,-27.33 241.48,-22.82 231.17,-20.37 231.89,-27.33"/>
</a>
</g>
<text text-anchor="middle" x="76.88" y="-98.25" font-family="Helvetica,sans-Serif" font-size="10.00" fill="grey"> get_optimal_poll_group</text>
<text text-anchor="middle" x="76.88" y="-85.5" font-family="Helvetica,sans-Serif" font-size="10.00" fill="grey">poll_group_create</text>
</g>
<!-- Node8 -->
<g id="Node000008" class="node">
<title>Node8</title>
<g id="a_Node000008"><a xlink:href="structspdk__iobuf__channel.html" target="_top" xlink:title="iobuf channel">
<polygon fill="#fff0f0" stroke="red" points="394.38,-105.38 281.62,-105.38 281.62,-84.62 394.38,-84.62 394.38,-105.38"/>
<text text-anchor="middle" x="338" y="-91.88" font-family="Helvetica,sans-Serif" font-size="10.00">spdk_iobuf_channel</text>
</a>
</g>
</g>
<!-- Node8&#45;&gt;Node7 -->
<g id="edge6_Node000007_Node000008" class="edge">
<title>Node8&#45;&gt;Node7</title>
<g id="a_edge6_Node000007_Node000008"><a xlink:title=" ">
<path fill="none" stroke="#9a32cd" stroke-dasharray="5,2" d="M328.84,-74.05C323.11,-61.57 315.83,-45.7 310.45,-33.99"/>
<polygon fill="#9a32cd" stroke="#9a32cd" points="325.58,-75.34 332.94,-82.97 331.94,-72.42 325.58,-75.34"/>
</a>
</g>
<text text-anchor="middle" x="349.25" y="-54.75" font-family="Helvetica,sans-Serif" font-size="10.00" fill="grey"> buf_cache</text>
</g>
<!-- Node12 -->
<g id="Node000012" class="node">
<title>Node12</title>
<g id="a_Node000012"><a xlink:href="structspdk__nvmf__poll__group.html" target="_top" xlink:title=" ">
<polygon fill="white" stroke="orangered" points="539.12,-105.38 412.88,-105.38 412.88,-84.62 539.12,-84.62 539.12,-105.38"/>
<text text-anchor="middle" x="476" y="-91.88" font-family="Helvetica,sans-Serif" font-size="10.00">spdk_nvmf_poll_group</text>
</a>
</g>
</g>
<!-- Node12&#45;&gt;Node7 -->
<g id="edge7_Node000007_Node000012" class="edge">
<title>Node12&#45;&gt;Node7</title>
<g id="a_edge7_Node000007_Node000012"><a xlink:title=" ">
<path fill="none" stroke="#9a32cd" stroke-dasharray="5,2" d="M443.6,-79.62C425,-71.37 401.19,-60.84 380,-51.5 366.91,-45.73 352.56,-39.44 339.83,-33.86"/>
<polygon fill="#9a32cd" stroke="#9a32cd" points="441.95,-82.72 452.51,-83.57 444.79,-76.32 441.95,-82.72"/>
</a>
</g>
<text text-anchor="middle" x="421.38" y="-54.75" font-family="Helvetica,sans-Serif" font-size="10.00" fill="grey"> group</text>
</g>
</g>
</svg>
