<?xml version="1.0" encoding="UTF-8" standalone="no"?>
<!DOCTYPE svg PUBLIC "-//W3C//DTD SVG 1.1//EN"
 "http://www.w3.org/Graphics/SVG/1.1/DTD/svg11.dtd">
<!-- Generated by graphviz version 9.0.0 (20230911.1827)
 -->
<!-- Title: spdk_scheduler_core_info Pages: 1 -->
<svg width="161pt" height="181pt"
 viewBox="0.00 0.00 160.50 180.50" xmlns="http://www.w3.org/2000/svg" xmlns:xlink="http://www.w3.org/1999/xlink">
<g id="graph0" class="graph" transform="scale(1 1) rotate(0) translate(4 176.5)">
<title>spdk_scheduler_core_info</title>
<!-- Node1 -->
<g id="Node000001" class="node">
<title>Node1</title>
<g id="a_Node000001"><a xlink:title="A list of cores and threads which is used for scheduling.">
<polygon fill="#999999" stroke="#666666" points="147.25,-20.75 5.25,-20.75 5.25,0 147.25,0 147.25,-20.75"/>
<text text-anchor="middle" x="76.25" y="-7.25" font-family="Helvetica,sans-Serif" font-size="10.00">spdk_scheduler_core_info</text>
</a>
</g>
</g>
<!-- Node2 -->
<g id="Node000002" class="node">
<title>Node2</title>
<g id="a_Node000002"><a xlink:href="structspdk__scheduler__thread__info.html" target="_top" xlink:title="Structure representing thread used for scheduling.">
<polygon fill="white" stroke="#666666" points="152.5,-90.25 0,-90.25 0,-69.5 152.5,-69.5 152.5,-90.25"/>
<text text-anchor="middle" x="76.25" y="-76.75" font-family="Helvetica,sans-Serif" font-size="10.00">spdk_scheduler_thread_info</text>
</a>
</g>
</g>
<!-- Node2&#45;&gt;Node1 -->
<g id="edge1_Node000001_Node000002" class="edge">
<title>Node2&#45;&gt;Node1</title>
<g id="a_edge1_Node000001_Node000002"><a xlink:title=" ">
<path fill="none" stroke="#9a32cd" stroke-dasharray="5,2" d="M76.25,-58.07C76.25,-45.72 76.25,-30.65 76.25,-21.03"/>
<polygon fill="#9a32cd" stroke="#9a32cd" points="72.75,-57.69 76.25,-67.69 79.75,-57.69 72.75,-57.69"/>
</a>
</g>
<text text-anchor="middle" x="108.12" y="-42" font-family="Helvetica,sans-Serif" font-size="10.00" fill="grey"> thread_infos</text>
</g>
<!-- Node3 -->
<g id="Node000003" class="node">
<title>Node3</title>
<g id="a_Node000003"><a xlink:href="structspdk__thread__stats.html" target="_top" xlink:title=" ">
<polygon fill="white" stroke="#bfbfbf" points="128.88,-172.5 23.62,-172.5 23.62,-151.75 128.88,-151.75 128.88,-172.5"/>
<text text-anchor="middle" x="76.25" y="-159" font-family="Helvetica,sans-Serif" font-size="10.00">spdk_thread_stats</text>
</a>
</g>
</g>
<!-- Node3&#45;&gt;Node2 -->
<g id="edge2_Node000002_Node000003" class="edge">
<title>Node3&#45;&gt;Node2</title>
<g id="a_edge2_Node000002_Node000003"><a xlink:title=" ">
<path fill="none" stroke="#9a32cd" stroke-dasharray="5,2" d="M76.25,-140.24C76.25,-124.09 76.25,-102.49 76.25,-90.3"/>
<polygon fill="#9a32cd" stroke="#9a32cd" points="72.75,-139.77 76.25,-149.77 79.75,-139.77 72.75,-139.77"/>
</a>
</g>
<text text-anchor="middle" x="109.62" y="-124.25" font-family="Helvetica,sans-Serif" font-size="10.00" fill="grey"> current_stats</text>
<text text-anchor="middle" x="109.62" y="-111.5" font-family="Helvetica,sans-Serif" font-size="10.00" fill="grey">total_stats</text>
</g>
</g>
</svg>
