<?xml version="1.0" encoding="UTF-8" standalone="no"?>
<!DOCTYPE svg PUBLIC "-//W3C//DTD SVG 1.1//EN"
 "http://www.w3.org/Graphics/SVG/1.1/DTD/svg11.dtd">
<!-- Generated by graphviz version 9.0.0 (20230911.1827)
 -->
<!-- Title: spdk_fsdev Pages: 1 -->
<svg width="278pt" height="345pt"
 viewBox="0.00 0.00 278.00 345.00" xmlns="http://www.w3.org/2000/svg" xmlns:xlink="http://www.w3.org/1999/xlink">
<g id="graph0" class="graph" transform="scale(1 1) rotate(0) translate(4 341)">
<title>spdk_fsdev</title>
<!-- Node1 -->
<g id="Node000001" class="node">
<title>Node1</title>
<g id="a_Node000001"><a xlink:title=" ">
<polygon fill="#999999" stroke="#666666" points="235.25,-172.5 163.75,-172.5 163.75,-151.75 235.25,-151.75 235.25,-172.5"/>
<text text-anchor="middle" x="199.5" y="-159" font-family="Helvetica,sans-Serif" font-size="10.00">spdk_fsdev</text>
</a>
</g>
</g>
<!-- Node6 -->
<g id="Node000006" class="node">
<title>Node6</title>
<g id="a_Node000006"><a xlink:href="structspdk__fsdev__name.html" target="_top" xlink:title=" ">
<polygon fill="white" stroke="#bfbfbf" points="207.75,-103 103.25,-103 103.25,-82.25 207.75,-82.25 207.75,-103"/>
<text text-anchor="middle" x="155.5" y="-89.5" font-family="Helvetica,sans-Serif" font-size="10.00">spdk_fsdev_name</text>
</a>
</g>
</g>
<!-- Node1&#45;&gt;Node6 -->
<g id="edge6_Node000006_Node000001" class="edge">
<title>Node1&#45;&gt;Node6</title>
<g id="a_edge6_Node000006_Node000001"><a xlink:title=" ">
<path fill="none" stroke="#9a32cd" stroke-dasharray="5,2" d="M186.93,-141.85C178.71,-129.23 168.32,-113.3 161.79,-103.28"/>
<polygon fill="#9a32cd" stroke="#9a32cd" points="183.98,-143.72 192.37,-150.19 189.84,-139.9 183.98,-143.72"/>
</a>
</g>
<text text-anchor="middle" x="195.5" y="-124.25" font-family="Helvetica,sans-Serif" font-size="10.00" fill="grey"> fsdev</text>
</g>
<!-- Node2 -->
<g id="Node000002" class="node">
<title>Node2</title>
<g id="a_Node000002"><a xlink:href="structspdk__fsdev__module.html" target="_top" xlink:title="Filesystem device module.">
<polygon fill="white" stroke="#666666" points="256.25,-242 142.75,-242 142.75,-221.25 256.25,-221.25 256.25,-242"/>
<text text-anchor="middle" x="199.5" y="-228.5" font-family="Helvetica,sans-Serif" font-size="10.00">spdk_fsdev_module</text>
</a>
</g>
</g>
<!-- Node2&#45;&gt;Node1 -->
<g id="edge1_Node000001_Node000002" class="edge">
<title>Node2&#45;&gt;Node1</title>
<g id="a_edge1_Node000001_Node000002"><a xlink:title=" ">
<path fill="none" stroke="#9a32cd" stroke-dasharray="5,2" d="M199.5,-209.82C199.5,-197.47 199.5,-182.4 199.5,-172.78"/>
<polygon fill="#9a32cd" stroke="#9a32cd" points="196,-209.44 199.5,-219.44 203,-209.44 196,-209.44"/>
</a>
</g>
<text text-anchor="middle" x="220.88" y="-193.75" font-family="Helvetica,sans-Serif" font-size="10.00" fill="grey"> fn_table</text>
</g>
<!-- Node3 -->
<g id="Node000003" class="node">
<title>Node3</title>
<g id="a_Node000003"><a xlink:href="structspdk__fsdev__module_1_1____fsdev__module__internal__fields.html" target="_top" xlink:title="Fields that are used by the internal fsdev subsystem.">
<polygon fill="white" stroke="#666666" points="268.62,-337 130.38,-337 130.38,-290.75 268.62,-290.75 268.62,-337"/>
<text text-anchor="start" x="138.38" y="-323.5" font-family="Helvetica,sans-Serif" font-size="10.00">spdk_fsdev_module::</text>
<text text-anchor="start" x="138.38" y="-310.75" font-family="Helvetica,sans-Serif" font-size="10.00">__fsdev_module_internal</text>
<text text-anchor="middle" x="199.5" y="-298" font-family="Helvetica,sans-Serif" font-size="10.00">_fields</text>
</a>
</g>
</g>
<!-- Node3&#45;&gt;Node2 -->
<g id="edge2_Node000002_Node000003" class="edge">
<title>Node3&#45;&gt;Node2</title>
<g id="a_edge2_Node000002_Node000003"><a xlink:title=" ">
<path fill="none" stroke="#9a32cd" stroke-dasharray="5,2" d="M199.5,-279.25C199.5,-265.96 199.5,-251.7 199.5,-242.5"/>
<polygon fill="#9a32cd" stroke="#9a32cd" points="196,-279.01 199.5,-289.01 203,-279.01 196,-279.01"/>
</a>
</g>
<text text-anchor="middle" x="219.75" y="-263.25" font-family="Helvetica,sans-Serif" font-size="10.00" fill="grey"> internal</text>
</g>
<!-- Node4 -->
<g id="Node000004" class="node">
<title>Node4</title>
<g id="a_Node000004"><a xlink:href="structspdk__fsdev_1_1____fsdev__internal__fields.html" target="_top" xlink:title="Fields that are used internally by the fsdev subsystem.">
<polygon fill="white" stroke="#666666" points="212.62,-33.5 98.38,-33.5 98.38,0 212.62,0 212.62,-33.5"/>
<text text-anchor="start" x="106.38" y="-20" font-family="Helvetica,sans-Serif" font-size="10.00">spdk_fsdev::__fsdev</text>
<text text-anchor="middle" x="155.5" y="-7.25" font-family="Helvetica,sans-Serif" font-size="10.00">_internal_fields</text>
</a>
</g>
</g>
<!-- Node4&#45;&gt;Node1 -->
<g id="edge3_Node000001_Node000004" class="edge">
<title>Node4&#45;&gt;Node1</title>
<g id="a_edge3_Node000001_Node000004"><a xlink:title=" ">
<path fill="none" stroke="#9a32cd" stroke-dasharray="5,2" d="M213.12,-40.55C216.75,-43.75 219.96,-47.38 222.5,-51.5 242.59,-84.12 218.14,-131.45 205.8,-151.54"/>
<polygon fill="#9a32cd" stroke="#9a32cd" points="215.34,-37.83 205.21,-34.73 211.19,-43.47 215.34,-37.83"/>
</a>
</g>
<text text-anchor="middle" x="249.75" y="-89.5" font-family="Helvetica,sans-Serif" font-size="10.00" fill="grey"> internal</text>
</g>
<!-- Node5 -->
<g id="Node000005" class="node">
<title>Node5</title>
<g id="a_Node000005"><a xlink:href="structspdk__spinlock.html" target="_top" xlink:title="A spinlock augmented with safety checks for use with SPDK.">
<polygon fill="white" stroke="#666666" points="85,-103 0,-103 0,-82.25 85,-82.25 85,-103"/>
<text text-anchor="middle" x="42.5" y="-89.5" font-family="Helvetica,sans-Serif" font-size="10.00">spdk_spinlock</text>
</a>
</g>
</g>
<!-- Node5&#45;&gt;Node4 -->
<g id="edge4_Node000004_Node000005" class="edge">
<title>Node5&#45;&gt;Node4</title>
<g id="a_edge4_Node000004_Node000005"><a xlink:title=" ">
<path fill="none" stroke="#9a32cd" stroke-dasharray="5,2" d="M66.68,-75.82C85.58,-63.46 111.75,-46.35 130.79,-33.91"/>
<polygon fill="#9a32cd" stroke="#9a32cd" points="64.99,-72.74 58.54,-81.14 68.82,-78.6 64.99,-72.74"/>
</a>
</g>
<text text-anchor="middle" x="123.25" y="-54.75" font-family="Helvetica,sans-Serif" font-size="10.00" fill="grey"> spinlock</text>
</g>
<!-- Node6&#45;&gt;Node4 -->
<g id="edge5_Node000004_Node000006" class="edge">
<title>Node6&#45;&gt;Node4</title>
<g id="a_edge5_Node000004_Node000006"><a xlink:title=" ">
<path fill="none" stroke="#9a32cd" stroke-dasharray="5,2" d="M155.5,-70.63C155.5,-58.97 155.5,-44.69 155.5,-33.91"/>
<polygon fill="#9a32cd" stroke="#9a32cd" points="152,-70.45 155.5,-80.45 159,-70.45 152,-70.45"/>
</a>
</g>
<text text-anchor="middle" x="187" y="-54.75" font-family="Helvetica,sans-Serif" font-size="10.00" fill="grey"> fsdev_name</text>
</g>
</g>
</svg>
