<?xml version="1.0" encoding="UTF-8" standalone="no"?>
<!DOCTYPE svg PUBLIC "-//W3C//DTD SVG 1.1//EN"
 "http://www.w3.org/Graphics/SVG/1.1/DTD/svg11.dtd">
<!-- Generated by graphviz version 9.0.0 (20230911.1827)
 -->
<!-- Title: spdk_bdev_name Pages: 1 -->
<svg width="586pt" height="181pt"
 viewBox="0.00 0.00 585.75 180.50" xmlns="http://www.w3.org/2000/svg" xmlns:xlink="http://www.w3.org/1999/xlink">
<g id="graph0" class="graph" transform="scale(1 1) rotate(0) translate(4 176.5)">
<title>spdk_bdev_name</title>
<!-- Node1 -->
<g id="Node000001" class="node">
<title>Node1</title>
<g id="a_Node000001"><a xlink:title=" ">
<polygon fill="#999999" stroke="#666666" points="182.25,-172.5 80.75,-172.5 80.75,-151.75 182.25,-151.75 182.25,-172.5"/>
<text text-anchor="middle" x="131.5" y="-159" font-family="Helvetica,sans-Serif" font-size="10.00">spdk_bdev_name</text>
</a>
</g>
</g>
<!-- Node8 -->
<g id="Node000008" class="node">
<title>Node8</title>
<g id="a_Node000008"><a xlink:href="structspdk__bdev_1_1____bdev__internal__fields.html" target="_top" xlink:title="Fields that are used internally by the bdev subsystem.">
<polygon fill="#fff0f0" stroke="red" points="151,-103 0,-103 0,-69.5 151,-69.5 151,-103"/>
<text text-anchor="start" x="8" y="-89.5" font-family="Helvetica,sans-Serif" font-size="10.00">spdk_bdev::__bdev_internal</text>
<text text-anchor="middle" x="75.5" y="-76.75" font-family="Helvetica,sans-Serif" font-size="10.00">_fields</text>
</a>
</g>
</g>
<!-- Node1&#45;&gt;Node8 -->
<g id="edge6_Node000008_Node000001" class="edge">
<title>Node1&#45;&gt;Node8</title>
<g id="a_edge6_Node000008_Node000001"><a xlink:title=" ">
<path fill="none" stroke="#9a32cd" stroke-dasharray="5,2" d="M117.25,-142.33C108.14,-130.31 96.44,-114.88 87.75,-103.41"/>
<polygon fill="#9a32cd" stroke="#9a32cd" points="114.43,-144.41 123.26,-150.26 120.01,-140.18 114.43,-144.41"/>
</a>
</g>
<text text-anchor="middle" x="140.5" y="-124.25" font-family="Helvetica,sans-Serif" font-size="10.00" fill="grey"> bdev_name</text>
</g>
<!-- Node2 -->
<g id="Node000002" class="node">
<title>Node2</title>
<g id="a_Node000002"><a xlink:href="structspdk__bdev.html" target="_top" xlink:title=" ">
<polygon fill="white" stroke="#bfbfbf" points="299.75,-20.75 231.25,-20.75 231.25,0 299.75,0 299.75,-20.75"/>
<text text-anchor="middle" x="265.5" y="-7.25" font-family="Helvetica,sans-Serif" font-size="10.00">spdk_bdev</text>
</a>
</g>
</g>
<!-- Node2&#45;&gt;Node1 -->
<g id="edge1_Node000001_Node000002" class="edge">
<title>Node2&#45;&gt;Node1</title>
<g id="a_edge1_Node000001_Node000002"><a xlink:title=" ">
<path fill="none" stroke="#9a32cd" stroke-dasharray="5,2" d="M240.25,-27.6C225.73,-38.05 208.12,-52.78 196.5,-69.5 179.19,-94.41 192.3,-109.95 173.5,-133.75 167.78,-140.99 159.6,-146.93 151.97,-151.4"/>
<polygon fill="#9a32cd" stroke="#9a32cd" points="242.21,-30.5 248.46,-21.94 238.24,-24.74 242.21,-30.5"/>
</a>
</g>
<text text-anchor="middle" x="210" y="-83.12" font-family="Helvetica,sans-Serif" font-size="10.00" fill="grey"> bdev</text>
</g>
<!-- Node3 -->
<g id="Node000003" class="node">
<title>Node3</title>
<g id="a_Node000003"><a xlink:href="structspdk__uuid.html" target="_top" xlink:title=" ">
<polygon fill="white" stroke="#bfbfbf" points="298.25,-96.62 232.75,-96.62 232.75,-75.88 298.25,-75.88 298.25,-96.62"/>
<text text-anchor="middle" x="265.5" y="-83.12" font-family="Helvetica,sans-Serif" font-size="10.00">spdk_uuid</text>
</a>
</g>
</g>
<!-- Node3&#45;&gt;Node2 -->
<g id="edge2_Node000002_Node000003" class="edge">
<title>Node3&#45;&gt;Node2</title>
<g id="a_edge2_Node000002_Node000003"><a xlink:title=" ">
<path fill="none" stroke="#9a32cd" stroke-dasharray="5,2" d="M265.5,-64.32C265.5,-50 265.5,-31.71 265.5,-20.8"/>
<polygon fill="#9a32cd" stroke="#9a32cd" points="262,-64.08 265.5,-74.08 269,-64.08 262,-64.08"/>
</a>
</g>
<text text-anchor="middle" x="277.5" y="-42" font-family="Helvetica,sans-Serif" font-size="10.00" fill="grey"> uuid</text>
</g>
<!-- Node4 -->
<g id="Node000004" class="node">
<title>Node4</title>
<g id="a_Node000004"><a xlink:href="unionspdk__bdev__nvme__ctratt.html" target="_top" xlink:title="Union for controller attributes field, to list whether bdev supports fdp etc.">
<polygon fill="white" stroke="#666666" points="449,-96.62 316,-96.62 316,-75.88 449,-75.88 449,-96.62"/>
<text text-anchor="middle" x="382.5" y="-83.12" font-family="Helvetica,sans-Serif" font-size="10.00">spdk_bdev_nvme_ctratt</text>
</a>
</g>
</g>
<!-- Node4&#45;&gt;Node2 -->
<g id="edge3_Node000002_Node000004" class="edge">
<title>Node4&#45;&gt;Node2</title>
<g id="a_edge3_Node000002_Node000004"><a xlink:title=" ">
<path fill="none" stroke="#9a32cd" stroke-dasharray="5,2" d="M357.66,-69.57C334.39,-54.87 300.33,-33.37 280.8,-21.04"/>
<polygon fill="#9a32cd" stroke="#9a32cd" points="355.6,-72.4 365.92,-74.78 359.34,-66.49 355.6,-72.4"/>
</a>
</g>
<text text-anchor="middle" x="343.12" y="-42" font-family="Helvetica,sans-Serif" font-size="10.00" fill="grey"> ctratt</text>
</g>
<!-- Node5 -->
<g id="Node000005" class="node">
<title>Node5</title>
<g id="a_Node000005"><a xlink:href="structspdk__bdev__module.html" target="_top" xlink:title="Block device module.">
<polygon fill="#fff0f0" stroke="red" points="577.75,-96.62 467.25,-96.62 467.25,-75.88 577.75,-75.88 577.75,-96.62"/>
<text text-anchor="middle" x="522.5" y="-83.12" font-family="Helvetica,sans-Serif" font-size="10.00">spdk_bdev_module</text>
</a>
</g>
</g>
<!-- Node5&#45;&gt;Node2 -->
<g id="edge4_Node000002_Node000005" class="edge">
<title>Node5&#45;&gt;Node2</title>
<g id="a_edge4_Node000002_Node000005"><a xlink:title=" ">
<path fill="none" stroke="#9a32cd" stroke-dasharray="5,2" d="M477.71,-72.27C445.41,-62.92 400.77,-50.02 361.5,-38.75 341.18,-32.92 318.42,-26.43 300.17,-21.23"/>
<polygon fill="#9a32cd" stroke="#9a32cd" points="476.55,-75.58 487.13,-75 478.5,-68.86 476.55,-75.58"/>
</a>
</g>
<text text-anchor="middle" x="426.88" y="-42" font-family="Helvetica,sans-Serif" font-size="10.00" fill="grey"> fn_table</text>
</g>
<!-- Node8&#45;&gt;Node2 -->
<g id="edge5_Node000002_Node000008" class="edge">
<title>Node8&#45;&gt;Node2</title>
<g id="a_edge5_Node000002_Node000008"><a xlink:title=" ">
<path fill="none" stroke="#9a32cd" stroke-dasharray="5,2" d="M99.44,-61.61C109.15,-53.23 120.92,-44.47 133,-38.75 164.21,-23.98 203.27,-17.15 230.87,-14.01"/>
<polygon fill="#9a32cd" stroke="#9a32cd" points="97.35,-58.78 92.28,-68.08 102.04,-63.97 97.35,-58.78"/>
</a>
</g>
<text text-anchor="middle" x="153.75" y="-42" font-family="Helvetica,sans-Serif" font-size="10.00" fill="grey"> internal</text>
</g>
</g>
</svg>
