<?xml version="1.0" encoding="UTF-8" standalone="no"?>
<!DOCTYPE svg PUBLIC "-//W3C//DTD SVG 1.1//EN"
 "http://www.w3.org/Graphics/SVG/1.1/DTD/svg11.dtd">
<!-- Generated by graphviz version 9.0.0 (20230911.1827)
 -->
<!-- Title: spdk_nvme_tcp_cmd Pages: 1 -->
<!--zoomable 185 -->

<svg id="main" version="1.1" xmlns="http://www.w3.org/2000/svg" xmlns:xlink="http://www.w3.org/1999/xlink" xml:space="preserve" onload="init(evt)">
<style type="text/css"><![CDATA[
.node, .edge {opacity: 0.7;}
.node.selected, .edge.selected {opacity: 1;}
.edge:hover path { stroke: red; }
.edge:hover polygon { stroke: red; fill: red; }
]]></style>

<defs>
  <circle id="rim" cx="0" cy="0" r="7"/>
  <circle id="rim2" cx="0" cy="0" r="3.5"/>
  <g id="zoomPlus">
    <use xlink:href="#rim" fill="#404040"><set attributeName="fill" to="#808080" begin="zoomplus.mouseover" end="zoomplus.mouseout"/></use>
    <path d="M-4,0h8M0,-4v8" fill="none" stroke="white" stroke-width="1.5" pointer-events="none"/>
  </g>
  <g id="zoomMin">
    <use xlink:href="#rim" fill="#404040"><set attributeName="fill" to="#808080" begin="zoomminus.mouseover" end="zoomminus.mouseout"/></use>
    <path d="M-4,0h8" fill="none" stroke="white" stroke-width="1.5" pointer-events="none"/>
  </g>
  <g id="arrowUp" transform="translate(30 24)">
    <use xlink:href="#rim"/>
    <path pointer-events="none" fill="none" stroke="white" stroke-width="1.5" d="M0,-3.0v7 M-2.5,-0.5L0,-3.0L2.5,-0.5"/>
  </g>
  <g id="arrowRight" transform="rotate(90) translate(36 -43)">
    <use xlink:href="#rim"/>
    <path pointer-events="none" fill="none" stroke="white" stroke-width="1.5" d="M0,-3.0v7 M-2.5,-0.5L0,-3.0L2.5,-0.5"/>
  </g>
  <g id="arrowDown" transform="rotate(180) translate(-30 -48)">
    <use xlink:href="#rim"/>
    <path pointer-events="none" fill="none" stroke="white" stroke-width="1.5" d="M0,-3.0v7 M-2.5,-0.5L0,-3.0L2.5,-0.5"/>
  </g>
  <g id="arrowLeft" transform="rotate(270) translate(-36 17)">
    <use xlink:href="#rim"/>
    <path pointer-events="none" fill="none" stroke="white" stroke-width="1.5" d="M0,-3.0v7 M-2.5,-0.5L0,-3.0L2.5,-0.5"/>
  </g>
  <g id="resetDef">
    <use xlink:href="#rim2" fill="#404040"><set attributeName="fill" to="#808080" begin="reset.mouseover" end="reset.mouseout"/></use>
  </g>
</defs>
<script type="application/ecmascript">
var viewWidth = 589;
var viewHeight = 185;
var sectionId = 'dynsection-0';
</script>
<script type="application/ecmascript" xlink:href="svg.min.js"/>
<svg id="graph" class="graph">
<g id="viewport">
<title>spdk_nvme_tcp_cmd</title>
<!-- Node1 -->
<g id="Node000001" class="node">
<title>Node1</title>
<g id="a_Node000001"><a xlink:title="CapsuleCmd.">
<polygon fill="#999999" stroke="#666666" points="580.5,-121.75 461.75,-121.75 461.75,-101 580.5,-101 580.5,-121.75"/>
<text text-anchor="middle" x="521.12" y="-108.25" font-family="Helvetica,sans-Serif" font-size="10.00">spdk_nvme_tcp_cmd</text>
</a>
</g>
</g>
<!-- Node2 -->
<g id="Node000002" class="node">
<title>Node2</title>
<g id="a_Node000002"><a xlink:href="structspdk__nvme__tcp__common__pdu__hdr.html" target="_top" xlink:title="Common NVMe/TCP PDU header.">
<polygon fill="white" stroke="#666666" points="380,-150.12 239.5,-150.12 239.5,-116.62 380,-116.62 380,-150.12"/>
<text text-anchor="start" x="247.5" y="-136.62" font-family="Helvetica,sans-Serif" font-size="10.00">spdk_nvme_tcp_common</text>
<text text-anchor="middle" x="309.75" y="-123.88" font-family="Helvetica,sans-Serif" font-size="10.00">_pdu_hdr</text>
</a>
</g>
</g>
<!-- Node2&#45;&gt;Node1 -->
<g id="edge1_Node000001_Node000002" class="edge">
<title>Node2&#45;&gt;Node1</title>
<g id="a_edge1_Node000001_Node000002"><a xlink:title=" ">
<path fill="none" stroke="#9a32cd" stroke-dasharray="5,2" d="M391.74,-124.87C415,-122.42 439.91,-119.8 461.54,-117.53"/>
<polygon fill="#9a32cd" stroke="#9a32cd" points="391.55,-121.37 381.97,-125.89 392.29,-128.33 391.55,-121.37"/>
</a>
</g>
<text text-anchor="middle" x="420.88" y="-126.62" font-family="Helvetica,sans-Serif" font-size="10.00" fill="grey"> common</text>
</g>
<!-- Node3 -->
<g id="Node000003" class="node">
<title>Node3</title>
<g id="a_Node000003"><a xlink:href="structspdk__nvme__cmd.html" target="_top" xlink:title=" ">
<polygon fill="white" stroke="#bfbfbf" points="359,-98.75 260.5,-98.75 260.5,-78 359,-78 359,-98.75"/>
<text text-anchor="middle" x="309.75" y="-85.25" font-family="Helvetica,sans-Serif" font-size="10.00">spdk_nvme_cmd</text>
</a>
</g>
</g>
<!-- Node3&#45;&gt;Node1 -->
<g id="edge2_Node000001_Node000003" class="edge">
<title>Node3&#45;&gt;Node1</title>
<g id="a_edge2_Node000001_Node000003"><a xlink:title=" ">
<path fill="none" stroke="#9a32cd" stroke-dasharray="5,2" d="M370.67,-94.7C393.54,-97.14 419.86,-99.98 443.75,-102.62 449.45,-103.26 455.4,-103.92 461.34,-104.6"/>
<polygon fill="#9a32cd" stroke="#9a32cd" points="371.22,-91.24 360.91,-93.66 370.48,-98.2 371.22,-91.24"/>
</a>
</g>
<text text-anchor="middle" x="420.88" y="-105.62" font-family="Helvetica,sans-Serif" font-size="10.00" fill="grey"> ccsqe</text>
</g>
<!-- Node4 -->
<g id="Node000004" class="node">
<title>Node4</title>
<g id="a_Node000004"><a xlink:href="structspdk__nvme__sgl__descriptor.html" target="_top" xlink:title=" ">
<polygon fill="white" stroke="#bfbfbf" points="145.75,-176.75 0,-176.75 0,-156 145.75,-156 145.75,-176.75"/>
<text text-anchor="middle" x="72.88" y="-163.25" font-family="Helvetica,sans-Serif" font-size="10.00">spdk_nvme_sgl_descriptor</text>
</a>
</g>
</g>
<!-- Node4&#45;&gt;Node3 -->
<g id="edge3_Node000003_Node000004" class="edge">
<title>Node4&#45;&gt;Node3</title>
<g id="a_edge3_Node000003_Node000004"><a xlink:title=" ">
<path fill="none" stroke="#9a32cd" stroke-dasharray="5,2" d="M157.34,-157.07C179.46,-151.89 202.46,-143.85 221.5,-131.38 232.65,-124.07 228.48,-114.88 239.5,-107.38 245.68,-103.17 252.77,-99.89 260,-97.33"/>
<polygon fill="#9a32cd" stroke="#9a32cd" points="156.75,-153.61 147.7,-159.14 158.22,-160.46 156.75,-153.61"/>
</a>
</g>
<text text-anchor="middle" x="192.62" y="-157.62" font-family="Helvetica,sans-Serif" font-size="10.00" fill="grey"> sgl1</text>
</g>
<!-- Node5 -->
<g id="Node000005" class="node">
<title>Node5</title>
<g id="a_Node000005"><a xlink:href="unionspdk__nvme__cmd__cdw10.html" target="_top" xlink:title=" ">
<polygon fill="white" stroke="#bfbfbf" points="140.5,-137.75 5.25,-137.75 5.25,-117 140.5,-117 140.5,-137.75"/>
<text text-anchor="middle" x="72.88" y="-124.25" font-family="Helvetica,sans-Serif" font-size="10.00">spdk_nvme_cmd_cdw10</text>
</a>
</g>
</g>
<!-- Node5&#45;&gt;Node3 -->
<g id="edge4_Node000003_Node000005" class="edge">
<title>Node5&#45;&gt;Node3</title>
<g id="a_edge4_Node000003_Node000005"><a xlink:title=" ">
<path fill="none" stroke="#9a32cd" stroke-dasharray="5,2" d="M152.04,-116.39C174.5,-113.05 199,-109.24 221.5,-105.38 234.12,-103.21 247.73,-100.66 260.36,-98.2"/>
<polygon fill="#9a32cd" stroke="#9a32cd" points="151.73,-112.9 142.35,-117.82 152.75,-119.82 151.73,-112.9"/>
</a>
</g>
<text text-anchor="middle" x="192.62" y="-117.62" font-family="Helvetica,sans-Serif" font-size="10.00" fill="grey"> cdw10_bits</text>
</g>
<!-- Node6 -->
<g id="Node000006" class="node">
<title>Node6</title>
<g id="a_Node000006"><a xlink:href="unionspdk__nvme__cmd__cdw11.html" target="_top" xlink:title=" ">
<polygon fill="white" stroke="orangered" points="140.5,-98.75 5.25,-98.75 5.25,-78 140.5,-78 140.5,-98.75"/>
<text text-anchor="middle" x="72.88" y="-85.25" font-family="Helvetica,sans-Serif" font-size="10.00">spdk_nvme_cmd_cdw11</text>
</a>
</g>
</g>
<!-- Node6&#45;&gt;Node3 -->
<g id="edge5_Node000003_Node000006" class="edge">
<title>Node6&#45;&gt;Node3</title>
<g id="a_edge5_Node000003_Node000006"><a xlink:title=" ">
<path fill="none" stroke="#9a32cd" stroke-dasharray="5,2" d="M152.26,-88.38C188,-88.38 229.19,-88.38 260.33,-88.38"/>
<polygon fill="#9a32cd" stroke="#9a32cd" points="152.38,-84.88 142.38,-88.38 152.38,-91.88 152.38,-84.88"/>
</a>
</g>
<text text-anchor="middle" x="192.62" y="-91.62" font-family="Helvetica,sans-Serif" font-size="10.00" fill="grey"> cdw11_bits</text>
</g>
<!-- Node25 -->
<g id="Node000025" class="node">
<title>Node25</title>
<g id="a_Node000025"><a xlink:href="unionspdk__nvme__cmd__cdw12.html" target="_top" xlink:title=" ">
<polygon fill="white" stroke="orangered" points="140.5,-59.75 5.25,-59.75 5.25,-39 140.5,-39 140.5,-59.75"/>
<text text-anchor="middle" x="72.88" y="-46.25" font-family="Helvetica,sans-Serif" font-size="10.00">spdk_nvme_cmd_cdw12</text>
</a>
</g>
</g>
<!-- Node25&#45;&gt;Node3 -->
<g id="edge6_Node000003_Node000025" class="edge">
<title>Node25&#45;&gt;Node3</title>
<g id="a_edge6_Node000003_Node000025"><a xlink:title=" ">
<path fill="none" stroke="#9a32cd" stroke-dasharray="5,2" d="M152.03,-60.56C174.49,-63.93 198.99,-67.77 221.5,-71.62 234.12,-73.79 247.73,-76.31 260.36,-78.73"/>
<polygon fill="#9a32cd" stroke="#9a32cd" points="152.74,-57.13 142.34,-59.11 151.71,-64.05 152.74,-57.13"/>
</a>
</g>
<text text-anchor="middle" x="192.62" y="-74.62" font-family="Helvetica,sans-Serif" font-size="10.00" fill="grey"> cdw12_bits</text>
</g>
<!-- Node28 -->
<g id="Node000028" class="node">
<title>Node28</title>
<g id="a_Node000028"><a xlink:href="unionspdk__nvme__cmd__cdw13.html" target="_top" xlink:title=" ">
<polygon fill="white" stroke="#bfbfbf" points="140.5,-20.75 5.25,-20.75 5.25,0 140.5,0 140.5,-20.75"/>
<text text-anchor="middle" x="72.88" y="-7.25" font-family="Helvetica,sans-Serif" font-size="10.00">spdk_nvme_cmd_cdw13</text>
</a>
</g>
</g>
<!-- Node28&#45;&gt;Node3 -->
<g id="edge7_Node000003_Node000028" class="edge">
<title>Node28&#45;&gt;Node3</title>
<g id="a_edge7_Node000003_Node000028"><a xlink:title=" ">
<path fill="none" stroke="#9a32cd" stroke-dasharray="5,2" d="M143.45,-23.66C168.42,-29.3 196.56,-36.66 221.5,-45.62 245.95,-54.41 272.55,-68.1 289.88,-77.61"/>
<polygon fill="#9a32cd" stroke="#9a32cd" points="144.23,-20.25 133.71,-21.52 142.72,-27.09 144.23,-20.25"/>
</a>
</g>
<text text-anchor="middle" x="192.62" y="-48.62" font-family="Helvetica,sans-Serif" font-size="10.00" fill="grey"> cdw13_bits</text>
</g>
</g>
</svg>

<g id="navigator" transform="translate(0 0)" fill="#404254">
  <rect fill="#f2f5e9" fill-opacity="0.5" stroke="#606060" stroke-width=".5" x="0" y="0" width="60" height="60"/>
  <use id="zoomplus" xlink:href="#zoomPlus" x="17" y="9" onmousedown="handleZoom(evt,'in')"/>
  <use id="zoomminus" xlink:href="#zoomMin" x="42" y="9" onmousedown="handleZoom(evt,'out')"/>
  <use id="reset" xlink:href="#resetDef" x="30" y="36" onmousedown="handleReset()"/>
   <use id="arrowup" xlink:href="#arrowUp" x="0" y="0" onmousedown="handlePan(0,-1)"/>
  <use id="arrowright" xlink:href="#arrowRight" x="0" y="0" onmousedown="handlePan(1,0)"/>
  <use id="arrowdown" xlink:href="#arrowDown" x="0" y="0" onmousedown="handlePan(0,1)"/>
  <use id="arrowleft" xlink:href="#arrowLeft" x="0" y="0" onmousedown="handlePan(-1,0)"/>
</g>
<svg viewBox="0 0 15 15" width="100%" height="30px" preserveAspectRatio="xMaxYMin meet">
 <g id="arrow_out" transform="scale(0.3 0.3)">
  <a xlink:href="structspdk__nvme__tcp__cmd__coll__graph_org.svg" target="_base">
   <rect id="button" ry="5" rx="5" y="6" x="6" height="38" width="38"
        fill="#f2f5e9" fill-opacity="0.5" stroke="#606060" stroke-width="1.0"/>
   <path id="arrow"
     d="M 11.500037,31.436501 C 11.940474,20.09759 22.043105,11.32322 32.158766,21.979434 L 37.068811,17.246167 C 37.068811,17.246167 37.088388,32 37.088388,32 L 22.160133,31.978069 C 22.160133,31.978069 26.997745,27.140456 26.997745,27.140456 C 18.528582,18.264221 13.291696,25.230495 11.500037,31.436501 z"
     style="fill:#404040;"/>
  </a>
 </g>
</svg>

<style type='text/css'>
<![CDATA[
[data-mouse-over-selected='false'] { opacity: 0.7; }
[data-mouse-over-selected='true']  { opacity: 1.0; }
]]>
</style>
<script type="application/ecmascript"><![CDATA[
document.addEventListener('DOMContentLoaded', (event) => {
  highlightEdges();
  highlightAdjacentNodes();
});
]]></script>
</svg>
