<?xml version="1.0" encoding="UTF-8" standalone="no"?>
<!DOCTYPE svg PUBLIC "-//W3C//DTD SVG 1.1//EN"
 "http://www.w3.org/Graphics/SVG/1.1/DTD/svg11.dtd">
<!-- Generated by graphviz version 9.0.0 (20230911.1827)
 -->
<!-- Title: spdk_nvmf_qpair Pages: 1 -->
<!--zoomable 328 -->

<svg id="main" version="1.1" xmlns="http://www.w3.org/2000/svg" xmlns:xlink="http://www.w3.org/1999/xlink" xml:space="preserve" onload="init(evt)">
<style type="text/css"><![CDATA[
.node, .edge {opacity: 0.7;}
.node.selected, .edge.selected {opacity: 1;}
.edge:hover path { stroke: red; }
.edge:hover polygon { stroke: red; fill: red; }
]]></style>

<defs>
  <circle id="rim" cx="0" cy="0" r="7"/>
  <circle id="rim2" cx="0" cy="0" r="3.5"/>
  <g id="zoomPlus">
    <use xlink:href="#rim" fill="#404040"><set attributeName="fill" to="#808080" begin="zoomplus.mouseover" end="zoomplus.mouseout"/></use>
    <path d="M-4,0h8M0,-4v8" fill="none" stroke="white" stroke-width="1.5" pointer-events="none"/>
  </g>
  <g id="zoomMin">
    <use xlink:href="#rim" fill="#404040"><set attributeName="fill" to="#808080" begin="zoomminus.mouseover" end="zoomminus.mouseout"/></use>
    <path d="M-4,0h8" fill="none" stroke="white" stroke-width="1.5" pointer-events="none"/>
  </g>
  <g id="arrowUp" transform="translate(30 24)">
    <use xlink:href="#rim"/>
    <path pointer-events="none" fill="none" stroke="white" stroke-width="1.5" d="M0,-3.0v7 M-2.5,-0.5L0,-3.0L2.5,-0.5"/>
  </g>
  <g id="arrowRight" transform="rotate(90) translate(36 -43)">
    <use xlink:href="#rim"/>
    <path pointer-events="none" fill="none" stroke="white" stroke-width="1.5" d="M0,-3.0v7 M-2.5,-0.5L0,-3.0L2.5,-0.5"/>
  </g>
  <g id="arrowDown" transform="rotate(180) translate(-30 -48)">
    <use xlink:href="#rim"/>
    <path pointer-events="none" fill="none" stroke="white" stroke-width="1.5" d="M0,-3.0v7 M-2.5,-0.5L0,-3.0L2.5,-0.5"/>
  </g>
  <g id="arrowLeft" transform="rotate(270) translate(-36 17)">
    <use xlink:href="#rim"/>
    <path pointer-events="none" fill="none" stroke="white" stroke-width="1.5" d="M0,-3.0v7 M-2.5,-0.5L0,-3.0L2.5,-0.5"/>
  </g>
  <g id="resetDef">
    <use xlink:href="#rim2" fill="#404040"><set attributeName="fill" to="#808080" begin="reset.mouseover" end="reset.mouseout"/></use>
  </g>
</defs>
<script type="application/ecmascript">
var viewWidth = 788;
var viewHeight = 328;
var sectionId = 'dynsection-0';
</script>
<script type="application/ecmascript" xlink:href="svg.min.js"/>
<svg id="graph" class="graph">
<g id="viewport">
<title>spdk_nvmf_qpair</title>
<!-- Node1 -->
<g id="Node000001" class="node">
<title>Node1</title>
<g id="a_Node000001"><a xlink:title=" ">
<polygon fill="#999999" stroke="#666666" points="536.25,-54.75 436.25,-54.75 436.25,-34 536.25,-34 536.25,-54.75"/>
<text text-anchor="middle" x="486.25" y="-41.25" font-family="Helvetica,sans-Serif" font-size="10.00">spdk_nvmf_qpair</text>
</a>
</g>
</g>
<!-- Node15 -->
<g id="Node000015" class="node">
<title>Node15</title>
<g id="a_Node000015"><a xlink:href="structspdk__nvmf__request.html" target="_top" xlink:title=" ">
<polygon fill="white" stroke="#bfbfbf" points="780.25,-202.75 668.25,-202.75 668.25,-182 780.25,-182 780.25,-202.75"/>
<text text-anchor="middle" x="724.25" y="-189.25" font-family="Helvetica,sans-Serif" font-size="10.00">spdk_nvmf_request</text>
</a>
</g>
</g>
<!-- Node1&#45;&gt;Node15 -->
<g id="edge7_Node000015_Node000001" class="edge">
<title>Node1&#45;&gt;Node15</title>
<g id="a_edge7_Node000015_Node000001"><a xlink:title=" ">
<path fill="none" stroke="#9a32cd" stroke-dasharray="5,2" d="M547.7,-35.09C580.5,-33.18 620.33,-36.25 650.25,-55.62 696.56,-85.61 715.51,-155.26 721.23,-181.83"/>
<polygon fill="#9a32cd" stroke="#9a32cd" points="547.63,-31.58 537.93,-35.83 548.17,-38.56 547.63,-31.58"/>
</a>
</g>
<text text-anchor="middle" x="612.75" y="-58.62" font-family="Helvetica,sans-Serif" font-size="10.00" fill="grey"> qpair</text>
</g>
<!-- Node2 -->
<g id="Node000002" class="node">
<title>Node2</title>
<g id="a_Node000002"><a xlink:href="structspdk__nvmf__transport.html" target="_top" xlink:title=" ">
<polygon fill="white" stroke="#bfbfbf" points="328.62,-92.75 209.12,-92.75 209.12,-72 328.62,-72 328.62,-92.75"/>
<text text-anchor="middle" x="268.88" y="-79.25" font-family="Helvetica,sans-Serif" font-size="10.00">spdk_nvmf_transport</text>
</a>
</g>
</g>
<!-- Node2&#45;&gt;Node1 -->
<g id="edge1_Node000001_Node000002" class="edge">
<title>Node2&#45;&gt;Node1</title>
<g id="a_edge1_Node000001_Node000002"><a xlink:title=" ">
<path fill="none" stroke="#9a32cd" stroke-dasharray="5,2" d="M318.51,-68.73C328.85,-66.13 339.74,-63.6 350,-61.62 378.24,-56.19 410.14,-52.03 435.87,-49.16"/>
<polygon fill="#9a32cd" stroke="#9a32cd" points="317.83,-65.29 309.02,-71.19 319.58,-72.07 317.83,-65.29"/>
</a>
</g>
<text text-anchor="middle" x="373.62" y="-64.62" font-family="Helvetica,sans-Serif" font-size="10.00" fill="grey"> transport</text>
</g>
<!-- Node3 -->
<g id="Node000003" class="node">
<title>Node3</title>
<g id="a_Node000003"><a xlink:href="structspdk__nvmf__transport__ops.html" target="_top" xlink:title=" ">
<polygon fill="white" stroke="orangered" points="557.25,-93.75 415.25,-93.75 415.25,-73 557.25,-73 557.25,-93.75"/>
<text text-anchor="middle" x="486.25" y="-80.25" font-family="Helvetica,sans-Serif" font-size="10.00">spdk_nvmf_transport_ops</text>
</a>
</g>
</g>
<!-- Node2&#45;&gt;Node3 -->
<g id="edge3_Node000003_Node000002" class="edge">
<title>Node2&#45;&gt;Node3</title>
<g id="a_edge3_Node000003_Node000002"><a xlink:title=" ">
<path fill="none" stroke="#9a32cd" stroke-dasharray="5,2" d="M340.23,-79.82C343.54,-79.75 346.8,-79.68 350,-79.62 371,-79.26 376.25,-79.18 397.25,-79.62 403.06,-79.75 409.08,-79.92 415.13,-80.12"/>
<polygon fill="#9a32cd" stroke="#9a32cd" points="340.36,-76.32 330.45,-80.08 340.54,-83.32 340.36,-76.32"/>
</a>
</g>
<text text-anchor="middle" x="373.62" y="-82.62" font-family="Helvetica,sans-Serif" font-size="10.00" fill="grey"> create</text>
</g>
<!-- Node3&#45;&gt;Node2 -->
<g id="edge2_Node000002_Node000003" class="edge">
<title>Node3&#45;&gt;Node2</title>
<g id="a_edge2_Node000002_Node000003"><a xlink:title=" ">
<path fill="none" stroke="#9a32cd" stroke-dasharray="5,2" d="M410.58,-95.44C390.88,-97.28 369.65,-98.08 350,-96.38 341.7,-95.66 332.97,-94.52 324.45,-93.21"/>
<polygon fill="#9a32cd" stroke="#9a32cd" points="410.88,-98.93 420.46,-94.4 410.15,-91.96 410.88,-98.93"/>
</a>
</g>
<text text-anchor="middle" x="373.62" y="-99.62" font-family="Helvetica,sans-Serif" font-size="10.00" fill="grey"> ops</text>
</g>
<!-- Node11 -->
<g id="Node000011" class="node">
<title>Node11</title>
<g id="a_Node000011"><a xlink:href="structspdk__nvmf__transport__opts.html" target="_top" xlink:title=" ">
<polygon fill="white" stroke="orangered" points="145.75,-92.75 0,-92.75 0,-72 145.75,-72 145.75,-92.75"/>
<text text-anchor="middle" x="72.88" y="-79.25" font-family="Helvetica,sans-Serif" font-size="10.00">spdk_nvmf_transport_opts</text>
</a>
</g>
</g>
<!-- Node11&#45;&gt;Node2 -->
<g id="edge4_Node000002_Node000011" class="edge">
<title>Node11&#45;&gt;Node2</title>
<g id="a_edge4_Node000002_Node000011"><a xlink:title=" ">
<path fill="none" stroke="#9a32cd" stroke-dasharray="5,2" d="M157.4,-82.38C174.73,-82.38 192.65,-82.38 208.88,-82.38"/>
<polygon fill="#9a32cd" stroke="#9a32cd" points="157.63,-78.88 147.63,-82.38 157.63,-85.88 157.63,-78.88"/>
</a>
</g>
<text text-anchor="middle" x="175.75" y="-85.62" font-family="Helvetica,sans-Serif" font-size="10.00" fill="grey"> opts</text>
</g>
<!-- Node9 -->
<g id="Node000009" class="node">
<title>Node9</title>
<g id="a_Node000009"><a xlink:href="structspdk__nvmf__poll__group.html" target="_top" xlink:title=" ">
<polygon fill="white" stroke="orangered" points="332,-20.75 205.75,-20.75 205.75,0 332,0 332,-20.75"/>
<text text-anchor="middle" x="268.88" y="-7.25" font-family="Helvetica,sans-Serif" font-size="10.00">spdk_nvmf_poll_group</text>
</a>
</g>
</g>
<!-- Node9&#45;&gt;Node1 -->
<g id="edge5_Node000001_Node000009" class="edge">
<title>Node9&#45;&gt;Node1</title>
<g id="a_edge5_Node000001_Node000009"><a xlink:title=" ">
<path fill="none" stroke="#9a32cd" stroke-dasharray="5,2" d="M343.88,-6.78C361.48,-7.12 380.13,-8.45 397.25,-11.62 420.33,-15.9 445.29,-25.73 462.71,-33.51"/>
<polygon fill="#9a32cd" stroke="#9a32cd" points="344.02,-3.28 334,-6.71 343.97,-10.28 344.02,-3.28"/>
</a>
</g>
<text text-anchor="middle" x="373.62" y="-15.62" font-family="Helvetica,sans-Serif" font-size="10.00" fill="grey"> group</text>
</g>
<!-- Node15&#45;&gt;Node1 -->
<g id="edge6_Node000001_Node000015" class="edge">
<title>Node15&#45;&gt;Node1</title>
<g id="a_edge6_Node000001_Node000015"><a xlink:title=" ">
<path fill="none" stroke="#9a32cd" stroke-dasharray="5,2" d="M706.69,-173.13C692.63,-157.44 671.4,-135.27 650.25,-118.88 612.39,-89.52 601.3,-83.22 557.25,-64.38 549.12,-60.9 540.2,-57.82 531.53,-55.2"/>
<polygon fill="#9a32cd" stroke="#9a32cd" points="703.86,-175.2 713.09,-180.39 709.11,-170.57 703.86,-175.2"/>
</a>
</g>
<text text-anchor="middle" x="612.75" y="-134.38" font-family="Helvetica,sans-Serif" font-size="10.00" fill="grey"> connect_req</text>
<text text-anchor="middle" x="612.75" y="-121.62" font-family="Helvetica,sans-Serif" font-size="10.00" fill="grey">first_fused_req</text>
</g>
<!-- Node15&#45;&gt;Node15 -->
<g id="edge11_Node000015_Node000015" class="edge">
<title>Node15&#45;&gt;Node15</title>
<g id="a_edge11_Node000015_Node000015"><a xlink:title=" ">
<path fill="none" stroke="#9a32cd" stroke-dasharray="5,2" d="M704.86,-214.56C707.61,-218.23 714.07,-220.75 724.25,-220.75 743.41,-220.75 749.4,-211.81 742.22,-203.15"/>
<polygon fill="#9a32cd" stroke="#9a32cd" points="708.33,-215.01 706.1,-204.65 701.39,-214.14 708.33,-215.01"/>
</a>
</g>
<text text-anchor="middle" x="724.25" y="-249.5" font-family="Helvetica,sans-Serif" font-size="10.00" fill="grey"> cmd_cb_fn</text>
<text text-anchor="middle" x="724.25" y="-236.75" font-family="Helvetica,sans-Serif" font-size="10.00" fill="grey">first_fused_req</text>
<text text-anchor="middle" x="724.25" y="-224" font-family="Helvetica,sans-Serif" font-size="10.00" fill="grey">req_to_abort</text>
</g>
<!-- Node16 -->
<g id="Node000016" class="node">
<title>Node16</title>
<g id="a_Node000016"><a xlink:href="unionnvmf__h2c__msg.html" target="_top" xlink:title=" ">
<polygon fill="white" stroke="orangered" points="531.38,-319.75 441.12,-319.75 441.12,-299 531.38,-299 531.38,-319.75"/>
<text text-anchor="middle" x="486.25" y="-306.25" font-family="Helvetica,sans-Serif" font-size="10.00">nvmf_h2c_msg</text>
</a>
</g>
</g>
<!-- Node16&#45;&gt;Node15 -->
<g id="edge8_Node000015_Node000016" class="edge">
<title>Node16&#45;&gt;Node15</title>
<g id="a_edge8_Node000015_Node000016"><a xlink:title=" ">
<path fill="none" stroke="#9a32cd" stroke-dasharray="5,2" d="M543.09,-306.06C576.11,-302.06 617.7,-293.34 650.25,-274.38 681.05,-256.43 705.8,-220.95 716.91,-203.13"/>
<polygon fill="#9a32cd" stroke="#9a32cd" points="542.87,-302.57 533.31,-307.13 543.62,-309.53 542.87,-302.57"/>
</a>
</g>
<text text-anchor="middle" x="612.75" y="-302.62" font-family="Helvetica,sans-Serif" font-size="10.00" fill="grey"> cmd</text>
</g>
<!-- Node49 -->
<g id="Node000049" class="node">
<title>Node49</title>
<g id="a_Node000049"><a xlink:href="unionnvmf__c2h__msg.html" target="_top" xlink:title=" ">
<polygon fill="white" stroke="orangered" points="531.38,-280.75 441.12,-280.75 441.12,-260 531.38,-260 531.38,-280.75"/>
<text text-anchor="middle" x="486.25" y="-267.25" font-family="Helvetica,sans-Serif" font-size="10.00">nvmf_c2h_msg</text>
</a>
</g>
</g>
<!-- Node49&#45;&gt;Node15 -->
<g id="edge9_Node000015_Node000049" class="edge">
<title>Node49&#45;&gt;Node15</title>
<g id="a_edge9_Node000015_Node000049"><a xlink:title=" ">
<path fill="none" stroke="#9a32cd" stroke-dasharray="5,2" d="M542.69,-264.1C574.89,-259.25 615.78,-250.99 650.25,-237.38 672.27,-228.68 695.1,-213.43 709.23,-203.12"/>
<polygon fill="#9a32cd" stroke="#9a32cd" points="542.59,-260.58 533.19,-265.46 543.59,-267.5 542.59,-260.58"/>
</a>
</g>
<text text-anchor="middle" x="612.75" y="-260.62" font-family="Helvetica,sans-Serif" font-size="10.00" fill="grey"> rsp</text>
</g>
<!-- Node54 -->
<g id="Node000054" class="node">
<title>Node54</title>
<g id="a_Node000054"><a xlink:href="structspdk__bdev__io__wait__entry.html" target="_top" xlink:title="Structure to register a callback when an spdk_bdev_io becomes available.">
<polygon fill="#fff0f0" stroke="red" points="556.12,-241.75 416.38,-241.75 416.38,-221 556.12,-221 556.12,-241.75"/>
<text text-anchor="middle" x="486.25" y="-228.25" font-family="Helvetica,sans-Serif" font-size="10.00">spdk_bdev_io_wait_entry</text>
</a>
</g>
</g>
<!-- Node54&#45;&gt;Node15 -->
<g id="edge10_Node000015_Node000054" class="edge">
<title>Node54&#45;&gt;Node15</title>
<g id="a_edge10_Node000015_Node000054"><a xlink:title=" ">
<path fill="none" stroke="#9a32cd" stroke-dasharray="5,2" d="M567.6,-222.07C594.01,-218.6 623.46,-214.29 650.25,-209.38 659.85,-207.61 670.09,-205.43 679.77,-203.21"/>
<polygon fill="#9a32cd" stroke="#9a32cd" points="567.45,-218.56 557.98,-223.31 568.35,-225.5 567.45,-218.56"/>
</a>
</g>
<text text-anchor="middle" x="612.75" y="-223.62" font-family="Helvetica,sans-Serif" font-size="10.00" fill="grey"> bdev_io_wait</text>
</g>
<!-- Node65 -->
<g id="Node000065" class="node">
<title>Node65</title>
<g id="a_Node000065"><a xlink:href="structspdk__bdev__io.html" target="_top" xlink:title=" ">
<polygon fill="white" stroke="orangered" points="527.62,-202.75 444.88,-202.75 444.88,-182 527.62,-182 527.62,-202.75"/>
<text text-anchor="middle" x="486.25" y="-189.25" font-family="Helvetica,sans-Serif" font-size="10.00">spdk_bdev_io</text>
</a>
</g>
</g>
<!-- Node65&#45;&gt;Node15 -->
<g id="edge12_Node000015_Node000065" class="edge">
<title>Node65&#45;&gt;Node15</title>
<g id="a_edge12_Node000015_Node000065"><a xlink:title=" ">
<path fill="none" stroke="#9a32cd" stroke-dasharray="5,2" d="M539.45,-192.38C577.54,-192.38 629.08,-192.38 667.89,-192.38"/>
<polygon fill="#9a32cd" stroke="#9a32cd" points="539.6,-188.88 529.6,-192.38 539.6,-195.88 539.6,-188.88"/>
</a>
</g>
<text text-anchor="middle" x="612.75" y="-195.62" font-family="Helvetica,sans-Serif" font-size="10.00" fill="grey"> zcopy_bdev_io</text>
</g>
<!-- Node76 -->
<g id="Node000076" class="node">
<title>Node76</title>
<g id="a_Node000076"><a xlink:href="structspdk__iobuf__entry.html" target="_top" xlink:title="iobuf queue entry">
<polygon fill="white" stroke="#666666" points="536.25,-132.75 436.25,-132.75 436.25,-112 536.25,-112 536.25,-132.75"/>
<text text-anchor="middle" x="486.25" y="-119.25" font-family="Helvetica,sans-Serif" font-size="10.00">spdk_iobuf_entry</text>
</a>
</g>
</g>
<!-- Node76&#45;&gt;Node15 -->
<g id="edge13_Node000015_Node000076" class="edge">
<title>Node76&#45;&gt;Node15</title>
<g id="a_edge13_Node000015_Node000076"><a xlink:title=" ">
<path fill="none" stroke="#9a32cd" stroke-dasharray="5,2" d="M534.79,-136.48C579.71,-149.8 646.12,-169.5 686.94,-181.6"/>
<polygon fill="#9a32cd" stroke="#9a32cd" points="535.9,-133.15 525.32,-133.67 533.91,-139.87 535.9,-133.15"/>
</a>
</g>
<text text-anchor="middle" x="612.75" y="-172.62" font-family="Helvetica,sans-Serif" font-size="10.00" fill="grey"> entry</text>
</g>
<!-- Node76&#45;&gt;Node76 -->
<g id="edge14_Node000076_Node000076" class="edge">
<title>Node76&#45;&gt;Node76</title>
<g id="a_edge14_Node000076_Node000076"><a xlink:title=" ">
<path fill="none" stroke="#9a32cd" stroke-dasharray="5,2" d="M466.67,-144.56C469.44,-148.23 475.97,-150.75 486.25,-150.75 505.61,-150.75 511.66,-141.81 504.4,-133.15"/>
<polygon fill="#9a32cd" stroke="#9a32cd" points="470.14,-145.01 467.91,-134.65 463.19,-144.13 470.14,-145.01"/>
</a>
</g>
<text text-anchor="middle" x="486.25" y="-154" font-family="Helvetica,sans-Serif" font-size="10.00" fill="grey"> cb_fn</text>
</g>
</g>
</svg>

<g id="navigator" transform="translate(0 0)" fill="#404254">
  <rect fill="#f2f5e9" fill-opacity="0.5" stroke="#606060" stroke-width=".5" x="0" y="0" width="60" height="60"/>
  <use id="zoomplus" xlink:href="#zoomPlus" x="17" y="9" onmousedown="handleZoom(evt,'in')"/>
  <use id="zoomminus" xlink:href="#zoomMin" x="42" y="9" onmousedown="handleZoom(evt,'out')"/>
  <use id="reset" xlink:href="#resetDef" x="30" y="36" onmousedown="handleReset()"/>
   <use id="arrowup" xlink:href="#arrowUp" x="0" y="0" onmousedown="handlePan(0,-1)"/>
  <use id="arrowright" xlink:href="#arrowRight" x="0" y="0" onmousedown="handlePan(1,0)"/>
  <use id="arrowdown" xlink:href="#arrowDown" x="0" y="0" onmousedown="handlePan(0,1)"/>
  <use id="arrowleft" xlink:href="#arrowLeft" x="0" y="0" onmousedown="handlePan(-1,0)"/>
</g>
<svg viewBox="0 0 15 15" width="100%" height="30px" preserveAspectRatio="xMaxYMin meet">
 <g id="arrow_out" transform="scale(0.3 0.3)">
  <a xlink:href="structspdk__nvmf__qpair__coll__graph_org.svg" target="_base">
   <rect id="button" ry="5" rx="5" y="6" x="6" height="38" width="38"
        fill="#f2f5e9" fill-opacity="0.5" stroke="#606060" stroke-width="1.0"/>
   <path id="arrow"
     d="M 11.500037,31.436501 C 11.940474,20.09759 22.043105,11.32322 32.158766,21.979434 L 37.068811,17.246167 C 37.068811,17.246167 37.088388,32 37.088388,32 L 22.160133,31.978069 C 22.160133,31.978069 26.997745,27.140456 26.997745,27.140456 C 18.528582,18.264221 13.291696,25.230495 11.500037,31.436501 z"
     style="fill:#404040;"/>
  </a>
 </g>
</svg>

<style type='text/css'>
<![CDATA[
[data-mouse-over-selected='false'] { opacity: 0.7; }
[data-mouse-over-selected='true']  { opacity: 1.0; }
]]>
</style>
<script type="application/ecmascript"><![CDATA[
document.addEventListener('DOMContentLoaded', (event) => {
  highlightEdges();
  highlightAdjacentNodes();
});
]]></script>
</svg>
