<?xml version="1.0" encoding="UTF-8" standalone="no"?>
<!DOCTYPE svg PUBLIC "-//W3C//DTD SVG 1.1//EN"
 "http://www.w3.org/Graphics/SVG/1.1/DTD/svg11.dtd">
<!-- Generated by graphviz version 9.0.0 (20230911.1827)
 -->
<!-- Title: spdk_iobuf_channel Pages: 1 -->
<svg width="140pt" height="181pt"
 viewBox="0.00 0.00 140.25 180.50" xmlns="http://www.w3.org/2000/svg" xmlns:xlink="http://www.w3.org/1999/xlink">
<g id="graph0" class="graph" transform="scale(1 1) rotate(0) translate(4 176.5)">
<title>spdk_iobuf_channel</title>
<!-- Node1 -->
<g id="Node000001" class="node">
<title>Node1</title>
<g id="a_Node000001"><a xlink:title="iobuf channel">
<polygon fill="#999999" stroke="#666666" points="122.5,-20.75 9.75,-20.75 9.75,0 122.5,0 122.5,-20.75"/>
<text text-anchor="middle" x="66.12" y="-7.25" font-family="Helvetica,sans-Serif" font-size="10.00">spdk_iobuf_channel</text>
</a>
</g>
</g>
<!-- Node2 -->
<g id="Node000002" class="node">
<title>Node2</title>
<g id="a_Node000002"><a xlink:href="structspdk__iobuf__node__cache.html" target="_top" xlink:title=" ">
<polygon fill="white" stroke="#bfbfbf" points="132.25,-90.25 0,-90.25 0,-69.5 132.25,-69.5 132.25,-90.25"/>
<text text-anchor="middle" x="66.12" y="-76.75" font-family="Helvetica,sans-Serif" font-size="10.00">spdk_iobuf_node_cache</text>
</a>
</g>
</g>
<!-- Node2&#45;&gt;Node1 -->
<g id="edge1_Node000001_Node000002" class="edge">
<title>Node2&#45;&gt;Node1</title>
<g id="a_edge1_Node000001_Node000002"><a xlink:title=" ">
<path fill="none" stroke="#9a32cd" stroke-dasharray="5,2" d="M66.12,-58.07C66.12,-45.72 66.12,-30.65 66.12,-21.03"/>
<polygon fill="#9a32cd" stroke="#9a32cd" points="62.63,-57.69 66.13,-67.69 69.63,-57.69 62.63,-57.69"/>
</a>
</g>
<text text-anchor="middle" x="81.88" y="-42" font-family="Helvetica,sans-Serif" font-size="10.00" fill="grey"> cache</text>
</g>
<!-- Node3 -->
<g id="Node000003" class="node">
<title>Node3</title>
<g id="a_Node000003"><a xlink:href="structspdk__iobuf__pool__cache.html" target="_top" xlink:title=" ">
<polygon fill="white" stroke="orangered" points="130.75,-172.5 1.5,-172.5 1.5,-151.75 130.75,-151.75 130.75,-172.5"/>
<text text-anchor="middle" x="66.12" y="-159" font-family="Helvetica,sans-Serif" font-size="10.00">spdk_iobuf_pool_cache</text>
</a>
</g>
</g>
<!-- Node3&#45;&gt;Node2 -->
<g id="edge2_Node000002_Node000003" class="edge">
<title>Node3&#45;&gt;Node2</title>
<g id="a_edge2_Node000002_Node000003"><a xlink:title=" ">
<path fill="none" stroke="#9a32cd" stroke-dasharray="5,2" d="M66.12,-140.24C66.12,-124.09 66.12,-102.49 66.12,-90.3"/>
<polygon fill="#9a32cd" stroke="#9a32cd" points="62.63,-139.77 66.13,-149.77 69.63,-139.77 62.63,-139.77"/>
</a>
</g>
<text text-anchor="middle" x="80" y="-124.25" font-family="Helvetica,sans-Serif" font-size="10.00" fill="grey"> large</text>
<text text-anchor="middle" x="80" y="-111.5" font-family="Helvetica,sans-Serif" font-size="10.00" fill="grey">small</text>
</g>
</g>
</svg>
