<?xml version="1.0" encoding="UTF-8" standalone="no"?>
<!DOCTYPE svg PUBLIC "-//W3C//DTD SVG 1.1//EN"
 "http://www.w3.org/Graphics/SVG/1.1/DTD/svg11.dtd">
<!-- Generated by graphviz version 9.0.0 (20230911.1827)
 -->
<!-- Title: spdk_bdev_io_block_params Pages: 1 -->
<svg width="502pt" height="111pt"
 viewBox="0.00 0.00 502.00 111.00" xmlns="http://www.w3.org/2000/svg" xmlns:xlink="http://www.w3.org/1999/xlink">
<g id="graph0" class="graph" transform="scale(1 1) rotate(0) translate(4 107)">
<title>spdk_bdev_io_block_params</title>
<!-- Node1 -->
<g id="Node000001" class="node">
<title>Node1</title>
<g id="a_Node000001"><a xlink:title=" ">
<polygon fill="#999999" stroke="#666666" points="345.25,-33.5 231,-33.5 231,0 345.25,0 345.25,-33.5"/>
<text text-anchor="start" x="239" y="-20" font-family="Helvetica,sans-Serif" font-size="10.00">spdk_bdev_io_block</text>
<text text-anchor="middle" x="288.12" y="-7.25" font-family="Helvetica,sans-Serif" font-size="10.00">_params</text>
</a>
</g>
</g>
<!-- Node2 -->
<g id="Node000002" class="node">
<title>Node2</title>
<g id="a_Node000002"><a xlink:href="unionspdk__bdev__nvme__cdw12.html" target="_top" xlink:title="Union for command dword 12, which by convention matches the NVMe command dword 12 definition.">
<polygon fill="white" stroke="#666666" points="138.25,-103 0,-103 0,-82.25 138.25,-82.25 138.25,-103"/>
<text text-anchor="middle" x="69.12" y="-89.5" font-family="Helvetica,sans-Serif" font-size="10.00">spdk_bdev_nvme_cdw12</text>
</a>
</g>
</g>
<!-- Node2&#45;&gt;Node1 -->
<g id="edge1_Node000001_Node000002" class="edge">
<title>Node2&#45;&gt;Node1</title>
<g id="a_edge1_Node000001_Node000002"><a xlink:title=" ">
<path fill="none" stroke="#9a32cd" stroke-dasharray="5,2" d="M105.11,-77.72C126.14,-69.75 153.27,-59.72 177.62,-51.5 195.49,-45.47 215.14,-39.32 232.84,-33.95"/>
<polygon fill="#9a32cd" stroke="#9a32cd" points="103.92,-74.43 95.82,-81.26 106.41,-80.97 103.92,-74.43"/>
</a>
</g>
<text text-anchor="middle" x="211.88" y="-54.75" font-family="Helvetica,sans-Serif" font-size="10.00" fill="grey"> nvme_cdw12</text>
</g>
<!-- Node3 -->
<g id="Node000003" class="node">
<title>Node3</title>
<g id="a_Node000003"><a xlink:href="unionspdk__bdev__nvme__cdw13.html" target="_top" xlink:title="Union for command dword 13, which by convention matches the NVMe command dword 13 definition.">
<polygon fill="white" stroke="#666666" points="294.25,-103 156,-103 156,-82.25 294.25,-82.25 294.25,-103"/>
<text text-anchor="middle" x="225.12" y="-89.5" font-family="Helvetica,sans-Serif" font-size="10.00">spdk_bdev_nvme_cdw13</text>
</a>
</g>
</g>
<!-- Node3&#45;&gt;Node1 -->
<g id="edge2_Node000001_Node000003" class="edge">
<title>Node3&#45;&gt;Node1</title>
<g id="a_edge2_Node000001_Node000003"><a xlink:title=" ">
<path fill="none" stroke="#9a32cd" stroke-dasharray="5,2" d="M240.54,-73.55C250.88,-61.43 264.37,-45.61 274.35,-33.91"/>
<polygon fill="#9a32cd" stroke="#9a32cd" points="238.17,-70.94 234.34,-80.82 243.5,-75.48 238.17,-70.94"/>
</a>
</g>
<text text-anchor="middle" x="291.88" y="-54.75" font-family="Helvetica,sans-Serif" font-size="10.00" fill="grey"> nvme_cdw13</text>
</g>
<!-- Node4 -->
<g id="Node000004" class="node">
<title>Node4</title>
<g id="a_Node000004"><a xlink:href="structspdk__dif__ctx.html" target="_top" xlink:title="DIF context information.">
<polygon fill="white" stroke="#666666" points="389.88,-103 312.38,-103 312.38,-82.25 389.88,-82.25 389.88,-103"/>
<text text-anchor="middle" x="351.12" y="-89.5" font-family="Helvetica,sans-Serif" font-size="10.00">spdk_dif_ctx</text>
</a>
</g>
</g>
<!-- Node4&#45;&gt;Node1 -->
<g id="edge3_Node000001_Node000004" class="edge">
<title>Node4&#45;&gt;Node1</title>
<g id="a_edge3_Node000001_Node000004"><a xlink:title=" ">
<path fill="none" stroke="#9a32cd" stroke-dasharray="5,2" d="M342.33,-72.12C338.75,-65.24 334.25,-57.68 329.12,-51.5 323.83,-45.11 317.19,-39.04 310.81,-33.86"/>
<polygon fill="#9a32cd" stroke="#9a32cd" points="338.99,-73.24 346.49,-80.72 345.29,-70.19 338.99,-73.24"/>
</a>
</g>
<text text-anchor="middle" x="355.12" y="-54.75" font-family="Helvetica,sans-Serif" font-size="10.00" fill="grey"> dif_ctx</text>
</g>
<!-- Node5 -->
<g id="Node000005" class="node">
<title>Node5</title>
<g id="a_Node000005"><a xlink:href="structspdk__dif__error.html" target="_top" xlink:title="DIF error information.">
<polygon fill="white" stroke="#666666" points="494,-103 408.25,-103 408.25,-82.25 494,-82.25 494,-103"/>
<text text-anchor="middle" x="451.12" y="-89.5" font-family="Helvetica,sans-Serif" font-size="10.00">spdk_dif_error</text>
</a>
</g>
</g>
<!-- Node5&#45;&gt;Node1 -->
<g id="edge4_Node000001_Node000005" class="edge">
<title>Node5&#45;&gt;Node1</title>
<g id="a_edge4_Node000001_Node000005"><a xlink:title=" ">
<path fill="none" stroke="#9a32cd" stroke-dasharray="5,2" d="M424.82,-76.24C410.88,-68.38 393.32,-58.92 377.12,-51.5 363.45,-45.24 348.26,-39.16 334.34,-33.93"/>
<polygon fill="#9a32cd" stroke="#9a32cd" points="422.97,-79.21 433.38,-81.14 426.44,-73.14 422.97,-79.21"/>
</a>
</g>
<text text-anchor="middle" x="418.38" y="-54.75" font-family="Helvetica,sans-Serif" font-size="10.00" fill="grey"> dif_err</text>
</g>
</g>
</svg>
