<?xml version="1.0" encoding="UTF-8" standalone="no"?>
<!DOCTYPE svg PUBLIC "-//W3C//DTD SVG 1.1//EN"
 "http://www.w3.org/Graphics/SVG/1.1/DTD/svg11.dtd">
<!-- Generated by graphviz version 9.0.0 (20230911.1827)
 -->
<!-- Title: spdk_trace_section_tpoint Pages: 1 -->
<svg width="130pt" height="181pt"
 viewBox="0.00 0.00 129.75 180.50" xmlns="http://www.w3.org/2000/svg" xmlns:xlink="http://www.w3.org/1999/xlink">
<g id="graph0" class="graph" transform="scale(1 1) rotate(0) translate(4 176.5)">
<title>spdk_trace_section_tpoint</title>
<!-- Node1 -->
<g id="Node000001" class="node">
<title>Node1</title>
<g id="a_Node000001"><a xlink:title=" ">
<polygon fill="#999999" stroke="#666666" points="115.75,-33.5 6,-33.5 6,0 115.75,0 115.75,-33.5"/>
<text text-anchor="start" x="14" y="-20" font-family="Helvetica,sans-Serif" font-size="10.00">spdk_trace_section</text>
<text text-anchor="middle" x="60.88" y="-7.25" font-family="Helvetica,sans-Serif" font-size="10.00">_tpoint</text>
</a>
</g>
</g>
<!-- Node2 -->
<g id="Node000002" class="node">
<title>Node2</title>
<g id="a_Node000002"><a xlink:href="structspdk__trace__tpoint.html" target="_top" xlink:title=" ">
<polygon fill="white" stroke="#bfbfbf" points="112.38,-103 9.38,-103 9.38,-82.25 112.38,-82.25 112.38,-103"/>
<text text-anchor="middle" x="60.88" y="-89.5" font-family="Helvetica,sans-Serif" font-size="10.00">spdk_trace_tpoint</text>
</a>
</g>
</g>
<!-- Node2&#45;&gt;Node1 -->
<g id="edge1_Node000001_Node000002" class="edge">
<title>Node2&#45;&gt;Node1</title>
<g id="a_edge1_Node000001_Node000002"><a xlink:title=" ">
<path fill="none" stroke="#9a32cd" stroke-dasharray="5,2" d="M60.88,-70.63C60.88,-58.97 60.88,-44.69 60.88,-33.91"/>
<polygon fill="#9a32cd" stroke="#9a32cd" points="57.38,-70.45 60.88,-80.45 64.38,-70.45 57.38,-70.45"/>
</a>
</g>
<text text-anchor="middle" x="76.62" y="-54.75" font-family="Helvetica,sans-Serif" font-size="10.00" fill="grey"> tpoint</text>
</g>
<!-- Node3 -->
<g id="Node000003" class="node">
<title>Node3</title>
<g id="a_Node000003"><a xlink:href="structspdk__trace__argument.html" target="_top" xlink:title=" ">
<polygon fill="white" stroke="#bfbfbf" points="121.75,-172.5 0,-172.5 0,-151.75 121.75,-151.75 121.75,-172.5"/>
<text text-anchor="middle" x="60.88" y="-159" font-family="Helvetica,sans-Serif" font-size="10.00">spdk_trace_argument</text>
</a>
</g>
</g>
<!-- Node3&#45;&gt;Node2 -->
<g id="edge2_Node000002_Node000003" class="edge">
<title>Node3&#45;&gt;Node2</title>
<g id="a_edge2_Node000002_Node000003"><a xlink:title=" ">
<path fill="none" stroke="#9a32cd" stroke-dasharray="5,2" d="M60.88,-140.32C60.88,-127.97 60.88,-112.9 60.88,-103.28"/>
<polygon fill="#9a32cd" stroke="#9a32cd" points="57.38,-139.94 60.88,-149.94 64.38,-139.94 57.38,-139.94"/>
</a>
</g>
<text text-anchor="middle" x="72.88" y="-124.25" font-family="Helvetica,sans-Serif" font-size="10.00" fill="grey"> args</text>
</g>
</g>
</svg>
