<?xml version="1.0" encoding="UTF-8" standalone="no"?>
<!DOCTYPE svg PUBLIC "-//W3C//DTD SVG 1.1//EN"
 "http://www.w3.org/Graphics/SVG/1.1/DTD/svg11.dtd">
<!-- Generated by graphviz version 9.0.0 (20230911.1827)
 -->
<!-- Title: spdk_scsi_task Pages: 1 -->
<svg width="175pt" height="173pt"
 viewBox="0.00 0.00 175.12 172.50" xmlns="http://www.w3.org/2000/svg" xmlns:xlink="http://www.w3.org/1999/xlink">
<g id="graph0" class="graph" transform="scale(1 1) rotate(0) translate(4 168.5)">
<title>spdk_scsi_task</title>
<!-- Node1 -->
<g id="Node000001" class="node">
<title>Node1</title>
<g id="a_Node000001"><a xlink:title=" ">
<polygon fill="#999999" stroke="#666666" points="114.62,-23.12 25.12,-23.12 25.12,-2.38 114.62,-2.38 114.62,-23.12"/>
<text text-anchor="middle" x="69.88" y="-9.62" font-family="Helvetica,sans-Serif" font-size="10.00">spdk_scsi_task</text>
</a>
</g>
</g>
<!-- Node1&#45;&gt;Node1 -->
<g id="edge1_Node000001_Node000001" class="edge">
<title>Node1&#45;&gt;Node1</title>
<g id="a_edge1_Node000001_Node000001"><a xlink:title=" ">
<path fill="none" stroke="#9a32cd" stroke-dasharray="5,2" d="M126.07,-17.88C130.14,-16.73 132.62,-15.01 132.62,-12.75 132.62,-8.83 125.18,-6.57 115,-5.96"/>
<polygon fill="#9a32cd" stroke="#9a32cd" points="125.87,-14.38 116.5,-19.32 126.9,-21.3 125.87,-14.38"/>
</a>
</g>
<text text-anchor="middle" x="149.88" y="-16" font-family="Helvetica,sans-Serif" font-size="10.00" fill="grey"> cpl_fn</text>
<text text-anchor="middle" x="149.88" y="-3.25" font-family="Helvetica,sans-Serif" font-size="10.00" fill="grey">free_fn</text>
</g>
<!-- Node2 -->
<g id="Node000002" class="node">
<title>Node2</title>
<g id="a_Node000002"><a xlink:href="structspdk__bdev__io__wait__entry.html" target="_top" xlink:title="Structure to register a callback when an spdk_bdev_io becomes available.">
<polygon fill="white" stroke="#666666" points="139.75,-95 0,-95 0,-74.25 139.75,-74.25 139.75,-95"/>
<text text-anchor="middle" x="69.88" y="-81.5" font-family="Helvetica,sans-Serif" font-size="10.00">spdk_bdev_io_wait_entry</text>
</a>
</g>
</g>
<!-- Node2&#45;&gt;Node1 -->
<g id="edge2_Node000001_Node000002" class="edge">
<title>Node2&#45;&gt;Node1</title>
<g id="a_edge2_Node000001_Node000002"><a xlink:title=" ">
<path fill="none" stroke="#9a32cd" stroke-dasharray="5,2" d="M69.88,-62.66C69.88,-49.62 69.88,-33.47 69.88,-23.38"/>
<polygon fill="#9a32cd" stroke="#9a32cd" points="66.38,-62.4 69.88,-72.4 73.38,-62.4 66.38,-62.4"/>
</a>
</g>
<text text-anchor="middle" x="103.62" y="-46.75" font-family="Helvetica,sans-Serif" font-size="10.00" fill="grey"> bdev_io_wait</text>
</g>
<!-- Node3 -->
<g id="Node000003" class="node">
<title>Node3</title>
<g id="a_Node000003"><a xlink:href="structspdk__bdev.html" target="_top" xlink:title=" ">
<polygon fill="white" stroke="orangered" points="104.12,-164.5 35.62,-164.5 35.62,-143.75 104.12,-143.75 104.12,-164.5"/>
<text text-anchor="middle" x="69.88" y="-151" font-family="Helvetica,sans-Serif" font-size="10.00">spdk_bdev</text>
</a>
</g>
</g>
<!-- Node3&#45;&gt;Node2 -->
<g id="edge3_Node000002_Node000003" class="edge">
<title>Node3&#45;&gt;Node2</title>
<g id="a_edge3_Node000002_Node000003"><a xlink:title=" ">
<path fill="none" stroke="#9a32cd" stroke-dasharray="5,2" d="M69.88,-132.32C69.88,-119.97 69.88,-104.9 69.88,-95.28"/>
<polygon fill="#9a32cd" stroke="#9a32cd" points="66.38,-131.94 69.88,-141.94 73.38,-131.94 66.38,-131.94"/>
</a>
</g>
<text text-anchor="middle" x="83.38" y="-116.25" font-family="Helvetica,sans-Serif" font-size="10.00" fill="grey"> bdev</text>
</g>
</g>
</svg>
