<?xml version="1.0" encoding="UTF-8" standalone="no"?>
<!DOCTYPE svg PUBLIC "-//W3C//DTD SVG 1.1//EN"
 "http://www.w3.org/Graphics/SVG/1.1/DTD/svg11.dtd">
<!-- Generated by graphviz version 9.0.0 (20230911.1827)
 -->
<!-- Title: spdk_pci_device Pages: 1 -->
<svg width="333pt" height="111pt"
 viewBox="0.00 0.00 333.25 111.00" xmlns="http://www.w3.org/2000/svg" xmlns:xlink="http://www.w3.org/1999/xlink">

<svg id="main" version="1.1" xmlns="http://www.w3.org/2000/svg" xmlns:xlink="http://www.w3.org/1999/xlink" xml:space="preserve" onload="init(evt)">
<style type="text/css"><![CDATA[
.node, .edge {opacity: 0.7;}
.node.selected, .edge.selected {opacity: 1;}
.edge:hover path { stroke: red; }
.edge:hover polygon { stroke: red; fill: red; }
]]></style>
<script type="application/ecmascript" xlink:href="svg.min.js"/>
<svg id="graph" class="graph">
<g id="graph0" class="graph" transform="scale(1 1) rotate(0) translate(4 107)">
<title>spdk_pci_device</title>
<!-- Node1 -->
<g id="Node000001" class="node">
<title>Node1</title>
<g id="a_Node000001"><a xlink:title=" ">
<polygon fill="#999999" stroke="#666666" points="188,-20.75 91.75,-20.75 91.75,0 188,0 188,-20.75"/>
<text text-anchor="middle" x="139.88" y="-7.25" font-family="Helvetica,sans-Serif" font-size="10.00">spdk_pci_device</text>
</a>
</g>
</g>
<!-- Node1&#45;&gt;Node1 -->
<g id="edge1_Node000001_Node000001" class="edge">
<title>Node1&#45;&gt;Node1</title>
<g id="a_edge1_Node000001_Node000001"><a xlink:title=" ">
<path fill="none" stroke="#9a32cd" stroke-dasharray="5,2" d="M199.45,-15.09C203.52,-14.01 206,-12.43 206,-10.38 206,-6.81 198.58,-4.71 188.31,-4.07"/>
<polygon fill="#9a32cd" stroke="#9a32cd" points="199.22,-11.59 189.81,-16.47 200.21,-18.52 199.22,-11.59"/>
</a>
</g>
<text text-anchor="middle" x="223.25" y="-7.25" font-family="Helvetica,sans-Serif" font-size="10.00" fill="grey"> parent</text>
</g>
<!-- Node2 -->
<g id="Node000002" class="node">
<title>Node2</title>
<g id="a_Node000002"><a xlink:href="structspdk__pci__addr.html" target="_top" xlink:title=" ">
<polygon fill="white" stroke="#bfbfbf" points="85.75,-96.62 0,-96.62 0,-75.88 85.75,-75.88 85.75,-96.62"/>
<text text-anchor="middle" x="42.88" y="-83.12" font-family="Helvetica,sans-Serif" font-size="10.00">spdk_pci_addr</text>
</a>
</g>
</g>
<!-- Node2&#45;&gt;Node1 -->
<g id="edge2_Node000001_Node000002" class="edge">
<title>Node2&#45;&gt;Node1</title>
<g id="a_edge2_Node000001_Node000002"><a xlink:title=" ">
<path fill="none" stroke="#9a32cd" stroke-dasharray="5,2" d="M64.51,-68.77C83.77,-54.1 111.29,-33.15 127.19,-21.04"/>
<polygon fill="#9a32cd" stroke="#9a32cd" points="62.6,-65.83 56.76,-74.68 66.84,-71.4 62.6,-65.83"/>
</a>
</g>
<text text-anchor="middle" x="116.25" y="-42" font-family="Helvetica,sans-Serif" font-size="10.00" fill="grey"> addr</text>
</g>
<!-- Node3 -->
<g id="Node000003" class="node">
<title>Node3</title>
<g id="a_Node000003"><a xlink:href="structspdk__pci__id.html" target="_top" xlink:title=" ">
<polygon fill="white" stroke="#bfbfbf" points="176.38,-96.62 103.38,-96.62 103.38,-75.88 176.38,-75.88 176.38,-96.62"/>
<text text-anchor="middle" x="139.88" y="-83.12" font-family="Helvetica,sans-Serif" font-size="10.00">spdk_pci_id</text>
</a>
</g>
</g>
<!-- Node3&#45;&gt;Node1 -->
<g id="edge3_Node000001_Node000003" class="edge">
<title>Node3&#45;&gt;Node1</title>
<g id="a_edge3_Node000001_Node000003"><a xlink:title=" ">
<path fill="none" stroke="#9a32cd" stroke-dasharray="5,2" d="M139.88,-64.32C139.88,-50 139.88,-31.71 139.88,-20.8"/>
<polygon fill="#9a32cd" stroke="#9a32cd" points="136.38,-64.08 139.88,-74.08 143.38,-64.08 136.38,-64.08"/>
</a>
</g>
<text text-anchor="middle" x="145.88" y="-42" font-family="Helvetica,sans-Serif" font-size="10.00" fill="grey"> id</text>
</g>
<!-- Node4 -->
<g id="Node000004" class="node">
<title>Node4</title>
<g id="a_Node000004"><a xlink:href="structspdk__pci__device_1_1__spdk__pci__device__internal.html" target="_top" xlink:title=" ">
<polygon fill="white" stroke="#bfbfbf" points="325.25,-103 194.5,-103 194.5,-69.5 325.25,-69.5 325.25,-103"/>
<text text-anchor="start" x="202.5" y="-89.5" font-family="Helvetica,sans-Serif" font-size="10.00">spdk_pci_device::_spdk</text>
<text text-anchor="middle" x="259.88" y="-76.75" font-family="Helvetica,sans-Serif" font-size="10.00">_pci_device_internal</text>
</a>
</g>
</g>
<!-- Node4&#45;&gt;Node1 -->
<g id="edge4_Node000001_Node000004" class="edge">
<title>Node4&#45;&gt;Node1</title>
<g id="a_edge4_Node000001_Node000004"><a xlink:title=" ">
<path fill="none" stroke="#9a32cd" stroke-dasharray="5,2" d="M223.9,-63.1C201.25,-49.16 173.13,-31.85 155.84,-21.21"/>
<polygon fill="#9a32cd" stroke="#9a32cd" points="221.9,-65.98 232.25,-68.24 225.57,-60.02 221.9,-65.98"/>
</a>
</g>
<text text-anchor="middle" x="223.12" y="-42" font-family="Helvetica,sans-Serif" font-size="10.00" fill="grey"> internal</text>
</g>
</g>
</svg>
</svg>

<style type='text/css'>
<![CDATA[
[data-mouse-over-selected='false'] { opacity: 0.7; }
[data-mouse-over-selected='true']  { opacity: 1.0; }
]]>
</style>
<script type="application/ecmascript"><![CDATA[
document.addEventListener('DOMContentLoaded', (event) => {
  highlightEdges();
  highlightAdjacentNodes();
});
]]></script>
</svg>
