<?xml version="1.0" encoding="UTF-8" standalone="no"?>
<!DOCTYPE svg PUBLIC "-//W3C//DTD SVG 1.1//EN"
 "http://www.w3.org/Graphics/SVG/1.1/DTD/svg11.dtd">
<!-- Generated by graphviz version 9.0.0 (20230911.1827)
 -->
<!-- Title: spdk_fsdev::__fsdev_internal_fields Pages: 1 -->
<svg width="176pt" height="250pt"
 viewBox="0.00 0.00 175.75 250.00" xmlns="http://www.w3.org/2000/svg" xmlns:xlink="http://www.w3.org/1999/xlink">
<g id="graph0" class="graph" transform="scale(1 1) rotate(0) translate(4 246)">
<title>spdk_fsdev::__fsdev_internal_fields</title>
<!-- Node1 -->
<g id="Node000001" class="node">
<title>Node1</title>
<g id="a_Node000001"><a xlink:title="Fields that are used internally by the fsdev subsystem.">
<polygon fill="#999999" stroke="#666666" points="128.88,-172.5 14.62,-172.5 14.62,-139 128.88,-139 128.88,-172.5"/>
<text text-anchor="start" x="22.62" y="-159" font-family="Helvetica,sans-Serif" font-size="10.00">spdk_fsdev::__fsdev</text>
<text text-anchor="middle" x="71.75" y="-146.25" font-family="Helvetica,sans-Serif" font-size="10.00">_internal_fields</text>
</a>
</g>
</g>
<!-- Node4 -->
<g id="Node000004" class="node">
<title>Node4</title>
<g id="a_Node000004"><a xlink:href="structspdk__fsdev.html" target="_top" xlink:title=" ">
<polygon fill="white" stroke="orangered" points="71.5,-90.25 0,-90.25 0,-69.5 71.5,-69.5 71.5,-90.25"/>
<text text-anchor="middle" x="35.75" y="-76.75" font-family="Helvetica,sans-Serif" font-size="10.00">spdk_fsdev</text>
</a>
</g>
</g>
<!-- Node1&#45;&gt;Node4 -->
<g id="edge4_Node000004_Node000001" class="edge">
<title>Node1&#45;&gt;Node4</title>
<g id="a_edge4_Node000004_Node000001"><a xlink:title=" ">
<path fill="none" stroke="#9a32cd" stroke-dasharray="5,2" d="M57.26,-128.87C55.87,-126.23 54.51,-123.57 53.25,-121 48.23,-110.77 43.08,-98.75 39.68,-90.55"/>
<polygon fill="#9a32cd" stroke="#9a32cd" points="54.05,-130.3 61.89,-137.44 60.21,-126.97 54.05,-130.3"/>
</a>
</g>
<text text-anchor="middle" x="74" y="-111.5" font-family="Helvetica,sans-Serif" font-size="10.00" fill="grey"> internal</text>
</g>
<!-- Node2 -->
<g id="Node000002" class="node">
<title>Node2</title>
<g id="a_Node000002"><a xlink:href="structspdk__spinlock.html" target="_top" xlink:title="A spinlock augmented with safety checks for use with SPDK.">
<polygon fill="white" stroke="#666666" points="114.25,-242 29.25,-242 29.25,-221.25 114.25,-221.25 114.25,-242"/>
<text text-anchor="middle" x="71.75" y="-228.5" font-family="Helvetica,sans-Serif" font-size="10.00">spdk_spinlock</text>
</a>
</g>
</g>
<!-- Node2&#45;&gt;Node1 -->
<g id="edge1_Node000001_Node000002" class="edge">
<title>Node2&#45;&gt;Node1</title>
<g id="a_edge1_Node000001_Node000002"><a xlink:title=" ">
<path fill="none" stroke="#9a32cd" stroke-dasharray="5,2" d="M71.75,-209.63C71.75,-197.97 71.75,-183.69 71.75,-172.91"/>
<polygon fill="#9a32cd" stroke="#9a32cd" points="68.25,-209.45 71.75,-219.45 75.25,-209.45 68.25,-209.45"/>
</a>
</g>
<text text-anchor="middle" x="93.5" y="-193.75" font-family="Helvetica,sans-Serif" font-size="10.00" fill="grey"> spinlock</text>
</g>
<!-- Node3 -->
<g id="Node000003" class="node">
<title>Node3</title>
<g id="a_Node000003"><a xlink:href="structspdk__fsdev__name.html" target="_top" xlink:title=" ">
<polygon fill="white" stroke="#bfbfbf" points="124,-20.75 19.5,-20.75 19.5,0 124,0 124,-20.75"/>
<text text-anchor="middle" x="71.75" y="-7.25" font-family="Helvetica,sans-Serif" font-size="10.00">spdk_fsdev_name</text>
</a>
</g>
</g>
<!-- Node3&#45;&gt;Node1 -->
<g id="edge2_Node000001_Node000003" class="edge">
<title>Node3&#45;&gt;Node1</title>
<g id="a_edge2_Node000001_Node000003"><a xlink:title=" ">
<path fill="none" stroke="#9a32cd" stroke-dasharray="5,2" d="M87.84,-30.5C89.41,-33.14 90.78,-35.92 91.75,-38.75 116.15,-110.01 98.74,-104.2 93.75,-121 91.92,-127.17 88.56,-133.26 85.01,-138.54"/>
<polygon fill="#9a32cd" stroke="#9a32cd" points="90.72,-28.51 82.05,-22.42 85.03,-32.58 90.72,-28.51"/>
</a>
</g>
<text text-anchor="middle" x="136.25" y="-76.75" font-family="Helvetica,sans-Serif" font-size="10.00" fill="grey"> fsdev_name</text>
</g>
<!-- Node4&#45;&gt;Node3 -->
<g id="edge3_Node000003_Node000004" class="edge">
<title>Node4&#45;&gt;Node3</title>
<g id="a_edge3_Node000003_Node000004"><a xlink:title=" ">
<path fill="none" stroke="#9a32cd" stroke-dasharray="5,2" d="M46.23,-59.22C52.93,-46.67 61.31,-30.95 66.6,-21.03"/>
<polygon fill="#9a32cd" stroke="#9a32cd" points="43.24,-57.4 41.62,-67.87 49.41,-60.69 43.24,-57.4"/>
</a>
</g>
<text text-anchor="middle" x="72.75" y="-42" font-family="Helvetica,sans-Serif" font-size="10.00" fill="grey"> fsdev</text>
</g>
</g>
</svg>
