<?xml version="1.0" encoding="UTF-8" standalone="no"?>
<!DOCTYPE svg PUBLIC "-//W3C//DTD SVG 1.1//EN"
 "http://www.w3.org/Graphics/SVG/1.1/DTD/svg11.dtd">
<!-- Generated by graphviz version 9.0.0 (20230911.1827)
 -->
<!-- Title: spdk_nvmf_fc_ls_acc_hdr Pages: 1 -->
<svg width="242pt" height="168pt"
 viewBox="0.00 0.00 241.75 167.75" xmlns="http://www.w3.org/2000/svg" xmlns:xlink="http://www.w3.org/1999/xlink">
<g id="graph0" class="graph" transform="scale(1 1) rotate(0) translate(4 163.75)">
<title>spdk_nvmf_fc_ls_acc_hdr</title>
<!-- Node1 -->
<g id="Node000001" class="node">
<title>Node1</title>
<g id="a_Node000001"><a xlink:title=" ">
<polygon fill="#999999" stroke="#666666" points="140.88,-20.75 0.38,-20.75 0.38,0 140.88,0 140.88,-20.75"/>
<text text-anchor="middle" x="70.62" y="-7.25" font-family="Helvetica,sans-Serif" font-size="10.00">spdk_nvmf_fc_ls_acc_hdr</text>
</a>
</g>
</g>
<!-- Node2 -->
<g id="Node000002" class="node">
<title>Node2</title>
<g id="a_Node000002"><a xlink:href="structspdk__nvmf__fc__ls__rqst__w0.html" target="_top" xlink:title=" ">
<polygon fill="white" stroke="#bfbfbf" points="141.25,-159.75 0,-159.75 0,-139 141.25,-139 141.25,-159.75"/>
<text text-anchor="middle" x="70.62" y="-146.25" font-family="Helvetica,sans-Serif" font-size="10.00">spdk_nvmf_fc_ls_rqst_w0</text>
</a>
</g>
</g>
<!-- Node2&#45;&gt;Node1 -->
<g id="edge1_Node000001_Node000002" class="edge">
<title>Node2&#45;&gt;Node1</title>
<g id="a_edge1_Node000001_Node000002"><a xlink:title=" ">
<path fill="none" stroke="#9a32cd" stroke-dasharray="5,2" d="M67.38,-127.47C65.83,-116.43 64.14,-102.64 63.38,-90.25 61.82,-65.27 66.14,-35.94 68.77,-21.07"/>
<polygon fill="#9a32cd" stroke="#9a32cd" points="63.87,-127.66 68.8,-137.04 70.8,-126.63 63.87,-127.66"/>
</a>
</g>
<text text-anchor="middle" x="72.25" y="-76.75" font-family="Helvetica,sans-Serif" font-size="10.00" fill="grey"> w0</text>
</g>
<!-- Node3 -->
<g id="Node000003" class="node">
<title>Node3</title>
<g id="a_Node000003"><a xlink:href="structspdk__nvmf__fc__lsdesc__rqst.html" target="_top" xlink:title=" ">
<polygon fill="white" stroke="#bfbfbf" points="233.75,-90.25 89.5,-90.25 89.5,-69.5 233.75,-69.5 233.75,-90.25"/>
<text text-anchor="middle" x="161.62" y="-76.75" font-family="Helvetica,sans-Serif" font-size="10.00">spdk_nvmf_fc_lsdesc_rqst</text>
</a>
</g>
</g>
<!-- Node2&#45;&gt;Node3 -->
<g id="edge3_Node000003_Node000002" class="edge">
<title>Node2&#45;&gt;Node3</title>
<g id="a_edge3_Node000003_Node000002"><a xlink:title=" ">
<path fill="none" stroke="#9a32cd" stroke-dasharray="5,2" d="M92.57,-132.09C109.96,-119.2 133.69,-101.6 148.32,-90.75"/>
<polygon fill="#9a32cd" stroke="#9a32cd" points="90.83,-129.03 84.88,-137.8 95,-134.66 90.83,-129.03"/>
</a>
</g>
<text text-anchor="middle" x="132.25" y="-111.5" font-family="Helvetica,sans-Serif" font-size="10.00" fill="grey"> w0</text>
</g>
<!-- Node3&#45;&gt;Node1 -->
<g id="edge2_Node000001_Node000003" class="edge">
<title>Node3&#45;&gt;Node1</title>
<g id="a_edge2_Node000001_Node000003"><a xlink:title=" ">
<path fill="none" stroke="#9a32cd" stroke-dasharray="5,2" d="M139.68,-62.59C122.29,-49.7 98.56,-32.1 83.93,-21.25"/>
<polygon fill="#9a32cd" stroke="#9a32cd" points="137.25,-65.16 147.37,-68.3 141.42,-59.53 137.25,-65.16"/>
</a>
</g>
<text text-anchor="middle" x="134.5" y="-42" font-family="Helvetica,sans-Serif" font-size="10.00" fill="grey"> rqst</text>
</g>
</g>
</svg>
