<?xml version="1.0" encoding="UTF-8" standalone="no"?>
<!DOCTYPE svg PUBLIC "-//W3C//DTD SVG 1.1//EN"
 "http://www.w3.org/Graphics/SVG/1.1/DTD/svg11.dtd">
<!-- Generated by graphviz version 9.0.0 (20230911.1827)
 -->
<!-- Title: spdk_fsdev_name Pages: 1 -->
<svg width="320pt" height="181pt"
 viewBox="0.00 0.00 319.88 180.50" xmlns="http://www.w3.org/2000/svg" xmlns:xlink="http://www.w3.org/1999/xlink">

<svg id="main" version="1.1" xmlns="http://www.w3.org/2000/svg" xmlns:xlink="http://www.w3.org/1999/xlink" xml:space="preserve" onload="init(evt)">
<style type="text/css"><![CDATA[
.node, .edge {opacity: 0.7;}
.node.selected, .edge.selected {opacity: 1;}
.edge:hover path { stroke: red; }
.edge:hover polygon { stroke: red; fill: red; }
]]></style>
<script type="application/ecmascript" xlink:href="svg.min.js"/>
<svg id="graph" class="graph">
<g id="graph0" class="graph" transform="scale(1 1) rotate(0) translate(4 176.5)">
<title>spdk_fsdev_name</title>
<!-- Node1 -->
<g id="Node000001" class="node">
<title>Node1</title>
<g id="a_Node000001"><a xlink:title=" ">
<polygon fill="#999999" stroke="#666666" points="156.38,-172.5 51.88,-172.5 51.88,-151.75 156.38,-151.75 156.38,-172.5"/>
<text text-anchor="middle" x="104.12" y="-159" font-family="Helvetica,sans-Serif" font-size="10.00">spdk_fsdev_name</text>
</a>
</g>
</g>
<!-- Node5 -->
<g id="Node000005" class="node">
<title>Node5</title>
<g id="a_Node000005"><a xlink:href="structspdk__fsdev_1_1____fsdev__internal__fields.html" target="_top" xlink:title="Fields that are used internally by the fsdev subsystem.">
<polygon fill="#fff0f0" stroke="red" points="114.25,-103 0,-103 0,-69.5 114.25,-69.5 114.25,-103"/>
<text text-anchor="start" x="8" y="-89.5" font-family="Helvetica,sans-Serif" font-size="10.00">spdk_fsdev::__fsdev</text>
<text text-anchor="middle" x="57.12" y="-76.75" font-family="Helvetica,sans-Serif" font-size="10.00">_internal_fields</text>
</a>
</g>
</g>
<!-- Node1&#45;&gt;Node5 -->
<g id="edge4_Node000005_Node000001" class="edge">
<title>Node1&#45;&gt;Node5</title>
<g id="a_edge4_Node000005_Node000001"><a xlink:title=" ">
<path fill="none" stroke="#9a32cd" stroke-dasharray="5,2" d="M81.74,-143.94C78.55,-140.8 75.54,-137.36 73.12,-133.75 66.96,-124.52 62.93,-112.68 60.45,-103.25"/>
<polygon fill="#9a32cd" stroke="#9a32cd" points="79.34,-146.5 89.16,-150.48 83.97,-141.24 79.34,-146.5"/>
</a>
</g>
<text text-anchor="middle" x="104.62" y="-124.25" font-family="Helvetica,sans-Serif" font-size="10.00" fill="grey"> fsdev_name</text>
</g>
<!-- Node2 -->
<g id="Node000002" class="node">
<title>Node2</title>
<g id="a_Node000002"><a xlink:href="structspdk__fsdev.html" target="_top" xlink:title=" ">
<polygon fill="white" stroke="#bfbfbf" points="185.88,-20.75 114.38,-20.75 114.38,0 185.88,0 185.88,-20.75"/>
<text text-anchor="middle" x="150.12" y="-7.25" font-family="Helvetica,sans-Serif" font-size="10.00">spdk_fsdev</text>
</a>
</g>
</g>
<!-- Node2&#45;&gt;Node1 -->
<g id="edge1_Node000001_Node000002" class="edge">
<title>Node2&#45;&gt;Node1</title>
<g id="a_edge1_Node000001_Node000002"><a xlink:title=" ">
<path fill="none" stroke="#9a32cd" stroke-dasharray="5,2" d="M152.19,-32.17C153.77,-57.66 153.3,-101.44 136.12,-133.75 132.35,-140.85 125.91,-146.9 119.79,-151.5"/>
<polygon fill="#9a32cd" stroke="#9a32cd" points="155.7,-32.15 151.41,-22.47 148.73,-32.72 155.7,-32.15"/>
</a>
</g>
<text text-anchor="middle" x="168.12" y="-83.12" font-family="Helvetica,sans-Serif" font-size="10.00" fill="grey"> fsdev</text>
</g>
<!-- Node3 -->
<g id="Node000003" class="node">
<title>Node3</title>
<g id="a_Node000003"><a xlink:href="structspdk__fsdev__module.html" target="_top" xlink:title="Filesystem device module.">
<polygon fill="#fff0f0" stroke="red" points="311.88,-96.62 198.38,-96.62 198.38,-75.88 311.88,-75.88 311.88,-96.62"/>
<text text-anchor="middle" x="255.12" y="-83.12" font-family="Helvetica,sans-Serif" font-size="10.00">spdk_fsdev_module</text>
</a>
</g>
</g>
<!-- Node3&#45;&gt;Node2 -->
<g id="edge2_Node000002_Node000003" class="edge">
<title>Node3&#45;&gt;Node2</title>
<g id="a_edge2_Node000002_Node000003"><a xlink:title=" ">
<path fill="none" stroke="#9a32cd" stroke-dasharray="5,2" d="M231.99,-68.97C211.13,-54.29 181.15,-33.2 163.86,-21.04"/>
<polygon fill="#9a32cd" stroke="#9a32cd" points="229.97,-71.83 240.16,-74.72 234,-66.1 229.97,-71.83"/>
</a>
</g>
<text text-anchor="middle" x="226.5" y="-42" font-family="Helvetica,sans-Serif" font-size="10.00" fill="grey"> fn_table</text>
</g>
<!-- Node5&#45;&gt;Node2 -->
<g id="edge3_Node000002_Node000005" class="edge">
<title>Node5&#45;&gt;Node2</title>
<g id="a_edge3_Node000002_Node000005"><a xlink:title=" ">
<path fill="none" stroke="#9a32cd" stroke-dasharray="5,2" d="M74.84,-60.04C80.86,-52.59 88.01,-44.81 95.62,-38.75 104.49,-31.69 115.46,-25.75 125.24,-21.23"/>
<polygon fill="#9a32cd" stroke="#9a32cd" points="72.08,-57.89 68.77,-67.95 77.63,-62.14 72.08,-57.89"/>
</a>
</g>
<text text-anchor="middle" x="116.38" y="-42" font-family="Helvetica,sans-Serif" font-size="10.00" fill="grey"> internal</text>
</g>
</g>
</svg>
</svg>

<style type='text/css'>
<![CDATA[
[data-mouse-over-selected='false'] { opacity: 0.7; }
[data-mouse-over-selected='true']  { opacity: 1.0; }
]]>
</style>
<script type="application/ecmascript"><![CDATA[
document.addEventListener('DOMContentLoaded', (event) => {
  highlightEdges();
  highlightAdjacentNodes();
});
]]></script>
</svg>
