<?xml version="1.0" encoding="UTF-8" standalone="no"?>
<!DOCTYPE svg PUBLIC "-//W3C//DTD SVG 1.1//EN"
 "http://www.w3.org/Graphics/SVG/1.1/DTD/svg11.dtd">
<!-- Generated by graphviz version 9.0.0 (20230911.1827)
 -->
<!-- Title: spdk_nvme_io_qpair_opts Pages: 1 -->
<svg width="556pt" height="224pt"
 viewBox="0.00 0.00 555.50 223.75" xmlns="http://www.w3.org/2000/svg" xmlns:xlink="http://www.w3.org/1999/xlink">
<g id="graph0" class="graph" transform="scale(1 1) rotate(0) translate(4 219.75)">
<title>spdk_nvme_io_qpair_opts</title>
<!-- Node1 -->
<g id="Node000001" class="node">
<title>Node1</title>
<g id="a_Node000001"><a xlink:title="NVMe I/O queue pair initialization options.">
<polygon fill="#999999" stroke="#666666" points="547.5,-78.75 404.75,-78.75 404.75,-58 547.5,-58 547.5,-78.75"/>
<text text-anchor="middle" x="476.12" y="-65.25" font-family="Helvetica,sans-Serif" font-size="10.00">spdk_nvme_io_qpair_opts</text>
</a>
</g>
</g>
<!-- Node2 -->
<g id="Node000002" class="node">
<title>Node2</title>
<g id="a_Node000002"><a xlink:href="structspdk__nvme__cmd.html" target="_top" xlink:title=" ">
<polygon fill="white" stroke="#bfbfbf" points="338,-117.75 239.5,-117.75 239.5,-97 338,-97 338,-117.75"/>
<text text-anchor="middle" x="288.75" y="-104.25" font-family="Helvetica,sans-Serif" font-size="10.00">spdk_nvme_cmd</text>
</a>
</g>
</g>
<!-- Node2&#45;&gt;Node1 -->
<g id="edge1_Node000001_Node000002" class="edge">
<title>Node2&#45;&gt;Node1</title>
<g id="a_edge1_Node000001_Node000002"><a xlink:title=" ">
<path fill="none" stroke="#9a32cd" stroke-dasharray="5,2" d="M349.5,-94.8C373.35,-89.79 400.53,-84.07 423.5,-79.24"/>
<polygon fill="#9a32cd" stroke="#9a32cd" points="349,-91.33 339.94,-96.82 350.44,-98.18 349,-91.33"/>
</a>
</g>
<text text-anchor="middle" x="371.38" y="-95.62" font-family="Helvetica,sans-Serif" font-size="10.00" fill="grey"> vaddr</text>
</g>
<!-- Node3 -->
<g id="Node000003" class="node">
<title>Node3</title>
<g id="a_Node000003"><a xlink:href="structspdk__nvme__sgl__descriptor.html" target="_top" xlink:title=" ">
<polygon fill="white" stroke="#bfbfbf" points="145.75,-215.75 0,-215.75 0,-195 145.75,-195 145.75,-215.75"/>
<text text-anchor="middle" x="72.88" y="-202.25" font-family="Helvetica,sans-Serif" font-size="10.00">spdk_nvme_sgl_descriptor</text>
</a>
</g>
</g>
<!-- Node3&#45;&gt;Node2 -->
<g id="edge2_Node000002_Node000003" class="edge">
<title>Node3&#45;&gt;Node2</title>
<g id="a_edge2_Node000002_Node000003"><a xlink:title=" ">
<path fill="none" stroke="#9a32cd" stroke-dasharray="5,2" d="M152.57,-191.82C175.64,-185.96 200.33,-177.75 221.5,-166.38 244.84,-153.84 266.72,-131.51 278.57,-118.21"/>
<polygon fill="#9a32cd" stroke="#9a32cd" points="151.78,-188.41 142.88,-194.15 153.42,-195.21 151.78,-188.41"/>
</a>
</g>
<text text-anchor="middle" x="192.62" y="-190.62" font-family="Helvetica,sans-Serif" font-size="10.00" fill="grey"> sgl1</text>
</g>
<!-- Node4 -->
<g id="Node000004" class="node">
<title>Node4</title>
<g id="a_Node000004"><a xlink:href="unionspdk__nvme__cmd__cdw10.html" target="_top" xlink:title=" ">
<polygon fill="white" stroke="#bfbfbf" points="140.5,-176.75 5.25,-176.75 5.25,-156 140.5,-156 140.5,-176.75"/>
<text text-anchor="middle" x="72.88" y="-163.25" font-family="Helvetica,sans-Serif" font-size="10.00">spdk_nvme_cmd_cdw10</text>
</a>
</g>
</g>
<!-- Node4&#45;&gt;Node2 -->
<g id="edge3_Node000002_Node000004" class="edge">
<title>Node4&#45;&gt;Node2</title>
<g id="a_edge3_Node000002_Node000004"><a xlink:title=" ">
<path fill="none" stroke="#9a32cd" stroke-dasharray="5,2" d="M150.06,-153.3C173.24,-148.54 198.63,-142.54 221.5,-135.38 236.4,-130.71 252.54,-123.93 265.16,-118.2"/>
<polygon fill="#9a32cd" stroke="#9a32cd" points="149.48,-149.84 140.36,-155.24 150.85,-156.71 149.48,-149.84"/>
</a>
</g>
<text text-anchor="middle" x="192.62" y="-152.62" font-family="Helvetica,sans-Serif" font-size="10.00" fill="grey"> cdw10_bits</text>
</g>
<!-- Node5 -->
<g id="Node000005" class="node">
<title>Node5</title>
<g id="a_Node000005"><a xlink:href="unionspdk__nvme__cmd__cdw11.html" target="_top" xlink:title=" ">
<polygon fill="white" stroke="orangered" points="140.5,-137.75 5.25,-137.75 5.25,-117 140.5,-117 140.5,-137.75"/>
<text text-anchor="middle" x="72.88" y="-124.25" font-family="Helvetica,sans-Serif" font-size="10.00">spdk_nvme_cmd_cdw11</text>
</a>
</g>
</g>
<!-- Node5&#45;&gt;Node2 -->
<g id="edge4_Node000002_Node000005" class="edge">
<title>Node5&#45;&gt;Node2</title>
<g id="a_edge4_Node000002_Node000005"><a xlink:title=" ">
<path fill="none" stroke="#9a32cd" stroke-dasharray="5,2" d="M152.36,-120.04C181.45,-117.32 213.57,-114.31 239.22,-111.91"/>
<polygon fill="#9a32cd" stroke="#9a32cd" points="152.1,-116.54 142.47,-120.96 152.75,-123.51 152.1,-116.54"/>
</a>
</g>
<text text-anchor="middle" x="192.62" y="-121.62" font-family="Helvetica,sans-Serif" font-size="10.00" fill="grey"> cdw11_bits</text>
</g>
<!-- Node24 -->
<g id="Node000024" class="node">
<title>Node24</title>
<g id="a_Node000024"><a xlink:href="unionspdk__nvme__cmd__cdw12.html" target="_top" xlink:title=" ">
<polygon fill="white" stroke="orangered" points="140.5,-98.75 5.25,-98.75 5.25,-78 140.5,-78 140.5,-98.75"/>
<text text-anchor="middle" x="72.88" y="-85.25" font-family="Helvetica,sans-Serif" font-size="10.00">spdk_nvme_cmd_cdw12</text>
</a>
</g>
</g>
<!-- Node24&#45;&gt;Node2 -->
<g id="edge5_Node000002_Node000024" class="edge">
<title>Node24&#45;&gt;Node2</title>
<g id="a_edge5_Node000002_Node000024"><a xlink:title=" ">
<path fill="none" stroke="#9a32cd" stroke-dasharray="5,2" d="M152.45,-87.87C174.83,-88.47 199.18,-89.85 221.5,-92.62 228.98,-93.56 236.87,-94.95 244.48,-96.5"/>
<polygon fill="#9a32cd" stroke="#9a32cd" points="152.54,-84.37 142.47,-87.65 152.39,-91.37 152.54,-84.37"/>
</a>
</g>
<text text-anchor="middle" x="192.62" y="-95.62" font-family="Helvetica,sans-Serif" font-size="10.00" fill="grey"> cdw12_bits</text>
</g>
<!-- Node27 -->
<g id="Node000027" class="node">
<title>Node27</title>
<g id="a_Node000027"><a xlink:href="unionspdk__nvme__cmd__cdw13.html" target="_top" xlink:title=" ">
<polygon fill="white" stroke="#bfbfbf" points="140.5,-59.75 5.25,-59.75 5.25,-39 140.5,-39 140.5,-59.75"/>
<text text-anchor="middle" x="72.88" y="-46.25" font-family="Helvetica,sans-Serif" font-size="10.00">spdk_nvme_cmd_cdw13</text>
</a>
</g>
</g>
<!-- Node27&#45;&gt;Node2 -->
<g id="edge6_Node000002_Node000027" class="edge">
<title>Node27&#45;&gt;Node2</title>
<g id="a_edge6_Node000002_Node000027"><a xlink:title=" ">
<path fill="none" stroke="#9a32cd" stroke-dasharray="5,2" d="M152.19,-55.28C174.94,-58.42 199.56,-63.24 221.5,-70.62 239.95,-76.84 259.21,-88.15 272.18,-96.59"/>
<polygon fill="#9a32cd" stroke="#9a32cd" points="152.71,-51.81 142.34,-54.02 151.82,-58.76 152.71,-51.81"/>
</a>
</g>
<text text-anchor="middle" x="192.62" y="-73.62" font-family="Helvetica,sans-Serif" font-size="10.00" fill="grey"> cdw13_bits</text>
</g>
<!-- Node28 -->
<g id="Node000028" class="node">
<title>Node28</title>
<g id="a_Node000028"><a xlink:href="structspdk__nvme__cpl.html" target="_top" xlink:title="Completion queue entry.">
<polygon fill="white" stroke="#666666" points="334.62,-59.75 242.88,-59.75 242.88,-39 334.62,-39 334.62,-59.75"/>
<text text-anchor="middle" x="288.75" y="-46.25" font-family="Helvetica,sans-Serif" font-size="10.00">spdk_nvme_cpl</text>
</a>
</g>
</g>
<!-- Node28&#45;&gt;Node1 -->
<g id="edge7_Node000001_Node000028" class="edge">
<title>Node28&#45;&gt;Node1</title>
<g id="a_edge7_Node000001_Node000028"><a xlink:title=" ">
<path fill="none" stroke="#9a32cd" stroke-dasharray="5,2" d="M346.21,-49.9C359.53,-50.41 373.66,-51.25 386.75,-52.62 398.06,-53.82 410.11,-55.61 421.55,-57.56"/>
<polygon fill="#9a32cd" stroke="#9a32cd" points="346.37,-46.41 336.27,-49.59 346.15,-53.41 346.37,-46.41"/>
</a>
</g>
<text text-anchor="middle" x="371.38" y="-55.62" font-family="Helvetica,sans-Serif" font-size="10.00" fill="grey"> vaddr</text>
</g>
<!-- Node29 -->
<g id="Node000029" class="node">
<title>Node29</title>
<g id="a_Node000029"><a xlink:href="structspdk__nvme__status.html" target="_top" xlink:title=" ">
<polygon fill="white" stroke="#bfbfbf" points="126.62,-20.75 19.12,-20.75 19.12,0 126.62,0 126.62,-20.75"/>
<text text-anchor="middle" x="72.88" y="-7.25" font-family="Helvetica,sans-Serif" font-size="10.00">spdk_nvme_status</text>
</a>
</g>
</g>
<!-- Node29&#45;&gt;Node28 -->
<g id="edge8_Node000028_Node000029" class="edge">
<title>Node29&#45;&gt;Node28</title>
<g id="a_edge8_Node000028_Node000029"><a xlink:title=" ">
<path fill="none" stroke="#9a32cd" stroke-dasharray="5,2" d="M138.29,-5.96C164.49,-5.78 194.81,-7.64 221.5,-14.62 240.1,-19.49 259.33,-30.35 272.25,-38.64"/>
<polygon fill="#9a32cd" stroke="#9a32cd" points="138.41,-2.46 128.47,-6.14 138.53,-9.46 138.41,-2.46"/>
</a>
</g>
<text text-anchor="middle" x="192.62" y="-18.62" font-family="Helvetica,sans-Serif" font-size="10.00" fill="grey"> status</text>
</g>
</g>
</svg>
