<?xml version="1.0" encoding="UTF-8" standalone="no"?>
<!DOCTYPE svg PUBLIC "-//W3C//DTD SVG 1.1//EN"
 "http://www.w3.org/Graphics/SVG/1.1/DTD/svg11.dtd">
<!-- Generated by graphviz version 9.0.0 (20230911.1827)
 -->
<!-- Title: spdk_bdev_part_channel Pages: 1 -->
<svg width="145pt" height="181pt"
 viewBox="0.00 0.00 144.75 180.50" xmlns="http://www.w3.org/2000/svg" xmlns:xlink="http://www.w3.org/1999/xlink">
<g id="graph0" class="graph" transform="scale(1 1) rotate(0) translate(4 176.5)">
<title>spdk_bdev_part_channel</title>
<!-- Node1 -->
<g id="Node000001" class="node">
<title>Node1</title>
<g id="a_Node000001"><a xlink:title=" ">
<polygon fill="#999999" stroke="#666666" points="136.75,-20.75 0,-20.75 0,0 136.75,0 136.75,-20.75"/>
<text text-anchor="middle" x="68.38" y="-7.25" font-family="Helvetica,sans-Serif" font-size="10.00">spdk_bdev_part_channel</text>
</a>
</g>
</g>
<!-- Node2 -->
<g id="Node000002" class="node">
<title>Node2</title>
<g id="a_Node000002"><a xlink:href="structspdk__bdev__part.html" target="_top" xlink:title=" ">
<polygon fill="white" stroke="#bfbfbf" points="115,-90.25 21.75,-90.25 21.75,-69.5 115,-69.5 115,-90.25"/>
<text text-anchor="middle" x="68.38" y="-76.75" font-family="Helvetica,sans-Serif" font-size="10.00">spdk_bdev_part</text>
</a>
</g>
</g>
<!-- Node2&#45;&gt;Node1 -->
<g id="edge1_Node000001_Node000002" class="edge">
<title>Node2&#45;&gt;Node1</title>
<g id="a_edge1_Node000001_Node000002"><a xlink:title=" ">
<path fill="none" stroke="#9a32cd" stroke-dasharray="5,2" d="M68.38,-58.07C68.38,-45.72 68.38,-30.65 68.38,-21.03"/>
<polygon fill="#9a32cd" stroke="#9a32cd" points="64.88,-57.69 68.38,-67.69 71.88,-57.69 64.88,-57.69"/>
</a>
</g>
<text text-anchor="middle" x="79.62" y="-42" font-family="Helvetica,sans-Serif" font-size="10.00" fill="grey"> part</text>
</g>
<!-- Node3 -->
<g id="Node000003" class="node">
<title>Node3</title>
<g id="a_Node000003"><a xlink:href="structspdk__bdev__part_1_1bdev__part__internal__fields.html" target="_top" xlink:title="Fields that are used internally by part.c These fields should only be accessed from a module using an...">
<polygon fill="#fff0f0" stroke="red" points="130,-172.5 6.75,-172.5 6.75,-139 130,-139 130,-172.5"/>
<text text-anchor="start" x="14.75" y="-159" font-family="Helvetica,sans-Serif" font-size="10.00">spdk_bdev_part::bdev</text>
<text text-anchor="middle" x="68.38" y="-146.25" font-family="Helvetica,sans-Serif" font-size="10.00">_part_internal_fields</text>
</a>
</g>
</g>
<!-- Node3&#45;&gt;Node2 -->
<g id="edge2_Node000002_Node000003" class="edge">
<title>Node3&#45;&gt;Node2</title>
<g id="a_edge2_Node000002_Node000003"><a xlink:title=" ">
<path fill="none" stroke="#9a32cd" stroke-dasharray="5,2" d="M68.38,-127.45C68.38,-114.42 68.38,-99.68 68.38,-90.33"/>
<polygon fill="#9a32cd" stroke="#9a32cd" points="64.88,-127.21 68.38,-137.21 71.88,-127.21 64.88,-127.21"/>
</a>
</g>
<text text-anchor="middle" x="88.62" y="-111.5" font-family="Helvetica,sans-Serif" font-size="10.00" fill="grey"> internal</text>
</g>
</g>
</svg>
