<?xml version="1.0" encoding="UTF-8" standalone="no"?>
<!DOCTYPE svg PUBLIC "-//W3C//DTD SVG 1.1//EN"
 "http://www.w3.org/Graphics/SVG/1.1/DTD/svg11.dtd">
<!-- Generated by graphviz version 9.0.0 (20230911.1827)
 -->
<!-- Title: spdk_fsdev_io Pages: 1 -->
<svg width="694pt" height="207pt"
 viewBox="0.00 0.00 693.75 206.75" xmlns="http://www.w3.org/2000/svg" xmlns:xlink="http://www.w3.org/1999/xlink">
<g id="graph0" class="graph" transform="scale(1 1) rotate(0) translate(4 202.75)">
<title>spdk_fsdev_io</title>
<!-- Node1 -->
<g id="Node000001" class="node">
<title>Node1</title>
<g id="a_Node000001"><a xlink:title=" ">
<polygon fill="#999999" stroke="#666666" points="480,-98.75 394.25,-98.75 394.25,-78 480,-78 480,-98.75"/>
<text text-anchor="middle" x="437.12" y="-85.25" font-family="Helvetica,sans-Serif" font-size="10.00">spdk_fsdev_io</text>
</a>
</g>
</g>
<!-- Node12 -->
<g id="Node000012" class="node">
<title>Node12</title>
<g id="a_Node000012"><a xlink:href="structspdk__fsdev__io_1_1____fsdev__io__internal__fields.html" target="_top" xlink:title="Fields that are used internally by the fsdev subsystem.">
<polygon fill="white" stroke="#666666" points="685.75,-105.12 556.5,-105.12 556.5,-71.62 685.75,-71.62 685.75,-105.12"/>
<text text-anchor="start" x="564.5" y="-91.62" font-family="Helvetica,sans-Serif" font-size="10.00">spdk_fsdev_io::__fsdev</text>
<text text-anchor="middle" x="621.12" y="-78.88" font-family="Helvetica,sans-Serif" font-size="10.00">_io_internal_fields</text>
</a>
</g>
</g>
<!-- Node1&#45;&gt;Node12 -->
<g id="edge9_Node000012_Node000001" class="edge">
<title>Node1&#45;&gt;Node12</title>
<g id="a_edge9_Node000012_Node000001"><a xlink:title=" ">
<path fill="none" stroke="#9a32cd" stroke-dasharray="5,2" d="M491.81,-88.38C511.95,-88.38 535.04,-88.38 556.02,-88.38"/>
<polygon fill="#9a32cd" stroke="#9a32cd" points="491.85,-84.88 481.85,-88.38 491.85,-91.88 491.85,-84.88"/>
</a>
</g>
<text text-anchor="middle" x="518.25" y="-91.62" font-family="Helvetica,sans-Serif" font-size="10.00" fill="grey"> cb_fn</text>
</g>
<!-- Node2 -->
<g id="Node000002" class="node">
<title>Node2</title>
<g id="a_Node000002"><a xlink:href="structspdk__fsdev.html" target="_top" xlink:title=" ">
<polygon fill="white" stroke="#bfbfbf" points="296,-176.75 224.5,-176.75 224.5,-156 296,-156 296,-176.75"/>
<text text-anchor="middle" x="260.25" y="-163.25" font-family="Helvetica,sans-Serif" font-size="10.00">spdk_fsdev</text>
</a>
</g>
</g>
<!-- Node2&#45;&gt;Node1 -->
<g id="edge1_Node000001_Node000002" class="edge">
<title>Node2&#45;&gt;Node1</title>
<g id="a_edge1_Node000001_Node000002"><a xlink:title=" ">
<path fill="none" stroke="#9a32cd" stroke-dasharray="5,2" d="M307.18,-154.69C328.76,-148.33 354.47,-139.47 376.25,-128.38 392.73,-119.97 410.17,-107.92 421.95,-99.24"/>
<polygon fill="#9a32cd" stroke="#9a32cd" points="306.43,-151.26 297.77,-157.37 308.35,-157.99 306.43,-151.26"/>
</a>
</g>
<text text-anchor="middle" x="360.88" y="-144.62" font-family="Helvetica,sans-Serif" font-size="10.00" fill="grey"> fsdev</text>
</g>
<!-- Node3 -->
<g id="Node000003" class="node">
<title>Node3</title>
<g id="a_Node000003"><a xlink:href="structspdk__fsdev__module.html" target="_top" xlink:title="Filesystem device module.">
<polygon fill="#fff0f0" stroke="red" points="113.88,-198.75 0.38,-198.75 0.38,-178 113.88,-178 113.88,-198.75"/>
<text text-anchor="middle" x="57.12" y="-185.25" font-family="Helvetica,sans-Serif" font-size="10.00">spdk_fsdev_module</text>
</a>
</g>
</g>
<!-- Node3&#45;&gt;Node2 -->
<g id="edge2_Node000002_Node000003" class="edge">
<title>Node3&#45;&gt;Node2</title>
<g id="a_edge2_Node000002_Node000003"><a xlink:title=" ">
<path fill="none" stroke="#9a32cd" stroke-dasharray="5,2" d="M125.57,-181C158.57,-177.39 196.92,-173.19 224.06,-170.22"/>
<polygon fill="#9a32cd" stroke="#9a32cd" points="125.21,-177.52 115.65,-182.08 125.98,-184.47 125.21,-177.52"/>
</a>
</g>
<text text-anchor="middle" x="153.62" y="-182.62" font-family="Helvetica,sans-Serif" font-size="10.00" fill="grey"> fn_table</text>
</g>
<!-- Node5 -->
<g id="Node000005" class="node">
<title>Node5</title>
<g id="a_Node000005"><a xlink:href="structspdk__fsdev_1_1____fsdev__internal__fields.html" target="_top" xlink:title="Fields that are used internally by the fsdev subsystem.">
<polygon fill="#fff0f0" stroke="red" points="114.25,-160.12 0,-160.12 0,-126.62 114.25,-126.62 114.25,-160.12"/>
<text text-anchor="start" x="8" y="-146.62" font-family="Helvetica,sans-Serif" font-size="10.00">spdk_fsdev::__fsdev</text>
<text text-anchor="middle" x="57.12" y="-133.88" font-family="Helvetica,sans-Serif" font-size="10.00">_internal_fields</text>
</a>
</g>
</g>
<!-- Node5&#45;&gt;Node2 -->
<g id="edge3_Node000002_Node000005" class="edge">
<title>Node5&#45;&gt;Node2</title>
<g id="a_edge3_Node000002_Node000005"><a xlink:title=" ">
<path fill="none" stroke="#9a32cd" stroke-dasharray="5,2" d="M126.1,-151.15C159.05,-154.92 197.24,-159.28 224.25,-162.37"/>
<polygon fill="#9a32cd" stroke="#9a32cd" points="126.52,-147.67 116.19,-150.01 125.73,-154.63 126.52,-147.67"/>
</a>
</g>
<text text-anchor="middle" x="153.62" y="-158.62" font-family="Helvetica,sans-Serif" font-size="10.00" fill="grey"> internal</text>
</g>
<!-- Node8 -->
<g id="Node000008" class="node">
<title>Node8</title>
<g id="a_Node000008"><a xlink:href="structspdk__fsdev__mount__opts.html" target="_top" xlink:title="fsdev mount options">
<polygon fill="white" stroke="#666666" points="327.5,-137.75 193,-137.75 193,-117 327.5,-117 327.5,-137.75"/>
<text text-anchor="middle" x="260.25" y="-124.25" font-family="Helvetica,sans-Serif" font-size="10.00">spdk_fsdev_mount_opts</text>
</a>
</g>
</g>
<!-- Node8&#45;&gt;Node1 -->
<g id="edge4_Node000001_Node000008" class="edge">
<title>Node8&#45;&gt;Node1</title>
<g id="a_edge4_Node000001_Node000008"><a xlink:title=" ">
<path fill="none" stroke="#9a32cd" stroke-dasharray="5,2" d="M334.3,-114.4C348.27,-111.63 362.75,-108.58 376.25,-105.38 383.93,-103.55 392.09,-101.39 399.85,-99.23"/>
<polygon fill="#9a32cd" stroke="#9a32cd" points="333.87,-110.92 324.72,-116.26 335.2,-117.79 333.87,-110.92"/>
</a>
</g>
<text text-anchor="middle" x="360.88" y="-114.62" font-family="Helvetica,sans-Serif" font-size="10.00" fill="grey"> opts</text>
</g>
<!-- Node9 -->
<g id="Node000009" class="node">
<title>Node9</title>
<g id="a_Node000009"><a xlink:href="structspdk__fsdev__io__opts.html" target="_top" xlink:title="Structure with optional fsdev IO parameters The content of this structure must be valid until the IO ...">
<polygon fill="white" stroke="#666666" points="316.25,-98.75 204.25,-98.75 204.25,-78 316.25,-78 316.25,-98.75"/>
<text text-anchor="middle" x="260.25" y="-85.25" font-family="Helvetica,sans-Serif" font-size="10.00">spdk_fsdev_io_opts</text>
</a>
</g>
</g>
<!-- Node9&#45;&gt;Node1 -->
<g id="edge5_Node000001_Node000009" class="edge">
<title>Node9&#45;&gt;Node1</title>
<g id="a_edge5_Node000001_Node000009"><a xlink:title=" ">
<path fill="none" stroke="#9a32cd" stroke-dasharray="5,2" d="M327.96,-88.38C350.1,-88.38 374.13,-88.38 393.9,-88.38"/>
<polygon fill="#9a32cd" stroke="#9a32cd" points="328.1,-84.88 318.1,-88.38 328.1,-91.88 328.1,-84.88"/>
</a>
</g>
<text text-anchor="middle" x="360.88" y="-91.62" font-family="Helvetica,sans-Serif" font-size="10.00" fill="grey"> opts</text>
</g>
<!-- Node10 -->
<g id="Node000010" class="node">
<title>Node10</title>
<g id="a_Node000010"><a xlink:href="structspdk__fsdev__file__attr.html" target="_top" xlink:title=" ">
<polygon fill="white" stroke="#bfbfbf" points="317.38,-59.75 203.12,-59.75 203.12,-39 317.38,-39 317.38,-59.75"/>
<text text-anchor="middle" x="260.25" y="-46.25" font-family="Helvetica,sans-Serif" font-size="10.00">spdk_fsdev_file_attr</text>
</a>
</g>
</g>
<!-- Node10&#45;&gt;Node1 -->
<g id="edge6_Node000001_Node000010" class="edge">
<title>Node10&#45;&gt;Node1</title>
<g id="a_edge6_Node000001_Node000010"><a xlink:title=" ">
<path fill="none" stroke="#9a32cd" stroke-dasharray="5,2" d="M328.79,-61.49C344.43,-64.56 360.96,-68.01 376.25,-71.62 383.71,-73.39 391.64,-75.46 399.2,-77.54"/>
<polygon fill="#9a32cd" stroke="#9a32cd" points="329.57,-58.07 319.08,-59.61 328.24,-64.95 329.57,-58.07"/>
</a>
</g>
<text text-anchor="middle" x="360.88" y="-74.62" font-family="Helvetica,sans-Serif" font-size="10.00" fill="grey"> attr</text>
</g>
<!-- Node11 -->
<g id="Node000011" class="node">
<title>Node11</title>
<g id="a_Node000011"><a xlink:href="structspdk__fsdev__file__statfs.html" target="_top" xlink:title=" ">
<polygon fill="white" stroke="#bfbfbf" points="322.62,-20.75 197.88,-20.75 197.88,0 322.62,0 322.62,-20.75"/>
<text text-anchor="middle" x="260.25" y="-7.25" font-family="Helvetica,sans-Serif" font-size="10.00">spdk_fsdev_file_statfs</text>
</a>
</g>
</g>
<!-- Node11&#45;&gt;Node1 -->
<g id="edge7_Node000001_Node000011" class="edge">
<title>Node11&#45;&gt;Node1</title>
<g id="a_edge7_Node000001_Node000011"><a xlink:title=" ">
<path fill="none" stroke="#9a32cd" stroke-dasharray="5,2" d="M315.01,-24.57C334.8,-30.74 357.05,-38.82 376.25,-48.62 392.7,-57.02 410.14,-69 421.93,-77.6"/>
<polygon fill="#9a32cd" stroke="#9a32cd" points="316.03,-21.22 305.45,-21.68 314.01,-27.92 316.03,-21.22"/>
</a>
</g>
<text text-anchor="middle" x="360.88" y="-51.62" font-family="Helvetica,sans-Serif" font-size="10.00" fill="grey"> statfs</text>
</g>
<!-- Node12&#45;&gt;Node1 -->
<g id="edge8_Node000001_Node000012" class="edge">
<title>Node12&#45;&gt;Node1</title>
<g id="a_edge8_Node000001_Node000012"><a xlink:title=" ">
<path fill="none" stroke="#9a32cd" stroke-dasharray="5,2" d="M544.96,-71.58C529.43,-69.93 513.18,-69.54 498,-71.62 489.02,-72.86 479.48,-75.08 470.73,-77.52"/>
<polygon fill="#9a32cd" stroke="#9a32cd" points="544.25,-75.02 554.61,-72.8 545.12,-68.07 544.25,-75.02"/>
</a>
</g>
<text text-anchor="middle" x="518.25" y="-74.62" font-family="Helvetica,sans-Serif" font-size="10.00" fill="grey"> internal</text>
</g>
</g>
</svg>
