<?xml version="1.0" encoding="UTF-8" standalone="no"?>
<!DOCTYPE svg PUBLIC "-//W3C//DTD SVG 1.1//EN"
 "http://www.w3.org/Graphics/SVG/1.1/DTD/svg11.dtd">
<!-- Generated by graphviz version 9.0.0 (20230911.1827)
 -->
<!-- Title: spdk_nvme_ctrlr_data Pages: 1 -->
<svg width="376pt" height="353pt"
 viewBox="0.00 0.00 376.00 352.75" xmlns="http://www.w3.org/2000/svg" xmlns:xlink="http://www.w3.org/1999/xlink">
<g id="graph0" class="graph" transform="scale(1 1) rotate(0) translate(4 348.75)">
<title>spdk_nvme_ctrlr_data</title>
<!-- Node1 -->
<g id="Node000001" class="node">
<title>Node1</title>
<g id="a_Node000001"><a xlink:title=" ">
<polygon fill="#999999" stroke="#666666" points="368,-188.75 244,-188.75 244,-168 368,-168 368,-188.75"/>
<text text-anchor="middle" x="306" y="-175.25" font-family="Helvetica,sans-Serif" font-size="10.00">spdk_nvme_ctrlr_data</text>
</a>
</g>
</g>
<!-- Node2 -->
<g id="Node000002" class="node">
<title>Node2</title>
<g id="a_Node000002"><a xlink:href="unionspdk__nvme__vs__register.html" target="_top" xlink:title=" ">
<polygon fill="white" stroke="#bfbfbf" points="134.5,-344.75 3,-344.75 3,-324 134.5,-324 134.5,-344.75"/>
<text text-anchor="middle" x="68.75" y="-331.25" font-family="Helvetica,sans-Serif" font-size="10.00">spdk_nvme_vs_register</text>
</a>
</g>
</g>
<!-- Node2&#45;&gt;Node1 -->
<g id="edge1_Node000001_Node000002" class="edge">
<title>Node2&#45;&gt;Node1</title>
<g id="a_edge1_Node000001_Node000002"><a xlink:title=" ">
<path fill="none" stroke="#9a32cd" stroke-dasharray="5,2" d="M145.76,-329.81C172.95,-325.22 202.62,-316.55 226,-300.38 267.5,-271.66 292.38,-213.35 301.27,-189.21"/>
<polygon fill="#9a32cd" stroke="#9a32cd" points="145.54,-326.3 136.18,-331.26 146.59,-333.22 145.54,-326.3"/>
</a>
</g>
<text text-anchor="middle" x="190.75" y="-330.62" font-family="Helvetica,sans-Serif" font-size="10.00" fill="grey"> ver</text>
</g>
<!-- Node3 -->
<g id="Node000003" class="node">
<title>Node3</title>
<g id="a_Node000003"><a xlink:href="structspdk__nvme__cdata__oaes.html" target="_top" xlink:title=" ">
<polygon fill="white" stroke="#bfbfbf" points="135.25,-305.75 2.25,-305.75 2.25,-285 135.25,-285 135.25,-305.75"/>
<text text-anchor="middle" x="68.75" y="-292.25" font-family="Helvetica,sans-Serif" font-size="10.00">spdk_nvme_cdata_oaes</text>
</a>
</g>
</g>
<!-- Node3&#45;&gt;Node1 -->
<g id="edge2_Node000001_Node000003" class="edge">
<title>Node3&#45;&gt;Node1</title>
<g id="a_edge2_Node000001_Node000003"><a xlink:title=" ">
<path fill="none" stroke="#9a32cd" stroke-dasharray="5,2" d="M146.58,-286.01C172.94,-280.55 201.87,-271.94 226,-258.38 257.65,-240.58 285.01,-206.41 297.61,-189.06"/>
<polygon fill="#9a32cd" stroke="#9a32cd" points="146.09,-282.53 136.94,-287.87 147.42,-289.41 146.09,-282.53"/>
</a>
</g>
<text text-anchor="middle" x="190.75" y="-286.62" font-family="Helvetica,sans-Serif" font-size="10.00" fill="grey"> oaes</text>
</g>
<!-- Node4 -->
<g id="Node000004" class="node">
<title>Node4</title>
<g id="a_Node000004"><a xlink:href="unionspdk__nvme__cdata__ctratt.html" target="_top" xlink:title=" ">
<polygon fill="white" stroke="#bfbfbf" points="136.75,-266.75 0.75,-266.75 0.75,-246 136.75,-246 136.75,-266.75"/>
<text text-anchor="middle" x="68.75" y="-253.25" font-family="Helvetica,sans-Serif" font-size="10.00">spdk_nvme_cdata_ctratt</text>
</a>
</g>
</g>
<!-- Node4&#45;&gt;Node1 -->
<g id="edge3_Node000001_Node000004" class="edge">
<title>Node4&#45;&gt;Node1</title>
<g id="a_edge3_Node000001_Node000004"><a xlink:title=" ">
<path fill="none" stroke="#9a32cd" stroke-dasharray="5,2" d="M148.18,-244C173.48,-238.77 201.34,-231.69 226,-222.38 249.06,-213.66 273.55,-199.09 289.04,-189.12"/>
<polygon fill="#9a32cd" stroke="#9a32cd" points="147.75,-240.52 138.63,-245.9 149.12,-247.38 147.75,-240.52"/>
</a>
</g>
<text text-anchor="middle" x="190.75" y="-244.62" font-family="Helvetica,sans-Serif" font-size="10.00" fill="grey"> ctratt</text>
</g>
<!-- Node5 -->
<g id="Node000005" class="node">
<title>Node5</title>
<g id="a_Node000005"><a xlink:href="structspdk__nvme__cdata__oacs.html" target="_top" xlink:title=" ">
<polygon fill="white" stroke="#bfbfbf" points="134.88,-227.75 2.62,-227.75 2.62,-207 134.88,-207 134.88,-227.75"/>
<text text-anchor="middle" x="68.75" y="-214.25" font-family="Helvetica,sans-Serif" font-size="10.00">spdk_nvme_cdata_oacs</text>
</a>
</g>
</g>
<!-- Node5&#45;&gt;Node1 -->
<g id="edge4_Node000001_Node000005" class="edge">
<title>Node5&#45;&gt;Node1</title>
<g id="a_edge4_Node000001_Node000005"><a xlink:title=" ">
<path fill="none" stroke="#9a32cd" stroke-dasharray="5,2" d="M146.7,-207.66C172.02,-204.17 200.27,-199.95 226,-195.38 236.22,-193.56 247.13,-191.37 257.49,-189.18"/>
<polygon fill="#9a32cd" stroke="#9a32cd" points="146.23,-204.19 136.8,-209.01 147.18,-211.13 146.23,-204.19"/>
</a>
</g>
<text text-anchor="middle" x="190.75" y="-208.62" font-family="Helvetica,sans-Serif" font-size="10.00" fill="grey"> oacs</text>
</g>
<!-- Node6 -->
<g id="Node000006" class="node">
<title>Node6</title>
<g id="a_Node000006"><a xlink:href="structspdk__nvme__cdata__oncs.html" target="_top" xlink:title="Identify Controller data Optional NVM Command Support.">
<polygon fill="white" stroke="#666666" points="134.88,-188.75 2.62,-188.75 2.62,-168 134.88,-168 134.88,-188.75"/>
<text text-anchor="middle" x="68.75" y="-175.25" font-family="Helvetica,sans-Serif" font-size="10.00">spdk_nvme_cdata_oncs</text>
</a>
</g>
</g>
<!-- Node6&#45;&gt;Node1 -->
<g id="edge5_Node000001_Node000006" class="edge">
<title>Node6&#45;&gt;Node1</title>
<g id="a_edge5_Node000001_Node000006"><a xlink:title=" ">
<path fill="none" stroke="#9a32cd" stroke-dasharray="5,2" d="M146.67,-178.38C178.2,-178.38 214.17,-178.38 243.86,-178.38"/>
<polygon fill="#9a32cd" stroke="#9a32cd" points="146.79,-174.88 136.79,-178.38 146.79,-181.88 146.79,-174.88"/>
</a>
</g>
<text text-anchor="middle" x="190.75" y="-181.62" font-family="Helvetica,sans-Serif" font-size="10.00" fill="grey"> oncs</text>
</g>
<!-- Node7 -->
<g id="Node000007" class="node">
<title>Node7</title>
<g id="a_Node000007"><a xlink:href="structspdk__nvme__cdata__fuses.html" target="_top" xlink:title=" ">
<polygon fill="white" stroke="#bfbfbf" points="136.75,-149.75 0.75,-149.75 0.75,-129 136.75,-129 136.75,-149.75"/>
<text text-anchor="middle" x="68.75" y="-136.25" font-family="Helvetica,sans-Serif" font-size="10.00">spdk_nvme_cdata_fuses</text>
</a>
</g>
</g>
<!-- Node7&#45;&gt;Node1 -->
<g id="edge6_Node000001_Node000007" class="edge">
<title>Node7&#45;&gt;Node1</title>
<g id="a_edge6_Node000001_Node000007"><a xlink:title=" ">
<path fill="none" stroke="#9a32cd" stroke-dasharray="5,2" d="M148.42,-149.52C173.29,-153.01 200.85,-157.17 226,-161.62 235.94,-163.38 246.54,-165.48 256.64,-167.58"/>
<polygon fill="#9a32cd" stroke="#9a32cd" points="149.09,-146.08 138.7,-148.18 148.13,-153.01 149.09,-146.08"/>
</a>
</g>
<text text-anchor="middle" x="190.75" y="-164.62" font-family="Helvetica,sans-Serif" font-size="10.00" fill="grey"> fuses</text>
</g>
<!-- Node8 -->
<g id="Node000008" class="node">
<title>Node8</title>
<g id="a_Node000008"><a xlink:href="structspdk__nvme__cdata__sgls.html" target="_top" xlink:title="Identify Controller data SGL support.">
<polygon fill="white" stroke="#666666" points="133.38,-110.75 4.12,-110.75 4.12,-90 133.38,-90 133.38,-110.75"/>
<text text-anchor="middle" x="68.75" y="-97.25" font-family="Helvetica,sans-Serif" font-size="10.00">spdk_nvme_cdata_sgls</text>
</a>
</g>
</g>
<!-- Node8&#45;&gt;Node1 -->
<g id="edge7_Node000001_Node000008" class="edge">
<title>Node8&#45;&gt;Node1</title>
<g id="a_edge7_Node000001_Node000008"><a xlink:title=" ">
<path fill="none" stroke="#9a32cd" stroke-dasharray="5,2" d="M144.76,-111.52C170.96,-116.66 200.25,-123.86 226,-133.62 249.29,-142.46 273.92,-157.43 289.37,-167.61"/>
<polygon fill="#9a32cd" stroke="#9a32cd" points="145.7,-108.13 135.22,-109.72 144.4,-115.01 145.7,-108.13"/>
</a>
</g>
<text text-anchor="middle" x="190.75" y="-136.62" font-family="Helvetica,sans-Serif" font-size="10.00" fill="grey"> sgls</text>
</g>
<!-- Node9 -->
<g id="Node000009" class="node">
<title>Node9</title>
<g id="a_Node000009"><a xlink:href="structspdk__nvme__cdata__nvmf__specific.html" target="_top" xlink:title="Identify Controller data NVMe over Fabrics&#45;specific fields.">
<polygon fill="white" stroke="#666666" points="136.38,-72.12 1.12,-72.12 1.12,-38.62 136.38,-38.62 136.38,-72.12"/>
<text text-anchor="start" x="9.12" y="-58.62" font-family="Helvetica,sans-Serif" font-size="10.00">spdk_nvme_cdata_nvmf</text>
<text text-anchor="middle" x="68.75" y="-45.88" font-family="Helvetica,sans-Serif" font-size="10.00">_specific</text>
</a>
</g>
</g>
<!-- Node9&#45;&gt;Node1 -->
<g id="edge8_Node000001_Node000009" class="edge">
<title>Node9&#45;&gt;Node1</title>
<g id="a_edge8_Node000001_Node000009"><a xlink:title=" ">
<path fill="none" stroke="#9a32cd" stroke-dasharray="5,2" d="M147.69,-67.88C173.78,-74.24 202.24,-83.7 226,-97.62 257.47,-116.07 284.91,-150.34 297.57,-167.7"/>
<polygon fill="#9a32cd" stroke="#9a32cd" points="148.68,-64.51 138.15,-65.67 147.1,-71.33 148.68,-64.51"/>
</a>
</g>
<text text-anchor="middle" x="190.75" y="-100.62" font-family="Helvetica,sans-Serif" font-size="10.00" fill="grey"> nvmf_specific</text>
</g>
<!-- Node10 -->
<g id="Node000010" class="node">
<title>Node10</title>
<g id="a_Node000010"><a xlink:href="structspdk__nvme__power__state.html" target="_top" xlink:title=" ">
<polygon fill="white" stroke="#bfbfbf" points="137.5,-20.75 0,-20.75 0,0 137.5,0 137.5,-20.75"/>
<text text-anchor="middle" x="68.75" y="-7.25" font-family="Helvetica,sans-Serif" font-size="10.00">spdk_nvme_power_state</text>
</a>
</g>
</g>
<!-- Node10&#45;&gt;Node1 -->
<g id="edge9_Node000001_Node000010" class="edge">
<title>Node10&#45;&gt;Node1</title>
<g id="a_edge9_Node000001_Node000010"><a xlink:title=" ">
<path fill="none" stroke="#9a32cd" stroke-dasharray="5,2" d="M148.84,-19.91C175.27,-26.04 203.66,-36.1 226,-52.62 267.66,-83.45 292.6,-143.39 301.4,-167.72"/>
<polygon fill="#9a32cd" stroke="#9a32cd" points="149.64,-16.5 139.13,-17.83 148.18,-23.35 149.64,-16.5"/>
</a>
</g>
<text text-anchor="middle" x="190.75" y="-55.62" font-family="Helvetica,sans-Serif" font-size="10.00" fill="grey"> psd</text>
</g>
</g>
</svg>
