<?xml version="1.0" encoding="UTF-8" standalone="no"?>
<!DOCTYPE svg PUBLIC "-//W3C//DTD SVG 1.1//EN"
 "http://www.w3.org/Graphics/SVG/1.1/DTD/svg11.dtd">
<!-- Generated by graphviz version 9.0.0 (20230911.1827)
 -->
<!-- Title: idxd_grptbl Pages: 1 -->
<svg width="107pt" height="168pt"
 viewBox="0.00 0.00 106.50 167.75" xmlns="http://www.w3.org/2000/svg" xmlns:xlink="http://www.w3.org/1999/xlink">
<g id="graph0" class="graph" transform="scale(1 1) rotate(0) translate(4 163.75)">
<title>idxd_grptbl</title>
<!-- Node1 -->
<g id="Node000001" class="node">
<title>Node1</title>
<g id="a_Node000001"><a xlink:title=" ">
<polygon fill="#999999" stroke="#666666" points="84.62,-20.75 13.88,-20.75 13.88,0 84.62,0 84.62,-20.75"/>
<text text-anchor="middle" x="49.25" y="-7.25" font-family="Helvetica,sans-Serif" font-size="10.00">idxd_grptbl</text>
</a>
</g>
</g>
<!-- Node2 -->
<g id="Node000002" class="node">
<title>Node2</title>
<g id="a_Node000002"><a xlink:href="structidxd__grpcfg.html" target="_top" xlink:title=" ">
<polygon fill="white" stroke="#bfbfbf" points="85.75,-90.25 12.75,-90.25 12.75,-69.5 85.75,-69.5 85.75,-90.25"/>
<text text-anchor="middle" x="49.25" y="-76.75" font-family="Helvetica,sans-Serif" font-size="10.00">idxd_grpcfg</text>
</a>
</g>
</g>
<!-- Node2&#45;&gt;Node1 -->
<g id="edge1_Node000001_Node000002" class="edge">
<title>Node2&#45;&gt;Node1</title>
<g id="a_edge1_Node000001_Node000002"><a xlink:title=" ">
<path fill="none" stroke="#9a32cd" stroke-dasharray="5,2" d="M49.25,-58.07C49.25,-45.72 49.25,-30.65 49.25,-21.03"/>
<polygon fill="#9a32cd" stroke="#9a32cd" points="45.75,-57.69 49.25,-67.69 52.75,-57.69 45.75,-57.69"/>
</a>
</g>
<text text-anchor="middle" x="64.62" y="-42" font-family="Helvetica,sans-Serif" font-size="10.00" fill="grey"> group</text>
</g>
<!-- Node3 -->
<g id="Node000003" class="node">
<title>Node3</title>
<g id="a_Node000003"><a xlink:href="unionidxd__group__flags.html" target="_top" xlink:title=" ">
<polygon fill="white" stroke="#bfbfbf" points="98.5,-159.75 0,-159.75 0,-139 98.5,-139 98.5,-159.75"/>
<text text-anchor="middle" x="49.25" y="-146.25" font-family="Helvetica,sans-Serif" font-size="10.00">idxd_group_flags</text>
</a>
</g>
</g>
<!-- Node3&#45;&gt;Node2 -->
<g id="edge2_Node000002_Node000003" class="edge">
<title>Node3&#45;&gt;Node2</title>
<g id="a_edge2_Node000002_Node000003"><a xlink:title=" ">
<path fill="none" stroke="#9a32cd" stroke-dasharray="5,2" d="M49.25,-127.57C49.25,-115.22 49.25,-100.15 49.25,-90.53"/>
<polygon fill="#9a32cd" stroke="#9a32cd" points="45.75,-127.19 49.25,-137.19 52.75,-127.19 45.75,-127.19"/>
</a>
</g>
<text text-anchor="middle" x="62.38" y="-111.5" font-family="Helvetica,sans-Serif" font-size="10.00" fill="grey"> flags</text>
</g>
</g>
</svg>
