<?xml version="1.0" encoding="UTF-8" standalone="no"?>
<!DOCTYPE svg PUBLIC "-//W3C//DTD SVG 1.1//EN"
 "http://www.w3.org/Graphics/SVG/1.1/DTD/svg11.dtd">
<!-- Generated by graphviz version 9.0.0 (20230911.1827)
 -->
<!-- Title: idxd_registers Pages: 1 -->
<svg width="318pt" height="536pt"
 viewBox="0.00 0.00 317.50 535.75" xmlns="http://www.w3.org/2000/svg" xmlns:xlink="http://www.w3.org/1999/xlink">
<g id="graph0" class="graph" transform="scale(1 1) rotate(0) translate(4 531.75)">
<title>idxd_registers</title>
<!-- Node1 -->
<g id="Node000001" class="node">
<title>Node1</title>
<g id="a_Node000001"><a xlink:title=" ">
<polygon fill="#999999" stroke="#666666" points="309.5,-273.75 224.5,-273.75 224.5,-253 309.5,-253 309.5,-273.75"/>
<text text-anchor="middle" x="267" y="-260.25" font-family="Helvetica,sans-Serif" font-size="10.00">idxd_registers</text>
</a>
</g>
</g>
<!-- Node2 -->
<g id="Node000002" class="node">
<title>Node2</title>
<g id="a_Node000002"><a xlink:href="unionidxd__gencap__register.html" target="_top" xlink:title=" ">
<polygon fill="white" stroke="#bfbfbf" points="127.75,-527.75 7.5,-527.75 7.5,-507 127.75,-507 127.75,-527.75"/>
<text text-anchor="middle" x="67.62" y="-514.25" font-family="Helvetica,sans-Serif" font-size="10.00">idxd_gencap_register</text>
</a>
</g>
</g>
<!-- Node2&#45;&gt;Node1 -->
<g id="edge1_Node000001_Node000002" class="edge">
<title>Node2&#45;&gt;Node1</title>
<g id="a_edge1_Node000001_Node000002"><a xlink:title=" ">
<path fill="none" stroke="#9a32cd" stroke-dasharray="5,2" d="M139.38,-516.5C163.38,-512.74 188.61,-504.47 206.5,-487.38 238.35,-456.93 259.25,-314.65 264.63,-274.15"/>
<polygon fill="#9a32cd" stroke="#9a32cd" points="139.07,-513.01 129.6,-517.77 139.97,-519.95 139.07,-513.01"/>
</a>
</g>
<text text-anchor="middle" x="179.88" y="-515.62" font-family="Helvetica,sans-Serif" font-size="10.00" fill="grey"> gencap</text>
</g>
<!-- Node3 -->
<g id="Node000003" class="node">
<title>Node3</title>
<g id="a_Node000003"><a xlink:href="unionidxd__wqcap__register.html" target="_top" xlink:title=" ">
<polygon fill="white" stroke="#bfbfbf" points="125.88,-488.75 9.38,-488.75 9.38,-468 125.88,-468 125.88,-488.75"/>
<text text-anchor="middle" x="67.62" y="-475.25" font-family="Helvetica,sans-Serif" font-size="10.00">idxd_wqcap_register</text>
</a>
</g>
</g>
<!-- Node3&#45;&gt;Node1 -->
<g id="edge2_Node000001_Node000003" class="edge">
<title>Node3&#45;&gt;Node1</title>
<g id="a_edge2_Node000001_Node000003"><a xlink:title=" ">
<path fill="none" stroke="#9a32cd" stroke-dasharray="5,2" d="M137.39,-475.54C161.8,-471.29 187.83,-462.59 206.5,-445.38 258.07,-397.83 265.05,-305.02 265.91,-273.86"/>
<polygon fill="#9a32cd" stroke="#9a32cd" points="137.19,-472.03 127.82,-476.97 138.23,-478.96 137.19,-472.03"/>
</a>
</g>
<text text-anchor="middle" x="179.88" y="-473.62" font-family="Helvetica,sans-Serif" font-size="10.00" fill="grey"> wqcap</text>
</g>
<!-- Node4 -->
<g id="Node000004" class="node">
<title>Node4</title>
<g id="a_Node000004"><a xlink:href="unionidxd__groupcap__register.html" target="_top" xlink:title=" ">
<polygon fill="white" stroke="#bfbfbf" points="132.62,-449.75 2.62,-449.75 2.62,-429 132.62,-429 132.62,-449.75"/>
<text text-anchor="middle" x="67.62" y="-436.25" font-family="Helvetica,sans-Serif" font-size="10.00">idxd_groupcap_register</text>
</a>
</g>
</g>
<!-- Node4&#45;&gt;Node1 -->
<g id="edge3_Node000001_Node000004" class="edge">
<title>Node4&#45;&gt;Node1</title>
<g id="a_edge3_Node000001_Node000004"><a xlink:title=" ">
<path fill="none" stroke="#9a32cd" stroke-dasharray="5,2" d="M144.08,-431.81C166.22,-426.45 189.12,-417.44 206.5,-402.38 246.96,-367.3 260.72,-299.86 264.64,-273.91"/>
<polygon fill="#9a32cd" stroke="#9a32cd" points="143.47,-428.36 134.44,-433.9 144.95,-435.2 143.47,-428.36"/>
</a>
</g>
<text text-anchor="middle" x="179.88" y="-431.62" font-family="Helvetica,sans-Serif" font-size="10.00" fill="grey"> groupcap</text>
</g>
<!-- Node5 -->
<g id="Node000005" class="node">
<title>Node5</title>
<g id="a_Node000005"><a xlink:href="unionidxd__enginecap__register.html" target="_top" xlink:title=" ">
<polygon fill="white" stroke="#bfbfbf" points="135.25,-410.75 0,-410.75 0,-390 135.25,-390 135.25,-410.75"/>
<text text-anchor="middle" x="67.62" y="-397.25" font-family="Helvetica,sans-Serif" font-size="10.00">idxd_enginecap_register</text>
</a>
</g>
</g>
<!-- Node5&#45;&gt;Node1 -->
<g id="edge4_Node000001_Node000005" class="edge">
<title>Node5&#45;&gt;Node1</title>
<g id="a_edge4_Node000001_Node000005"><a xlink:title=" ">
<path fill="none" stroke="#9a32cd" stroke-dasharray="5,2" d="M146.5,-388.43C167.46,-382.5 189.12,-373.63 206.5,-360.38 236.66,-337.37 255.05,-294.31 262.36,-274.22"/>
<polygon fill="#9a32cd" stroke="#9a32cd" points="145.88,-384.97 137.09,-390.89 147.65,-391.75 145.88,-384.97"/>
</a>
</g>
<text text-anchor="middle" x="179.88" y="-388.62" font-family="Helvetica,sans-Serif" font-size="10.00" fill="grey"> enginecap</text>
</g>
<!-- Node6 -->
<g id="Node000006" class="node">
<title>Node6</title>
<g id="a_Node000006"><a xlink:href="structidxd__opcap__register.html" target="_top" xlink:title=" ">
<polygon fill="white" stroke="#bfbfbf" points="124.75,-371.75 10.5,-371.75 10.5,-351 124.75,-351 124.75,-371.75"/>
<text text-anchor="middle" x="67.62" y="-358.25" font-family="Helvetica,sans-Serif" font-size="10.00">idxd_opcap_register</text>
</a>
</g>
</g>
<!-- Node6&#45;&gt;Node1 -->
<g id="edge5_Node000001_Node000006" class="edge">
<title>Node6&#45;&gt;Node1</title>
<g id="a_edge5_Node000001_Node000006"><a xlink:title=" ">
<path fill="none" stroke="#9a32cd" stroke-dasharray="5,2" d="M136.09,-349.5C159.43,-343.56 185.08,-334.88 206.5,-322.38 228.11,-309.76 247.54,-287.46 257.97,-274.19"/>
<polygon fill="#9a32cd" stroke="#9a32cd" points="135.58,-346.02 126.68,-351.76 137.22,-352.83 135.58,-346.02"/>
</a>
</g>
<text text-anchor="middle" x="179.88" y="-346.62" font-family="Helvetica,sans-Serif" font-size="10.00" fill="grey"> opcap</text>
</g>
<!-- Node7 -->
<g id="Node000007" class="node">
<title>Node7</title>
<g id="a_Node000007"><a xlink:href="unionidxd__offsets__register.html" target="_top" xlink:title=" ">
<polygon fill="white" stroke="#bfbfbf" points="126.62,-332.75 8.62,-332.75 8.62,-312 126.62,-312 126.62,-332.75"/>
<text text-anchor="middle" x="67.62" y="-319.25" font-family="Helvetica,sans-Serif" font-size="10.00">idxd_offsets_register</text>
</a>
</g>
</g>
<!-- Node7&#45;&gt;Node1 -->
<g id="edge6_Node000001_Node000007" class="edge">
<title>Node7&#45;&gt;Node1</title>
<g id="a_edge6_Node000001_Node000007"><a xlink:title=" ">
<path fill="none" stroke="#9a32cd" stroke-dasharray="5,2" d="M138.11,-309.85C160.25,-305.04 184.66,-298.87 206.5,-291.38 220,-286.74 234.5,-279.96 245.81,-274.23"/>
<polygon fill="#9a32cd" stroke="#9a32cd" points="137.64,-306.37 128.58,-311.86 139.09,-313.22 137.64,-306.37"/>
</a>
</g>
<text text-anchor="middle" x="179.88" y="-308.62" font-family="Helvetica,sans-Serif" font-size="10.00" fill="grey"> offsets</text>
</g>
<!-- Node8 -->
<g id="Node000008" class="node">
<title>Node8</title>
<g id="a_Node000008"><a xlink:href="unionidxd__gencfg__register.html" target="_top" xlink:title=" ">
<polygon fill="white" stroke="#bfbfbf" points="126.62,-293.75 8.62,-293.75 8.62,-273 126.62,-273 126.62,-293.75"/>
<text text-anchor="middle" x="67.62" y="-280.25" font-family="Helvetica,sans-Serif" font-size="10.00">idxd_gencfg_register</text>
</a>
</g>
</g>
<!-- Node8&#45;&gt;Node1 -->
<g id="edge7_Node000001_Node000008" class="edge">
<title>Node8&#45;&gt;Node1</title>
<g id="a_edge7_Node000001_Node000008"><a xlink:title=" ">
<path fill="none" stroke="#9a32cd" stroke-dasharray="5,2" d="M138.23,-276.32C166.87,-273.42 199.1,-270.15 224.03,-267.63"/>
<polygon fill="#9a32cd" stroke="#9a32cd" points="138.14,-272.81 128.55,-277.3 138.85,-279.78 138.14,-272.81"/>
</a>
</g>
<text text-anchor="middle" x="179.88" y="-277.62" font-family="Helvetica,sans-Serif" font-size="10.00" fill="grey"> gencfg</text>
</g>
<!-- Node9 -->
<g id="Node000009" class="node">
<title>Node9</title>
<g id="a_Node000009"><a xlink:href="unionidxd__genctrl__register.html" target="_top" xlink:title=" ">
<polygon fill="white" stroke="#bfbfbf" points="127,-254.75 8.25,-254.75 8.25,-234 127,-234 127,-254.75"/>
<text text-anchor="middle" x="67.62" y="-241.25" font-family="Helvetica,sans-Serif" font-size="10.00">idxd_genctrl_register</text>
</a>
</g>
</g>
<!-- Node9&#45;&gt;Node1 -->
<g id="edge8_Node000001_Node000009" class="edge">
<title>Node9&#45;&gt;Node1</title>
<g id="a_edge8_Node000001_Node000009"><a xlink:title=" ">
<path fill="none" stroke="#9a32cd" stroke-dasharray="5,2" d="M138.73,-243.66C160.52,-244.21 184.58,-245.61 206.5,-248.62 213.35,-249.57 220.56,-250.98 227.5,-252.57"/>
<polygon fill="#9a32cd" stroke="#9a32cd" points="138.8,-240.16 128.73,-243.47 138.66,-247.16 138.8,-240.16"/>
</a>
</g>
<text text-anchor="middle" x="179.88" y="-251.62" font-family="Helvetica,sans-Serif" font-size="10.00" fill="grey"> genctrl</text>
</g>
<!-- Node10 -->
<g id="Node000010" class="node">
<title>Node10</title>
<g id="a_Node000010"><a xlink:href="unionidxd__gensts__register.html" target="_top" xlink:title=" ">
<polygon fill="white" stroke="#bfbfbf" points="126.25,-215.75 9,-215.75 9,-195 126.25,-195 126.25,-215.75"/>
<text text-anchor="middle" x="67.62" y="-202.25" font-family="Helvetica,sans-Serif" font-size="10.00">idxd_gensts_register</text>
</a>
</g>
</g>
<!-- Node10&#45;&gt;Node1 -->
<g id="edge9_Node000001_Node000010" class="edge">
<title>Node10&#45;&gt;Node1</title>
<g id="a_edge9_Node000001_Node000010"><a xlink:title=" ">
<path fill="none" stroke="#9a32cd" stroke-dasharray="5,2" d="M137.74,-210.54C160.16,-213.65 184.82,-218.64 206.5,-226.62 223.36,-232.84 240.61,-244.15 252.17,-252.59"/>
<polygon fill="#9a32cd" stroke="#9a32cd" points="138.46,-207.1 128.1,-209.31 137.58,-214.05 138.46,-207.1"/>
</a>
</g>
<text text-anchor="middle" x="179.88" y="-229.62" font-family="Helvetica,sans-Serif" font-size="10.00" fill="grey"> gensts</text>
</g>
<!-- Node11 -->
<g id="Node000011" class="node">
<title>Node11</title>
<g id="a_Node000011"><a xlink:href="unionidxd__intcause__register.html" target="_top" xlink:title=" ">
<polygon fill="white" stroke="#bfbfbf" points="130.75,-176.75 4.5,-176.75 4.5,-156 130.75,-156 130.75,-176.75"/>
<text text-anchor="middle" x="67.62" y="-163.25" font-family="Helvetica,sans-Serif" font-size="10.00">idxd_intcause_register</text>
</a>
</g>
</g>
<!-- Node11&#45;&gt;Node1 -->
<g id="edge10_Node000001_Node000011" class="edge">
<title>Node11&#45;&gt;Node1</title>
<g id="a_edge10_Node000001_Node000011"><a xlink:title=" ">
<path fill="none" stroke="#9a32cd" stroke-dasharray="5,2" d="M142.28,-173.07C164.03,-177.35 187.17,-184.31 206.5,-195.62 230.68,-209.78 250.14,-237.26 259.65,-252.52"/>
<polygon fill="#9a32cd" stroke="#9a32cd" points="143.02,-169.64 132.56,-171.33 141.79,-176.54 143.02,-169.64"/>
</a>
</g>
<text text-anchor="middle" x="179.88" y="-198.62" font-family="Helvetica,sans-Serif" font-size="10.00" fill="grey"> intcause</text>
</g>
<!-- Node12 -->
<g id="Node000012" class="node">
<title>Node12</title>
<g id="a_Node000012"><a xlink:href="unionidxd__cmd__register.html" target="_top" xlink:title=" ">
<polygon fill="white" stroke="#bfbfbf" points="120.62,-137.75 14.62,-137.75 14.62,-117 120.62,-117 120.62,-137.75"/>
<text text-anchor="middle" x="67.62" y="-124.25" font-family="Helvetica,sans-Serif" font-size="10.00">idxd_cmd_register</text>
</a>
</g>
</g>
<!-- Node12&#45;&gt;Node1 -->
<g id="edge11_Node000001_Node000012" class="edge">
<title>Node12&#45;&gt;Node1</title>
<g id="a_edge11_Node000001_Node000012"><a xlink:title=" ">
<path fill="none" stroke="#9a32cd" stroke-dasharray="5,2" d="M132.27,-130.79C157.37,-134.8 185.22,-142.83 206.5,-158.62 239.25,-182.93 256.63,-230.99 263.05,-252.51"/>
<polygon fill="#9a32cd" stroke="#9a32cd" points="132.85,-127.34 122.47,-129.43 131.89,-134.28 132.85,-127.34"/>
</a>
</g>
<text text-anchor="middle" x="179.88" y="-161.62" font-family="Helvetica,sans-Serif" font-size="10.00" fill="grey"> cmd</text>
</g>
<!-- Node13 -->
<g id="Node000013" class="node">
<title>Node13</title>
<g id="a_Node000013"><a xlink:href="unionidxd__cmdsts__register.html" target="_top" xlink:title=" ">
<polygon fill="white" stroke="#bfbfbf" points="127.75,-98.75 7.5,-98.75 7.5,-78 127.75,-78 127.75,-98.75"/>
<text text-anchor="middle" x="67.62" y="-85.25" font-family="Helvetica,sans-Serif" font-size="10.00">idxd_cmdsts_register</text>
</a>
</g>
</g>
<!-- Node13&#45;&gt;Node1 -->
<g id="edge12_Node000001_Node000013" class="edge">
<title>Node13&#45;&gt;Node1</title>
<g id="a_edge12_Node000001_Node000013"><a xlink:title=" ">
<path fill="none" stroke="#9a32cd" stroke-dasharray="5,2" d="M139.43,-90.33C162.95,-94.16 187.86,-102.05 206.5,-117.62 249.49,-153.55 261.78,-225.4 264.98,-252.6"/>
<polygon fill="#9a32cd" stroke="#9a32cd" points="139.92,-86.86 129.53,-88.97 138.96,-93.8 139.92,-86.86"/>
</a>
</g>
<text text-anchor="middle" x="179.88" y="-120.62" font-family="Helvetica,sans-Serif" font-size="10.00" fill="grey"> cmdsts</text>
</g>
<!-- Node14 -->
<g id="Node000014" class="node">
<title>Node14</title>
<g id="a_Node000014"><a xlink:href="unionidxd__cmdcap__register.html" target="_top" xlink:title=" ">
<polygon fill="white" stroke="#bfbfbf" points="129.25,-59.75 6,-59.75 6,-39 129.25,-39 129.25,-59.75"/>
<text text-anchor="middle" x="67.62" y="-46.25" font-family="Helvetica,sans-Serif" font-size="10.00">idxd_cmdcap_register</text>
</a>
</g>
</g>
<!-- Node14&#45;&gt;Node1 -->
<g id="edge13_Node000001_Node000014" class="edge">
<title>Node14&#45;&gt;Node1</title>
<g id="a_edge13_Node000001_Node000014"><a xlink:title=" ">
<path fill="none" stroke="#9a32cd" stroke-dasharray="5,2" d="M140.99,-49.51C164.29,-52.98 188.67,-60.71 206.5,-76.62 260.06,-124.44 265.75,-220.3 266.1,-252.52"/>
<polygon fill="#9a32cd" stroke="#9a32cd" points="141.53,-46.05 131.18,-48.31 140.68,-53 141.53,-46.05"/>
</a>
</g>
<text text-anchor="middle" x="179.88" y="-79.62" font-family="Helvetica,sans-Serif" font-size="10.00" fill="grey"> cmdcap</text>
</g>
<!-- Node15 -->
<g id="Node000015" class="node">
<title>Node15</title>
<g id="a_Node000015"><a xlink:href="unionidxd__swerr__register.html" target="_top" xlink:title=" ">
<polygon fill="white" stroke="#bfbfbf" points="123.62,-20.75 11.62,-20.75 11.62,0 123.62,0 123.62,-20.75"/>
<text text-anchor="middle" x="67.62" y="-7.25" font-family="Helvetica,sans-Serif" font-size="10.00">idxd_swerr_register</text>
</a>
</g>
</g>
<!-- Node15&#45;&gt;Node1 -->
<g id="edge14_Node000001_Node000015" class="edge">
<title>Node15&#45;&gt;Node1</title>
<g id="a_edge14_Node000001_Node000015"><a xlink:title=" ">
<path fill="none" stroke="#9a32cd" stroke-dasharray="5,2" d="M135.22,-8.1C160.37,-10.64 187.48,-17.97 206.5,-35.62 239.37,-66.14 259.62,-211.76 264.72,-252.67"/>
<polygon fill="#9a32cd" stroke="#9a32cd" points="135.58,-4.62 125.35,-7.36 135.06,-11.6 135.58,-4.62"/>
</a>
</g>
<text text-anchor="middle" x="179.88" y="-39.62" font-family="Helvetica,sans-Serif" font-size="10.00" fill="grey"> sw_err</text>
</g>
</g>
</svg>
