<?xml version="1.0" encoding="UTF-8" standalone="no"?>
<!DOCTYPE svg PUBLIC "-//W3C//DTD SVG 1.1//EN"
 "http://www.w3.org/Graphics/SVG/1.1/DTD/svg11.dtd">
<!-- Generated by graphviz version 9.0.0 (20230911.1827)
 -->
<!-- Title: ftl_stats_entry Pages: 1 -->
<svg width="96pt" height="181pt"
 viewBox="0.00 0.00 96.00 180.50" xmlns="http://www.w3.org/2000/svg" xmlns:xlink="http://www.w3.org/1999/xlink">
<g id="graph0" class="graph" transform="scale(1 1) rotate(0) translate(4 176.5)">
<title>ftl_stats_entry</title>
<!-- Node1 -->
<g id="Node000001" class="node">
<title>Node1</title>
<g id="a_Node000001"><a xlink:title=" ">
<polygon fill="#999999" stroke="#666666" points="86.88,-20.75 1.12,-20.75 1.12,0 86.88,0 86.88,-20.75"/>
<text text-anchor="middle" x="44" y="-7.25" font-family="Helvetica,sans-Serif" font-size="10.00">ftl_stats_entry</text>
</a>
</g>
</g>
<!-- Node2 -->
<g id="Node000002" class="node">
<title>Node2</title>
<g id="a_Node000002"><a xlink:href="structftl__stats__group.html" target="_top" xlink:title=" ">
<polygon fill="white" stroke="#bfbfbf" points="88,-103 0,-103 0,-82.25 88,-82.25 88,-103"/>
<text text-anchor="middle" x="44" y="-89.5" font-family="Helvetica,sans-Serif" font-size="10.00">ftl_stats_group</text>
</a>
</g>
</g>
<!-- Node2&#45;&gt;Node1 -->
<g id="edge1_Node000001_Node000002" class="edge">
<title>Node2&#45;&gt;Node1</title>
<g id="a_edge1_Node000001_Node000002"><a xlink:title=" ">
<path fill="none" stroke="#9a32cd" stroke-dasharray="5,2" d="M44,-70.74C44,-54.59 44,-32.99 44,-20.8"/>
<polygon fill="#9a32cd" stroke="#9a32cd" points="40.5,-70.27 44,-80.27 47.5,-70.27 40.5,-70.27"/>
</a>
</g>
<text text-anchor="middle" x="56.38" y="-54.75" font-family="Helvetica,sans-Serif" font-size="10.00" fill="grey"> read</text>
<text text-anchor="middle" x="56.38" y="-42" font-family="Helvetica,sans-Serif" font-size="10.00" fill="grey">write</text>
</g>
<!-- Node3 -->
<g id="Node000003" class="node">
<title>Node3</title>
<g id="a_Node000003"><a xlink:href="structftl__stats__error.html" target="_top" xlink:title=" ">
<polygon fill="white" stroke="#bfbfbf" points="85.75,-172.5 2.25,-172.5 2.25,-151.75 85.75,-151.75 85.75,-172.5"/>
<text text-anchor="middle" x="44" y="-159" font-family="Helvetica,sans-Serif" font-size="10.00">ftl_stats_error</text>
</a>
</g>
</g>
<!-- Node3&#45;&gt;Node2 -->
<g id="edge2_Node000002_Node000003" class="edge">
<title>Node3&#45;&gt;Node2</title>
<g id="a_edge2_Node000002_Node000003"><a xlink:title=" ">
<path fill="none" stroke="#9a32cd" stroke-dasharray="5,2" d="M44,-140.32C44,-127.97 44,-112.9 44,-103.28"/>
<polygon fill="#9a32cd" stroke="#9a32cd" points="40.5,-139.94 44,-149.94 47.5,-139.94 40.5,-139.94"/>
</a>
</g>
<text text-anchor="middle" x="59.75" y="-124.25" font-family="Helvetica,sans-Serif" font-size="10.00" fill="grey"> errors</text>
</g>
</g>
</svg>
