<?xml version="1.0" encoding="UTF-8" standalone="no"?>
<!DOCTYPE svg PUBLIC "-//W3C//DTD SVG 1.1//EN"
 "http://www.w3.org/Graphics/SVG/1.1/DTD/svg11.dtd">
<!-- Generated by graphviz version 9.0.0 (20230911.1827)
 -->
<!-- Title: spdk_nvmf_ctrlr_migr_data Pages: 1 -->
<svg width="742pt" height="699pt"
 viewBox="0.00 0.00 741.50 698.69" xmlns="http://www.w3.org/2000/svg" xmlns:xlink="http://www.w3.org/1999/xlink">
<g id="graph0" class="graph" transform="scale(1 1) rotate(0) translate(4 694.69)">
<title>spdk_nvmf_ctrlr_migr_data</title>
<!-- Node1 -->
<g id="Node000001" class="node">
<title>Node1</title>
<g id="a_Node000001"><a xlink:title=" ">
<polygon fill="#999999" stroke="#666666" points="733.5,-291.32 584,-291.32 584,-270.57 733.5,-270.57 733.5,-291.32"/>
<text text-anchor="middle" x="658.75" y="-277.82" font-family="Helvetica,sans-Serif" font-size="10.00">spdk_nvmf_ctrlr_migr_data</text>
</a>
</g>
</g>
<!-- Node2 -->
<g id="Node000002" class="node">
<title>Node2</title>
<g id="a_Node000002"><a xlink:href="structspdk__nvmf__registers.html" target="_top" xlink:title="A subset of struct spdk_nvme_registers that are emulated by a fabrics device.">
<polygon fill="white" stroke="#666666" points="467.75,-589.32 349.75,-589.32 349.75,-568.57 467.75,-568.57 467.75,-589.32"/>
<text text-anchor="middle" x="408.75" y="-575.82" font-family="Helvetica,sans-Serif" font-size="10.00">spdk_nvmf_registers</text>
</a>
</g>
</g>
<!-- Node2&#45;&gt;Node1 -->
<g id="edge1_Node000001_Node000002" class="edge">
<title>Node2&#45;&gt;Node1</title>
<g id="a_edge1_Node000001_Node000002"><a xlink:title=" ">
<path fill="none" stroke="#9a32cd" stroke-dasharray="5,2" d="M425.88,-559.56C473.44,-502.41 612.11,-335.79 648.77,-291.73"/>
<polygon fill="#9a32cd" stroke="#9a32cd" points="423.25,-557.25 419.54,-567.17 428.63,-561.73 423.25,-557.25"/>
</a>
</g>
<text text-anchor="middle" x="531.12" y="-477.19" font-family="Helvetica,sans-Serif" font-size="10.00" fill="grey"> regs</text>
</g>
<!-- Node3 -->
<g id="Node000003" class="node">
<title>Node3</title>
<g id="a_Node000003"><a xlink:href="unionspdk__nvme__cap__register.html" target="_top" xlink:title=" ">
<polygon fill="white" stroke="#bfbfbf" points="145.38,-687.32 7.88,-687.32 7.88,-666.57 145.38,-666.57 145.38,-687.32"/>
<text text-anchor="middle" x="76.62" y="-673.82" font-family="Helvetica,sans-Serif" font-size="10.00">spdk_nvme_cap_register</text>
</a>
</g>
</g>
<!-- Node3&#45;&gt;Node2 -->
<g id="edge2_Node000002_Node000003" class="edge">
<title>Node3&#45;&gt;Node2</title>
<g id="a_edge2_Node000002_Node000003"><a xlink:title=" ">
<path fill="none" stroke="#9a32cd" stroke-dasharray="5,2" d="M157.34,-678.91C206.35,-677.45 269.46,-670.68 321.25,-648.94 353.67,-635.34 383.71,-605.7 398.37,-589.7"/>
<polygon fill="#9a32cd" stroke="#9a32cd" points="157.27,-675.41 147.35,-679.13 157.43,-682.41 157.27,-675.41"/>
</a>
</g>
<text text-anchor="middle" x="246.25" y="-681.19" font-family="Helvetica,sans-Serif" font-size="10.00" fill="grey"> cap</text>
</g>
<!-- Node4 -->
<g id="Node000004" class="node">
<title>Node4</title>
<g id="a_Node000004"><a xlink:href="unionspdk__nvme__vs__register.html" target="_top" xlink:title=" ">
<polygon fill="white" stroke="#bfbfbf" points="142.38,-648.32 10.88,-648.32 10.88,-627.57 142.38,-627.57 142.38,-648.32"/>
<text text-anchor="middle" x="76.62" y="-634.82" font-family="Helvetica,sans-Serif" font-size="10.00">spdk_nvme_vs_register</text>
</a>
</g>
</g>
<!-- Node4&#45;&gt;Node2 -->
<g id="edge3_Node000002_Node000004" class="edge">
<title>Node4&#45;&gt;Node2</title>
<g id="a_edge3_Node000002_Node000004"><a xlink:title=" ">
<path fill="none" stroke="#9a32cd" stroke-dasharray="5,2" d="M154.03,-633.68C202.43,-629.88 266.07,-622.82 321.25,-609.94 342.38,-605.01 365.47,-596.57 382.48,-589.74"/>
<polygon fill="#9a32cd" stroke="#9a32cd" points="153.91,-630.18 144.2,-634.42 154.44,-637.16 153.91,-630.18"/>
</a>
</g>
<text text-anchor="middle" x="246.25" y="-635.19" font-family="Helvetica,sans-Serif" font-size="10.00" fill="grey"> vs</text>
</g>
<!-- Node5 -->
<g id="Node000005" class="node">
<title>Node5</title>
<g id="a_Node000005"><a xlink:href="unionspdk__nvme__cc__register.html" target="_top" xlink:title=" ">
<polygon fill="white" stroke="#bfbfbf" points="142,-609.32 11.25,-609.32 11.25,-588.57 142,-588.57 142,-609.32"/>
<text text-anchor="middle" x="76.62" y="-595.82" font-family="Helvetica,sans-Serif" font-size="10.00">spdk_nvme_cc_register</text>
</a>
</g>
</g>
<!-- Node5&#45;&gt;Node2 -->
<g id="edge4_Node000002_Node000005" class="edge">
<title>Node5&#45;&gt;Node2</title>
<g id="a_edge4_Node000002_Node000005"><a xlink:title=" ">
<path fill="none" stroke="#9a32cd" stroke-dasharray="5,2" d="M153.69,-594.34C213.27,-590.73 294.94,-585.78 349.43,-582.48"/>
<polygon fill="#9a32cd" stroke="#9a32cd" points="153.73,-590.83 143.96,-594.93 154.16,-597.81 153.73,-590.83"/>
</a>
</g>
<text text-anchor="middle" x="246.25" y="-596.19" font-family="Helvetica,sans-Serif" font-size="10.00" fill="grey"> cc</text>
</g>
<!-- Node6 -->
<g id="Node000006" class="node">
<title>Node6</title>
<g id="a_Node000006"><a xlink:href="unionspdk__nvme__csts__register.html" target="_top" xlink:title=" ">
<polygon fill="white" stroke="#bfbfbf" points="146.5,-570.32 6.75,-570.32 6.75,-549.57 146.5,-549.57 146.5,-570.32"/>
<text text-anchor="middle" x="76.62" y="-556.82" font-family="Helvetica,sans-Serif" font-size="10.00">spdk_nvme_csts_register</text>
</a>
</g>
</g>
<!-- Node6&#45;&gt;Node2 -->
<g id="edge5_Node000002_Node000006" class="edge">
<title>Node6&#45;&gt;Node2</title>
<g id="a_edge5_Node000002_Node000006"><a xlink:title=" ">
<path fill="none" stroke="#9a32cd" stroke-dasharray="5,2" d="M158.29,-558.29C205.82,-558.08 267.07,-559.13 321.25,-564.19 331.11,-565.12 341.54,-566.52 351.61,-568.1"/>
<polygon fill="#9a32cd" stroke="#9a32cd" points="158.31,-554.79 148.34,-558.36 158.36,-561.79 158.31,-554.79"/>
</a>
</g>
<text text-anchor="middle" x="246.25" y="-567.19" font-family="Helvetica,sans-Serif" font-size="10.00" fill="grey"> csts</text>
</g>
<!-- Node7 -->
<g id="Node000007" class="node">
<title>Node7</title>
<g id="a_Node000007"><a xlink:href="unionspdk__nvme__aqa__register.html" target="_top" xlink:title=" ">
<polygon fill="white" stroke="#bfbfbf" points="145.75,-531.32 7.5,-531.32 7.5,-510.57 145.75,-510.57 145.75,-531.32"/>
<text text-anchor="middle" x="76.62" y="-517.82" font-family="Helvetica,sans-Serif" font-size="10.00">spdk_nvme_aqa_register</text>
</a>
</g>
</g>
<!-- Node7&#45;&gt;Node2 -->
<g id="edge6_Node000002_Node000007" class="edge">
<title>Node7&#45;&gt;Node2</title>
<g id="a_edge6_Node000002_Node000007"><a xlink:title=" ">
<path fill="none" stroke="#9a32cd" stroke-dasharray="5,2" d="M157.37,-521.01C205.47,-522.66 267.63,-527.66 321.25,-541.19 345.24,-547.25 371.02,-559.29 388.14,-568.16"/>
<polygon fill="#9a32cd" stroke="#9a32cd" points="157.69,-517.52 147.59,-520.72 157.48,-524.51 157.69,-517.52"/>
</a>
</g>
<text text-anchor="middle" x="246.25" y="-544.19" font-family="Helvetica,sans-Serif" font-size="10.00" fill="grey"> aqa</text>
</g>
<!-- Node8 -->
<g id="Node000008" class="node">
<title>Node8</title>
<g id="a_Node000008"><a xlink:href="structspdk__nvmf__ctrlr__feat.html" target="_top" xlink:title=" ">
<polygon fill="white" stroke="#bfbfbf" points="468.5,-291.32 349,-291.32 349,-270.57 468.5,-270.57 468.5,-291.32"/>
<text text-anchor="middle" x="408.75" y="-277.82" font-family="Helvetica,sans-Serif" font-size="10.00">spdk_nvmf_ctrlr_feat</text>
</a>
</g>
</g>
<!-- Node8&#45;&gt;Node1 -->
<g id="edge7_Node000001_Node000008" class="edge">
<title>Node8&#45;&gt;Node1</title>
<g id="a_edge7_Node000001_Node000008"><a xlink:title=" ">
<path fill="none" stroke="#9a32cd" stroke-dasharray="5,2" d="M480.01,-280.94C512.35,-280.94 550.75,-280.94 583.56,-280.94"/>
<polygon fill="#9a32cd" stroke="#9a32cd" points="480.35,-277.44 470.35,-280.94 480.35,-284.44 480.35,-277.44"/>
</a>
</g>
<text text-anchor="middle" x="531.12" y="-284.19" font-family="Helvetica,sans-Serif" font-size="10.00" fill="grey"> feat</text>
</g>
<!-- Node9 -->
<g id="Node000009" class="node">
<title>Node9</title>
<g id="a_Node000009"><a xlink:href="unionspdk__nvme__feat__arbitration.html" target="_top" xlink:title="Data used by Set Features/Get Features SPDK_NVME_FEAT_ARBITRATION.">
<polygon fill="white" stroke="#666666" points="153.25,-492.32 0,-492.32 0,-471.57 153.25,-471.57 153.25,-492.32"/>
<text text-anchor="middle" x="76.62" y="-478.82" font-family="Helvetica,sans-Serif" font-size="10.00">spdk_nvme_feat_arbitration</text>
</a>
</g>
</g>
<!-- Node9&#45;&gt;Node8 -->
<g id="edge8_Node000008_Node000009" class="edge">
<title>Node9&#45;&gt;Node8</title>
<g id="a_edge8_Node000008_Node000009"><a xlink:title=" ">
<path fill="none" stroke="#9a32cd" stroke-dasharray="5,2" d="M165.12,-490C215.03,-490.19 276.37,-482.54 321.25,-450.94 378.12,-410.92 399.89,-322.16 405.88,-291.56"/>
<polygon fill="#9a32cd" stroke="#9a32cd" points="165.25,-486.5 155.2,-489.85 165.14,-493.5 165.25,-486.5"/>
</a>
</g>
<text text-anchor="middle" x="246.25" y="-493.19" font-family="Helvetica,sans-Serif" font-size="10.00" fill="grey"> arbitration</text>
</g>
<!-- Node10 -->
<g id="Node000010" class="node">
<title>Node10</title>
<g id="a_Node000010"><a xlink:href="unionspdk__nvme__feat__power__management.html" target="_top" xlink:title="Data used by Set Features/Get Features SPDK_NVME_FEAT_POWER_MANAGEMENT.">
<polygon fill="white" stroke="#666666" points="142.75,-453.69 10.5,-453.69 10.5,-420.19 142.75,-420.19 142.75,-453.69"/>
<text text-anchor="start" x="18.5" y="-440.19" font-family="Helvetica,sans-Serif" font-size="10.00">spdk_nvme_feat_power</text>
<text text-anchor="middle" x="76.62" y="-427.44" font-family="Helvetica,sans-Serif" font-size="10.00">_management</text>
</a>
</g>
</g>
<!-- Node10&#45;&gt;Node8 -->
<g id="edge9_Node000008_Node000010" class="edge">
<title>Node10&#45;&gt;Node8</title>
<g id="a_edge9_Node000008_Node000010"><a xlink:title=" ">
<path fill="none" stroke="#9a32cd" stroke-dasharray="5,2" d="M154.31,-436.17C204.94,-432.51 270.96,-421.47 321.25,-390.94 362.37,-365.99 391.63,-313.83 402.77,-291.48"/>
<polygon fill="#9a32cd" stroke="#9a32cd" points="154.37,-432.66 144.61,-436.79 154.81,-439.65 154.37,-432.66"/>
</a>
</g>
<text text-anchor="middle" x="246.25" y="-437.19" font-family="Helvetica,sans-Serif" font-size="10.00" fill="grey"> power_management</text>
</g>
<!-- Node11 -->
<g id="Node000011" class="node">
<title>Node11</title>
<g id="a_Node000011"><a xlink:href="unionspdk__nvme__feat__error__recovery.html" target="_top" xlink:title="Data used by Set Features/Get Features SPDK_NVME_FEAT_ERROR_RECOVERY.">
<polygon fill="white" stroke="#666666" points="139.38,-401.69 13.88,-401.69 13.88,-368.19 139.38,-368.19 139.38,-401.69"/>
<text text-anchor="start" x="21.88" y="-388.19" font-family="Helvetica,sans-Serif" font-size="10.00">spdk_nvme_feat_error</text>
<text text-anchor="middle" x="76.62" y="-375.44" font-family="Helvetica,sans-Serif" font-size="10.00">_recovery</text>
</a>
</g>
</g>
<!-- Node11&#45;&gt;Node8 -->
<g id="edge10_Node000008_Node000011" class="edge">
<title>Node11&#45;&gt;Node8</title>
<g id="a_edge10_Node000008_Node000011"><a xlink:title=" ">
<path fill="none" stroke="#9a32cd" stroke-dasharray="5,2" d="M150.99,-377.33C200.43,-370.5 266.38,-358.01 321.25,-335.94 349.15,-324.72 377.91,-304.35 394.24,-291.79"/>
<polygon fill="#9a32cd" stroke="#9a32cd" points="150.7,-373.84 141.25,-378.63 151.62,-380.78 150.7,-373.84"/>
</a>
</g>
<text text-anchor="middle" x="246.25" y="-377.19" font-family="Helvetica,sans-Serif" font-size="10.00" fill="grey"> error_recovery</text>
</g>
<!-- Node12 -->
<g id="Node000012" class="node">
<title>Node12</title>
<g id="a_Node000012"><a xlink:href="unionspdk__nvme__feat__volatile__write__cache.html" target="_top" xlink:title="Data used by Set Features/Get Features SPDK_NVME_FEAT_VOLATILE_WRITE_CACHE.">
<polygon fill="white" stroke="#666666" points="146.12,-349.69 7.12,-349.69 7.12,-316.19 146.12,-316.19 146.12,-349.69"/>
<text text-anchor="start" x="15.12" y="-336.19" font-family="Helvetica,sans-Serif" font-size="10.00">spdk_nvme_feat_volatile</text>
<text text-anchor="middle" x="76.62" y="-323.44" font-family="Helvetica,sans-Serif" font-size="10.00">_write_cache</text>
</a>
</g>
</g>
<!-- Node12&#45;&gt;Node8 -->
<g id="edge11_Node000008_Node000012" class="edge">
<title>Node12&#45;&gt;Node8</title>
<g id="a_edge11_Node000008_Node000012"><a xlink:title=" ">
<path fill="none" stroke="#9a32cd" stroke-dasharray="5,2" d="M157.73,-322.49C205.33,-316.02 266.85,-307.19 321.25,-297.94 332.11,-296.1 343.71,-293.95 354.76,-291.8"/>
<polygon fill="#9a32cd" stroke="#9a32cd" points="157.5,-318.99 148.05,-323.8 158.43,-325.93 157.5,-318.99"/>
</a>
</g>
<text text-anchor="middle" x="246.25" y="-322.19" font-family="Helvetica,sans-Serif" font-size="10.00" fill="grey"> volatile_write_cache</text>
</g>
<!-- Node13 -->
<g id="Node000013" class="node">
<title>Node13</title>
<g id="a_Node000013"><a xlink:href="unionspdk__nvme__feat__number__of__queues.html" target="_top" xlink:title="Data used by Set Features/Get Features SPDK_NVME_FEAT_NUMBER_OF_QUEUES.">
<polygon fill="white" stroke="#666666" points="146.5,-297.69 6.75,-297.69 6.75,-264.19 146.5,-264.19 146.5,-297.69"/>
<text text-anchor="start" x="14.75" y="-284.19" font-family="Helvetica,sans-Serif" font-size="10.00">spdk_nvme_feat_number</text>
<text text-anchor="middle" x="76.62" y="-271.44" font-family="Helvetica,sans-Serif" font-size="10.00">_of_queues</text>
</a>
</g>
</g>
<!-- Node13&#45;&gt;Node8 -->
<g id="edge12_Node000008_Node000013" class="edge">
<title>Node13&#45;&gt;Node8</title>
<g id="a_edge12_Node000008_Node000013"><a xlink:title=" ">
<path fill="none" stroke="#9a32cd" stroke-dasharray="5,2" d="M158.32,-280.94C217.14,-280.94 295.5,-280.94 348.58,-280.94"/>
<polygon fill="#9a32cd" stroke="#9a32cd" points="158.34,-277.44 148.34,-280.94 158.34,-284.44 158.34,-277.44"/>
</a>
</g>
<text text-anchor="middle" x="246.25" y="-284.19" font-family="Helvetica,sans-Serif" font-size="10.00" fill="grey"> number_of_queues</text>
</g>
<!-- Node14 -->
<g id="Node000014" class="node">
<title>Node14</title>
<g id="a_Node000014"><a xlink:href="unionspdk__nvme__feat__interrupt__coalescing.html" target="_top" xlink:title="Data used by Set Features/Get Features SPDK_NVME_FEAT_INTERRUPT_COALESCING.">
<polygon fill="white" stroke="#666666" points="148.75,-245.69 4.5,-245.69 4.5,-212.19 148.75,-212.19 148.75,-245.69"/>
<text text-anchor="start" x="12.5" y="-232.19" font-family="Helvetica,sans-Serif" font-size="10.00">spdk_nvme_feat_interrupt</text>
<text text-anchor="middle" x="76.62" y="-219.44" font-family="Helvetica,sans-Serif" font-size="10.00">_coalescing</text>
</a>
</g>
</g>
<!-- Node14&#45;&gt;Node8 -->
<g id="edge13_Node000008_Node000014" class="edge">
<title>Node14&#45;&gt;Node8</title>
<g id="a_edge13_Node000008_Node000014"><a xlink:title=" ">
<path fill="none" stroke="#9a32cd" stroke-dasharray="5,2" d="M160.59,-239.95C207.77,-246.46 267.92,-255.18 321.25,-264.19 331.81,-265.98 343.06,-268.04 353.84,-270.09"/>
<polygon fill="#9a32cd" stroke="#9a32cd" points="161.07,-236.48 150.69,-238.59 160.12,-243.42 161.07,-236.48"/>
</a>
</g>
<text text-anchor="middle" x="246.25" y="-267.19" font-family="Helvetica,sans-Serif" font-size="10.00" fill="grey"> interrupt_coalescing</text>
</g>
<!-- Node15 -->
<g id="Node000015" class="node">
<title>Node15</title>
<g id="a_Node000015"><a xlink:href="unionspdk__nvme__feat__interrupt__vector__configuration.html" target="_top" xlink:title="Data used by Set Features/Get Features SPDK_NVME_FEAT_INTERRUPT_VECTOR_CONFIGURATION.">
<polygon fill="white" stroke="#666666" points="148.75,-193.69 4.5,-193.69 4.5,-160.19 148.75,-160.19 148.75,-193.69"/>
<text text-anchor="start" x="12.5" y="-180.19" font-family="Helvetica,sans-Serif" font-size="10.00">spdk_nvme_feat_interrupt</text>
<text text-anchor="middle" x="76.62" y="-167.44" font-family="Helvetica,sans-Serif" font-size="10.00">_vector_configuration</text>
</a>
</g>
</g>
<!-- Node15&#45;&gt;Node8 -->
<g id="edge14_Node000008_Node000015" class="edge">
<title>Node15&#45;&gt;Node8</title>
<g id="a_edge14_Node000008_Node000015"><a xlink:title=" ">
<path fill="none" stroke="#9a32cd" stroke-dasharray="5,2" d="M160.5,-176C211.48,-179.41 275.57,-191.33 321.25,-226.19 335.39,-236.99 325.5,-250.66 339.25,-261.94 343.26,-265.23 347.79,-267.95 352.57,-270.21"/>
<polygon fill="#9a32cd" stroke="#9a32cd" points="160.87,-172.51 150.69,-175.45 160.48,-179.5 160.87,-172.51"/>
</a>
</g>
<text text-anchor="middle" x="246.25" y="-230.19" font-family="Helvetica,sans-Serif" font-size="10.00" fill="grey"> interrupt_vector_configuration</text>
</g>
<!-- Node16 -->
<g id="Node000016" class="node">
<title>Node16</title>
<g id="a_Node000016"><a xlink:href="unionspdk__nvme__feat__write__atomicity.html" target="_top" xlink:title="Data used by Set Features/Get Features SPDK_NVME_FEAT_WRITE_ATOMICITY.">
<polygon fill="white" stroke="#666666" points="140.12,-141.69 13.12,-141.69 13.12,-108.19 140.12,-108.19 140.12,-141.69"/>
<text text-anchor="start" x="21.12" y="-128.19" font-family="Helvetica,sans-Serif" font-size="10.00">spdk_nvme_feat_write</text>
<text text-anchor="middle" x="76.62" y="-115.44" font-family="Helvetica,sans-Serif" font-size="10.00">_atomicity</text>
</a>
</g>
</g>
<!-- Node16&#45;&gt;Node8 -->
<g id="edge15_Node000008_Node000016" class="edge">
<title>Node16&#45;&gt;Node8</title>
<g id="a_edge15_Node000008_Node000016"><a xlink:title=" ">
<path fill="none" stroke="#9a32cd" stroke-dasharray="5,2" d="M151.87,-115.03C205.97,-112.22 277.22,-118.43 321.25,-161.19 353.88,-192.89 308.63,-228.31 339.25,-261.94 342.24,-265.23 345.75,-267.97 349.56,-270.24"/>
<polygon fill="#9a32cd" stroke="#9a32cd" points="151.87,-111.52 142.12,-115.65 152.32,-118.5 151.87,-111.52"/>
</a>
</g>
<text text-anchor="middle" x="246.25" y="-165.19" font-family="Helvetica,sans-Serif" font-size="10.00" fill="grey"> write_atomicity</text>
</g>
<!-- Node17 -->
<g id="Node000017" class="node">
<title>Node17</title>
<g id="a_Node000017"><a xlink:href="unionspdk__nvme__feat__async__event__configuration.html" target="_top" xlink:title="Data used by Set Features / Get Features SPDK_NVME_FEAT_ASYNC_EVENT_CONFIGURATION.">
<polygon fill="#fff0f0" stroke="red" points="142,-89.69 11.25,-89.69 11.25,-56.19 142,-56.19 142,-89.69"/>
<text text-anchor="start" x="19.25" y="-76.19" font-family="Helvetica,sans-Serif" font-size="10.00">spdk_nvme_feat_async</text>
<text text-anchor="middle" x="76.62" y="-63.44" font-family="Helvetica,sans-Serif" font-size="10.00">_event_configuration</text>
</a>
</g>
</g>
<!-- Node17&#45;&gt;Node8 -->
<g id="edge16_Node000008_Node000017" class="edge">
<title>Node17&#45;&gt;Node8</title>
<g id="a_edge16_Node000008_Node000017"><a xlink:title=" ">
<path fill="none" stroke="#9a32cd" stroke-dasharray="5,2" d="M153.63,-58.23C207.78,-52.5 278.31,-55.52 321.25,-98.19 347.22,-124 315.53,-234.06 339.25,-261.94 341.97,-265.14 345.17,-267.82 348.69,-270.07"/>
<polygon fill="#9a32cd" stroke="#9a32cd" points="153.36,-54.74 143.84,-59.39 154.18,-61.69 153.36,-54.74"/>
</a>
</g>
<text text-anchor="middle" x="246.25" y="-102.19" font-family="Helvetica,sans-Serif" font-size="10.00" fill="grey"> async_event_configuration</text>
</g>
<!-- Node19 -->
<g id="Node000019" class="node">
<title>Node19</title>
<g id="a_Node000019"><a xlink:href="unionspdk__nvme__feat__keep__alive__timer.html" target="_top" xlink:title="Data used by Set Features/Get Features SPDK_NVME_FEAT_KEEP_ALIVE_TIMER.">
<polygon fill="white" stroke="#666666" points="139.38,-37.69 13.88,-37.69 13.88,-4.19 139.38,-4.19 139.38,-37.69"/>
<text text-anchor="start" x="21.88" y="-24.19" font-family="Helvetica,sans-Serif" font-size="10.00">spdk_nvme_feat_keep</text>
<text text-anchor="middle" x="76.62" y="-11.44" font-family="Helvetica,sans-Serif" font-size="10.00">_alive_timer</text>
</a>
</g>
</g>
<!-- Node19&#45;&gt;Node8 -->
<g id="edge17_Node000008_Node000019" class="edge">
<title>Node19&#45;&gt;Node8</title>
<g id="a_edge17_Node000008_Node000019"><a xlink:title=" ">
<path fill="none" stroke="#9a32cd" stroke-dasharray="5,2" d="M151.08,-4.11C205.62,3.66 277.79,3.17 321.25,-40.19 356.25,-75.12 307.76,-223.83 339.25,-261.94 341.92,-265.18 345.09,-267.89 348.58,-270.16"/>
<polygon fill="#9a32cd" stroke="#9a32cd" points="150.57,-0.64 141.22,-5.64 151.64,-7.56 150.57,-0.64"/>
</a>
</g>
<text text-anchor="middle" x="246.25" y="-44.19" font-family="Helvetica,sans-Serif" font-size="10.00" fill="grey"> keep_alive_timer</text>
</g>
<!-- Node20 -->
<g id="Node000020" class="node">
<title>Node20</title>
<g id="a_Node000020"><a xlink:href="unionspdk__nvme__async__event__completion.html" target="_top" xlink:title="Asynchronous Event Request Completion.">
<polygon fill="white" stroke="#666666" points="478.25,-252.69 339.25,-252.69 339.25,-219.19 478.25,-219.19 478.25,-252.69"/>
<text text-anchor="start" x="347.25" y="-239.19" font-family="Helvetica,sans-Serif" font-size="10.00">spdk_nvme_async_event</text>
<text text-anchor="middle" x="408.75" y="-226.44" font-family="Helvetica,sans-Serif" font-size="10.00">_completion</text>
</a>
</g>
</g>
<!-- Node20&#45;&gt;Node1 -->
<g id="edge18_Node000001_Node000020" class="edge">
<title>Node20&#45;&gt;Node1</title>
<g id="a_edge18_Node000001_Node000020"><a xlink:title=" ">
<path fill="none" stroke="#9a32cd" stroke-dasharray="5,2" d="M489.65,-250.36C514.15,-254.79 541.19,-259.69 566,-264.19 576.51,-266.1 587.71,-268.14 598.53,-270.12"/>
<polygon fill="#9a32cd" stroke="#9a32cd" points="490.55,-246.97 480.08,-248.63 489.3,-253.86 490.55,-246.97"/>
</a>
</g>
<text text-anchor="middle" x="531.12" y="-267.19" font-family="Helvetica,sans-Serif" font-size="10.00" fill="grey"> async_events</text>
</g>
</g>
</svg>
