<?xml version="1.0" encoding="UTF-8" standalone="no"?>
<!DOCTYPE svg PUBLIC "-//W3C//DTD SVG 1.1//EN"
 "http://www.w3.org/Graphics/SVG/1.1/DTD/svg11.dtd">
<!-- Generated by graphviz version 9.0.0 (20230911.1827)
 -->
<!-- Title: spdk_nvmf_transport_opts Pages: 1 -->
<svg width="398pt" height="98pt"
 viewBox="0.00 0.00 397.50 98.25" xmlns="http://www.w3.org/2000/svg" xmlns:xlink="http://www.w3.org/1999/xlink">
<g id="graph0" class="graph" transform="scale(1 1) rotate(0) translate(4 94.25)">
<title>spdk_nvmf_transport_opts</title>
<!-- Node1 -->
<g id="Node000001" class="node">
<title>Node1</title>
<g id="a_Node000001"><a xlink:title=" ">
<polygon fill="#999999" stroke="#666666" points="242.38,-20.75 96.62,-20.75 96.62,0 242.38,0 242.38,-20.75"/>
<text text-anchor="middle" x="169.5" y="-7.25" font-family="Helvetica,sans-Serif" font-size="10.00">spdk_nvmf_transport_opts</text>
</a>
</g>
</g>
<!-- Node2 -->
<g id="Node000002" class="node">
<title>Node2</title>
<g id="a_Node000002"><a xlink:href="structspdk__json__val.html" target="_top" xlink:title=" ">
<polygon fill="white" stroke="#bfbfbf" points="85,-90.25 0,-90.25 0,-69.5 85,-69.5 85,-90.25"/>
<text text-anchor="middle" x="42.5" y="-76.75" font-family="Helvetica,sans-Serif" font-size="10.00">spdk_json_val</text>
</a>
</g>
</g>
<!-- Node2&#45;&gt;Node1 -->
<g id="edge1_Node000001_Node000002" class="edge">
<title>Node2&#45;&gt;Node1</title>
<g id="a_edge1_Node000001_Node000002"><a xlink:title=" ">
<path fill="none" stroke="#9a32cd" stroke-dasharray="5,2" d="M54.75,-59.92C60.48,-52.38 67.88,-44.22 76.25,-38.75 88.26,-30.91 102.57,-25.26 116.34,-21.2"/>
<polygon fill="#9a32cd" stroke="#9a32cd" points="52,-57.76 49.13,-67.95 57.73,-61.77 52,-57.76"/>
</a>
</g>
<text text-anchor="middle" x="121.12" y="-42" font-family="Helvetica,sans-Serif" font-size="10.00" fill="grey"> transport_specific</text>
</g>
<!-- Node3 -->
<g id="Node000003" class="node">
<title>Node3</title>
<g id="a_Node000003"><a xlink:href="structspdk__nvme__cdata__oncs.html" target="_top" xlink:title="Identify Controller data Optional NVM Command Support.">
<polygon fill="white" stroke="#666666" points="235.62,-90.25 103.38,-90.25 103.38,-69.5 235.62,-69.5 235.62,-90.25"/>
<text text-anchor="middle" x="169.5" y="-76.75" font-family="Helvetica,sans-Serif" font-size="10.00">spdk_nvme_cdata_oncs</text>
</a>
</g>
</g>
<!-- Node3&#45;&gt;Node1 -->
<g id="edge2_Node000001_Node000003" class="edge">
<title>Node3&#45;&gt;Node1</title>
<g id="a_edge2_Node000001_Node000003"><a xlink:title=" ">
<path fill="none" stroke="#9a32cd" stroke-dasharray="5,2" d="M169.5,-58.07C169.5,-45.72 169.5,-30.65 169.5,-21.03"/>
<polygon fill="#9a32cd" stroke="#9a32cd" points="166,-57.69 169.5,-67.69 173,-57.69 166,-57.69"/>
</a>
</g>
<text text-anchor="middle" x="182.25" y="-42" font-family="Helvetica,sans-Serif" font-size="10.00" fill="grey"> oncs</text>
</g>
<!-- Node4 -->
<g id="Node000004" class="node">
<title>Node4</title>
<g id="a_Node000004"><a xlink:href="structspdk__nvme__cdata__fuses.html" target="_top" xlink:title=" ">
<polygon fill="white" stroke="#bfbfbf" points="389.5,-90.25 253.5,-90.25 253.5,-69.5 389.5,-69.5 389.5,-90.25"/>
<text text-anchor="middle" x="321.5" y="-76.75" font-family="Helvetica,sans-Serif" font-size="10.00">spdk_nvme_cdata_fuses</text>
</a>
</g>
</g>
<!-- Node4&#45;&gt;Node1 -->
<g id="edge3_Node000001_Node000004" class="edge">
<title>Node4&#45;&gt;Node1</title>
<g id="a_edge3_Node000001_Node000004"><a xlink:title=" ">
<path fill="none" stroke="#9a32cd" stroke-dasharray="5,2" d="M289.23,-64.55C259.87,-51.51 217.31,-32.6 191.63,-21.2"/>
<polygon fill="#9a32cd" stroke="#9a32cd" points="287.45,-67.59 298.01,-68.45 290.3,-61.19 287.45,-67.59"/>
</a>
</g>
<text text-anchor="middle" x="273.12" y="-42" font-family="Helvetica,sans-Serif" font-size="10.00" fill="grey"> fuses</text>
</g>
</g>
</svg>
