<?xml version="1.0" encoding="UTF-8" standalone="no"?>
<!DOCTYPE svg PUBLIC "-//W3C//DTD SVG 1.1//EN"
 "http://www.w3.org/Graphics/SVG/1.1/DTD/svg11.dtd">
<!-- Generated by graphviz version 9.0.0 (20230911.1827)
 -->
<!-- Title: spdk_bdev_io_internal_fields Pages: 1 -->
<svg width="949pt" height="344pt"
 viewBox="0.00 0.00 949.00 343.50" xmlns="http://www.w3.org/2000/svg" xmlns:xlink="http://www.w3.org/1999/xlink">
<g id="graph0" class="graph" transform="scale(1 1) rotate(0) translate(4 339.5)">
<title>spdk_bdev_io_internal_fields</title>
<!-- Node1 -->
<g id="Node000001" class="node">
<title>Node1</title>
<g id="a_Node000001"><a xlink:title="Fields that are used internally by the bdev subsystem.">
<polygon fill="#999999" stroke="#666666" points="512.25,-247.5 386.75,-247.5 386.75,-214 512.25,-214 512.25,-247.5"/>
<text text-anchor="start" x="394.75" y="-234" font-family="Helvetica,sans-Serif" font-size="10.00">spdk_bdev_io_internal</text>
<text text-anchor="middle" x="449.5" y="-221.25" font-family="Helvetica,sans-Serif" font-size="10.00">_fields</text>
</a>
</g>
</g>
<!-- Node2 -->
<g id="Node000002" class="node">
<title>Node2</title>
<g id="a_Node000002"><a xlink:href="structspdk__bdev__io.html" target="_top" xlink:title=" ">
<polygon fill="white" stroke="#bfbfbf" points="727.75,-167.12 645,-167.12 645,-146.38 727.75,-146.38 727.75,-167.12"/>
<text text-anchor="middle" x="686.38" y="-153.62" font-family="Helvetica,sans-Serif" font-size="10.00">spdk_bdev_io</text>
</a>
</g>
</g>
<!-- Node1&#45;&gt;Node2 -->
<g id="edge9_Node000002_Node000001" class="edge">
<title>Node1&#45;&gt;Node2</title>
<g id="a_edge9_Node000002_Node000001"><a xlink:title=" ">
<path fill="none" stroke="#9a32cd" stroke-dasharray="5,2" d="M524.16,-245.49C557.15,-248.57 595.6,-247.1 627,-231.75 654.57,-218.27 672.89,-184.79 680.85,-167.48"/>
<polygon fill="#9a32cd" stroke="#9a32cd" points="524.57,-242.01 514.24,-244.39 523.79,-248.97 524.57,-242.01"/>
</a>
</g>
<text text-anchor="middle" x="588" y="-250" font-family="Helvetica,sans-Serif" font-size="10.00" fill="grey"> internal</text>
</g>
<!-- Node2&#45;&gt;Node1 -->
<g id="edge1_Node000001_Node000002" class="edge">
<title>Node2&#45;&gt;Node1</title>
<g id="a_edge1_Node000001_Node000002"><a xlink:title=" ">
<path fill="none" stroke="#9a32cd" stroke-dasharray="5,2" d="M633.8,-169.37C608.14,-175.97 576.75,-184.54 549,-193.5 530.56,-199.46 510.5,-206.87 493.33,-213.5"/>
<polygon fill="#9a32cd" stroke="#9a32cd" points="634.5,-172.81 643.32,-166.95 632.77,-166.02 634.5,-172.81"/>
</a>
</g>
<text text-anchor="middle" x="588" y="-221.5" font-family="Helvetica,sans-Serif" font-size="10.00" fill="grey"> cb</text>
<text text-anchor="middle" x="588" y="-208.75" font-family="Helvetica,sans-Serif" font-size="10.00" fill="grey">get_buf_cb</text>
<text text-anchor="middle" x="588" y="-196" font-family="Helvetica,sans-Serif" font-size="10.00" fill="grey">stored_user_cb</text>
</g>
<!-- Node21 -->
<g id="Node000021" class="node">
<title>Node21</title>
<g id="a_Node000021"><a xlink:href="structspdk__bdev__io__abort__params.html" target="_top" xlink:title=" ">
<polygon fill="white" stroke="#bfbfbf" points="941,-173.5 827.5,-173.5 827.5,-140 941,-140 941,-173.5"/>
<text text-anchor="start" x="835.5" y="-160" font-family="Helvetica,sans-Serif" font-size="10.00">spdk_bdev_io_abort</text>
<text text-anchor="middle" x="884.25" y="-147.25" font-family="Helvetica,sans-Serif" font-size="10.00">_params</text>
</a>
</g>
</g>
<!-- Node2&#45;&gt;Node21 -->
<g id="edge6_Node000021_Node000002" class="edge">
<title>Node2&#45;&gt;Node21</title>
<g id="a_edge6_Node000021_Node000002"><a xlink:title=" ">
<path fill="none" stroke="#9a32cd" stroke-dasharray="5,2" d="M739.16,-156.75C766.24,-156.75 799.43,-156.75 827.12,-156.75"/>
<polygon fill="#9a32cd" stroke="#9a32cd" points="739.47,-153.25 729.47,-156.75 739.47,-160.25 739.47,-153.25"/>
</a>
</g>
<text text-anchor="middle" x="777.62" y="-160" font-family="Helvetica,sans-Serif" font-size="10.00" fill="grey"> bio_to_abort</text>
</g>
<!-- Node3 -->
<g id="Node000003" class="node">
<title>Node3</title>
<g id="a_Node000003"><a xlink:href="structspdk__bdev.html" target="_top" xlink:title=" ">
<polygon fill="white" stroke="orangered" points="68.5,-273.12 0,-273.12 0,-252.38 68.5,-252.38 68.5,-273.12"/>
<text text-anchor="middle" x="34.25" y="-259.62" font-family="Helvetica,sans-Serif" font-size="10.00">spdk_bdev</text>
</a>
</g>
</g>
<!-- Node3&#45;&gt;Node2 -->
<g id="edge2_Node000002_Node000003" class="edge">
<title>Node3&#45;&gt;Node2</title>
<g id="a_edge2_Node000002_Node000003"><a xlink:title=" ">
<path fill="none" stroke="#9a32cd" stroke-dasharray="5,2" d="M78.73,-276.91C182.37,-307.85 448.6,-370.59 627,-263.75 662.95,-242.22 678.21,-189.99 683.28,-167.42"/>
<polygon fill="#9a32cd" stroke="#9a32cd" points="79.81,-273.58 69.22,-274.01 77.77,-280.27 79.81,-273.58"/>
</a>
</g>
<text text-anchor="middle" x="319.62" y="-326" font-family="Helvetica,sans-Serif" font-size="10.00" fill="grey"> bdev</text>
</g>
<!-- Node51 -->
<g id="Node000051" class="node">
<title>Node51</title>
<g id="a_Node000051"><a xlink:href="structspdk__bdev__io__wait__entry.html" target="_top" xlink:title="Structure to register a callback when an spdk_bdev_io becomes available.">
<polygon fill="white" stroke="#666666" points="271.25,-254.12 131.5,-254.12 131.5,-233.38 271.25,-233.38 271.25,-254.12"/>
<text text-anchor="middle" x="201.38" y="-240.62" font-family="Helvetica,sans-Serif" font-size="10.00">spdk_bdev_io_wait_entry</text>
</a>
</g>
</g>
<!-- Node3&#45;&gt;Node51 -->
<g id="edge13_Node000051_Node000003" class="edge">
<title>Node3&#45;&gt;Node51</title>
<g id="a_edge13_Node000051_Node000003"><a xlink:title=" ">
<path fill="none" stroke="#9a32cd" stroke-dasharray="5,2" d="M80.23,-255.81C82.35,-255.53 84.45,-255.26 86.5,-255 100.89,-253.2 116.33,-251.52 131.06,-250.02"/>
<polygon fill="#9a32cd" stroke="#9a32cd" points="79.76,-252.35 70.35,-257.2 80.74,-259.28 79.76,-252.35"/>
</a>
</g>
<text text-anchor="middle" x="100" y="-258" font-family="Helvetica,sans-Serif" font-size="10.00" fill="grey"> bdev</text>
</g>
<!-- Node15 -->
<g id="Node000015" class="node">
<title>Node15</title>
<g id="a_Node000015"><a xlink:href="structspdk__bdev__io__block__params.html" target="_top" xlink:title=" ">
<polygon fill="white" stroke="orangered" points="506.62,-189.5 392.38,-189.5 392.38,-156 506.62,-156 506.62,-189.5"/>
<text text-anchor="start" x="400.38" y="-176" font-family="Helvetica,sans-Serif" font-size="10.00">spdk_bdev_io_block</text>
<text text-anchor="middle" x="449.5" y="-163.25" font-family="Helvetica,sans-Serif" font-size="10.00">_params</text>
</a>
</g>
</g>
<!-- Node15&#45;&gt;Node2 -->
<g id="edge3_Node000002_Node000015" class="edge">
<title>Node15&#45;&gt;Node2</title>
<g id="a_edge3_Node000002_Node000015"><a xlink:title=" ">
<path fill="none" stroke="#9a32cd" stroke-dasharray="5,2" d="M518.5,-161.3C528.7,-159.96 539.11,-158.78 549,-158 581.1,-155.46 617.58,-155.27 644.73,-155.64"/>
<polygon fill="#9a32cd" stroke="#9a32cd" points="518.04,-157.83 508.62,-162.68 519.01,-164.77 518.04,-157.83"/>
</a>
</g>
<text text-anchor="middle" x="588" y="-161" font-family="Helvetica,sans-Serif" font-size="10.00" fill="grey"> bdev</text>
</g>
<!-- Node20 -->
<g id="Node000020" class="node">
<title>Node20</title>
<g id="a_Node000020"><a xlink:href="structspdk__bdev__io__reset__params.html" target="_top" xlink:title=" ">
<polygon fill="white" stroke="#bfbfbf" points="505.88,-137.5 393.12,-137.5 393.12,-104 505.88,-104 505.88,-137.5"/>
<text text-anchor="start" x="401.12" y="-124" font-family="Helvetica,sans-Serif" font-size="10.00">spdk_bdev_io_reset</text>
<text text-anchor="middle" x="449.5" y="-111.25" font-family="Helvetica,sans-Serif" font-size="10.00">_params</text>
</a>
</g>
</g>
<!-- Node20&#45;&gt;Node2 -->
<g id="edge4_Node000002_Node000020" class="edge">
<title>Node20&#45;&gt;Node2</title>
<g id="a_edge4_Node000002_Node000020"><a xlink:title=" ">
<path fill="none" stroke="#9a32cd" stroke-dasharray="5,2" d="M517.62,-123.93C550.79,-126.36 591.27,-130.6 627,-138 636.59,-139.98 646.83,-142.96 656.01,-145.97"/>
<polygon fill="#9a32cd" stroke="#9a32cd" points="517.93,-120.45 507.72,-123.25 517.45,-127.43 517.93,-120.45"/>
</a>
</g>
<text text-anchor="middle" x="588" y="-141" font-family="Helvetica,sans-Serif" font-size="10.00" fill="grey"> reset</text>
</g>
<!-- Node21&#45;&gt;Node2 -->
<g id="edge5_Node000002_Node000021" class="edge">
<title>Node21&#45;&gt;Node2</title>
<g id="a_edge5_Node000002_Node000021"><a xlink:title=" ">
<path fill="none" stroke="#9a32cd" stroke-dasharray="5,2" d="M815.76,-140.79C813.65,-140.5 811.56,-140.23 809.5,-140 781.34,-136.84 773.81,-136.05 745.75,-140 736.98,-141.23 727.68,-143.46 719.14,-145.9"/>
<polygon fill="#9a32cd" stroke="#9a32cd" points="815.17,-144.25 825.6,-142.4 816.3,-137.34 815.17,-144.25"/>
</a>
</g>
<text text-anchor="middle" x="777.62" y="-143" font-family="Helvetica,sans-Serif" font-size="10.00" fill="grey"> abort</text>
</g>
<!-- Node22 -->
<g id="Node000022" class="node">
<title>Node22</title>
<g id="a_Node000022"><a xlink:href="structspdk__bdev__io__nvme__passthru__params.html" target="_top" xlink:title=" ">
<polygon fill="white" stroke="orangered" points="531,-85.5 368,-85.5 368,-52 531,-52 531,-85.5"/>
<text text-anchor="start" x="376" y="-72" font-family="Helvetica,sans-Serif" font-size="10.00">spdk_bdev_io_nvme_passthru</text>
<text text-anchor="middle" x="449.5" y="-59.25" font-family="Helvetica,sans-Serif" font-size="10.00">_params</text>
</a>
</g>
</g>
<!-- Node22&#45;&gt;Node2 -->
<g id="edge7_Node000002_Node000022" class="edge">
<title>Node22&#45;&gt;Node2</title>
<g id="a_edge7_Node000002_Node000022"><a xlink:title=" ">
<path fill="none" stroke="#9a32cd" stroke-dasharray="5,2" d="M542.39,-81.36C570.47,-87.39 600.83,-96.2 627,-109 646.05,-118.32 664.37,-134.97 675.25,-145.93"/>
<polygon fill="#9a32cd" stroke="#9a32cd" points="543.32,-77.98 532.82,-79.41 541.92,-84.84 543.32,-77.98"/>
</a>
</g>
<text text-anchor="middle" x="588" y="-112" font-family="Helvetica,sans-Serif" font-size="10.00" fill="grey"> nvme_passthru</text>
</g>
<!-- Node49 -->
<g id="Node000049" class="node">
<title>Node49</title>
<g id="a_Node000049"><a xlink:href="structspdk__bdev__io__zone__mgmt__params.html" target="_top" xlink:title=" ">
<polygon fill="white" stroke="#bfbfbf" points="522.38,-33.5 376.62,-33.5 376.62,0 522.38,0 522.38,-33.5"/>
<text text-anchor="start" x="384.62" y="-20" font-family="Helvetica,sans-Serif" font-size="10.00">spdk_bdev_io_zone_mgmt</text>
<text text-anchor="middle" x="449.5" y="-7.25" font-family="Helvetica,sans-Serif" font-size="10.00">_params</text>
</a>
</g>
</g>
<!-- Node49&#45;&gt;Node2 -->
<g id="edge8_Node000002_Node000049" class="edge">
<title>Node49&#45;&gt;Node2</title>
<g id="a_edge8_Node000002_Node000049"><a xlink:title=" ">
<path fill="none" stroke="#9a32cd" stroke-dasharray="5,2" d="M533.73,-27.13C565.23,-34.19 599.98,-46.06 627,-66 655.64,-87.13 673.92,-126.88 681.45,-145.98"/>
<polygon fill="#9a32cd" stroke="#9a32cd" points="534.72,-23.76 524.22,-25.14 533.29,-30.61 534.72,-23.76"/>
</a>
</g>
<text text-anchor="middle" x="588" y="-69" font-family="Helvetica,sans-Serif" font-size="10.00" fill="grey"> zone_mgmt</text>
</g>
<!-- Node50 -->
<g id="Node000050" class="node">
<title>Node50</title>
<g id="a_Node000050"><a xlink:href="structspdk__iobuf__entry.html" target="_top" xlink:title="iobuf queue entry">
<polygon fill="white" stroke="#666666" points="251.38,-184.12 151.38,-184.12 151.38,-163.38 251.38,-163.38 251.38,-184.12"/>
<text text-anchor="middle" x="201.38" y="-170.62" font-family="Helvetica,sans-Serif" font-size="10.00">spdk_iobuf_entry</text>
</a>
</g>
</g>
<!-- Node50&#45;&gt;Node1 -->
<g id="edge10_Node000001_Node000050" class="edge">
<title>Node50&#45;&gt;Node1</title>
<g id="a_edge10_Node000001_Node000050"><a xlink:title=" ">
<path fill="none" stroke="#9a32cd" stroke-dasharray="5,2" d="M260.12,-187.12C298.06,-195.91 347.66,-207.4 386.44,-216.38"/>
<polygon fill="#9a32cd" stroke="#9a32cd" points="261.25,-183.79 250.72,-184.95 259.68,-190.61 261.25,-183.79"/>
</a>
</g>
<text text-anchor="middle" x="319.62" y="-210" font-family="Helvetica,sans-Serif" font-size="10.00" fill="grey"> iobuf</text>
</g>
<!-- Node50&#45;&gt;Node50 -->
<g id="edge11_Node000050_Node000050" class="edge">
<title>Node50&#45;&gt;Node50</title>
<g id="a_edge11_Node000050_Node000050"><a xlink:title=" ">
<path fill="none" stroke="#9a32cd" stroke-dasharray="5,2" d="M183.75,-195.94C186.24,-199.6 192.12,-202.12 201.38,-202.12 218.8,-202.12 224.24,-193.18 217.71,-184.52"/>
<polygon fill="#9a32cd" stroke="#9a32cd" points="187.22,-196.36 184.87,-186.03 180.27,-195.57 187.22,-196.36"/>
</a>
</g>
<text text-anchor="middle" x="201.38" y="-205.38" font-family="Helvetica,sans-Serif" font-size="10.00" fill="grey"> cb_fn</text>
</g>
<!-- Node51&#45;&gt;Node1 -->
<g id="edge12_Node000001_Node000051" class="edge">
<title>Node51&#45;&gt;Node1</title>
<g id="a_edge12_Node000001_Node000051"><a xlink:title=" ">
<path fill="none" stroke="#9a32cd" stroke-dasharray="5,2" d="M282.81,-239.5C316.51,-237.72 355.08,-235.68 386.52,-234.02"/>
<polygon fill="#9a32cd" stroke="#9a32cd" points="282.9,-235.99 273.1,-240.01 283.27,-242.98 282.9,-235.99"/>
</a>
</g>
<text text-anchor="middle" x="319.62" y="-242" font-family="Helvetica,sans-Serif" font-size="10.00" fill="grey"> waitq_entry</text>
</g>
</g>
</svg>
