<?xml version="1.0" encoding="UTF-8" standalone="no"?>
<!DOCTYPE svg PUBLIC "-//W3C//DTD SVG 1.1//EN"
 "http://www.w3.org/Graphics/SVG/1.1/DTD/svg11.dtd">
<!-- Generated by graphviz version 9.0.0 (20230911.1827)
 -->
<!-- Title: spdk_bdev_part::bdev_part_internal_fields Pages: 1 -->
<svg width="522pt" height="193pt"
 viewBox="0.00 0.00 522.25 193.25" xmlns="http://www.w3.org/2000/svg" xmlns:xlink="http://www.w3.org/1999/xlink">
<g id="graph0" class="graph" transform="scale(1 1) rotate(0) translate(4 189.25)">
<title>spdk_bdev_part::bdev_part_internal_fields</title>
<!-- Node1 -->
<g id="Node000001" class="node">
<title>Node1</title>
<g id="a_Node000001"><a xlink:title="Fields that are used internally by part.c These fields should only be accessed from a module using an...">
<polygon fill="#999999" stroke="#666666" points="281.38,-33.5 158.12,-33.5 158.12,0 281.38,0 281.38,-33.5"/>
<text text-anchor="start" x="166.12" y="-20" font-family="Helvetica,sans-Serif" font-size="10.00">spdk_bdev_part::bdev</text>
<text text-anchor="middle" x="219.75" y="-7.25" font-family="Helvetica,sans-Serif" font-size="10.00">_part_internal_fields</text>
</a>
</g>
</g>
<!-- Node2 -->
<g id="Node000002" class="node">
<title>Node2</title>
<g id="a_Node000002"><a xlink:href="structspdk__bdev.html" target="_top" xlink:title=" ">
<polygon fill="white" stroke="#bfbfbf" points="254,-103 185.5,-103 185.5,-82.25 254,-82.25 254,-103"/>
<text text-anchor="middle" x="219.75" y="-89.5" font-family="Helvetica,sans-Serif" font-size="10.00">spdk_bdev</text>
</a>
</g>
</g>
<!-- Node2&#45;&gt;Node1 -->
<g id="edge1_Node000001_Node000002" class="edge">
<title>Node2&#45;&gt;Node1</title>
<g id="a_edge1_Node000001_Node000002"><a xlink:title=" ">
<path fill="none" stroke="#9a32cd" stroke-dasharray="5,2" d="M219.75,-70.63C219.75,-58.97 219.75,-44.69 219.75,-33.91"/>
<polygon fill="#9a32cd" stroke="#9a32cd" points="216.25,-70.45 219.75,-80.45 223.25,-70.45 216.25,-70.45"/>
</a>
</g>
<text text-anchor="middle" x="233.25" y="-54.75" font-family="Helvetica,sans-Serif" font-size="10.00" fill="grey"> bdev</text>
</g>
<!-- Node3 -->
<g id="Node000003" class="node">
<title>Node3</title>
<g id="a_Node000003"><a xlink:href="structspdk__uuid.html" target="_top" xlink:title=" ">
<polygon fill="white" stroke="#bfbfbf" points="65.5,-178.88 0,-178.88 0,-158.12 65.5,-158.12 65.5,-178.88"/>
<text text-anchor="middle" x="32.75" y="-165.38" font-family="Helvetica,sans-Serif" font-size="10.00">spdk_uuid</text>
</a>
</g>
</g>
<!-- Node3&#45;&gt;Node2 -->
<g id="edge2_Node000002_Node000003" class="edge">
<title>Node3&#45;&gt;Node2</title>
<g id="a_edge2_Node000002_Node000003"><a xlink:title=" ">
<path fill="none" stroke="#9a32cd" stroke-dasharray="5,2" d="M67.9,-153.61C104.9,-139 162.21,-116.36 194.82,-103.48"/>
<polygon fill="#9a32cd" stroke="#9a32cd" points="67,-150.2 58.99,-157.13 69.58,-156.71 67,-150.2"/>
</a>
</g>
<text text-anchor="middle" x="160.75" y="-124.25" font-family="Helvetica,sans-Serif" font-size="10.00" fill="grey"> uuid</text>
</g>
<!-- Node4 -->
<g id="Node000004" class="node">
<title>Node4</title>
<g id="a_Node000004"><a xlink:href="unionspdk__bdev__nvme__ctratt.html" target="_top" xlink:title="Union for controller attributes field, to list whether bdev supports fdp etc.">
<polygon fill="white" stroke="#666666" points="216.25,-178.88 83.25,-178.88 83.25,-158.12 216.25,-158.12 216.25,-178.88"/>
<text text-anchor="middle" x="149.75" y="-165.38" font-family="Helvetica,sans-Serif" font-size="10.00">spdk_bdev_nvme_ctratt</text>
</a>
</g>
</g>
<!-- Node4&#45;&gt;Node2 -->
<g id="edge3_Node000002_Node000004" class="edge">
<title>Node4&#45;&gt;Node2</title>
<g id="a_edge3_Node000002_Node000004"><a xlink:title=" ">
<path fill="none" stroke="#9a32cd" stroke-dasharray="5,2" d="M166.76,-149.54C180.66,-134.88 199.75,-114.73 210.82,-103.05"/>
<polygon fill="#9a32cd" stroke="#9a32cd" points="164.28,-147.08 159.94,-156.74 169.36,-151.89 164.28,-147.08"/>
</a>
</g>
<text text-anchor="middle" x="208.38" y="-124.25" font-family="Helvetica,sans-Serif" font-size="10.00" fill="grey"> ctratt</text>
</g>
<!-- Node5 -->
<g id="Node000005" class="node">
<title>Node5</title>
<g id="a_Node000005"><a xlink:href="structspdk__bdev__module.html" target="_top" xlink:title="Block device module.">
<polygon fill="#fff0f0" stroke="red" points="345,-178.88 234.5,-178.88 234.5,-158.12 345,-158.12 345,-178.88"/>
<text text-anchor="middle" x="289.75" y="-165.38" font-family="Helvetica,sans-Serif" font-size="10.00">spdk_bdev_module</text>
</a>
</g>
</g>
<!-- Node5&#45;&gt;Node2 -->
<g id="edge4_Node000002_Node000005" class="edge">
<title>Node5&#45;&gt;Node2</title>
<g id="a_edge4_Node000002_Node000005"><a xlink:title=" ">
<path fill="none" stroke="#9a32cd" stroke-dasharray="5,2" d="M272.74,-149.54C258.84,-134.88 239.75,-114.73 228.68,-103.05"/>
<polygon fill="#9a32cd" stroke="#9a32cd" points="270.14,-151.89 279.56,-156.74 275.22,-147.08 270.14,-151.89"/>
</a>
</g>
<text text-anchor="middle" x="279.12" y="-124.25" font-family="Helvetica,sans-Serif" font-size="10.00" fill="grey"> fn_table</text>
</g>
<!-- Node8 -->
<g id="Node000008" class="node">
<title>Node8</title>
<g id="a_Node000008"><a xlink:href="structspdk__bdev_1_1____bdev__internal__fields.html" target="_top" xlink:title="Fields that are used internally by the bdev subsystem.">
<polygon fill="#fff0f0" stroke="red" points="514.25,-185.25 363.25,-185.25 363.25,-151.75 514.25,-151.75 514.25,-185.25"/>
<text text-anchor="start" x="371.25" y="-171.75" font-family="Helvetica,sans-Serif" font-size="10.00">spdk_bdev::__bdev_internal</text>
<text text-anchor="middle" x="438.75" y="-159" font-family="Helvetica,sans-Serif" font-size="10.00">_fields</text>
</a>
</g>
</g>
<!-- Node8&#45;&gt;Node2 -->
<g id="edge5_Node000002_Node000008" class="edge">
<title>Node8&#45;&gt;Node2</title>
<g id="a_edge5_Node000002_Node000008"><a xlink:title=" ">
<path fill="none" stroke="#9a32cd" stroke-dasharray="5,2" d="M382.3,-147.59C358.41,-139.26 330.27,-129.54 304.75,-121 286.96,-115.05 267,-108.61 250.89,-103.47"/>
<polygon fill="#9a32cd" stroke="#9a32cd" points="380.92,-150.82 391.51,-150.82 383.23,-144.21 380.92,-150.82"/>
</a>
</g>
<text text-anchor="middle" x="361" y="-124.25" font-family="Helvetica,sans-Serif" font-size="10.00" fill="grey"> internal</text>
</g>
</g>
</svg>
