<?xml version="1.0" encoding="UTF-8" standalone="no"?>
<!DOCTYPE svg PUBLIC "-//W3C//DTD SVG 1.1//EN"
 "http://www.w3.org/Graphics/SVG/1.1/DTD/svg11.dtd">
<!-- Generated by graphviz version 9.0.0 (20230911.1827)
 -->
<!-- Title: spdk_reduce_backing_io Pages: 1 -->
<svg width="310pt" height="98pt"
 viewBox="0.00 0.00 310.38 98.25" xmlns="http://www.w3.org/2000/svg" xmlns:xlink="http://www.w3.org/1999/xlink">
<g id="graph0" class="graph" transform="scale(1 1) rotate(0) translate(4 94.25)">
<title>spdk_reduce_backing_io</title>
<!-- Node1 -->
<g id="Node000001" class="node">
<title>Node1</title>
<g id="a_Node000001"><a xlink:title=" ">
<polygon fill="#999999" stroke="#666666" points="219.75,-20.75 84.5,-20.75 84.5,0 219.75,0 219.75,-20.75"/>
<text text-anchor="middle" x="152.12" y="-7.25" font-family="Helvetica,sans-Serif" font-size="10.00">spdk_reduce_backing_io</text>
</a>
</g>
</g>
<!-- Node2 -->
<g id="Node000002" class="node">
<title>Node2</title>
<g id="a_Node000002"><a xlink:href="structspdk__reduce__backing__dev.html" target="_top" xlink:title=" ">
<polygon fill="white" stroke="#bfbfbf" points="144.25,-90.25 0,-90.25 0,-69.5 144.25,-69.5 144.25,-90.25"/>
<text text-anchor="middle" x="72.12" y="-76.75" font-family="Helvetica,sans-Serif" font-size="10.00">spdk_reduce_backing_dev</text>
</a>
</g>
</g>
<!-- Node2&#45;&gt;Node1 -->
<g id="edge1_Node000001_Node000002" class="edge">
<title>Node2&#45;&gt;Node1</title>
<g id="a_edge1_Node000001_Node000002"><a xlink:title=" ">
<path fill="none" stroke="#9a32cd" stroke-dasharray="5,2" d="M92.28,-61.87C107.48,-49.05 127.8,-31.9 140.42,-21.25"/>
<polygon fill="#9a32cd" stroke="#9a32cd" points="90.13,-59.1 84.74,-68.23 94.64,-64.45 90.13,-59.1"/>
</a>
</g>
<text text-anchor="middle" x="130.62" y="-42" font-family="Helvetica,sans-Serif" font-size="10.00" fill="grey"> dev</text>
</g>
<!-- Node3 -->
<g id="Node000003" class="node">
<title>Node3</title>
<g id="a_Node000003"><a xlink:href="structspdk__reduce__vol__cb__args.html" target="_top" xlink:title=" ">
<polygon fill="white" stroke="#bfbfbf" points="302.38,-90.25 161.88,-90.25 161.88,-69.5 302.38,-69.5 302.38,-90.25"/>
<text text-anchor="middle" x="232.12" y="-76.75" font-family="Helvetica,sans-Serif" font-size="10.00">spdk_reduce_vol_cb_args</text>
</a>
</g>
</g>
<!-- Node3&#45;&gt;Node1 -->
<g id="edge2_Node000001_Node000003" class="edge">
<title>Node3&#45;&gt;Node1</title>
<g id="a_edge2_Node000001_Node000003"><a xlink:title=" ">
<path fill="none" stroke="#9a32cd" stroke-dasharray="5,2" d="M211.97,-61.87C196.77,-49.05 176.45,-31.9 163.83,-21.25"/>
<polygon fill="#9a32cd" stroke="#9a32cd" points="209.61,-64.45 219.51,-68.23 214.12,-59.1 209.61,-64.45"/>
</a>
</g>
<text text-anchor="middle" x="241.12" y="-42" font-family="Helvetica,sans-Serif" font-size="10.00" fill="grey"> backing_cb_args</text>
</g>
</g>
</svg>
