<?xml version="1.0" encoding="UTF-8" standalone="no"?>
<!DOCTYPE svg PUBLIC "-//W3C//DTD SVG 1.1//EN"
 "http://www.w3.org/Graphics/SVG/1.1/DTD/svg11.dtd">
<!-- Generated by graphviz version 9.0.0 (20230911.1827)
 -->
<!-- Title: spdk_nvmf_request Pages: 1 -->
<svg width="884pt" height="623pt"
 viewBox="0.00 0.00 883.50 622.75" xmlns="http://www.w3.org/2000/svg" xmlns:xlink="http://www.w3.org/1999/xlink">
<g id="graph0" class="graph" transform="scale(1 1) rotate(0) translate(4 618.75)">
<title>spdk_nvmf_request</title>
<!-- Node1 -->
<g id="Node000001" class="node">
<title>Node1</title>
<g id="a_Node000001"><a xlink:title=" ">
<polygon fill="#999999" stroke="#666666" points="660.38,-168.75 548.38,-168.75 548.38,-148 660.38,-148 660.38,-168.75"/>
<text text-anchor="middle" x="604.38" y="-155.25" font-family="Helvetica,sans-Serif" font-size="10.00">spdk_nvmf_request</text>
</a>
</g>
</g>
<!-- Node1&#45;&gt;Node1 -->
<g id="edge22_Node000001_Node000001" class="edge">
<title>Node1&#45;&gt;Node1</title>
<g id="a_edge22_Node000001_Node000001"><a xlink:title=" ">
<path fill="none" stroke="#9a32cd" stroke-dasharray="5,2" d="M584.01,-180.56C586.89,-184.23 593.68,-186.75 604.38,-186.75 624.51,-186.75 630.8,-177.81 623.25,-169.15"/>
<polygon fill="#9a32cd" stroke="#9a32cd" points="587.48,-181.02 585.31,-170.65 580.54,-180.11 587.48,-181.02"/>
</a>
</g>
<text text-anchor="middle" x="604.38" y="-215.5" font-family="Helvetica,sans-Serif" font-size="10.00" fill="grey"> cmd_cb_fn</text>
<text text-anchor="middle" x="604.38" y="-202.75" font-family="Helvetica,sans-Serif" font-size="10.00" fill="grey">first_fused_req</text>
<text text-anchor="middle" x="604.38" y="-190" font-family="Helvetica,sans-Serif" font-size="10.00" fill="grey">req_to_abort</text>
</g>
<!-- Node2 -->
<g id="Node000002" class="node">
<title>Node2</title>
<g id="a_Node000002"><a xlink:href="structspdk__nvmf__qpair.html" target="_top" xlink:title=" ">
<polygon fill="white" stroke="#bfbfbf" points="875.5,-236.75 775.5,-236.75 775.5,-216 875.5,-216 875.5,-236.75"/>
<text text-anchor="middle" x="825.5" y="-223.25" font-family="Helvetica,sans-Serif" font-size="10.00">spdk_nvmf_qpair</text>
</a>
</g>
</g>
<!-- Node1&#45;&gt;Node2 -->
<g id="edge4_Node000002_Node000001" class="edge">
<title>Node1&#45;&gt;Node2</title>
<g id="a_edge4_Node000002_Node000001"><a xlink:title=" ">
<path fill="none" stroke="#9a32cd" stroke-dasharray="5,2" d="M652.01,-172.45C682.14,-181.58 722.18,-193.81 757.5,-204.88 768.46,-208.31 780.4,-212.12 791.13,-215.57"/>
<polygon fill="#9a32cd" stroke="#9a32cd" points="653.41,-169.22 642.83,-169.67 651.38,-175.91 653.41,-169.22"/>
</a>
</g>
<text text-anchor="middle" x="721.5" y="-220.38" font-family="Helvetica,sans-Serif" font-size="10.00" fill="grey"> connect_req</text>
<text text-anchor="middle" x="721.5" y="-207.62" font-family="Helvetica,sans-Serif" font-size="10.00" fill="grey">first_fused_req</text>
</g>
<!-- Node2&#45;&gt;Node1 -->
<g id="edge1_Node000001_Node000002" class="edge">
<title>Node2&#45;&gt;Node1</title>
<g id="a_edge1_Node000001_Node000002"><a xlink:title=" ">
<path fill="none" stroke="#9a32cd" stroke-dasharray="5,2" d="M809.17,-207.45C796.82,-193.72 778.16,-176.12 757.5,-167.62 727.16,-155.14 690.52,-152.58 660.8,-153.26"/>
<polygon fill="#9a32cd" stroke="#9a32cd" points="806.18,-209.34 815.35,-214.64 811.49,-204.77 806.18,-209.34"/>
</a>
</g>
<text text-anchor="middle" x="721.5" y="-170.62" font-family="Helvetica,sans-Serif" font-size="10.00" fill="grey"> qpair</text>
</g>
<!-- Node3 -->
<g id="Node000003" class="node">
<title>Node3</title>
<g id="a_Node000003"><a xlink:href="structspdk__nvmf__transport.html" target="_top" xlink:title=" ">
<polygon fill="white" stroke="orangered" points="664.12,-302.75 544.62,-302.75 544.62,-282 664.12,-282 664.12,-302.75"/>
<text text-anchor="middle" x="604.38" y="-289.25" font-family="Helvetica,sans-Serif" font-size="10.00">spdk_nvmf_transport</text>
</a>
</g>
</g>
<!-- Node3&#45;&gt;Node2 -->
<g id="edge2_Node000002_Node000003" class="edge">
<title>Node3&#45;&gt;Node2</title>
<g id="a_edge2_Node000002_Node000003"><a xlink:title=" ">
<path fill="none" stroke="#9a32cd" stroke-dasharray="5,2" d="M675.42,-280.9C701.57,-275.65 731.27,-268.53 757.5,-259.38 774.4,-253.48 792.54,-244.35 805.69,-237.19"/>
<polygon fill="#9a32cd" stroke="#9a32cd" points="675.08,-277.4 665.93,-282.74 676.42,-284.27 675.08,-277.4"/>
</a>
</g>
<text text-anchor="middle" x="721.5" y="-280.62" font-family="Helvetica,sans-Serif" font-size="10.00" fill="grey"> transport</text>
</g>
<!-- Node10 -->
<g id="Node000010" class="node">
<title>Node10</title>
<g id="a_Node000010"><a xlink:href="structspdk__nvmf__poll__group.html" target="_top" xlink:title=" ">
<polygon fill="white" stroke="orangered" points="667.5,-263.75 541.25,-263.75 541.25,-243 667.5,-243 667.5,-263.75"/>
<text text-anchor="middle" x="604.38" y="-250.25" font-family="Helvetica,sans-Serif" font-size="10.00">spdk_nvmf_poll_group</text>
</a>
</g>
</g>
<!-- Node10&#45;&gt;Node2 -->
<g id="edge3_Node000002_Node000010" class="edge">
<title>Node10&#45;&gt;Node2</title>
<g id="a_edge3_Node000002_Node000010"><a xlink:title=" ">
<path fill="none" stroke="#9a32cd" stroke-dasharray="5,2" d="M679.29,-244.27C710.86,-240.38 746.88,-235.94 775.14,-232.46"/>
<polygon fill="#9a32cd" stroke="#9a32cd" points="678.87,-240.79 669.38,-245.49 679.73,-247.74 678.87,-240.79"/>
</a>
</g>
<text text-anchor="middle" x="721.5" y="-245.62" font-family="Helvetica,sans-Serif" font-size="10.00" fill="grey"> group</text>
</g>
<!-- Node14 -->
<g id="Node000014" class="node">
<title>Node14</title>
<g id="a_Node000014"><a xlink:href="unionnvmf__h2c__msg.html" target="_top" xlink:title=" ">
<polygon fill="white" stroke="#bfbfbf" points="404.38,-455.75 314.12,-455.75 314.12,-435 404.38,-435 404.38,-455.75"/>
<text text-anchor="middle" x="359.25" y="-442.25" font-family="Helvetica,sans-Serif" font-size="10.00">nvmf_h2c_msg</text>
</a>
</g>
</g>
<!-- Node14&#45;&gt;Node1 -->
<g id="edge5_Node000001_Node000014" class="edge">
<title>Node14&#45;&gt;Node1</title>
<g id="a_edge5_Node000001_Node000014"><a xlink:title=" ">
<path fill="none" stroke="#9a32cd" stroke-dasharray="5,2" d="M376.4,-426.31C423.25,-371 558.17,-211.74 594.35,-169.03"/>
<polygon fill="#9a32cd" stroke="#9a32cd" points="373.96,-423.77 370.17,-433.67 379.3,-428.3 373.96,-423.77"/>
</a>
</g>
<text text-anchor="middle" x="485.75" y="-338.62" font-family="Helvetica,sans-Serif" font-size="10.00" fill="grey"> cmd</text>
</g>
<!-- Node15 -->
<g id="Node000015" class="node">
<title>Node15</title>
<g id="a_Node000015"><a xlink:href="structspdk__nvmf__capsule__cmd.html" target="_top" xlink:title=" ">
<polygon fill="white" stroke="#bfbfbf" points="155.88,-614.75 16.88,-614.75 16.88,-594 155.88,-594 155.88,-614.75"/>
<text text-anchor="middle" x="86.38" y="-601.25" font-family="Helvetica,sans-Serif" font-size="10.00">spdk_nvmf_capsule_cmd</text>
</a>
</g>
</g>
<!-- Node15&#45;&gt;Node14 -->
<g id="edge6_Node000014_Node000015" class="edge">
<title>Node15&#45;&gt;Node14</title>
<g id="a_edge6_Node000014_Node000015"><a xlink:title=" ">
<path fill="none" stroke="#9a32cd" stroke-dasharray="5,2" d="M167.38,-596.69C201.25,-590.52 239.83,-579.4 270.25,-559.38 311.6,-532.15 341.63,-478.85 353.11,-456.09"/>
<polygon fill="#9a32cd" stroke="#9a32cd" points="166.86,-593.23 157.58,-598.35 168.02,-600.13 166.86,-593.23"/>
</a>
</g>
<text text-anchor="middle" x="230.5" y="-593.62" font-family="Helvetica,sans-Serif" font-size="10.00" fill="grey"> nvmf_cmd</text>
</g>
<!-- Node16 -->
<g id="Node000016" class="node">
<title>Node16</title>
<g id="a_Node000016"><a xlink:href="structspdk__nvme__cmd.html" target="_top" xlink:title=" ">
<polygon fill="white" stroke="orangered" points="135.62,-575.75 37.12,-575.75 37.12,-555 135.62,-555 135.62,-575.75"/>
<text text-anchor="middle" x="86.38" y="-562.25" font-family="Helvetica,sans-Serif" font-size="10.00">spdk_nvme_cmd</text>
</a>
</g>
</g>
<!-- Node16&#45;&gt;Node14 -->
<g id="edge7_Node000014_Node000016" class="edge">
<title>Node16&#45;&gt;Node14</title>
<g id="a_edge7_Node000014_Node000016"><a xlink:title=" ">
<path fill="none" stroke="#9a32cd" stroke-dasharray="5,2" d="M147.21,-554.71C184.17,-546.54 231.72,-533.08 270.25,-512.38 300.02,-496.38 330.45,-470.71 346.56,-456.23"/>
<polygon fill="#9a32cd" stroke="#9a32cd" points="146.64,-551.26 137.59,-556.77 148.1,-558.1 146.64,-551.26"/>
</a>
</g>
<text text-anchor="middle" x="230.5" y="-545.62" font-family="Helvetica,sans-Serif" font-size="10.00" fill="grey"> nvme_cmd</text>
</g>
<!-- Node42 -->
<g id="Node000042" class="node">
<title>Node42</title>
<g id="a_Node000042"><a xlink:href="structspdk__nvmf__fabric__prop__set__cmd.html" target="_top" xlink:title=" ">
<polygon fill="white" stroke="#bfbfbf" points="151.38,-537.12 21.38,-537.12 21.38,-503.62 151.38,-503.62 151.38,-537.12"/>
<text text-anchor="start" x="29.38" y="-523.62" font-family="Helvetica,sans-Serif" font-size="10.00">spdk_nvmf_fabric_prop</text>
<text text-anchor="middle" x="86.38" y="-510.88" font-family="Helvetica,sans-Serif" font-size="10.00">_set_cmd</text>
</a>
</g>
</g>
<!-- Node42&#45;&gt;Node14 -->
<g id="edge8_Node000014_Node000042" class="edge">
<title>Node42&#45;&gt;Node14</title>
<g id="a_edge8_Node000014_Node000042"><a xlink:title=" ">
<path fill="none" stroke="#9a32cd" stroke-dasharray="5,2" d="M162.64,-503.42C195.81,-495.54 235.15,-485.65 270.25,-475.38 289.92,-469.61 311.73,-462.18 328.72,-456.16"/>
<polygon fill="#9a32cd" stroke="#9a32cd" points="162.04,-499.96 153.11,-505.66 163.65,-506.78 162.04,-499.96"/>
</a>
</g>
<text text-anchor="middle" x="230.5" y="-498.62" font-family="Helvetica,sans-Serif" font-size="10.00" fill="grey"> prop_set_cmd</text>
</g>
<!-- Node43 -->
<g id="Node000043" class="node">
<title>Node43</title>
<g id="a_Node000043"><a xlink:href="structspdk__nvmf__fabric__prop__get__cmd.html" target="_top" xlink:title=" ">
<polygon fill="white" stroke="#bfbfbf" points="151.38,-485.12 21.38,-485.12 21.38,-451.62 151.38,-451.62 151.38,-485.12"/>
<text text-anchor="start" x="29.38" y="-471.62" font-family="Helvetica,sans-Serif" font-size="10.00">spdk_nvmf_fabric_prop</text>
<text text-anchor="middle" x="86.38" y="-458.88" font-family="Helvetica,sans-Serif" font-size="10.00">_get_cmd</text>
</a>
</g>
</g>
<!-- Node43&#45;&gt;Node14 -->
<g id="edge9_Node000014_Node000043" class="edge">
<title>Node43&#45;&gt;Node14</title>
<g id="a_edge9_Node000014_Node000043"><a xlink:title=" ">
<path fill="none" stroke="#9a32cd" stroke-dasharray="5,2" d="M163,-461.95C211.63,-457.82 273.13,-452.6 313.98,-449.13"/>
<polygon fill="#9a32cd" stroke="#9a32cd" points="162.74,-458.46 153.08,-462.8 163.34,-465.44 162.74,-458.46"/>
</a>
</g>
<text text-anchor="middle" x="230.5" y="-461.62" font-family="Helvetica,sans-Serif" font-size="10.00" fill="grey"> prop_get_cmd</text>
</g>
<!-- Node44 -->
<g id="Node000044" class="node">
<title>Node44</title>
<g id="a_Node000044"><a xlink:href="structspdk__nvmf__fabric__connect__cmd.html" target="_top" xlink:title=" ">
<polygon fill="white" stroke="orangered" points="172.75,-433.75 0,-433.75 0,-413 172.75,-413 172.75,-433.75"/>
<text text-anchor="middle" x="86.38" y="-420.25" font-family="Helvetica,sans-Serif" font-size="10.00">spdk_nvmf_fabric_connect_cmd</text>
</a>
</g>
</g>
<!-- Node44&#45;&gt;Node14 -->
<g id="edge10_Node000014_Node000044" class="edge">
<title>Node44&#45;&gt;Node14</title>
<g id="a_edge10_Node000014_Node000044"><a xlink:title=" ">
<path fill="none" stroke="#9a32cd" stroke-dasharray="5,2" d="M184.39,-427.42C212.15,-428.96 242.43,-430.99 270.25,-433.62 284.52,-434.98 300.04,-436.9 314.01,-438.79"/>
<polygon fill="#9a32cd" stroke="#9a32cd" points="184.75,-423.94 174.58,-426.9 184.38,-430.93 184.75,-423.94"/>
</a>
</g>
<text text-anchor="middle" x="230.5" y="-436.62" font-family="Helvetica,sans-Serif" font-size="10.00" fill="grey"> connect_cmd</text>
</g>
<!-- Node45 -->
<g id="Node000045" class="node">
<title>Node45</title>
<g id="a_Node000045"><a xlink:href="structspdk__nvmf__fabric__auth__send__cmd.html" target="_top" xlink:title=" ">
<polygon fill="white" stroke="orangered" points="151.38,-395.12 21.38,-395.12 21.38,-361.62 151.38,-361.62 151.38,-395.12"/>
<text text-anchor="start" x="29.38" y="-381.62" font-family="Helvetica,sans-Serif" font-size="10.00">spdk_nvmf_fabric_auth</text>
<text text-anchor="middle" x="86.38" y="-368.88" font-family="Helvetica,sans-Serif" font-size="10.00">_send_cmd</text>
</a>
</g>
</g>
<!-- Node45&#45;&gt;Node14 -->
<g id="edge11_Node000014_Node000045" class="edge">
<title>Node45&#45;&gt;Node14</title>
<g id="a_edge11_Node000014_Node000045"><a xlink:title=" ">
<path fill="none" stroke="#9a32cd" stroke-dasharray="5,2" d="M162.61,-388.15C195.94,-393.37 235.41,-400.78 270.25,-410.62 292.7,-416.97 317.32,-426.96 334.79,-434.61"/>
<polygon fill="#9a32cd" stroke="#9a32cd" points="163.47,-384.74 153.06,-386.69 162.41,-391.66 163.47,-384.74"/>
</a>
</g>
<text text-anchor="middle" x="230.5" y="-413.62" font-family="Helvetica,sans-Serif" font-size="10.00" fill="grey"> auth_send_cmd</text>
</g>
<!-- Node46 -->
<g id="Node000046" class="node">
<title>Node46</title>
<g id="a_Node000046"><a xlink:href="structspdk__nvmf__fabric__auth__recv__cmd.html" target="_top" xlink:title=" ">
<polygon fill="white" stroke="orangered" points="151.38,-343.12 21.38,-343.12 21.38,-309.62 151.38,-309.62 151.38,-343.12"/>
<text text-anchor="start" x="29.38" y="-329.62" font-family="Helvetica,sans-Serif" font-size="10.00">spdk_nvmf_fabric_auth</text>
<text text-anchor="middle" x="86.38" y="-316.88" font-family="Helvetica,sans-Serif" font-size="10.00">_recv_cmd</text>
</a>
</g>
</g>
<!-- Node46&#45;&gt;Node14 -->
<g id="edge12_Node000014_Node000046" class="edge">
<title>Node46&#45;&gt;Node14</title>
<g id="a_edge12_Node000014_Node000046"><a xlink:title=" ">
<path fill="none" stroke="#9a32cd" stroke-dasharray="5,2" d="M162.32,-339.34C196.43,-347.03 236.6,-358.67 270.25,-375.62 301.41,-391.32 332.02,-419.17 347.61,-434.5"/>
<polygon fill="#9a32cd" stroke="#9a32cd" points="163.47,-336.01 152.95,-337.3 161.98,-342.85 163.47,-336.01"/>
</a>
</g>
<text text-anchor="middle" x="230.5" y="-378.62" font-family="Helvetica,sans-Serif" font-size="10.00" fill="grey"> auth_recv_cmd</text>
</g>
<!-- Node47 -->
<g id="Node000047" class="node">
<title>Node47</title>
<g id="a_Node000047"><a xlink:href="unionnvmf__c2h__msg.html" target="_top" xlink:title=" ">
<polygon fill="white" stroke="#bfbfbf" points="404.38,-246.75 314.12,-246.75 314.12,-226 404.38,-226 404.38,-246.75"/>
<text text-anchor="middle" x="359.25" y="-233.25" font-family="Helvetica,sans-Serif" font-size="10.00">nvmf_c2h_msg</text>
</a>
</g>
</g>
<!-- Node47&#45;&gt;Node1 -->
<g id="edge13_Node000001_Node000047" class="edge">
<title>Node47&#45;&gt;Node1</title>
<g id="a_edge13_Node000001_Node000047"><a xlink:title=" ">
<path fill="none" stroke="#9a32cd" stroke-dasharray="5,2" d="M415.78,-228.98C447.84,-223.69 488.56,-215.19 523.25,-202.38 546.62,-193.74 571.46,-179.15 587.18,-169.15"/>
<polygon fill="#9a32cd" stroke="#9a32cd" points="415.65,-225.46 406.32,-230.49 416.74,-232.37 415.65,-225.46"/>
</a>
</g>
<text text-anchor="middle" x="485.75" y="-225.62" font-family="Helvetica,sans-Serif" font-size="10.00" fill="grey"> rsp</text>
</g>
<!-- Node48 -->
<g id="Node000048" class="node">
<title>Node48</title>
<g id="a_Node000048"><a xlink:href="structspdk__nvme__cpl.html" target="_top" xlink:title="Completion queue entry.">
<polygon fill="#fff0f0" stroke="red" points="132.25,-291.75 40.5,-291.75 40.5,-271 132.25,-271 132.25,-291.75"/>
<text text-anchor="middle" x="86.38" y="-278.25" font-family="Helvetica,sans-Serif" font-size="10.00">spdk_nvme_cpl</text>
</a>
</g>
</g>
<!-- Node48&#45;&gt;Node47 -->
<g id="edge14_Node000047_Node000048" class="edge">
<title>Node48&#45;&gt;Node47</title>
<g id="a_edge14_Node000047_Node000048"><a xlink:title=" ">
<path fill="none" stroke="#9a32cd" stroke-dasharray="5,2" d="M143.86,-273.31C180.05,-267.99 227.98,-260.69 270.25,-253.38 284.51,-250.91 300.02,-247.99 314,-245.27"/>
<polygon fill="#9a32cd" stroke="#9a32cd" points="143.43,-269.83 134.04,-274.74 144.45,-276.76 143.43,-269.83"/>
</a>
</g>
<text text-anchor="middle" x="230.5" y="-268.62" font-family="Helvetica,sans-Serif" font-size="10.00" fill="grey"> nvme_cpl</text>
</g>
<!-- Node50 -->
<g id="Node000050" class="node">
<title>Node50</title>
<g id="a_Node000050"><a xlink:href="structspdk__nvmf__fabric__prop__get__rsp.html" target="_top" xlink:title=" ">
<polygon fill="white" stroke="orangered" points="151.38,-253.12 21.38,-253.12 21.38,-219.62 151.38,-219.62 151.38,-253.12"/>
<text text-anchor="start" x="29.38" y="-239.62" font-family="Helvetica,sans-Serif" font-size="10.00">spdk_nvmf_fabric_prop</text>
<text text-anchor="middle" x="86.38" y="-226.88" font-family="Helvetica,sans-Serif" font-size="10.00">_get_rsp</text>
</a>
</g>
</g>
<!-- Node50&#45;&gt;Node47 -->
<g id="edge15_Node000047_Node000050" class="edge">
<title>Node50&#45;&gt;Node47</title>
<g id="a_edge15_Node000047_Node000050"><a xlink:title=" ">
<path fill="none" stroke="#9a32cd" stroke-dasharray="5,2" d="M163,-236.38C211.63,-236.38 273.13,-236.38 313.98,-236.38"/>
<polygon fill="#9a32cd" stroke="#9a32cd" points="163.08,-232.88 153.08,-236.38 163.08,-239.88 163.08,-232.88"/>
</a>
</g>
<text text-anchor="middle" x="230.5" y="-239.62" font-family="Helvetica,sans-Serif" font-size="10.00" fill="grey"> prop_get_rsp</text>
</g>
<!-- Node51 -->
<g id="Node000051" class="node">
<title>Node51</title>
<g id="a_Node000051"><a xlink:href="structspdk__nvmf__fabric__connect__rsp.html" target="_top" xlink:title=" ">
<polygon fill="white" stroke="orangered" points="169.75,-201.75 3,-201.75 3,-181 169.75,-181 169.75,-201.75"/>
<text text-anchor="middle" x="86.38" y="-188.25" font-family="Helvetica,sans-Serif" font-size="10.00">spdk_nvmf_fabric_connect_rsp</text>
</a>
</g>
</g>
<!-- Node51&#45;&gt;Node47 -->
<g id="edge16_Node000047_Node000051" class="edge">
<title>Node51&#45;&gt;Node47</title>
<g id="a_edge16_Node000047_Node000051"><a xlink:title=" ">
<path fill="none" stroke="#9a32cd" stroke-dasharray="5,2" d="M172.48,-203.89C203.31,-208.59 238.39,-214.13 270.25,-219.62 284.5,-222.08 300.01,-224.96 313.99,-227.64"/>
<polygon fill="#9a32cd" stroke="#9a32cd" points="173.23,-200.47 162.82,-202.43 172.18,-207.39 173.23,-200.47"/>
</a>
</g>
<text text-anchor="middle" x="230.5" y="-222.62" font-family="Helvetica,sans-Serif" font-size="10.00" fill="grey"> connect_rsp</text>
</g>
<!-- Node52 -->
<g id="Node000052" class="node">
<title>Node52</title>
<g id="a_Node000052"><a xlink:href="structspdk__nvmf__stripped__data.html" target="_top" xlink:title=" ">
<polygon fill="white" stroke="#bfbfbf" points="430.25,-207.75 288.25,-207.75 288.25,-187 430.25,-187 430.25,-207.75"/>
<text text-anchor="middle" x="359.25" y="-194.25" font-family="Helvetica,sans-Serif" font-size="10.00">spdk_nvmf_stripped_data</text>
</a>
</g>
</g>
<!-- Node52&#45;&gt;Node1 -->
<g id="edge17_Node000001_Node000052" class="edge">
<title>Node52&#45;&gt;Node1</title>
<g id="a_edge17_Node000001_Node000052"><a xlink:title=" ">
<path fill="none" stroke="#9a32cd" stroke-dasharray="5,2" d="M441.98,-187.56C468.02,-184.11 496.9,-179.94 523.25,-175.38 533.62,-173.58 544.69,-171.4 555.19,-169.21"/>
<polygon fill="#9a32cd" stroke="#9a32cd" points="441.59,-184.08 432.13,-188.85 442.5,-191.02 441.59,-184.08"/>
</a>
</g>
<text text-anchor="middle" x="485.75" y="-188.62" font-family="Helvetica,sans-Serif" font-size="10.00" fill="grey"> stripped_data</text>
</g>
<!-- Node53 -->
<g id="Node000053" class="node">
<title>Node53</title>
<g id="a_Node000053"><a xlink:href="structspdk__nvmf__dif__info.html" target="_top" xlink:title=" ">
<polygon fill="white" stroke="#bfbfbf" points="415.25,-168.75 303.25,-168.75 303.25,-148 415.25,-148 415.25,-168.75"/>
<text text-anchor="middle" x="359.25" y="-155.25" font-family="Helvetica,sans-Serif" font-size="10.00">spdk_nvmf_dif_info</text>
</a>
</g>
</g>
<!-- Node53&#45;&gt;Node1 -->
<g id="edge18_Node000001_Node000053" class="edge">
<title>Node53&#45;&gt;Node1</title>
<g id="a_edge18_Node000001_Node000053"><a xlink:title=" ">
<path fill="none" stroke="#9a32cd" stroke-dasharray="5,2" d="M427.21,-158.38C465.23,-158.38 512.25,-158.38 548.14,-158.38"/>
<polygon fill="#9a32cd" stroke="#9a32cd" points="427.24,-154.88 417.24,-158.38 427.24,-161.88 427.24,-154.88"/>
</a>
</g>
<text text-anchor="middle" x="485.75" y="-161.62" font-family="Helvetica,sans-Serif" font-size="10.00" fill="grey"> dif</text>
</g>
<!-- Node54 -->
<g id="Node000054" class="node">
<title>Node54</title>
<g id="a_Node000054"><a xlink:href="structspdk__dif__ctx.html" target="_top" xlink:title="DIF context information.">
<polygon fill="white" stroke="#666666" points="125.12,-162.75 47.62,-162.75 47.62,-142 125.12,-142 125.12,-162.75"/>
<text text-anchor="middle" x="86.38" y="-149.25" font-family="Helvetica,sans-Serif" font-size="10.00">spdk_dif_ctx</text>
</a>
</g>
</g>
<!-- Node54&#45;&gt;Node53 -->
<g id="edge19_Node000053_Node000054" class="edge">
<title>Node54&#45;&gt;Node53</title>
<g id="a_edge19_Node000053_Node000054"><a xlink:title=" ">
<path fill="none" stroke="#9a32cd" stroke-dasharray="5,2" d="M137,-153.47C183.9,-154.51 254.13,-156.07 302.84,-157.15"/>
<polygon fill="#9a32cd" stroke="#9a32cd" points="137.2,-149.98 127.12,-153.26 137.04,-156.98 137.2,-149.98"/>
</a>
</g>
<text text-anchor="middle" x="230.5" y="-158.62" font-family="Helvetica,sans-Serif" font-size="10.00" fill="grey"> dif_ctx</text>
</g>
<!-- Node55 -->
<g id="Node000055" class="node">
<title>Node55</title>
<g id="a_Node000055"><a xlink:href="structspdk__bdev__io__wait__entry.html" target="_top" xlink:title="Structure to register a callback when an spdk_bdev_io becomes available.">
<polygon fill="white" stroke="#666666" points="429.12,-129.75 289.38,-129.75 289.38,-109 429.12,-109 429.12,-129.75"/>
<text text-anchor="middle" x="359.25" y="-116.25" font-family="Helvetica,sans-Serif" font-size="10.00">spdk_bdev_io_wait_entry</text>
</a>
</g>
</g>
<!-- Node55&#45;&gt;Node1 -->
<g id="edge20_Node000001_Node000055" class="edge">
<title>Node55&#45;&gt;Node1</title>
<g id="a_edge20_Node000001_Node000055"><a xlink:title=" ">
<path fill="none" stroke="#9a32cd" stroke-dasharray="5,2" d="M440.53,-129.19C466.94,-132.72 496.41,-136.99 523.25,-141.62 533.33,-143.36 544.08,-145.45 554.33,-147.55"/>
<polygon fill="#9a32cd" stroke="#9a32cd" points="441.29,-125.76 430.92,-127.92 440.37,-132.7 441.29,-125.76"/>
</a>
</g>
<text text-anchor="middle" x="485.75" y="-144.62" font-family="Helvetica,sans-Serif" font-size="10.00" fill="grey"> bdev_io_wait</text>
</g>
<!-- Node56 -->
<g id="Node000056" class="node">
<title>Node56</title>
<g id="a_Node000056"><a xlink:href="structspdk__bdev.html" target="_top" xlink:title=" ">
<polygon fill="white" stroke="orangered" points="120.62,-107.75 52.12,-107.75 52.12,-87 120.62,-87 120.62,-107.75"/>
<text text-anchor="middle" x="86.38" y="-94.25" font-family="Helvetica,sans-Serif" font-size="10.00">spdk_bdev</text>
</a>
</g>
</g>
<!-- Node56&#45;&gt;Node55 -->
<g id="edge21_Node000055_Node000056" class="edge">
<title>Node56&#45;&gt;Node55</title>
<g id="a_edge21_Node000055_Node000056"><a xlink:title=" ">
<path fill="none" stroke="#9a32cd" stroke-dasharray="5,2" d="M132.28,-101.02C174.93,-104.49 239.7,-109.75 288.97,-113.75"/>
<polygon fill="#9a32cd" stroke="#9a32cd" points="132.62,-97.54 122.37,-100.22 132.05,-104.52 132.62,-97.54"/>
</a>
</g>
<text text-anchor="middle" x="230.5" y="-114.62" font-family="Helvetica,sans-Serif" font-size="10.00" fill="grey"> bdev</text>
</g>
<!-- Node66 -->
<g id="Node000066" class="node">
<title>Node66</title>
<g id="a_Node000066"><a xlink:href="structspdk__bdev__io.html" target="_top" xlink:title=" ">
<polygon fill="white" stroke="orangered" points="400.62,-90.75 317.88,-90.75 317.88,-70 400.62,-70 400.62,-90.75"/>
<text text-anchor="middle" x="359.25" y="-77.25" font-family="Helvetica,sans-Serif" font-size="10.00">spdk_bdev_io</text>
</a>
</g>
</g>
<!-- Node56&#45;&gt;Node66 -->
<g id="edge24_Node000066_Node000056" class="edge">
<title>Node56&#45;&gt;Node66</title>
<g id="a_edge24_Node000066_Node000056"><a xlink:title=" ">
<path fill="none" stroke="#9a32cd" stroke-dasharray="5,2" d="M131.91,-89.16C150.09,-86.18 171.36,-83.17 190.75,-81.62 233.94,-78.19 283.6,-78.33 317.56,-79.05"/>
<polygon fill="#9a32cd" stroke="#9a32cd" points="131.52,-85.67 122.25,-90.79 132.69,-92.57 131.52,-85.67"/>
</a>
</g>
<text text-anchor="middle" x="230.5" y="-84.62" font-family="Helvetica,sans-Serif" font-size="10.00" fill="grey"> bdev</text>
</g>
<!-- Node66&#45;&gt;Node1 -->
<g id="edge23_Node000001_Node000066" class="edge">
<title>Node66&#45;&gt;Node1</title>
<g id="a_edge23_Node000001_Node000066"><a xlink:title=" ">
<path fill="none" stroke="#9a32cd" stroke-dasharray="5,2" d="M412.16,-86.79C444.75,-91.83 487.28,-100.28 523.25,-113.62 546.85,-122.38 571.84,-137.38 587.52,-147.57"/>
<polygon fill="#9a32cd" stroke="#9a32cd" points="412.97,-83.37 402.56,-85.37 411.94,-90.3 412.97,-83.37"/>
</a>
</g>
<text text-anchor="middle" x="485.75" y="-116.62" font-family="Helvetica,sans-Serif" font-size="10.00" fill="grey"> zcopy_bdev_io</text>
</g>
<!-- Node76 -->
<g id="Node000076" class="node">
<title>Node76</title>
<g id="a_Node000076"><a xlink:href="structspdk__iobuf__entry.html" target="_top" xlink:title="iobuf queue entry">
<polygon fill="white" stroke="#666666" points="409.25,-20.75 309.25,-20.75 309.25,0 409.25,0 409.25,-20.75"/>
<text text-anchor="middle" x="359.25" y="-7.25" font-family="Helvetica,sans-Serif" font-size="10.00">spdk_iobuf_entry</text>
</a>
</g>
</g>
<!-- Node76&#45;&gt;Node1 -->
<g id="edge25_Node000001_Node000076" class="edge">
<title>Node76&#45;&gt;Node1</title>
<g id="a_edge25_Node000001_Node000076"><a xlink:title=" ">
<path fill="none" stroke="#9a32cd" stroke-dasharray="5,2" d="M411.01,-24.58C444.61,-35.41 488.69,-52.43 523.25,-75.62 553.97,-96.24 582.13,-130.28 595.39,-147.57"/>
<polygon fill="#9a32cd" stroke="#9a32cd" points="412.08,-21.25 401.49,-21.6 409.99,-27.93 412.08,-21.25"/>
</a>
</g>
<text text-anchor="middle" x="485.75" y="-78.62" font-family="Helvetica,sans-Serif" font-size="10.00" fill="grey"> entry</text>
</g>
<!-- Node76&#45;&gt;Node76 -->
<g id="edge26_Node000076_Node000076" class="edge">
<title>Node76&#45;&gt;Node76</title>
<g id="a_edge26_Node000076_Node000076"><a xlink:title=" ">
<path fill="none" stroke="#9a32cd" stroke-dasharray="5,2" d="M336.99,-32.24C339.94,-36.08 347.36,-38.75 359.25,-38.75 380.99,-38.75 387.79,-29.81 379.63,-21.15"/>
<polygon fill="#9a32cd" stroke="#9a32cd" points="340.4,-33.08 338.61,-22.64 333.49,-31.92 340.4,-33.08"/>
</a>
</g>
<text text-anchor="middle" x="359.25" y="-42" font-family="Helvetica,sans-Serif" font-size="10.00" fill="grey"> cb_fn</text>
</g>
</g>
</svg>
