<?xml version="1.0" encoding="UTF-8" standalone="no"?>
<!DOCTYPE svg PUBLIC "-//W3C//DTD SVG 1.1//EN"
 "http://www.w3.org/Graphics/SVG/1.1/DTD/svg11.dtd">
<!-- Generated by graphviz version 9.0.0 (20230911.1827)
 -->
<!-- Title: spdk_nvmf_fc_cmnd_iu Pages: 1 -->
<!--zoomable 185 -->

<svg id="main" version="1.1" xmlns="http://www.w3.org/2000/svg" xmlns:xlink="http://www.w3.org/1999/xlink" xml:space="preserve" onload="init(evt)">
<style type="text/css"><![CDATA[
.node, .edge {opacity: 0.7;}
.node.selected, .edge.selected {opacity: 1;}
.edge:hover path { stroke: red; }
.edge:hover polygon { stroke: red; fill: red; }
]]></style>

<defs>
  <circle id="rim" cx="0" cy="0" r="7"/>
  <circle id="rim2" cx="0" cy="0" r="3.5"/>
  <g id="zoomPlus">
    <use xlink:href="#rim" fill="#404040"><set attributeName="fill" to="#808080" begin="zoomplus.mouseover" end="zoomplus.mouseout"/></use>
    <path d="M-4,0h8M0,-4v8" fill="none" stroke="white" stroke-width="1.5" pointer-events="none"/>
  </g>
  <g id="zoomMin">
    <use xlink:href="#rim" fill="#404040"><set attributeName="fill" to="#808080" begin="zoomminus.mouseover" end="zoomminus.mouseout"/></use>
    <path d="M-4,0h8" fill="none" stroke="white" stroke-width="1.5" pointer-events="none"/>
  </g>
  <g id="arrowUp" transform="translate(30 24)">
    <use xlink:href="#rim"/>
    <path pointer-events="none" fill="none" stroke="white" stroke-width="1.5" d="M0,-3.0v7 M-2.5,-0.5L0,-3.0L2.5,-0.5"/>
  </g>
  <g id="arrowRight" transform="rotate(90) translate(36 -43)">
    <use xlink:href="#rim"/>
    <path pointer-events="none" fill="none" stroke="white" stroke-width="1.5" d="M0,-3.0v7 M-2.5,-0.5L0,-3.0L2.5,-0.5"/>
  </g>
  <g id="arrowDown" transform="rotate(180) translate(-30 -48)">
    <use xlink:href="#rim"/>
    <path pointer-events="none" fill="none" stroke="white" stroke-width="1.5" d="M0,-3.0v7 M-2.5,-0.5L0,-3.0L2.5,-0.5"/>
  </g>
  <g id="arrowLeft" transform="rotate(270) translate(-36 17)">
    <use xlink:href="#rim"/>
    <path pointer-events="none" fill="none" stroke="white" stroke-width="1.5" d="M0,-3.0v7 M-2.5,-0.5L0,-3.0L2.5,-0.5"/>
  </g>
  <g id="resetDef">
    <use xlink:href="#rim2" fill="#404040"><set attributeName="fill" to="#808080" begin="reset.mouseover" end="reset.mouseout"/></use>
  </g>
</defs>
<script type="application/ecmascript">
var viewWidth = 537;
var viewHeight = 185;
var sectionId = 'dynsection-0';
</script>
<script type="application/ecmascript" xlink:href="svg.min.js"/>
<svg id="graph" class="graph">
<g id="viewport">
<title>spdk_nvmf_fc_cmnd_iu</title>
<!-- Node1 -->
<g id="Node000001" class="node">
<title>Node1</title>
<g id="a_Node000001"><a xlink:title=" ">
<polygon fill="#999999" stroke="#666666" points="528.75,-98.75 398,-98.75 398,-78 528.75,-78 528.75,-98.75"/>
<text text-anchor="middle" x="463.38" y="-85.25" font-family="Helvetica,sans-Serif" font-size="10.00">spdk_nvmf_fc_cmnd_iu</text>
</a>
</g>
</g>
<!-- Node2 -->
<g id="Node000002" class="node">
<title>Node2</title>
<g id="a_Node000002"><a xlink:href="structspdk__nvme__cmd.html" target="_top" xlink:title=" ">
<polygon fill="white" stroke="#bfbfbf" points="338,-98.75 239.5,-98.75 239.5,-78 338,-78 338,-98.75"/>
<text text-anchor="middle" x="288.75" y="-85.25" font-family="Helvetica,sans-Serif" font-size="10.00">spdk_nvme_cmd</text>
</a>
</g>
</g>
<!-- Node2&#45;&gt;Node1 -->
<g id="edge1_Node000001_Node000002" class="edge">
<title>Node2&#45;&gt;Node1</title>
<g id="a_edge1_Node000001_Node000002"><a xlink:title=" ">
<path fill="none" stroke="#9a32cd" stroke-dasharray="5,2" d="M349.4,-88.38C365.01,-88.38 381.91,-88.38 397.76,-88.38"/>
<polygon fill="#9a32cd" stroke="#9a32cd" points="349.81,-84.88 339.81,-88.38 349.81,-91.88 349.81,-84.88"/>
</a>
</g>
<text text-anchor="middle" x="368" y="-91.62" font-family="Helvetica,sans-Serif" font-size="10.00" fill="grey"> cmd</text>
</g>
<!-- Node3 -->
<g id="Node000003" class="node">
<title>Node3</title>
<g id="a_Node000003"><a xlink:href="structspdk__nvme__sgl__descriptor.html" target="_top" xlink:title=" ">
<polygon fill="white" stroke="#bfbfbf" points="145.75,-176.75 0,-176.75 0,-156 145.75,-156 145.75,-176.75"/>
<text text-anchor="middle" x="72.88" y="-163.25" font-family="Helvetica,sans-Serif" font-size="10.00">spdk_nvme_sgl_descriptor</text>
</a>
</g>
</g>
<!-- Node3&#45;&gt;Node2 -->
<g id="edge2_Node000002_Node000003" class="edge">
<title>Node3&#45;&gt;Node2</title>
<g id="a_edge2_Node000002_Node000003"><a xlink:title=" ">
<path fill="none" stroke="#9a32cd" stroke-dasharray="5,2" d="M151.92,-153.11C174.86,-147.83 199.65,-140.72 221.5,-131.38 241.17,-122.96 261.47,-108.83 274.32,-99.08"/>
<polygon fill="#9a32cd" stroke="#9a32cd" points="151.32,-149.66 142.31,-155.24 152.83,-156.5 151.32,-149.66"/>
</a>
</g>
<text text-anchor="middle" x="192.62" y="-152.62" font-family="Helvetica,sans-Serif" font-size="10.00" fill="grey"> sgl1</text>
</g>
<!-- Node4 -->
<g id="Node000004" class="node">
<title>Node4</title>
<g id="a_Node000004"><a xlink:href="unionspdk__nvme__cmd__cdw10.html" target="_top" xlink:title=" ">
<polygon fill="white" stroke="#bfbfbf" points="140.5,-137.75 5.25,-137.75 5.25,-117 140.5,-117 140.5,-137.75"/>
<text text-anchor="middle" x="72.88" y="-124.25" font-family="Helvetica,sans-Serif" font-size="10.00">spdk_nvme_cmd_cdw10</text>
</a>
</g>
</g>
<!-- Node4&#45;&gt;Node2 -->
<g id="edge3_Node000002_Node000004" class="edge">
<title>Node4&#45;&gt;Node2</title>
<g id="a_edge3_Node000002_Node000004"><a xlink:title=" ">
<path fill="none" stroke="#9a32cd" stroke-dasharray="5,2" d="M151.87,-117.29C174.42,-113.96 199.01,-109.92 221.5,-105.38 230.23,-103.61 239.53,-101.42 248.32,-99.2"/>
<polygon fill="#9a32cd" stroke="#9a32cd" points="151.53,-113.8 142.13,-118.7 152.53,-120.73 151.53,-113.8"/>
</a>
</g>
<text text-anchor="middle" x="192.62" y="-117.62" font-family="Helvetica,sans-Serif" font-size="10.00" fill="grey"> cdw10_bits</text>
</g>
<!-- Node5 -->
<g id="Node000005" class="node">
<title>Node5</title>
<g id="a_Node000005"><a xlink:href="unionspdk__nvme__cmd__cdw11.html" target="_top" xlink:title=" ">
<polygon fill="white" stroke="orangered" points="140.5,-98.75 5.25,-98.75 5.25,-78 140.5,-78 140.5,-98.75"/>
<text text-anchor="middle" x="72.88" y="-85.25" font-family="Helvetica,sans-Serif" font-size="10.00">spdk_nvme_cmd_cdw11</text>
</a>
</g>
</g>
<!-- Node5&#45;&gt;Node2 -->
<g id="edge4_Node000002_Node000005" class="edge">
<title>Node5&#45;&gt;Node2</title>
<g id="a_edge4_Node000002_Node000005"><a xlink:title=" ">
<path fill="none" stroke="#9a32cd" stroke-dasharray="5,2" d="M152.36,-88.38C181.45,-88.38 213.57,-88.38 239.22,-88.38"/>
<polygon fill="#9a32cd" stroke="#9a32cd" points="152.47,-84.88 142.47,-88.38 152.47,-91.88 152.47,-84.88"/>
</a>
</g>
<text text-anchor="middle" x="192.62" y="-91.62" font-family="Helvetica,sans-Serif" font-size="10.00" fill="grey"> cdw11_bits</text>
</g>
<!-- Node24 -->
<g id="Node000024" class="node">
<title>Node24</title>
<g id="a_Node000024"><a xlink:href="unionspdk__nvme__cmd__cdw12.html" target="_top" xlink:title=" ">
<polygon fill="white" stroke="orangered" points="140.5,-59.75 5.25,-59.75 5.25,-39 140.5,-39 140.5,-59.75"/>
<text text-anchor="middle" x="72.88" y="-46.25" font-family="Helvetica,sans-Serif" font-size="10.00">spdk_nvme_cmd_cdw12</text>
</a>
</g>
</g>
<!-- Node24&#45;&gt;Node2 -->
<g id="edge5_Node000002_Node000024" class="edge">
<title>Node24&#45;&gt;Node2</title>
<g id="a_edge5_Node000002_Node000024"><a xlink:title=" ">
<path fill="none" stroke="#9a32cd" stroke-dasharray="5,2" d="M152.19,-59.72C174.65,-63.08 199.11,-67.12 221.5,-71.62 229.99,-73.33 239.03,-75.43 247.6,-77.55"/>
<polygon fill="#9a32cd" stroke="#9a32cd" points="152.89,-56.28 142.49,-58.29 151.87,-63.21 152.89,-56.28"/>
</a>
</g>
<text text-anchor="middle" x="192.62" y="-74.62" font-family="Helvetica,sans-Serif" font-size="10.00" fill="grey"> cdw12_bits</text>
</g>
<!-- Node27 -->
<g id="Node000027" class="node">
<title>Node27</title>
<g id="a_Node000027"><a xlink:href="unionspdk__nvme__cmd__cdw13.html" target="_top" xlink:title=" ">
<polygon fill="white" stroke="#bfbfbf" points="140.5,-20.75 5.25,-20.75 5.25,0 140.5,0 140.5,-20.75"/>
<text text-anchor="middle" x="72.88" y="-7.25" font-family="Helvetica,sans-Serif" font-size="10.00">spdk_nvme_cmd_cdw13</text>
</a>
</g>
</g>
<!-- Node27&#45;&gt;Node2 -->
<g id="edge6_Node000002_Node000027" class="edge">
<title>Node27&#45;&gt;Node2</title>
<g id="a_edge6_Node000002_Node000027"><a xlink:title=" ">
<path fill="none" stroke="#9a32cd" stroke-dasharray="5,2" d="M151.97,-23.07C174.91,-28.23 199.69,-35.25 221.5,-44.62 241.51,-53.22 262.06,-67.87 274.85,-77.83"/>
<polygon fill="#9a32cd" stroke="#9a32cd" points="152.87,-19.68 142.36,-21 151.4,-26.53 152.87,-19.68"/>
</a>
</g>
<text text-anchor="middle" x="192.62" y="-48.62" font-family="Helvetica,sans-Serif" font-size="10.00" fill="grey"> cdw13_bits</text>
</g>
</g>
</svg>

<g id="navigator" transform="translate(0 0)" fill="#404254">
  <rect fill="#f2f5e9" fill-opacity="0.5" stroke="#606060" stroke-width=".5" x="0" y="0" width="60" height="60"/>
  <use id="zoomplus" xlink:href="#zoomPlus" x="17" y="9" onmousedown="handleZoom(evt,'in')"/>
  <use id="zoomminus" xlink:href="#zoomMin" x="42" y="9" onmousedown="handleZoom(evt,'out')"/>
  <use id="reset" xlink:href="#resetDef" x="30" y="36" onmousedown="handleReset()"/>
   <use id="arrowup" xlink:href="#arrowUp" x="0" y="0" onmousedown="handlePan(0,-1)"/>
  <use id="arrowright" xlink:href="#arrowRight" x="0" y="0" onmousedown="handlePan(1,0)"/>
  <use id="arrowdown" xlink:href="#arrowDown" x="0" y="0" onmousedown="handlePan(0,1)"/>
  <use id="arrowleft" xlink:href="#arrowLeft" x="0" y="0" onmousedown="handlePan(-1,0)"/>
</g>
<svg viewBox="0 0 15 15" width="100%" height="30px" preserveAspectRatio="xMaxYMin meet">
 <g id="arrow_out" transform="scale(0.3 0.3)">
  <a xlink:href="structspdk__nvmf__fc__cmnd__iu__coll__graph_org.svg" target="_base">
   <rect id="button" ry="5" rx="5" y="6" x="6" height="38" width="38"
        fill="#f2f5e9" fill-opacity="0.5" stroke="#606060" stroke-width="1.0"/>
   <path id="arrow"
     d="M 11.500037,31.436501 C 11.940474,20.09759 22.043105,11.32322 32.158766,21.979434 L 37.068811,17.246167 C 37.068811,17.246167 37.088388,32 37.088388,32 L 22.160133,31.978069 C 22.160133,31.978069 26.997745,27.140456 26.997745,27.140456 C 18.528582,18.264221 13.291696,25.230495 11.500037,31.436501 z"
     style="fill:#404040;"/>
  </a>
 </g>
</svg>

<style type='text/css'>
<![CDATA[
[data-mouse-over-selected='false'] { opacity: 0.7; }
[data-mouse-over-selected='true']  { opacity: 1.0; }
]]>
</style>
<script type="application/ecmascript"><![CDATA[
document.addEventListener('DOMContentLoaded', (event) => {
  highlightEdges();
  highlightAdjacentNodes();
});
]]></script>
</svg>
