<?xml version="1.0" encoding="UTF-8" standalone="no"?>
<!DOCTYPE svg PUBLIC "-//W3C//DTD SVG 1.1//EN"
 "http://www.w3.org/Graphics/SVG/1.1/DTD/svg11.dtd">
<!-- Generated by graphviz version 9.0.0 (20230911.1827)
 -->
<!-- Title: spdk_nvme_transport_ops Pages: 1 -->
<svg width="648pt" height="770pt"
 viewBox="0.00 0.00 647.75 769.75" xmlns="http://www.w3.org/2000/svg" xmlns:xlink="http://www.w3.org/1999/xlink">
<g id="graph0" class="graph" transform="scale(1 1) rotate(0) translate(4 765.75)">
<title>spdk_nvme_transport_ops</title>
<!-- Node1 -->
<g id="Node000001" class="node">
<title>Node1</title>
<g id="a_Node000001"><a xlink:title=" ">
<polygon fill="#999999" stroke="#666666" points="639.75,-390.75 495.5,-390.75 495.5,-370 639.75,-370 639.75,-390.75"/>
<text text-anchor="middle" x="567.62" y="-377.25" font-family="Helvetica,sans-Serif" font-size="10.00">spdk_nvme_transport_ops</text>
</a>
</g>
</g>
<!-- Node2 -->
<g id="Node000002" class="node">
<title>Node2</title>
<g id="a_Node000002"><a xlink:href="structspdk__nvme__registers.html" target="_top" xlink:title=" ">
<polygon fill="white" stroke="#bfbfbf" points="368,-390.75 247.75,-390.75 247.75,-370 368,-370 368,-390.75"/>
<text text-anchor="middle" x="307.88" y="-377.25" font-family="Helvetica,sans-Serif" font-size="10.00">spdk_nvme_registers</text>
</a>
</g>
</g>
<!-- Node2&#45;&gt;Node1 -->
<g id="edge1_Node000001_Node000002" class="edge">
<title>Node2&#45;&gt;Node1</title>
<g id="a_edge1_Node000001_Node000002"><a xlink:title=" ">
<path fill="none" stroke="#9a32cd" stroke-dasharray="5,2" d="M379.7,-380.38C415.6,-380.38 459.09,-380.38 495.08,-380.38"/>
<polygon fill="#9a32cd" stroke="#9a32cd" points="379.85,-376.88 369.85,-380.38 379.85,-383.88 379.85,-376.88"/>
</a>
</g>
<text text-anchor="middle" x="431.75" y="-383.62" font-family="Helvetica,sans-Serif" font-size="10.00" fill="grey"> ctrlr_get_registers</text>
</g>
<!-- Node3 -->
<g id="Node000003" class="node">
<title>Node3</title>
<g id="a_Node000003"><a xlink:href="unionspdk__nvme__cap__register.html" target="_top" xlink:title=" ">
<polygon fill="white" stroke="#bfbfbf" points="151,-761.75 13.5,-761.75 13.5,-741 151,-741 151,-761.75"/>
<text text-anchor="middle" x="82.25" y="-748.25" font-family="Helvetica,sans-Serif" font-size="10.00">spdk_nvme_cap_register</text>
</a>
</g>
</g>
<!-- Node3&#45;&gt;Node2 -->
<g id="edge2_Node000002_Node000003" class="edge">
<title>Node3&#45;&gt;Node2</title>
<g id="a_edge2_Node000002_Node000003"><a xlink:title=" ">
<path fill="none" stroke="#9a32cd" stroke-dasharray="5,2" d="M162.3,-751.93C186.73,-748.21 211.87,-739.79 229.75,-722.38 279.13,-674.28 301.5,-443.57 306.01,-391.04"/>
<polygon fill="#9a32cd" stroke="#9a32cd" points="162.15,-748.42 152.67,-753.14 163.02,-755.37 162.15,-748.42"/>
</a>
</g>
<text text-anchor="middle" x="206.12" y="-749.62" font-family="Helvetica,sans-Serif" font-size="10.00" fill="grey"> cap</text>
</g>
<!-- Node4 -->
<g id="Node000004" class="node">
<title>Node4</title>
<g id="a_Node000004"><a xlink:href="unionspdk__nvme__vs__register.html" target="_top" xlink:title=" ">
<polygon fill="white" stroke="#bfbfbf" points="148,-722.75 16.5,-722.75 16.5,-702 148,-702 148,-722.75"/>
<text text-anchor="middle" x="82.25" y="-709.25" font-family="Helvetica,sans-Serif" font-size="10.00">spdk_nvme_vs_register</text>
</a>
</g>
</g>
<!-- Node4&#45;&gt;Node2 -->
<g id="edge3_Node000002_Node000004" class="edge">
<title>Node4&#45;&gt;Node2</title>
<g id="a_edge3_Node000002_Node000004"><a xlink:title=" ">
<path fill="none" stroke="#9a32cd" stroke-dasharray="5,2" d="M159.44,-711.88C184.66,-707.99 211.03,-699.32 229.75,-681.38 273.46,-639.47 299.82,-439.58 305.64,-391.02"/>
<polygon fill="#9a32cd" stroke="#9a32cd" points="159.32,-708.37 149.85,-713.12 160.22,-715.31 159.32,-708.37"/>
</a>
</g>
<text text-anchor="middle" x="206.12" y="-708.62" font-family="Helvetica,sans-Serif" font-size="10.00" fill="grey"> vs</text>
</g>
<!-- Node5 -->
<g id="Node000005" class="node">
<title>Node5</title>
<g id="a_Node000005"><a xlink:href="unionspdk__nvme__cc__register.html" target="_top" xlink:title=" ">
<polygon fill="white" stroke="#bfbfbf" points="147.62,-683.75 16.88,-683.75 16.88,-663 147.62,-663 147.62,-683.75"/>
<text text-anchor="middle" x="82.25" y="-670.25" font-family="Helvetica,sans-Serif" font-size="10.00">spdk_nvme_cc_register</text>
</a>
</g>
</g>
<!-- Node5&#45;&gt;Node2 -->
<g id="edge4_Node000002_Node000005" class="edge">
<title>Node5&#45;&gt;Node2</title>
<g id="a_edge4_Node000002_Node000005"><a xlink:title=" ">
<path fill="none" stroke="#9a32cd" stroke-dasharray="5,2" d="M159.16,-670.78C184.35,-666.32 210.78,-657.22 229.75,-639.38 304.26,-569.31 307.8,-430.76 307.21,-391.17"/>
<polygon fill="#9a32cd" stroke="#9a32cd" points="158.94,-667.27 149.58,-672.24 159.99,-674.19 158.94,-667.27"/>
</a>
</g>
<text text-anchor="middle" x="206.12" y="-667.62" font-family="Helvetica,sans-Serif" font-size="10.00" fill="grey"> cc</text>
</g>
<!-- Node6 -->
<g id="Node000006" class="node">
<title>Node6</title>
<g id="a_Node000006"><a xlink:href="unionspdk__nvme__csts__register.html" target="_top" xlink:title=" ">
<polygon fill="white" stroke="#bfbfbf" points="152.12,-644.75 12.38,-644.75 12.38,-624 152.12,-624 152.12,-644.75"/>
<text text-anchor="middle" x="82.25" y="-631.25" font-family="Helvetica,sans-Serif" font-size="10.00">spdk_nvme_csts_register</text>
</a>
</g>
</g>
<!-- Node6&#45;&gt;Node2 -->
<g id="edge5_Node000002_Node000006" class="edge">
<title>Node6&#45;&gt;Node2</title>
<g id="a_edge5_Node000002_Node000006"><a xlink:title=" ">
<path fill="none" stroke="#9a32cd" stroke-dasharray="5,2" d="M163.75,-628.57C187.4,-623.3 211.72,-613.9 229.75,-597.38 293.11,-539.28 304.44,-425.71 306.45,-390.82"/>
<polygon fill="#9a32cd" stroke="#9a32cd" points="163.21,-625.11 154.08,-630.48 164.56,-631.98 163.21,-625.11"/>
</a>
</g>
<text text-anchor="middle" x="206.12" y="-625.62" font-family="Helvetica,sans-Serif" font-size="10.00" fill="grey"> csts</text>
</g>
<!-- Node7 -->
<g id="Node000007" class="node">
<title>Node7</title>
<g id="a_Node000007"><a xlink:href="unionspdk__nvme__aqa__register.html" target="_top" xlink:title=" ">
<polygon fill="white" stroke="#bfbfbf" points="151.38,-605.75 13.12,-605.75 13.12,-585 151.38,-585 151.38,-605.75"/>
<text text-anchor="middle" x="82.25" y="-592.25" font-family="Helvetica,sans-Serif" font-size="10.00">spdk_nvme_aqa_register</text>
</a>
</g>
</g>
<!-- Node7&#45;&gt;Node2 -->
<g id="edge6_Node000002_Node000007" class="edge">
<title>Node7&#45;&gt;Node2</title>
<g id="a_edge6_Node000002_Node000007"><a xlink:title=" ">
<path fill="none" stroke="#9a32cd" stroke-dasharray="5,2" d="M162.75,-586.86C186.58,-580.94 211.27,-570.99 229.75,-554.38 281.1,-508.19 300.01,-421.44 305.22,-391.15"/>
<polygon fill="#9a32cd" stroke="#9a32cd" points="161.98,-583.45 152.99,-589.05 163.52,-590.28 161.98,-583.45"/>
</a>
</g>
<text text-anchor="middle" x="206.12" y="-583.62" font-family="Helvetica,sans-Serif" font-size="10.00" fill="grey"> aqa</text>
</g>
<!-- Node8 -->
<g id="Node000008" class="node">
<title>Node8</title>
<g id="a_Node000008"><a xlink:href="unionspdk__nvme__cmbloc__register.html" target="_top" xlink:title=" ">
<polygon fill="white" stroke="#bfbfbf" points="160,-566.75 4.5,-566.75 4.5,-546 160,-546 160,-566.75"/>
<text text-anchor="middle" x="82.25" y="-553.25" font-family="Helvetica,sans-Serif" font-size="10.00">spdk_nvme_cmbloc_register</text>
</a>
</g>
</g>
<!-- Node8&#45;&gt;Node2 -->
<g id="edge7_Node000002_Node000008" class="edge">
<title>Node8&#45;&gt;Node2</title>
<g id="a_edge7_Node000002_Node000008"><a xlink:title=" ">
<path fill="none" stroke="#9a32cd" stroke-dasharray="5,2" d="M169.15,-542.45C190.69,-535.78 212.55,-525.93 229.75,-511.38 270.24,-477.11 294.7,-415.89 303.33,-391.17"/>
<polygon fill="#9a32cd" stroke="#9a32cd" points="168.38,-539.02 159.73,-545.14 170.31,-545.75 168.38,-539.02"/>
</a>
</g>
<text text-anchor="middle" x="206.12" y="-540.62" font-family="Helvetica,sans-Serif" font-size="10.00" fill="grey"> cmbloc</text>
</g>
<!-- Node9 -->
<g id="Node000009" class="node">
<title>Node9</title>
<g id="a_Node000009"><a xlink:href="unionspdk__nvme__cmbsz__register.html" target="_top" xlink:title=" ">
<polygon fill="white" stroke="#bfbfbf" points="158.12,-527.75 6.38,-527.75 6.38,-507 158.12,-507 158.12,-527.75"/>
<text text-anchor="middle" x="82.25" y="-514.25" font-family="Helvetica,sans-Serif" font-size="10.00">spdk_nvme_cmbsz_register</text>
</a>
</g>
</g>
<!-- Node9&#45;&gt;Node2 -->
<g id="edge8_Node000002_Node000009" class="edge">
<title>Node9&#45;&gt;Node2</title>
<g id="a_edge8_Node000002_Node000009"><a xlink:title=" ">
<path fill="none" stroke="#9a32cd" stroke-dasharray="5,2" d="M158.53,-503.59C182.81,-496.67 208.82,-486.42 229.75,-471.38 261.53,-448.52 288.42,-409.81 300.32,-391.12"/>
<polygon fill="#9a32cd" stroke="#9a32cd" points="157.73,-500.18 148.98,-506.15 159.55,-506.94 157.73,-500.18"/>
</a>
</g>
<text text-anchor="middle" x="206.12" y="-497.62" font-family="Helvetica,sans-Serif" font-size="10.00" fill="grey"> cmbsz</text>
</g>
<!-- Node10 -->
<g id="Node000010" class="node">
<title>Node10</title>
<g id="a_Node000010"><a xlink:href="unionspdk__nvme__bpinfo__register.html" target="_top" xlink:title="Boot partition information.">
<polygon fill="white" stroke="#666666" points="157.75,-488.75 6.75,-488.75 6.75,-468 157.75,-468 157.75,-488.75"/>
<text text-anchor="middle" x="82.25" y="-475.25" font-family="Helvetica,sans-Serif" font-size="10.00">spdk_nvme_bpinfo_register</text>
</a>
</g>
</g>
<!-- Node10&#45;&gt;Node2 -->
<g id="edge9_Node000002_Node000010" class="edge">
<title>Node10&#45;&gt;Node2</title>
<g id="a_edge9_Node000002_Node000010"><a xlink:title=" ">
<path fill="none" stroke="#9a32cd" stroke-dasharray="5,2" d="M149.29,-464.79C175.24,-457.98 204.74,-448.37 229.75,-435.38 254.12,-422.71 279.52,-403.17 294.23,-391.1"/>
<polygon fill="#9a32cd" stroke="#9a32cd" points="148.72,-461.32 139.88,-467.16 150.43,-468.11 148.72,-461.32"/>
</a>
</g>
<text text-anchor="middle" x="206.12" y="-457.62" font-family="Helvetica,sans-Serif" font-size="10.00" fill="grey"> bpinfo</text>
</g>
<!-- Node11 -->
<g id="Node000011" class="node">
<title>Node11</title>
<g id="a_Node000011"><a xlink:href="unionspdk__nvme__bprsel__register.html" target="_top" xlink:title="Boot partition read select.">
<polygon fill="white" stroke="#666666" points="157.38,-449.75 7.12,-449.75 7.12,-429 157.38,-429 157.38,-449.75"/>
<text text-anchor="middle" x="82.25" y="-436.25" font-family="Helvetica,sans-Serif" font-size="10.00">spdk_nvme_bprsel_register</text>
</a>
</g>
</g>
<!-- Node11&#45;&gt;Node2 -->
<g id="edge10_Node000002_Node000011" class="edge">
<title>Node11&#45;&gt;Node2</title>
<g id="a_edge10_Node000002_Node000011"><a xlink:title=" ">
<path fill="none" stroke="#9a32cd" stroke-dasharray="5,2" d="M151.81,-426.2C176.54,-420.98 204.55,-414.51 229.75,-407.38 246.13,-402.74 264.1,-396.52 278.57,-391.21"/>
<polygon fill="#9a32cd" stroke="#9a32cd" points="151.26,-422.74 142.18,-428.2 152.69,-429.59 151.26,-422.74"/>
</a>
</g>
<text text-anchor="middle" x="206.12" y="-421.62" font-family="Helvetica,sans-Serif" font-size="10.00" fill="grey"> bprsel</text>
</g>
<!-- Node12 -->
<g id="Node000012" class="node">
<title>Node12</title>
<g id="a_Node000012"><a xlink:href="unionspdk__nvme__cmbmsc__register.html" target="_top" xlink:title=" ">
<polygon fill="white" stroke="#bfbfbf" points="163,-410.75 1.5,-410.75 1.5,-390 163,-390 163,-410.75"/>
<text text-anchor="middle" x="82.25" y="-397.25" font-family="Helvetica,sans-Serif" font-size="10.00">spdk_nvme_cmbmsc_register</text>
</a>
</g>
</g>
<!-- Node12&#45;&gt;Node2 -->
<g id="edge11_Node000002_Node000012" class="edge">
<title>Node12&#45;&gt;Node2</title>
<g id="a_edge11_Node000002_Node000012"><a xlink:title=" ">
<path fill="none" stroke="#9a32cd" stroke-dasharray="5,2" d="M174.52,-392.21C199.07,-390.02 225,-387.7 247.33,-385.7"/>
<polygon fill="#9a32cd" stroke="#9a32cd" points="174.51,-388.7 164.86,-393.08 175.13,-395.67 174.51,-388.7"/>
</a>
</g>
<text text-anchor="middle" x="206.12" y="-393.62" font-family="Helvetica,sans-Serif" font-size="10.00" fill="grey"> cmbmsc</text>
</g>
<!-- Node13 -->
<g id="Node000013" class="node">
<title>Node13</title>
<g id="a_Node000013"><a xlink:href="unionspdk__nvme__cmbsts__register.html" target="_top" xlink:title=" ">
<polygon fill="white" stroke="#bfbfbf" points="160,-371.75 4.5,-371.75 4.5,-351 160,-351 160,-371.75"/>
<text text-anchor="middle" x="82.25" y="-358.25" font-family="Helvetica,sans-Serif" font-size="10.00">spdk_nvme_cmbsts_register</text>
</a>
</g>
</g>
<!-- Node13&#45;&gt;Node2 -->
<g id="edge12_Node000002_Node000013" class="edge">
<title>Node13&#45;&gt;Node2</title>
<g id="a_edge12_Node000002_Node000013"><a xlink:title=" ">
<path fill="none" stroke="#9a32cd" stroke-dasharray="5,2" d="M171.68,-361.66C190.87,-362.36 211.02,-363.58 229.75,-365.62 238.42,-366.57 247.58,-367.97 256.44,-369.53"/>
<polygon fill="#9a32cd" stroke="#9a32cd" points="171.82,-358.16 161.71,-361.34 171.6,-365.16 171.82,-358.16"/>
</a>
</g>
<text text-anchor="middle" x="206.12" y="-368.62" font-family="Helvetica,sans-Serif" font-size="10.00" fill="grey"> cmbsts</text>
</g>
<!-- Node14 -->
<g id="Node000014" class="node">
<title>Node14</title>
<g id="a_Node000014"><a xlink:href="unionspdk__nvme__cmbebs__register.html" target="_top" xlink:title=" ">
<polygon fill="white" stroke="#bfbfbf" points="161.5,-332.75 3,-332.75 3,-312 161.5,-312 161.5,-332.75"/>
<text text-anchor="middle" x="82.25" y="-319.25" font-family="Helvetica,sans-Serif" font-size="10.00">spdk_nvme_cmbebs_register</text>
</a>
</g>
</g>
<!-- Node14&#45;&gt;Node2 -->
<g id="edge13_Node000002_Node000014" class="edge">
<title>Node14&#45;&gt;Node2</title>
<g id="a_edge13_Node000002_Node000014"><a xlink:title=" ">
<path fill="none" stroke="#9a32cd" stroke-dasharray="5,2" d="M173.07,-331.9C192.01,-335.05 211.71,-339.2 229.75,-344.62 250.24,-350.79 272.26,-361.44 287.51,-369.52"/>
<polygon fill="#9a32cd" stroke="#9a32cd" points="173.63,-328.45 163.21,-330.35 172.54,-335.36 173.63,-328.45"/>
</a>
</g>
<text text-anchor="middle" x="206.12" y="-347.62" font-family="Helvetica,sans-Serif" font-size="10.00" fill="grey"> cmbebs</text>
</g>
<!-- Node15 -->
<g id="Node000015" class="node">
<title>Node15</title>
<g id="a_Node000015"><a xlink:href="unionspdk__nvme__cmbswtp__register.html" target="_top" xlink:title=" ">
<polygon fill="white" stroke="#bfbfbf" points="164.5,-293.75 0,-293.75 0,-273 164.5,-273 164.5,-293.75"/>
<text text-anchor="middle" x="82.25" y="-280.25" font-family="Helvetica,sans-Serif" font-size="10.00">spdk_nvme_cmbswtp_register</text>
</a>
</g>
</g>
<!-- Node15&#45;&gt;Node2 -->
<g id="edge14_Node000002_Node000015" class="edge">
<title>Node15&#45;&gt;Node2</title>
<g id="a_edge14_Node000002_Node000015"><a xlink:title=" ">
<path fill="none" stroke="#9a32cd" stroke-dasharray="5,2" d="M172.94,-296.76C192.27,-301.54 212.16,-307.98 229.75,-316.62 257.19,-330.12 283.35,-355.19 297.03,-369.54"/>
<polygon fill="#9a32cd" stroke="#9a32cd" points="173.98,-293.41 163.44,-294.55 172.39,-300.23 173.98,-293.41"/>
</a>
</g>
<text text-anchor="middle" x="206.12" y="-319.62" font-family="Helvetica,sans-Serif" font-size="10.00" fill="grey"> cmbswtp</text>
</g>
<!-- Node16 -->
<g id="Node000016" class="node">
<title>Node16</title>
<g id="a_Node000016"><a xlink:href="unionspdk__nvme__crto__register.html" target="_top" xlink:title=" ">
<polygon fill="white" stroke="#bfbfbf" points="151.75,-254.75 12.75,-254.75 12.75,-234 151.75,-234 151.75,-254.75"/>
<text text-anchor="middle" x="82.25" y="-241.25" font-family="Helvetica,sans-Serif" font-size="10.00">spdk_nvme_crto_register</text>
</a>
</g>
</g>
<!-- Node16&#45;&gt;Node2 -->
<g id="edge15_Node000002_Node000016" class="edge">
<title>Node16&#45;&gt;Node2</title>
<g id="a_edge15_Node000002_Node000016"><a xlink:title=" ">
<path fill="none" stroke="#9a32cd" stroke-dasharray="5,2" d="M163.15,-255.17C185.99,-260.84 210.01,-269.47 229.75,-282.62 264.47,-305.76 290.67,-349.57 301.47,-369.73"/>
<polygon fill="#9a32cd" stroke="#9a32cd" points="164.06,-251.79 153.53,-252.96 162.49,-258.62 164.06,-251.79"/>
</a>
</g>
<text text-anchor="middle" x="206.12" y="-285.62" font-family="Helvetica,sans-Serif" font-size="10.00" fill="grey"> crto</text>
</g>
<!-- Node17 -->
<g id="Node000017" class="node">
<title>Node17</title>
<g id="a_Node000017"><a xlink:href="unionspdk__nvme__pmrcap__register.html" target="_top" xlink:title=" ">
<polygon fill="white" stroke="#bfbfbf" points="160.75,-215.75 3.75,-215.75 3.75,-195 160.75,-195 160.75,-215.75"/>
<text text-anchor="middle" x="82.25" y="-202.25" font-family="Helvetica,sans-Serif" font-size="10.00">spdk_nvme_pmrcap_register</text>
</a>
</g>
</g>
<!-- Node17&#45;&gt;Node2 -->
<g id="edge16_Node000002_Node000017" class="edge">
<title>Node17&#45;&gt;Node2</title>
<g id="a_edge16_Node000002_Node000017"><a xlink:title=" ">
<path fill="none" stroke="#9a32cd" stroke-dasharray="5,2" d="M171.97,-216.85C192.48,-222.68 213.14,-231.45 229.75,-244.62 272.86,-278.82 296.1,-344.14 303.87,-369.73"/>
<polygon fill="#9a32cd" stroke="#9a32cd" points="172.97,-213.49 162.41,-214.36 171.2,-220.26 172.97,-213.49"/>
</a>
</g>
<text text-anchor="middle" x="206.12" y="-247.62" font-family="Helvetica,sans-Serif" font-size="10.00" fill="grey"> pmrcap</text>
</g>
<!-- Node18 -->
<g id="Node000018" class="node">
<title>Node18</title>
<g id="a_Node000018"><a xlink:href="unionspdk__nvme__pmrctl__register.html" target="_top" xlink:title=" ">
<polygon fill="white" stroke="#bfbfbf" points="158.12,-176.75 6.38,-176.75 6.38,-156 158.12,-156 158.12,-176.75"/>
<text text-anchor="middle" x="82.25" y="-163.25" font-family="Helvetica,sans-Serif" font-size="10.00">spdk_nvme_pmrctl_register</text>
</a>
</g>
</g>
<!-- Node18&#45;&gt;Node2 -->
<g id="edge17_Node000002_Node000018" class="edge">
<title>Node18&#45;&gt;Node2</title>
<g id="a_edge17_Node000002_Node000018"><a xlink:title=" ">
<path fill="none" stroke="#9a32cd" stroke-dasharray="5,2" d="M169.48,-174.07C191.03,-179.46 212.81,-188.28 229.75,-202.62 283.65,-248.28 301.02,-338.64 305.52,-369.64"/>
<polygon fill="#9a32cd" stroke="#9a32cd" points="170.26,-170.66 159.73,-171.89 168.73,-177.49 170.26,-170.66"/>
</a>
</g>
<text text-anchor="middle" x="206.12" y="-205.62" font-family="Helvetica,sans-Serif" font-size="10.00" fill="grey"> pmrctl</text>
</g>
<!-- Node19 -->
<g id="Node000019" class="node">
<title>Node19</title>
<g id="a_Node000019"><a xlink:href="unionspdk__nvme__pmrsts__register.html" target="_top" xlink:title=" ">
<polygon fill="white" stroke="#bfbfbf" points="159.25,-137.75 5.25,-137.75 5.25,-117 159.25,-117 159.25,-137.75"/>
<text text-anchor="middle" x="82.25" y="-124.25" font-family="Helvetica,sans-Serif" font-size="10.00">spdk_nvme_pmrsts_register</text>
</a>
</g>
</g>
<!-- Node19&#45;&gt;Node2 -->
<g id="edge18_Node000002_Node000019" class="edge">
<title>Node19&#45;&gt;Node2</title>
<g id="a_edge18_Node000002_Node000019"><a xlink:title=" ">
<path fill="none" stroke="#9a32cd" stroke-dasharray="5,2" d="M170.73,-132.51C192.07,-137.48 213.42,-146.07 229.75,-160.62 294.63,-218.48 304.93,-334.15 306.57,-369.72"/>
<polygon fill="#9a32cd" stroke="#9a32cd" points="171.58,-129.11 161.08,-130.53 170.18,-135.97 171.58,-129.11"/>
</a>
</g>
<text text-anchor="middle" x="206.12" y="-163.62" font-family="Helvetica,sans-Serif" font-size="10.00" fill="grey"> pmrsts</text>
</g>
<!-- Node20 -->
<g id="Node000020" class="node">
<title>Node20</title>
<g id="a_Node000020"><a xlink:href="unionspdk__nvme__pmrebs__register.html" target="_top" xlink:title=" ">
<polygon fill="white" stroke="#bfbfbf" points="160.75,-98.75 3.75,-98.75 3.75,-78 160.75,-78 160.75,-98.75"/>
<text text-anchor="middle" x="82.25" y="-85.25" font-family="Helvetica,sans-Serif" font-size="10.00">spdk_nvme_pmrebs_register</text>
</a>
</g>
</g>
<!-- Node20&#45;&gt;Node2 -->
<g id="edge19_Node000002_Node000020" class="edge">
<title>Node20&#45;&gt;Node2</title>
<g id="a_edge19_Node000002_Node000020"><a xlink:title=" ">
<path fill="none" stroke="#9a32cd" stroke-dasharray="5,2" d="M172.4,-91.28C193.31,-95.87 214.04,-104.16 229.75,-118.62 305.92,-188.72 308.25,-329.84 307.3,-369.68"/>
<polygon fill="#9a32cd" stroke="#9a32cd" points="173.1,-87.85 162.63,-89.43 171.8,-94.73 173.1,-87.85"/>
</a>
</g>
<text text-anchor="middle" x="206.12" y="-121.62" font-family="Helvetica,sans-Serif" font-size="10.00" fill="grey"> pmrebs</text>
</g>
<!-- Node21 -->
<g id="Node000021" class="node">
<title>Node21</title>
<g id="a_Node000021"><a xlink:href="unionspdk__nvme__pmrswtp__register.html" target="_top" xlink:title=" ">
<polygon fill="white" stroke="#bfbfbf" points="163.75,-59.75 0.75,-59.75 0.75,-39 163.75,-39 163.75,-59.75"/>
<text text-anchor="middle" x="82.25" y="-46.25" font-family="Helvetica,sans-Serif" font-size="10.00">spdk_nvme_pmrswtp_register</text>
</a>
</g>
</g>
<!-- Node21&#45;&gt;Node2 -->
<g id="edge20_Node000002_Node000021" class="edge">
<title>Node21&#45;&gt;Node2</title>
<g id="a_edge20_Node000002_Node000021"><a xlink:title=" ">
<path fill="none" stroke="#9a32cd" stroke-dasharray="5,2" d="M175.2,-50.42C195.23,-54.73 214.86,-62.67 229.75,-76.62 274.31,-118.39 300.03,-320.5 305.68,-369.61"/>
<polygon fill="#9a32cd" stroke="#9a32cd" points="176.02,-47.01 165.55,-48.65 174.76,-53.89 176.02,-47.01"/>
</a>
</g>
<text text-anchor="middle" x="206.12" y="-79.62" font-family="Helvetica,sans-Serif" font-size="10.00" fill="grey"> pmrswtp</text>
</g>
<!-- Node22 -->
<g id="Node000022" class="node">
<title>Node22</title>
<g id="a_Node000022"><a xlink:href="unionspdk__nvme__pmrmscl__register.html" target="_top" xlink:title=" ">
<polygon fill="white" stroke="#bfbfbf" points="163.75,-20.75 0.75,-20.75 0.75,0 163.75,0 163.75,-20.75"/>
<text text-anchor="middle" x="82.25" y="-7.25" font-family="Helvetica,sans-Serif" font-size="10.00">spdk_nvme_pmrmscl_register</text>
</a>
</g>
</g>
<!-- Node22&#45;&gt;Node2 -->
<g id="edge21_Node000002_Node000022" class="edge">
<title>Node22&#45;&gt;Node2</title>
<g id="a_edge21_Node000002_Node000022"><a xlink:title=" ">
<path fill="none" stroke="#9a32cd" stroke-dasharray="5,2" d="M175.09,-9.69C195.22,-13.72 214.92,-21.51 229.75,-35.62 280.06,-83.51 301.72,-316.54 306.04,-369.6"/>
<polygon fill="#9a32cd" stroke="#9a32cd" points="175.82,-6.26 165.38,-8.07 174.67,-13.17 175.82,-6.26"/>
</a>
</g>
<text text-anchor="middle" x="206.12" y="-39.62" font-family="Helvetica,sans-Serif" font-size="10.00" fill="grey"> pmrmscl</text>
</g>
</g>
</svg>
