<?xml version="1.0" encoding="UTF-8" standalone="no"?>
<!DOCTYPE svg PUBLIC "-//W3C//DTD SVG 1.1//EN"
 "http://www.w3.org/Graphics/SVG/1.1/DTD/svg11.dtd">
<!-- Generated by graphviz version 9.0.0 (20230911.1827)
 -->
<!-- Title: spdk_nvmf_transport_poll_group Pages: 1 -->
<!--zoomable 137 -->

<svg id="main" version="1.1" xmlns="http://www.w3.org/2000/svg" xmlns:xlink="http://www.w3.org/1999/xlink" xml:space="preserve" onload="init(evt)">
<style type="text/css"><![CDATA[
.node, .edge {opacity: 0.7;}
.node.selected, .edge.selected {opacity: 1;}
.edge:hover path { stroke: red; }
.edge:hover polygon { stroke: red; fill: red; }
]]></style>

<defs>
  <circle id="rim" cx="0" cy="0" r="7"/>
  <circle id="rim2" cx="0" cy="0" r="3.5"/>
  <g id="zoomPlus">
    <use xlink:href="#rim" fill="#404040"><set attributeName="fill" to="#808080" begin="zoomplus.mouseover" end="zoomplus.mouseout"/></use>
    <path d="M-4,0h8M0,-4v8" fill="none" stroke="white" stroke-width="1.5" pointer-events="none"/>
  </g>
  <g id="zoomMin">
    <use xlink:href="#rim" fill="#404040"><set attributeName="fill" to="#808080" begin="zoomminus.mouseover" end="zoomminus.mouseout"/></use>
    <path d="M-4,0h8" fill="none" stroke="white" stroke-width="1.5" pointer-events="none"/>
  </g>
  <g id="arrowUp" transform="translate(30 24)">
    <use xlink:href="#rim"/>
    <path pointer-events="none" fill="none" stroke="white" stroke-width="1.5" d="M0,-3.0v7 M-2.5,-0.5L0,-3.0L2.5,-0.5"/>
  </g>
  <g id="arrowRight" transform="rotate(90) translate(36 -43)">
    <use xlink:href="#rim"/>
    <path pointer-events="none" fill="none" stroke="white" stroke-width="1.5" d="M0,-3.0v7 M-2.5,-0.5L0,-3.0L2.5,-0.5"/>
  </g>
  <g id="arrowDown" transform="rotate(180) translate(-30 -48)">
    <use xlink:href="#rim"/>
    <path pointer-events="none" fill="none" stroke="white" stroke-width="1.5" d="M0,-3.0v7 M-2.5,-0.5L0,-3.0L2.5,-0.5"/>
  </g>
  <g id="arrowLeft" transform="rotate(270) translate(-36 17)">
    <use xlink:href="#rim"/>
    <path pointer-events="none" fill="none" stroke="white" stroke-width="1.5" d="M0,-3.0v7 M-2.5,-0.5L0,-3.0L2.5,-0.5"/>
  </g>
  <g id="resetDef">
    <use xlink:href="#rim2" fill="#404040"><set attributeName="fill" to="#808080" begin="reset.mouseover" end="reset.mouseout"/></use>
  </g>
</defs>
<script type="application/ecmascript">
var viewWidth = 1049;
var viewHeight = 137;
var sectionId = 'dynsection-0';
</script>
<script type="application/ecmascript" xlink:href="svg.min.js"/>
<svg id="graph" class="graph">
<g id="viewport">
<title>spdk_nvmf_transport_poll_group</title>
<!-- Node1 -->
<g id="Node000001" class="node">
<title>Node1</title>
<g id="a_Node000001"><a xlink:title=" ">
<polygon fill="#999999" stroke="#666666" points="552,-46.12 432.5,-46.12 432.5,-12.62 552,-12.62 552,-46.12"/>
<text text-anchor="start" x="440.5" y="-32.62" font-family="Helvetica,sans-Serif" font-size="10.00">spdk_nvmf_transport</text>
<text text-anchor="middle" x="492.25" y="-19.88" font-family="Helvetica,sans-Serif" font-size="10.00">_poll_group</text>
</a>
</g>
</g>
<!-- Node3 -->
<g id="Node000003" class="node">
<title>Node3</title>
<g id="a_Node000003"><a xlink:href="structspdk__nvmf__transport__ops.html" target="_top" xlink:title=" ">
<polygon fill="white" stroke="#bfbfbf" points="849.62,-64.75 707.62,-64.75 707.62,-44 849.62,-44 849.62,-64.75"/>
<text text-anchor="middle" x="778.62" y="-51.25" font-family="Helvetica,sans-Serif" font-size="10.00">spdk_nvmf_transport_ops</text>
</a>
</g>
</g>
<!-- Node1&#45;&gt;Node3 -->
<g id="edge4_Node000003_Node000001" class="edge">
<title>Node1&#45;&gt;Node3</title>
<g id="a_edge4_Node000003_Node000001"><a xlink:title=" ">
<path fill="none" stroke="#9a32cd" stroke-dasharray="5,2" d="M563.59,-35.56C607.36,-39.41 663.44,-44.34 707.22,-48.19"/>
<polygon fill="#9a32cd" stroke="#9a32cd" points="563.95,-32.08 553.68,-34.69 563.34,-39.05 563.95,-32.08"/>
</a>
</g>
<text text-anchor="middle" x="628.88" y="-61.38" font-family="Helvetica,sans-Serif" font-size="10.00" fill="grey"> get_optimal_poll_group</text>
<text text-anchor="middle" x="628.88" y="-48.62" font-family="Helvetica,sans-Serif" font-size="10.00" fill="grey">poll_group_create</text>
</g>
<!-- Node2 -->
<g id="Node000002" class="node">
<title>Node2</title>
<g id="a_Node000002"><a xlink:href="structspdk__nvmf__transport.html" target="_top" xlink:title=" ">
<polygon fill="white" stroke="#bfbfbf" points="1040.75,-74.75 921.25,-74.75 921.25,-54 1040.75,-54 1040.75,-74.75"/>
<text text-anchor="middle" x="981" y="-61.25" font-family="Helvetica,sans-Serif" font-size="10.00">spdk_nvmf_transport</text>
</a>
</g>
</g>
<!-- Node2&#45;&gt;Node1 -->
<g id="edge1_Node000001_Node000002" class="edge">
<title>Node2&#45;&gt;Node1</title>
<g id="a_edge1_Node000001_Node000002"><a xlink:title=" ">
<path fill="none" stroke="#9a32cd" stroke-dasharray="5,2" d="M944.9,-49.46C919.49,-39.53 884.04,-27.47 851.5,-22.62 747.05,-7.08 623.6,-15.12 552.28,-22.3"/>
<polygon fill="#9a32cd" stroke="#9a32cd" points="943.49,-52.66 954.07,-53.13 946.09,-46.16 943.49,-52.66"/>
</a>
</g>
<text text-anchor="middle" x="778.62" y="-26.62" font-family="Helvetica,sans-Serif" font-size="10.00" fill="grey"> transport</text>
</g>
<!-- Node2&#45;&gt;Node3 -->
<g id="edge3_Node000003_Node000002" class="edge">
<title>Node2&#45;&gt;Node3</title>
<g id="a_edge3_Node000003_Node000002"><a xlink:title=" ">
<path fill="none" stroke="#9a32cd" stroke-dasharray="5,2" d="M936.64,-50.52C925.84,-47.66 914.22,-45.08 903.25,-43.62 883.82,-41.04 862.58,-41.66 843.27,-43.52"/>
<polygon fill="#9a32cd" stroke="#9a32cd" points="935.49,-53.83 946.06,-53.15 937.37,-47.09 935.49,-53.83"/>
</a>
</g>
<text text-anchor="middle" x="886.38" y="-47.62" font-family="Helvetica,sans-Serif" font-size="10.00" fill="grey"> create</text>
</g>
<!-- Node3&#45;&gt;Node2 -->
<g id="edge2_Node000002_Node000003" class="edge">
<title>Node3&#45;&gt;Node2</title>
<g id="a_edge2_Node000002_Node000003"><a xlink:title=" ">
<path fill="none" stroke="#9a32cd" stroke-dasharray="5,2" d="M860.97,-59.92C863.85,-60.08 866.7,-60.23 869.5,-60.38 886.18,-61.23 904.28,-61.97 920.92,-62.57"/>
<polygon fill="#9a32cd" stroke="#9a32cd" points="861.47,-56.44 851.28,-59.35 861.06,-63.43 861.47,-56.44"/>
</a>
</g>
<text text-anchor="middle" x="886.38" y="-64.62" font-family="Helvetica,sans-Serif" font-size="10.00" fill="grey"> ops</text>
</g>
<!-- Node4 -->
<g id="Node000004" class="node">
<title>Node4</title>
<g id="a_Node000004"><a xlink:href="structspdk__nvmf__transport__opts.html" target="_top" xlink:title=" ">
<polygon fill="white" stroke="orangered" points="851.5,-128.75 705.75,-128.75 705.75,-108 851.5,-108 851.5,-128.75"/>
<text text-anchor="middle" x="778.62" y="-115.25" font-family="Helvetica,sans-Serif" font-size="10.00">spdk_nvmf_transport_opts</text>
</a>
</g>
</g>
<!-- Node4&#45;&gt;Node2 -->
<g id="edge5_Node000002_Node000004" class="edge">
<title>Node4&#45;&gt;Node2</title>
<g id="a_edge5_Node000002_Node000004"><a xlink:title=" ">
<path fill="none" stroke="#9a32cd" stroke-dasharray="5,2" d="M830.75,-104.6C864.57,-95.48 908.29,-83.7 939.66,-75.25"/>
<polygon fill="#9a32cd" stroke="#9a32cd" points="829.9,-101.2 821.15,-107.18 831.72,-107.96 829.9,-101.2"/>
</a>
</g>
<text text-anchor="middle" x="886.38" y="-95.62" font-family="Helvetica,sans-Serif" font-size="10.00" fill="grey"> opts</text>
</g>
<!-- Node6 -->
<g id="Node000006" class="node">
<title>Node6</title>
<g id="a_Node000006"><a xlink:href="structspdk__iobuf__channel.html" target="_top" xlink:title="iobuf channel">
<polygon fill="white" stroke="#666666" points="337.25,-59.75 224.5,-59.75 224.5,-39 337.25,-39 337.25,-59.75"/>
<text text-anchor="middle" x="280.88" y="-46.25" font-family="Helvetica,sans-Serif" font-size="10.00">spdk_iobuf_channel</text>
</a>
</g>
</g>
<!-- Node6&#45;&gt;Node1 -->
<g id="edge6_Node000001_Node000006" class="edge">
<title>Node6&#45;&gt;Node1</title>
<g id="a_edge6_Node000001_Node000006"><a xlink:title=" ">
<path fill="none" stroke="#9a32cd" stroke-dasharray="5,2" d="M348.94,-42.97C375.74,-40.41 406.34,-37.49 432.28,-35.01"/>
<polygon fill="#9a32cd" stroke="#9a32cd" points="348.84,-39.46 339.22,-43.9 349.5,-46.43 348.84,-39.46"/>
</a>
</g>
<text text-anchor="middle" x="388.25" y="-44.62" font-family="Helvetica,sans-Serif" font-size="10.00" fill="grey"> buf_cache</text>
</g>
<!-- Node7 -->
<g id="Node000007" class="node">
<title>Node7</title>
<g id="a_Node000007"><a xlink:href="structspdk__iobuf__node__cache.html" target="_top" xlink:title=" ">
<polygon fill="white" stroke="orangered" points="141.25,-59.75 9,-59.75 9,-39 141.25,-39 141.25,-59.75"/>
<text text-anchor="middle" x="75.12" y="-46.25" font-family="Helvetica,sans-Serif" font-size="10.00">spdk_iobuf_node_cache</text>
</a>
</g>
</g>
<!-- Node7&#45;&gt;Node6 -->
<g id="edge7_Node000006_Node000007" class="edge">
<title>Node7&#45;&gt;Node6</title>
<g id="a_edge7_Node000006_Node000007"><a xlink:title=" ">
<path fill="none" stroke="#9a32cd" stroke-dasharray="5,2" d="M153.15,-49.38C176.82,-49.38 202.39,-49.38 224.32,-49.38"/>
<polygon fill="#9a32cd" stroke="#9a32cd" points="153.23,-45.88 143.23,-49.38 153.23,-52.88 153.23,-45.88"/>
</a>
</g>
<text text-anchor="middle" x="184" y="-52.62" font-family="Helvetica,sans-Serif" font-size="10.00" fill="grey"> cache</text>
</g>
<!-- Node10 -->
<g id="Node000010" class="node">
<title>Node10</title>
<g id="a_Node000010"><a xlink:href="structspdk__nvmf__poll__group.html" target="_top" xlink:title=" ">
<polygon fill="white" stroke="#bfbfbf" points="344,-20.75 217.75,-20.75 217.75,0 344,0 344,-20.75"/>
<text text-anchor="middle" x="280.88" y="-7.25" font-family="Helvetica,sans-Serif" font-size="10.00">spdk_nvmf_poll_group</text>
</a>
</g>
</g>
<!-- Node10&#45;&gt;Node1 -->
<g id="edge8_Node000001_Node000010" class="edge">
<title>Node10&#45;&gt;Node1</title>
<g id="a_edge8_Node000001_Node000010"><a xlink:title=" ">
<path fill="none" stroke="#9a32cd" stroke-dasharray="5,2" d="M355.84,-9.86C374.99,-10.36 395.55,-11.47 414.5,-13.62 420.31,-14.29 426.34,-15.17 432.34,-16.18"/>
<polygon fill="#9a32cd" stroke="#9a32cd" points="356.02,-6.36 345.95,-9.66 355.88,-13.36 356.02,-6.36"/>
</a>
</g>
<text text-anchor="middle" x="388.25" y="-17.62" font-family="Helvetica,sans-Serif" font-size="10.00" fill="grey"> group</text>
</g>
<!-- Node11 -->
<g id="Node000011" class="node">
<title>Node11</title>
<g id="a_Node000011"><a xlink:href="structspdk__nvmf__poll__group__stat.html" target="_top" xlink:title=" ">
<polygon fill="white" stroke="#bfbfbf" points="150.25,-20.75 0,-20.75 0,0 150.25,0 150.25,-20.75"/>
<text text-anchor="middle" x="75.12" y="-7.25" font-family="Helvetica,sans-Serif" font-size="10.00">spdk_nvmf_poll_group_stat</text>
</a>
</g>
</g>
<!-- Node11&#45;&gt;Node10 -->
<g id="edge9_Node000010_Node000011" class="edge">
<title>Node11&#45;&gt;Node10</title>
<g id="a_edge9_Node000010_Node000011"><a xlink:title=" ">
<path fill="none" stroke="#9a32cd" stroke-dasharray="5,2" d="M162,-10.38C180.58,-10.38 199.89,-10.38 217.37,-10.38"/>
<polygon fill="#9a32cd" stroke="#9a32cd" points="162.06,-6.88 152.06,-10.38 162.06,-13.88 162.06,-6.88"/>
</a>
</g>
<text text-anchor="middle" x="184" y="-13.62" font-family="Helvetica,sans-Serif" font-size="10.00" fill="grey"> stat</text>
</g>
</g>
</svg>

<g id="navigator" transform="translate(0 0)" fill="#404254">
  <rect fill="#f2f5e9" fill-opacity="0.5" stroke="#606060" stroke-width=".5" x="0" y="0" width="60" height="60"/>
  <use id="zoomplus" xlink:href="#zoomPlus" x="17" y="9" onmousedown="handleZoom(evt,'in')"/>
  <use id="zoomminus" xlink:href="#zoomMin" x="42" y="9" onmousedown="handleZoom(evt,'out')"/>
  <use id="reset" xlink:href="#resetDef" x="30" y="36" onmousedown="handleReset()"/>
   <use id="arrowup" xlink:href="#arrowUp" x="0" y="0" onmousedown="handlePan(0,-1)"/>
  <use id="arrowright" xlink:href="#arrowRight" x="0" y="0" onmousedown="handlePan(1,0)"/>
  <use id="arrowdown" xlink:href="#arrowDown" x="0" y="0" onmousedown="handlePan(0,1)"/>
  <use id="arrowleft" xlink:href="#arrowLeft" x="0" y="0" onmousedown="handlePan(-1,0)"/>
</g>
<svg viewBox="0 0 15 15" width="100%" height="30px" preserveAspectRatio="xMaxYMin meet">
 <g id="arrow_out" transform="scale(0.3 0.3)">
  <a xlink:href="structspdk__nvmf__transport__poll__group__coll__graph_org.svg" target="_base">
   <rect id="button" ry="5" rx="5" y="6" x="6" height="38" width="38"
        fill="#f2f5e9" fill-opacity="0.5" stroke="#606060" stroke-width="1.0"/>
   <path id="arrow"
     d="M 11.500037,31.436501 C 11.940474,20.09759 22.043105,11.32322 32.158766,21.979434 L 37.068811,17.246167 C 37.068811,17.246167 37.088388,32 37.088388,32 L 22.160133,31.978069 C 22.160133,31.978069 26.997745,27.140456 26.997745,27.140456 C 18.528582,18.264221 13.291696,25.230495 11.500037,31.436501 z"
     style="fill:#404040;"/>
  </a>
 </g>
</svg>

<style type='text/css'>
<![CDATA[
[data-mouse-over-selected='false'] { opacity: 0.7; }
[data-mouse-over-selected='true']  { opacity: 1.0; }
]]>
</style>
<script type="application/ecmascript"><![CDATA[
document.addEventListener('DOMContentLoaded', (event) => {
  highlightEdges();
  highlightAdjacentNodes();
});
]]></script>
</svg>
