<?xml version="1.0" encoding="UTF-8" standalone="no"?>
<!DOCTYPE svg PUBLIC "-//W3C//DTD SVG 1.1//EN"
 "http://www.w3.org/Graphics/SVG/1.1/DTD/svg11.dtd">
<!-- Generated by graphviz version 9.0.0 (20230911.1827)
 -->
<!-- Title: spdk_nvmf_transport_poll_group Pages: 1 -->
<svg width="1049pt" height="137pt"
 viewBox="0.00 0.00 1048.75 136.75" xmlns="http://www.w3.org/2000/svg" xmlns:xlink="http://www.w3.org/1999/xlink">
<g id="graph0" class="graph" transform="scale(1 1) rotate(0) translate(4 132.75)">
<title>spdk_nvmf_transport_poll_group</title>
<!-- Node1 -->
<g id="Node000001" class="node">
<title>Node1</title>
<g id="a_Node000001"><a xlink:title=" ">
<polygon fill="#999999" stroke="#666666" points="552,-46.12 432.5,-46.12 432.5,-12.62 552,-12.62 552,-46.12"/>
<text text-anchor="start" x="440.5" y="-32.62" font-family="Helvetica,sans-Serif" font-size="10.00">spdk_nvmf_transport</text>
<text text-anchor="middle" x="492.25" y="-19.88" font-family="Helvetica,sans-Serif" font-size="10.00">_poll_group</text>
</a>
</g>
</g>
<!-- Node3 -->
<g id="Node000003" class="node">
<title>Node3</title>
<g id="a_Node000003"><a xlink:href="structspdk__nvmf__transport__ops.html" target="_top" xlink:title=" ">
<polygon fill="white" stroke="#bfbfbf" points="849.62,-64.75 707.62,-64.75 707.62,-44 849.62,-44 849.62,-64.75"/>
<text text-anchor="middle" x="778.62" y="-51.25" font-family="Helvetica,sans-Serif" font-size="10.00">spdk_nvmf_transport_ops</text>
</a>
</g>
</g>
<!-- Node1&#45;&gt;Node3 -->
<g id="edge4_Node000003_Node000001" class="edge">
<title>Node1&#45;&gt;Node3</title>
<g id="a_edge4_Node000003_Node000001"><a xlink:title=" ">
<path fill="none" stroke="#9a32cd" stroke-dasharray="5,2" d="M563.59,-35.56C607.36,-39.41 663.44,-44.34 707.22,-48.19"/>
<polygon fill="#9a32cd" stroke="#9a32cd" points="563.95,-32.08 553.68,-34.69 563.34,-39.05 563.95,-32.08"/>
</a>
</g>
<text text-anchor="middle" x="628.88" y="-61.38" font-family="Helvetica,sans-Serif" font-size="10.00" fill="grey"> get_optimal_poll_group</text>
<text text-anchor="middle" x="628.88" y="-48.62" font-family="Helvetica,sans-Serif" font-size="10.00" fill="grey">poll_group_create</text>
</g>
<!-- Node2 -->
<g id="Node000002" class="node">
<title>Node2</title>
<g id="a_Node000002"><a xlink:href="structspdk__nvmf__transport.html" target="_top" xlink:title=" ">
<polygon fill="white" stroke="#bfbfbf" points="1040.75,-74.75 921.25,-74.75 921.25,-54 1040.75,-54 1040.75,-74.75"/>
<text text-anchor="middle" x="981" y="-61.25" font-family="Helvetica,sans-Serif" font-size="10.00">spdk_nvmf_transport</text>
</a>
</g>
</g>
<!-- Node2&#45;&gt;Node1 -->
<g id="edge1_Node000001_Node000002" class="edge">
<title>Node2&#45;&gt;Node1</title>
<g id="a_edge1_Node000001_Node000002"><a xlink:title=" ">
<path fill="none" stroke="#9a32cd" stroke-dasharray="5,2" d="M944.9,-49.46C919.49,-39.53 884.04,-27.47 851.5,-22.62 747.05,-7.08 623.6,-15.12 552.28,-22.3"/>
<polygon fill="#9a32cd" stroke="#9a32cd" points="943.49,-52.66 954.07,-53.13 946.09,-46.16 943.49,-52.66"/>
</a>
</g>
<text text-anchor="middle" x="778.62" y="-26.62" font-family="Helvetica,sans-Serif" font-size="10.00" fill="grey"> transport</text>
</g>
<!-- Node2&#45;&gt;Node3 -->
<g id="edge3_Node000003_Node000002" class="edge">
<title>Node2&#45;&gt;Node3</title>
<g id="a_edge3_Node000003_Node000002"><a xlink:title=" ">
<path fill="none" stroke="#9a32cd" stroke-dasharray="5,2" d="M936.64,-50.52C925.84,-47.66 914.22,-45.08 903.25,-43.62 883.82,-41.04 862.58,-41.66 843.27,-43.52"/>
<polygon fill="#9a32cd" stroke="#9a32cd" points="935.49,-53.83 946.06,-53.15 937.37,-47.09 935.49,-53.83"/>
</a>
</g>
<text text-anchor="middle" x="886.38" y="-47.62" font-family="Helvetica,sans-Serif" font-size="10.00" fill="grey"> create</text>
</g>
<!-- Node3&#45;&gt;Node2 -->
<g id="edge2_Node000002_Node000003" class="edge">
<title>Node3&#45;&gt;Node2</title>
<g id="a_edge2_Node000002_Node000003"><a xlink:title=" ">
<path fill="none" stroke="#9a32cd" stroke-dasharray="5,2" d="M860.97,-59.92C863.85,-60.08 866.7,-60.23 869.5,-60.38 886.18,-61.23 904.28,-61.97 920.92,-62.57"/>
<polygon fill="#9a32cd" stroke="#9a32cd" points="861.47,-56.44 851.28,-59.35 861.06,-63.43 861.47,-56.44"/>
</a>
</g>
<text text-anchor="middle" x="886.38" y="-64.62" font-family="Helvetica,sans-Serif" font-size="10.00" fill="grey"> ops</text>
</g>
<!-- Node4 -->
<g id="Node000004" class="node">
<title>Node4</title>
<g id="a_Node000004"><a xlink:href="structspdk__nvmf__transport__opts.html" target="_top" xlink:title=" ">
<polygon fill="white" stroke="orangered" points="851.5,-128.75 705.75,-128.75 705.75,-108 851.5,-108 851.5,-128.75"/>
<text text-anchor="middle" x="778.62" y="-115.25" font-family="Helvetica,sans-Serif" font-size="10.00">spdk_nvmf_transport_opts</text>
</a>
</g>
</g>
<!-- Node4&#45;&gt;Node2 -->
<g id="edge5_Node000002_Node000004" class="edge">
<title>Node4&#45;&gt;Node2</title>
<g id="a_edge5_Node000002_Node000004"><a xlink:title=" ">
<path fill="none" stroke="#9a32cd" stroke-dasharray="5,2" d="M830.75,-104.6C864.57,-95.48 908.29,-83.7 939.66,-75.25"/>
<polygon fill="#9a32cd" stroke="#9a32cd" points="829.9,-101.2 821.15,-107.18 831.72,-107.96 829.9,-101.2"/>
</a>
</g>
<text text-anchor="middle" x="886.38" y="-95.62" font-family="Helvetica,sans-Serif" font-size="10.00" fill="grey"> opts</text>
</g>
<!-- Node8 -->
<g id="Node000008" class="node">
<title>Node8</title>
<g id="a_Node000008"><a xlink:href="structspdk__iobuf__channel.html" target="_top" xlink:title="iobuf channel">
<polygon fill="white" stroke="#666666" points="337.25,-59.75 224.5,-59.75 224.5,-39 337.25,-39 337.25,-59.75"/>
<text text-anchor="middle" x="280.88" y="-46.25" font-family="Helvetica,sans-Serif" font-size="10.00">spdk_iobuf_channel</text>
</a>
</g>
</g>
<!-- Node8&#45;&gt;Node1 -->
<g id="edge6_Node000001_Node000008" class="edge">
<title>Node8&#45;&gt;Node1</title>
<g id="a_edge6_Node000001_Node000008"><a xlink:title=" ">
<path fill="none" stroke="#9a32cd" stroke-dasharray="5,2" d="M348.94,-42.97C375.74,-40.41 406.34,-37.49 432.28,-35.01"/>
<polygon fill="#9a32cd" stroke="#9a32cd" points="348.84,-39.46 339.22,-43.9 349.5,-46.43 348.84,-39.46"/>
</a>
</g>
<text text-anchor="middle" x="388.25" y="-44.62" font-family="Helvetica,sans-Serif" font-size="10.00" fill="grey"> buf_cache</text>
</g>
<!-- Node9 -->
<g id="Node000009" class="node">
<title>Node9</title>
<g id="a_Node000009"><a xlink:href="structspdk__iobuf__node__cache.html" target="_top" xlink:title=" ">
<polygon fill="white" stroke="orangered" points="141.25,-59.75 9,-59.75 9,-39 141.25,-39 141.25,-59.75"/>
<text text-anchor="middle" x="75.12" y="-46.25" font-family="Helvetica,sans-Serif" font-size="10.00">spdk_iobuf_node_cache</text>
</a>
</g>
</g>
<!-- Node9&#45;&gt;Node8 -->
<g id="edge7_Node000008_Node000009" class="edge">
<title>Node9&#45;&gt;Node8</title>
<g id="a_edge7_Node000008_Node000009"><a xlink:title=" ">
<path fill="none" stroke="#9a32cd" stroke-dasharray="5,2" d="M153.15,-49.38C176.82,-49.38 202.39,-49.38 224.32,-49.38"/>
<polygon fill="#9a32cd" stroke="#9a32cd" points="153.23,-45.88 143.23,-49.38 153.23,-52.88 153.23,-45.88"/>
</a>
</g>
<text text-anchor="middle" x="184" y="-52.62" font-family="Helvetica,sans-Serif" font-size="10.00" fill="grey"> cache</text>
</g>
<!-- Node12 -->
<g id="Node000012" class="node">
<title>Node12</title>
<g id="a_Node000012"><a xlink:href="structspdk__nvmf__poll__group.html" target="_top" xlink:title=" ">
<polygon fill="white" stroke="#bfbfbf" points="344,-20.75 217.75,-20.75 217.75,0 344,0 344,-20.75"/>
<text text-anchor="middle" x="280.88" y="-7.25" font-family="Helvetica,sans-Serif" font-size="10.00">spdk_nvmf_poll_group</text>
</a>
</g>
</g>
<!-- Node12&#45;&gt;Node1 -->
<g id="edge8_Node000001_Node000012" class="edge">
<title>Node12&#45;&gt;Node1</title>
<g id="a_edge8_Node000001_Node000012"><a xlink:title=" ">
<path fill="none" stroke="#9a32cd" stroke-dasharray="5,2" d="M355.84,-9.86C374.99,-10.36 395.55,-11.47 414.5,-13.62 420.31,-14.29 426.34,-15.17 432.34,-16.18"/>
<polygon fill="#9a32cd" stroke="#9a32cd" points="356.02,-6.36 345.95,-9.66 355.88,-13.36 356.02,-6.36"/>
</a>
</g>
<text text-anchor="middle" x="388.25" y="-17.62" font-family="Helvetica,sans-Serif" font-size="10.00" fill="grey"> group</text>
</g>
<!-- Node13 -->
<g id="Node000013" class="node">
<title>Node13</title>
<g id="a_Node000013"><a xlink:href="structspdk__nvmf__poll__group__stat.html" target="_top" xlink:title=" ">
<polygon fill="white" stroke="#bfbfbf" points="150.25,-20.75 0,-20.75 0,0 150.25,0 150.25,-20.75"/>
<text text-anchor="middle" x="75.12" y="-7.25" font-family="Helvetica,sans-Serif" font-size="10.00">spdk_nvmf_poll_group_stat</text>
</a>
</g>
</g>
<!-- Node13&#45;&gt;Node12 -->
<g id="edge9_Node000012_Node000013" class="edge">
<title>Node13&#45;&gt;Node12</title>
<g id="a_edge9_Node000012_Node000013"><a xlink:title=" ">
<path fill="none" stroke="#9a32cd" stroke-dasharray="5,2" d="M162,-10.38C180.58,-10.38 199.89,-10.38 217.37,-10.38"/>
<polygon fill="#9a32cd" stroke="#9a32cd" points="162.06,-6.88 152.06,-10.38 162.06,-13.88 162.06,-6.88"/>
</a>
</g>
<text text-anchor="middle" x="184" y="-13.62" font-family="Helvetica,sans-Serif" font-size="10.00" fill="grey"> stat</text>
</g>
</g>
</svg>
