<?xml version="1.0" encoding="UTF-8" standalone="no"?>
<!DOCTYPE svg PUBLIC "-//W3C//DTD SVG 1.1//EN"
 "http://www.w3.org/Graphics/SVG/1.1/DTD/svg11.dtd">
<!-- Generated by graphviz version 9.0.0 (20230911.1827)
 -->
<!-- Title: spdk_nvmf_registers Pages: 1 -->
<svg width="324pt" height="224pt"
 viewBox="0.00 0.00 324.25 223.75" xmlns="http://www.w3.org/2000/svg" xmlns:xlink="http://www.w3.org/1999/xlink">

<svg id="main" version="1.1" xmlns="http://www.w3.org/2000/svg" xmlns:xlink="http://www.w3.org/1999/xlink" xml:space="preserve" onload="init(evt)">
<style type="text/css"><![CDATA[
.node, .edge {opacity: 0.7;}
.node.selected, .edge.selected {opacity: 1;}
.edge:hover path { stroke: red; }
.edge:hover polygon { stroke: red; fill: red; }
]]></style>
<script type="application/ecmascript" xlink:href="svg.min.js"/>
<svg id="graph" class="graph">
<g id="graph0" class="graph" transform="scale(1 1) rotate(0) translate(4 219.75)">
<title>spdk_nvmf_registers</title>
<!-- Node1 -->
<g id="Node000001" class="node">
<title>Node1</title>
<g id="a_Node000001"><a xlink:title="A subset of struct spdk_nvme_registers that are emulated by a fabrics device.">
<polygon fill="#999999" stroke="#666666" points="316.25,-117.75 198.25,-117.75 198.25,-97 316.25,-97 316.25,-117.75"/>
<text text-anchor="middle" x="257.25" y="-104.25" font-family="Helvetica,sans-Serif" font-size="10.00">spdk_nvmf_registers</text>
</a>
</g>
</g>
<!-- Node2 -->
<g id="Node000002" class="node">
<title>Node2</title>
<g id="a_Node000002"><a xlink:href="unionspdk__nvme__cap__register.html" target="_top" xlink:title=" ">
<polygon fill="white" stroke="#bfbfbf" points="138.62,-215.75 1.12,-215.75 1.12,-195 138.62,-195 138.62,-215.75"/>
<text text-anchor="middle" x="69.88" y="-202.25" font-family="Helvetica,sans-Serif" font-size="10.00">spdk_nvme_cap_register</text>
</a>
</g>
</g>
<!-- Node2&#45;&gt;Node1 -->
<g id="edge1_Node000001_Node000002" class="edge">
<title>Node2&#45;&gt;Node1</title>
<g id="a_edge1_Node000001_Node000002"><a xlink:title=" ">
<path fill="none" stroke="#9a32cd" stroke-dasharray="5,2" d="M126.43,-190.87C131,-189.19 135.5,-187.36 139.75,-185.38 180.12,-166.55 222.31,-134.78 243.08,-118.19"/>
<polygon fill="#9a32cd" stroke="#9a32cd" points="125.47,-187.5 117.14,-194.04 127.73,-194.13 125.47,-187.5"/>
</a>
</g>
<text text-anchor="middle" x="169" y="-177.62" font-family="Helvetica,sans-Serif" font-size="10.00" fill="grey"> cap</text>
</g>
<!-- Node3 -->
<g id="Node000003" class="node">
<title>Node3</title>
<g id="a_Node000003"><a xlink:href="unionspdk__nvme__vs__register.html" target="_top" xlink:title=" ">
<polygon fill="white" stroke="#bfbfbf" points="135.62,-176.75 4.12,-176.75 4.12,-156 135.62,-156 135.62,-176.75"/>
<text text-anchor="middle" x="69.88" y="-163.25" font-family="Helvetica,sans-Serif" font-size="10.00">spdk_nvme_vs_register</text>
</a>
</g>
</g>
<!-- Node3&#45;&gt;Node1 -->
<g id="edge2_Node000001_Node000003" class="edge">
<title>Node3&#45;&gt;Node1</title>
<g id="a_edge2_Node000001_Node000003"><a xlink:title=" ">
<path fill="none" stroke="#9a32cd" stroke-dasharray="5,2" d="M119.13,-152.4C126.05,-150.38 133.09,-148.33 139.75,-146.38 157.76,-141.09 162.4,-140.19 180.25,-134.38 195.83,-129.3 213.04,-123.23 227.14,-118.13"/>
<polygon fill="#9a32cd" stroke="#9a32cd" points="118.5,-148.94 109.87,-155.09 120.45,-155.66 118.5,-148.94"/>
</a>
</g>
<text text-anchor="middle" x="169" y="-143.62" font-family="Helvetica,sans-Serif" font-size="10.00" fill="grey"> vs</text>
</g>
<!-- Node4 -->
<g id="Node000004" class="node">
<title>Node4</title>
<g id="a_Node000004"><a xlink:href="unionspdk__nvme__cc__register.html" target="_top" xlink:title=" ">
<polygon fill="white" stroke="#bfbfbf" points="135.25,-137.75 4.5,-137.75 4.5,-117 135.25,-117 135.25,-137.75"/>
<text text-anchor="middle" x="69.88" y="-124.25" font-family="Helvetica,sans-Serif" font-size="10.00">spdk_nvme_cc_register</text>
</a>
</g>
</g>
<!-- Node4&#45;&gt;Node1 -->
<g id="edge3_Node000001_Node000004" class="edge">
<title>Node4&#45;&gt;Node1</title>
<g id="a_edge3_Node000001_Node000004"><a xlink:title=" ">
<path fill="none" stroke="#9a32cd" stroke-dasharray="5,2" d="M146.79,-119.18C163.87,-117.34 181.73,-115.41 197.95,-113.66"/>
<polygon fill="#9a32cd" stroke="#9a32cd" points="146.78,-115.67 137.21,-120.22 147.53,-122.62 146.78,-115.67"/>
</a>
</g>
<text text-anchor="middle" x="169" y="-120.62" font-family="Helvetica,sans-Serif" font-size="10.00" fill="grey"> cc</text>
</g>
<!-- Node5 -->
<g id="Node000005" class="node">
<title>Node5</title>
<g id="a_Node000005"><a xlink:href="unionspdk__nvme__csts__register.html" target="_top" xlink:title=" ">
<polygon fill="white" stroke="#bfbfbf" points="139.75,-98.75 0,-98.75 0,-78 139.75,-78 139.75,-98.75"/>
<text text-anchor="middle" x="69.88" y="-85.25" font-family="Helvetica,sans-Serif" font-size="10.00">spdk_nvme_csts_register</text>
</a>
</g>
</g>
<!-- Node5&#45;&gt;Node1 -->
<g id="edge4_Node000001_Node000005" class="edge">
<title>Node5&#45;&gt;Node1</title>
<g id="a_edge4_Node000001_Node000005"><a xlink:title=" ">
<path fill="none" stroke="#9a32cd" stroke-dasharray="5,2" d="M151.48,-90.11C161.19,-90.73 170.96,-91.55 180.25,-92.62 188.66,-93.6 197.54,-94.99 206.14,-96.53"/>
<polygon fill="#9a32cd" stroke="#9a32cd" points="151.83,-86.62 141.65,-89.55 151.44,-93.61 151.83,-86.62"/>
</a>
</g>
<text text-anchor="middle" x="169" y="-95.62" font-family="Helvetica,sans-Serif" font-size="10.00" fill="grey"> csts</text>
</g>
<!-- Node6 -->
<g id="Node000006" class="node">
<title>Node6</title>
<g id="a_Node000006"><a xlink:href="unionspdk__nvme__aqa__register.html" target="_top" xlink:title=" ">
<polygon fill="white" stroke="#bfbfbf" points="139,-59.75 0.75,-59.75 0.75,-39 139,-39 139,-59.75"/>
<text text-anchor="middle" x="69.88" y="-46.25" font-family="Helvetica,sans-Serif" font-size="10.00">spdk_nvme_aqa_register</text>
</a>
</g>
</g>
<!-- Node6&#45;&gt;Node1 -->
<g id="edge5_Node000001_Node000006" class="edge">
<title>Node6&#45;&gt;Node1</title>
<g id="a_edge5_Node000001_Node000006"><a xlink:title=" ">
<path fill="none" stroke="#9a32cd" stroke-dasharray="5,2" d="M140.89,-62.71C154.09,-65.84 167.69,-69.49 180.25,-73.62 199.31,-79.9 220.08,-89.31 235.08,-96.6"/>
<polygon fill="#9a32cd" stroke="#9a32cd" points="141.93,-59.36 131.4,-60.55 140.37,-66.18 141.93,-59.36"/>
</a>
</g>
<text text-anchor="middle" x="169" y="-76.62" font-family="Helvetica,sans-Serif" font-size="10.00" fill="grey"> aqa</text>
</g>
<!-- Node7 -->
<g id="Node000007" class="node">
<title>Node7</title>
<g id="a_Node000007"><a xlink:href="unionspdk__nvme__crto__register.html" target="_top" xlink:title=" ">
<polygon fill="white" stroke="#bfbfbf" points="139.38,-20.75 0.38,-20.75 0.38,0 139.38,0 139.38,-20.75"/>
<text text-anchor="middle" x="69.88" y="-7.25" font-family="Helvetica,sans-Serif" font-size="10.00">spdk_nvme_crto_register</text>
</a>
</g>
</g>
<!-- Node7&#45;&gt;Node1 -->
<g id="edge6_Node000001_Node000007" class="edge">
<title>Node7&#45;&gt;Node1</title>
<g id="a_edge6_Node000001_Node000007"><a xlink:title=" ">
<path fill="none" stroke="#9a32cd" stroke-dasharray="5,2" d="M123.45,-24.56C129,-26.38 134.52,-28.33 139.75,-30.38 158.49,-37.71 163.12,-40.06 180.25,-50.62 203.52,-64.97 228.57,-84.57 243.3,-96.58"/>
<polygon fill="#9a32cd" stroke="#9a32cd" points="124.84,-21.33 114.25,-21.69 122.75,-28.01 124.84,-21.33"/>
</a>
</g>
<text text-anchor="middle" x="169" y="-53.62" font-family="Helvetica,sans-Serif" font-size="10.00" fill="grey"> crto</text>
</g>
</g>
</svg>
</svg>

<style type='text/css'>
<![CDATA[
[data-mouse-over-selected='false'] { opacity: 0.7; }
[data-mouse-over-selected='true']  { opacity: 1.0; }
]]>
</style>
<script type="application/ecmascript"><![CDATA[
document.addEventListener('DOMContentLoaded', (event) => {
  highlightEdges();
  highlightAdjacentNodes();
});
]]></script>
</svg>
