<?xml version="1.0" encoding="UTF-8" standalone="no"?>
<!DOCTYPE svg PUBLIC "-//W3C//DTD SVG 1.1//EN"
 "http://www.w3.org/Graphics/SVG/1.1/DTD/svg11.dtd">
<!-- Generated by graphviz version 9.0.0 (20230911.1827)
 -->
<!-- Title: spdk_opal_d0_features_info Pages: 1 -->
<!--zoomable 275 -->

<svg id="main" version="1.1" xmlns="http://www.w3.org/2000/svg" xmlns:xlink="http://www.w3.org/1999/xlink" xml:space="preserve" onload="init(evt)">
<style type="text/css"><![CDATA[
.node, .edge {opacity: 0.7;}
.node.selected, .edge.selected {opacity: 1;}
.edge:hover path { stroke: red; }
.edge:hover polygon { stroke: red; fill: red; }
]]></style>

<defs>
  <circle id="rim" cx="0" cy="0" r="7"/>
  <circle id="rim2" cx="0" cy="0" r="3.5"/>
  <g id="zoomPlus">
    <use xlink:href="#rim" fill="#404040"><set attributeName="fill" to="#808080" begin="zoomplus.mouseover" end="zoomplus.mouseout"/></use>
    <path d="M-4,0h8M0,-4v8" fill="none" stroke="white" stroke-width="1.5" pointer-events="none"/>
  </g>
  <g id="zoomMin">
    <use xlink:href="#rim" fill="#404040"><set attributeName="fill" to="#808080" begin="zoomminus.mouseover" end="zoomminus.mouseout"/></use>
    <path d="M-4,0h8" fill="none" stroke="white" stroke-width="1.5" pointer-events="none"/>
  </g>
  <g id="arrowUp" transform="translate(30 24)">
    <use xlink:href="#rim"/>
    <path pointer-events="none" fill="none" stroke="white" stroke-width="1.5" d="M0,-3.0v7 M-2.5,-0.5L0,-3.0L2.5,-0.5"/>
  </g>
  <g id="arrowRight" transform="rotate(90) translate(36 -43)">
    <use xlink:href="#rim"/>
    <path pointer-events="none" fill="none" stroke="white" stroke-width="1.5" d="M0,-3.0v7 M-2.5,-0.5L0,-3.0L2.5,-0.5"/>
  </g>
  <g id="arrowDown" transform="rotate(180) translate(-30 -48)">
    <use xlink:href="#rim"/>
    <path pointer-events="none" fill="none" stroke="white" stroke-width="1.5" d="M0,-3.0v7 M-2.5,-0.5L0,-3.0L2.5,-0.5"/>
  </g>
  <g id="arrowLeft" transform="rotate(270) translate(-36 17)">
    <use xlink:href="#rim"/>
    <path pointer-events="none" fill="none" stroke="white" stroke-width="1.5" d="M0,-3.0v7 M-2.5,-0.5L0,-3.0L2.5,-0.5"/>
  </g>
  <g id="resetDef">
    <use xlink:href="#rim2" fill="#404040"><set attributeName="fill" to="#808080" begin="reset.mouseover" end="reset.mouseout"/></use>
  </g>
</defs>
<script type="application/ecmascript">
var viewWidth = 598;
var viewHeight = 275;
var sectionId = 'dynsection-0';
</script>
<script type="application/ecmascript" xlink:href="svg.min.js"/>
<svg id="graph" class="graph">
<g id="viewport">
<title>spdk_opal_d0_features_info</title>
<!-- Node1 -->
<g id="Node000001" class="node">
<title>Node1</title>
<g id="a_Node000001"><a xlink:title=" ">
<polygon fill="#999999" stroke="#666666" points="589.5,-137.75 437,-137.75 437,-117 589.5,-117 589.5,-137.75"/>
<text text-anchor="middle" x="513.25" y="-124.25" font-family="Helvetica,sans-Serif" font-size="10.00">spdk_opal_d0_features_info</text>
</a>
</g>
</g>
<!-- Node2 -->
<g id="Node000002" class="node">
<title>Node2</title>
<g id="a_Node000002"><a xlink:href="structspdk__opal__d0__tper__feat.html" target="_top" xlink:title=" ">
<polygon fill="white" stroke="#bfbfbf" points="329,-266.75 196.75,-266.75 196.75,-246 329,-246 329,-266.75"/>
<text text-anchor="middle" x="262.88" y="-253.25" font-family="Helvetica,sans-Serif" font-size="10.00">spdk_opal_d0_tper_feat</text>
</a>
</g>
</g>
<!-- Node2&#45;&gt;Node1 -->
<g id="edge1_Node000001_Node000002" class="edge">
<title>Node2&#45;&gt;Node1</title>
<g id="a_edge1_Node000001_Node000002"><a xlink:title=" ">
<path fill="none" stroke="#9a32cd" stroke-dasharray="5,2" d="M333.07,-242.85C360.99,-235.54 392.75,-224.77 419,-209.38 453.41,-189.2 486.78,-155.36 502.65,-138.14"/>
<polygon fill="#9a32cd" stroke="#9a32cd" points="332.49,-239.39 323.64,-245.22 334.19,-246.18 332.49,-239.39"/>
</a>
</g>
<text text-anchor="middle" x="389.75" y="-236.62" font-family="Helvetica,sans-Serif" font-size="10.00" fill="grey"> tper</text>
</g>
<!-- Node3 -->
<g id="Node000003" class="node">
<title>Node3</title>
<g id="a_Node000003"><a xlink:href="structspdk__opal__d0__feat__hdr.html" target="_top" xlink:title=" ">
<polygon fill="white" stroke="#bfbfbf" points="128.5,-137.75 0,-137.75 0,-117 128.5,-117 128.5,-137.75"/>
<text text-anchor="middle" x="64.25" y="-124.25" font-family="Helvetica,sans-Serif" font-size="10.00">spdk_opal_d0_feat_hdr</text>
</a>
</g>
</g>
<!-- Node3&#45;&gt;Node2 -->
<g id="edge2_Node000002_Node000003" class="edge">
<title>Node3&#45;&gt;Node2</title>
<g id="a_edge2_Node000002_Node000003"><a xlink:title=" ">
<path fill="none" stroke="#9a32cd" stroke-dasharray="5,2" d="M80.56,-146.97C101.13,-171.85 140.12,-214.2 183.25,-236.38 190.39,-240.05 198.25,-243.07 206.15,-245.56"/>
<polygon fill="#9a32cd" stroke="#9a32cd" points="83.33,-144.83 74.33,-139.25 77.89,-149.23 83.33,-144.83"/>
</a>
</g>
<text text-anchor="middle" x="155.88" y="-228.62" font-family="Helvetica,sans-Serif" font-size="10.00" fill="grey"> hdr</text>
</g>
<!-- Node4 -->
<g id="Node000004" class="node">
<title>Node4</title>
<g id="a_Node000004"><a xlink:href="structspdk__opal__d0__locking__feat.html" target="_top" xlink:title=" ">
<polygon fill="white" stroke="#bfbfbf" points="336.88,-227.75 188.88,-227.75 188.88,-207 336.88,-207 336.88,-227.75"/>
<text text-anchor="middle" x="262.88" y="-214.25" font-family="Helvetica,sans-Serif" font-size="10.00">spdk_opal_d0_locking_feat</text>
</a>
</g>
</g>
<!-- Node3&#45;&gt;Node4 -->
<g id="edge4_Node000004_Node000003" class="edge">
<title>Node3&#45;&gt;Node4</title>
<g id="a_edge4_Node000004_Node000003"><a xlink:title=" ">
<path fill="none" stroke="#9a32cd" stroke-dasharray="5,2" d="M89.05,-144.69C112.1,-160.71 148.57,-184.14 183.25,-198.38 190.92,-201.52 199.22,-204.23 207.47,-206.53"/>
<polygon fill="#9a32cd" stroke="#9a32cd" points="91.17,-141.9 80.98,-138.99 87.13,-147.61 91.17,-141.9"/>
</a>
</g>
<text text-anchor="middle" x="155.88" y="-191.62" font-family="Helvetica,sans-Serif" font-size="10.00" fill="grey"> hdr</text>
</g>
<!-- Node5 -->
<g id="Node000005" class="node">
<title>Node5</title>
<g id="a_Node000005"><a xlink:href="structspdk__opal__d0__single__user__mode__feat.html" target="_top" xlink:title=" ">
<polygon fill="white" stroke="#bfbfbf" points="321.5,-189.12 204.25,-189.12 204.25,-155.62 321.5,-155.62 321.5,-189.12"/>
<text text-anchor="start" x="212.25" y="-175.62" font-family="Helvetica,sans-Serif" font-size="10.00">spdk_opal_d0_single</text>
<text text-anchor="middle" x="262.88" y="-162.88" font-family="Helvetica,sans-Serif" font-size="10.00">_user_mode_feat</text>
</a>
</g>
</g>
<!-- Node3&#45;&gt;Node5 -->
<g id="edge6_Node000005_Node000003" class="edge">
<title>Node3&#45;&gt;Node5</title>
<g id="a_edge6_Node000005_Node000003"><a xlink:title=" ">
<path fill="none" stroke="#9a32cd" stroke-dasharray="5,2" d="M123.32,-140.67C148.75,-146.48 178.51,-153.3 203.92,-159.11"/>
<polygon fill="#9a32cd" stroke="#9a32cd" points="124.35,-137.31 113.82,-138.49 122.79,-144.13 124.35,-137.31"/>
</a>
</g>
<text text-anchor="middle" x="155.88" y="-152.62" font-family="Helvetica,sans-Serif" font-size="10.00" fill="grey"> hdr</text>
</g>
<!-- Node6 -->
<g id="Node000006" class="node">
<title>Node6</title>
<g id="a_Node000006"><a xlink:href="structspdk__opal__d0__geo__feat.html" target="_top" xlink:title=" ">
<polygon fill="white" stroke="#bfbfbf" points="328.25,-137.75 197.5,-137.75 197.5,-117 328.25,-117 328.25,-137.75"/>
<text text-anchor="middle" x="262.88" y="-124.25" font-family="Helvetica,sans-Serif" font-size="10.00">spdk_opal_d0_geo_feat</text>
</a>
</g>
</g>
<!-- Node3&#45;&gt;Node6 -->
<g id="edge8_Node000006_Node000003" class="edge">
<title>Node3&#45;&gt;Node6</title>
<g id="a_edge8_Node000006_Node000003"><a xlink:title=" ">
<path fill="none" stroke="#9a32cd" stroke-dasharray="5,2" d="M140.31,-127.38C159.05,-127.38 178.99,-127.38 197.18,-127.38"/>
<polygon fill="#9a32cd" stroke="#9a32cd" points="140.33,-123.88 130.33,-127.38 140.33,-130.88 140.33,-123.88"/>
</a>
</g>
<text text-anchor="middle" x="155.88" y="-130.62" font-family="Helvetica,sans-Serif" font-size="10.00" fill="grey"> hdr</text>
</g>
<!-- Node7 -->
<g id="Node000007" class="node">
<title>Node7</title>
<g id="a_Node000007"><a xlink:href="structspdk__opal__d0__datastore__feat.html" target="_top" xlink:title=" ">
<polygon fill="white" stroke="#bfbfbf" points="342.5,-98.75 183.25,-98.75 183.25,-78 342.5,-78 342.5,-98.75"/>
<text text-anchor="middle" x="262.88" y="-85.25" font-family="Helvetica,sans-Serif" font-size="10.00">spdk_opal_d0_datastore_feat</text>
</a>
</g>
</g>
<!-- Node3&#45;&gt;Node7 -->
<g id="edge10_Node000007_Node000003" class="edge">
<title>Node3&#45;&gt;Node7</title>
<g id="a_edge10_Node000007_Node000003"><a xlink:title=" ">
<path fill="none" stroke="#9a32cd" stroke-dasharray="5,2" d="M128.28,-114.3C134.43,-113.05 140.59,-111.8 146.5,-110.62 165.5,-106.83 186.29,-102.79 204.92,-99.21"/>
<polygon fill="#9a32cd" stroke="#9a32cd" points="127.82,-110.82 118.73,-116.25 129.22,-117.68 127.82,-110.82"/>
</a>
</g>
<text text-anchor="middle" x="155.88" y="-113.62" font-family="Helvetica,sans-Serif" font-size="10.00" fill="grey"> hdr</text>
</g>
<!-- Node8 -->
<g id="Node000008" class="node">
<title>Node8</title>
<g id="a_Node000008"><a xlink:href="structspdk__opal__d0__v100__feat.html" target="_top" xlink:title=" ">
<polygon fill="white" stroke="#bfbfbf" points="331.25,-59.75 194.5,-59.75 194.5,-39 331.25,-39 331.25,-59.75"/>
<text text-anchor="middle" x="262.88" y="-46.25" font-family="Helvetica,sans-Serif" font-size="10.00">spdk_opal_d0_v100_feat</text>
</a>
</g>
</g>
<!-- Node3&#45;&gt;Node8 -->
<g id="edge12_Node000008_Node000003" class="edge">
<title>Node3&#45;&gt;Node8</title>
<g id="a_edge12_Node000008_Node000003"><a xlink:title=" ">
<path fill="none" stroke="#9a32cd" stroke-dasharray="5,2" d="M93.88,-111.2C117.33,-98.48 151.67,-81.01 183.25,-69.38 192.63,-65.92 202.86,-62.84 212.74,-60.2"/>
<polygon fill="#9a32cd" stroke="#9a32cd" points="92.33,-108.06 85.25,-115.95 95.7,-114.2 92.33,-108.06"/>
</a>
</g>
<text text-anchor="middle" x="155.88" y="-87.62" font-family="Helvetica,sans-Serif" font-size="10.00" fill="grey"> hdr</text>
</g>
<!-- Node9 -->
<g id="Node000009" class="node">
<title>Node9</title>
<g id="a_Node000009"><a xlink:href="structspdk__opal__d0__v200__feat.html" target="_top" xlink:title=" ">
<polygon fill="white" stroke="#bfbfbf" points="331.25,-20.75 194.5,-20.75 194.5,0 331.25,0 331.25,-20.75"/>
<text text-anchor="middle" x="262.88" y="-7.25" font-family="Helvetica,sans-Serif" font-size="10.00">spdk_opal_d0_v200_feat</text>
</a>
</g>
</g>
<!-- Node3&#45;&gt;Node9 -->
<g id="edge14_Node000009_Node000003" class="edge">
<title>Node3&#45;&gt;Node9</title>
<g id="a_edge14_Node000009_Node000003"><a xlink:title=" ">
<path fill="none" stroke="#9a32cd" stroke-dasharray="5,2" d="M82.72,-108.53C104.25,-86.46 142.95,-50.37 183.25,-30.38 190.57,-26.74 198.61,-23.73 206.66,-21.24"/>
<polygon fill="#9a32cd" stroke="#9a32cd" points="80.27,-106.03 75.89,-115.68 85.33,-110.87 80.27,-106.03"/>
</a>
</g>
<text text-anchor="middle" x="155.88" y="-54.62" font-family="Helvetica,sans-Serif" font-size="10.00" fill="grey"> hdr</text>
</g>
<!-- Node4&#45;&gt;Node1 -->
<g id="edge3_Node000001_Node000004" class="edge">
<title>Node4&#45;&gt;Node1</title>
<g id="a_edge3_Node000001_Node000004"><a xlink:title=" ">
<path fill="none" stroke="#9a32cd" stroke-dasharray="5,2" d="M322.97,-203.79C329.58,-202.06 336.2,-200.24 342.5,-198.38 377.07,-188.13 385.65,-185.09 419,-171.38 444.17,-161.03 472.32,-147.46 491.04,-138.14"/>
<polygon fill="#9a32cd" stroke="#9a32cd" points="322.2,-200.37 313.37,-206.22 323.92,-207.16 322.2,-200.37"/>
</a>
</g>
<text text-anchor="middle" x="389.75" y="-195.62" font-family="Helvetica,sans-Serif" font-size="10.00" fill="grey"> locking</text>
</g>
<!-- Node5&#45;&gt;Node1 -->
<g id="edge5_Node000001_Node000005" class="edge">
<title>Node5&#45;&gt;Node1</title>
<g id="a_edge5_Node000001_Node000005"><a xlink:title=" ">
<path fill="none" stroke="#9a32cd" stroke-dasharray="5,2" d="M332.94,-159.93C359.81,-155.09 390.84,-149.48 419,-144.38 430.01,-142.38 441.75,-140.24 453.06,-138.18"/>
<polygon fill="#9a32cd" stroke="#9a32cd" points="332.42,-156.47 323.2,-161.69 333.66,-163.36 332.42,-156.47"/>
</a>
</g>
<text text-anchor="middle" x="389.75" y="-157.62" font-family="Helvetica,sans-Serif" font-size="10.00" fill="grey"> single_user</text>
</g>
<!-- Node6&#45;&gt;Node1 -->
<g id="edge7_Node000001_Node000006" class="edge">
<title>Node6&#45;&gt;Node1</title>
<g id="a_edge7_Node000001_Node000006"><a xlink:title=" ">
<path fill="none" stroke="#9a32cd" stroke-dasharray="5,2" d="M339.98,-127.38C370.63,-127.38 405.89,-127.38 436.5,-127.38"/>
<polygon fill="#9a32cd" stroke="#9a32cd" points="340,-123.88 330,-127.38 340,-130.88 340,-123.88"/>
</a>
</g>
<text text-anchor="middle" x="389.75" y="-130.62" font-family="Helvetica,sans-Serif" font-size="10.00" fill="grey"> geo</text>
</g>
<!-- Node7&#45;&gt;Node1 -->
<g id="edge9_Node000001_Node000007" class="edge">
<title>Node7&#45;&gt;Node1</title>
<g id="a_edge9_Node000001_Node000007"><a xlink:title=" ">
<path fill="none" stroke="#9a32cd" stroke-dasharray="5,2" d="M354.2,-100.78C375.47,-103.86 398.05,-107.24 419,-110.62 430.2,-112.43 442.14,-114.49 453.61,-116.52"/>
<polygon fill="#9a32cd" stroke="#9a32cd" points="354.77,-97.33 344.37,-99.37 353.77,-104.26 354.77,-97.33"/>
</a>
</g>
<text text-anchor="middle" x="389.75" y="-113.62" font-family="Helvetica,sans-Serif" font-size="10.00" fill="grey"> datastore</text>
</g>
<!-- Node8&#45;&gt;Node1 -->
<g id="edge11_Node000001_Node000008" class="edge">
<title>Node8&#45;&gt;Node1</title>
<g id="a_edge11_Node000001_Node000008"><a xlink:title=" ">
<path fill="none" stroke="#9a32cd" stroke-dasharray="5,2" d="M336.17,-62.57C362.57,-68.23 392.45,-75.63 419,-84.62 444.98,-93.43 473.44,-107.11 492.01,-116.61"/>
<polygon fill="#9a32cd" stroke="#9a32cd" points="337.07,-59.18 326.57,-60.56 335.64,-66.03 337.07,-59.18"/>
</a>
</g>
<text text-anchor="middle" x="389.75" y="-87.62" font-family="Helvetica,sans-Serif" font-size="10.00" fill="grey"> v100</text>
</g>
<!-- Node9&#45;&gt;Node1 -->
<g id="edge13_Node000001_Node000009" class="edge">
<title>Node9&#45;&gt;Node1</title>
<g id="a_edge13_Node000001_Node000009"><a xlink:title=" ">
<path fill="none" stroke="#9a32cd" stroke-dasharray="5,2" d="M340.13,-23.72C366.06,-30.04 394.62,-39.04 419,-51.62 452.92,-69.14 485.99,-100.32 502.1,-116.68"/>
<polygon fill="#9a32cd" stroke="#9a32cd" points="341.21,-20.37 330.67,-21.51 339.62,-27.19 341.21,-20.37"/>
</a>
</g>
<text text-anchor="middle" x="389.75" y="-54.62" font-family="Helvetica,sans-Serif" font-size="10.00" fill="grey"> v200</text>
</g>
</g>
</svg>

<g id="navigator" transform="translate(0 0)" fill="#404254">
  <rect fill="#f2f5e9" fill-opacity="0.5" stroke="#606060" stroke-width=".5" x="0" y="0" width="60" height="60"/>
  <use id="zoomplus" xlink:href="#zoomPlus" x="17" y="9" onmousedown="handleZoom(evt,'in')"/>
  <use id="zoomminus" xlink:href="#zoomMin" x="42" y="9" onmousedown="handleZoom(evt,'out')"/>
  <use id="reset" xlink:href="#resetDef" x="30" y="36" onmousedown="handleReset()"/>
   <use id="arrowup" xlink:href="#arrowUp" x="0" y="0" onmousedown="handlePan(0,-1)"/>
  <use id="arrowright" xlink:href="#arrowRight" x="0" y="0" onmousedown="handlePan(1,0)"/>
  <use id="arrowdown" xlink:href="#arrowDown" x="0" y="0" onmousedown="handlePan(0,1)"/>
  <use id="arrowleft" xlink:href="#arrowLeft" x="0" y="0" onmousedown="handlePan(-1,0)"/>
</g>
<svg viewBox="0 0 15 15" width="100%" height="30px" preserveAspectRatio="xMaxYMin meet">
 <g id="arrow_out" transform="scale(0.3 0.3)">
  <a xlink:href="structspdk__opal__d0__features__info__coll__graph_org.svg" target="_base">
   <rect id="button" ry="5" rx="5" y="6" x="6" height="38" width="38"
        fill="#f2f5e9" fill-opacity="0.5" stroke="#606060" stroke-width="1.0"/>
   <path id="arrow"
     d="M 11.500037,31.436501 C 11.940474,20.09759 22.043105,11.32322 32.158766,21.979434 L 37.068811,17.246167 C 37.068811,17.246167 37.088388,32 37.088388,32 L 22.160133,31.978069 C 22.160133,31.978069 26.997745,27.140456 26.997745,27.140456 C 18.528582,18.264221 13.291696,25.230495 11.500037,31.436501 z"
     style="fill:#404040;"/>
  </a>
 </g>
</svg>

<style type='text/css'>
<![CDATA[
[data-mouse-over-selected='false'] { opacity: 0.7; }
[data-mouse-over-selected='true']  { opacity: 1.0; }
]]>
</style>
<script type="application/ecmascript"><![CDATA[
document.addEventListener('DOMContentLoaded', (event) => {
  highlightEdges();
  highlightAdjacentNodes();
});
]]></script>
</svg>
