<?xml version="1.0" encoding="UTF-8" standalone="no"?>
<!DOCTYPE svg PUBLIC "-//W3C//DTD SVG 1.1//EN"
 "http://www.w3.org/Graphics/SVG/1.1/DTD/svg11.dtd">
<!-- Generated by graphviz version 9.0.0 (20230911.1827)
 -->
<!-- Title: spdk_nvmf_transport Pages: 1 -->
<svg width="1093pt" height="112pt"
 viewBox="0.00 0.00 1093.00 112.12" xmlns="http://www.w3.org/2000/svg" xmlns:xlink="http://www.w3.org/1999/xlink">
<g id="graph0" class="graph" transform="scale(1 1) rotate(0) translate(4 108.12)">
<title>spdk_nvmf_transport</title>
<!-- Node1 -->
<g id="Node000001" class="node">
<title>Node1</title>
<g id="a_Node000001"><a xlink:title=" ">
<polygon fill="#999999" stroke="#666666" points="586.5,-59.75 467,-59.75 467,-39 586.5,-39 586.5,-59.75"/>
<text text-anchor="middle" x="526.75" y="-46.25" font-family="Helvetica,sans-Serif" font-size="10.00">spdk_nvmf_transport</text>
</a>
</g>
</g>
<!-- Node2 -->
<g id="Node000002" class="node">
<title>Node2</title>
<g id="a_Node000002"><a xlink:href="structspdk__nvmf__transport__ops.html" target="_top" xlink:title=" ">
<polygon fill="white" stroke="#bfbfbf" points="1085,-59.75 943,-59.75 943,-39 1085,-39 1085,-59.75"/>
<text text-anchor="middle" x="1014" y="-46.25" font-family="Helvetica,sans-Serif" font-size="10.00">spdk_nvmf_transport_ops</text>
</a>
</g>
</g>
<!-- Node1&#45;&gt;Node2 -->
<g id="edge2_Node000002_Node000001" class="edge">
<title>Node1&#45;&gt;Node2</title>
<g id="a_edge2_Node000002_Node000001"><a xlink:title=" ">
<path fill="none" stroke="#9a32cd" stroke-dasharray="5,2" d="M584.9,-62.57C591.49,-63.93 598.13,-65.23 604.5,-66.38 744.82,-91.55 784.36,-102.69 925,-79.38 947.13,-75.71 971.18,-67.18 988.53,-60.15"/>
<polygon fill="#9a32cd" stroke="#9a32cd" points="585.89,-59.2 575.38,-60.54 584.43,-66.05 585.89,-59.2"/>
</a>
</g>
<text text-anchor="middle" x="729.5" y="-94.62" font-family="Helvetica,sans-Serif" font-size="10.00" fill="grey"> create</text>
</g>
<!-- Node3 -->
<g id="Node000003" class="node">
<title>Node3</title>
<g id="a_Node000003"><a xlink:href="structspdk__nvmf__transport__poll__group.html" target="_top" xlink:title=" ">
<polygon fill="white" stroke="orangered" points="789.25,-66.12 669.75,-66.12 669.75,-32.62 789.25,-32.62 789.25,-66.12"/>
<text text-anchor="start" x="677.75" y="-52.62" font-family="Helvetica,sans-Serif" font-size="10.00">spdk_nvmf_transport</text>
<text text-anchor="middle" x="729.5" y="-39.88" font-family="Helvetica,sans-Serif" font-size="10.00">_poll_group</text>
</a>
</g>
</g>
<!-- Node1&#45;&gt;Node3 -->
<g id="edge4_Node000003_Node000001" class="edge">
<title>Node1&#45;&gt;Node3</title>
<g id="a_edge4_Node000003_Node000001"><a xlink:title=" ">
<path fill="none" stroke="#9a32cd" stroke-dasharray="5,2" d="M598.11,-49.38C621.41,-49.38 647.07,-49.38 669.43,-49.38"/>
<polygon fill="#9a32cd" stroke="#9a32cd" points="598.41,-45.88 588.41,-49.38 598.41,-52.88 598.41,-45.88"/>
</a>
</g>
<text text-anchor="middle" x="628.12" y="-52.62" font-family="Helvetica,sans-Serif" font-size="10.00" fill="grey"> transport</text>
</g>
<!-- Node2&#45;&gt;Node1 -->
<g id="edge1_Node000001_Node000002" class="edge">
<title>Node2&#45;&gt;Node1</title>
<g id="a_edge1_Node000001_Node000002"><a xlink:title=" ">
<path fill="none" stroke="#9a32cd" stroke-dasharray="5,2" d="M962.22,-35.84C895.15,-19.76 773.42,3.27 669.75,-10.62 630.37,-15.9 586.43,-29.07 558.01,-38.59"/>
<polygon fill="#9a32cd" stroke="#9a32cd" points="961.28,-39.22 971.82,-38.2 962.94,-32.42 961.28,-39.22"/>
</a>
</g>
<text text-anchor="middle" x="729.5" y="-14.62" font-family="Helvetica,sans-Serif" font-size="10.00" fill="grey"> ops</text>
</g>
<!-- Node3&#45;&gt;Node2 -->
<g id="edge3_Node000002_Node000003" class="edge">
<title>Node3&#45;&gt;Node2</title>
<g id="a_edge3_Node000002_Node000003"><a xlink:title=" ">
<path fill="none" stroke="#9a32cd" stroke-dasharray="5,2" d="M801.01,-49.38C844.25,-49.38 899.41,-49.38 942.62,-49.38"/>
<polygon fill="#9a32cd" stroke="#9a32cd" points="801.23,-45.88 791.23,-49.38 801.23,-52.88 801.23,-45.88"/>
</a>
</g>
<text text-anchor="middle" x="866.12" y="-65.38" font-family="Helvetica,sans-Serif" font-size="10.00" fill="grey"> get_optimal_poll_group</text>
<text text-anchor="middle" x="866.12" y="-52.62" font-family="Helvetica,sans-Serif" font-size="10.00" fill="grey">poll_group_create</text>
</g>
<!-- Node10 -->
<g id="Node000010" class="node">
<title>Node10</title>
<g id="a_Node000010"><a xlink:href="structspdk__nvmf__transport__opts.html" target="_top" xlink:title=" ">
<polygon fill="white" stroke="#bfbfbf" points="407,-59.75 261.25,-59.75 261.25,-39 407,-39 407,-59.75"/>
<text text-anchor="middle" x="334.12" y="-46.25" font-family="Helvetica,sans-Serif" font-size="10.00">spdk_nvmf_transport_opts</text>
</a>
</g>
</g>
<!-- Node10&#45;&gt;Node1 -->
<g id="edge5_Node000001_Node000010" class="edge">
<title>Node10&#45;&gt;Node1</title>
<g id="a_edge5_Node000001_Node000010"><a xlink:title=" ">
<path fill="none" stroke="#9a32cd" stroke-dasharray="5,2" d="M418.61,-49.38C434.84,-49.38 451.54,-49.38 466.78,-49.38"/>
<polygon fill="#9a32cd" stroke="#9a32cd" points="418.98,-45.88 408.98,-49.38 418.98,-52.88 418.98,-45.88"/>
</a>
</g>
<text text-anchor="middle" x="437" y="-52.62" font-family="Helvetica,sans-Serif" font-size="10.00" fill="grey"> opts</text>
</g>
<!-- Node11 -->
<g id="Node000011" class="node">
<title>Node11</title>
<g id="a_Node000011"><a xlink:href="structspdk__json__val.html" target="_top" xlink:title=" ">
<polygon fill="white" stroke="#bfbfbf" points="110.5,-98.75 25.5,-98.75 25.5,-78 110.5,-78 110.5,-98.75"/>
<text text-anchor="middle" x="68" y="-85.25" font-family="Helvetica,sans-Serif" font-size="10.00">spdk_json_val</text>
</a>
</g>
</g>
<!-- Node11&#45;&gt;Node10 -->
<g id="edge6_Node000010_Node000011" class="edge">
<title>Node11&#45;&gt;Node10</title>
<g id="a_edge6_Node000010_Node000011"><a xlink:title=" ">
<path fill="none" stroke="#9a32cd" stroke-dasharray="5,2" d="M121.91,-82.55C156.51,-78.53 202.66,-72.77 243.25,-66.38 254.86,-64.55 267.26,-62.35 279.04,-60.16"/>
<polygon fill="#9a32cd" stroke="#9a32cd" points="121.68,-79.05 112.15,-83.67 122.48,-86.01 121.68,-79.05"/>
</a>
</g>
<text text-anchor="middle" x="198.62" y="-80.62" font-family="Helvetica,sans-Serif" font-size="10.00" fill="grey"> transport_specific</text>
</g>
<!-- Node12 -->
<g id="Node000012" class="node">
<title>Node12</title>
<g id="a_Node000012"><a xlink:href="structspdk__nvme__cdata__oncs.html" target="_top" xlink:title="Identify Controller data Optional NVM Command Support.">
<polygon fill="white" stroke="#666666" points="134.12,-59.75 1.88,-59.75 1.88,-39 134.12,-39 134.12,-59.75"/>
<text text-anchor="middle" x="68" y="-46.25" font-family="Helvetica,sans-Serif" font-size="10.00">spdk_nvme_cdata_oncs</text>
</a>
</g>
</g>
<!-- Node12&#45;&gt;Node10 -->
<g id="edge7_Node000010_Node000012" class="edge">
<title>Node12&#45;&gt;Node10</title>
<g id="a_edge7_Node000010_Node000012"><a xlink:title=" ">
<path fill="none" stroke="#9a32cd" stroke-dasharray="5,2" d="M145.37,-49.38C181.85,-49.38 225.27,-49.38 261.16,-49.38"/>
<polygon fill="#9a32cd" stroke="#9a32cd" points="145.8,-45.88 135.8,-49.38 145.8,-52.88 145.8,-45.88"/>
</a>
</g>
<text text-anchor="middle" x="198.62" y="-52.62" font-family="Helvetica,sans-Serif" font-size="10.00" fill="grey"> oncs</text>
</g>
<!-- Node13 -->
<g id="Node000013" class="node">
<title>Node13</title>
<g id="a_Node000013"><a xlink:href="structspdk__nvme__cdata__fuses.html" target="_top" xlink:title=" ">
<polygon fill="white" stroke="#bfbfbf" points="136,-20.75 0,-20.75 0,0 136,0 136,-20.75"/>
<text text-anchor="middle" x="68" y="-7.25" font-family="Helvetica,sans-Serif" font-size="10.00">spdk_nvme_cdata_fuses</text>
</a>
</g>
</g>
<!-- Node13&#45;&gt;Node10 -->
<g id="edge8_Node000010_Node000013" class="edge">
<title>Node13&#45;&gt;Node10</title>
<g id="a_edge8_Node000010_Node000013"><a xlink:title=" ">
<path fill="none" stroke="#9a32cd" stroke-dasharray="5,2" d="M147.42,-19.42C177.45,-23.14 211.99,-27.72 243.25,-32.62 254.38,-34.37 266.25,-36.44 277.6,-38.51"/>
<polygon fill="#9a32cd" stroke="#9a32cd" points="148,-15.97 137.65,-18.22 147.15,-22.91 148,-15.97"/>
</a>
</g>
<text text-anchor="middle" x="198.62" y="-36.62" font-family="Helvetica,sans-Serif" font-size="10.00" fill="grey"> fuses</text>
</g>
</g>
</svg>
