<?xml version="1.0" encoding="UTF-8" standalone="no"?>
<!DOCTYPE svg PUBLIC "-//W3C//DTD SVG 1.1//EN"
 "http://www.w3.org/Graphics/SVG/1.1/DTD/svg11.dtd">
<!-- Generated by graphviz version 9.0.0 (20230911.1827)
 -->
<!-- Title: spdk_trace_file Pages: 1 -->
<svg width="393pt" height="168pt"
 viewBox="0.00 0.00 392.62 167.75" xmlns="http://www.w3.org/2000/svg" xmlns:xlink="http://www.w3.org/1999/xlink">

<svg id="main" version="1.1" xmlns="http://www.w3.org/2000/svg" xmlns:xlink="http://www.w3.org/1999/xlink" xml:space="preserve" onload="init(evt)">
<style type="text/css"><![CDATA[
.node, .edge {opacity: 0.7;}
.node.selected, .edge.selected {opacity: 1;}
.edge:hover path { stroke: red; }
.edge:hover polygon { stroke: red; fill: red; }
]]></style>
<script type="application/ecmascript" xlink:href="svg.min.js"/>
<svg id="graph" class="graph">
<g id="graph0" class="graph" transform="scale(1 1) rotate(0) translate(4 163.75)">
<title>spdk_trace_file</title>
<!-- Node1 -->
<g id="Node000001" class="node">
<title>Node1</title>
<g id="a_Node000001"><a xlink:title=" ">
<polygon fill="#999999" stroke="#666666" points="246.5,-20.75 157,-20.75 157,0 246.5,0 246.5,-20.75"/>
<text text-anchor="middle" x="201.75" y="-7.25" font-family="Helvetica,sans-Serif" font-size="10.00">spdk_trace_file</text>
</a>
</g>
</g>
<!-- Node2 -->
<g id="Node000002" class="node">
<title>Node2</title>
<g id="a_Node000002"><a xlink:href="structspdk__trace__owner__type.html" target="_top" xlink:title=" ">
<polygon fill="white" stroke="#bfbfbf" points="131.5,-90.25 0,-90.25 0,-69.5 131.5,-69.5 131.5,-90.25"/>
<text text-anchor="middle" x="65.75" y="-76.75" font-family="Helvetica,sans-Serif" font-size="10.00">spdk_trace_owner_type</text>
</a>
</g>
</g>
<!-- Node2&#45;&gt;Node1 -->
<g id="edge1_Node000001_Node000002" class="edge">
<title>Node2&#45;&gt;Node1</title>
<g id="a_edge1_Node000001_Node000002"><a xlink:title=" ">
<path fill="none" stroke="#9a32cd" stroke-dasharray="5,2" d="M91.69,-63.56C105.24,-55.78 122.19,-46.39 137.75,-38.75 150.55,-32.47 165.15,-26.16 177.17,-21.19"/>
<polygon fill="#9a32cd" stroke="#9a32cd" points="90.28,-60.33 83.39,-68.37 93.79,-66.39 90.28,-60.33"/>
</a>
</g>
<text text-anchor="middle" x="167.75" y="-42" font-family="Helvetica,sans-Serif" font-size="10.00" fill="grey"> owner_type</text>
</g>
<!-- Node3 -->
<g id="Node000003" class="node">
<title>Node3</title>
<g id="a_Node000003"><a xlink:href="structspdk__trace__object.html" target="_top" xlink:title=" ">
<polygon fill="white" stroke="#bfbfbf" points="254,-90.25 149.5,-90.25 149.5,-69.5 254,-69.5 254,-90.25"/>
<text text-anchor="middle" x="201.75" y="-76.75" font-family="Helvetica,sans-Serif" font-size="10.00">spdk_trace_object</text>
</a>
</g>
</g>
<!-- Node3&#45;&gt;Node1 -->
<g id="edge2_Node000001_Node000003" class="edge">
<title>Node3&#45;&gt;Node1</title>
<g id="a_edge2_Node000001_Node000003"><a xlink:title=" ">
<path fill="none" stroke="#9a32cd" stroke-dasharray="5,2" d="M201.75,-58.07C201.75,-45.72 201.75,-30.65 201.75,-21.03"/>
<polygon fill="#9a32cd" stroke="#9a32cd" points="198.25,-57.69 201.75,-67.69 205.25,-57.69 198.25,-57.69"/>
</a>
</g>
<text text-anchor="middle" x="218.25" y="-42" font-family="Helvetica,sans-Serif" font-size="10.00" fill="grey"> object</text>
</g>
<!-- Node4 -->
<g id="Node000004" class="node">
<title>Node4</title>
<g id="a_Node000004"><a xlink:href="structspdk__trace__tpoint.html" target="_top" xlink:title=" ">
<polygon fill="white" stroke="#bfbfbf" points="375.25,-90.25 272.25,-90.25 272.25,-69.5 375.25,-69.5 375.25,-90.25"/>
<text text-anchor="middle" x="323.75" y="-76.75" font-family="Helvetica,sans-Serif" font-size="10.00">spdk_trace_tpoint</text>
</a>
</g>
</g>
<!-- Node4&#45;&gt;Node1 -->
<g id="edge3_Node000001_Node000004" class="edge">
<title>Node4&#45;&gt;Node1</title>
<g id="a_edge3_Node000001_Node000004"><a xlink:title=" ">
<path fill="none" stroke="#9a32cd" stroke-dasharray="5,2" d="M295.97,-63.5C272.5,-50.52 239.58,-32.3 219.51,-21.2"/>
<polygon fill="#9a32cd" stroke="#9a32cd" points="294.24,-66.55 304.69,-68.33 297.63,-60.42 294.24,-66.55"/>
</a>
</g>
<text text-anchor="middle" x="288.5" y="-42" font-family="Helvetica,sans-Serif" font-size="10.00" fill="grey"> tpoint</text>
</g>
<!-- Node5 -->
<g id="Node000005" class="node">
<title>Node5</title>
<g id="a_Node000005"><a xlink:href="structspdk__trace__argument.html" target="_top" xlink:title=" ">
<polygon fill="white" stroke="#bfbfbf" points="384.62,-159.75 262.88,-159.75 262.88,-139 384.62,-139 384.62,-159.75"/>
<text text-anchor="middle" x="323.75" y="-146.25" font-family="Helvetica,sans-Serif" font-size="10.00">spdk_trace_argument</text>
</a>
</g>
</g>
<!-- Node5&#45;&gt;Node4 -->
<g id="edge4_Node000004_Node000005" class="edge">
<title>Node5&#45;&gt;Node4</title>
<g id="a_edge4_Node000004_Node000005"><a xlink:title=" ">
<path fill="none" stroke="#9a32cd" stroke-dasharray="5,2" d="M323.75,-127.57C323.75,-115.22 323.75,-100.15 323.75,-90.53"/>
<polygon fill="#9a32cd" stroke="#9a32cd" points="320.25,-127.19 323.75,-137.19 327.25,-127.19 320.25,-127.19"/>
</a>
</g>
<text text-anchor="middle" x="335.75" y="-111.5" font-family="Helvetica,sans-Serif" font-size="10.00" fill="grey"> args</text>
</g>
</g>
</svg>
</svg>

<style type='text/css'>
<![CDATA[
[data-mouse-over-selected='false'] { opacity: 0.7; }
[data-mouse-over-selected='true']  { opacity: 1.0; }
]]>
</style>
<script type="application/ecmascript"><![CDATA[
document.addEventListener('DOMContentLoaded', (event) => {
  highlightEdges();
  highlightAdjacentNodes();
});
]]></script>
</svg>
