<?xml version="1.0" encoding="UTF-8" standalone="no"?>
<!DOCTYPE svg PUBLIC "-//W3C//DTD SVG 1.1//EN"
 "http://www.w3.org/Graphics/SVG/1.1/DTD/svg11.dtd">
<!-- Generated by graphviz version 9.0.0 (20230911.1827)
 -->
<!-- Title: spdk_bdev_io Pages: 1 -->
<svg width="1466pt" height="336pt"
 viewBox="0.00 0.00 1466.00 336.34" xmlns="http://www.w3.org/2000/svg" xmlns:xlink="http://www.w3.org/1999/xlink">
<g id="graph0" class="graph" transform="scale(1 1) rotate(0) translate(4 332.34)">
<title>spdk_bdev_io</title>
<!-- Node1 -->
<g id="Node000001" class="node">
<title>Node1</title>
<g id="a_Node000001"><a xlink:title=" ">
<polygon fill="#999999" stroke="#666666" points="601.5,-143.97 518.75,-143.97 518.75,-123.22 601.5,-123.22 601.5,-143.97"/>
<text text-anchor="middle" x="560.12" y="-130.47" font-family="Helvetica,sans-Serif" font-size="10.00">spdk_bdev_io</text>
</a>
</g>
</g>
<!-- Node8 -->
<g id="Node000008" class="node">
<title>Node8</title>
<g id="a_Node000008"><a xlink:href="structspdk__bdev_1_1____bdev__internal__fields.html" target="_top" xlink:title="Fields that are used internally by the bdev subsystem.">
<polygon fill="#fff0f0" stroke="red" points="877.75,-328.34 726.75,-328.34 726.75,-294.84 877.75,-294.84 877.75,-328.34"/>
<text text-anchor="start" x="734.75" y="-314.84" font-family="Helvetica,sans-Serif" font-size="10.00">spdk_bdev::__bdev_internal</text>
<text text-anchor="middle" x="802.25" y="-302.09" font-family="Helvetica,sans-Serif" font-size="10.00">_fields</text>
</a>
</g>
</g>
<!-- Node1&#45;&gt;Node8 -->
<g id="edge6_Node000008_Node000001" class="edge">
<title>Node1&#45;&gt;Node8</title>
<g id="a_edge6_Node000008_Node000001"><a xlink:title=" ">
<path fill="none" stroke="#9a32cd" stroke-dasharray="5,2" d="M563.49,-155.49C568.17,-187.52 581.7,-246.7 619.5,-277.59 649.2,-301.87 690.78,-310.89 726.67,-313.61"/>
<polygon fill="#9a32cd" stroke="#9a32cd" points="566.99,-155.27 562.25,-145.8 560.05,-156.16 566.99,-155.27"/>
</a>
</g>
<text text-anchor="middle" x="664.12" y="-313.84" font-family="Helvetica,sans-Serif" font-size="10.00" fill="grey"> reset_in_progress</text>
</g>
<!-- Node20 -->
<g id="Node000020" class="node">
<title>Node20</title>
<g id="a_Node000020"><a xlink:href="structspdk__bdev__io__abort__params.html" target="_top" xlink:title=" ">
<polygon fill="white" stroke="#bfbfbf" points="859,-150.34 745.5,-150.34 745.5,-116.84 859,-116.84 859,-150.34"/>
<text text-anchor="start" x="753.5" y="-136.84" font-family="Helvetica,sans-Serif" font-size="10.00">spdk_bdev_io_abort</text>
<text text-anchor="middle" x="802.25" y="-124.09" font-family="Helvetica,sans-Serif" font-size="10.00">_params</text>
</a>
</g>
</g>
<!-- Node1&#45;&gt;Node20 -->
<g id="edge14_Node000020_Node000001" class="edge">
<title>Node1&#45;&gt;Node20</title>
<g id="a_edge14_Node000020_Node000001"><a xlink:title=" ">
<path fill="none" stroke="#9a32cd" stroke-dasharray="5,2" d="M604.01,-119.83C609.18,-118.6 614.43,-117.56 619.5,-116.84 661.39,-110.95 709.02,-115.76 745,-121.71"/>
<polygon fill="#9a32cd" stroke="#9a32cd" points="603.14,-116.44 594.36,-122.36 604.92,-123.21 603.14,-116.44"/>
</a>
</g>
<text text-anchor="middle" x="664.12" y="-119.84" font-family="Helvetica,sans-Serif" font-size="10.00" fill="grey"> bio_to_abort</text>
</g>
<!-- Node49 -->
<g id="Node000049" class="node">
<title>Node49</title>
<g id="a_Node000049"><a xlink:href="structspdk__bdev__io__internal__fields.html" target="_top" xlink:title="Fields that are used internally by the bdev subsystem.">
<polygon fill="white" stroke="#666666" points="1458,-83.34 1332.5,-83.34 1332.5,-49.84 1458,-49.84 1458,-83.34"/>
<text text-anchor="start" x="1340.5" y="-69.84" font-family="Helvetica,sans-Serif" font-size="10.00">spdk_bdev_io_internal</text>
<text text-anchor="middle" x="1395.25" y="-57.09" font-family="Helvetica,sans-Serif" font-size="10.00">_fields</text>
</a>
</g>
</g>
<!-- Node1&#45;&gt;Node49 -->
<g id="edge19_Node000049_Node000001" class="edge">
<title>Node1&#45;&gt;Node49</title>
<g id="a_edge19_Node000049_Node000001"><a xlink:title=" ">
<path fill="none" stroke="#9a32cd" stroke-dasharray="5,2" d="M588.93,-117.16C632.59,-92.97 720.57,-50.59 801.25,-50.59 801.25,-50.59 801.25,-50.59 1166.88,-50.59 1222.87,-50.59 1286.43,-55.48 1332.09,-59.86"/>
<polygon fill="#9a32cd" stroke="#9a32cd" points="587.37,-114.03 580.39,-122 590.81,-120.12 587.37,-114.03"/>
</a>
</g>
<text text-anchor="middle" x="994.75" y="-92.09" font-family="Helvetica,sans-Serif" font-size="10.00" fill="grey"> cb</text>
<text text-anchor="middle" x="994.75" y="-79.34" font-family="Helvetica,sans-Serif" font-size="10.00" fill="grey">get_aux_buf_cb</text>
<text text-anchor="middle" x="994.75" y="-66.59" font-family="Helvetica,sans-Serif" font-size="10.00" fill="grey">get_buf_cb</text>
<text text-anchor="middle" x="994.75" y="-53.84" font-family="Helvetica,sans-Serif" font-size="10.00" fill="grey">stored_user_cb</text>
</g>
<!-- Node2 -->
<g id="Node000002" class="node">
<title>Node2</title>
<g id="a_Node000002"><a xlink:href="structspdk__bdev.html" target="_top" xlink:title=" ">
<polygon fill="white" stroke="#bfbfbf" points="1029,-207.97 960.5,-207.97 960.5,-187.22 1029,-187.22 1029,-207.97"/>
<text text-anchor="middle" x="994.75" y="-194.47" font-family="Helvetica,sans-Serif" font-size="10.00">spdk_bdev</text>
</a>
</g>
</g>
<!-- Node2&#45;&gt;Node1 -->
<g id="edge1_Node000001_Node000002" class="edge">
<title>Node2&#45;&gt;Node1</title>
<g id="a_edge1_Node000001_Node000002"><a xlink:title=" ">
<path fill="none" stroke="#9a32cd" stroke-dasharray="5,2" d="M964.59,-213.59C956.34,-217.64 947.22,-221.66 938.5,-224.59 849.17,-254.67 817.39,-262.48 726.75,-236.59 662.28,-218.18 598.46,-166.64 572.85,-144.22"/>
<polygon fill="#9a32cd" stroke="#9a32cd" points="966.18,-216.71 973.49,-209.05 962.99,-210.48 966.18,-216.71"/>
</a>
</g>
<text text-anchor="middle" x="802.25" y="-254.84" font-family="Helvetica,sans-Serif" font-size="10.00" fill="grey"> bdev</text>
</g>
<!-- Node51 -->
<g id="Node000051" class="node">
<title>Node51</title>
<g id="a_Node000051"><a xlink:href="structspdk__bdev__io__wait__entry.html" target="_top" xlink:title="Structure to register a callback when an spdk_bdev_io becomes available.">
<polygon fill="white" stroke="#666666" points="1235.75,-98.97 1096,-98.97 1096,-78.22 1235.75,-78.22 1235.75,-98.97"/>
<text text-anchor="middle" x="1165.88" y="-85.47" font-family="Helvetica,sans-Serif" font-size="10.00">spdk_bdev_io_wait_entry</text>
</a>
</g>
</g>
<!-- Node2&#45;&gt;Node51 -->
<g id="edge23_Node000051_Node000002" class="edge">
<title>Node2&#45;&gt;Node51</title>
<g id="a_edge23_Node000051_Node000002"><a xlink:title=" ">
<path fill="none" stroke="#9a32cd" stroke-dasharray="5,2" d="M1012.37,-178.48C1030.88,-158.34 1062.6,-127.03 1096,-108.59 1102.54,-104.98 1109.8,-101.97 1117.08,-99.46"/>
<polygon fill="#9a32cd" stroke="#9a32cd" points="1009.93,-175.96 1005.85,-185.74 1015.14,-180.64 1009.93,-175.96"/>
</a>
</g>
<text text-anchor="middle" x="1064.5" y="-142.84" font-family="Helvetica,sans-Serif" font-size="10.00" fill="grey"> bdev</text>
</g>
<!-- Node3 -->
<g id="Node000003" class="node">
<title>Node3</title>
<g id="a_Node000003"><a xlink:href="structspdk__uuid.html" target="_top" xlink:title=" ">
<polygon fill="white" stroke="#bfbfbf" points="835,-227.97 769.5,-227.97 769.5,-207.22 835,-207.22 835,-227.97"/>
<text text-anchor="middle" x="802.25" y="-214.47" font-family="Helvetica,sans-Serif" font-size="10.00">spdk_uuid</text>
</a>
</g>
</g>
<!-- Node3&#45;&gt;Node2 -->
<g id="edge2_Node000002_Node000003" class="edge">
<title>Node3&#45;&gt;Node2</title>
<g id="a_edge2_Node000002_Node000003"><a xlink:title=" ">
<path fill="none" stroke="#9a32cd" stroke-dasharray="5,2" d="M846.28,-213.08C880.76,-209.46 928.45,-204.45 960.16,-201.12"/>
<polygon fill="#9a32cd" stroke="#9a32cd" points="846.22,-209.56 836.64,-214.09 846.95,-216.53 846.22,-209.56"/>
</a>
</g>
<text text-anchor="middle" x="917.12" y="-210.84" font-family="Helvetica,sans-Serif" font-size="10.00" fill="grey"> uuid</text>
</g>
<!-- Node4 -->
<g id="Node000004" class="node">
<title>Node4</title>
<g id="a_Node000004"><a xlink:href="unionspdk__bdev__nvme__ctratt.html" target="_top" xlink:title="Union for controller attributes field, to list whether bdev supports fdp etc.">
<polygon fill="white" stroke="#666666" points="868.75,-188.97 735.75,-188.97 735.75,-168.22 868.75,-168.22 868.75,-188.97"/>
<text text-anchor="middle" x="802.25" y="-175.47" font-family="Helvetica,sans-Serif" font-size="10.00">spdk_bdev_nvme_ctratt</text>
</a>
</g>
</g>
<!-- Node4&#45;&gt;Node2 -->
<g id="edge3_Node000002_Node000004" class="edge">
<title>Node4&#45;&gt;Node2</title>
<g id="a_edge3_Node000002_Node000004"><a xlink:title=" ">
<path fill="none" stroke="#9a32cd" stroke-dasharray="5,2" d="M880.56,-177.97C899.58,-178.66 919.84,-180.1 938.5,-182.84 945.57,-183.89 953.04,-185.51 960.11,-187.3"/>
<polygon fill="#9a32cd" stroke="#9a32cd" points="880.82,-174.48 870.73,-177.69 880.62,-181.47 880.82,-174.48"/>
</a>
</g>
<text text-anchor="middle" x="917.12" y="-185.84" font-family="Helvetica,sans-Serif" font-size="10.00" fill="grey"> ctratt</text>
</g>
<!-- Node5 -->
<g id="Node000005" class="node">
<title>Node5</title>
<g id="a_Node000005"><a xlink:href="structspdk__bdev__module.html" target="_top" xlink:title="Block device module.">
<polygon fill="#fff0f0" stroke="red" points="857.5,-98.97 747,-98.97 747,-78.22 857.5,-78.22 857.5,-98.97"/>
<text text-anchor="middle" x="802.25" y="-85.47" font-family="Helvetica,sans-Serif" font-size="10.00">spdk_bdev_module</text>
</a>
</g>
</g>
<!-- Node5&#45;&gt;Node2 -->
<g id="edge4_Node000002_Node000005" class="edge">
<title>Node5&#45;&gt;Node2</title>
<g id="a_edge4_Node000002_Node000005"><a xlink:title=" ">
<path fill="none" stroke="#9a32cd" stroke-dasharray="5,2" d="M867.47,-103.13C871,-104.5 874.45,-105.98 877.75,-107.59 921.26,-128.87 964.08,-168.14 983.27,-186.97"/>
<polygon fill="#9a32cd" stroke="#9a32cd" points="868.74,-99.86 858.14,-99.87 866.43,-106.47 868.74,-99.86"/>
</a>
</g>
<text text-anchor="middle" x="917.12" y="-149.84" font-family="Helvetica,sans-Serif" font-size="10.00" fill="grey"> fn_table</text>
</g>
<!-- Node8&#45;&gt;Node2 -->
<g id="edge5_Node000002_Node000008" class="edge">
<title>Node8&#45;&gt;Node2</title>
<g id="a_edge5_Node000002_Node000008"><a xlink:title=" ">
<path fill="none" stroke="#9a32cd" stroke-dasharray="5,2" d="M889.02,-299.9C906.41,-294.89 923.84,-287.76 938.5,-277.59 964.3,-259.7 981.77,-225.58 989.4,-208.25"/>
<polygon fill="#9a32cd" stroke="#9a32cd" points="888.46,-296.42 879.68,-302.36 890.24,-303.19 888.46,-296.42"/>
</a>
</g>
<text text-anchor="middle" x="917.12" y="-299.84" font-family="Helvetica,sans-Serif" font-size="10.00" fill="grey"> internal</text>
</g>
<!-- Node14 -->
<g id="Node000014" class="node">
<title>Node14</title>
<g id="a_Node000014"><a xlink:href="structspdk__bdev__io__block__params.html" target="_top" xlink:title=" ">
<polygon fill="white" stroke="#bfbfbf" points="380.38,-220.34 266.12,-220.34 266.12,-186.84 380.38,-186.84 380.38,-220.34"/>
<text text-anchor="start" x="274.12" y="-206.84" font-family="Helvetica,sans-Serif" font-size="10.00">spdk_bdev_io_block</text>
<text text-anchor="middle" x="323.25" y="-194.09" font-family="Helvetica,sans-Serif" font-size="10.00">_params</text>
</a>
</g>
</g>
<!-- Node14&#45;&gt;Node1 -->
<g id="edge7_Node000001_Node000014" class="edge">
<title>Node14&#45;&gt;Node1</title>
<g id="a_edge7_Node000001_Node000014"><a xlink:title=" ">
<path fill="none" stroke="#9a32cd" stroke-dasharray="5,2" d="M391.69,-190.39C424.97,-183.06 465.44,-172.93 500.75,-160.59 513.61,-156.1 527.47,-149.76 538.46,-144.35"/>
<polygon fill="#9a32cd" stroke="#9a32cd" points="391.22,-186.91 382.18,-192.45 392.69,-193.75 391.22,-186.91"/>
</a>
</g>
<text text-anchor="middle" x="461.75" y="-185.84" font-family="Helvetica,sans-Serif" font-size="10.00" fill="grey"> bdev</text>
</g>
<!-- Node15 -->
<g id="Node000015" class="node">
<title>Node15</title>
<g id="a_Node000015"><a xlink:href="unionspdk__bdev__nvme__cdw12.html" target="_top" xlink:title="Union for command dword 12, which by convention matches the NVMe command dword 12 definition.">
<polygon fill="white" stroke="#666666" points="138.25,-239.97 0,-239.97 0,-219.22 138.25,-219.22 138.25,-239.97"/>
<text text-anchor="middle" x="69.12" y="-226.47" font-family="Helvetica,sans-Serif" font-size="10.00">spdk_bdev_nvme_cdw12</text>
</a>
</g>
</g>
<!-- Node15&#45;&gt;Node14 -->
<g id="edge8_Node000014_Node000015" class="edge">
<title>Node15&#45;&gt;Node14</title>
<g id="a_edge8_Node000014_Node000015"><a xlink:title=" ">
<path fill="none" stroke="#9a32cd" stroke-dasharray="5,2" d="M149.68,-221.39C187.48,-217.49 231.78,-212.92 266.03,-209.39"/>
<polygon fill="#9a32cd" stroke="#9a32cd" points="149.78,-217.86 140.19,-222.37 150.5,-224.82 149.78,-217.86"/>
</a>
</g>
<text text-anchor="middle" x="190" y="-222.84" font-family="Helvetica,sans-Serif" font-size="10.00" fill="grey"> nvme_cdw12</text>
</g>
<!-- Node16 -->
<g id="Node000016" class="node">
<title>Node16</title>
<g id="a_Node000016"><a xlink:href="unionspdk__bdev__nvme__cdw13.html" target="_top" xlink:title="Union for command dword 13, which by convention matches the NVMe command dword 13 definition.">
<polygon fill="white" stroke="#666666" points="138.25,-200.97 0,-200.97 0,-180.22 138.25,-180.22 138.25,-200.97"/>
<text text-anchor="middle" x="69.12" y="-187.47" font-family="Helvetica,sans-Serif" font-size="10.00">spdk_bdev_nvme_cdw13</text>
</a>
</g>
</g>
<!-- Node16&#45;&gt;Node14 -->
<g id="edge9_Node000014_Node000016" class="edge">
<title>Node16&#45;&gt;Node14</title>
<g id="a_edge9_Node000014_Node000016"><a xlink:title=" ">
<path fill="none" stroke="#9a32cd" stroke-dasharray="5,2" d="M150.05,-191.88C173.79,-192.51 199.83,-193.45 223.75,-194.84 237.38,-195.64 252.04,-196.78 265.78,-197.98"/>
<polygon fill="#9a32cd" stroke="#9a32cd" points="150.21,-188.38 140.12,-191.63 150.03,-195.38 150.21,-188.38"/>
</a>
</g>
<text text-anchor="middle" x="190" y="-197.84" font-family="Helvetica,sans-Serif" font-size="10.00" fill="grey"> nvme_cdw13</text>
</g>
<!-- Node17 -->
<g id="Node000017" class="node">
<title>Node17</title>
<g id="a_Node000017"><a xlink:href="structspdk__dif__ctx.html" target="_top" xlink:title="DIF context information.">
<polygon fill="white" stroke="#666666" points="107.88,-161.97 30.38,-161.97 30.38,-141.22 107.88,-141.22 107.88,-161.97"/>
<text text-anchor="middle" x="69.12" y="-148.47" font-family="Helvetica,sans-Serif" font-size="10.00">spdk_dif_ctx</text>
</a>
</g>
</g>
<!-- Node17&#45;&gt;Node14 -->
<g id="edge10_Node000014_Node000017" class="edge">
<title>Node17&#45;&gt;Node14</title>
<g id="a_edge10_Node000014_Node000017"><a xlink:title=" ">
<path fill="none" stroke="#9a32cd" stroke-dasharray="5,2" d="M119.39,-157.35C149.68,-161.3 189.18,-167.22 223.75,-174.84 238.28,-178.05 253.8,-182.22 268.14,-186.39"/>
<polygon fill="#9a32cd" stroke="#9a32cd" points="120.13,-153.91 109.77,-156.12 119.24,-160.85 120.13,-153.91"/>
</a>
</g>
<text text-anchor="middle" x="190" y="-177.84" font-family="Helvetica,sans-Serif" font-size="10.00" fill="grey"> dif_ctx</text>
</g>
<!-- Node18 -->
<g id="Node000018" class="node">
<title>Node18</title>
<g id="a_Node000018"><a xlink:href="structspdk__dif__error.html" target="_top" xlink:title="DIF error information.">
<polygon fill="white" stroke="#666666" points="112,-278.97 26.25,-278.97 26.25,-258.22 112,-258.22 112,-278.97"/>
<text text-anchor="middle" x="69.12" y="-265.47" font-family="Helvetica,sans-Serif" font-size="10.00">spdk_dif_error</text>
</a>
</g>
</g>
<!-- Node18&#45;&gt;Node14 -->
<g id="edge11_Node000014_Node000018" class="edge">
<title>Node18&#45;&gt;Node14</title>
<g id="a_edge11_Node000014_Node000018"><a xlink:title=" ">
<path fill="none" stroke="#9a32cd" stroke-dasharray="5,2" d="M123.48,-259.08C153.2,-253.39 190.75,-245.52 223.75,-236.59 240.64,-232.02 258.87,-226.18 275,-220.68"/>
<polygon fill="#9a32cd" stroke="#9a32cd" points="123.16,-255.58 113.99,-260.88 124.46,-262.46 123.16,-255.58"/>
</a>
</g>
<text text-anchor="middle" x="190" y="-254.84" font-family="Helvetica,sans-Serif" font-size="10.00" fill="grey"> dif_err</text>
</g>
<!-- Node19 -->
<g id="Node000019" class="node">
<title>Node19</title>
<g id="a_Node000019"><a xlink:href="structspdk__bdev__io__reset__params.html" target="_top" xlink:title=" ">
<polygon fill="white" stroke="#bfbfbf" points="379.62,-168.34 266.88,-168.34 266.88,-134.84 379.62,-134.84 379.62,-168.34"/>
<text text-anchor="start" x="274.88" y="-154.84" font-family="Helvetica,sans-Serif" font-size="10.00">spdk_bdev_io_reset</text>
<text text-anchor="middle" x="323.25" y="-142.09" font-family="Helvetica,sans-Serif" font-size="10.00">_params</text>
</a>
</g>
</g>
<!-- Node19&#45;&gt;Node1 -->
<g id="edge12_Node000001_Node000019" class="edge">
<title>Node19&#45;&gt;Node1</title>
<g id="a_edge12_Node000001_Node000019"><a xlink:title=" ">
<path fill="none" stroke="#9a32cd" stroke-dasharray="5,2" d="M391.21,-146.46C432.29,-143.31 483.55,-139.39 518.56,-136.7"/>
<polygon fill="#9a32cd" stroke="#9a32cd" points="391.12,-142.96 381.42,-147.21 391.66,-149.94 391.12,-142.96"/>
</a>
</g>
<text text-anchor="middle" x="461.75" y="-146.84" font-family="Helvetica,sans-Serif" font-size="10.00" fill="grey"> reset</text>
</g>
<!-- Node20&#45;&gt;Node1 -->
<g id="edge13_Node000001_Node000020" class="edge">
<title>Node20&#45;&gt;Node1</title>
<g id="a_edge13_Node000001_Node000020"><a xlink:title=" ">
<path fill="none" stroke="#9a32cd" stroke-dasharray="5,2" d="M734.04,-133.59C691.55,-133.59 638.02,-133.59 601.86,-133.59"/>
<polygon fill="#9a32cd" stroke="#9a32cd" points="733.92,-137.09 743.92,-133.59 733.92,-130.09 733.92,-137.09"/>
</a>
</g>
<text text-anchor="middle" x="664.12" y="-136.84" font-family="Helvetica,sans-Serif" font-size="10.00" fill="grey"> abort</text>
</g>
<!-- Node21 -->
<g id="Node000021" class="node">
<title>Node21</title>
<g id="a_Node000021"><a xlink:href="structspdk__bdev__io__nvme__passthru__params.html" target="_top" xlink:title=" ">
<polygon fill="white" stroke="#bfbfbf" points="404.75,-116.34 241.75,-116.34 241.75,-82.84 404.75,-82.84 404.75,-116.34"/>
<text text-anchor="start" x="249.75" y="-102.84" font-family="Helvetica,sans-Serif" font-size="10.00">spdk_bdev_io_nvme_passthru</text>
<text text-anchor="middle" x="323.25" y="-90.09" font-family="Helvetica,sans-Serif" font-size="10.00">_params</text>
</a>
</g>
</g>
<!-- Node21&#45;&gt;Node1 -->
<g id="edge15_Node000001_Node000021" class="edge">
<title>Node21&#45;&gt;Node1</title>
<g id="a_edge15_Node000001_Node000021"><a xlink:title=" ">
<path fill="none" stroke="#9a32cd" stroke-dasharray="5,2" d="M416.02,-108.96C443.36,-112.21 473.33,-116.21 500.75,-120.84 506.48,-121.81 512.49,-122.97 518.4,-124.18"/>
<polygon fill="#9a32cd" stroke="#9a32cd" points="416.72,-105.52 406.38,-107.84 415.91,-112.47 416.72,-105.52"/>
</a>
</g>
<text text-anchor="middle" x="461.75" y="-123.84" font-family="Helvetica,sans-Serif" font-size="10.00" fill="grey"> nvme_passthru</text>
</g>
<!-- Node22 -->
<g id="Node000022" class="node">
<title>Node22</title>
<g id="a_Node000022"><a xlink:href="structspdk__nvme__cmd.html" target="_top" xlink:title=" ">
<polygon fill="white" stroke="orangered" points="118.38,-109.97 19.88,-109.97 19.88,-89.22 118.38,-89.22 118.38,-109.97"/>
<text text-anchor="middle" x="69.12" y="-96.47" font-family="Helvetica,sans-Serif" font-size="10.00">spdk_nvme_cmd</text>
</a>
</g>
</g>
<!-- Node22&#45;&gt;Node21 -->
<g id="edge16_Node000021_Node000022" class="edge">
<title>Node22&#45;&gt;Node21</title>
<g id="a_edge16_Node000021_Node000022"><a xlink:title=" ">
<path fill="none" stroke="#9a32cd" stroke-dasharray="5,2" d="M130.14,-99.59C163.47,-99.59 205.38,-99.59 241.54,-99.59"/>
<polygon fill="#9a32cd" stroke="#9a32cd" points="130.25,-96.09 120.25,-99.59 130.25,-103.09 130.25,-96.09"/>
</a>
</g>
<text text-anchor="middle" x="190" y="-102.84" font-family="Helvetica,sans-Serif" font-size="10.00" fill="grey"> cmd</text>
</g>
<!-- Node48 -->
<g id="Node000048" class="node">
<title>Node48</title>
<g id="a_Node000048"><a xlink:href="structspdk__bdev__io__zone__mgmt__params.html" target="_top" xlink:title=" ">
<polygon fill="white" stroke="#bfbfbf" points="396.12,-64.34 250.38,-64.34 250.38,-30.84 396.12,-30.84 396.12,-64.34"/>
<text text-anchor="start" x="258.38" y="-50.84" font-family="Helvetica,sans-Serif" font-size="10.00">spdk_bdev_io_zone_mgmt</text>
<text text-anchor="middle" x="323.25" y="-38.09" font-family="Helvetica,sans-Serif" font-size="10.00">_params</text>
</a>
</g>
</g>
<!-- Node48&#45;&gt;Node1 -->
<g id="edge17_Node000001_Node000048" class="edge">
<title>Node48&#45;&gt;Node1</title>
<g id="a_edge17_Node000001_Node000048"><a xlink:title=" ">
<path fill="none" stroke="#9a32cd" stroke-dasharray="5,2" d="M407.2,-62.41C437.46,-69.48 471.43,-79.39 500.75,-92.84 517.82,-100.68 535.2,-113.58 546.5,-122.76"/>
<polygon fill="#9a32cd" stroke="#9a32cd" points="408.24,-59.06 397.71,-60.27 406.7,-65.89 408.24,-59.06"/>
</a>
</g>
<text text-anchor="middle" x="461.75" y="-95.84" font-family="Helvetica,sans-Serif" font-size="10.00" fill="grey"> zone_mgmt</text>
</g>
<!-- Node49&#45;&gt;Node1 -->
<g id="edge18_Node000001_Node000049" class="edge">
<title>Node49&#45;&gt;Node1</title>
<g id="a_edge18_Node000001_Node000049"><a xlink:title=" ">
<path fill="none" stroke="#9a32cd" stroke-dasharray="5,2" d="M1347.39,-44.92C1302.18,-26.02 1231.3,-1.59 1166.88,-1.59 801.25,-1.59 801.25,-1.59 801.25,-1.59 718.99,-1.59 686.94,10.51 619.5,-36.59 588.4,-58.31 571.01,-102.42 564.34,-122.81"/>
<polygon fill="#9a32cd" stroke="#9a32cd" points="1345.79,-48.04 1356.36,-48.75 1348.54,-41.61 1345.79,-48.04"/>
</a>
</g>
<text text-anchor="middle" x="994.75" y="-4.84" font-family="Helvetica,sans-Serif" font-size="10.00" fill="grey"> internal</text>
</g>
<!-- Node50 -->
<g id="Node000050" class="node">
<title>Node50</title>
<g id="a_Node000050"><a xlink:href="structspdk__iobuf__entry.html" target="_top" xlink:title="iobuf queue entry">
<polygon fill="white" stroke="#666666" points="1215.88,-137.97 1115.88,-137.97 1115.88,-117.22 1215.88,-117.22 1215.88,-137.97"/>
<text text-anchor="middle" x="1165.88" y="-124.47" font-family="Helvetica,sans-Serif" font-size="10.00">spdk_iobuf_entry</text>
</a>
</g>
</g>
<!-- Node50&#45;&gt;Node49 -->
<g id="edge20_Node000049_Node000050" class="edge">
<title>Node50&#45;&gt;Node49</title>
<g id="a_edge20_Node000049_Node000050"><a xlink:title=" ">
<path fill="none" stroke="#9a32cd" stroke-dasharray="5,2" d="M1227.36,-116.41C1254.25,-110.94 1286.17,-103.77 1314.5,-95.59 1326.25,-92.2 1338.76,-87.96 1350.31,-83.78"/>
<polygon fill="#9a32cd" stroke="#9a32cd" points="1226.77,-112.96 1217.65,-118.35 1228.14,-119.82 1226.77,-112.96"/>
</a>
</g>
<text text-anchor="middle" x="1284.12" y="-113.84" font-family="Helvetica,sans-Serif" font-size="10.00" fill="grey"> iobuf</text>
</g>
<!-- Node50&#45;&gt;Node50 -->
<g id="edge21_Node000050_Node000050" class="edge">
<title>Node50&#45;&gt;Node50</title>
<g id="a_edge21_Node000050_Node000050"><a xlink:title=" ">
<path fill="none" stroke="#9a32cd" stroke-dasharray="5,2" d="M1148.25,-149.78C1150.74,-153.45 1156.62,-155.97 1165.88,-155.97 1183.3,-155.97 1188.74,-147.03 1182.21,-138.37"/>
<polygon fill="#9a32cd" stroke="#9a32cd" points="1151.72,-150.2 1149.37,-139.87 1144.77,-149.41 1151.72,-150.2"/>
</a>
</g>
<text text-anchor="middle" x="1165.88" y="-159.22" font-family="Helvetica,sans-Serif" font-size="10.00" fill="grey"> cb_fn</text>
</g>
<!-- Node51&#45;&gt;Node49 -->
<g id="edge22_Node000049_Node000051" class="edge">
<title>Node51&#45;&gt;Node49</title>
<g id="a_edge22_Node000049_Node000051"><a xlink:title=" ">
<path fill="none" stroke="#9a32cd" stroke-dasharray="5,2" d="M1247.33,-80.81C1275.15,-78.12 1305.87,-75.15 1332,-72.62"/>
<polygon fill="#9a32cd" stroke="#9a32cd" points="1247.14,-77.31 1237.53,-81.76 1247.82,-84.28 1247.14,-77.31"/>
</a>
</g>
<text text-anchor="middle" x="1284.12" y="-81.84" font-family="Helvetica,sans-Serif" font-size="10.00" fill="grey"> waitq_entry</text>
</g>
</g>
</svg>
