<?xml version="1.0" encoding="UTF-8" standalone="no"?>
<!DOCTYPE svg PUBLIC "-//W3C//DTD SVG 1.1//EN"
 "http://www.w3.org/Graphics/SVG/1.1/DTD/svg11.dtd">
<!-- Generated by graphviz version 9.0.0 (20230911.1827)
 -->
<!-- Title: spdk_bdev::__bdev_internal_fields Pages: 1 -->
<!--zoomable 331 -->

<svg id="main" version="1.1" xmlns="http://www.w3.org/2000/svg" xmlns:xlink="http://www.w3.org/1999/xlink" xml:space="preserve" onload="init(evt)">
<style type="text/css"><![CDATA[
.node, .edge {opacity: 0.7;}
.node.selected, .edge.selected {opacity: 1;}
.edge:hover path { stroke: red; }
.edge:hover polygon { stroke: red; fill: red; }
]]></style>

<defs>
  <circle id="rim" cx="0" cy="0" r="7"/>
  <circle id="rim2" cx="0" cy="0" r="3.5"/>
  <g id="zoomPlus">
    <use xlink:href="#rim" fill="#404040"><set attributeName="fill" to="#808080" begin="zoomplus.mouseover" end="zoomplus.mouseout"/></use>
    <path d="M-4,0h8M0,-4v8" fill="none" stroke="white" stroke-width="1.5" pointer-events="none"/>
  </g>
  <g id="zoomMin">
    <use xlink:href="#rim" fill="#404040"><set attributeName="fill" to="#808080" begin="zoomminus.mouseover" end="zoomminus.mouseout"/></use>
    <path d="M-4,0h8" fill="none" stroke="white" stroke-width="1.5" pointer-events="none"/>
  </g>
  <g id="arrowUp" transform="translate(30 24)">
    <use xlink:href="#rim"/>
    <path pointer-events="none" fill="none" stroke="white" stroke-width="1.5" d="M0,-3.0v7 M-2.5,-0.5L0,-3.0L2.5,-0.5"/>
  </g>
  <g id="arrowRight" transform="rotate(90) translate(36 -43)">
    <use xlink:href="#rim"/>
    <path pointer-events="none" fill="none" stroke="white" stroke-width="1.5" d="M0,-3.0v7 M-2.5,-0.5L0,-3.0L2.5,-0.5"/>
  </g>
  <g id="arrowDown" transform="rotate(180) translate(-30 -48)">
    <use xlink:href="#rim"/>
    <path pointer-events="none" fill="none" stroke="white" stroke-width="1.5" d="M0,-3.0v7 M-2.5,-0.5L0,-3.0L2.5,-0.5"/>
  </g>
  <g id="arrowLeft" transform="rotate(270) translate(-36 17)">
    <use xlink:href="#rim"/>
    <path pointer-events="none" fill="none" stroke="white" stroke-width="1.5" d="M0,-3.0v7 M-2.5,-0.5L0,-3.0L2.5,-0.5"/>
  </g>
  <g id="resetDef">
    <use xlink:href="#rim2" fill="#404040"><set attributeName="fill" to="#808080" begin="reset.mouseover" end="reset.mouseout"/></use>
  </g>
</defs>
<script type="application/ecmascript">
var viewWidth = 1327;
var viewHeight = 331;
var sectionId = 'dynsection-0';
</script>
<script type="application/ecmascript" xlink:href="svg.min.js"/>
<svg id="graph" class="graph">
<g id="viewport">
<title>spdk_bdev::__bdev_internal_fields</title>
<!-- Node1 -->
<g id="Node000001" class="node">
<title>Node1</title>
<g id="a_Node000001"><a xlink:title="Fields that are used internally by the bdev subsystem.">
<polygon fill="#999999" stroke="#666666" points="625.5,-72.12 474.5,-72.12 474.5,-38.62 625.5,-38.62 625.5,-72.12"/>
<text text-anchor="start" x="482.5" y="-58.62" font-family="Helvetica,sans-Serif" font-size="10.00">spdk_bdev::__bdev_internal</text>
<text text-anchor="middle" x="550" y="-45.88" font-family="Helvetica,sans-Serif" font-size="10.00">_fields</text>
</a>
</g>
</g>
<!-- Node7 -->
<g id="Node000007" class="node">
<title>Node7</title>
<g id="a_Node000007"><a xlink:href="structspdk__bdev.html" target="_top" xlink:title=" ">
<polygon fill="white" stroke="orangered" points="817.75,-65.75 749.25,-65.75 749.25,-45 817.75,-45 817.75,-65.75"/>
<text text-anchor="middle" x="783.5" y="-52.25" font-family="Helvetica,sans-Serif" font-size="10.00">spdk_bdev</text>
</a>
</g>
</g>
<!-- Node1&#45;&gt;Node7 -->
<g id="edge7_Node000007_Node000001" class="edge">
<title>Node1&#45;&gt;Node7</title>
<g id="a_edge7_Node000007_Node000001"><a xlink:title=" ">
<path fill="none" stroke="#9a32cd" stroke-dasharray="5,2" d="M637.2,-55.38C676.08,-55.38 719.73,-55.38 748.95,-55.38"/>
<polygon fill="#9a32cd" stroke="#9a32cd" points="637.36,-51.88 627.36,-55.38 637.36,-58.88 637.36,-51.88"/>
</a>
</g>
<text text-anchor="middle" x="663.75" y="-58.62" font-family="Helvetica,sans-Serif" font-size="10.00" fill="grey"> internal</text>
</g>
<!-- Node2 -->
<g id="Node000002" class="node">
<title>Node2</title>
<g id="a_Node000002"><a xlink:href="structspdk__spinlock.html" target="_top" xlink:title="A spinlock augmented with safety checks for use with SPDK.">
<polygon fill="white" stroke="#666666" points="356,-110.75 271,-110.75 271,-90 356,-90 356,-110.75"/>
<text text-anchor="middle" x="313.5" y="-97.25" font-family="Helvetica,sans-Serif" font-size="10.00">spdk_spinlock</text>
</a>
</g>
</g>
<!-- Node2&#45;&gt;Node1 -->
<g id="edge1_Node000001_Node000002" class="edge">
<title>Node2&#45;&gt;Node1</title>
<g id="a_edge1_Node000001_Node000002"><a xlink:title=" ">
<path fill="none" stroke="#9a32cd" stroke-dasharray="5,2" d="M367.6,-90.18C399.12,-84.14 439.56,-76.38 474.26,-69.72"/>
<polygon fill="#9a32cd" stroke="#9a32cd" points="367.07,-86.72 357.91,-92.04 368.39,-93.6 367.07,-86.72"/>
</a>
</g>
<text text-anchor="middle" x="434.75" y="-83.62" font-family="Helvetica,sans-Serif" font-size="10.00" fill="grey"> spinlock</text>
</g>
<!-- Node3 -->
<g id="Node000003" class="node">
<title>Node3</title>
<g id="a_Node000003"><a xlink:href="unionspdk__bdev_1_1____bdev__internal__fields_1_1____bdev__internal__claim.html" target="_top" xlink:title="Which module has claimed this bdev.">
<polygon fill="white" stroke="#666666" points="395,-72.12 232,-72.12 232,-38.62 395,-38.62 395,-72.12"/>
<text text-anchor="start" x="240" y="-58.62" font-family="Helvetica,sans-Serif" font-size="10.00">spdk_bdev::__bdev_internal</text>
<text text-anchor="middle" x="313.5" y="-45.88" font-family="Helvetica,sans-Serif" font-size="10.00">_fields::__bdev_internal_claim</text>
</a>
</g>
</g>
<!-- Node3&#45;&gt;Node1 -->
<g id="edge2_Node000001_Node000003" class="edge">
<title>Node3&#45;&gt;Node1</title>
<g id="a_edge2_Node000001_Node000003"><a xlink:title=" ">
<path fill="none" stroke="#9a32cd" stroke-dasharray="5,2" d="M406.43,-55.38C428.84,-55.38 452.55,-55.38 474.06,-55.38"/>
<polygon fill="#9a32cd" stroke="#9a32cd" points="406.72,-51.88 396.72,-55.38 406.72,-58.88 406.72,-51.88"/>
</a>
</g>
<text text-anchor="middle" x="434.75" y="-58.62" font-family="Helvetica,sans-Serif" font-size="10.00" fill="grey"> claim</text>
</g>
<!-- Node4 -->
<g id="Node000004" class="node">
<title>Node4</title>
<g id="a_Node000004"><a xlink:href="structspdk__bdev_1_1____bdev__internal__fields_1_1____bdev__internal__claim_1_1____bdev__internal__claim__v1.html" target="_top" xlink:title="Claims acquired with spdk_bdev_module_claim_bdev()">
<polygon fill="white" stroke="#666666" points="181,-110.5 0,-110.5 0,-64.25 181,-64.25 181,-110.5"/>
<text text-anchor="start" x="8" y="-97" font-family="Helvetica,sans-Serif" font-size="10.00">spdk_bdev::__bdev_internal</text>
<text text-anchor="start" x="8" y="-84.25" font-family="Helvetica,sans-Serif" font-size="10.00">_fields::__bdev_internal</text>
<text text-anchor="middle" x="90.5" y="-71.5" font-family="Helvetica,sans-Serif" font-size="10.00">_claim::__bdev_internal_claim_v1</text>
</a>
</g>
</g>
<!-- Node4&#45;&gt;Node3 -->
<g id="edge3_Node000003_Node000004" class="edge">
<title>Node4&#45;&gt;Node3</title>
<g id="a_edge3_Node000003_Node000004"><a xlink:title=" ">
<path fill="none" stroke="#9a32cd" stroke-dasharray="5,2" d="M192.76,-72.71C205.77,-70.83 218.95,-68.92 231.58,-67.09"/>
<polygon fill="#9a32cd" stroke="#9a32cd" points="192.28,-69.25 182.89,-74.14 193.29,-76.17 192.28,-69.25"/>
</a>
</g>
<text text-anchor="middle" x="206.5" y="-74.62" font-family="Helvetica,sans-Serif" font-size="10.00" fill="grey"> v1</text>
</g>
<!-- Node5 -->
<g id="Node000005" class="node">
<title>Node5</title>
<g id="a_Node000005"><a xlink:href="structspdk__bdev_1_1____bdev__internal__fields_1_1____bdev__internal__claim_1_1____bdev__internal__claim__v2.html" target="_top" xlink:title="Claims acquired with spdk_bdev_module_claim_bdev_desc()">
<polygon fill="white" stroke="#666666" points="181,-46.5 0,-46.5 0,-0.25 181,-0.25 181,-46.5"/>
<text text-anchor="start" x="8" y="-33" font-family="Helvetica,sans-Serif" font-size="10.00">spdk_bdev::__bdev_internal</text>
<text text-anchor="start" x="8" y="-20.25" font-family="Helvetica,sans-Serif" font-size="10.00">_fields::__bdev_internal</text>
<text text-anchor="middle" x="90.5" y="-7.5" font-family="Helvetica,sans-Serif" font-size="10.00">_claim::__bdev_internal_claim_v2</text>
</a>
</g>
</g>
<!-- Node5&#45;&gt;Node3 -->
<g id="edge4_Node000003_Node000005" class="edge">
<title>Node5&#45;&gt;Node3</title>
<g id="a_edge4_Node000003_Node000005"><a xlink:title=" ">
<path fill="none" stroke="#9a32cd" stroke-dasharray="5,2" d="M192.76,-38.04C205.77,-39.92 218.95,-41.83 231.58,-43.66"/>
<polygon fill="#9a32cd" stroke="#9a32cd" points="193.29,-34.58 182.89,-36.61 192.28,-41.5 193.29,-34.58"/>
</a>
</g>
<text text-anchor="middle" x="206.5" y="-42.62" font-family="Helvetica,sans-Serif" font-size="10.00" fill="grey"> v2</text>
</g>
<!-- Node6 -->
<g id="Node000006" class="node">
<title>Node6</title>
<g id="a_Node000006"><a xlink:href="structspdk__bdev__io.html" target="_top" xlink:title=" ">
<polygon fill="white" stroke="#bfbfbf" points="1071.12,-190.75 988.38,-190.75 988.38,-170 1071.12,-170 1071.12,-190.75"/>
<text text-anchor="middle" x="1029.75" y="-177.25" font-family="Helvetica,sans-Serif" font-size="10.00">spdk_bdev_io</text>
</a>
</g>
</g>
<!-- Node6&#45;&gt;Node1 -->
<g id="edge5_Node000001_Node000006" class="edge">
<title>Node6&#45;&gt;Node1</title>
<g id="a_edge5_Node000001_Node000006"><a xlink:title=" ">
<path fill="none" stroke="#9a32cd" stroke-dasharray="5,2" d="M977.08,-191.31C910.83,-202.89 793.57,-215.04 702,-179.38 642.89,-156.36 589.56,-100.8 565.11,-72.53"/>
<polygon fill="#9a32cd" stroke="#9a32cd" points="977.35,-194.82 986.56,-189.59 976.1,-187.93 977.35,-194.82"/>
</a>
</g>
<text text-anchor="middle" x="783.5" y="-205.62" font-family="Helvetica,sans-Serif" font-size="10.00" fill="grey"> reset_in_progress</text>
</g>
<!-- Node18 -->
<g id="Node000018" class="node">
<title>Node18</title>
<g id="a_Node000018"><a xlink:href="structspdk__bdev__io__abort__params.html" target="_top" xlink:title=" ">
<polygon fill="white" stroke="#bfbfbf" points="1312.5,-252.12 1199,-252.12 1199,-218.62 1312.5,-218.62 1312.5,-252.12"/>
<text text-anchor="start" x="1207" y="-238.62" font-family="Helvetica,sans-Serif" font-size="10.00">spdk_bdev_io_abort</text>
<text text-anchor="middle" x="1255.75" y="-225.88" font-family="Helvetica,sans-Serif" font-size="10.00">_params</text>
</a>
</g>
</g>
<!-- Node6&#45;&gt;Node18 -->
<g id="edge11_Node000018_Node000006" class="edge">
<title>Node6&#45;&gt;Node18</title>
<g id="a_edge11_Node000018_Node000006"><a xlink:title=" ">
<path fill="none" stroke="#9a32cd" stroke-dasharray="5,2" d="M1048.77,-198.94C1061.44,-210.64 1079.48,-224.75 1098.5,-231.38 1130.4,-242.5 1168.23,-243.75 1198.67,-242.1"/>
<polygon fill="#9a32cd" stroke="#9a32cd" points="1051.26,-196.48 1041.64,-192.04 1046.39,-201.51 1051.26,-196.48"/>
</a>
</g>
<text text-anchor="middle" x="1136.75" y="-245.62" font-family="Helvetica,sans-Serif" font-size="10.00" fill="grey"> bio_to_abort</text>
</g>
<!-- Node47 -->
<g id="Node000047" class="node">
<title>Node47</title>
<g id="a_Node000047"><a xlink:href="structspdk__bdev__io__internal__fields.html" target="_top" xlink:title="Fields that are used internally by the bdev subsystem.">
<polygon fill="#fff0f0" stroke="red" points="1318.5,-142.12 1193,-142.12 1193,-108.62 1318.5,-108.62 1318.5,-142.12"/>
<text text-anchor="start" x="1201" y="-128.62" font-family="Helvetica,sans-Serif" font-size="10.00">spdk_bdev_io_internal</text>
<text text-anchor="middle" x="1255.75" y="-115.88" font-family="Helvetica,sans-Serif" font-size="10.00">_fields</text>
</a>
</g>
</g>
<!-- Node6&#45;&gt;Node47 -->
<g id="edge15_Node000047_Node000006" class="edge">
<title>Node6&#45;&gt;Node47</title>
<g id="a_edge15_Node000047_Node000006"><a xlink:title=" ">
<path fill="none" stroke="#9a32cd" stroke-dasharray="5,2" d="M1055.38,-163.38C1067.77,-155.67 1083.35,-147.22 1098.5,-142.38 1128.65,-132.73 1163.55,-128.33 1192.72,-126.41"/>
<polygon fill="#9a32cd" stroke="#9a32cd" points="1053.57,-160.38 1047.08,-168.75 1057.37,-166.26 1053.57,-160.38"/>
</a>
</g>
<text text-anchor="middle" x="1136.75" y="-183.88" font-family="Helvetica,sans-Serif" font-size="10.00" fill="grey"> cb</text>
<text text-anchor="middle" x="1136.75" y="-171.12" font-family="Helvetica,sans-Serif" font-size="10.00" fill="grey">get_aux_buf_cb</text>
<text text-anchor="middle" x="1136.75" y="-158.38" font-family="Helvetica,sans-Serif" font-size="10.00" fill="grey">get_buf_cb</text>
<text text-anchor="middle" x="1136.75" y="-145.62" font-family="Helvetica,sans-Serif" font-size="10.00" fill="grey">stored_user_cb</text>
</g>
<!-- Node7&#45;&gt;Node6 -->
<g id="edge6_Node000006_Node000007" class="edge">
<title>Node7&#45;&gt;Node6</title>
<g id="a_edge6_Node000006_Node000007"><a xlink:title=" ">
<path fill="none" stroke="#9a32cd" stroke-dasharray="5,2" d="M829.18,-61.09C866.75,-67.52 920.62,-80.67 961,-106.62 987.62,-123.73 1010.63,-153.79 1021.71,-169.74"/>
<polygon fill="#9a32cd" stroke="#9a32cd" points="830.01,-57.68 819.58,-59.55 828.9,-64.59 830.01,-57.68"/>
</a>
</g>
<text text-anchor="middle" x="922" y="-109.62" font-family="Helvetica,sans-Serif" font-size="10.00" fill="grey"> bdev</text>
</g>
<!-- Node51 -->
<g id="Node000051" class="node">
<title>Node51</title>
<g id="a_Node000051"><a xlink:href="structspdk__bdev__name.html" target="_top" xlink:title=" ">
<polygon fill="white" stroke="#bfbfbf" points="1080.5,-40.75 979,-40.75 979,-20 1080.5,-20 1080.5,-40.75"/>
<text text-anchor="middle" x="1029.75" y="-27.25" font-family="Helvetica,sans-Serif" font-size="10.00">spdk_bdev_name</text>
</a>
</g>
</g>
<!-- Node7&#45;&gt;Node51 -->
<g id="edge18_Node000051_Node000007" class="edge">
<title>Node7&#45;&gt;Node51</title>
<g id="a_edge18_Node000051_Node000007"><a xlink:title=" ">
<path fill="none" stroke="#9a32cd" stroke-dasharray="5,2" d="M829.56,-50.76C871.88,-46.43 935.08,-39.96 978.9,-35.48"/>
<polygon fill="#9a32cd" stroke="#9a32cd" points="829.3,-47.27 819.71,-51.77 830.02,-54.23 829.3,-47.27"/>
</a>
</g>
<text text-anchor="middle" x="922" y="-47.62" font-family="Helvetica,sans-Serif" font-size="10.00" fill="grey"> bdev</text>
</g>
<!-- Node12 -->
<g id="Node000012" class="node">
<title>Node12</title>
<g id="a_Node000012"><a xlink:href="structspdk__bdev__io__block__params.html" target="_top" xlink:title=" ">
<polygon fill="white" stroke="orangered" points="840.62,-170.12 726.38,-170.12 726.38,-136.62 840.62,-136.62 840.62,-170.12"/>
<text text-anchor="start" x="734.38" y="-156.62" font-family="Helvetica,sans-Serif" font-size="10.00">spdk_bdev_io_block</text>
<text text-anchor="middle" x="783.5" y="-143.88" font-family="Helvetica,sans-Serif" font-size="10.00">_params</text>
</a>
</g>
</g>
<!-- Node12&#45;&gt;Node6 -->
<g id="edge8_Node000006_Node000012" class="edge">
<title>Node12&#45;&gt;Node6</title>
<g id="a_edge8_Node000006_Node000012"><a xlink:title=" ">
<path fill="none" stroke="#9a32cd" stroke-dasharray="5,2" d="M852.22,-160.86C895.79,-165.68 950.97,-171.78 987.94,-175.86"/>
<polygon fill="#9a32cd" stroke="#9a32cd" points="852.67,-157.39 842.35,-159.77 851.9,-164.35 852.67,-157.39"/>
</a>
</g>
<text text-anchor="middle" x="922" y="-175.62" font-family="Helvetica,sans-Serif" font-size="10.00" fill="grey"> bdev</text>
</g>
<!-- Node17 -->
<g id="Node000017" class="node">
<title>Node17</title>
<g id="a_Node000017"><a xlink:href="structspdk__bdev__io__reset__params.html" target="_top" xlink:title=" ">
<polygon fill="white" stroke="#bfbfbf" points="839.88,-118.12 727.12,-118.12 727.12,-84.62 839.88,-84.62 839.88,-118.12"/>
<text text-anchor="start" x="735.12" y="-104.62" font-family="Helvetica,sans-Serif" font-size="10.00">spdk_bdev_io_reset</text>
<text text-anchor="middle" x="783.5" y="-91.88" font-family="Helvetica,sans-Serif" font-size="10.00">_params</text>
</a>
</g>
</g>
<!-- Node17&#45;&gt;Node6 -->
<g id="edge9_Node000006_Node000017" class="edge">
<title>Node17&#45;&gt;Node6</title>
<g id="a_edge9_Node000006_Node000017"><a xlink:title=" ">
<path fill="none" stroke="#9a32cd" stroke-dasharray="5,2" d="M851.24,-115.63C884.67,-123.58 925.49,-134.53 961,-147.62 977.67,-153.77 995.75,-162.63 1009.04,-169.59"/>
<polygon fill="#9a32cd" stroke="#9a32cd" points="852.21,-112.26 841.68,-113.4 850.62,-119.08 852.21,-112.26"/>
</a>
</g>
<text text-anchor="middle" x="922" y="-150.62" font-family="Helvetica,sans-Serif" font-size="10.00" fill="grey"> reset</text>
</g>
<!-- Node18&#45;&gt;Node6 -->
<g id="edge10_Node000006_Node000018" class="edge">
<title>Node18&#45;&gt;Node6</title>
<g id="a_edge10_Node000006_Node000018"><a xlink:title=" ">
<path fill="none" stroke="#9a32cd" stroke-dasharray="5,2" d="M1187.68,-218.91C1149.91,-209.63 1103.96,-198.35 1071.57,-190.4"/>
<polygon fill="#9a32cd" stroke="#9a32cd" points="1186.59,-222.24 1197.14,-221.23 1188.26,-215.45 1186.59,-222.24"/>
</a>
</g>
<text text-anchor="middle" x="1136.75" y="-217.62" font-family="Helvetica,sans-Serif" font-size="10.00" fill="grey"> abort</text>
</g>
<!-- Node19 -->
<g id="Node000019" class="node">
<title>Node19</title>
<g id="a_Node000019"><a xlink:href="structspdk__bdev__io__nvme__passthru__params.html" target="_top" xlink:title=" ">
<polygon fill="white" stroke="orangered" points="865,-323.12 702,-323.12 702,-289.62 865,-289.62 865,-323.12"/>
<text text-anchor="start" x="710" y="-309.62" font-family="Helvetica,sans-Serif" font-size="10.00">spdk_bdev_io_nvme_passthru</text>
<text text-anchor="middle" x="783.5" y="-296.88" font-family="Helvetica,sans-Serif" font-size="10.00">_params</text>
</a>
</g>
</g>
<!-- Node19&#45;&gt;Node6 -->
<g id="edge12_Node000006_Node000019" class="edge">
<title>Node19&#45;&gt;Node6</title>
<g id="a_edge12_Node000006_Node000019"><a xlink:title=" ">
<path fill="none" stroke="#9a32cd" stroke-dasharray="5,2" d="M876.26,-291.52C904.87,-284.18 935.56,-273.33 961,-257.38 988.76,-239.97 1011.61,-207.81 1022.27,-191.09"/>
<polygon fill="#9a32cd" stroke="#9a32cd" points="875.77,-288.04 866.89,-293.81 877.43,-294.84 875.77,-288.04"/>
</a>
</g>
<text text-anchor="middle" x="922" y="-292.62" font-family="Helvetica,sans-Serif" font-size="10.00" fill="grey"> nvme_passthru</text>
</g>
<!-- Node46 -->
<g id="Node000046" class="node">
<title>Node46</title>
<g id="a_Node000046"><a xlink:href="structspdk__bdev__io__zone__mgmt__params.html" target="_top" xlink:title=" ">
<polygon fill="white" stroke="#bfbfbf" points="856.38,-271.12 710.62,-271.12 710.62,-237.62 856.38,-237.62 856.38,-271.12"/>
<text text-anchor="start" x="718.62" y="-257.62" font-family="Helvetica,sans-Serif" font-size="10.00">spdk_bdev_io_zone_mgmt</text>
<text text-anchor="middle" x="783.5" y="-244.88" font-family="Helvetica,sans-Serif" font-size="10.00">_params</text>
</a>
</g>
</g>
<!-- Node46&#45;&gt;Node6 -->
<g id="edge13_Node000006_Node000046" class="edge">
<title>Node46&#45;&gt;Node6</title>
<g id="a_edge13_Node000006_Node000046"><a xlink:title=" ">
<path fill="none" stroke="#9a32cd" stroke-dasharray="5,2" d="M867.76,-244.36C897.77,-239.19 931.5,-231.54 961,-220.38 980.42,-213.03 1000.66,-200.3 1013.9,-191.18"/>
<polygon fill="#9a32cd" stroke="#9a32cd" points="867.25,-240.9 857.95,-245.97 868.39,-247.8 867.25,-240.9"/>
</a>
</g>
<text text-anchor="middle" x="922" y="-243.62" font-family="Helvetica,sans-Serif" font-size="10.00" fill="grey"> zone_mgmt</text>
</g>
<!-- Node47&#45;&gt;Node6 -->
<g id="edge14_Node000006_Node000047" class="edge">
<title>Node47&#45;&gt;Node6</title>
<g id="a_edge14_Node000006_Node000047"><a xlink:title=" ">
<path fill="none" stroke="#9a32cd" stroke-dasharray="5,2" d="M1195.94,-105.51C1165.72,-98.61 1128.96,-95.49 1098.5,-108.62 1069.55,-121.1 1047.22,-152.71 1036.94,-169.5"/>
<polygon fill="#9a32cd" stroke="#9a32cd" points="1194.73,-108.81 1205.28,-107.83 1196.42,-102.02 1194.73,-108.81"/>
</a>
</g>
<text text-anchor="middle" x="1136.75" y="-111.62" font-family="Helvetica,sans-Serif" font-size="10.00" fill="grey"> internal</text>
</g>
<!-- Node50 -->
<g id="Node000050" class="node">
<title>Node50</title>
<g id="a_Node000050"><a xlink:href="structspdk__bdev__io__stat.html" target="_top" xlink:title=" ">
<polygon fill="white" stroke="#bfbfbf" points="366.88,-20.75 260.12,-20.75 260.12,0 366.88,0 366.88,-20.75"/>
<text text-anchor="middle" x="313.5" y="-7.25" font-family="Helvetica,sans-Serif" font-size="10.00">spdk_bdev_io_stat</text>
</a>
</g>
</g>
<!-- Node50&#45;&gt;Node1 -->
<g id="edge16_Node000001_Node000050" class="edge">
<title>Node50&#45;&gt;Node1</title>
<g id="a_edge16_Node000001_Node000050"><a xlink:title=" ">
<path fill="none" stroke="#9a32cd" stroke-dasharray="5,2" d="M378.19,-22.6C407.87,-28.29 443.38,-35.11 474.32,-41.04"/>
<polygon fill="#9a32cd" stroke="#9a32cd" points="379.09,-19.21 368.61,-20.76 377.77,-26.08 379.09,-19.21"/>
</a>
</g>
<text text-anchor="middle" x="434.75" y="-39.62" font-family="Helvetica,sans-Serif" font-size="10.00" fill="grey"> stat</text>
</g>
<!-- Node51&#45;&gt;Node1 -->
<g id="edge17_Node000001_Node000051" class="edge">
<title>Node51&#45;&gt;Node1</title>
<g id="a_edge17_Node000001_Node000051"><a xlink:title=" ">
<path fill="none" stroke="#9a32cd" stroke-dasharray="5,2" d="M967.38,-24.58C901.57,-19.42 794.1,-14.05 702,-23.62 674.29,-26.51 644.17,-32.29 618.18,-38.14"/>
<polygon fill="#9a32cd" stroke="#9a32cd" points="967.01,-28.06 977.26,-25.38 967.58,-21.09 967.01,-28.06"/>
</a>
</g>
<text text-anchor="middle" x="783.5" y="-26.62" font-family="Helvetica,sans-Serif" font-size="10.00" fill="grey"> bdev_name</text>
</g>
</g>
</svg>

<g id="navigator" transform="translate(0 0)" fill="#404254">
  <rect fill="#f2f5e9" fill-opacity="0.5" stroke="#606060" stroke-width=".5" x="0" y="0" width="60" height="60"/>
  <use id="zoomplus" xlink:href="#zoomPlus" x="17" y="9" onmousedown="handleZoom(evt,'in')"/>
  <use id="zoomminus" xlink:href="#zoomMin" x="42" y="9" onmousedown="handleZoom(evt,'out')"/>
  <use id="reset" xlink:href="#resetDef" x="30" y="36" onmousedown="handleReset()"/>
   <use id="arrowup" xlink:href="#arrowUp" x="0" y="0" onmousedown="handlePan(0,-1)"/>
  <use id="arrowright" xlink:href="#arrowRight" x="0" y="0" onmousedown="handlePan(1,0)"/>
  <use id="arrowdown" xlink:href="#arrowDown" x="0" y="0" onmousedown="handlePan(0,1)"/>
  <use id="arrowleft" xlink:href="#arrowLeft" x="0" y="0" onmousedown="handlePan(-1,0)"/>
</g>
<svg viewBox="0 0 15 15" width="100%" height="30px" preserveAspectRatio="xMaxYMin meet">
 <g id="arrow_out" transform="scale(0.3 0.3)">
  <a xlink:href="structspdk__bdev_1_1____bdev__internal__fields__coll__graph_org.svg" target="_base">
   <rect id="button" ry="5" rx="5" y="6" x="6" height="38" width="38"
        fill="#f2f5e9" fill-opacity="0.5" stroke="#606060" stroke-width="1.0"/>
   <path id="arrow"
     d="M 11.500037,31.436501 C 11.940474,20.09759 22.043105,11.32322 32.158766,21.979434 L 37.068811,17.246167 C 37.068811,17.246167 37.088388,32 37.088388,32 L 22.160133,31.978069 C 22.160133,31.978069 26.997745,27.140456 26.997745,27.140456 C 18.528582,18.264221 13.291696,25.230495 11.500037,31.436501 z"
     style="fill:#404040;"/>
  </a>
 </g>
</svg>

<style type='text/css'>
<![CDATA[
[data-mouse-over-selected='false'] { opacity: 0.7; }
[data-mouse-over-selected='true']  { opacity: 1.0; }
]]>
</style>
<script type="application/ecmascript"><![CDATA[
document.addEventListener('DOMContentLoaded', (event) => {
  highlightEdges();
  highlightAdjacentNodes();
});
]]></script>
</svg>
