<?xml version="1.0" encoding="UTF-8" standalone="no"?>
<!DOCTYPE svg PUBLIC "-//W3C//DTD SVG 1.1//EN"
 "http://www.w3.org/Graphics/SVG/1.1/DTD/svg11.dtd">
<!-- Generated by graphviz version 9.0.0 (20230911.1827)
 -->
<!-- Title: spdk_bdev_io_wait_entry Pages: 1 -->
<svg width="522pt" height="181pt"
 viewBox="0.00 0.00 522.25 180.50" xmlns="http://www.w3.org/2000/svg" xmlns:xlink="http://www.w3.org/1999/xlink">
<g id="graph0" class="graph" transform="scale(1 1) rotate(0) translate(4 176.5)">
<title>spdk_bdev_io_wait_entry</title>
<!-- Node1 -->
<g id="Node000001" class="node">
<title>Node1</title>
<g id="a_Node000001"><a xlink:title="Structure to register a callback when an spdk_bdev_io becomes available.">
<polygon fill="#999999" stroke="#666666" points="289.62,-20.75 149.88,-20.75 149.88,0 289.62,0 289.62,-20.75"/>
<text text-anchor="middle" x="219.75" y="-7.25" font-family="Helvetica,sans-Serif" font-size="10.00">spdk_bdev_io_wait_entry</text>
</a>
</g>
</g>
<!-- Node2 -->
<g id="Node000002" class="node">
<title>Node2</title>
<g id="a_Node000002"><a xlink:href="structspdk__bdev.html" target="_top" xlink:title=" ">
<polygon fill="white" stroke="#bfbfbf" points="254,-90.25 185.5,-90.25 185.5,-69.5 254,-69.5 254,-90.25"/>
<text text-anchor="middle" x="219.75" y="-76.75" font-family="Helvetica,sans-Serif" font-size="10.00">spdk_bdev</text>
</a>
</g>
</g>
<!-- Node2&#45;&gt;Node1 -->
<g id="edge1_Node000001_Node000002" class="edge">
<title>Node2&#45;&gt;Node1</title>
<g id="a_edge1_Node000001_Node000002"><a xlink:title=" ">
<path fill="none" stroke="#9a32cd" stroke-dasharray="5,2" d="M219.75,-58.07C219.75,-45.72 219.75,-30.65 219.75,-21.03"/>
<polygon fill="#9a32cd" stroke="#9a32cd" points="216.25,-57.69 219.75,-67.69 223.25,-57.69 216.25,-57.69"/>
</a>
</g>
<text text-anchor="middle" x="233.25" y="-42" font-family="Helvetica,sans-Serif" font-size="10.00" fill="grey"> bdev</text>
</g>
<!-- Node3 -->
<g id="Node000003" class="node">
<title>Node3</title>
<g id="a_Node000003"><a xlink:href="structspdk__uuid.html" target="_top" xlink:title=" ">
<polygon fill="white" stroke="#bfbfbf" points="65.5,-166.12 0,-166.12 0,-145.38 65.5,-145.38 65.5,-166.12"/>
<text text-anchor="middle" x="32.75" y="-152.62" font-family="Helvetica,sans-Serif" font-size="10.00">spdk_uuid</text>
</a>
</g>
</g>
<!-- Node3&#45;&gt;Node2 -->
<g id="edge2_Node000002_Node000003" class="edge">
<title>Node3&#45;&gt;Node2</title>
<g id="a_edge2_Node000002_Node000003"><a xlink:title=" ">
<path fill="none" stroke="#9a32cd" stroke-dasharray="5,2" d="M67.9,-140.86C104.9,-126.25 162.21,-103.61 194.82,-90.73"/>
<polygon fill="#9a32cd" stroke="#9a32cd" points="67,-137.45 58.99,-144.38 69.58,-143.96 67,-137.45"/>
</a>
</g>
<text text-anchor="middle" x="160.75" y="-111.5" font-family="Helvetica,sans-Serif" font-size="10.00" fill="grey"> uuid</text>
</g>
<!-- Node4 -->
<g id="Node000004" class="node">
<title>Node4</title>
<g id="a_Node000004"><a xlink:href="unionspdk__bdev__nvme__ctratt.html" target="_top" xlink:title="Union for controller attributes field, to list whether bdev supports fdp etc.">
<polygon fill="white" stroke="#666666" points="216.25,-166.12 83.25,-166.12 83.25,-145.38 216.25,-145.38 216.25,-166.12"/>
<text text-anchor="middle" x="149.75" y="-152.62" font-family="Helvetica,sans-Serif" font-size="10.00">spdk_bdev_nvme_ctratt</text>
</a>
</g>
</g>
<!-- Node4&#45;&gt;Node2 -->
<g id="edge3_Node000002_Node000004" class="edge">
<title>Node4&#45;&gt;Node2</title>
<g id="a_edge3_Node000002_Node000004"><a xlink:title=" ">
<path fill="none" stroke="#9a32cd" stroke-dasharray="5,2" d="M166.76,-136.79C180.66,-122.13 199.75,-101.98 210.82,-90.3"/>
<polygon fill="#9a32cd" stroke="#9a32cd" points="164.28,-134.33 159.94,-143.99 169.36,-139.14 164.28,-134.33"/>
</a>
</g>
<text text-anchor="middle" x="208.38" y="-111.5" font-family="Helvetica,sans-Serif" font-size="10.00" fill="grey"> ctratt</text>
</g>
<!-- Node5 -->
<g id="Node000005" class="node">
<title>Node5</title>
<g id="a_Node000005"><a xlink:href="structspdk__bdev__module.html" target="_top" xlink:title="Block device module.">
<polygon fill="#fff0f0" stroke="red" points="345,-166.12 234.5,-166.12 234.5,-145.38 345,-145.38 345,-166.12"/>
<text text-anchor="middle" x="289.75" y="-152.62" font-family="Helvetica,sans-Serif" font-size="10.00">spdk_bdev_module</text>
</a>
</g>
</g>
<!-- Node5&#45;&gt;Node2 -->
<g id="edge4_Node000002_Node000005" class="edge">
<title>Node5&#45;&gt;Node2</title>
<g id="a_edge4_Node000002_Node000005"><a xlink:title=" ">
<path fill="none" stroke="#9a32cd" stroke-dasharray="5,2" d="M272.74,-136.79C258.84,-122.13 239.75,-101.98 228.68,-90.3"/>
<polygon fill="#9a32cd" stroke="#9a32cd" points="270.14,-139.14 279.56,-143.99 275.22,-134.33 270.14,-139.14"/>
</a>
</g>
<text text-anchor="middle" x="279.12" y="-111.5" font-family="Helvetica,sans-Serif" font-size="10.00" fill="grey"> fn_table</text>
</g>
<!-- Node8 -->
<g id="Node000008" class="node">
<title>Node8</title>
<g id="a_Node000008"><a xlink:href="structspdk__bdev_1_1____bdev__internal__fields.html" target="_top" xlink:title="Fields that are used internally by the bdev subsystem.">
<polygon fill="#fff0f0" stroke="red" points="514.25,-172.5 363.25,-172.5 363.25,-139 514.25,-139 514.25,-172.5"/>
<text text-anchor="start" x="371.25" y="-159" font-family="Helvetica,sans-Serif" font-size="10.00">spdk_bdev::__bdev_internal</text>
<text text-anchor="middle" x="438.75" y="-146.25" font-family="Helvetica,sans-Serif" font-size="10.00">_fields</text>
</a>
</g>
</g>
<!-- Node8&#45;&gt;Node2 -->
<g id="edge5_Node000002_Node000008" class="edge">
<title>Node8&#45;&gt;Node2</title>
<g id="a_edge5_Node000002_Node000008"><a xlink:title=" ">
<path fill="none" stroke="#9a32cd" stroke-dasharray="5,2" d="M382.3,-134.84C358.41,-126.51 330.27,-116.79 304.75,-108.25 286.96,-102.3 267,-95.86 250.89,-90.72"/>
<polygon fill="#9a32cd" stroke="#9a32cd" points="380.92,-138.07 391.51,-138.07 383.23,-131.46 380.92,-138.07"/>
</a>
</g>
<text text-anchor="middle" x="361" y="-111.5" font-family="Helvetica,sans-Serif" font-size="10.00" fill="grey"> internal</text>
</g>
</g>
</svg>
