<?xml version="1.0" encoding="UTF-8" standalone="no"?>
<!DOCTYPE svg PUBLIC "-//W3C//DTD SVG 1.1//EN"
 "http://www.w3.org/Graphics/SVG/1.1/DTD/svg11.dtd">
<!-- Generated by graphviz version 9.0.0 (20230911.1827)
 -->
<!-- Title: spdk_bdev_io_abort_params Pages: 1 -->
<!--zoomable 300 -->

<svg id="main" version="1.1" xmlns="http://www.w3.org/2000/svg" xmlns:xlink="http://www.w3.org/1999/xlink" xml:space="preserve" onload="init(evt)">
<style type="text/css"><![CDATA[
.node, .edge {opacity: 0.7;}
.node.selected, .edge.selected {opacity: 1;}
.edge:hover path { stroke: red; }
.edge:hover polygon { stroke: red; fill: red; }
]]></style>

<defs>
  <circle id="rim" cx="0" cy="0" r="7"/>
  <circle id="rim2" cx="0" cy="0" r="3.5"/>
  <g id="zoomPlus">
    <use xlink:href="#rim" fill="#404040"><set attributeName="fill" to="#808080" begin="zoomplus.mouseover" end="zoomplus.mouseout"/></use>
    <path d="M-4,0h8M0,-4v8" fill="none" stroke="white" stroke-width="1.5" pointer-events="none"/>
  </g>
  <g id="zoomMin">
    <use xlink:href="#rim" fill="#404040"><set attributeName="fill" to="#808080" begin="zoomminus.mouseover" end="zoomminus.mouseout"/></use>
    <path d="M-4,0h8" fill="none" stroke="white" stroke-width="1.5" pointer-events="none"/>
  </g>
  <g id="arrowUp" transform="translate(30 24)">
    <use xlink:href="#rim"/>
    <path pointer-events="none" fill="none" stroke="white" stroke-width="1.5" d="M0,-3.0v7 M-2.5,-0.5L0,-3.0L2.5,-0.5"/>
  </g>
  <g id="arrowRight" transform="rotate(90) translate(36 -43)">
    <use xlink:href="#rim"/>
    <path pointer-events="none" fill="none" stroke="white" stroke-width="1.5" d="M0,-3.0v7 M-2.5,-0.5L0,-3.0L2.5,-0.5"/>
  </g>
  <g id="arrowDown" transform="rotate(180) translate(-30 -48)">
    <use xlink:href="#rim"/>
    <path pointer-events="none" fill="none" stroke="white" stroke-width="1.5" d="M0,-3.0v7 M-2.5,-0.5L0,-3.0L2.5,-0.5"/>
  </g>
  <g id="arrowLeft" transform="rotate(270) translate(-36 17)">
    <use xlink:href="#rim"/>
    <path pointer-events="none" fill="none" stroke="white" stroke-width="1.5" d="M0,-3.0v7 M-2.5,-0.5L0,-3.0L2.5,-0.5"/>
  </g>
  <g id="resetDef">
    <use xlink:href="#rim2" fill="#404040"><set attributeName="fill" to="#808080" begin="reset.mouseover" end="reset.mouseout"/></use>
  </g>
</defs>
<script type="application/ecmascript">
var viewWidth = 603;
var viewHeight = 300;
var sectionId = 'dynsection-0';
</script>
<script type="application/ecmascript" xlink:href="svg.min.js"/>
<svg id="graph" class="graph">
<g id="viewport">
<title>spdk_bdev_io_abort_params</title>
<!-- Node1 -->
<g id="Node000001" class="node">
<title>Node1</title>
<g id="a_Node000001"><a xlink:title=" ">
<polygon fill="#999999" stroke="#666666" points="138.25,-288.5 24.75,-288.5 24.75,-255 138.25,-255 138.25,-288.5"/>
<text text-anchor="start" x="32.75" y="-275" font-family="Helvetica,sans-Serif" font-size="10.00">spdk_bdev_io_abort</text>
<text text-anchor="middle" x="81.5" y="-262.25" font-family="Helvetica,sans-Serif" font-size="10.00">_params</text>
</a>
</g>
</g>
<!-- Node2 -->
<g id="Node000002" class="node">
<title>Node2</title>
<g id="a_Node000002"><a xlink:href="structspdk__bdev__io.html" target="_top" xlink:title=" ">
<polygon fill="white" stroke="#bfbfbf" points="359.75,-183.12 277,-183.12 277,-162.38 359.75,-162.38 359.75,-183.12"/>
<text text-anchor="middle" x="318.38" y="-169.62" font-family="Helvetica,sans-Serif" font-size="10.00">spdk_bdev_io</text>
</a>
</g>
</g>
<!-- Node1&#45;&gt;Node2 -->
<g id="edge5_Node000002_Node000001" class="edge">
<title>Node1&#45;&gt;Node2</title>
<g id="a_edge5_Node000002_Node000001"><a xlink:title=" ">
<path fill="none" stroke="#9a32cd" stroke-dasharray="5,2" d="M150.11,-280.2C184.81,-281.35 226.49,-277.53 259,-258.75 288.69,-241.6 306.46,-202.53 313.65,-183.53"/>
<polygon fill="#9a32cd" stroke="#9a32cd" points="150.31,-276.71 140.15,-279.71 149.97,-283.7 150.31,-276.71"/>
</a>
</g>
<text text-anchor="middle" x="220" y="-282" font-family="Helvetica,sans-Serif" font-size="10.00" fill="grey"> abort</text>
</g>
<!-- Node2&#45;&gt;Node1 -->
<g id="edge1_Node000001_Node000002" class="edge">
<title>Node2&#45;&gt;Node1</title>
<g id="a_edge1_Node000001_Node000002"><a xlink:title=" ">
<path fill="none" stroke="#9a32cd" stroke-dasharray="5,2" d="M297.59,-190.9C286.82,-199.99 272.89,-210.57 259,-217.75 237.86,-228.67 181.86,-245.09 138.55,-256.96"/>
<polygon fill="#9a32cd" stroke="#9a32cd" points="299.79,-193.62 305.02,-184.4 295.19,-188.35 299.79,-193.62"/>
</a>
</g>
<text text-anchor="middle" x="220" y="-248" font-family="Helvetica,sans-Serif" font-size="10.00" fill="grey"> bio_to_abort</text>
</g>
<!-- Node49 -->
<g id="Node000049" class="node">
<title>Node49</title>
<g id="a_Node000049"><a xlink:href="structspdk__bdev__io__internal__fields.html" target="_top" xlink:title="Fields that are used internally by the bdev subsystem.">
<polygon fill="#fff0f0" stroke="red" points="594.75,-189.5 469.25,-189.5 469.25,-156 594.75,-156 594.75,-189.5"/>
<text text-anchor="start" x="477.25" y="-176" font-family="Helvetica,sans-Serif" font-size="10.00">spdk_bdev_io_internal</text>
<text text-anchor="middle" x="532" y="-163.25" font-family="Helvetica,sans-Serif" font-size="10.00">_fields</text>
</a>
</g>
</g>
<!-- Node2&#45;&gt;Node49 -->
<g id="edge9_Node000049_Node000002" class="edge">
<title>Node2&#45;&gt;Node49</title>
<g id="a_edge9_Node000049_Node000002"><a xlink:title=" ">
<path fill="none" stroke="#9a32cd" stroke-dasharray="5,2" d="M371.49,-172.75C401,-172.75 438.08,-172.75 469.06,-172.75"/>
<polygon fill="#9a32cd" stroke="#9a32cd" points="371.69,-169.25 361.69,-172.75 371.69,-176.25 371.69,-169.25"/>
</a>
</g>
<text text-anchor="middle" x="414.5" y="-201.5" font-family="Helvetica,sans-Serif" font-size="10.00" fill="grey"> cb</text>
<text text-anchor="middle" x="414.5" y="-188.75" font-family="Helvetica,sans-Serif" font-size="10.00" fill="grey">get_buf_cb</text>
<text text-anchor="middle" x="414.5" y="-176" font-family="Helvetica,sans-Serif" font-size="10.00" fill="grey">stored_user_cb</text>
</g>
<!-- Node3 -->
<g id="Node000003" class="node">
<title>Node3</title>
<g id="a_Node000003"><a xlink:href="structspdk__bdev.html" target="_top" xlink:title=" ">
<polygon fill="white" stroke="orangered" points="115.75,-228.12 47.25,-228.12 47.25,-207.38 115.75,-207.38 115.75,-228.12"/>
<text text-anchor="middle" x="81.5" y="-214.62" font-family="Helvetica,sans-Serif" font-size="10.00">spdk_bdev</text>
</a>
</g>
</g>
<!-- Node3&#45;&gt;Node2 -->
<g id="edge2_Node000002_Node000003" class="edge">
<title>Node3&#45;&gt;Node2</title>
<g id="a_edge2_Node000002_Node000003"><a xlink:title=" ">
<path fill="none" stroke="#9a32cd" stroke-dasharray="5,2" d="M127.16,-210.69C162.93,-204.84 214.33,-196.02 259,-186.75 264.71,-185.56 270.72,-184.23 276.62,-182.86"/>
<polygon fill="#9a32cd" stroke="#9a32cd" points="126.93,-207.18 117.62,-212.23 128.05,-214.09 126.93,-207.18"/>
</a>
</g>
<text text-anchor="middle" x="220" y="-204" font-family="Helvetica,sans-Serif" font-size="10.00" fill="grey"> bdev</text>
</g>
<!-- Node15 -->
<g id="Node000015" class="node">
<title>Node15</title>
<g id="a_Node000015"><a xlink:href="structspdk__bdev__io__block__params.html" target="_top" xlink:title=" ">
<polygon fill="white" stroke="orangered" points="138.62,-189.5 24.38,-189.5 24.38,-156 138.62,-156 138.62,-189.5"/>
<text text-anchor="start" x="32.38" y="-176" font-family="Helvetica,sans-Serif" font-size="10.00">spdk_bdev_io_block</text>
<text text-anchor="middle" x="81.5" y="-163.25" font-family="Helvetica,sans-Serif" font-size="10.00">_params</text>
</a>
</g>
</g>
<!-- Node15&#45;&gt;Node2 -->
<g id="edge3_Node000002_Node000015" class="edge">
<title>Node15&#45;&gt;Node2</title>
<g id="a_edge3_Node000002_Node000015"><a xlink:title=" ">
<path fill="none" stroke="#9a32cd" stroke-dasharray="5,2" d="M150.32,-172.75C191.23,-172.75 241.99,-172.75 276.76,-172.75"/>
<polygon fill="#9a32cd" stroke="#9a32cd" points="150.57,-169.25 140.57,-172.75 150.57,-176.25 150.57,-169.25"/>
</a>
</g>
<text text-anchor="middle" x="220" y="-176" font-family="Helvetica,sans-Serif" font-size="10.00" fill="grey"> bdev</text>
</g>
<!-- Node20 -->
<g id="Node000020" class="node">
<title>Node20</title>
<g id="a_Node000020"><a xlink:href="structspdk__bdev__io__reset__params.html" target="_top" xlink:title=" ">
<polygon fill="white" stroke="#bfbfbf" points="137.88,-137.5 25.12,-137.5 25.12,-104 137.88,-104 137.88,-137.5"/>
<text text-anchor="start" x="33.12" y="-124" font-family="Helvetica,sans-Serif" font-size="10.00">spdk_bdev_io_reset</text>
<text text-anchor="middle" x="81.5" y="-111.25" font-family="Helvetica,sans-Serif" font-size="10.00">_params</text>
</a>
</g>
</g>
<!-- Node20&#45;&gt;Node2 -->
<g id="edge4_Node000002_Node000020" class="edge">
<title>Node20&#45;&gt;Node2</title>
<g id="a_edge4_Node000002_Node000020"><a xlink:title=" ">
<path fill="none" stroke="#9a32cd" stroke-dasharray="5,2" d="M148.96,-132.68C182.16,-138.98 222.85,-147.22 259,-156 266.27,-157.77 274,-159.84 281.38,-161.92"/>
<polygon fill="#9a32cd" stroke="#9a32cd" points="149.97,-129.31 139.5,-130.9 148.68,-136.19 149.97,-129.31"/>
</a>
</g>
<text text-anchor="middle" x="220" y="-159" font-family="Helvetica,sans-Serif" font-size="10.00" fill="grey"> reset</text>
</g>
<!-- Node21 -->
<g id="Node000021" class="node">
<title>Node21</title>
<g id="a_Node000021"><a xlink:href="structspdk__bdev__io__nvme__passthru__params.html" target="_top" xlink:title=" ">
<polygon fill="white" stroke="orangered" points="163,-85.5 0,-85.5 0,-52 163,-52 163,-85.5"/>
<text text-anchor="start" x="8" y="-72" font-family="Helvetica,sans-Serif" font-size="10.00">spdk_bdev_io_nvme_passthru</text>
<text text-anchor="middle" x="81.5" y="-59.25" font-family="Helvetica,sans-Serif" font-size="10.00">_params</text>
</a>
</g>
</g>
<!-- Node21&#45;&gt;Node2 -->
<g id="edge6_Node000002_Node000021" class="edge">
<title>Node21&#45;&gt;Node2</title>
<g id="a_edge6_Node000002_Node000021"><a xlink:title=" ">
<path fill="none" stroke="#9a32cd" stroke-dasharray="5,2" d="M173.85,-88.39C202.16,-96.53 232.79,-107.53 259,-122 278.28,-132.64 296.82,-150.48 307.65,-161.92"/>
<polygon fill="#9a32cd" stroke="#9a32cd" points="175.16,-85.12 164.59,-85.81 173.28,-91.86 175.16,-85.12"/>
</a>
</g>
<text text-anchor="middle" x="220" y="-125" font-family="Helvetica,sans-Serif" font-size="10.00" fill="grey"> nvme_passthru</text>
</g>
<!-- Node48 -->
<g id="Node000048" class="node">
<title>Node48</title>
<g id="a_Node000048"><a xlink:href="structspdk__bdev__io__zone__mgmt__params.html" target="_top" xlink:title=" ">
<polygon fill="white" stroke="#bfbfbf" points="154.38,-33.5 8.62,-33.5 8.62,0 154.38,0 154.38,-33.5"/>
<text text-anchor="start" x="16.62" y="-20" font-family="Helvetica,sans-Serif" font-size="10.00">spdk_bdev_io_zone_mgmt</text>
<text text-anchor="middle" x="81.5" y="-7.25" font-family="Helvetica,sans-Serif" font-size="10.00">_params</text>
</a>
</g>
</g>
<!-- Node48&#45;&gt;Node2 -->
<g id="edge7_Node000002_Node000048" class="edge">
<title>Node48&#45;&gt;Node2</title>
<g id="a_edge7_Node000002_Node000048"><a xlink:title=" ">
<path fill="none" stroke="#9a32cd" stroke-dasharray="5,2" d="M165.84,-30.68C197.52,-39.15 232.36,-52.64 259,-74 288.99,-98.04 306.94,-141.96 313.96,-162.12"/>
<polygon fill="#9a32cd" stroke="#9a32cd" points="166.8,-27.32 156.25,-28.26 165.09,-34.1 166.8,-27.32"/>
</a>
</g>
<text text-anchor="middle" x="220" y="-77" font-family="Helvetica,sans-Serif" font-size="10.00" fill="grey"> zone_mgmt</text>
</g>
<!-- Node49&#45;&gt;Node2 -->
<g id="edge8_Node000002_Node000049" class="edge">
<title>Node49&#45;&gt;Node2</title>
<g id="a_edge8_Node000002_Node000049"><a xlink:title=" ">
<path fill="none" stroke="#9a32cd" stroke-dasharray="5,2" d="M457.81,-156.77C455.6,-156.48 453.41,-156.22 451.25,-156 418.76,-152.62 410.1,-151.45 377.75,-156 368.98,-157.23 359.68,-159.46 351.14,-161.9"/>
<polygon fill="#9a32cd" stroke="#9a32cd" points="457.04,-160.19 467.44,-158.2 458.06,-153.27 457.04,-160.19"/>
</a>
</g>
<text text-anchor="middle" x="414.5" y="-159" font-family="Helvetica,sans-Serif" font-size="10.00" fill="grey"> internal</text>
</g>
</g>
</svg>

<g id="navigator" transform="translate(0 0)" fill="#404254">
  <rect fill="#f2f5e9" fill-opacity="0.5" stroke="#606060" stroke-width=".5" x="0" y="0" width="60" height="60"/>
  <use id="zoomplus" xlink:href="#zoomPlus" x="17" y="9" onmousedown="handleZoom(evt,'in')"/>
  <use id="zoomminus" xlink:href="#zoomMin" x="42" y="9" onmousedown="handleZoom(evt,'out')"/>
  <use id="reset" xlink:href="#resetDef" x="30" y="36" onmousedown="handleReset()"/>
   <use id="arrowup" xlink:href="#arrowUp" x="0" y="0" onmousedown="handlePan(0,-1)"/>
  <use id="arrowright" xlink:href="#arrowRight" x="0" y="0" onmousedown="handlePan(1,0)"/>
  <use id="arrowdown" xlink:href="#arrowDown" x="0" y="0" onmousedown="handlePan(0,1)"/>
  <use id="arrowleft" xlink:href="#arrowLeft" x="0" y="0" onmousedown="handlePan(-1,0)"/>
</g>
<svg viewBox="0 0 15 15" width="100%" height="30px" preserveAspectRatio="xMaxYMin meet">
 <g id="arrow_out" transform="scale(0.3 0.3)">
  <a xlink:href="structspdk__bdev__io__abort__params__coll__graph_org.svg" target="_base">
   <rect id="button" ry="5" rx="5" y="6" x="6" height="38" width="38"
        fill="#f2f5e9" fill-opacity="0.5" stroke="#606060" stroke-width="1.0"/>
   <path id="arrow"
     d="M 11.500037,31.436501 C 11.940474,20.09759 22.043105,11.32322 32.158766,21.979434 L 37.068811,17.246167 C 37.068811,17.246167 37.088388,32 37.088388,32 L 22.160133,31.978069 C 22.160133,31.978069 26.997745,27.140456 26.997745,27.140456 C 18.528582,18.264221 13.291696,25.230495 11.500037,31.436501 z"
     style="fill:#404040;"/>
  </a>
 </g>
</svg>

<style type='text/css'>
<![CDATA[
[data-mouse-over-selected='false'] { opacity: 0.7; }
[data-mouse-over-selected='true']  { opacity: 1.0; }
]]>
</style>
<script type="application/ecmascript"><![CDATA[
document.addEventListener('DOMContentLoaded', (event) => {
  highlightEdges();
  highlightAdjacentNodes();
});
]]></script>
</svg>
