<?xml version="1.0" encoding="UTF-8" standalone="no"?>
<!DOCTYPE svg PUBLIC "-//W3C//DTD SVG 1.1//EN"
 "http://www.w3.org/Graphics/SVG/1.1/DTD/svg11.dtd">
<!-- Generated by graphviz version 9.0.0 (20230911.1827)
 -->
<!-- Title: spdk_nvmf_fc_ls_cr_conn_rqst Pages: 1 -->
<svg width="365pt" height="132pt"
 viewBox="0.00 0.00 364.75 132.12" xmlns="http://www.w3.org/2000/svg" xmlns:xlink="http://www.w3.org/1999/xlink">
<g id="graph0" class="graph" transform="scale(1 1) rotate(0) translate(4 128.12)">
<title>spdk_nvmf_fc_ls_cr_conn_rqst</title>
<!-- Node1 -->
<g id="Node000001" class="node">
<title>Node1</title>
<g id="a_Node000001"><a xlink:title=" ">
<polygon fill="#999999" stroke="#666666" points="356.75,-85.5 244.75,-85.5 244.75,-52 356.75,-52 356.75,-85.5"/>
<text text-anchor="start" x="252.75" y="-72" font-family="Helvetica,sans-Serif" font-size="10.00">spdk_nvmf_fc_ls_cr</text>
<text text-anchor="middle" x="300.75" y="-59.25" font-family="Helvetica,sans-Serif" font-size="10.00">_conn_rqst</text>
</a>
</g>
</g>
<!-- Node2 -->
<g id="Node000002" class="node">
<title>Node2</title>
<g id="a_Node000002"><a xlink:href="structspdk__nvmf__fc__ls__rqst__w0.html" target="_top" xlink:title=" ">
<polygon fill="white" stroke="#bfbfbf" points="141.25,-124.12 0,-124.12 0,-103.38 141.25,-103.38 141.25,-124.12"/>
<text text-anchor="middle" x="70.62" y="-110.62" font-family="Helvetica,sans-Serif" font-size="10.00">spdk_nvmf_fc_ls_rqst_w0</text>
</a>
</g>
</g>
<!-- Node2&#45;&gt;Node1 -->
<g id="edge1_Node000001_Node000002" class="edge">
<title>Node2&#45;&gt;Node1</title>
<g id="a_edge1_Node000001_Node000002"><a xlink:title=" ">
<path fill="none" stroke="#9a32cd" stroke-dasharray="5,2" d="M146.97,-100.93C172.37,-96.41 200.84,-91.1 226.75,-85.75 232.48,-84.57 238.46,-83.27 244.41,-81.94"/>
<polygon fill="#9a32cd" stroke="#9a32cd" points="146.64,-97.44 137.41,-102.63 147.86,-104.33 146.64,-97.44"/>
</a>
</g>
<text text-anchor="middle" x="193" y="-101" font-family="Helvetica,sans-Serif" font-size="10.00" fill="grey"> w0</text>
</g>
<!-- Node3 -->
<g id="Node000003" class="node">
<title>Node3</title>
<g id="a_Node000003"><a xlink:href="structspdk__nvmf__fc__lsdesc__assoc__id.html" target="_top" xlink:title=" ">
<polygon fill="white" stroke="#bfbfbf" points="130.75,-85.5 10.5,-85.5 10.5,-52 130.75,-52 130.75,-85.5"/>
<text text-anchor="start" x="18.5" y="-72" font-family="Helvetica,sans-Serif" font-size="10.00">spdk_nvmf_fc_lsdesc</text>
<text text-anchor="middle" x="70.62" y="-59.25" font-family="Helvetica,sans-Serif" font-size="10.00">_assoc_id</text>
</a>
</g>
</g>
<!-- Node3&#45;&gt;Node1 -->
<g id="edge2_Node000001_Node000003" class="edge">
<title>Node3&#45;&gt;Node1</title>
<g id="a_edge2_Node000001_Node000003"><a xlink:title=" ">
<path fill="none" stroke="#9a32cd" stroke-dasharray="5,2" d="M142.36,-68.75C175.29,-68.75 213.89,-68.75 244.62,-68.75"/>
<polygon fill="#9a32cd" stroke="#9a32cd" points="142.48,-65.25 132.48,-68.75 142.48,-72.25 142.48,-65.25"/>
</a>
</g>
<text text-anchor="middle" x="193" y="-72" font-family="Helvetica,sans-Serif" font-size="10.00" fill="grey"> assoc_id</text>
</g>
<!-- Node4 -->
<g id="Node000004" class="node">
<title>Node4</title>
<g id="a_Node000004"><a xlink:href="structspdk__nvmf__fc__lsdesc__cr__conn__cmd.html" target="_top" xlink:title=" ">
<polygon fill="white" stroke="#bfbfbf" points="130.75,-33.5 10.5,-33.5 10.5,0 130.75,0 130.75,-33.5"/>
<text text-anchor="start" x="18.5" y="-20" font-family="Helvetica,sans-Serif" font-size="10.00">spdk_nvmf_fc_lsdesc</text>
<text text-anchor="middle" x="70.62" y="-7.25" font-family="Helvetica,sans-Serif" font-size="10.00">_cr_conn_cmd</text>
</a>
</g>
</g>
<!-- Node4&#45;&gt;Node1 -->
<g id="edge3_Node000001_Node000004" class="edge">
<title>Node4&#45;&gt;Node1</title>
<g id="a_edge3_Node000001_Node000004"><a xlink:title=" ">
<path fill="none" stroke="#9a32cd" stroke-dasharray="5,2" d="M142.05,-32.72C168.6,-38.75 199.07,-45.68 226.75,-52 232.45,-53.3 238.41,-54.66 244.35,-56.03"/>
<polygon fill="#9a32cd" stroke="#9a32cd" points="142.93,-29.33 132.41,-30.53 141.38,-36.16 142.93,-29.33"/>
</a>
</g>
<text text-anchor="middle" x="193" y="-55" font-family="Helvetica,sans-Serif" font-size="10.00" fill="grey"> connect_cmd</text>
</g>
</g>
</svg>
