<?xml version="1.0" encoding="UTF-8" standalone="no"?>
<!DOCTYPE svg PUBLIC "-//W3C//DTD SVG 1.1//EN"
 "http://www.w3.org/Graphics/SVG/1.1/DTD/svg11.dtd">
<!-- Generated by graphviz version 9.0.0 (20230911.1827)
 -->
<!-- Title: spdk_bdev Pages: 1 -->
<!--zoomable 249 -->

<svg id="main" version="1.1" xmlns="http://www.w3.org/2000/svg" xmlns:xlink="http://www.w3.org/1999/xlink" xml:space="preserve" onload="init(evt)">
<style type="text/css"><![CDATA[
.node, .edge {opacity: 0.7;}
.node.selected, .edge.selected {opacity: 1;}
.edge:hover path { stroke: red; }
.edge:hover polygon { stroke: red; fill: red; }
]]></style>

<defs>
  <circle id="rim" cx="0" cy="0" r="7"/>
  <circle id="rim2" cx="0" cy="0" r="3.5"/>
  <g id="zoomPlus">
    <use xlink:href="#rim" fill="#404040"><set attributeName="fill" to="#808080" begin="zoomplus.mouseover" end="zoomplus.mouseout"/></use>
    <path d="M-4,0h8M0,-4v8" fill="none" stroke="white" stroke-width="1.5" pointer-events="none"/>
  </g>
  <g id="zoomMin">
    <use xlink:href="#rim" fill="#404040"><set attributeName="fill" to="#808080" begin="zoomminus.mouseover" end="zoomminus.mouseout"/></use>
    <path d="M-4,0h8" fill="none" stroke="white" stroke-width="1.5" pointer-events="none"/>
  </g>
  <g id="arrowUp" transform="translate(30 24)">
    <use xlink:href="#rim"/>
    <path pointer-events="none" fill="none" stroke="white" stroke-width="1.5" d="M0,-3.0v7 M-2.5,-0.5L0,-3.0L2.5,-0.5"/>
  </g>
  <g id="arrowRight" transform="rotate(90) translate(36 -43)">
    <use xlink:href="#rim"/>
    <path pointer-events="none" fill="none" stroke="white" stroke-width="1.5" d="M0,-3.0v7 M-2.5,-0.5L0,-3.0L2.5,-0.5"/>
  </g>
  <g id="arrowDown" transform="rotate(180) translate(-30 -48)">
    <use xlink:href="#rim"/>
    <path pointer-events="none" fill="none" stroke="white" stroke-width="1.5" d="M0,-3.0v7 M-2.5,-0.5L0,-3.0L2.5,-0.5"/>
  </g>
  <g id="arrowLeft" transform="rotate(270) translate(-36 17)">
    <use xlink:href="#rim"/>
    <path pointer-events="none" fill="none" stroke="white" stroke-width="1.5" d="M0,-3.0v7 M-2.5,-0.5L0,-3.0L2.5,-0.5"/>
  </g>
  <g id="resetDef">
    <use xlink:href="#rim2" fill="#404040"><set attributeName="fill" to="#808080" begin="reset.mouseover" end="reset.mouseout"/></use>
  </g>
</defs>
<script type="application/ecmascript">
var viewWidth = 1168;
var viewHeight = 249;
var sectionId = 'dynsection-0';
</script>
<script type="application/ecmascript" xlink:href="svg.min.js"/>
<svg id="graph" class="graph">
<g id="viewport">
<title>spdk_bdev</title>
<!-- Node1 -->
<g id="Node000001" class="node">
<title>Node1</title>
<g id="a_Node000001"><a xlink:title=" ">
<polygon fill="#999999" stroke="#666666" points="657.25,-155.75 588.75,-155.75 588.75,-135 657.25,-135 657.25,-155.75"/>
<text text-anchor="middle" x="623" y="-142.25" font-family="Helvetica,sans-Serif" font-size="10.00">spdk_bdev</text>
</a>
</g>
</g>
<!-- Node11 -->
<g id="Node000011" class="node">
<title>Node11</title>
<g id="a_Node000011"><a xlink:href="structspdk__bdev__io.html" target="_top" xlink:title=" ">
<polygon fill="white" stroke="orangered" points="843.12,-198.75 760.38,-198.75 760.38,-178 843.12,-178 843.12,-198.75"/>
<text text-anchor="middle" x="801.75" y="-185.25" font-family="Helvetica,sans-Serif" font-size="10.00">spdk_bdev_io</text>
</a>
</g>
</g>
<!-- Node1&#45;&gt;Node11 -->
<g id="edge10_Node000011_Node000001" class="edge">
<title>Node1&#45;&gt;Node11</title>
<g id="a_edge10_Node000011_Node000001"><a xlink:title=" ">
<path fill="none" stroke="#9a32cd" stroke-dasharray="5,2" d="M663.12,-159.75C667.19,-161.05 671.29,-162.29 675.25,-163.38 703.21,-171.03 735.28,-177.38 760,-181.76"/>
<polygon fill="#9a32cd" stroke="#9a32cd" points="664.54,-156.53 653.94,-156.67 662.31,-163.17 664.54,-156.53"/>
</a>
</g>
<text text-anchor="middle" x="688.75" y="-171.62" font-family="Helvetica,sans-Serif" font-size="10.00" fill="grey"> bdev</text>
</g>
<!-- Node51 -->
<g id="Node000051" class="node">
<title>Node51</title>
<g id="a_Node000051"><a xlink:href="structspdk__bdev__name.html" target="_top" xlink:title=" ">
<polygon fill="white" stroke="#bfbfbf" points="852.5,-159.75 751,-159.75 751,-139 852.5,-139 852.5,-159.75"/>
<text text-anchor="middle" x="801.75" y="-146.25" font-family="Helvetica,sans-Serif" font-size="10.00">spdk_bdev_name</text>
</a>
</g>
</g>
<!-- Node1&#45;&gt;Node51 -->
<g id="edge13_Node000051_Node000001" class="edge">
<title>Node1&#45;&gt;Node51</title>
<g id="a_edge13_Node000051_Node000001"><a xlink:title=" ">
<path fill="none" stroke="#9a32cd" stroke-dasharray="5,2" d="M669.02,-146.39C694,-146.96 725.11,-147.66 750.83,-148.25"/>
<polygon fill="#9a32cd" stroke="#9a32cd" points="669.25,-142.9 659.17,-146.17 669.09,-149.9 669.25,-142.9"/>
</a>
</g>
<text text-anchor="middle" x="688.75" y="-149.62" font-family="Helvetica,sans-Serif" font-size="10.00" fill="grey"> bdev</text>
</g>
<!-- Node2 -->
<g id="Node000002" class="node">
<title>Node2</title>
<g id="a_Node000002"><a xlink:href="structspdk__uuid.html" target="_top" xlink:title=" ">
<polygon fill="white" stroke="#bfbfbf" points="475.5,-110.75 410,-110.75 410,-90 475.5,-90 475.5,-110.75"/>
<text text-anchor="middle" x="442.75" y="-97.25" font-family="Helvetica,sans-Serif" font-size="10.00">spdk_uuid</text>
</a>
</g>
</g>
<!-- Node2&#45;&gt;Node1 -->
<g id="edge1_Node000001_Node000002" class="edge">
<title>Node2&#45;&gt;Node1</title>
<g id="a_edge1_Node000001_Node000002"><a xlink:title=" ">
<path fill="none" stroke="#9a32cd" stroke-dasharray="5,2" d="M487.03,-105.88C511.85,-109.64 543.41,-115.43 570.75,-123.62 580.38,-126.51 590.64,-130.64 599.44,-134.53"/>
<polygon fill="#9a32cd" stroke="#9a32cd" points="487.68,-102.44 477.28,-104.47 486.68,-109.37 487.68,-102.44"/>
</a>
</g>
<text text-anchor="middle" x="549" y="-126.62" font-family="Helvetica,sans-Serif" font-size="10.00" fill="grey"> uuid</text>
</g>
<!-- Node3 -->
<g id="Node000003" class="node">
<title>Node3</title>
<g id="a_Node000003"><a xlink:href="unionspdk__bdev__nvme__ctratt.html" target="_top" xlink:title="Union for controller attributes field, to list whether bdev supports fdp etc.">
<polygon fill="white" stroke="#666666" points="509.25,-149.75 376.25,-149.75 376.25,-129 509.25,-129 509.25,-149.75"/>
<text text-anchor="middle" x="442.75" y="-136.25" font-family="Helvetica,sans-Serif" font-size="10.00">spdk_bdev_nvme_ctratt</text>
</a>
</g>
</g>
<!-- Node3&#45;&gt;Node1 -->
<g id="edge2_Node000001_Node000003" class="edge">
<title>Node3&#45;&gt;Node1</title>
<g id="a_edge2_Node000001_Node000003"><a xlink:title=" ">
<path fill="none" stroke="#9a32cd" stroke-dasharray="5,2" d="M520.91,-141C537.36,-141.45 554.63,-141.99 570.75,-142.62 576.45,-142.85 582.5,-143.14 588.37,-143.44"/>
<polygon fill="#9a32cd" stroke="#9a32cd" points="521.28,-137.51 511.19,-140.75 521.1,-144.51 521.28,-137.51"/>
</a>
</g>
<text text-anchor="middle" x="549" y="-145.62" font-family="Helvetica,sans-Serif" font-size="10.00" fill="grey"> ctratt</text>
</g>
<!-- Node4 -->
<g id="Node000004" class="node">
<title>Node4</title>
<g id="a_Node000004"><a xlink:href="structspdk__bdev__module.html" target="_top" xlink:title="Block device module.">
<polygon fill="white" stroke="#666666" points="498,-188.75 387.5,-188.75 387.5,-168 498,-168 498,-188.75"/>
<text text-anchor="middle" x="442.75" y="-175.25" font-family="Helvetica,sans-Serif" font-size="10.00">spdk_bdev_module</text>
</a>
</g>
</g>
<!-- Node4&#45;&gt;Node1 -->
<g id="edge3_Node000001_Node000004" class="edge">
<title>Node4&#45;&gt;Node1</title>
<g id="a_edge3_Node000001_Node000004"><a xlink:title=" ">
<path fill="none" stroke="#9a32cd" stroke-dasharray="5,2" d="M509.79,-166.59C529.42,-163.04 550.96,-159.1 570.75,-155.38 576.45,-154.3 582.51,-153.14 588.38,-152"/>
<polygon fill="#9a32cd" stroke="#9a32cd" points="509.19,-163.14 499.97,-168.36 510.43,-170.03 509.19,-163.14"/>
</a>
</g>
<text text-anchor="middle" x="549" y="-165.62" font-family="Helvetica,sans-Serif" font-size="10.00" fill="grey"> fn_table</text>
</g>
<!-- Node5 -->
<g id="Node000005" class="node">
<title>Node5</title>
<g id="a_Node000005"><a xlink:href="structspdk__bdev__module_1_1____bdev__module__internal__fields.html" target="_top" xlink:title="Fields that are used by the internal bdev subsystem.">
<polygon fill="white" stroke="#666666" points="299.75,-200.5 164.5,-200.5 164.5,-154.25 299.75,-154.25 299.75,-200.5"/>
<text text-anchor="start" x="172.5" y="-187" font-family="Helvetica,sans-Serif" font-size="10.00">spdk_bdev_module::</text>
<text text-anchor="start" x="172.5" y="-174.25" font-family="Helvetica,sans-Serif" font-size="10.00">__bdev_module_internal</text>
<text text-anchor="middle" x="232.12" y="-161.5" font-family="Helvetica,sans-Serif" font-size="10.00">_fields</text>
</a>
</g>
</g>
<!-- Node5&#45;&gt;Node4 -->
<g id="edge4_Node000004_Node000005" class="edge">
<title>Node5&#45;&gt;Node4</title>
<g id="a_edge4_Node000004_Node000005"><a xlink:title=" ">
<path fill="none" stroke="#9a32cd" stroke-dasharray="5,2" d="M311.4,-177.75C336.61,-177.87 363.98,-178 387.1,-178.11"/>
<polygon fill="#9a32cd" stroke="#9a32cd" points="311.53,-174.25 301.51,-177.7 311.49,-181.25 311.53,-174.25"/>
</a>
</g>
<text text-anchor="middle" x="338" y="-180.62" font-family="Helvetica,sans-Serif" font-size="10.00" fill="grey"> internal</text>
</g>
<!-- Node6 -->
<g id="Node000006" class="node">
<title>Node6</title>
<g id="a_Node000006"><a xlink:href="structspdk__spinlock.html" target="_top" xlink:title="A spinlock augmented with safety checks for use with SPDK.">
<polygon fill="white" stroke="#666666" points="85,-213.75 0,-213.75 0,-193 85,-193 85,-213.75"/>
<text text-anchor="middle" x="42.5" y="-200.25" font-family="Helvetica,sans-Serif" font-size="10.00">spdk_spinlock</text>
</a>
</g>
</g>
<!-- Node6&#45;&gt;Node5 -->
<g id="edge5_Node000005_Node000006" class="edge">
<title>Node6&#45;&gt;Node5</title>
<g id="a_edge5_Node000005_Node000006"><a xlink:title=" ">
<path fill="none" stroke="#9a32cd" stroke-dasharray="5,2" d="M96.44,-196.04C117.48,-193.12 141.93,-189.73 164.18,-186.65"/>
<polygon fill="#9a32cd" stroke="#9a32cd" points="96.06,-192.56 86.64,-197.4 97.03,-199.49 96.06,-192.56"/>
</a>
</g>
<text text-anchor="middle" x="124.75" y="-197.62" font-family="Helvetica,sans-Serif" font-size="10.00" fill="grey"> spinlock</text>
</g>
<!-- Node7 -->
<g id="Node000007" class="node">
<title>Node7</title>
<g id="a_Node000007"><a xlink:href="structspdk__bdev_1_1____bdev__internal__fields.html" target="_top" xlink:title="Fields that are used internally by the bdev subsystem.">
<polygon fill="white" stroke="#666666" points="1159.5,-145.12 1008.5,-145.12 1008.5,-111.62 1159.5,-111.62 1159.5,-145.12"/>
<text text-anchor="start" x="1016.5" y="-131.62" font-family="Helvetica,sans-Serif" font-size="10.00">spdk_bdev::__bdev_internal</text>
<text text-anchor="middle" x="1084" y="-118.88" font-family="Helvetica,sans-Serif" font-size="10.00">_fields</text>
</a>
</g>
</g>
<!-- Node6&#45;&gt;Node7 -->
<g id="edge7_Node000007_Node000006" class="edge">
<title>Node6&#45;&gt;Node7</title>
<g id="a_edge7_Node000007_Node000006"><a xlink:title=" ">
<path fill="none" stroke="#9a32cd" stroke-dasharray="5,2" d="M96.54,-214.25C133.98,-220.99 185.41,-228.38 231.12,-228.38 231.12,-228.38 231.12,-228.38 802.75,-228.38 887.8,-228.38 912.04,-224.2 990.5,-191.38 1017.75,-179.98 1045.25,-159.9 1063.09,-145.48"/>
<polygon fill="#9a32cd" stroke="#9a32cd" points="97.35,-210.84 86.88,-212.46 96.07,-217.73 97.35,-210.84"/>
</a>
</g>
<text text-anchor="middle" x="549" y="-231.62" font-family="Helvetica,sans-Serif" font-size="10.00" fill="grey"> spinlock</text>
</g>
<!-- Node7&#45;&gt;Node1 -->
<g id="edge6_Node000001_Node000007" class="edge">
<title>Node7&#45;&gt;Node1</title>
<g id="a_edge6_Node000001_Node000007"><a xlink:title=" ">
<path fill="none" stroke="#9a32cd" stroke-dasharray="5,2" d="M997.18,-117.68C923.39,-110.43 814.3,-104.34 720.25,-117.62 697.35,-120.86 672.26,-128.22 653.45,-134.55"/>
<polygon fill="#9a32cd" stroke="#9a32cd" points="996.45,-121.13 1006.75,-118.65 997.15,-114.16 996.45,-121.13"/>
</a>
</g>
<text text-anchor="middle" x="801.75" y="-120.62" font-family="Helvetica,sans-Serif" font-size="10.00" fill="grey"> internal</text>
</g>
<!-- Node8 -->
<g id="Node000008" class="node">
<title>Node8</title>
<g id="a_Node000008"><a xlink:href="unionspdk__bdev_1_1____bdev__internal__fields_1_1____bdev__internal__claim.html" target="_top" xlink:title="Which module has claimed this bdev.">
<polygon fill="#fff0f0" stroke="red" points="883.25,-72.12 720.25,-72.12 720.25,-38.62 883.25,-38.62 883.25,-72.12"/>
<text text-anchor="start" x="728.25" y="-58.62" font-family="Helvetica,sans-Serif" font-size="10.00">spdk_bdev::__bdev_internal</text>
<text text-anchor="middle" x="801.75" y="-45.88" font-family="Helvetica,sans-Serif" font-size="10.00">_fields::__bdev_internal_claim</text>
</a>
</g>
</g>
<!-- Node8&#45;&gt;Node7 -->
<g id="edge8_Node000007_Node000008" class="edge">
<title>Node8&#45;&gt;Node7</title>
<g id="a_edge8_Node000007_Node000008"><a xlink:title=" ">
<path fill="none" stroke="#9a32cd" stroke-dasharray="5,2" d="M894.73,-62.13C925.64,-66 960.01,-72.08 990.5,-81.62 1013.34,-88.78 1037.41,-101.11 1055.28,-111.32"/>
<polygon fill="#9a32cd" stroke="#9a32cd" points="895.35,-58.68 885.01,-60.98 894.53,-65.63 895.35,-58.68"/>
</a>
</g>
<text text-anchor="middle" x="945.88" y="-85.62" font-family="Helvetica,sans-Serif" font-size="10.00" fill="grey"> claim</text>
</g>
<!-- Node11&#45;&gt;Node7 -->
<g id="edge9_Node000007_Node000011" class="edge">
<title>Node11&#45;&gt;Node7</title>
<g id="a_edge9_Node000007_Node000011"><a xlink:title=" ">
<path fill="none" stroke="#9a32cd" stroke-dasharray="5,2" d="M854.68,-182.28C892.61,-177.3 945.13,-169.29 990.5,-158.38 1005.11,-154.86 1020.74,-150.16 1034.92,-145.53"/>
<polygon fill="#9a32cd" stroke="#9a32cd" points="854.37,-178.79 844.9,-183.54 855.26,-185.73 854.37,-178.79"/>
</a>
</g>
<text text-anchor="middle" x="945.88" y="-177.62" font-family="Helvetica,sans-Serif" font-size="10.00" fill="grey"> reset_in_progress</text>
</g>
<!-- Node50 -->
<g id="Node000050" class="node">
<title>Node50</title>
<g id="a_Node000050"><a xlink:href="structspdk__bdev__io__stat.html" target="_top" xlink:title=" ">
<polygon fill="white" stroke="#bfbfbf" points="855.12,-20.75 748.38,-20.75 748.38,0 855.12,0 855.12,-20.75"/>
<text text-anchor="middle" x="801.75" y="-7.25" font-family="Helvetica,sans-Serif" font-size="10.00">spdk_bdev_io_stat</text>
</a>
</g>
</g>
<!-- Node50&#45;&gt;Node7 -->
<g id="edge11_Node000007_Node000050" class="edge">
<title>Node50&#45;&gt;Node7</title>
<g id="a_edge11_Node000007_Node000050"><a xlink:title=" ">
<path fill="none" stroke="#9a32cd" stroke-dasharray="5,2" d="M866.6,-14.76C904.22,-19.32 951.85,-28.63 990.5,-47.62 1022.26,-63.23 1051.72,-92.55 1068.52,-111.24"/>
<polygon fill="#9a32cd" stroke="#9a32cd" points="867.1,-11.29 856.77,-13.66 866.32,-18.25 867.1,-11.29"/>
</a>
</g>
<text text-anchor="middle" x="945.88" y="-51.62" font-family="Helvetica,sans-Serif" font-size="10.00" fill="grey"> stat</text>
</g>
<!-- Node51&#45;&gt;Node7 -->
<g id="edge12_Node000007_Node000051" class="edge">
<title>Node51&#45;&gt;Node7</title>
<g id="a_edge12_Node000007_Node000051"><a xlink:title=" ">
<path fill="none" stroke="#9a32cd" stroke-dasharray="5,2" d="M864.12,-144.78C906.46,-141.6 963,-137.37 1008.01,-133.99"/>
<polygon fill="#9a32cd" stroke="#9a32cd" points="864.07,-141.27 854.36,-145.51 864.6,-148.25 864.07,-141.27"/>
</a>
</g>
<text text-anchor="middle" x="945.88" y="-144.62" font-family="Helvetica,sans-Serif" font-size="10.00" fill="grey"> bdev_name</text>
</g>
</g>
</svg>

<g id="navigator" transform="translate(0 0)" fill="#404254">
  <rect fill="#f2f5e9" fill-opacity="0.5" stroke="#606060" stroke-width=".5" x="0" y="0" width="60" height="60"/>
  <use id="zoomplus" xlink:href="#zoomPlus" x="17" y="9" onmousedown="handleZoom(evt,'in')"/>
  <use id="zoomminus" xlink:href="#zoomMin" x="42" y="9" onmousedown="handleZoom(evt,'out')"/>
  <use id="reset" xlink:href="#resetDef" x="30" y="36" onmousedown="handleReset()"/>
   <use id="arrowup" xlink:href="#arrowUp" x="0" y="0" onmousedown="handlePan(0,-1)"/>
  <use id="arrowright" xlink:href="#arrowRight" x="0" y="0" onmousedown="handlePan(1,0)"/>
  <use id="arrowdown" xlink:href="#arrowDown" x="0" y="0" onmousedown="handlePan(0,1)"/>
  <use id="arrowleft" xlink:href="#arrowLeft" x="0" y="0" onmousedown="handlePan(-1,0)"/>
</g>
<svg viewBox="0 0 15 15" width="100%" height="30px" preserveAspectRatio="xMaxYMin meet">
 <g id="arrow_out" transform="scale(0.3 0.3)">
  <a xlink:href="structspdk__bdev__coll__graph_org.svg" target="_base">
   <rect id="button" ry="5" rx="5" y="6" x="6" height="38" width="38"
        fill="#f2f5e9" fill-opacity="0.5" stroke="#606060" stroke-width="1.0"/>
   <path id="arrow"
     d="M 11.500037,31.436501 C 11.940474,20.09759 22.043105,11.32322 32.158766,21.979434 L 37.068811,17.246167 C 37.068811,17.246167 37.088388,32 37.088388,32 L 22.160133,31.978069 C 22.160133,31.978069 26.997745,27.140456 26.997745,27.140456 C 18.528582,18.264221 13.291696,25.230495 11.500037,31.436501 z"
     style="fill:#404040;"/>
  </a>
 </g>
</svg>

<style type='text/css'>
<![CDATA[
[data-mouse-over-selected='false'] { opacity: 0.7; }
[data-mouse-over-selected='true']  { opacity: 1.0; }
]]>
</style>
<script type="application/ecmascript"><![CDATA[
document.addEventListener('DOMContentLoaded', (event) => {
  highlightEdges();
  highlightAdjacentNodes();
});
]]></script>
</svg>
