<?xml version="1.0" encoding="UTF-8" standalone="no"?>
<!DOCTYPE svg PUBLIC "-//W3C//DTD SVG 1.1//EN"
 "http://www.w3.org/Graphics/SVG/1.1/DTD/svg11.dtd">
<!-- Generated by graphviz version 9.0.0 (20230911.1827)
 -->
<!-- Title: spdk_nvmf_registers Pages: 1 -->
<svg width="324pt" height="185pt"
 viewBox="0.00 0.00 324.25 184.75" xmlns="http://www.w3.org/2000/svg" xmlns:xlink="http://www.w3.org/1999/xlink">

<svg id="main" version="1.1" xmlns="http://www.w3.org/2000/svg" xmlns:xlink="http://www.w3.org/1999/xlink" xml:space="preserve" onload="init(evt)">
<style type="text/css"><![CDATA[
.node, .edge {opacity: 0.7;}
.node.selected, .edge.selected {opacity: 1;}
.edge:hover path { stroke: red; }
.edge:hover polygon { stroke: red; fill: red; }
]]></style>
<script type="application/ecmascript" xlink:href="svg.min.js"/>
<svg id="graph" class="graph">
<g id="graph0" class="graph" transform="scale(1 1) rotate(0) translate(4 180.75)">
<title>spdk_nvmf_registers</title>
<!-- Node1 -->
<g id="Node000001" class="node">
<title>Node1</title>
<g id="a_Node000001"><a xlink:title="A subset of struct spdk_nvme_registers that are emulated by a fabrics device.">
<polygon fill="#999999" stroke="#666666" points="316.25,-98.75 198.25,-98.75 198.25,-78 316.25,-78 316.25,-98.75"/>
<text text-anchor="middle" x="257.25" y="-85.25" font-family="Helvetica,sans-Serif" font-size="10.00">spdk_nvmf_registers</text>
</a>
</g>
</g>
<!-- Node2 -->
<g id="Node000002" class="node">
<title>Node2</title>
<g id="a_Node000002"><a xlink:href="unionspdk__nvme__cap__register.html" target="_top" xlink:title=" ">
<polygon fill="white" stroke="#bfbfbf" points="138.62,-176.75 1.12,-176.75 1.12,-156 138.62,-156 138.62,-176.75"/>
<text text-anchor="middle" x="69.88" y="-163.25" font-family="Helvetica,sans-Serif" font-size="10.00">spdk_nvme_cap_register</text>
</a>
</g>
</g>
<!-- Node2&#45;&gt;Node1 -->
<g id="edge1_Node000001_Node000002" class="edge">
<title>Node2&#45;&gt;Node1</title>
<g id="a_edge1_Node000001_Node000002"><a xlink:title=" ">
<path fill="none" stroke="#9a32cd" stroke-dasharray="5,2" d="M123.21,-152.23C128.84,-150.4 134.45,-148.44 139.75,-146.38 175.34,-132.54 214.71,-111.7 237.36,-99.13"/>
<polygon fill="#9a32cd" stroke="#9a32cd" points="122.38,-148.83 113.87,-155.14 124.46,-155.51 122.38,-148.83"/>
</a>
</g>
<text text-anchor="middle" x="169" y="-140.62" font-family="Helvetica,sans-Serif" font-size="10.00" fill="grey"> cap</text>
</g>
<!-- Node3 -->
<g id="Node000003" class="node">
<title>Node3</title>
<g id="a_Node000003"><a xlink:href="unionspdk__nvme__vs__register.html" target="_top" xlink:title=" ">
<polygon fill="white" stroke="#bfbfbf" points="135.62,-137.75 4.12,-137.75 4.12,-117 135.62,-117 135.62,-137.75"/>
<text text-anchor="middle" x="69.88" y="-124.25" font-family="Helvetica,sans-Serif" font-size="10.00">spdk_nvme_vs_register</text>
</a>
</g>
</g>
<!-- Node3&#45;&gt;Node1 -->
<g id="edge2_Node000001_Node000003" class="edge">
<title>Node3&#45;&gt;Node1</title>
<g id="a_edge2_Node000001_Node000003"><a xlink:title=" ">
<path fill="none" stroke="#9a32cd" stroke-dasharray="5,2" d="M137.22,-114.27C151.43,-111.4 166.35,-108.33 180.25,-105.38 189.38,-103.44 199.1,-101.31 208.45,-99.23"/>
<polygon fill="#9a32cd" stroke="#9a32cd" points="136.6,-110.82 127.49,-116.23 137.98,-117.69 136.6,-110.82"/>
</a>
</g>
<text text-anchor="middle" x="169" y="-112.62" font-family="Helvetica,sans-Serif" font-size="10.00" fill="grey"> vs</text>
</g>
<!-- Node4 -->
<g id="Node000004" class="node">
<title>Node4</title>
<g id="a_Node000004"><a xlink:href="unionspdk__nvme__cc__register.html" target="_top" xlink:title=" ">
<polygon fill="white" stroke="#bfbfbf" points="135.25,-98.75 4.5,-98.75 4.5,-78 135.25,-78 135.25,-98.75"/>
<text text-anchor="middle" x="69.88" y="-85.25" font-family="Helvetica,sans-Serif" font-size="10.00">spdk_nvme_cc_register</text>
</a>
</g>
</g>
<!-- Node4&#45;&gt;Node1 -->
<g id="edge3_Node000001_Node000004" class="edge">
<title>Node4&#45;&gt;Node1</title>
<g id="a_edge3_Node000001_Node000004"><a xlink:title=" ">
<path fill="none" stroke="#9a32cd" stroke-dasharray="5,2" d="M146.79,-88.38C163.87,-88.38 181.73,-88.38 197.95,-88.38"/>
<polygon fill="#9a32cd" stroke="#9a32cd" points="147.22,-84.88 137.22,-88.38 147.22,-91.88 147.22,-84.88"/>
</a>
</g>
<text text-anchor="middle" x="169" y="-91.62" font-family="Helvetica,sans-Serif" font-size="10.00" fill="grey"> cc</text>
</g>
<!-- Node5 -->
<g id="Node000005" class="node">
<title>Node5</title>
<g id="a_Node000005"><a xlink:href="unionspdk__nvme__csts__register.html" target="_top" xlink:title=" ">
<polygon fill="white" stroke="#bfbfbf" points="139.75,-59.75 0,-59.75 0,-39 139.75,-39 139.75,-59.75"/>
<text text-anchor="middle" x="69.88" y="-46.25" font-family="Helvetica,sans-Serif" font-size="10.00">spdk_nvme_csts_register</text>
</a>
</g>
</g>
<!-- Node5&#45;&gt;Node1 -->
<g id="edge4_Node000001_Node000005" class="edge">
<title>Node5&#45;&gt;Node1</title>
<g id="a_edge4_Node000001_Node000005"><a xlink:title=" ">
<path fill="none" stroke="#9a32cd" stroke-dasharray="5,2" d="M136.09,-62.46C150.63,-65.43 165.97,-68.6 180.25,-71.62 189.11,-73.5 198.53,-75.54 207.62,-77.53"/>
<polygon fill="#9a32cd" stroke="#9a32cd" points="137.13,-59.1 126.64,-60.54 135.74,-65.96 137.13,-59.1"/>
</a>
</g>
<text text-anchor="middle" x="169" y="-74.62" font-family="Helvetica,sans-Serif" font-size="10.00" fill="grey"> csts</text>
</g>
<!-- Node6 -->
<g id="Node000006" class="node">
<title>Node6</title>
<g id="a_Node000006"><a xlink:href="unionspdk__nvme__aqa__register.html" target="_top" xlink:title=" ">
<polygon fill="white" stroke="#bfbfbf" points="139,-20.75 0.75,-20.75 0.75,0 139,0 139,-20.75"/>
<text text-anchor="middle" x="69.88" y="-7.25" font-family="Helvetica,sans-Serif" font-size="10.00">spdk_nvme_aqa_register</text>
</a>
</g>
</g>
<!-- Node6&#45;&gt;Node1 -->
<g id="edge5_Node000001_Node000006" class="edge">
<title>Node6&#45;&gt;Node1</title>
<g id="a_edge5_Node000001_Node000006"><a xlink:title=" ">
<path fill="none" stroke="#9a32cd" stroke-dasharray="5,2" d="M122.95,-24.53C128.67,-26.36 134.36,-28.33 139.75,-30.38 175.44,-43.94 214.78,-64.87 237.4,-77.53"/>
<polygon fill="#9a32cd" stroke="#9a32cd" points="124.06,-21.2 113.47,-21.59 121.99,-27.89 124.06,-21.2"/>
</a>
</g>
<text text-anchor="middle" x="169" y="-49.62" font-family="Helvetica,sans-Serif" font-size="10.00" fill="grey"> aqa</text>
</g>
</g>
</svg>
</svg>

<style type='text/css'>
<![CDATA[
[data-mouse-over-selected='false'] { opacity: 0.7; }
[data-mouse-over-selected='true']  { opacity: 1.0; }
]]>
</style>
<script type="application/ecmascript"><![CDATA[
document.addEventListener('DOMContentLoaded', (event) => {
  highlightEdges();
  highlightAdjacentNodes();
});
]]></script>
</svg>
