<?xml version="1.0" encoding="UTF-8" standalone="no"?>
<!DOCTYPE svg PUBLIC "-//W3C//DTD SVG 1.1//EN"
 "http://www.w3.org/Graphics/SVG/1.1/DTD/svg11.dtd">
<!-- Generated by graphviz version 9.0.0 (20230911.1827)
 -->
<!-- Title: spdk_nvme_poll_group_stat Pages: 1 -->
<svg width="447pt" height="181pt"
 viewBox="0.00 0.00 446.50 180.50" xmlns="http://www.w3.org/2000/svg" xmlns:xlink="http://www.w3.org/1999/xlink">
<g id="graph0" class="graph" transform="scale(1 1) rotate(0) translate(4 176.5)">
<title>spdk_nvme_poll_group_stat</title>
<!-- Node1 -->
<g id="Node000001" class="node">
<title>Node1</title>
<g id="a_Node000001"><a xlink:title=" ">
<polygon fill="#999999" stroke="#666666" points="319.5,-20.75 167,-20.75 167,0 319.5,0 319.5,-20.75"/>
<text text-anchor="middle" x="243.25" y="-7.25" font-family="Helvetica,sans-Serif" font-size="10.00">spdk_nvme_poll_group_stat</text>
</a>
</g>
</g>
<!-- Node2 -->
<g id="Node000002" class="node">
<title>Node2</title>
<g id="a_Node000002"><a xlink:href="structspdk__nvme__transport__poll__group__stat.html" target="_top" xlink:title=" ">
<polygon fill="white" stroke="#bfbfbf" points="304.12,-103 182.38,-103 182.38,-69.5 304.12,-69.5 304.12,-103"/>
<text text-anchor="start" x="190.38" y="-89.5" font-family="Helvetica,sans-Serif" font-size="10.00">spdk_nvme_transport</text>
<text text-anchor="middle" x="243.25" y="-76.75" font-family="Helvetica,sans-Serif" font-size="10.00">_poll_group_stat</text>
</a>
</g>
</g>
<!-- Node2&#45;&gt;Node1 -->
<g id="edge1_Node000001_Node000002" class="edge">
<title>Node2&#45;&gt;Node1</title>
<g id="a_edge1_Node000001_Node000002"><a xlink:title=" ">
<path fill="none" stroke="#9a32cd" stroke-dasharray="5,2" d="M243.25,-57.95C243.25,-44.92 243.25,-30.18 243.25,-20.83"/>
<polygon fill="#9a32cd" stroke="#9a32cd" points="239.75,-57.71 243.25,-67.71 246.75,-57.71 239.75,-57.71"/>
</a>
</g>
<text text-anchor="middle" x="278.88" y="-42" font-family="Helvetica,sans-Serif" font-size="10.00" fill="grey"> transport_stat</text>
</g>
<!-- Node3 -->
<g id="Node000003" class="node">
<title>Node3</title>
<g id="a_Node000003"><a xlink:href="structspdk__nvme__rdma__device__stat.html" target="_top" xlink:title=" ">
<polygon fill="white" stroke="#bfbfbf" points="164.5,-172.5 0,-172.5 0,-151.75 164.5,-151.75 164.5,-172.5"/>
<text text-anchor="middle" x="82.25" y="-159" font-family="Helvetica,sans-Serif" font-size="10.00">spdk_nvme_rdma_device_stat</text>
</a>
</g>
</g>
<!-- Node3&#45;&gt;Node2 -->
<g id="edge2_Node000002_Node000003" class="edge">
<title>Node3&#45;&gt;Node2</title>
<g id="a_edge2_Node000002_Node000003"><a xlink:title=" ">
<path fill="none" stroke="#9a32cd" stroke-dasharray="5,2" d="M114.08,-146.52C141.12,-134.11 179.89,-116.32 207.89,-103.47"/>
<polygon fill="#9a32cd" stroke="#9a32cd" points="112.63,-143.33 105.01,-150.68 115.55,-149.69 112.63,-143.33"/>
</a>
</g>
<text text-anchor="middle" x="200.5" y="-124.25" font-family="Helvetica,sans-Serif" font-size="10.00" fill="grey"> device_stats</text>
</g>
<!-- Node4 -->
<g id="Node000004" class="node">
<title>Node4</title>
<g id="a_Node000004"><a xlink:href="structspdk__nvme__pcie__stat.html" target="_top" xlink:title=" ">
<polygon fill="white" stroke="#bfbfbf" points="304.12,-172.5 182.38,-172.5 182.38,-151.75 304.12,-151.75 304.12,-172.5"/>
<text text-anchor="middle" x="243.25" y="-159" font-family="Helvetica,sans-Serif" font-size="10.00">spdk_nvme_pcie_stat</text>
</a>
</g>
</g>
<!-- Node4&#45;&gt;Node2 -->
<g id="edge3_Node000002_Node000004" class="edge">
<title>Node4&#45;&gt;Node2</title>
<g id="a_edge3_Node000002_Node000004"><a xlink:title=" ">
<path fill="none" stroke="#9a32cd" stroke-dasharray="5,2" d="M243.25,-140.13C243.25,-128.47 243.25,-114.19 243.25,-103.41"/>
<polygon fill="#9a32cd" stroke="#9a32cd" points="239.75,-139.95 243.25,-149.95 246.75,-139.95 239.75,-139.95"/>
</a>
</g>
<text text-anchor="middle" x="254.88" y="-124.25" font-family="Helvetica,sans-Serif" font-size="10.00" fill="grey"> pcie</text>
</g>
<!-- Node5 -->
<g id="Node000005" class="node">
<title>Node5</title>
<g id="a_Node000005"><a xlink:href="structspdk__nvme__tcp__stat.html" target="_top" xlink:title=" ">
<polygon fill="white" stroke="#bfbfbf" points="438.5,-172.5 322,-172.5 322,-151.75 438.5,-151.75 438.5,-172.5"/>
<text text-anchor="middle" x="380.25" y="-159" font-family="Helvetica,sans-Serif" font-size="10.00">spdk_nvme_tcp_stat</text>
</a>
</g>
</g>
<!-- Node5&#45;&gt;Node2 -->
<g id="edge4_Node000002_Node000005" class="edge">
<title>Node5&#45;&gt;Node2</title>
<g id="a_edge4_Node000002_Node000005"><a xlink:title=" ">
<path fill="none" stroke="#9a32cd" stroke-dasharray="5,2" d="M351.93,-145.85C328.99,-133.48 296.74,-116.09 273.34,-103.47"/>
<polygon fill="#9a32cd" stroke="#9a32cd" points="350.26,-148.93 360.73,-150.6 353.58,-142.77 350.26,-148.93"/>
</a>
</g>
<text text-anchor="middle" x="336.25" y="-124.25" font-family="Helvetica,sans-Serif" font-size="10.00" fill="grey"> tcp</text>
</g>
</g>
</svg>
