<?xml version="1.0" encoding="UTF-8" standalone="no"?>
<!DOCTYPE svg PUBLIC "-//W3C//DTD SVG 1.1//EN"
 "http://www.w3.org/Graphics/SVG/1.1/DTD/svg11.dtd">
<!-- Generated by graphviz version 9.0.0 (20230911.1827)
 -->
<!-- Title: spdk_nvmf_ctrlr_data Pages: 1 -->
<svg width="372pt" height="197pt"
 viewBox="0.00 0.00 372.25 197.12" xmlns="http://www.w3.org/2000/svg" xmlns:xlink="http://www.w3.org/1999/xlink">
<g id="graph0" class="graph" transform="scale(1 1) rotate(0) translate(4 193.12)">
<title>spdk_nvmf_ctrlr_data</title>
<!-- Node1 -->
<g id="Node000001" class="node">
<title>Node1</title>
<g id="a_Node000001"><a xlink:title="A subset of struct spdk_nvme_ctrlr_data that are emulated by a fabrics device.">
<polygon fill="#999999" stroke="#666666" points="364.25,-111.12 242.5,-111.12 242.5,-90.38 364.25,-90.38 364.25,-111.12"/>
<text text-anchor="middle" x="303.38" y="-97.62" font-family="Helvetica,sans-Serif" font-size="10.00">spdk_nvmf_ctrlr_data</text>
</a>
</g>
</g>
<!-- Node2 -->
<g id="Node000002" class="node">
<title>Node2</title>
<g id="a_Node000002"><a xlink:href="structspdk__nvme__cdata__oacs.html" target="_top" xlink:title=" ">
<polygon fill="white" stroke="#bfbfbf" points="134.12,-189.12 1.88,-189.12 1.88,-168.38 134.12,-168.38 134.12,-189.12"/>
<text text-anchor="middle" x="68" y="-175.62" font-family="Helvetica,sans-Serif" font-size="10.00">spdk_nvme_cdata_oacs</text>
</a>
</g>
</g>
<!-- Node2&#45;&gt;Node1 -->
<g id="edge1_Node000001_Node000002" class="edge">
<title>Node2&#45;&gt;Node1</title>
<g id="a_edge1_Node000001_Node000002"><a xlink:title=" ">
<path fill="none" stroke="#9a32cd" stroke-dasharray="5,2" d="M145.71,-166.71C171.25,-161.46 199.54,-154.28 224.5,-144.75 247.28,-136.05 271.41,-121.47 286.66,-111.5"/>
<polygon fill="#9a32cd" stroke="#9a32cd" points="145.18,-163.25 136.05,-168.62 146.54,-170.11 145.18,-163.25"/>
</a>
</g>
<text text-anchor="middle" x="189.25" y="-167" font-family="Helvetica,sans-Serif" font-size="10.00" fill="grey"> oacs</text>
</g>
<!-- Node3 -->
<g id="Node000003" class="node">
<title>Node3</title>
<g id="a_Node000003"><a xlink:href="structspdk__nvme__cdata__oncs.html" target="_top" xlink:title="Identify Controller data Optional NVM Command Support.">
<polygon fill="white" stroke="#666666" points="134.12,-150.12 1.88,-150.12 1.88,-129.38 134.12,-129.38 134.12,-150.12"/>
<text text-anchor="middle" x="68" y="-136.62" font-family="Helvetica,sans-Serif" font-size="10.00">spdk_nvme_cdata_oncs</text>
</a>
</g>
</g>
<!-- Node3&#45;&gt;Node1 -->
<g id="edge2_Node000001_Node000003" class="edge">
<title>Node3&#45;&gt;Node1</title>
<g id="a_edge2_Node000001_Node000003"><a xlink:title=" ">
<path fill="none" stroke="#9a32cd" stroke-dasharray="5,2" d="M145.93,-130.02C171.04,-126.54 199.02,-122.33 224.5,-117.75 234.58,-115.94 245.34,-113.76 255.54,-111.56"/>
<polygon fill="#9a32cd" stroke="#9a32cd" points="145.55,-126.54 136.12,-131.36 146.5,-133.47 145.55,-126.54"/>
</a>
</g>
<text text-anchor="middle" x="189.25" y="-131" font-family="Helvetica,sans-Serif" font-size="10.00" fill="grey"> oncs</text>
</g>
<!-- Node4 -->
<g id="Node000004" class="node">
<title>Node4</title>
<g id="a_Node000004"><a xlink:href="structspdk__nvme__cdata__fuses.html" target="_top" xlink:title=" ">
<polygon fill="white" stroke="#bfbfbf" points="136,-111.12 0,-111.12 0,-90.38 136,-90.38 136,-111.12"/>
<text text-anchor="middle" x="68" y="-97.62" font-family="Helvetica,sans-Serif" font-size="10.00">spdk_nvme_cdata_fuses</text>
</a>
</g>
</g>
<!-- Node4&#45;&gt;Node1 -->
<g id="edge3_Node000001_Node000004" class="edge">
<title>Node4&#45;&gt;Node1</title>
<g id="a_edge3_Node000001_Node000004"><a xlink:title=" ">
<path fill="none" stroke="#9a32cd" stroke-dasharray="5,2" d="M147.37,-100.75C178.25,-100.75 213.16,-100.75 242.02,-100.75"/>
<polygon fill="#9a32cd" stroke="#9a32cd" points="147.7,-97.25 137.7,-100.75 147.7,-104.25 147.7,-97.25"/>
</a>
</g>
<text text-anchor="middle" x="189.25" y="-104" font-family="Helvetica,sans-Serif" font-size="10.00" fill="grey"> fuses</text>
</g>
<!-- Node5 -->
<g id="Node000005" class="node">
<title>Node5</title>
<g id="a_Node000005"><a xlink:href="structspdk__nvme__cdata__sgls.html" target="_top" xlink:title="Identify Controller data SGL support.">
<polygon fill="white" stroke="#666666" points="132.62,-72.12 3.38,-72.12 3.38,-51.38 132.62,-51.38 132.62,-72.12"/>
<text text-anchor="middle" x="68" y="-58.62" font-family="Helvetica,sans-Serif" font-size="10.00">spdk_nvme_cdata_sgls</text>
</a>
</g>
</g>
<!-- Node5&#45;&gt;Node1 -->
<g id="edge4_Node000001_Node000005" class="edge">
<title>Node5&#45;&gt;Node1</title>
<g id="a_edge4_Node000001_Node000005"><a xlink:title=" ">
<path fill="none" stroke="#9a32cd" stroke-dasharray="5,2" d="M144.21,-71.43C169.75,-75.01 198.43,-79.34 224.5,-84 234.3,-85.75 244.75,-87.85 254.71,-89.95"/>
<polygon fill="#9a32cd" stroke="#9a32cd" points="144.97,-68.01 134.59,-70.1 144.02,-74.94 144.97,-68.01"/>
</a>
</g>
<text text-anchor="middle" x="189.25" y="-87" font-family="Helvetica,sans-Serif" font-size="10.00" fill="grey"> sgls</text>
</g>
<!-- Node6 -->
<g id="Node000006" class="node">
<title>Node6</title>
<g id="a_Node000006"><a xlink:href="structspdk__nvme__cdata__nvmf__specific.html" target="_top" xlink:title="Identify Controller data NVMe over Fabrics&#45;specific fields.">
<polygon fill="white" stroke="#666666" points="135.62,-33.5 0.38,-33.5 0.38,0 135.62,0 135.62,-33.5"/>
<text text-anchor="start" x="8.38" y="-20" font-family="Helvetica,sans-Serif" font-size="10.00">spdk_nvme_cdata_nvmf</text>
<text text-anchor="middle" x="68" y="-7.25" font-family="Helvetica,sans-Serif" font-size="10.00">_specific</text>
</a>
</g>
</g>
<!-- Node6&#45;&gt;Node1 -->
<g id="edge5_Node000001_Node000006" class="edge">
<title>Node6&#45;&gt;Node1</title>
<g id="a_edge5_Node000001_Node000006"><a xlink:title=" ">
<path fill="none" stroke="#9a32cd" stroke-dasharray="5,2" d="M147.1,-32.04C172.27,-38.13 199.99,-46.09 224.5,-56 247.19,-65.18 271.34,-79.93 286.63,-89.97"/>
<polygon fill="#9a32cd" stroke="#9a32cd" points="148.11,-28.68 137.58,-29.8 146.51,-35.49 148.11,-28.68"/>
</a>
</g>
<text text-anchor="middle" x="189.25" y="-59" font-family="Helvetica,sans-Serif" font-size="10.00" fill="grey"> nvmf_specific</text>
</g>
</g>
</svg>
