<?xml version="1.0" encoding="UTF-8" standalone="no"?>
<!DOCTYPE svg PUBLIC "-//W3C//DTD SVG 1.1//EN"
 "http://www.w3.org/Graphics/SVG/1.1/DTD/svg11.dtd">
<!-- Generated by graphviz version 9.0.0 (20230911.1827)
 -->
<!-- Title: spdk_nvme_cmd_cdw11 Pages: 1 -->
<svg width="672pt" height="876pt"
 viewBox="0.00 0.00 671.75 876.15" xmlns="http://www.w3.org/2000/svg" xmlns:xlink="http://www.w3.org/1999/xlink">
<g id="graph0" class="graph" transform="scale(1 1) rotate(0) translate(4 872.15)">
<title>spdk_nvme_cmd_cdw11</title>
<!-- Node1 -->
<g id="Node000001" class="node">
<title>Node1</title>
<g id="a_Node000001"><a xlink:title=" ">
<polygon fill="#999999" stroke="#666666" points="663.75,-443.77 528.5,-443.77 528.5,-423.02 663.75,-423.02 663.75,-443.77"/>
<text text-anchor="middle" x="596.12" y="-430.27" font-family="Helvetica,sans-Serif" font-size="10.00">spdk_nvme_cmd_cdw11</text>
</a>
</g>
</g>
<!-- Node2 -->
<g id="Node000002" class="node">
<title>Node2</title>
<g id="a_Node000002"><a xlink:href="unionspdk__nvme__feat__arbitration.html" target="_top" xlink:title="Data used by Set Features/Get Features SPDK_NVME_FEAT_ARBITRATION.">
<polygon fill="white" stroke="#666666" points="352.62,-852.77 199.38,-852.77 199.38,-832.02 352.62,-832.02 352.62,-852.77"/>
<text text-anchor="middle" x="276" y="-839.27" font-family="Helvetica,sans-Serif" font-size="10.00">spdk_nvme_feat_arbitration</text>
</a>
</g>
</g>
<!-- Node2&#45;&gt;Node1 -->
<g id="edge1_Node000001_Node000002" class="edge">
<title>Node2&#45;&gt;Node1</title>
<g id="a_edge1_Node000001_Node000002"><a xlink:title=" ">
<path fill="none" stroke="#9a32cd" stroke-dasharray="5,2" d="M350.07,-854.27C401.2,-858.22 467.75,-853.96 510.5,-815.4 568,-763.53 590.2,-501.04 594.37,-444.25"/>
<polygon fill="#9a32cd" stroke="#9a32cd" points="350.53,-850.8 340.26,-853.38 349.9,-857.77 350.53,-850.8"/>
</a>
</g>
<text text-anchor="middle" x="443" y="-858.65" font-family="Helvetica,sans-Serif" font-size="10.00" fill="grey"> feat_arbitration</text>
</g>
<!-- Node3 -->
<g id="Node000003" class="node">
<title>Node3</title>
<g id="a_Node000003"><a xlink:href="unionspdk__nvme__feat__power__management.html" target="_top" xlink:title="Data used by Set Features/Get Features SPDK_NVME_FEAT_POWER_MANAGEMENT.">
<polygon fill="white" stroke="#666666" points="342.12,-814.15 209.88,-814.15 209.88,-780.65 342.12,-780.65 342.12,-814.15"/>
<text text-anchor="start" x="217.88" y="-800.65" font-family="Helvetica,sans-Serif" font-size="10.00">spdk_nvme_feat_power</text>
<text text-anchor="middle" x="276" y="-787.9" font-family="Helvetica,sans-Serif" font-size="10.00">_management</text>
</a>
</g>
</g>
<!-- Node3&#45;&gt;Node1 -->
<g id="edge2_Node000001_Node000003" class="edge">
<title>Node3&#45;&gt;Node1</title>
<g id="a_edge2_Node000001_Node000003"><a xlink:title=" ">
<path fill="none" stroke="#9a32cd" stroke-dasharray="5,2" d="M353.62,-799.46C412.52,-799.38 487.57,-795.15 510.5,-775.4 562.98,-730.19 588.84,-497.26 594.1,-444.17"/>
<polygon fill="#9a32cd" stroke="#9a32cd" points="353.98,-795.96 343.97,-799.43 353.96,-802.96 353.98,-795.96"/>
</a>
</g>
<text text-anchor="middle" x="443" y="-801.65" font-family="Helvetica,sans-Serif" font-size="10.00" fill="grey"> feat_power_management</text>
</g>
<!-- Node4 -->
<g id="Node000004" class="node">
<title>Node4</title>
<g id="a_Node000004"><a xlink:href="unionspdk__nvme__feat__lba__range__type.html" target="_top" xlink:title="Data used by Set Features/Get Features SPDK_NVME_FEAT_LBA_RANGE_TYPE.">
<polygon fill="white" stroke="#666666" points="334.62,-762.15 217.38,-762.15 217.38,-728.65 334.62,-728.65 334.62,-762.15"/>
<text text-anchor="start" x="225.38" y="-748.65" font-family="Helvetica,sans-Serif" font-size="10.00">spdk_nvme_feat_lba</text>
<text text-anchor="middle" x="276" y="-735.9" font-family="Helvetica,sans-Serif" font-size="10.00">_range_type</text>
</a>
</g>
</g>
<!-- Node4&#45;&gt;Node1 -->
<g id="edge3_Node000001_Node000004" class="edge">
<title>Node4&#45;&gt;Node1</title>
<g id="a_edge3_Node000001_Node000004"><a xlink:title=" ">
<path fill="none" stroke="#9a32cd" stroke-dasharray="5,2" d="M346.2,-757.19C397.26,-761.82 465.42,-758.89 510.5,-721.4 555.38,-684.08 586.51,-491.57 593.59,-444.02"/>
<polygon fill="#9a32cd" stroke="#9a32cd" points="346.74,-753.73 336.44,-756.18 346.02,-760.69 346.74,-753.73"/>
</a>
</g>
<text text-anchor="middle" x="443" y="-761.65" font-family="Helvetica,sans-Serif" font-size="10.00" fill="grey"> feat_lba_range_type</text>
</g>
<!-- Node5 -->
<g id="Node000005" class="node">
<title>Node5</title>
<g id="a_Node000005"><a xlink:href="unionspdk__nvme__feat__temperature__threshold.html" target="_top" xlink:title="Data used by Set Features/Get Features SPDK_NVME_FEAT_TEMPERATURE_THRESHOLD.">
<polygon fill="white" stroke="#666666" points="357.5,-710.15 194.5,-710.15 194.5,-676.65 357.5,-676.65 357.5,-710.15"/>
<text text-anchor="start" x="202.5" y="-696.65" font-family="Helvetica,sans-Serif" font-size="10.00">spdk_nvme_feat_temperature</text>
<text text-anchor="middle" x="276" y="-683.9" font-family="Helvetica,sans-Serif" font-size="10.00">_threshold</text>
</a>
</g>
</g>
<!-- Node5&#45;&gt;Node1 -->
<g id="edge4_Node000001_Node000005" class="edge">
<title>Node5&#45;&gt;Node1</title>
<g id="a_edge4_Node000001_Node000005"><a xlink:title=" ">
<path fill="none" stroke="#9a32cd" stroke-dasharray="5,2" d="M369.34,-705.27C416.16,-706.29 471.26,-699.23 510.5,-668.4 584.5,-610.27 593.85,-481.83 594.98,-444.05"/>
<polygon fill="#9a32cd" stroke="#9a32cd" points="369.57,-701.77 359.45,-704.91 369.32,-708.77 369.57,-701.77"/>
</a>
</g>
<text text-anchor="middle" x="443" y="-707.65" font-family="Helvetica,sans-Serif" font-size="10.00" fill="grey"> feat_temp_threshold</text>
</g>
<!-- Node6 -->
<g id="Node000006" class="node">
<title>Node6</title>
<g id="a_Node000006"><a xlink:href="unionspdk__nvme__feat__error__recovery.html" target="_top" xlink:title="Data used by Set Features/Get Features SPDK_NVME_FEAT_ERROR_RECOVERY.">
<polygon fill="white" stroke="#666666" points="338.75,-658.15 213.25,-658.15 213.25,-624.65 338.75,-624.65 338.75,-658.15"/>
<text text-anchor="start" x="221.25" y="-644.65" font-family="Helvetica,sans-Serif" font-size="10.00">spdk_nvme_feat_error</text>
<text text-anchor="middle" x="276" y="-631.9" font-family="Helvetica,sans-Serif" font-size="10.00">_recovery</text>
</a>
</g>
</g>
<!-- Node6&#45;&gt;Node1 -->
<g id="edge5_Node000001_Node000006" class="edge">
<title>Node6&#45;&gt;Node1</title>
<g id="a_edge5_Node000001_Node000006"><a xlink:title=" ">
<path fill="none" stroke="#9a32cd" stroke-dasharray="5,2" d="M350.45,-651.23C400.07,-653.92 464.63,-649.3 510.5,-616.4 570.8,-573.15 589.26,-476.03 593.83,-443.92"/>
<polygon fill="#9a32cd" stroke="#9a32cd" points="350.87,-647.75 340.66,-650.58 350.41,-654.74 350.87,-647.75"/>
</a>
</g>
<text text-anchor="middle" x="443" y="-654.65" font-family="Helvetica,sans-Serif" font-size="10.00" fill="grey"> feat_error_recovery</text>
</g>
<!-- Node7 -->
<g id="Node000007" class="node">
<title>Node7</title>
<g id="a_Node000007"><a xlink:href="unionspdk__nvme__feat__volatile__write__cache.html" target="_top" xlink:title="Data used by Set Features/Get Features SPDK_NVME_FEAT_VOLATILE_WRITE_CACHE.">
<polygon fill="white" stroke="#666666" points="345.5,-606.15 206.5,-606.15 206.5,-572.65 345.5,-572.65 345.5,-606.15"/>
<text text-anchor="start" x="214.5" y="-592.65" font-family="Helvetica,sans-Serif" font-size="10.00">spdk_nvme_feat_volatile</text>
<text text-anchor="middle" x="276" y="-579.9" font-family="Helvetica,sans-Serif" font-size="10.00">_write_cache</text>
</a>
</g>
</g>
<!-- Node7&#45;&gt;Node1 -->
<g id="edge6_Node000001_Node000007" class="edge">
<title>Node7&#45;&gt;Node1</title>
<g id="a_edge6_Node000001_Node000007"><a xlink:title=" ">
<path fill="none" stroke="#9a32cd" stroke-dasharray="5,2" d="M357.08,-588.99C404.75,-585.41 464.69,-574.8 510.5,-546.4 551.74,-520.82 579.81,-467.21 590.41,-444.23"/>
<polygon fill="#9a32cd" stroke="#9a32cd" points="357.12,-585.48 347.37,-589.62 357.58,-592.46 357.12,-585.48"/>
</a>
</g>
<text text-anchor="start" x="395.75" y="-602.4" font-family="Helvetica,sans-Serif" font-size="10.00" fill="grey"> feat_volatile_write</text>
<text text-anchor="middle" x="443" y="-589.65" font-family="Helvetica,sans-Serif" font-size="10.00" fill="grey">_cache</text>
</g>
<!-- Node8 -->
<g id="Node000008" class="node">
<title>Node8</title>
<g id="a_Node000008"><a xlink:href="unionspdk__nvme__feat__number__of__queues.html" target="_top" xlink:title="Data used by Set Features/Get Features SPDK_NVME_FEAT_NUMBER_OF_QUEUES.">
<polygon fill="white" stroke="#666666" points="345.88,-554.15 206.12,-554.15 206.12,-520.65 345.88,-520.65 345.88,-554.15"/>
<text text-anchor="start" x="214.12" y="-540.65" font-family="Helvetica,sans-Serif" font-size="10.00">spdk_nvme_feat_number</text>
<text text-anchor="middle" x="276" y="-527.9" font-family="Helvetica,sans-Serif" font-size="10.00">_of_queues</text>
</a>
</g>
</g>
<!-- Node8&#45;&gt;Node1 -->
<g id="edge7_Node000001_Node000008" class="edge">
<title>Node8&#45;&gt;Node1</title>
<g id="a_edge7_Node000001_Node000008"><a xlink:title=" ">
<path fill="none" stroke="#9a32cd" stroke-dasharray="5,2" d="M357.32,-533.11C403.65,-528.34 462.12,-518.34 510.5,-497.4 540.59,-484.37 569.75,-458.52 584.72,-443.97"/>
<polygon fill="#9a32cd" stroke="#9a32cd" points="357.25,-529.6 347.63,-534.04 357.92,-536.56 357.25,-529.6"/>
</a>
</g>
<text text-anchor="middle" x="443" y="-532.65" font-family="Helvetica,sans-Serif" font-size="10.00" fill="grey"> feat_num_of_queues</text>
</g>
<!-- Node9 -->
<g id="Node000009" class="node">
<title>Node9</title>
<g id="a_Node000009"><a xlink:href="unionspdk__nvme__feat__interrupt__coalescing.html" target="_top" xlink:title="Data used by Set Features/Get Features SPDK_NVME_FEAT_INTERRUPT_COALESCING.">
<polygon fill="white" stroke="#666666" points="348.12,-502.15 203.88,-502.15 203.88,-468.65 348.12,-468.65 348.12,-502.15"/>
<text text-anchor="start" x="211.88" y="-488.65" font-family="Helvetica,sans-Serif" font-size="10.00">spdk_nvme_feat_interrupt</text>
<text text-anchor="middle" x="276" y="-475.9" font-family="Helvetica,sans-Serif" font-size="10.00">_coalescing</text>
</a>
</g>
</g>
<!-- Node9&#45;&gt;Node1 -->
<g id="edge8_Node000001_Node000009" class="edge">
<title>Node9&#45;&gt;Node1</title>
<g id="a_edge8_Node000001_Node000009"><a xlink:title=" ">
<path fill="none" stroke="#9a32cd" stroke-dasharray="5,2" d="M359.94,-482.56C404.91,-479.78 461.21,-474.28 510.5,-463.4 531.05,-458.86 553.46,-450.77 570.05,-444.13"/>
<polygon fill="#9a32cd" stroke="#9a32cd" points="359.76,-479.07 349.98,-483.14 360.16,-486.06 359.76,-479.07"/>
</a>
</g>
<text text-anchor="middle" x="443" y="-483.65" font-family="Helvetica,sans-Serif" font-size="10.00" fill="grey"> feat_interrupt_coalescing</text>
</g>
<!-- Node10 -->
<g id="Node000010" class="node">
<title>Node10</title>
<g id="a_Node000010"><a xlink:href="unionspdk__nvme__feat__interrupt__vector__configuration.html" target="_top" xlink:title="Data used by Set Features/Get Features SPDK_NVME_FEAT_INTERRUPT_VECTOR_CONFIGURATION.">
<polygon fill="white" stroke="#666666" points="348.12,-450.15 203.88,-450.15 203.88,-416.65 348.12,-416.65 348.12,-450.15"/>
<text text-anchor="start" x="211.88" y="-436.65" font-family="Helvetica,sans-Serif" font-size="10.00">spdk_nvme_feat_interrupt</text>
<text text-anchor="middle" x="276" y="-423.9" font-family="Helvetica,sans-Serif" font-size="10.00">_vector_configuration</text>
</a>
</g>
</g>
<!-- Node10&#45;&gt;Node1 -->
<g id="edge9_Node000001_Node000010" class="edge">
<title>Node10&#45;&gt;Node1</title>
<g id="a_edge9_Node000001_Node000010"><a xlink:title=" ">
<path fill="none" stroke="#9a32cd" stroke-dasharray="5,2" d="M359.68,-433.4C412.07,-433.4 478.96,-433.4 528.05,-433.4"/>
<polygon fill="#9a32cd" stroke="#9a32cd" points="359.91,-429.9 349.91,-433.4 359.91,-436.9 359.91,-429.9"/>
</a>
</g>
<text text-anchor="start" x="390.12" y="-449.4" font-family="Helvetica,sans-Serif" font-size="10.00" fill="grey"> feat_interrupt_vector</text>
<text text-anchor="middle" x="443" y="-436.65" font-family="Helvetica,sans-Serif" font-size="10.00" fill="grey">_configuration</text>
</g>
<!-- Node11 -->
<g id="Node000011" class="node">
<title>Node11</title>
<g id="a_Node000011"><a xlink:href="unionspdk__nvme__feat__write__atomicity.html" target="_top" xlink:title="Data used by Set Features/Get Features SPDK_NVME_FEAT_WRITE_ATOMICITY.">
<polygon fill="white" stroke="#666666" points="339.5,-398.15 212.5,-398.15 212.5,-364.65 339.5,-364.65 339.5,-398.15"/>
<text text-anchor="start" x="220.5" y="-384.65" font-family="Helvetica,sans-Serif" font-size="10.00">spdk_nvme_feat_write</text>
<text text-anchor="middle" x="276" y="-371.9" font-family="Helvetica,sans-Serif" font-size="10.00">_atomicity</text>
</a>
</g>
</g>
<!-- Node11&#45;&gt;Node1 -->
<g id="edge10_Node000001_Node000011" class="edge">
<title>Node11&#45;&gt;Node1</title>
<g id="a_edge10_Node000001_Node000011"><a xlink:title=" ">
<path fill="none" stroke="#9a32cd" stroke-dasharray="5,2" d="M350.93,-391.68C396.93,-398.29 457.26,-407.36 510.5,-416.65 520.83,-418.45 531.84,-420.52 542.38,-422.57"/>
<polygon fill="#9a32cd" stroke="#9a32cd" points="351.46,-388.22 341.06,-390.27 350.46,-395.15 351.46,-388.22"/>
</a>
</g>
<text text-anchor="middle" x="443" y="-419.65" font-family="Helvetica,sans-Serif" font-size="10.00" fill="grey"> feat_write_atomicity</text>
</g>
<!-- Node12 -->
<g id="Node000012" class="node">
<title>Node12</title>
<g id="a_Node000012"><a xlink:href="unionspdk__nvme__feat__async__event__configuration.html" target="_top" xlink:title="Data used by Set Features / Get Features SPDK_NVME_FEAT_ASYNC_EVENT_CONFIGURATION.">
<polygon fill="white" stroke="#666666" points="341.38,-346.15 210.62,-346.15 210.62,-312.65 341.38,-312.65 341.38,-346.15"/>
<text text-anchor="start" x="218.62" y="-332.65" font-family="Helvetica,sans-Serif" font-size="10.00">spdk_nvme_feat_async</text>
<text text-anchor="middle" x="276" y="-319.9" font-family="Helvetica,sans-Serif" font-size="10.00">_event_configuration</text>
</a>
</g>
</g>
<!-- Node12&#45;&gt;Node1 -->
<g id="edge11_Node000001_Node000012" class="edge">
<title>Node12&#45;&gt;Node1</title>
<g id="a_edge11_Node000001_Node000012"><a xlink:title=" ">
<path fill="none" stroke="#9a32cd" stroke-dasharray="5,2" d="M353.07,-338.25C399.77,-345.43 460.08,-357.86 510.5,-378.65 537.84,-389.92 565.96,-410.17 581.92,-422.63"/>
<polygon fill="#9a32cd" stroke="#9a32cd" points="353.71,-334.81 343.31,-336.81 352.69,-341.74 353.71,-334.81"/>
</a>
</g>
<text text-anchor="middle" x="443" y="-381.65" font-family="Helvetica,sans-Serif" font-size="10.00" fill="grey"> feat_async_event_cfg</text>
</g>
<!-- Node13 -->
<g id="Node000013" class="node">
<title>Node13</title>
<g id="a_Node000013"><a xlink:href="unionspdk__nvme__critical__warning__state.html" target="_top" xlink:title=" ">
<polygon fill="white" stroke="#bfbfbf" points="110.5,-346.15 0,-346.15 0,-312.65 110.5,-312.65 110.5,-346.15"/>
<text text-anchor="start" x="8" y="-332.65" font-family="Helvetica,sans-Serif" font-size="10.00">spdk_nvme_critical</text>
<text text-anchor="middle" x="55.25" y="-319.9" font-family="Helvetica,sans-Serif" font-size="10.00">_warning_state</text>
</a>
</g>
</g>
<!-- Node13&#45;&gt;Node12 -->
<g id="edge12_Node000012_Node000013" class="edge">
<title>Node13&#45;&gt;Node12</title>
<g id="a_edge12_Node000012_Node000013"><a xlink:title=" ">
<path fill="none" stroke="#9a32cd" stroke-dasharray="5,2" d="M122.13,-329.4C150.02,-329.4 182.41,-329.4 210.18,-329.4"/>
<polygon fill="#9a32cd" stroke="#9a32cd" points="122.4,-325.9 112.4,-329.4 122.4,-332.9 122.4,-325.9"/>
</a>
</g>
<text text-anchor="middle" x="152.5" y="-332.65" font-family="Helvetica,sans-Serif" font-size="10.00" fill="grey"> crit_warn</text>
</g>
<!-- Node14 -->
<g id="Node000014" class="node">
<title>Node14</title>
<g id="a_Node000014"><a xlink:href="unionspdk__nvme__feat__keep__alive__timer.html" target="_top" xlink:title="Data used by Set Features/Get Features SPDK_NVME_FEAT_KEEP_ALIVE_TIMER.">
<polygon fill="white" stroke="#666666" points="338.75,-294.15 213.25,-294.15 213.25,-260.65 338.75,-260.65 338.75,-294.15"/>
<text text-anchor="start" x="221.25" y="-280.65" font-family="Helvetica,sans-Serif" font-size="10.00">spdk_nvme_feat_keep</text>
<text text-anchor="middle" x="276" y="-267.9" font-family="Helvetica,sans-Serif" font-size="10.00">_alive_timer</text>
</a>
</g>
</g>
<!-- Node14&#45;&gt;Node1 -->
<g id="edge13_Node000001_Node000014" class="edge">
<title>Node14&#45;&gt;Node1</title>
<g id="a_edge13_Node000001_Node000014"><a xlink:title=" ">
<path fill="none" stroke="#9a32cd" stroke-dasharray="5,2" d="M350.43,-279.65C399,-284.11 462.36,-295.84 510.5,-325.65 550.34,-350.32 578.98,-400.83 590.06,-422.8"/>
<polygon fill="#9a32cd" stroke="#9a32cd" points="350.81,-276.17 340.56,-278.84 350.24,-283.15 350.81,-276.17"/>
</a>
</g>
<text text-anchor="middle" x="443" y="-328.65" font-family="Helvetica,sans-Serif" font-size="10.00" fill="grey"> feat_keep_alive_timer</text>
</g>
<!-- Node15 -->
<g id="Node000015" class="node">
<title>Node15</title>
<g id="a_Node000015"><a xlink:href="unionspdk__nvme__feat__host__identifier.html" target="_top" xlink:title="Data used by Set Features/Get Features SPDK_NVME_FEAT_HOST_IDENTIFIER.">
<polygon fill="white" stroke="#666666" points="337.62,-242.15 214.38,-242.15 214.38,-208.65 337.62,-208.65 337.62,-242.15"/>
<text text-anchor="start" x="222.38" y="-228.65" font-family="Helvetica,sans-Serif" font-size="10.00">spdk_nvme_feat_host</text>
<text text-anchor="middle" x="276" y="-215.9" font-family="Helvetica,sans-Serif" font-size="10.00">_identifier</text>
</a>
</g>
</g>
<!-- Node15&#45;&gt;Node1 -->
<g id="edge14_Node000001_Node000015" class="edge">
<title>Node15&#45;&gt;Node1</title>
<g id="a_edge14_Node000001_Node000015"><a xlink:title=" ">
<path fill="none" stroke="#9a32cd" stroke-dasharray="5,2" d="M349.27,-221.61C399.07,-222.61 464.33,-231.48 510.5,-265.65 565.3,-306.2 587.03,-392.35 593.16,-422.61"/>
<polygon fill="#9a32cd" stroke="#9a32cd" points="349.47,-218.11 339.44,-221.52 349.41,-225.11 349.47,-218.11"/>
</a>
</g>
<text text-anchor="middle" x="443" y="-268.65" font-family="Helvetica,sans-Serif" font-size="10.00" fill="grey"> feat_host_identifier</text>
</g>
<!-- Node16 -->
<g id="Node000016" class="node">
<title>Node16</title>
<g id="a_Node000016"><a xlink:href="unionspdk__nvme__feat__reservation__notification__mask.html" target="_top" xlink:title="Data used by Set Features/Get Features SPDK_NVME_FEAT_HOST_RESERVE_MASK.">
<polygon fill="white" stroke="#666666" points="354.88,-190.15 197.12,-190.15 197.12,-156.65 354.88,-156.65 354.88,-190.15"/>
<text text-anchor="start" x="205.12" y="-176.65" font-family="Helvetica,sans-Serif" font-size="10.00">spdk_nvme_feat_reservation</text>
<text text-anchor="middle" x="276" y="-163.9" font-family="Helvetica,sans-Serif" font-size="10.00">_notification_mask</text>
</a>
</g>
</g>
<!-- Node16&#45;&gt;Node1 -->
<g id="edge15_Node000001_Node000016" class="edge">
<title>Node16&#45;&gt;Node1</title>
<g id="a_edge15_Node000001_Node000016"><a xlink:title=" ">
<path fill="none" stroke="#9a32cd" stroke-dasharray="5,2" d="M366.53,-164.94C414.01,-165.2 470.61,-173.64 510.5,-205.65 581.57,-262.66 592.95,-385.6 594.78,-422.63"/>
<polygon fill="#9a32cd" stroke="#9a32cd" points="366.79,-161.44 356.82,-165.02 366.84,-168.44 366.79,-161.44"/>
</a>
</g>
<text text-anchor="middle" x="443" y="-208.65" font-family="Helvetica,sans-Serif" font-size="10.00" fill="grey"> feat_rsv_notification_mask</text>
</g>
<!-- Node17 -->
<g id="Node000017" class="node">
<title>Node17</title>
<g id="a_Node000017"><a xlink:href="unionspdk__nvme__feat__reservation__persistence.html" target="_top" xlink:title="Data used by Set Features/Get Features SPDK_NVME_FEAT_HOST_RESERVE_PERSIST.">
<polygon fill="white" stroke="#666666" points="354.88,-138.15 197.12,-138.15 197.12,-104.65 354.88,-104.65 354.88,-138.15"/>
<text text-anchor="start" x="205.12" y="-124.65" font-family="Helvetica,sans-Serif" font-size="10.00">spdk_nvme_feat_reservation</text>
<text text-anchor="middle" x="276" y="-111.9" font-family="Helvetica,sans-Serif" font-size="10.00">_persistence</text>
</a>
</g>
</g>
<!-- Node17&#45;&gt;Node1 -->
<g id="edge16_Node000001_Node000017" class="edge">
<title>Node17&#45;&gt;Node1</title>
<g id="a_edge16_Node000001_Node000017"><a xlink:title=" ">
<path fill="none" stroke="#9a32cd" stroke-dasharray="5,2" d="M366.64,-109.27C414.43,-107.82 471.28,-114.78 510.5,-147.65 554.82,-184.78 586.25,-374.88 593.52,-422.55"/>
<polygon fill="#9a32cd" stroke="#9a32cd" points="366.69,-105.77 356.85,-109.71 367,-112.76 366.69,-105.77"/>
</a>
</g>
<text text-anchor="middle" x="443" y="-150.65" font-family="Helvetica,sans-Serif" font-size="10.00" fill="grey"> feat_rsv_persistence</text>
</g>
<!-- Node18 -->
<g id="Node000018" class="node">
<title>Node18</title>
<g id="a_Node000018"><a xlink:href="unionspdk__nvme__feat__fdp__cdw11.html" target="_top" xlink:title="Data used by Set Features/Get Features SPDK_NVME_FEAT_FDP.">
<polygon fill="white" stroke="#666666" points="335,-86.15 217,-86.15 217,-52.65 335,-52.65 335,-86.15"/>
<text text-anchor="start" x="225" y="-72.65" font-family="Helvetica,sans-Serif" font-size="10.00">spdk_nvme_feat_fdp</text>
<text text-anchor="middle" x="276" y="-59.9" font-family="Helvetica,sans-Serif" font-size="10.00">_cdw11</text>
</a>
</g>
</g>
<!-- Node18&#45;&gt;Node1 -->
<g id="edge17_Node000001_Node000018" class="edge">
<title>Node18&#45;&gt;Node1</title>
<g id="a_edge17_Node000001_Node000018"><a xlink:title=" ">
<path fill="none" stroke="#9a32cd" stroke-dasharray="5,2" d="M346.61,-56.45C397.88,-51.11 466.13,-53.39 510.5,-91.65 562.93,-136.85 588.83,-369.59 594.1,-422.63"/>
<polygon fill="#9a32cd" stroke="#9a32cd" points="346.31,-52.96 336.79,-57.6 347.13,-59.91 346.31,-52.96"/>
</a>
</g>
<text text-anchor="middle" x="443" y="-94.65" font-family="Helvetica,sans-Serif" font-size="10.00" fill="grey"> feat_fdp_cdw11</text>
</g>
<!-- Node19 -->
<g id="Node000019" class="node">
<title>Node19</title>
<g id="a_Node000019"><a xlink:href="unionspdk__nvme__feat__fdp__events__cdw11.html" target="_top" xlink:title="Data used by Set Features/Get Features SPDK_NVME_FEAT_FDP_EVENTS.">
<polygon fill="white" stroke="#666666" points="335,-34.15 217,-34.15 217,-0.65 335,-0.65 335,-34.15"/>
<text text-anchor="start" x="225" y="-20.65" font-family="Helvetica,sans-Serif" font-size="10.00">spdk_nvme_feat_fdp</text>
<text text-anchor="middle" x="276" y="-7.9" font-family="Helvetica,sans-Serif" font-size="10.00">_events_cdw11</text>
</a>
</g>
</g>
<!-- Node19&#45;&gt;Node1 -->
<g id="edge18_Node000001_Node000019" class="edge">
<title>Node19&#45;&gt;Node1</title>
<g id="a_edge18_Node000001_Node000019"><a xlink:title=" ">
<path fill="none" stroke="#9a32cd" stroke-dasharray="5,2" d="M346.61,-3.03C398.04,3.3 466.49,2.07 510.5,-36.65 571.05,-89.91 590.99,-365.36 594.52,-422.87"/>
<polygon fill="#9a32cd" stroke="#9a32cd" points="346.19,0.45 336.75,-4.37 347.13,-6.49 346.19,0.45"/>
</a>
</g>
<text text-anchor="middle" x="443" y="-40.65" font-family="Helvetica,sans-Serif" font-size="10.00" fill="grey"> feat_fdp_events_cdw11</text>
</g>
</g>
</svg>
