<?xml version="1.0" encoding="UTF-8" standalone="no"?>
<!DOCTYPE svg PUBLIC "-//W3C//DTD SVG 1.1//EN"
 "http://www.w3.org/Graphics/SVG/1.1/DTD/svg11.dtd">
<!-- Generated by graphviz version 9.0.0 (20230911.1827)
 -->
<!-- Title: spdk_nvme_cmd_cdw12 Pages: 1 -->
<svg width="308pt" height="111pt"
 viewBox="0.00 0.00 307.50 111.00" xmlns="http://www.w3.org/2000/svg" xmlns:xlink="http://www.w3.org/1999/xlink">
<g id="graph0" class="graph" transform="scale(1 1) rotate(0) translate(4 107)">
<title>spdk_nvme_cmd_cdw12</title>
<!-- Node1 -->
<g id="Node000001" class="node">
<title>Node1</title>
<g id="a_Node000001"><a xlink:title=" ">
<polygon fill="#999999" stroke="#666666" points="194.62,-20.75 59.38,-20.75 59.38,0 194.62,0 194.62,-20.75"/>
<text text-anchor="middle" x="127" y="-7.25" font-family="Helvetica,sans-Serif" font-size="10.00">spdk_nvme_cmd_cdw12</text>
</a>
</g>
</g>
<!-- Node2 -->
<g id="Node000002" class="node">
<title>Node2</title>
<g id="a_Node000002"><a xlink:href="unionspdk__nvme__feat__fdp__cdw12.html" target="_top" xlink:title="Data used by Set Features/Get Features SPDK_NVME_FEAT_FDP.">
<polygon fill="white" stroke="#666666" points="118,-103 0,-103 0,-69.5 118,-69.5 118,-103"/>
<text text-anchor="start" x="8" y="-89.5" font-family="Helvetica,sans-Serif" font-size="10.00">spdk_nvme_feat_fdp</text>
<text text-anchor="middle" x="59" y="-76.75" font-family="Helvetica,sans-Serif" font-size="10.00">_cdw12</text>
</a>
</g>
</g>
<!-- Node2&#45;&gt;Node1 -->
<g id="edge1_Node000001_Node000002" class="edge">
<title>Node2&#45;&gt;Node1</title>
<g id="a_edge1_Node000001_Node000002"><a xlink:title=" ">
<path fill="none" stroke="#9a32cd" stroke-dasharray="5,2" d="M75.46,-59.99C80.62,-52.81 86.59,-45.2 92.75,-38.75 98.95,-32.25 106.71,-25.93 113.28,-21"/>
<polygon fill="#9a32cd" stroke="#9a32cd" points="72.65,-57.9 69.83,-68.12 78.4,-61.89 72.65,-57.9"/>
</a>
</g>
<text text-anchor="middle" x="132.12" y="-42" font-family="Helvetica,sans-Serif" font-size="10.00" fill="grey"> feat_fdp_cdw12</text>
</g>
<!-- Node3 -->
<g id="Node000003" class="node">
<title>Node3</title>
<g id="a_Node000003"><a xlink:href="unionspdk__nvme__feat__fdp__events__cdw12.html" target="_top" xlink:title="Data used by Set Feature SPDK_NVME_FEAT_FDP_EVENTS.">
<polygon fill="white" stroke="#666666" points="254,-103 136,-103 136,-69.5 254,-69.5 254,-103"/>
<text text-anchor="start" x="144" y="-89.5" font-family="Helvetica,sans-Serif" font-size="10.00">spdk_nvme_feat_fdp</text>
<text text-anchor="middle" x="195" y="-76.75" font-family="Helvetica,sans-Serif" font-size="10.00">_events_cdw12</text>
</a>
</g>
</g>
<!-- Node3&#45;&gt;Node1 -->
<g id="edge2_Node000001_Node000003" class="edge">
<title>Node3&#45;&gt;Node1</title>
<g id="a_edge2_Node000001_Node000003"><a xlink:title=" ">
<path fill="none" stroke="#9a32cd" stroke-dasharray="5,2" d="M185.69,-58.64C182.41,-51.65 178.2,-44.47 173,-38.75 166.37,-31.46 157.35,-25.52 149.05,-21.05"/>
<polygon fill="#9a32cd" stroke="#9a32cd" points="182.44,-59.94 189.52,-67.83 188.9,-57.25 182.44,-59.94"/>
</a>
</g>
<text text-anchor="middle" x="240.25" y="-42" font-family="Helvetica,sans-Serif" font-size="10.00" fill="grey"> feat_fdp_events_cdw12</text>
</g>
</g>
</svg>
