<?xml version="1.0" encoding="UTF-8" standalone="no"?>
<!DOCTYPE svg PUBLIC "-//W3C//DTD SVG 1.1//EN"
 "http://www.w3.org/Graphics/SVG/1.1/DTD/svg11.dtd">
<!-- Generated by graphviz version 9.0.0 (20230911.1827)
 -->
<!-- Title: nvmf_c2h_msg Pages: 1 -->
<svg width="432pt" height="181pt"
 viewBox="0.00 0.00 432.25 180.50" xmlns="http://www.w3.org/2000/svg" xmlns:xlink="http://www.w3.org/1999/xlink">
<g id="graph0" class="graph" transform="scale(1 1) rotate(0) translate(4 176.5)">
<title>nvmf_c2h_msg</title>
<!-- Node1 -->
<g id="Node000001" class="node">
<title>Node1</title>
<g id="a_Node000001"><a xlink:title=" ">
<polygon fill="#999999" stroke="#666666" points="220,-20.75 129.75,-20.75 129.75,0 220,0 220,-20.75"/>
<text text-anchor="middle" x="174.88" y="-7.25" font-family="Helvetica,sans-Serif" font-size="10.00">nvmf_c2h_msg</text>
</a>
</g>
</g>
<!-- Node2 -->
<g id="Node000002" class="node">
<title>Node2</title>
<g id="a_Node000002"><a xlink:href="structspdk__nvme__cpl.html" target="_top" xlink:title="Completion queue entry.">
<polygon fill="white" stroke="#666666" points="91.75,-96.62 0,-96.62 0,-75.88 91.75,-75.88 91.75,-96.62"/>
<text text-anchor="middle" x="45.88" y="-83.12" font-family="Helvetica,sans-Serif" font-size="10.00">spdk_nvme_cpl</text>
</a>
</g>
</g>
<!-- Node2&#45;&gt;Node1 -->
<g id="edge1_Node000001_Node000002" class="edge">
<title>Node2&#45;&gt;Node1</title>
<g id="a_edge1_Node000001_Node000002"><a xlink:title=" ">
<path fill="none" stroke="#9a32cd" stroke-dasharray="5,2" d="M70.48,-69.18C84.9,-59.95 103.58,-48.33 120.62,-38.75 131.57,-32.6 144.06,-26.25 154.3,-21.22"/>
<polygon fill="#9a32cd" stroke="#9a32cd" points="68.59,-66.23 62.08,-74.59 72.39,-72.11 68.59,-66.23"/>
</a>
</g>
<text text-anchor="middle" x="146" y="-42" font-family="Helvetica,sans-Serif" font-size="10.00" fill="grey"> nvme_cpl</text>
</g>
<!-- Node3 -->
<g id="Node000003" class="node">
<title>Node3</title>
<g id="a_Node000003"><a xlink:href="structspdk__nvme__status.html" target="_top" xlink:title=" ">
<polygon fill="white" stroke="#bfbfbf" points="228.62,-172.5 121.12,-172.5 121.12,-151.75 228.62,-151.75 228.62,-172.5"/>
<text text-anchor="middle" x="174.88" y="-159" font-family="Helvetica,sans-Serif" font-size="10.00">spdk_nvme_status</text>
</a>
</g>
</g>
<!-- Node3&#45;&gt;Node2 -->
<g id="edge2_Node000002_Node000003" class="edge">
<title>Node3&#45;&gt;Node2</title>
<g id="a_edge2_Node000002_Node000003"><a xlink:title=" ">
<path fill="none" stroke="#9a32cd" stroke-dasharray="5,2" d="M147.95,-145.7C122.41,-131.08 84.8,-109.54 63.08,-97.1"/>
<polygon fill="#9a32cd" stroke="#9a32cd" points="146.01,-148.63 156.43,-150.56 149.49,-142.56 146.01,-148.63"/>
</a>
</g>
<text text-anchor="middle" x="142.38" y="-124.25" font-family="Helvetica,sans-Serif" font-size="10.00" fill="grey"> status</text>
</g>
<!-- Node4 -->
<g id="Node000004" class="node">
<title>Node4</title>
<g id="a_Node000004"><a xlink:href="structspdk__nvmf__fabric__prop__get__rsp.html" target="_top" xlink:title=" ">
<polygon fill="white" stroke="#bfbfbf" points="239.88,-103 109.88,-103 109.88,-69.5 239.88,-69.5 239.88,-103"/>
<text text-anchor="start" x="117.88" y="-89.5" font-family="Helvetica,sans-Serif" font-size="10.00">spdk_nvmf_fabric_prop</text>
<text text-anchor="middle" x="174.88" y="-76.75" font-family="Helvetica,sans-Serif" font-size="10.00">_get_rsp</text>
</a>
</g>
</g>
<!-- Node3&#45;&gt;Node4 -->
<g id="edge4_Node000004_Node000003" class="edge">
<title>Node3&#45;&gt;Node4</title>
<g id="a_edge4_Node000004_Node000003"><a xlink:title=" ">
<path fill="none" stroke="#9a32cd" stroke-dasharray="5,2" d="M174.88,-140.13C174.88,-128.47 174.88,-114.19 174.88,-103.41"/>
<polygon fill="#9a32cd" stroke="#9a32cd" points="171.38,-139.95 174.88,-149.95 178.38,-139.95 171.38,-139.95"/>
</a>
</g>
<text text-anchor="middle" x="191.38" y="-124.25" font-family="Helvetica,sans-Serif" font-size="10.00" fill="grey"> status</text>
</g>
<!-- Node5 -->
<g id="Node000005" class="node">
<title>Node5</title>
<g id="a_Node000005"><a xlink:href="structspdk__nvmf__fabric__connect__rsp.html" target="_top" xlink:title=" ">
<polygon fill="white" stroke="#bfbfbf" points="424.25,-96.62 257.5,-96.62 257.5,-75.88 424.25,-75.88 424.25,-96.62"/>
<text text-anchor="middle" x="340.88" y="-83.12" font-family="Helvetica,sans-Serif" font-size="10.00">spdk_nvmf_fabric_connect_rsp</text>
</a>
</g>
</g>
<!-- Node3&#45;&gt;Node5 -->
<g id="edge6_Node000005_Node000003" class="edge">
<title>Node3&#45;&gt;Node5</title>
<g id="a_edge6_Node000005_Node000003"><a xlink:title=" ">
<path fill="none" stroke="#9a32cd" stroke-dasharray="5,2" d="M207.36,-146.67C240.23,-132.04 290.17,-109.82 318.74,-97.1"/>
<polygon fill="#9a32cd" stroke="#9a32cd" points="206.01,-143.44 198.3,-150.7 208.86,-149.83 206.01,-143.44"/>
</a>
</g>
<text text-anchor="middle" x="279.38" y="-124.25" font-family="Helvetica,sans-Serif" font-size="10.00" fill="grey"> status</text>
</g>
<!-- Node4&#45;&gt;Node1 -->
<g id="edge3_Node000001_Node000004" class="edge">
<title>Node4&#45;&gt;Node1</title>
<g id="a_edge3_Node000001_Node000004"><a xlink:title=" ">
<path fill="none" stroke="#9a32cd" stroke-dasharray="5,2" d="M174.88,-57.95C174.88,-44.92 174.88,-30.18 174.88,-20.83"/>
<polygon fill="#9a32cd" stroke="#9a32cd" points="171.38,-57.71 174.88,-67.71 178.38,-57.71 171.38,-57.71"/>
</a>
</g>
<text text-anchor="middle" x="207.88" y="-42" font-family="Helvetica,sans-Serif" font-size="10.00" fill="grey"> prop_get_rsp</text>
</g>
<!-- Node5&#45;&gt;Node1 -->
<g id="edge5_Node000001_Node000005" class="edge">
<title>Node5&#45;&gt;Node1</title>
<g id="a_edge5_Node000001_Node000005"><a xlink:title=" ">
<path fill="none" stroke="#9a32cd" stroke-dasharray="5,2" d="M311.9,-70.48C292.99,-61.03 267.68,-48.71 244.88,-38.75 230.65,-32.53 214.52,-26.18 201.33,-21.16"/>
<polygon fill="#9a32cd" stroke="#9a32cd" points="310.1,-73.49 320.6,-74.86 313.24,-67.24 310.1,-73.49"/>
</a>
</g>
<text text-anchor="middle" x="302.62" y="-42" font-family="Helvetica,sans-Serif" font-size="10.00" fill="grey"> connect_rsp</text>
</g>
</g>
</svg>
