<?xml version="1.0" encoding="UTF-8" standalone="no"?>
<!DOCTYPE svg PUBLIC "-//W3C//DTD SVG 1.1//EN"
 "http://www.w3.org/Graphics/SVG/1.1/DTD/svg11.dtd">
<!-- Generated by graphviz version 9.0.0 (20230911.1827)
 -->
<!-- Title: spdk_ioat_hw_desc Pages: 1 -->
<svg width="360pt" height="353pt"
 viewBox="0.00 0.00 360.25 353.12" xmlns="http://www.w3.org/2000/svg" xmlns:xlink="http://www.w3.org/1999/xlink">

<svg id="main" version="1.1" xmlns="http://www.w3.org/2000/svg" xmlns:xlink="http://www.w3.org/1999/xlink" xml:space="preserve" onload="init(evt)">
<style type="text/css"><![CDATA[
.node, .edge {opacity: 0.7;}
.node.selected, .edge.selected {opacity: 1;}
.edge:hover path { stroke: red; }
.edge:hover polygon { stroke: red; fill: red; }
]]></style>
<script type="application/ecmascript" xlink:href="svg.min.js"/>
<svg id="graph" class="graph">
<g id="graph0" class="graph" transform="scale(1 1) rotate(0) translate(4 349.12)">
<title>spdk_ioat_hw_desc</title>
<!-- Node1 -->
<g id="Node000001" class="node">
<title>Node1</title>
<g id="a_Node000001"><a xlink:title=" ">
<polygon fill="#999999" stroke="#666666" points="352.25,-189.12 241.75,-189.12 241.75,-168.38 352.25,-168.38 352.25,-189.12"/>
<text text-anchor="middle" x="297" y="-175.62" font-family="Helvetica,sans-Serif" font-size="10.00">spdk_ioat_hw_desc</text>
</a>
</g>
</g>
<!-- Node2 -->
<g id="Node000002" class="node">
<title>Node2</title>
<g id="a_Node000002"><a xlink:href="structspdk__ioat__raw__hw__desc.html" target="_top" xlink:title=" ">
<polygon fill="white" stroke="#bfbfbf" points="142.75,-345.12 9,-345.12 9,-324.38 142.75,-324.38 142.75,-345.12"/>
<text text-anchor="middle" x="75.88" y="-331.62" font-family="Helvetica,sans-Serif" font-size="10.00">spdk_ioat_raw_hw_desc</text>
</a>
</g>
</g>
<!-- Node2&#45;&gt;Node1 -->
<g id="edge1_Node000001_Node000002" class="edge">
<title>Node2&#45;&gt;Node1</title>
<g id="a_edge1_Node000001_Node000002"><a xlink:title=" ">
<path fill="none" stroke="#9a32cd" stroke-dasharray="5,2" d="M153.93,-325.11C178.03,-319.25 203.56,-309.85 223.75,-294.75 261.36,-266.61 284.01,-212.61 292.35,-189.58"/>
<polygon fill="#9a32cd" stroke="#9a32cd" points="153.46,-321.63 144.47,-327.22 154.99,-328.46 153.46,-321.63"/>
</a>
</g>
<text text-anchor="middle" x="196.75" y="-323" font-family="Helvetica,sans-Serif" font-size="10.00" fill="grey"> raw</text>
</g>
<!-- Node3 -->
<g id="Node000003" class="node">
<title>Node3</title>
<g id="a_Node000003"><a xlink:href="structspdk__ioat__generic__hw__desc.html" target="_top" xlink:title=" ">
<polygon fill="white" stroke="#bfbfbf" points="151.75,-306.12 0,-306.12 0,-285.38 151.75,-285.38 151.75,-306.12"/>
<text text-anchor="middle" x="75.88" y="-292.62" font-family="Helvetica,sans-Serif" font-size="10.00">spdk_ioat_generic_hw_desc</text>
</a>
</g>
</g>
<!-- Node3&#45;&gt;Node1 -->
<g id="edge2_Node000001_Node000003" class="edge">
<title>Node3&#45;&gt;Node1</title>
<g id="a_edge2_Node000001_Node000003"><a xlink:title=" ">
<path fill="none" stroke="#9a32cd" stroke-dasharray="5,2" d="M156.21,-282.08C179.08,-275.94 203.35,-267.18 223.75,-254.75 252.2,-237.41 276.9,-206.03 288.67,-189.54"/>
<polygon fill="#9a32cd" stroke="#9a32cd" points="155.42,-278.67 146.58,-284.51 157.14,-285.45 155.42,-278.67"/>
</a>
</g>
<text text-anchor="middle" x="196.75" y="-281" font-family="Helvetica,sans-Serif" font-size="10.00" fill="grey"> generic</text>
</g>
<!-- Node4 -->
<g id="Node000004" class="node">
<title>Node4</title>
<g id="a_Node000004"><a xlink:href="structspdk__ioat__dma__hw__desc.html" target="_top" xlink:title=" ">
<polygon fill="white" stroke="#bfbfbf" points="144.62,-267.12 7.12,-267.12 7.12,-246.38 144.62,-246.38 144.62,-267.12"/>
<text text-anchor="middle" x="75.88" y="-253.62" font-family="Helvetica,sans-Serif" font-size="10.00">spdk_ioat_dma_hw_desc</text>
</a>
</g>
</g>
<!-- Node4&#45;&gt;Node1 -->
<g id="edge3_Node000001_Node000004" class="edge">
<title>Node4&#45;&gt;Node1</title>
<g id="a_edge3_Node000001_Node000004"><a xlink:title=" ">
<path fill="none" stroke="#9a32cd" stroke-dasharray="5,2" d="M151.71,-243.51C175.23,-238.14 201,-230.98 223.75,-221.75 244.72,-213.24 266.78,-199.28 280.93,-189.58"/>
<polygon fill="#9a32cd" stroke="#9a32cd" points="151.21,-240.04 142.19,-245.6 152.71,-246.87 151.21,-240.04"/>
</a>
</g>
<text text-anchor="middle" x="196.75" y="-241" font-family="Helvetica,sans-Serif" font-size="10.00" fill="grey"> dma</text>
</g>
<!-- Node5 -->
<g id="Node000005" class="node">
<title>Node5</title>
<g id="a_Node000005"><a xlink:href="structspdk__ioat__fill__hw__desc.html" target="_top" xlink:title=" ">
<polygon fill="white" stroke="#bfbfbf" points="139.75,-228.12 12,-228.12 12,-207.38 139.75,-207.38 139.75,-228.12"/>
<text text-anchor="middle" x="75.88" y="-214.62" font-family="Helvetica,sans-Serif" font-size="10.00">spdk_ioat_fill_hw_desc</text>
</a>
</g>
</g>
<!-- Node5&#45;&gt;Node1 -->
<g id="edge4_Node000001_Node000005" class="edge">
<title>Node5&#45;&gt;Node1</title>
<g id="a_edge4_Node000001_Node000005"><a xlink:title=" ">
<path fill="none" stroke="#9a32cd" stroke-dasharray="5,2" d="M151.18,-207.83C174.48,-204.4 200.25,-200.27 223.75,-195.75 233.11,-193.95 243.1,-191.77 252.57,-189.58"/>
<polygon fill="#9a32cd" stroke="#9a32cd" points="150.86,-204.35 141.46,-209.25 151.86,-211.27 150.86,-204.35"/>
</a>
</g>
<text text-anchor="middle" x="196.75" y="-208" font-family="Helvetica,sans-Serif" font-size="10.00" fill="grey"> fill</text>
</g>
<!-- Node6 -->
<g id="Node000006" class="node">
<title>Node6</title>
<g id="a_Node000006"><a xlink:href="structspdk__ioat__xor__hw__desc.html" target="_top" xlink:title=" ">
<polygon fill="white" stroke="#bfbfbf" points="141.25,-189.12 10.5,-189.12 10.5,-168.38 141.25,-168.38 141.25,-189.12"/>
<text text-anchor="middle" x="75.88" y="-175.62" font-family="Helvetica,sans-Serif" font-size="10.00">spdk_ioat_xor_hw_desc</text>
</a>
</g>
</g>
<!-- Node6&#45;&gt;Node1 -->
<g id="edge5_Node000001_Node000006" class="edge">
<title>Node6&#45;&gt;Node1</title>
<g id="a_edge5_Node000001_Node000006"><a xlink:title=" ">
<path fill="none" stroke="#9a32cd" stroke-dasharray="5,2" d="M153.09,-178.75C182.14,-178.75 214.64,-178.75 241.3,-178.75"/>
<polygon fill="#9a32cd" stroke="#9a32cd" points="153.24,-175.25 143.24,-178.75 153.24,-182.25 153.24,-175.25"/>
</a>
</g>
<text text-anchor="middle" x="196.75" y="-182" font-family="Helvetica,sans-Serif" font-size="10.00" fill="grey"> xor_desc</text>
</g>
<!-- Node7 -->
<g id="Node000007" class="node">
<title>Node7</title>
<g id="a_Node000007"><a xlink:href="structspdk__ioat__xor__ext__hw__desc.html" target="_top" xlink:title=" ">
<polygon fill="white" stroke="#bfbfbf" points="151.75,-150.12 0,-150.12 0,-129.38 151.75,-129.38 151.75,-150.12"/>
<text text-anchor="middle" x="75.88" y="-136.62" font-family="Helvetica,sans-Serif" font-size="10.00">spdk_ioat_xor_ext_hw_desc</text>
</a>
</g>
</g>
<!-- Node7&#45;&gt;Node1 -->
<g id="edge6_Node000001_Node000007" class="edge">
<title>Node7&#45;&gt;Node1</title>
<g id="a_edge6_Node000001_Node000007"><a xlink:title=" ">
<path fill="none" stroke="#9a32cd" stroke-dasharray="5,2" d="M163.39,-151.72C183.27,-154.78 204.28,-158.28 223.75,-162 232.86,-163.74 242.55,-165.83 251.79,-167.93"/>
<polygon fill="#9a32cd" stroke="#9a32cd" points="164.07,-148.28 153.66,-150.24 163.02,-155.2 164.07,-148.28"/>
</a>
</g>
<text text-anchor="middle" x="196.75" y="-165" font-family="Helvetica,sans-Serif" font-size="10.00" fill="grey"> xor_ext</text>
</g>
<!-- Node8 -->
<g id="Node000008" class="node">
<title>Node8</title>
<g id="a_Node000008"><a xlink:href="structspdk__ioat__pq__hw__desc.html" target="_top" xlink:title=" ">
<polygon fill="white" stroke="#bfbfbf" points="139.75,-111.12 12,-111.12 12,-90.38 139.75,-90.38 139.75,-111.12"/>
<text text-anchor="middle" x="75.88" y="-97.62" font-family="Helvetica,sans-Serif" font-size="10.00">spdk_ioat_pq_hw_desc</text>
</a>
</g>
</g>
<!-- Node8&#45;&gt;Node1 -->
<g id="edge7_Node000001_Node000008" class="edge">
<title>Node8&#45;&gt;Node1</title>
<g id="a_edge7_Node000001_Node000008"><a xlink:title=" ">
<path fill="none" stroke="#9a32cd" stroke-dasharray="5,2" d="M151.04,-114.02C174.74,-119.45 200.78,-126.69 223.75,-136 244.69,-144.48 266.76,-158.37 280.91,-168"/>
<polygon fill="#9a32cd" stroke="#9a32cd" points="151.97,-110.64 141.45,-111.9 150.46,-117.48 151.97,-110.64"/>
</a>
</g>
<text text-anchor="middle" x="196.75" y="-139" font-family="Helvetica,sans-Serif" font-size="10.00" fill="grey"> pq</text>
</g>
<!-- Node9 -->
<g id="Node000009" class="node">
<title>Node9</title>
<g id="a_Node000009"><a xlink:href="structspdk__ioat__pq__ext__hw__desc.html" target="_top" xlink:title=" ">
<polygon fill="white" stroke="#bfbfbf" points="150.25,-72.12 1.5,-72.12 1.5,-51.38 150.25,-51.38 150.25,-72.12"/>
<text text-anchor="middle" x="75.88" y="-58.62" font-family="Helvetica,sans-Serif" font-size="10.00">spdk_ioat_pq_ext_hw_desc</text>
</a>
</g>
</g>
<!-- Node9&#45;&gt;Node1 -->
<g id="edge8_Node000001_Node000009" class="edge">
<title>Node9&#45;&gt;Node1</title>
<g id="a_edge8_Node000001_Node000009"><a xlink:title=" ">
<path fill="none" stroke="#9a32cd" stroke-dasharray="5,2" d="M157.52,-75.32C180,-81.32 203.74,-89.87 223.75,-102 252.55,-119.45 277.27,-151.47 288.9,-168.09"/>
<polygon fill="#9a32cd" stroke="#9a32cd" points="158.62,-71.98 148.07,-72.94 156.91,-78.77 158.62,-71.98"/>
</a>
</g>
<text text-anchor="middle" x="196.75" y="-105" font-family="Helvetica,sans-Serif" font-size="10.00" fill="grey"> pq_ext</text>
</g>
<!-- Node10 -->
<g id="Node000010" class="node">
<title>Node10</title>
<g id="a_Node000010"><a xlink:href="structspdk__ioat__pq__update__hw__desc.html" target="_top" xlink:title=" ">
<polygon fill="white" stroke="#bfbfbf" points="135.62,-33.5 16.12,-33.5 16.12,0 135.62,0 135.62,-33.5"/>
<text text-anchor="start" x="24.12" y="-20" font-family="Helvetica,sans-Serif" font-size="10.00">spdk_ioat_pq_update</text>
<text text-anchor="middle" x="75.88" y="-7.25" font-family="Helvetica,sans-Serif" font-size="10.00">_hw_desc</text>
</a>
</g>
</g>
<!-- Node10&#45;&gt;Node1 -->
<g id="edge9_Node000001_Node000010" class="edge">
<title>Node10&#45;&gt;Node1</title>
<g id="a_edge9_Node000001_Node000010"><a xlink:title=" ">
<path fill="none" stroke="#9a32cd" stroke-dasharray="5,2" d="M147.08,-27.61C173.13,-34.27 201.67,-44.94 223.75,-62 261.1,-90.85 283.89,-144.91 292.31,-167.93"/>
<polygon fill="#9a32cd" stroke="#9a32cd" points="148.11,-24.26 137.57,-25.35 146.49,-31.07 148.11,-24.26"/>
</a>
</g>
<text text-anchor="middle" x="196.75" y="-65" font-family="Helvetica,sans-Serif" font-size="10.00" fill="grey"> pq_update</text>
</g>
</g>
</svg>
</svg>

<style type='text/css'>
<![CDATA[
[data-mouse-over-selected='false'] { opacity: 0.7; }
[data-mouse-over-selected='true']  { opacity: 1.0; }
]]>
</style>
<script type="application/ecmascript"><![CDATA[
document.addEventListener('DOMContentLoaded', (event) => {
  highlightEdges();
  highlightAdjacentNodes();
});
]]></script>
</svg>
