<?xml version="1.0" encoding="UTF-8" standalone="no"?>
<!DOCTYPE svg PUBLIC "-//W3C//DTD SVG 1.1//EN"
 "http://www.w3.org/Graphics/SVG/1.1/DTD/svg11.dtd">
<!-- Generated by graphviz version 9.0.0 (20230911.1827)
 -->
<!-- Title: spdk_nvmf_rdma_private_data Pages: 1 -->
<svg width="411pt" height="146pt"
 viewBox="0.00 0.00 411.25 145.50" xmlns="http://www.w3.org/2000/svg" xmlns:xlink="http://www.w3.org/1999/xlink">
<g id="graph0" class="graph" transform="scale(1 1) rotate(0) translate(4 141.5)">
<title>spdk_nvmf_rdma_private_data</title>
<!-- Node1 -->
<g id="Node000001" class="node">
<title>Node1</title>
<g id="a_Node000001"><a xlink:title=" ">
<polygon fill="#999999" stroke="#666666" points="403.25,-79.12 235.75,-79.12 235.75,-58.38 403.25,-58.38 403.25,-79.12"/>
<text text-anchor="middle" x="319.5" y="-65.62" font-family="Helvetica,sans-Serif" font-size="10.00">spdk_nvmf_rdma_private_data</text>
</a>
</g>
</g>
<!-- Node2 -->
<g id="Node000002" class="node">
<title>Node2</title>
<g id="a_Node000002"><a xlink:href="structspdk__nvmf__rdma__request__private__data.html" target="_top" xlink:title=" ">
<polygon fill="white" stroke="#bfbfbf" points="142.75,-137.5 0,-137.5 0,-104 142.75,-104 142.75,-137.5"/>
<text text-anchor="start" x="8" y="-124" font-family="Helvetica,sans-Serif" font-size="10.00">spdk_nvmf_rdma_request</text>
<text text-anchor="middle" x="71.38" y="-111.25" font-family="Helvetica,sans-Serif" font-size="10.00">_private_data</text>
</a>
</g>
</g>
<!-- Node2&#45;&gt;Node1 -->
<g id="edge1_Node000001_Node000002" class="edge">
<title>Node2&#45;&gt;Node1</title>
<g id="a_edge1_Node000001_Node000002"><a xlink:title=" ">
<path fill="none" stroke="#9a32cd" stroke-dasharray="5,2" d="M154.11,-103.48C191.47,-95.59 234.57,-86.48 267.26,-79.58"/>
<polygon fill="#9a32cd" stroke="#9a32cd" points="153.78,-99.97 144.72,-105.47 155.22,-106.82 153.78,-99.97"/>
</a>
</g>
<text text-anchor="middle" x="189.25" y="-104" font-family="Helvetica,sans-Serif" font-size="10.00" fill="grey"> pd_request</text>
</g>
<!-- Node3 -->
<g id="Node000003" class="node">
<title>Node3</title>
<g id="a_Node000003"><a xlink:href="structspdk__nvmf__rdma__accept__private__data.html" target="_top" xlink:title=" ">
<polygon fill="white" stroke="#bfbfbf" points="140.5,-85.5 2.25,-85.5 2.25,-52 140.5,-52 140.5,-85.5"/>
<text text-anchor="start" x="10.25" y="-72" font-family="Helvetica,sans-Serif" font-size="10.00">spdk_nvmf_rdma_accept</text>
<text text-anchor="middle" x="71.38" y="-59.25" font-family="Helvetica,sans-Serif" font-size="10.00">_private_data</text>
</a>
</g>
</g>
<!-- Node3&#45;&gt;Node1 -->
<g id="edge2_Node000001_Node000003" class="edge">
<title>Node3&#45;&gt;Node1</title>
<g id="a_edge2_Node000001_Node000003"><a xlink:title=" ">
<path fill="none" stroke="#9a32cd" stroke-dasharray="5,2" d="M152.15,-68.75C178.79,-68.75 208.54,-68.75 235.44,-68.75"/>
<polygon fill="#9a32cd" stroke="#9a32cd" points="152.45,-65.25 142.45,-68.75 152.45,-72.25 152.45,-65.25"/>
</a>
</g>
<text text-anchor="middle" x="189.25" y="-72" font-family="Helvetica,sans-Serif" font-size="10.00" fill="grey"> pd_accept</text>
</g>
<!-- Node4 -->
<g id="Node000004" class="node">
<title>Node4</title>
<g id="a_Node000004"><a xlink:href="structspdk__nvmf__rdma__reject__private__data.html" target="_top" xlink:title=" ">
<polygon fill="white" stroke="#bfbfbf" points="138.25,-33.5 4.5,-33.5 4.5,0 138.25,0 138.25,-33.5"/>
<text text-anchor="start" x="12.5" y="-20" font-family="Helvetica,sans-Serif" font-size="10.00">spdk_nvmf_rdma_reject</text>
<text text-anchor="middle" x="71.38" y="-7.25" font-family="Helvetica,sans-Serif" font-size="10.00">_private_data</text>
</a>
</g>
</g>
<!-- Node4&#45;&gt;Node1 -->
<g id="edge3_Node000001_Node000004" class="edge">
<title>Node4&#45;&gt;Node1</title>
<g id="a_edge3_Node000001_Node000004"><a xlink:title=" ">
<path fill="none" stroke="#9a32cd" stroke-dasharray="5,2" d="M149.79,-33.11C188.13,-41.21 233.36,-50.76 267.33,-57.94"/>
<polygon fill="#9a32cd" stroke="#9a32cd" points="150.64,-29.71 140.14,-31.07 149.2,-36.56 150.64,-29.71"/>
</a>
</g>
<text text-anchor="middle" x="189.25" y="-51" font-family="Helvetica,sans-Serif" font-size="10.00" fill="grey"> pd_reject</text>
</g>
</g>
</svg>
