<?xml version="1.0" encoding="UTF-8" standalone="no"?>
<!DOCTYPE svg PUBLIC "-//W3C//DTD SVG 1.1//EN"
 "http://www.w3.org/Graphics/SVG/1.1/DTD/svg11.dtd">
<!-- Generated by graphviz version 9.0.0 (20230911.1827)
 -->
<!-- Title: nvmf_h2c_msg Pages: 1 -->
<svg width="626pt" height="325pt"
 viewBox="0.00 0.00 626.00 324.75" xmlns="http://www.w3.org/2000/svg" xmlns:xlink="http://www.w3.org/1999/xlink">
<g id="graph0" class="graph" transform="scale(1 1) rotate(0) translate(4 320.75)">
<title>nvmf_h2c_msg</title>
<!-- Node1 -->
<g id="Node000001" class="node">
<title>Node1</title>
<g id="a_Node000001"><a xlink:title=" ">
<polygon fill="#999999" stroke="#666666" points="618,-180.75 527.75,-180.75 527.75,-160 618,-160 618,-180.75"/>
<text text-anchor="middle" x="572.88" y="-167.25" font-family="Helvetica,sans-Serif" font-size="10.00">nvmf_h2c_msg</text>
</a>
</g>
</g>
<!-- Node2 -->
<g id="Node000002" class="node">
<title>Node2</title>
<g id="a_Node000002"><a xlink:href="structspdk__nvmf__capsule__cmd.html" target="_top" xlink:title=" ">
<polygon fill="white" stroke="#bfbfbf" points="395.38,-316.75 256.38,-316.75 256.38,-296 395.38,-296 395.38,-316.75"/>
<text text-anchor="middle" x="325.88" y="-303.25" font-family="Helvetica,sans-Serif" font-size="10.00">spdk_nvmf_capsule_cmd</text>
</a>
</g>
</g>
<!-- Node2&#45;&gt;Node1 -->
<g id="edge1_Node000001_Node000002" class="edge">
<title>Node2&#45;&gt;Node1</title>
<g id="a_edge1_Node000001_Node000002"><a xlink:title=" ">
<path fill="none" stroke="#9a32cd" stroke-dasharray="5,2" d="M407.04,-301.17C441.12,-295.77 479.81,-285.14 509.75,-264.38 540.61,-242.97 560.13,-200.8 567.96,-181.05"/>
<polygon fill="#9a32cd" stroke="#9a32cd" points="406.58,-297.7 397.18,-302.59 407.57,-304.63 406.58,-297.7"/>
</a>
</g>
<text text-anchor="middle" x="470" y="-299.62" font-family="Helvetica,sans-Serif" font-size="10.00" fill="grey"> nvmf_cmd</text>
</g>
<!-- Node3 -->
<g id="Node000003" class="node">
<title>Node3</title>
<g id="a_Node000003"><a xlink:href="structspdk__nvme__cmd.html" target="_top" xlink:title=" ">
<polygon fill="white" stroke="#bfbfbf" points="375.12,-134.75 276.62,-134.75 276.62,-114 375.12,-114 375.12,-134.75"/>
<text text-anchor="middle" x="325.88" y="-121.25" font-family="Helvetica,sans-Serif" font-size="10.00">spdk_nvme_cmd</text>
</a>
</g>
</g>
<!-- Node3&#45;&gt;Node1 -->
<g id="edge2_Node000001_Node000003" class="edge">
<title>Node3&#45;&gt;Node1</title>
<g id="a_edge2_Node000001_Node000003"><a xlink:title=" ">
<path fill="none" stroke="#9a32cd" stroke-dasharray="5,2" d="M386.52,-132.3C422.4,-137.47 468.9,-144.88 509.75,-153.62 517.72,-155.33 526.2,-157.43 534.25,-159.55"/>
<polygon fill="#9a32cd" stroke="#9a32cd" points="387.15,-128.86 376.76,-130.92 386.17,-135.79 387.15,-128.86"/>
</a>
</g>
<text text-anchor="middle" x="470" y="-156.62" font-family="Helvetica,sans-Serif" font-size="10.00" fill="grey"> nvme_cmd</text>
</g>
<!-- Node4 -->
<g id="Node000004" class="node">
<title>Node4</title>
<g id="a_Node000004"><a xlink:href="structspdk__nvme__sgl__descriptor.html" target="_top" xlink:title=" ">
<polygon fill="white" stroke="#bfbfbf" points="145.75,-224.75 0,-224.75 0,-204 145.75,-204 145.75,-224.75"/>
<text text-anchor="middle" x="72.88" y="-211.25" font-family="Helvetica,sans-Serif" font-size="10.00">spdk_nvme_sgl_descriptor</text>
</a>
</g>
</g>
<!-- Node4&#45;&gt;Node3 -->
<g id="edge3_Node000003_Node000004" class="edge">
<title>Node4&#45;&gt;Node3</title>
<g id="a_edge3_Node000003_Node000004"><a xlink:title=" ">
<path fill="none" stroke="#9a32cd" stroke-dasharray="5,2" d="M105.61,-198.57C138.4,-182.8 191.44,-158.9 239.5,-144.38 251.3,-140.81 264.18,-137.49 276.28,-134.63"/>
<polygon fill="#9a32cd" stroke="#9a32cd" points="104.12,-195.39 96.66,-202.91 107.18,-201.69 104.12,-195.39"/>
</a>
</g>
<text text-anchor="middle" x="192.62" y="-174.62" font-family="Helvetica,sans-Serif" font-size="10.00" fill="grey"> sgl1</text>
</g>
<!-- Node31 -->
<g id="Node000031" class="node">
<title>Node31</title>
<g id="a_Node000031"><a xlink:href="structspdk__nvmf__fabric__connect__cmd.html" target="_top" xlink:title=" ">
<polygon fill="white" stroke="#bfbfbf" points="412.25,-277.75 239.5,-277.75 239.5,-257 412.25,-257 412.25,-277.75"/>
<text text-anchor="middle" x="325.88" y="-264.25" font-family="Helvetica,sans-Serif" font-size="10.00">spdk_nvmf_fabric_connect_cmd</text>
</a>
</g>
</g>
<!-- Node4&#45;&gt;Node31 -->
<g id="edge11_Node000031_Node000004" class="edge">
<title>Node4&#45;&gt;Node31</title>
<g id="a_edge11_Node000031_Node000004"><a xlink:title=" ">
<path fill="none" stroke="#9a32cd" stroke-dasharray="5,2" d="M130.02,-227.8C141.18,-230.38 152.83,-233.01 163.75,-235.38 198.18,-242.81 236.89,-250.52 267.73,-256.51"/>
<polygon fill="#9a32cd" stroke="#9a32cd" points="131.08,-224.45 120.54,-225.59 129.49,-231.27 131.08,-224.45"/>
</a>
</g>
<text text-anchor="middle" x="192.62" y="-249.62" font-family="Helvetica,sans-Serif" font-size="10.00" fill="grey"> sgl1</text>
</g>
<!-- Node32 -->
<g id="Node000032" class="node">
<title>Node32</title>
<g id="a_Node000032"><a xlink:href="structspdk__nvmf__fabric__auth__send__cmd.html" target="_top" xlink:title=" ">
<polygon fill="white" stroke="#bfbfbf" points="390.88,-239.12 260.88,-239.12 260.88,-205.62 390.88,-205.62 390.88,-239.12"/>
<text text-anchor="start" x="268.88" y="-225.62" font-family="Helvetica,sans-Serif" font-size="10.00">spdk_nvmf_fabric_auth</text>
<text text-anchor="middle" x="325.88" y="-212.88" font-family="Helvetica,sans-Serif" font-size="10.00">_send_cmd</text>
</a>
</g>
</g>
<!-- Node4&#45;&gt;Node32 -->
<g id="edge13_Node000032_Node000004" class="edge">
<title>Node4&#45;&gt;Node32</title>
<g id="a_edge13_Node000032_Node000004"><a xlink:title=" ">
<path fill="none" stroke="#9a32cd" stroke-dasharray="5,2" d="M157.33,-217.03C190.9,-218.1 229.01,-219.32 260.39,-220.32"/>
<polygon fill="#9a32cd" stroke="#9a32cd" points="157.76,-213.55 147.65,-216.73 157.53,-220.54 157.76,-213.55"/>
</a>
</g>
<text text-anchor="middle" x="192.62" y="-221.62" font-family="Helvetica,sans-Serif" font-size="10.00" fill="grey"> sgl1</text>
</g>
<!-- Node33 -->
<g id="Node000033" class="node">
<title>Node33</title>
<g id="a_Node000033"><a xlink:href="structspdk__nvmf__fabric__auth__recv__cmd.html" target="_top" xlink:title=" ">
<polygon fill="white" stroke="#bfbfbf" points="390.88,-187.12 260.88,-187.12 260.88,-153.62 390.88,-153.62 390.88,-187.12"/>
<text text-anchor="start" x="268.88" y="-173.62" font-family="Helvetica,sans-Serif" font-size="10.00">spdk_nvmf_fabric_auth</text>
<text text-anchor="middle" x="325.88" y="-160.88" font-family="Helvetica,sans-Serif" font-size="10.00">_recv_cmd</text>
</a>
</g>
</g>
<!-- Node4&#45;&gt;Node33 -->
<g id="edge15_Node000033_Node000004" class="edge">
<title>Node4&#45;&gt;Node33</title>
<g id="a_edge15_Node000033_Node000004"><a xlink:title=" ">
<path fill="none" stroke="#9a32cd" stroke-dasharray="5,2" d="M146.56,-201.63C182.66,-195.3 225.91,-187.72 260.76,-181.61"/>
<polygon fill="#9a32cd" stroke="#9a32cd" points="146.33,-198.12 137.09,-203.29 147.54,-205.01 146.33,-198.12"/>
</a>
</g>
<text text-anchor="middle" x="192.62" y="-200.62" font-family="Helvetica,sans-Serif" font-size="10.00" fill="grey"> sgl1</text>
</g>
<!-- Node5 -->
<g id="Node000005" class="node">
<title>Node5</title>
<g id="a_Node000005"><a xlink:href="unionspdk__nvme__cmd__cdw10.html" target="_top" xlink:title=" ">
<polygon fill="white" stroke="#bfbfbf" points="140.5,-137.75 5.25,-137.75 5.25,-117 140.5,-117 140.5,-137.75"/>
<text text-anchor="middle" x="72.88" y="-124.25" font-family="Helvetica,sans-Serif" font-size="10.00">spdk_nvme_cmd_cdw10</text>
</a>
</g>
</g>
<!-- Node5&#45;&gt;Node3 -->
<g id="edge4_Node000003_Node000005" class="edge">
<title>Node5&#45;&gt;Node3</title>
<g id="a_edge4_Node000003_Node000005"><a xlink:title=" ">
<path fill="none" stroke="#9a32cd" stroke-dasharray="5,2" d="M151.94,-125.8C155.93,-125.74 159.89,-125.68 163.75,-125.62 201.51,-125.11 244.25,-124.79 276.22,-124.6"/>
<polygon fill="#9a32cd" stroke="#9a32cd" points="152.08,-122.3 142.13,-125.96 152.19,-129.3 152.08,-122.3"/>
</a>
</g>
<text text-anchor="middle" x="192.62" y="-128.62" font-family="Helvetica,sans-Serif" font-size="10.00" fill="grey"> cdw10_bits</text>
</g>
<!-- Node6 -->
<g id="Node000006" class="node">
<title>Node6</title>
<g id="a_Node000006"><a xlink:href="unionspdk__nvme__cmd__cdw11.html" target="_top" xlink:title=" ">
<polygon fill="white" stroke="orangered" points="140.5,-98.75 5.25,-98.75 5.25,-78 140.5,-78 140.5,-98.75"/>
<text text-anchor="middle" x="72.88" y="-85.25" font-family="Helvetica,sans-Serif" font-size="10.00">spdk_nvme_cmd_cdw11</text>
</a>
</g>
</g>
<!-- Node6&#45;&gt;Node3 -->
<g id="edge5_Node000003_Node000006" class="edge">
<title>Node6&#45;&gt;Node3</title>
<g id="a_edge5_Node000003_Node000006"><a xlink:title=" ">
<path fill="none" stroke="#9a32cd" stroke-dasharray="5,2" d="M152,-98.1C174.45,-101.02 198.97,-104.33 221.5,-107.62 239.4,-110.24 259,-113.35 276.28,-116.18"/>
<polygon fill="#9a32cd" stroke="#9a32cd" points="152.68,-94.66 142.31,-96.85 151.78,-101.6 152.68,-94.66"/>
</a>
</g>
<text text-anchor="middle" x="192.62" y="-110.62" font-family="Helvetica,sans-Serif" font-size="10.00" fill="grey"> cdw11_bits</text>
</g>
<!-- Node25 -->
<g id="Node000025" class="node">
<title>Node25</title>
<g id="a_Node000025"><a xlink:href="unionspdk__nvme__cmd__cdw12.html" target="_top" xlink:title=" ">
<polygon fill="white" stroke="orangered" points="140.5,-59.75 5.25,-59.75 5.25,-39 140.5,-39 140.5,-59.75"/>
<text text-anchor="middle" x="72.88" y="-46.25" font-family="Helvetica,sans-Serif" font-size="10.00">spdk_nvme_cmd_cdw12</text>
</a>
</g>
</g>
<!-- Node25&#45;&gt;Node3 -->
<g id="edge6_Node000003_Node000025" class="edge">
<title>Node25&#45;&gt;Node3</title>
<g id="a_edge6_Node000003_Node000025"><a xlink:title=" ">
<path fill="none" stroke="#9a32cd" stroke-dasharray="5,2" d="M151.88,-56.79C175.55,-61.63 200.77,-69.58 221.5,-82.62 232.41,-89.49 228.58,-98.52 239.5,-105.38 250.56,-112.31 263.83,-116.74 276.57,-119.55"/>
<polygon fill="#9a32cd" stroke="#9a32cd" points="152.73,-53.39 142.25,-54.99 151.44,-60.27 152.73,-53.39"/>
</a>
</g>
<text text-anchor="middle" x="192.62" y="-85.62" font-family="Helvetica,sans-Serif" font-size="10.00" fill="grey"> cdw12_bits</text>
</g>
<!-- Node28 -->
<g id="Node000028" class="node">
<title>Node28</title>
<g id="a_Node000028"><a xlink:href="unionspdk__nvme__cmd__cdw13.html" target="_top" xlink:title=" ">
<polygon fill="white" stroke="#bfbfbf" points="140.5,-20.75 5.25,-20.75 5.25,0 140.5,0 140.5,-20.75"/>
<text text-anchor="middle" x="72.88" y="-7.25" font-family="Helvetica,sans-Serif" font-size="10.00">spdk_nvme_cmd_cdw13</text>
</a>
</g>
</g>
<!-- Node28&#45;&gt;Node3 -->
<g id="edge7_Node000003_Node000028" class="edge">
<title>Node28&#45;&gt;Node3</title>
<g id="a_edge7_Node000003_Node000028"><a xlink:title=" ">
<path fill="none" stroke="#9a32cd" stroke-dasharray="5,2" d="M152.06,-12.65C176.94,-17.07 202.82,-26.07 221.5,-43.62 242.33,-63.2 218.64,-85.83 239.5,-105.38 249.47,-114.72 262.98,-119.84 276.31,-122.56"/>
<polygon fill="#9a32cd" stroke="#9a32cd" points="152.64,-9.2 142.22,-11.15 151.58,-16.12 152.64,-9.2"/>
</a>
</g>
<text text-anchor="middle" x="192.62" y="-47.62" font-family="Helvetica,sans-Serif" font-size="10.00" fill="grey"> cdw13_bits</text>
</g>
<!-- Node29 -->
<g id="Node000029" class="node">
<title>Node29</title>
<g id="a_Node000029"><a xlink:href="structspdk__nvmf__fabric__prop__set__cmd.html" target="_top" xlink:title=" ">
<polygon fill="white" stroke="#bfbfbf" points="390.88,-96.12 260.88,-96.12 260.88,-62.62 390.88,-62.62 390.88,-96.12"/>
<text text-anchor="start" x="268.88" y="-82.62" font-family="Helvetica,sans-Serif" font-size="10.00">spdk_nvmf_fabric_prop</text>
<text text-anchor="middle" x="325.88" y="-69.88" font-family="Helvetica,sans-Serif" font-size="10.00">_set_cmd</text>
</a>
</g>
</g>
<!-- Node29&#45;&gt;Node1 -->
<g id="edge8_Node000001_Node000029" class="edge">
<title>Node29&#45;&gt;Node1</title>
<g id="a_edge8_Node000001_Node000029"><a xlink:title=" ">
<path fill="none" stroke="#9a32cd" stroke-dasharray="5,2" d="M402.56,-89.85C436.46,-96.4 476.26,-106.71 509.75,-122.62 529.65,-132.09 549.24,-148.7 560.95,-159.62"/>
<polygon fill="#9a32cd" stroke="#9a32cd" points="403.26,-86.42 392.79,-88.05 401.99,-93.31 403.26,-86.42"/>
</a>
</g>
<text text-anchor="middle" x="470" y="-125.62" font-family="Helvetica,sans-Serif" font-size="10.00" fill="grey"> prop_set_cmd</text>
</g>
<!-- Node30 -->
<g id="Node000030" class="node">
<title>Node30</title>
<g id="a_Node000030"><a xlink:href="structspdk__nvmf__fabric__prop__get__cmd.html" target="_top" xlink:title=" ">
<polygon fill="white" stroke="#bfbfbf" points="390.88,-44.12 260.88,-44.12 260.88,-10.62 390.88,-10.62 390.88,-44.12"/>
<text text-anchor="start" x="268.88" y="-30.62" font-family="Helvetica,sans-Serif" font-size="10.00">spdk_nvmf_fabric_prop</text>
<text text-anchor="middle" x="325.88" y="-17.88" font-family="Helvetica,sans-Serif" font-size="10.00">_get_cmd</text>
</a>
</g>
</g>
<!-- Node30&#45;&gt;Node1 -->
<g id="edge9_Node000001_Node000030" class="edge">
<title>Node30&#45;&gt;Node1</title>
<g id="a_edge9_Node000001_Node000030"><a xlink:title=" ">
<path fill="none" stroke="#9a32cd" stroke-dasharray="5,2" d="M402.52,-36.37C437.67,-43.46 478.49,-56.1 509.75,-78.62 539.56,-100.11 559.47,-140.61 567.66,-159.79"/>
<polygon fill="#9a32cd" stroke="#9a32cd" points="403.29,-32.96 392.82,-34.54 401.99,-39.84 403.29,-32.96"/>
</a>
</g>
<text text-anchor="middle" x="470" y="-81.62" font-family="Helvetica,sans-Serif" font-size="10.00" fill="grey"> prop_get_cmd</text>
</g>
<!-- Node31&#45;&gt;Node1 -->
<g id="edge10_Node000001_Node000031" class="edge">
<title>Node31&#45;&gt;Node1</title>
<g id="a_edge10_Node000001_Node000031"><a xlink:title=" ">
<path fill="none" stroke="#9a32cd" stroke-dasharray="5,2" d="M407.78,-254.22C440.63,-246.84 478.2,-235.74 509.75,-219.38 529.5,-209.13 549.14,-192.23 560.89,-181.2"/>
<polygon fill="#9a32cd" stroke="#9a32cd" points="407.35,-250.73 398.31,-256.26 408.82,-257.57 407.35,-250.73"/>
</a>
</g>
<text text-anchor="middle" x="470" y="-250.62" font-family="Helvetica,sans-Serif" font-size="10.00" fill="grey"> connect_cmd</text>
</g>
<!-- Node32&#45;&gt;Node1 -->
<g id="edge12_Node000001_Node000032" class="edge">
<title>Node32&#45;&gt;Node1</title>
<g id="a_edge12_Node000001_Node000032"><a xlink:title=" ">
<path fill="none" stroke="#9a32cd" stroke-dasharray="5,2" d="M402.02,-209.36C435.17,-203.26 474.53,-195.55 509.75,-187.38 517.7,-185.53 526.17,-183.35 534.21,-181.19"/>
<polygon fill="#9a32cd" stroke="#9a32cd" points="401.73,-205.85 392.52,-211.09 402.98,-212.74 401.73,-205.85"/>
</a>
</g>
<text text-anchor="middle" x="470" y="-205.62" font-family="Helvetica,sans-Serif" font-size="10.00" fill="grey"> auth_send_cmd</text>
</g>
<!-- Node33&#45;&gt;Node1 -->
<g id="edge14_Node000001_Node000033" class="edge">
<title>Node33&#45;&gt;Node1</title>
<g id="a_edge14_Node000001_Node000033"><a xlink:title=" ">
<path fill="none" stroke="#9a32cd" stroke-dasharray="5,2" d="M402.58,-170.38C443.59,-170.38 492.85,-170.38 527.63,-170.38"/>
<polygon fill="#9a32cd" stroke="#9a32cd" points="402.76,-166.88 392.76,-170.38 402.76,-173.88 402.76,-166.88"/>
</a>
</g>
<text text-anchor="middle" x="470" y="-173.62" font-family="Helvetica,sans-Serif" font-size="10.00" fill="grey"> auth_recv_cmd</text>
</g>
</g>
</svg>
