<?xml version="1.0" encoding="utf-8"?>
<!-- Generator: Adobe Illustrator 19.1.0, SVG Export Plug-In . SVG Version: 6.00 Build 0)  -->
<svg version="1.1" id="Layer_1" xmlns="http://www.w3.org/2000/svg" xmlns:xlink="http://www.w3.org/1999/xlink" x="0px" y="0px"
	 viewBox="0 0 18 18" style="enable-background:new 0 0 18 18;" xml:space="preserve">
<g>
	<path d="M8.2498,12.6428v1.6771l-4.75-1.25v-9.25l4.75,1.25v4.0597C8.4807,8.98,8.742,8.8735,9.0299,8.8262
		c0.245-0.0409,0.4853-0.0284,0.7199,0.0051V5.0699l4.75-1.25v3.4512c0.066,0.0416,0.1335,0.0811,0.1949,0.1288
		c0.0101-0.0001,0.0194-0.003,0.0295-0.003c0.6837,0,1.2887,0.3114,1.7014,0.7927c0.2025,0.0275,0.3924,0.0895,0.5742,0.1667
		l-0.0002-3.0561c-0.0182-0.7137-0.4019-1.2125-0.9995-1.3939V3.3198c0-0.4468-0.1279-0.7671-0.3647-0.9409
		c-0.1719-0.1338-0.3896-0.1987-0.665-0.1987c-0.0972,0-0.2456,0.0083-0.4189,0.0532L9.0096,3.8201H8.9903L3.4294,2.2285
		c-0.1553-0.04-0.3032-0.0483-0.3999-0.0483c-0.2754,0-0.4932,0.0649-0.6494,0.1865C2.1276,2.5527,1.9997,2.873,1.9997,3.3198
		v0.5963C1.3862,4.1074,1.0002,4.6104,1.0002,5.3198l0.0005,9.0195c0.0229,0.8994,0.6118,1.4805,1.4995,1.4805h7.7216
		c-0.4009-0.4805-0.6509-0.9957-0.871-1.4541C9.0708,13.7824,8.7971,13.2316,8.2498,12.6428z M14.5002,3.814v0.0059h-0.0208
		L14.5002,3.814z M3.5031,3.8091l0.0391,0.0112H3.5031V3.8091z"/>
	<path d="M16.9977,10.4092c0-0.4834-0.3916-0.875-0.875-0.875c-0.2003,0-0.376,0.0789-0.5234,0.192V9.647
		c0-0.4834-0.3916-0.875-0.875-0.875c-0.2177,0-0.4106,0.0876-0.5637,0.2191c-0.0852-0.394-0.4191-0.6951-0.8387-0.6951
		c-0.202,0-0.3793,0.0797-0.5273,0.1946V6.6948c0-0.4834-0.3916-0.875-0.875-0.875s-0.875,0.3916-0.875,0.875v4.483
		c-0.072-0.0669-0.143-0.1328-0.2-0.183c-0.4676-0.4113-1.077-0.7242-1.5096-0.6884c-0.0196,0.0013-0.0431-0.0036-0.0614-0.0003
		c-0.0037,0.0006-0.0059,0.003-0.0095,0.0037c-0.0641,0.0117-0.121,0.0361-0.1744,0.0668c-0.0104,0.006-0.0243,0.0076-0.0341,0.0143
		c-0.0594,0.0405-0.1107,0.0941-0.151,0.164c-0.0328,0.0571-0.0553,0.1117-0.0696,0.1638
		c-0.0038,0.0135-0.0029,0.0287-0.0057,0.0427c-0.0101,0.0529-0.0121,0.103-0.0068,0.1505
		c0.0014,0.0103,0.0025,0.0203,0.0046,0.0307c0.0405,0.2291,0.2302,0.394,0.3524,0.4985c0.1901,0.1927,0.3434,0.3774,0.4888,0.5601
		c0.6023,0.7556,0.8968,1.4411,1.1888,2.0275l-0.0019,0.0005c0.0735,0.1477,0.1483,0.2886,0.2287,0.4229
		c0.0207,0.0346,0.0467,0.0655,0.0683,0.0992c0.0703,0.1094,0.1453,0.2155,0.2291,0.3149c0.0412,0.0489,0.0909,0.0944,0.1365,0.1407
		c0.0775,0.0786,0.1622,0.1547,0.2551,0.226c0.0594,0.0456,0.1244,0.0898,0.1913,0.1324c0.0421,0.0267,0.0743,0.0574,0.1198,0.0828
		l0.0164-0.0104c0.1162,0.0656,0.2207,0.1352,0.3613,0.1923v-0.0005c0,0,0.3751,0.19,1.5,0.19c1.689,0,3.038-0.952,3.038-2.622
		c0,0-0.0018-0.9847-0.0018-1.0172V10.4092z"/>
</g>
</svg>
