<?xml version="1.0" encoding="utf-8"?>
<!-- Generator: Adobe Illustrator 18.1.1, SVG Export Plug-In . SVG Version: 6.00 Build 0)  -->
<svg version="1.1" id="Layer_1" xmlns="http://www.w3.org/2000/svg" xmlns:xlink="http://www.w3.org/1999/xlink" x="0px" y="0px"
	 viewBox="0 0 18 18" enable-background="new 0 0 18 18" xml:space="preserve">
<g>
	<path d="M11.9998,8.8839l-3,3l-3-3l-3.9527,3.9527C2.1432,13.2782,2.4548,14,3.5,14h11c0,0,1.2407-0.014,1.4557-1.1602
		L11.9998,8.8839z"/>
	<path d="M8.9998,10.1163l6.0341-6.0341C14.8801,4.0329,14.707,4,14.5,4h-11c0,0-0.2361,0.004-0.5197,0.0968L8.9998,10.1163z"/>
	<path d="M16,11.1165V5.5c0,0-0.0041-0.236-0.0968-0.5195l-3.0196,3.0196L16,11.1165z"/>
	<path d="M2.0822,4.9662C2.0329,5.12,2,5.293,2,5.5v5.6161l3.116-3.116L2.0822,4.9662z"/>
</g>
</svg>
